<?xml version="1.0" encoding="iso-8859-1"?>
<!-- Generator: Adobe Illustrator 19.0.0, SVG Export Plug-In . SVG Version: 6.00 Build 0)  -->
<svg xmlns="http://www.w3.org/2000/svg" xmlns:xlink="http://www.w3.org/1999/xlink" version="1.1" id="Layer_1" x="0px" y="0px" viewBox="0 0 511.999 511.999" style="enable-background:new 0 0 511.999 511.999;" xml:space="preserve">
<g>
	<g>
		<path d="M501.737,341.501c-43.594-55.706-85.991-92.554-121.317-116.756c8.499-8.866,37.278-42.337,36.563-88.349    c-0.565-36.275-19.265-70.893-55.582-102.89c-3.338-2.941-8.428-2.618-11.369,0.719c-2.941,3.337-2.618,8.428,0.719,11.369    c32.712,28.821,49.575,59.401,50.12,90.89c0.443,25.475-10.03,46.97-19.424,61.043c-2.944-16.466-12.371-28.676-19.227-35.67    c1.398-7.074,2.307-14.564,2.713-22.415c5.176,3.937,9.555,7.975,13.273,11.693c3.146,3.146,8.246,3.146,11.391,0    c3.146-3.146,3.146-8.246,0-11.391c-25.436-25.436-55.227-37.8-91.076-37.8c-35.32,0-53.821-28.153-55.744-31.243l-14.58-30.271    c4.619-4.539,13.763-12.388,26.512-17.974c25.027-10.964,51.197-7.859,77.78,9.226c3.741,2.405,8.726,1.322,11.131-2.421    c2.406-3.742,1.321-8.726-2.421-11.131c-39.117-25.142-72.14-19.548-92.955-10.43c-16.225,7.109-27.542,17.326-32.733,22.645    c-30.497-3.67-60.021,12.591-72.896,40.695c-14.255,31.117-27.156,77.51-9.846,124.587c-14.12,12.658-28.062,27.738-41.503,44.914    c-2.742,3.503-2.124,8.566,1.379,11.307c1.474,1.154,3.222,1.712,4.959,1.712c2.393,0,4.761-1.061,6.35-3.091    c17.631-22.529,33.45-37.671,43.617-46.407c3.091-2.656,7.022-3.872,11.071-3.418c4.036,0.451,7.591,2.496,10.011,5.759    l23.521,31.705c2.581,3.477,7.448,4.294,11.021,1.847l28.52-19.529c15.163,8.415,32.418,13.075,50.241,13.075    c14.654,0,27.802-3.119,39.083-9.171c3.506,13.959,9.211,40.199,10.535,67.583c0.553,11.432,0.318,21.815-0.685,31.155    c-0.138,0.589-0.204,1.189-0.207,1.792c-3.741,31.191-16.382,50.33-37.782,57.017c-9.272,2.898-17.721,4.154-25.418,4.153    c-42.492-0.004-61.796-38.344-66.877-50.593c9.87-14.522,18.733-29.906,21.94-42.09c1.132-4.303-1.437-8.707-5.74-9.84    c-4.303-1.133-8.708,1.437-9.84,5.74c-5.349,20.325-30.773,53.323-44.978,70.649l-4.072-14.367    c5.58-9.304,10.34-18.868,13.004-27.752c1.278-4.261-1.14-8.751-5.4-10.03c-4.264-1.28-8.751,1.14-10.03,5.4    c-5.723,19.075-23.43,43.013-35.694,58.053l-1.374-17.715c4.916-6.407,9.418-12.991,13.132-19.561    c2.189-3.873,0.824-8.788-3.049-10.977c-3.872-2.189-8.788-0.825-10.977,3.049c-12.294,21.751-34.869,44.468-50.461,58.76    l4.582-26.455c5.552-6.535,10.914-13.392,15.946-20.44c2.585-3.621,1.746-8.651-1.874-11.236    c-3.622-2.585-8.651-1.746-11.236,1.874c-5.192,7.271-10.745,14.343-16.503,21.019c-0.071,0.083-0.14,0.166-0.207,0.251    c-8.477,9.803-16.532,17.735-23.434,23.915c15.456-38.072,33.732-72.499,54.497-102.621c2.525-3.662,1.602-8.679-2.06-11.204    c-3.664-2.525-8.68-1.602-11.204,2.06c-26.305,38.156-48.695,82.903-66.551,132.998c-1.142,3.204-0.148,6.78,2.483,8.936    c1.475,1.208,3.285,1.824,5.106,1.824c1.427,0,2.861-0.379,4.144-1.148c0.702-0.422,13.441-8.16,30.843-24.854l-4.264,24.625    c-0.571,3.298,0.957,6.606,3.839,8.309c1.271,0.751,2.686,1.12,4.097,1.12c1.79,0,3.571-0.596,5.033-1.766    c1.34-1.073,22.774-18.326,43.324-40.892l1.607,20.727c0.247,3.192,2.361,5.934,5.384,6.985c0.867,0.302,1.76,0.448,2.645,0.448    c2.206,0,4.361-0.908,5.912-2.583c0.954-1.03,13.993-15.196,27.025-33.377l4.422,15.601c0.803,2.835,3.091,5.006,5.965,5.659    c0.593,0.134,1.191,0.201,1.785,0.201c2.282,0,4.493-0.972,6.04-2.726c0.983-1.114,12.72-14.478,25.505-31.605    c3.423,6.519,8.425,14.61,15.273,22.447c-1.822,5.959-2.784,12.473-2.784,19.135c0,19.931,8.272,36.509,20.18,42.987    L209.052,464.3l-7.939-7.938c-3.146-3.146-8.246-3.146-11.391,0c-3.146,3.146-3.146,8.246,0,11.391l8.652,8.652l-24.674,14.099    c-3.862,2.207-5.205,7.127-2.998,10.991c2.207,3.862,7.127,5.205,10.99,2.998l14.456-8.26l-1.831,4.883    c-1.563,4.165,0.549,8.808,4.714,10.371c0.932,0.349,1.887,0.514,2.827,0.514c3.262,0,6.331-1.996,7.543-5.229l29.872-69.537    c12.612-3.05,22.38-16.553,25.154-34.671c2.349,15.192,9.637,27.162,19.353,32.419l-13.52,29.318l-7.938-7.938    c-3.146-3.146-8.246-3.146-11.391,0c-3.146,3.146-3.146,8.246,0,11.391l8.652,8.652l-24.674,14.099    c-3.862,2.207-5.205,7.127-2.998,10.991c2.207,3.862,7.128,5.205,10.99,2.998l14.455-8.26l-1.831,4.883    c-1.563,4.165,0.549,8.808,4.714,10.371c0.932,0.349,1.887,0.514,2.827,0.514c3.262,0,6.331-1.996,7.543-5.229l29.879-69.552    c14.919-3.682,25.947-22.224,25.947-45.237c0-4.13-0.366-8.182-1.077-12.105c3.229-3.53,6.044-7.413,8.483-11.587    c9.471,6.05,16.044,9.881,16.385,10.079c1.252,0.728,2.651,1.091,4.048,1.091c1.447,0,2.892-0.389,4.175-1.166    c2.521-1.527,4.006-4.31,3.872-7.254l-0.737-16.211c18.292,13.26,35.299,22.645,36.188,23.133    c1.213,0.666,2.547,0.993,3.875,0.993c1.744,0,3.478-0.565,4.917-1.674c2.536-1.954,3.674-5.223,2.901-8.328l-5.025-20.172    c26.63,14.914,52.416,24.508,54.027,25.102c0.91,0.335,1.852,0.497,2.784,0.497c2.289,0,4.522-0.977,6.082-2.772    c2.195-2.526,2.6-6.148,1.015-9.096l-11.83-22.016c21.791,10.34,36.322,13.656,37.121,13.833c0.583,0.13,1.17,0.192,1.75,0.192    c2.725,0,5.315-1.387,6.811-3.758C504.021,347.886,503.833,344.18,501.737,341.501z M233.815,421.787    c-7.225,0-15.305-12.747-15.305-29.804c0-2.112,0.134-4.19,0.375-6.222c7.974,6.097,17.797,11.422,29.62,14.26    C246.484,413.127,239.758,421.787,233.815,421.787z M295.023,421.787c-5.711,0-12.236-8.156-14.484-20.588    c5.445-0.793,11.157-2.07,17.161-3.945c4.595-1.436,8.779-3.279,12.624-5.441c0,0.058,0.005,0.113,0.005,0.171    C310.328,409.04,302.248,421.787,295.023,421.787z M365.652,215.076c-7.237-4.514-14.086-8.459-20.507-11.917    c0.26-0.357,0.523-0.708,0.779-1.07c4.46-6.326,8.16-13.556,11.1-21.541C363.039,188.936,367.981,200.614,365.652,215.076z     M176.108,191.133c-4.473-3.567-9.911-5.857-15.676-6.501c-4.717-0.529-9.465,0.065-13.86,1.661    c-13.391-40.707-1.891-81.081,10.69-108.545c9.877-21.558,32.461-34.078,55.88-31.452l14.239,29.57    C225.373,89.652,213.136,162.699,176.108,191.133z M200.489,222.278l-13.972-18.834c4.412-3.466,8.502-7.418,12.289-11.737    c5.355,7.174,11.579,13.569,18.481,19.068L200.489,222.278z M281.953,217.389c-29.313,0-56.821-14.896-72.962-39.179    c18.272-27.849,27.536-63.583,31.728-84.763c11.232,11.186,30.415,24.606,57.801,24.606c21.093,0,37.575,4.816,50.559,11.412    c0,0.132,0.001,0.258,0.001,0.392C349.079,156.175,342.538,217.389,281.953,217.389z M340.623,353.498    c1.407-3.988,2.579-8.128,3.547-12.378c0.23,0.199,0.462,0.398,0.695,0.597l0.678,14.915    C344,355.66,342.351,354.611,340.623,353.498z M440.928,313.909c-7.529-4.486-15.034-9.442-22.306-14.728    c-3.598-2.614-8.636-1.819-11.253,1.779c-2.616,3.598-1.819,8.636,1.779,11.253c7.044,5.121,14.303,9.932,21.601,14.355    l12.706,23.647c-19.3-8.623-47.886-23.032-66.45-39.805c-3.302-2.983-8.395-2.724-11.377,0.577    c-2.983,3.3-2.725,8.395,0.577,11.377c5.601,5.061,11.954,9.885,18.644,14.41l4.297,17.249    c-9.131-5.792-20.749-13.683-31.26-22.398c-4.003-3.31-7.591-6.534-10.719-9.623c3.935-41.835-6.834-88.106-11.525-105.66    c34.716,18.411,83.401,52.203,135.368,113.022C462.435,325.648,452.183,320.614,440.928,313.909z"/>
	</g>
</g>
<g>
	<g>
		<path d="M291.2,124.874c-4.449,0-8.055,3.607-8.055,8.055v14.992c0,4.449,3.607,8.055,8.055,8.055    c4.449,0,8.055-3.607,8.055-8.055v-14.992C299.255,128.48,295.648,124.874,291.2,124.874z"/>
	</g>
</g>
<g>
	<g>
		<path d="M322.683,124.874c-4.449,0-8.055,3.607-8.055,8.055v14.992c0,4.449,3.607,8.055,8.055,8.055s8.055-3.607,8.055-8.055    v-14.992C330.738,128.48,327.131,124.874,322.683,124.874z"/>
	</g>
</g>
<g>
	<g>
		<path d="M328.19,187.96c-0.743-4.858-5.505-7.846-10.103-6.582c-12.634,3.472-20.897,0.855-25.41-1.703    c-2.896-1.641-6.495-1.326-9.064,0.789c-4.373,3.602-3.727,10.434,1.201,13.231c3.246,1.843,7.403,3.595,12.495,4.603    c6.623,1.311,14.832,1.363,24.671-1.283C326.004,195.931,328.821,192.08,328.19,187.96z"/>
	</g>
</g>
<g>
	<g>
		<path d="M318.865,269.182c-4.205-1.449-8.79,0.784-10.241,4.99l-10.427,30.239l-12.074-20.434    c-1.544-2.613-4.422-4.145-7.454-3.941c-3.028,0.195-5.69,2.076-6.886,4.865l-8.925,20.824l-16.077-35.347    c-1.842-4.05-6.619-5.839-10.667-3.998c-4.05,1.842-5.839,6.618-3.998,10.667l23.629,51.951c1.308,2.876,4.177,4.719,7.332,4.719    c0.029,0,0.059,0,0.089,0c3.19-0.035,6.059-1.949,7.315-4.881l9.852-22.988l12.861,21.765c1.598,2.704,4.617,4.232,7.746,3.916    c3.124-0.316,5.78-2.419,6.804-5.388l16.109-46.718C325.304,275.217,323.072,270.632,318.865,269.182z"/>
	</g>
</g>
<g>
</g>
<g>
</g>
<g>
</g>
<g>
</g>
<g>
</g>
<g>
</g>
<g>
</g>
<g>
</g>
<g>
</g>
<g>
</g>
<g>
</g>
<g>
</g>
<g>
</g>
<g>
</g>
<g>
</g>
</svg>
