<?xml version="1.0" encoding="iso-8859-1"?>
<!-- Generator: Adobe Illustrator 19.0.0, SVG Export Plug-In . SVG Version: 6.00 Build 0)  -->
<svg xmlns="http://www.w3.org/2000/svg" xmlns:xlink="http://www.w3.org/1999/xlink" version="1.1" id="Layer_1" x="0px" y="0px" viewBox="0 0 511.993 511.993" style="enable-background:new 0 0 511.993 511.993;" xml:space="preserve">
<g>
	<g>
		<path d="M307.107,134.062c-5.137-5.137-11.969-7.967-19.234-7.967c-7.265,0-14.096,2.829-19.233,7.967    c-3.124,3.124-3.124,8.19,0,11.313c3.123,3.123,8.188,3.123,11.313,0c4.366-4.366,11.471-4.367,15.839,0    c1.563,1.562,3.611,2.344,5.658,2.344c2.047,0,4.095-0.781,5.658-2.344C310.232,142.251,310.232,137.185,307.107,134.062z"/>
	</g>
</g>
<g>
	<g>
		<path d="M345.794,179.927c-3.123-3.124-8.189-3.123-11.313,0c-2.114,2.115-4.927,3.281-7.919,3.281    c-2.992,0-5.804-1.165-7.919-3.281c-3.125-3.123-8.191-3.124-11.313,0c-3.125,3.124-3.125,8.189-0.001,11.314    c5.137,5.137,11.968,7.967,19.233,7.967s14.096-2.83,19.233-7.967C348.92,188.117,348.92,183.052,345.794,179.927z"/>
	</g>
</g>
<g>
	<g>
		<path d="M311.208,346.102c-3.001-1.891-7.017-1.567-9.647,0.829c-2.57,2.34-3.349,6.201-1.859,9.349    c1.308,2.763,4.174,4.582,7.232,4.582c3.685,0,6.954-2.626,7.79-6.199C315.488,351.398,314.042,347.889,311.208,346.102z"/>
	</g>
</g>
<g>
	<g>
		<path d="M315.32,59.438c-0.459-4.395-4.384-7.587-8.786-7.127c-13.896,1.447-27.463,3.985-40.322,7.54    c-4.258,1.178-6.756,5.584-5.578,9.843c0.979,3.545,4.197,5.869,7.706,5.869c0.705,0,1.423-0.094,2.137-0.291    c12.007-3.321,24.697-5.692,37.715-7.047C312.586,67.766,315.776,63.833,315.32,59.438z"/>
	</g>
</g>
<g>
	<g>
		<path d="M135.045,241.445c-0.975-4.046-4.887-6.67-9.003-6.03c-25.044,3.883-41.399,13.851-48.612,29.628    c-12.131,26.535,7.51,58.438,8.352,59.783c1.488,2.375,4.073,3.756,6.781,3.756c0.687,0,1.382-0.089,2.068-0.272    c3.395-0.909,5.799-3.926,5.926-7.439c0.006-0.165,1.062-16.807,17.716-28.282C142.949,275.59,135.379,242.832,135.045,241.445z     M109.198,279.413c-8.409,5.793-13.948,12.552-17.597,18.888c-2.38-8.326-3.476-18.212,0.4-26.648    c4.129-8.987,13.647-15.305,28.345-18.836C120.594,260.638,119.119,272.578,109.198,279.413z"/>
	</g>
</g>
<g>
	<g>
		<path d="M438.133,300.187c-11.595,0-27.122-6.764-45.422-19.691c12.475-0.151,22.809-3.758,30.861-10.822    c21.934-19.24,17.079-56.389,16.863-57.961c-0.482-3.482-3.179-6.241-6.647-6.801c-3.46-0.559-6.898,1.208-8.452,4.359    c-0.073,0.148-7.852,14.898-27.745,18.546c-19.444,3.565-28.89,19.132-33.145,29.717c-5.453-4.963-10.14-9.521-13.712-13.105    c21.911-12.474,36.122-36.315,40.658-69.526c6.597-2.242,18.498-6.817,30.007-13.957c30.405-18.862,33.277-39.933,30.333-54.286    c-5.835-28.444-25.188-37.43-39.321-43.993c-6.092-2.829-10.634-5.044-13.44-7.711l16.626-12.29h25.098c4.419,0,8-3.582,8-8    c0-4.418-3.581-8-8-8h-16.261l3.501-9.501c1.529-4.146-0.595-8.745-4.74-10.272c-4.148-1.527-8.745,0.594-10.272,4.741    l-6.639,18.021l-13.918,10.287c-3.77-9.052-9.709-19.067-19.814-26.618C356.49,1.323,333.643-1.666,304.648,4.438    c-27.225,5.732-45.743,18.676-62.081,30.097c-0.236,0.165-0.468,0.327-0.703,0.492l-20.367-14.144V8c0-4.418-3.581-8-8-8    c-4.419,0-8,3.582-8,8v11.572l-22.606,8.694c-4.124,1.586-6.181,6.214-4.595,10.338c1.222,3.179,4.254,5.131,7.469,5.131    c0.955,0,1.925-0.172,2.869-0.535l23.778-9.146l15.174,10.538c-15.383,9.469-30.677,14.853-53.717,8.989    c-29.856-7.599-58.799-2.066-81.5,15.579c-20,15.548-31.94,38.541-31.94,61.507c0,3.17,1.877,6.036,4.778,7.315    c2.9,1.278,6.288,0.72,8.629-1.419c0.182-0.166,13.839-12.467,32.915-18.78c-4.297,5.373-9.12,11.938-14.035,19.651    c-2.374,3.726-1.278,8.671,2.448,11.045c3.723,2.374,8.67,1.28,11.045-2.447c13.924-21.849,27.153-33.819,27.276-33.93    c2.478-2.208,3.334-5.718,2.154-8.82c-1.182-3.102-4.156-5.152-7.476-5.152c-19.545,0-36.826,7.628-48.676,14.726    c4.037-11.735,11.917-22.683,22.703-31.068c18.716-14.548,42.772-19.059,67.732-12.706c32.038,8.154,52.416-1.65,71.889-14.615    l5.521,3.834c1.392,0.966,2.982,1.429,4.556,1.429c2.533,0,5.024-1.2,6.578-3.438c2.519-3.629,1.622-8.614-2.008-11.134    l-0.579-0.402c14.58-10.111,30.123-20.046,52.064-24.666c24.301-5.118,42.815-3.082,55.03,6.046    c7.609,5.686,12.091,13.517,15.056,20.991c-9.242-3.362-19.1-6.066-26.934-6.066c-4.419,0-8,3.582-8,8c0,4.418,3.581,8,8,8    c9.499,0,31.367,9.216,43.376,14.395c3.54,2.154,7.392,3.949,11.201,5.717c13.459,6.25,26.172,12.154,30.386,32.695    c2.781,13.559-4.905,26.114-22.841,37.317c-7.113,4.443-14.544,7.81-20.381,10.122c0.061-1.94,0.102-3.889,0.102-5.857    c0-8.256-0.545-16.16-1.59-23.679c2.417,1.607,3.684,2.63,3.723,2.662c3.402,2.804,8.43,2.331,11.246-1.065    c2.822-3.401,2.352-8.444-1.047-11.265c-2.173-1.804-54.261-43.924-143.559-21.877c-0.206,0.051-0.411,0.11-0.612,0.177    l-71.892,23.965c11.778-11.27,29.675-25.033,54.64-35.771c4.059-1.746,5.934-6.451,4.188-10.511    c-1.746-4.058-6.451-5.934-10.511-4.188c-55.469,23.861-78.943,61.394-79.915,62.979c-1.756,2.866-1.534,6.525,0.557,9.157    c1.546,1.946,3.87,3.024,6.265,3.024c0.845,0,1.698-0.133,2.529-0.411l20.775-6.925c-1.337,2.653-2.365,5.581-3.021,8.717    c-31.86,0.046-62.862,12.53-90.078,36.389c-4.014,3.518-7.685,7.053-11.009,10.484c2.809-8.407,6.156-16.665,10.031-24.729    c1.914-3.982,0.238-8.762-3.745-10.675c-3.981-1.913-8.763-0.237-10.676,3.745c-9.762,20.314-16.418,41.777-19.782,63.796    c-0.578,3.787,1.611,7.448,5.218,8.737c0.884,0.316,1.792,0.467,2.689,0.467c2.098,0,4.13-0.834,5.633-2.323    c0.008-0.006,0.019-0.01,0.026-0.016c13.703-13.705,56.951-28.164,83.667-9.738c28.316,19.529,69.029,8.758,83.235,4.06    c1.099,1.027,2.219,2.031,3.361,3.009c-2.204,4.911-6.505,13.156-14.034,23.147c-4.464,1.334-17.349,4.378-30.061-0.187    l-19.347-14.256c-3.558-2.621-8.563-1.861-11.186,1.695c-2.621,3.557-1.861,8.565,1.695,11.186l9.932,7.317l-15.276,7.943    c-3.92,2.038-5.445,6.868-3.407,10.788c1.425,2.741,4.214,4.311,7.104,4.311c1.244,0,2.506-0.29,3.684-0.903l23.605-12.275    c6.017,1.874,11.917,2.57,17.28,2.614c-16.736,16.619-37.652,30.965-62.315,42.729c-3.319,1.583-5.133,5.226-4.393,8.828    c0.738,3.602,3.839,6.238,7.513,6.386c0.396,0.016,2.481,0.093,5.854,0.093c7.827,0,22.587-0.418,39.227-2.967l-2.634,6.256    c-1.714,4.073,0.197,8.763,4.269,10.478c1.013,0.427,2.066,0.629,3.101,0.629c3.122,0,6.089-1.84,7.376-4.897l6.844-16.255    c8.475-2.132,16.954-4.918,24.849-8.574c2.32-1.072,4.538-2.207,6.671-3.391c-0.532,3.407-1.275,7.082-2.291,10.762    c-3.173,11.488-7.909,18.935-12.995,20.435c-1.341,0.396-2.525,1.137-3.472,2.113c-0.03,0.028-0.065,0.049-0.094,0.079    c-1.119,1.19-27.267,29.619-14.229,69.921c1.057,3.267,2.451,6.664,4.142,10.096c1.393,2.826,4.232,4.465,7.182,4.465    c1.187,0,2.393-0.266,3.531-0.826c3.964-1.953,5.593-6.749,3.639-10.713c-1.35-2.74-2.451-5.414-3.27-7.949    c-0.977-3.02-1.665-5.951-2.122-8.788c13.755,1.975,39.799,7.44,55.703,21.633c1.549,19.082,0.084,40.407-1.663,56.388    c-4.465-5.612-9.851-11.588-15.697-18.073c-7.712-8.555-15.688-17.401-22.462-26.518c-2.636-3.546-7.646-4.286-11.193-1.651    c-3.547,2.635-4.286,7.646-1.651,11.193c7.226,9.727,15.459,18.859,23.422,27.691c7.823,8.677,16.366,18.156,20.865,25.389h-6.948    c-4.419,0-8,3.582-8,8c0,4.418,3.581,8,8,8h40.533c4.419,0,8-3.582,8-8c0-4.418-3.581-8-8-8h-5.743    c18.551-24.402,53.92-77.238,45.317-115.451c14.249-24.063,16.66-46.783,16.43-60.583c8.401,1.322,16.787,1.85,24.731,1.85    c26.214,0,47.619-5.558,48.885-5.894c3.886-1.029,6.403-4.781,5.885-8.766C445.547,303.168,442.152,300.187,438.133,300.187z     M400.476,243.554c10.011-1.836,17.814-5.714,23.732-9.984c-1.249,8.57-4.284,18.02-11.186,24.076    c-7.447,6.533-18.734,8.409-33.607,5.607C382.389,256.017,388.626,245.727,400.476,243.554z M165.771,209.414    c-20.553-14.174-46.662-13.628-68.23-7.401c2.485-2.47,5.152-4.976,8.007-7.465c24.471-21.325,51.043-32.106,79.077-32.11    c2.716,13.761,12.518,23.684,24.528,23.684c1.361,0,2.708-0.131,4.031-0.39c3.562,10.131,8.621,19.455,14.881,27.755    C212.749,217.643,184.712,222.476,165.771,209.414z M225.959,172.705c-0.671-2.669-2.666-4.805-5.282-5.658    c-2.617-0.852-5.488-0.298-7.6,1.465c-1.281,1.068-2.601,1.61-3.922,1.61c-4.389,0-9.28-6.352-9.28-15.467    c0-9.115,4.891-15.467,9.28-15.467c1.117,0,2.192,0.369,3.287,1.126c2.228,1.542,5.085,1.853,7.594,0.822    c2.508-1.03,4.322-3.261,4.822-5.924c0.677-3.61,1.605-7.222,2.768-10.78l38.227-12.742c42.237-10.362,75.053-4.755,95.161,1.785    c4.522,1.471,8.615,3.054,12.279,4.64c0.74,3.089,1.374,6.278,1.89,9.57c-9.589-3.411-20.723-1.289-28.387,6.374    c-3.124,3.124-3.124,8.19,0,11.313c3.125,3.124,8.19,3.124,11.314,0c4.367-4.367,11.471-4.367,15.838,0    c0.858,0.857,1.863,1.47,2.932,1.857c0.034,1.398,0.061,2.802,0.061,4.225c0,5.685-0.279,11.252-0.831,16.555    c-2.714,26.285-14.875,70.379-65.836,70.379C270.351,238.388,235.679,211.378,225.959,172.705z M300.089,475.379    c1.569-15.708,2.687-35.422,1.313-53.787c5.492-3.822,17.553-11.137,32.291-13.555C328.595,430.41,313.653,455.98,300.089,475.379    z M299.144,404.055c-0.965-4.156-5.038-6.852-9.269-6.048c-2.185,0.414-3.992,1.68-5.145,3.389    c-19.292-11.694-43.051-16.081-55.269-17.644c1.275-9.223,4.692-16.673,7.715-21.726c4.653,4.655,11.601,10.574,20.948,15.858    c11.886,6.719,29.457,13.332,52.567,13.332c7.597,0,15.802-0.726,24.592-2.387c0.092,0.93,0.156,1.872,0.189,2.829    C320.481,393.243,307.686,399.073,299.144,404.055z M336.451,372.268c-48.217,10.727-76.428-9.951-87.636-21.133    c8.683-7.98,13.468-21.739,15.867-34.066c3.796,2.586,8.289,4.262,13.186,4.707c0.836,0.075,1.667,0.111,2.492,0.111    c11.662,0,21.934-7.353,25.937-17.968h5.029c2.633,11.364,12.307,20.292,24.532,21.387c0.822,0.074,1.642,0.111,2.46,0.111    c4.273,0,8.453-1.006,12.226-2.853C350.399,334.178,347.951,352.752,336.451,372.268z M268.608,294.341    c0-0.476,0.016-0.852,0.053-1.249c0.158-1.76,0.73-3.062,3.089-4.111c1.977-0.879,4.705-1.334,7.884-1.334    c1.075,0,2.201,0.052,3.365,0.157c5.183,0.464,7.211,1.655,7.957,2.324c0.351,0.315,1.419,1.271,1.075,5.073    c-0.581,6.443-6.288,11.221-12.726,10.641C273.258,305.291,268.659,300.318,268.608,294.341z M326.656,296.64    c0.413-4.571,6.317-5.466,10.874-5.466c1.325,0,2.537,0.076,3.467,0.158c9.626,0.871,9.367,3.76,9.041,7.406    c-0.192,2.114-0.911,4.058-2.135,5.774c-2.459,3.42-6.437,5.237-10.612,4.859C330.85,308.795,326.08,303.081,326.656,296.64z     M365.45,303.548c0.24-1.109,0.42-2.235,0.524-3.373c0.751-8.39-1.31-22.765-23.542-24.778    c-14.794-1.322-25.549,3.373-29.804,12.523h-5.238c-1.155-4.626-3.549-7.733-5.754-9.709c-4.01-3.593-9.638-5.668-17.202-6.345    c-5.147-0.466-12.655-0.411-19.185,2.494c-6.351,2.826-10.525,7.784-12.006,14.101c-4.544,4.026-10.259,7.644-16.997,10.758    c-15.025,6.957-32.915,10.447-48.103,12.178c16.937-10.898,31.655-23.261,43.971-36.954c12.835-14.258,20.295-26.962,24.33-35.214    c15.779,9.668,34.271,15.157,53.833,15.157c8.812,0,17.022-1.12,24.583-3.295c5.812,6.057,18.449,18.731,33.99,31.347    c12.038,9.767,23.264,17.436,33.617,22.976C391.117,306.129,378.109,305.939,365.45,303.548z"/>
	</g>
</g>
<g>
</g>
<g>
</g>
<g>
</g>
<g>
</g>
<g>
</g>
<g>
</g>
<g>
</g>
<g>
</g>
<g>
</g>
<g>
</g>
<g>
</g>
<g>
</g>
<g>
</g>
<g>
</g>
<g>
</g>
</svg>
