<?xml version="1.0" encoding="iso-8859-1"?>
<!-- Generator: Adobe Illustrator 19.0.0, SVG Export Plug-In . SVG Version: 6.00 Build 0)  -->
<svg xmlns="http://www.w3.org/2000/svg" xmlns:xlink="http://www.w3.org/1999/xlink" version="1.1" id="Layer_1" x="0px" y="0px" viewBox="0 0 512 512" style="enable-background:new 0 0 512 512;" xml:space="preserve">
<g>
	<g>
		<path d="M317.745,183.863c-3.39-2.807-8.418-2.336-11.228,1.058c-3.846,4.646-9.272,7.516-15.277,8.083    c-6.001,0.567-11.87-1.241-16.518-5.088c-3.39-2.807-8.419-2.336-11.228,1.058c-2.809,3.392-2.335,8.419,1.058,11.228    c6.975,5.774,15.56,8.855,24.5,8.855c1.223-0.001,2.451-0.06,3.682-0.175c10.248-0.964,19.504-5.863,26.068-13.79    C321.612,191.698,321.138,186.672,317.745,183.863z"/>
	</g>
</g>
<g>
	<g>
		<path d="M269.276,53.028l8.392-9.038c2.996-3.228,2.81-8.273-0.418-11.27c-3.228-2.996-8.273-2.809-11.27,0.418l-8.442,9.092    l-6.895-6.344c-3.241-2.981-8.286-2.772-11.268,0.469c-2.981,3.241-2.772,8.286,0.469,11.268l6.842,6.294l-8.35,8.992    c-2.996,3.228-2.809,8.273,0.418,11.27c1.535,1.426,3.482,2.131,5.425,2.131c2.14,0,4.275-0.857,5.846-2.548l8.4-9.046    l8.002,7.362c1.532,1.41,3.467,2.105,5.397,2.105c2.152,0,4.299-0.867,5.87-2.575c2.982-3.241,2.771-8.286-0.469-11.268    L269.276,53.028z"/>
	</g>
</g>
<g>
	<g>
		<path d="M267.571,127.346c-4.405,0-7.974,3.57-7.974,7.974v20.202c0,4.404,3.57,7.974,7.974,7.974c4.405,0,7.974-3.57,7.974-7.974    V135.32C275.545,130.916,271.976,127.346,267.571,127.346z"/>
	</g>
</g>
<g>
	<g>
		<path d="M440.619,113.34c-1.146-0.711-2.935-1.982-4.44-3.755c-2.974-3.504-3.435-7.166-1.497-11.873    c7.581-18.411-4.585-32.114-14.611-36.833c-3.983-1.875-8.766-0.181-10.642,3.805c-1.876,3.985-0.197,8.721,3.788,10.595    c2.624,1.294,10.861,6.297,6.717,16.36c-4.142,10.059-2.305,18.702,1.887,25.249c-13.992,6.357-23.752,20.455-23.752,36.798    c0,16.798,10.307,31.231,24.928,37.317c-23.669,13.817-59.051,29.794-81.964,23.363c7.61-16.072,11.598-35.998,11.598-58.566    c0-17.565-2.34-33.332-6.956-47.069c7.586-0.938,13.08-4.243,16.744-7.472c22.218-19.581,17.854-69.557,17.284-75.192    c-0.304-3-2.283-5.565-5.102-6.64c-2.817-1.074-6.008-0.459-8.234,1.577c-0.979,0.897-24.219,21.793-44.04,6.93l-1.907-1.439    c-16.254-12.281-50.075-37.833-91.996-20.838c-7.065,2.864-13.369,6.911-19.273,12.369c-3.234,2.99-3.432,8.035-0.442,11.269    c2.991,3.234,8.036,3.432,11.269,0.442c4.467-4.129,9.19-7.172,14.44-9.3c33.536-13.599,61.413,7.466,76.389,18.782l1.75,1.32    l24.525,20.869c1.5,1.277,3.338,1.901,5.163,1.901c2.257,0,4.5-0.953,6.078-2.807c2.855-3.353,2.449-8.387-0.906-11.241    l-1.077-0.917c6.578-1.209,12.747-3.668,18.062-6.571c-0.007,3.661-0.131,7.801-0.473,12.128    c-1.361,17.169-5.643,29.738-12.054,35.389c-2.63,2.318-7.194,5.151-16.414,3.043c-82.685-20.793-137.5,7.363-152.639,16.694    c-10.863-5.778-18.95-13.077-23.525-21.274c-0.693-1.242-1.263-2.428-1.731-3.539c23.839-1.192,35.355-18.174,45.672-33.385    c1.044-1.54,2.096-3.09,3.167-4.638c2.506-3.621,1.602-8.589-2.019-11.095c-3.622-2.507-8.59-1.603-11.095,2.019    c-1.1,1.59-2.181,3.182-3.253,4.762c-11.41,16.825-19.656,28.983-41.533,25.999c-2.258-0.309-4.541,0.366-6.271,1.85    c-1.73,1.484-2.742,3.638-2.779,5.918c-0.019,1.173-0.027,27.382,33.88,46.368c-0.658,1.886-1.269,3.791-1.816,5.715    c-0.691-0.07-1.385-0.105-2.082-0.105c-14.131,0-25.199,13.778-25.199,31.366c0,10.072,3.634,18.889,9.391,24.59l-1.308,7.847    c-0.724,4.343,2.211,8.453,6.555,9.177c0.443,0.074,0.885,0.11,1.321,0.11c3.828,0,7.207-2.764,7.856-6.664l0.619-3.716    c0.255,0.01,0.508,0.023,0.766,0.023c1.356,0,2.697-0.131,4.015-0.388c3.329,9.477,7.984,18.236,13.699,26.118    c-3.502,2.899-8.744,6.789-15.535,10.536c-3.855,2.128-5.257,6.979-3.128,10.834c1.453,2.635,4.179,4.122,6.989,4.122    c1.304,0,2.624-0.32,3.846-0.994c7.85-4.332,13.985-8.89,18.163-12.362c6.256,6.281,13.302,11.727,20.964,16.197    c4.201,36.005,53.969,52.97,56.177,53.704c0.834,0.276,1.682,0.408,2.516,0.408c3.208,0,6.217-1.948,7.435-5.095l6.083-15.701    c1.559,15.27,2.488,34.44,0.444,52.412c-5.307,0.976-10.906,1.791-16.797,2.431c-4.378,0.476-7.543,4.411-7.066,8.79    c0.444,4.085,3.9,7.112,7.918,7.112c0.288,0,0.578-0.016,0.871-0.047c15.568-1.694,29.406-4.534,41.309-8.458    c0.774,6.996,1.66,17.503,1.919,30.447c-34.894,9.047-71.108,4.901-85.483,2.607c0.04-9.461-0.149-17.342-0.352-22.904    c2.363,0.061,5.125,0.104,8.23,0.104c3.148,0,6.642-0.045,10.404-0.159c4.403-0.135,7.862-3.813,7.727-8.215    c-0.134-4.402-3.804-7.857-8.215-7.727c-7.674,0.235-14.221,0.155-18.817,0.02c-1.879-26.776-13.319-46.194-21.988-57.297    c1.182-0.298,2.368-0.601,3.56-0.917c4.257-1.126,6.796-5.491,5.67-9.748c-1.126-4.257-5.49-6.798-9.748-5.67    c-49.718,13.148-90.288,10.09-117.32-8.841c-2.893-2.025-5.492-4.137-7.822-6.269c28.448,11.818,52.917,9.871,70.12,5.081    c4.242-1.181,6.724-5.579,5.543-9.821c-1.181-4.242-5.574-6.726-9.821-5.543c-27.421,7.635-55.399,1.773-83.228-17.402h9.536    c4.404,0,7.974-3.57,7.974-7.974s-3.57-7.974-7.974-7.974h-2.524c0.805-24.153,5.579-54.849,22.016-77.707    c10.757-14.96,21.649-19.578,21.69-19.596c2.506-0.98,4.349-3.159,4.899-5.794s-0.264-5.368-2.167-7.272    c-7.383-7.383-8.63-19.161-3.705-35.003c4.101-13.194,11.063-24.017,11.129-24.118c2.034-3.124,1.632-7.241-0.968-9.913    c-2.601-2.672-6.704-3.187-9.883-1.238C95.997,34.461,78.516,51.68,65.786,72.313c-2.313,3.748-1.149,8.661,2.6,10.974    c3.748,2.312,8.661,1.148,10.974-2.6c6.215-10.072,13.711-19.247,22.414-27.454c-3.847,13.206-5.281,28.62,1.974,41.411    c-14.579,10.126-42.107,37.888-44.874,104.107c-2.636-17.431-5.997-57.253,9.474-96.1c1.63-4.091-0.367-8.729-4.458-10.359    c-4.096-1.631-8.73,0.367-10.359,4.458c-17.17,43.118-13.368,86.136-10.376,105.022h-2.054c-4.404,0-7.974,3.57-7.974,7.974    c0,4.404,3.57,7.974,7.974,7.974h9.166l-1.991,32.766c-0.267,4.397,3.08,8.176,7.476,8.443c0.165,0.01,0.329,0.015,0.491,0.015    c4.184,0,7.695-3.259,7.952-7.491l0.292-4.807c4.555,5.719,10.544,11.817,18.344,17.421    c13.954,10.026,30.834,16.454,50.171,19.101c6.739,0.923,13.783,1.383,21.118,1.383c12.198,0,25.203-1.282,38.922-3.821    c6.696,7.056,24.024,28.464,24.024,61.049c0,0.093,0.011,0.182,0.013,0.273c0.003,0.082-0.002,0.162,0.003,0.243    c0.017,0.252,1.612,25.553-0.067,57.766c-2.197,42.147-8.962,76.972-19.563,100.71c-1.102,2.467-0.879,5.324,0.591,7.591    s3.988,3.635,6.69,3.635h55.111c3.031,0,5.799-1.717,7.145-4.433c1.346-2.716,1.037-5.958-0.799-8.371l-14.031-18.441    c5.752-5.406,14.512-15.028,22.508-29.409c2.822,30.974,0.17,51.342,0.136,51.594c-0.313,2.283,0.376,4.589,1.891,6.326    c1.514,1.736,3.705,2.733,6.009,2.733h65.212c3.486,0,6.57-2.266,7.611-5.594c1.041-3.328-0.201-6.947-3.068-8.933l-30.718-21.298    c20.705-69.633,12.179-134.724,10.335-146.674c1.786-6.518,7.248-28.941,6.441-56.606c8.184-0.47,21.179-2.23,36.145-8.014    c22.375-8.646,53.658-28.322,76.666-72.903c15.994-5.385,27.547-20.51,27.547-38.293    C478.875,132.127,461.903,114.459,440.619,113.34z M165.748,159.352c-1.99-0.333-3.927,0.111-5.515,1.098    c-0.029-0.48-0.049-0.965-0.049-1.462c0-9.083,4.872-15.414,9.247-15.417l0.527,17.896    C168.839,160.39,167.396,159.626,165.748,159.352z M236.638,473.057c-1.767,1.248-2.951,3.162-3.279,5.3    c-0.33,2.138,0.225,4.319,1.535,6.041l8.865,11.651H216.52c6.136-17.033,10.156-36.159,12.76-55.008    c6.325,3.949,15.245,7.764,27.373,9.425C246.945,465.453,237.39,472.516,236.638,473.057z M264.994,435.253    c-20.206-1.103-30.025-8.943-33.578-12.656c1.117-11.788,1.748-23.143,2.071-33.439c8.542,1.3,22.117,2.856,38.157,2.856    c1.65,0,3.334-0.022,5.033-0.057C274.717,409.404,270.267,423.754,264.994,435.253z M327.926,106.918    c1.985,4.644,3.643,9.697,4.963,15.092c-13.257-9.781-28.61-16.365-43.557-20.785    C301.295,101.912,314.183,103.685,327.926,106.918z M334.686,144.813c-2.723,7.402-8.27,12.315-14.335,12.315    c-8.726,0-16.099-10.225-16.099-22.328c0-3.599,0.635-7.072,1.817-10.195C316.709,129.642,326.67,136.22,334.686,144.813z     M189.973,188.531c-0.014-0.035-0.029-0.069-0.043-0.104c-2.375-5.872-3.58-12.153-3.767-18.486l-0.918-31.12    c1.039-5.242,2.561-10.383,4.55-15.322c1.286-0.823,3.286-2.039,5.975-3.492c-0.72,5.36-1.27,11.697-1.231,18.448    c0.118,20.76,5.782,37.291,16.501,48.505C205.852,189.671,198.326,191.811,189.973,188.531z M272.611,280.17    c-4.544-2.006-10.724-5.073-16.821-9.165c-8.398-5.637-14.361-11.593-17.886-17.802c10.214,3.378,21.091,5.199,32.325,5.199    c3.793,0,7.479-0.219,11.062-0.637L272.611,280.17z M270.228,242.454c-28.741-0.001-54.741-14.04-70.621-36.352    c13.533-0.399,24.782-7.702,30.07-13.103c1.668-1.704,2.486-4.065,2.23-6.435c-0.256-2.37-1.56-4.502-3.553-5.811    c-24.205-15.884-17.721-56.131-15.009-68.666c3.534-1.326,7.418-2.639,11.641-3.877c6.032-0.033,36.527,0.336,66.288,10.444    c-1.938,5.01-2.971,10.512-2.971,16.145c0,21.107,14.376,38.277,32.047,38.277c5.713,0,11.142-1.806,15.854-5.007    C333.94,197.178,322.073,242.454,270.228,242.454z M318.705,242.956c2.01,8.585,3.11,17.117,3.582,25.277    c-6.619-5.61-12.162-12.42-15.924-17.605C310.753,248.498,314.872,245.935,318.705,242.956z M286.862,422.103    c2.733-9.24,4.84-19.568,5.955-31.038c8.576-0.786,17.477-2.123,26.407-4.212c-0.262,10.856-1.029,22.808-2.598,35.418    c-12.389,3.659-22.696,4.746-28.895,5.033C287.459,425.591,287.168,423.857,286.862,422.103z M322.421,496.05h-30.981    c0.675-10.367,1.119-29.008-1.558-52.878c5.93-0.344,14.273-1.3,24.146-3.696c-2.182,12.212-5.175,24.83-9.223,37.5    c-1.066,3.339,0.172,6.982,3.053,8.98L322.421,496.05z M317.25,323.104c-3.074,1.164-6.328,2.24-9.752,3.228    c1.495-17.982,0.513-36.313-1.021-51.016c4.646,4.607,9.991,9.025,15.853,12.446C321.491,304.077,318.73,317.104,317.25,323.104z     M369.663,249.713c-13.581,5.361-25.366,6.879-32.308,7.264c-1.055-8.847-2.854-17.991-5.67-27.139    c0.359-0.468,0.713-0.942,1.063-1.42c17.999,6.801,42.412,3.312,72.74-10.43c5.469-2.478,10.678-5.089,15.482-7.655    C406.796,228.636,389.624,241.833,369.663,249.713z M438.472,178.139c-13.485,0-24.455-10.971-24.455-24.455    c0-13.484,10.969-24.455,24.455-24.455s24.455,10.971,24.455,24.455C462.926,167.169,451.957,178.139,438.472,178.139z"/>
	</g>
</g>
<g>
	<g>
		<path d="M289.324,306.265c-0.934-3.348-4.004-5.76-7.484-5.848c-3.333-0.085-6.432,2-7.63,5.102    c-1.341,3.47-0.048,7.414,3.006,9.501C283.242,318.997,291.269,313.242,289.324,306.265z"/>
	</g>
</g>
<g>
</g>
<g>
</g>
<g>
</g>
<g>
</g>
<g>
</g>
<g>
</g>
<g>
</g>
<g>
</g>
<g>
</g>
<g>
</g>
<g>
</g>
<g>
</g>
<g>
</g>
<g>
</g>
<g>
</g>
</svg>
