<?xml version="1.0" encoding="iso-8859-1"?>
<!-- Generator: Adobe Illustrator 19.0.0, SVG Export Plug-In . SVG Version: 6.00 Build 0)  -->
<svg xmlns="http://www.w3.org/2000/svg" xmlns:xlink="http://www.w3.org/1999/xlink" version="1.1" id="Layer_1" x="0px" y="0px" viewBox="0 0 512.004 512.004" style="enable-background:new 0 0 512.004 512.004;" xml:space="preserve">
<g>
	<g>
		<path d="M278.423,196.364c-3.146-3.147-8.248-3.148-11.395,0c-10,9.998-26.267,9.999-36.27,0c-3.146-3.148-8.248-3.147-11.395,0    c-3.147,3.147-3.147,8.249,0.001,11.395c8.141,8.142,18.835,12.211,29.528,12.211c10.694,0,21.389-4.071,29.529-12.211    C281.57,204.612,281.57,199.511,278.423,196.364z"/>
	</g>
</g>
<g>
	<g>
		<path d="M227.68,144.146c-4.451,0-8.058,3.608-8.058,8.058v15.041c0,4.45,3.608,8.058,8.058,8.058    c4.451,0,8.058-3.608,8.058-8.058v-15.041C235.738,147.754,232.131,144.146,227.68,144.146z"/>
	</g>
</g>
<g>
	<g>
		<path d="M273.312,144.146c-4.451,0-8.058,3.608-8.058,8.058v15.041c0,4.45,3.607,8.058,8.058,8.058s8.058-3.608,8.058-8.058    v-15.041C281.369,147.754,277.763,144.146,273.312,144.146z"/>
	</g>
</g>
<g>
	<g>
		<path d="M162.663,76.623c-2.919-1.935-6.87-1.75-9.579,0.478c-2.658,2.185-3.637,5.912-2.406,9.126    c1.179,3.071,4.224,5.158,7.515,5.158c3.715,0,7.008-2.633,7.845-6.242C166.787,81.921,165.424,78.454,162.663,76.623z"/>
	</g>
</g>
<g>
	<g>
		<path d="M180.616,301.973c-2.867-3.417-7.95-3.858-11.356-0.999c-3.417,2.869-3.857,7.95-0.988,11.356    c1.589,1.902,3.868,2.879,6.167,2.879c1.826,0,3.664-0.623,5.177-1.891C183.021,310.46,183.474,305.378,180.616,301.973z"/>
	</g>
</g>
<g>
	<g>
		<path d="M122.321,366.918c-3.845-2.235-8.778-0.935-11.023,2.911c-2.235,3.846-0.935,8.778,2.912,11.023    c1.279,0.741,2.675,1.096,4.051,1.096c2.772,0,5.479-1.44,6.973-4.007C127.467,374.095,126.167,369.164,122.321,366.918z"/>
	</g>
</g>
<g>
	<g>
		<path d="M156.002,377.855c-0.752-4.383-4.921-7.327-9.304-6.564c-4.383,0.752-7.327,4.921-6.575,9.304    c0.677,3.921,4.083,6.693,7.929,6.693c0.451,0,0.914-0.043,1.375-0.118C153.81,386.418,156.754,382.25,156.002,377.855z"/>
	</g>
</g>
<g>
	<g>
		<path d="M125.393,293.184c-2.224-3.857-7.143-5.178-11.002-2.954c-3.857,2.224-5.177,7.155-2.955,11.012    c1.495,2.589,4.201,4.029,6.983,4.029c1.366,0,2.751-0.344,4.018-1.074C126.296,301.973,127.617,297.041,125.393,293.184z"/>
	</g>
</g>
<g>
	<g>
		<path d="M179.531,358.022c-3.406-2.879-8.487-2.451-11.355,0.945c-2.88,3.395-2.45,8.488,0.945,11.356    c1.515,1.279,3.363,1.902,5.2,1.902c2.288,0,4.555-0.967,6.156-2.847C183.346,365.984,182.926,360.891,179.531,358.022z"/>
	</g>
</g>
<g>
	<g>
		<path d="M106.432,347.913c-1.515-4.19-6.136-6.351-10.315-4.835c-4.189,1.515-6.35,6.135-4.835,10.314    c1.183,3.277,4.276,5.318,7.574,5.318c0.914,0,1.837-0.15,2.741-0.484C105.786,356.723,107.945,352.103,106.432,347.913z"/>
	</g>
</g>
<g>
	<g>
		<path d="M101.682,312.802c-4.179-1.526-8.798,0.623-10.334,4.802c-1.527,4.179,0.622,8.81,4.802,10.335    c0.913,0.333,1.848,0.494,2.772,0.494c3.277,0,6.371-2.02,7.564-5.297c0,0.011,0,0.011,0,0.011    C108.011,318.958,105.862,314.339,101.682,312.802z"/>
	</g>
</g>
<g>
	<g>
		<path d="M149.632,284.051c-4.383-0.774-8.564,2.159-9.336,6.543c-0.764,4.385,2.158,8.564,6.542,9.336    c0.473,0.075,0.945,0.118,1.409,0.118c3.834,0,7.24-2.75,7.929-6.661C156.949,289.004,154.014,284.824,149.632,284.051z"/>
	</g>
</g>
<g>
	<g>
		<path d="M184.785,327.532c-4.449,0-8.047,3.599-8.058,8.036c0,0.011,0,0.021,0,0.021c0,0.032,0,0.064,0,0.097    c0,0.021,0,0.032,0,0.054c-0.023,4.448,3.567,8.069,8.026,8.09c0.011,0,0.023,0,0.032,0c4.426,0,8.035-3.588,8.058-8.026    c0-0.043,0-0.086,0-0.118s0-0.064,0-0.097C192.842,331.142,189.232,327.532,184.785,327.532z"/>
	</g>
</g>
<g>
	<g>
		<path d="M140.508,308.046c-15.191,0-27.549,12.357-27.549,27.548s12.358,27.548,27.549,27.548    c15.19,0,27.548-12.357,27.548-27.548S155.698,308.046,140.508,308.046z M140.508,347.026c-6.304,0-11.433-5.128-11.433-11.432    s5.128-11.432,11.433-11.432c6.303,0,11.432,5.128,11.432,11.432S146.812,347.026,140.508,347.026z"/>
	</g>
</g>
<g>
	<g>
		<path d="M451.559,190.208l-1.696-27.131c-0.156-2.486-1.453-4.762-3.513-6.161c-2.062-1.401-4.654-1.767-7.023-0.998    l-25.852,8.412c-1.699,0.553-3.166,1.656-4.171,3.134l-43.059,63.364c-2.501,3.681-1.545,8.692,2.135,11.193    c3.682,2.502,8.692,1.545,11.194-2.136l41.509-61.083l13.343-4.343l0.876,14.003l-98.389,144.785l-14.218-9.662l42.778-62.953    c2.501-3.681,1.545-8.692-2.135-11.193c-3.682-2.502-8.693-1.545-11.194,2.136l-42.779,62.952l-2.221-1.51    c-3.681-2.502-8.693-1.545-11.194,2.136c-2.501,3.681-1.545,8.692,2.135,11.193l8.882,6.036c0.001,0.001,0.003,0.002,0.004,0.003    l3.775,2.566c-2.656,0.459-5.058,1.652-6.994,3.368c-2.64-2.556-5.993-6.015-9.356-10.074    c-8.979-10.837-13.725-20.669-13.725-28.433c0-21.033-7.547-36.826-13.196-45.706c7.852-5.003,14.686-11.548,20.349-19.58    c12.609-17.883,19.273-42.867,19.273-72.255c0-9.77-0.747-19.146-2.214-27.885c-0.063-4.359-0.945-27.098-12.106-51.935    c-10.911-24.281-33.935-54.937-81.881-65.969l-1.066-9.337c-0.505-4.423-4.495-7.593-8.919-7.093    c-4.421,0.505-7.596,4.498-7.092,8.919l1.083,9.491c-7.737,4.171-22.482,13.357-36.76,29.027L70.708,22.401    c-2.704-0.776-5.614-0.087-7.681,1.818c-2.068,1.905-2.993,4.75-2.442,7.507c0.684,3.42,6.448,29.764,22.88,36.92    c-0.097,6.603,1.071,16.059,7.202,23.536c3.252,3.968,8.994,8.568,18.641,10.021c1.152,2.857,3.125,6.116,6.499,9.113    c2.393,2.126,5.216,3.867,8.448,5.236c-1.562,8.739-2.375,17.841-2.414,27.167c-4.927,35.508-35.365,60.736-35.663,60.98    c-2.65,2.149-3.658,5.735-2.518,8.951s4.183,5.365,7.594,5.365c7.284,0,14.442-0.568,21.448-1.69    c-6.514,11.527-20.938,24.404-30.944,31.416c-2.884,2.016-4.126,5.668-3.068,9.024c1.055,3.355,4.167,5.638,7.685,5.638    c35.816,0,62.97-13.078,73.891-19.319c1.583,1.227,3.191,2.418,4.84,3.552c-3.09,5.225-4.571,10.674-5.181,16.147    c-6.194-1.676-12.698-2.586-19.415-2.586c-11.729,0-22.956,2.654-33.371,7.888c-3.976,1.998-5.579,6.842-3.581,10.818    s6.836,5.58,10.818,3.581c8.148-4.096,16.941-6.171,26.133-6.171c32.138,0,58.284,26.146,58.284,58.285    s-26.146,58.285-58.284,58.285c-32.138,0-58.285-26.146-58.285-58.285c0-15.568,6.063-30.204,17.072-41.213    c3.147-3.147,3.147-8.249-0.001-11.396c-3.146-3.147-8.248-3.146-11.395,0c-14.052,14.054-21.79,32.737-21.79,52.609    c0,34.423,23.504,63.45,55.303,71.904c-1.247,5.835-1.892,11.157-1.892,15.867c0,4.306,3.386,7.853,7.688,8.049l6.406,0.293    c2.078,18.045,0.696,56.789-0.117,71.799c-0.173,3.211,1.578,6.218,4.456,7.651c1.139,0.566,2.367,0.843,3.588,0.843h18.264    c4.451,0,8.058-3.608,8.058-8.058c0-4.254-3.3-7.731-7.48-8.029c17.763-22.79,21.123-48.663,21.553-61.989l14.088,0.647    l12.793,70.804c0.624,3.452,3.409,6.104,6.887,6.558c0.35,0.045,0.699,0.068,1.046,0.068c0.002,0,0.004,0,0.008,0h18.254    c4.451,0,8.058-3.608,8.058-8.058c0-4.45-3.607-8.058-8.058-8.058h-6.001c9.528-23.753,14.863-47.854,17.06-59.218    c1.6-0.28,3.094-1.034,4.271-2.194c1.599-1.577,2.467-3.751,2.395-5.996c-0.045-1.387-1.212-33.309-13.57-60.836    c1.925-7.452,6.382-13.466,11.73-19.204c6.077,5.612,16.619,12.124,32.862,12.124c3.581,0,7.45-0.332,11.597-1.044l-2.358,3.191    c-2.645,3.579-1.889,8.624,1.69,11.269c1.441,1.065,3.119,1.578,4.783,1.578c2.469,0,4.906-1.131,6.486-3.268l6.735-9.112    c0.162,0.005,0.32,0.025,0.484,0.025c7.849,0,14.235-6.386,14.235-14.235c0-0.992-0.103-1.959-0.298-2.894l16.295,11.074    c1.387,0.942,2.963,1.395,4.522,1.395c2.578,0,5.113-1.236,6.672-3.53c2.501-3.681,1.545-8.692-2.135-11.193l-2.222-1.509    l99.938-147.066C451.185,193.762,451.671,191.991,451.559,190.208z M204.605,31.586c34.674,7.211,59.307,26.36,73.238,56.945    c1.003,2.204,1.906,4.391,2.733,6.553c-7.594-2.82-15.7-4.959-24.293-6.343c-4.407-0.71-8.529,2.282-9.236,6.674    c-0.708,4.394,2.281,8.528,6.674,9.236c12.129,1.952,23.101,5.544,32.701,10.658c0.65,3.213,1.125,6.163,1.465,8.736    c-44.09-11.695-83.798-8.349-110.183-3.147c-16.86,3.324-30.323,7.724-39.247,11.123c0.341-4.068,0.872-8.056,1.55-11.966    c1.841,0.138,3.746,0.213,5.732,0.213c4.965,0,10.376-0.424,16.227-1.273c8.359-1.213,15.665-4.714,21.189-9.852    c5.418-1.487,22.679-5.76,43.652-6.224c4.449-0.098,7.976-3.785,7.877-8.234c-0.097-4.388-3.685-7.879-8.052-7.879    c-0.06,0-0.12,0-0.182,0.002c-12.846,0.284-24.308,1.85-33.001,3.474c2.689-15.107-4.936-30.218-18.315-37.189    C187.701,40.812,199.847,33.998,204.605,31.586z M123.825,94.678c0.189-2.209-0.569-4.118-2.066-5.776    c-1.528-1.693-3.722-2.352-6.001-2.352c-5.946,0-10.067-1.488-12.599-4.548c-4.385-5.3-3.745-14.848-3.136-18.045    c0.473-2.367-0.14-4.822-1.671-6.689c-1.53-1.867-3.817-2.949-6.231-2.949c-4.332,0-8.346-5.709-11.298-12.25l83.387,23.928    h-0.001c9.895,2.84,15.724,13.225,12.996,23.151c-2.005,7.293-8.732,12.617-17.555,13.898    c-21.093,3.062-29.605-0.871-32.802-3.488C124.32,97.49,123.894,95.296,123.825,94.678z M112.029,201.145    c9.737-11.802,21.115-29.514,25.123-51.178c8.691-3.75,32.362-12.838,64.421-16.306c-4.532,7.833-11.561,18.444-21.323,28.955    C160.587,183.792,137.711,196.697,112.029,201.145z M111.148,244.936c8.929-8.939,17.923-20.41,20.412-32.096    c0.497-0.158,0.996-0.309,1.492-0.474c4.076,7.369,9.006,14.125,14.618,20.183C139.882,236.509,127.199,241.892,111.148,244.936z     M148.148,206.296c16.171-7.691,31.084-18.797,44.315-33.149c15.181-16.465,24.208-32.839,28.095-40.771    c20.935-0.572,44.425,1.611,69.067,8.898c0.898,6.648,1.36,13.684,1.36,20.997c-0.001,26.327-6.544,87.561-67.149,87.561    C192.591,249.832,163.717,232.981,148.148,206.296z M255.044,264.706c-2.534,6.577-10.025,21.678-25.404,21.678    c-10.953,0-16.997-11.955-20.07-21.439c4.69,0.656,9.452,1.003,14.266,1.003c10.488,0,20.202-1.602,29.017-4.726    C253.527,262.22,254.268,263.378,255.044,264.706z M150.495,482.096c0.454-15.568,0.659-35.779-0.626-49.641l15.95,0.732    C165.491,443.41,163.093,463.631,150.495,482.096z M219.622,474.526l-7.082-39.197l17.193,0.789    C227.96,444.823,224.677,459.136,219.622,474.526z M136.266,415.698c0.276-1.832,0.642-3.761,1.099-5.784    c1.042,0.044,2.089,0.08,3.143,0.08c26.307,0,49.452-13.738,62.684-34.404l22.21,0.844c6.691,15.91,9.443,33.569,10.534,43.835    L136.266,415.698z M246.609,329.845c-8.361,8.22-17.678,17.379-22.067,30.429l-13.686-0.52c2.611-7.581,4.049-15.704,4.049-24.16    c0-28.31-15.896-52.971-39.23-65.542c0.096-6.286,1.085-10.66,3.339-14.37c4.119,1.981,8.372,3.699,12.736,5.128    c2.609,12.279,11.602,41.688,37.89,41.688c13.165,0,24.606-6.358,33.12-18.377c1.097,4.719,1.797,9.97,1.797,15.691    C264.558,312.201,256.24,320.378,246.609,329.845z M262.273,336.997c3.603-3.658,7.162-7.559,10.175-11.921    c2.565,4.375,5.738,8.861,9.54,13.452c1.709,2.062,3.415,3.988,5.048,5.749C274.316,345.074,266.495,340.654,262.273,336.997z"/>
	</g>
</g>
<g>
</g>
<g>
</g>
<g>
</g>
<g>
</g>
<g>
</g>
<g>
</g>
<g>
</g>
<g>
</g>
<g>
</g>
<g>
</g>
<g>
</g>
<g>
</g>
<g>
</g>
<g>
</g>
<g>
</g>
</svg>
