<?xml version="1.0" encoding="iso-8859-1"?>
<!-- Generator: Adobe Illustrator 19.0.0, SVG Export Plug-In . SVG Version: 6.00 Build 0)  -->
<svg xmlns="http://www.w3.org/2000/svg" xmlns:xlink="http://www.w3.org/1999/xlink" version="1.1" id="Layer_1" x="0px" y="0px" viewBox="0 0 511.998 511.998" style="enable-background:new 0 0 511.998 511.998;" xml:space="preserve">
<g>
	<g>
		<path d="M478.079,114.966h0.001c16.858-27.594,20.044-61.836,8.446-92.14l-2.239-5.846c-3.696-9.643-12.392-16.089-22.694-16.826    c-10.295-0.736-19.818,4.41-24.845,13.426l-16.743,30.004c-3.548-0.559-7.159-0.844-10.794-0.844h-39.181    c-1.202-6.466-2.986-12.856-5.371-19.087l-2.358-6.157c-3.828-9.987-12.835-16.664-23.505-17.426    c-6.41-0.454-12.521,1.301-17.514,4.789c-5.001-3.532-11.176-5.249-17.581-4.657c-10.035,0.931-18.511,7.362-22.119,16.785    l-2.23,5.829c-2.735,7.136-4.671,14.54-5.792,22.094h-35.12c-1.12-7.554-3.056-14.957-5.791-22.088l-2.233-5.837    c-3.607-9.42-12.082-15.851-22.118-16.782c-6.405-0.596-12.58,1.122-17.581,4.656c-4.995-3.491-11.108-5.246-17.512-4.788    c-10.67,0.763-19.676,7.44-23.505,17.429l-2.356,6.155c-2.385,6.231-4.169,12.621-5.37,19.086h-39.184    c-3.638,0-7.25,0.285-10.794,0.844L75.252,13.583C70.224,4.564,60.699-0.577,50.405,0.154C40.103,0.889,31.407,7.336,27.71,16.982    l-2.238,5.844c-11.598,30.303-8.412,64.546,8.446,92.139v39.618c-6.261,9.133-9.933,20.173-9.933,32.06    c0,15.173,5.911,29.441,16.641,40.17c9.008,9.021,20.525,14.621,32.984,16.185c2.447,10.754,9.008,32.191,25.336,53.839    c-17.005,41.897-9.382,87.143,1.529,120.373l-2.182,1c-15.197,6.961-25.211,21.653-26.132,38.343    c-0.129,2.353,0.715,4.655,2.335,6.366s3.871,2.681,6.228,2.681h46.557c1.242,0,2.481-0.078,3.715-0.202    c-14.295,7.237-23.658,21.454-24.553,37.549c-0.131,2.353,0.712,4.657,2.332,6.368c1.62,1.712,3.872,2.682,6.229,2.682h46.562    c16.462,0,31.179-11.038,35.789-26.841c2-6.858,2.009-14.124,0.026-21.011c-2.18-7.575-5.848-22.609-5.923-38.191    c-0.008-1.758,0.04-3.464,0.12-5.139c21.238,3.527,42.768,5.303,64.297,5.303c5.902,0,11.809-0.134,17.704-0.401    c4.731-0.215,8.392-4.224,8.177-8.955c-0.214-4.731-4.206-8.392-8.955-8.178c-26.22,1.191-52.575-0.4-78.471-4.706    c2.108-6.937,5.365-12.732,9.774-17.314c3.284-3.412,3.181-8.84-0.232-12.125s-8.84-3.181-12.125,0.232    c-11.678,12.133-17.546,29.415-17.441,51.364c0.08,16.767,3.629,32.558,6.591,42.853c1.084,3.764,1.08,7.729-0.01,11.467    c-2.489,8.533-10.435,14.493-19.325,14.493H125.61c2.63-6.39,7.6-11.667,14.107-14.649l9.255-4.242    c4.053-1.858,6.006-6.511,4.493-10.705c-12.393-34.348-16.048-65.723-10.862-93.255c0.877-4.655-2.186-9.138-6.84-10.015    c-4.658-0.879-9.138,2.186-10.015,6.84c-4.562,24.225-3.04,50.858,4.464,79.404c-0.971,0.143-1.951,0.224-2.934,0.224H91.328    c2.627-6.39,7.599-11.667,14.11-14.65l9.25-4.242c4.052-1.858,6.004-6.511,4.491-10.705    c-14.454-40.061-16.93-76.792-7.361-107.192c7.355,7.381,16.054,14.492,26.334,20.896c-1.642,3.16-3.227,6.525-4.706,10.124    c-1.801,4.38,0.289,9.39,4.669,11.192c1.067,0.439,2.171,0.646,3.257,0.646c3.373,0,6.572-2.003,7.934-5.317    c11.004-26.762,28.567-39.096,28.872-39.306c3.907-2.649,4.938-7.961,2.303-11.882c-2.643-3.931-7.97-4.975-11.901-2.331    c-0.616,0.414-10.863,7.434-21.47,22.24c-37.964-23.798-51.499-59.192-55.89-75.423c11.214-2.066,21.537-7.451,29.776-15.69    c3.105-3.11,5.792-6.522,8.064-10.156c2.273,3.636,4.961,7.048,8.069,10.154c8.547,8.564,19.667,14.181,31.552,15.998    c7.896,6.187,17.141,10.222,27.02,11.798c-1.758,16.016-5.323,48.473-5.323,48.473c-0.517,4.707,2.88,8.943,7.587,9.46    c0.318,0.035,0.633,0.052,0.947,0.052c4.316,0,8.031-3.251,8.513-7.64l5.303-48.281c0.071-0.644,0.137-1.245,0.199-1.817    c12.929-1.674,24.884-7.511,34.259-16.886c3.419-3.423,6.362-7.193,8.812-11.221c2.451,4.031,5.398,7.8,8.819,11.221    c9.362,9.375,21.315,15.215,34.253,16.887c0.063,0.569,0.128,1.171,0.199,1.816l5.303,48.281l17.047-1.873    c0,0-3.565-32.456-5.323-48.475c9.875-1.577,19.118-5.61,27.01-11.795c11.89-1.816,23.014-7.434,31.56-15.995    c3.109-3.109,5.8-6.523,8.074-10.16c2.272,3.637,4.961,7.05,8.069,10.161c8.209,8.209,18.493,13.586,29.664,15.667    c-4.384,16.212-17.901,51.59-55.823,75.396c-10.608-14.788-20.849-21.803-21.432-22.196c-3.918-2.635-9.212-1.596-11.863,2.311    s-1.632,9.231,2.263,11.9c0.162,0.111,16.342,11.398,27.398,35.884c14.7,32.556,13.773,73.868-2.682,119.473    c-1.514,4.194,0.44,8.848,4.493,10.705l9.255,4.242c6.507,2.982,11.477,8.258,14.107,14.649h-35.953    c-8.89,0-16.836-5.96-19.325-14.493c-1.091-3.738-1.094-7.702-0.01-11.467c5.526-19.199,15.529-66.812-10.849-94.217    c-3.285-3.412-8.714-3.515-12.125-0.232c-3.412,3.285-3.516,8.713-0.232,12.125c4.397,4.569,7.649,10.346,9.757,17.258    c-5.24,0.876-10.511,1.656-15.754,2.305c-4.7,0.582-8.038,4.864-7.456,9.564c0.539,4.342,4.234,7.522,8.5,7.522    c0.351,0,0.707-0.022,1.064-0.066c5.463-0.677,10.953-1.489,16.413-2.4c0.083,1.696,0.131,3.423,0.123,5.206    c-0.074,15.583-3.742,30.617-5.923,38.191c-1.983,6.888-1.973,14.154,0.026,21.011c4.61,15.803,19.327,26.841,35.789,26.841    h46.562c2.358,0,4.61-0.971,6.229-2.682c1.62-1.713,2.464-4.015,2.332-6.368c-0.894-16.093-10.256-30.309-24.549-37.546    c1.226,0.122,2.457,0.2,3.691,0.2h46.557c2.356,0,4.609-0.97,6.228-2.681c1.62-1.712,2.464-4.014,2.335-6.366    c-0.922-16.689-10.934-31.381-26.129-38.341l-2.186-1.002c10.918-33.252,18.545-78.534,1.497-120.453    c16.277-21.612,22.826-42.999,25.273-53.745c12.504-1.544,24.063-7.149,33.095-16.194c10.734-10.734,16.646-25.002,16.646-40.175    c0-11.886-3.672-22.926-9.933-32.06V114.966z M420.65,448.451h-35.953c-0.986,0-1.967-0.081-2.94-0.225    c8.523-32.72,11.865-73.265-5.405-110.574c-0.822-1.777-1.667-3.493-2.529-5.15c10.272-6.41,18.964-13.525,26.312-20.908    c9.595,30.414,7.128,67.169-7.337,107.262c-1.513,4.193,0.439,8.846,4.491,10.705l9.253,4.243    C413.053,436.784,418.023,442.061,420.65,448.451z M355.735,120.382c11.211-18.305,16.672-39.406,16.099-60.492h37.375    c4.451,0,8.838,0.559,13.06,1.666c22.762,5.912,38.66,26.489,38.66,50.041v26.642c-8.656-5.339-18.841-8.429-29.736-8.429    l-75.459-0.001V120.382z M295.368,28.948l2.231-5.83c1.275-3.328,4.147-5.51,7.687-5.838c1.93-0.176,3.751,0.231,5.317,1.104    l-15.332,27.475c-1.451-0.237-2.913-0.439-4.392-0.587C291.847,39.701,293.34,34.237,295.368,28.948z M206.713,17.28    c3.539,0.328,6.412,2.511,7.686,5.836l2.233,5.839c2.026,5.285,3.519,10.747,4.489,16.318c-1.478,0.148-2.94,0.349-4.39,0.584    L201.4,18.385C202.967,17.51,204.788,17.103,206.713,17.28z M39.266,85.003c-5.321-18.216-4.697-37.967,2.223-56.046l2.235-5.839    c1.307-3.407,4.26-5.598,7.903-5.857c3.64-0.258,6.869,1.489,8.647,4.676l14.841,26.594    C58.763,55.689,46.019,68.877,39.266,85.003z M120.488,186.65c0,0.002,0,0.006,0,0.008c-0.003,10.575-4.133,20.531-11.622,28.033    c-7.495,7.495-17.46,11.622-28.06,11.622c-10.603,0-20.562-4.126-28.048-11.622c-7.495-7.495-11.622-17.456-11.622-28.048    c0-21.881,17.795-39.683,39.67-39.683h15.453c3.09,11.817,12.412,21.139,24.229,24.229V186.65z M129.058,155.138    c-6.101,0-11.436-3.289-14.364-8.178h14.368v-0.001h14.36C140.495,151.848,135.16,155.138,129.058,155.138z M156.265,162.379    c-6.589,9.565-10.459,21.143-10.459,33.611c0,6.196,0.956,12.243,2.775,17.985c-7.057-7.407-10.941-17.063-10.943-27.318    c0-0.005,0-0.009,0-0.014v-15.457c7.555-1.978,14.089-6.503,18.627-12.6V162.379z M156.265,129.808l-75.461,0.001    c-10.895,0-21.08,3.089-29.736,8.429v-26.641c0-23.552,15.897-44.129,38.678-50.046c4.203-1.101,8.59-1.66,13.041-1.66h37.378    c-0.571,21.086,4.889,42.186,16.099,60.49V129.808z M163.36,29.785l2.355-6.15c1.441-3.757,4.697-6.171,8.712-6.458    c4.005-0.294,7.576,1.64,9.536,5.156l15.881,28.459c-17.478,7.552-31.383,21.831-38.458,39.554    C155.353,70.725,155.88,49.331,163.36,29.785z M247.424,195.99c0.002,11.262-4.393,21.868-12.37,29.856    c-7.978,7.978-18.586,12.371-29.87,12.371c-0.003,0-0.006,0-0.009,0c-0.015,0-0.03-0.001-0.046-0.001    c-11.267-0.014-21.846-4.403-29.801-12.37c-7.978-7.978-12.372-18.582-12.372-29.856c0-23.292,18.943-42.241,42.227-42.241h16.628    c3.15,12.559,13.055,22.462,25.613,25.612V195.99z M255.996,163.27c-6.876,0-12.867-3.858-15.927-9.521h15.931h15.922    C268.864,159.412,262.872,163.27,255.996,163.27z M336.655,225.852c-7.965,7.974-18.566,12.365-29.853,12.365    s-21.888-4.392-29.855-12.371c-7.978-7.978-12.371-18.581-12.371-29.856v-16.631c12.554-3.152,22.453-13.055,25.603-25.61h16.624    c4.736,0,8.575-3.839,8.575-8.575c0-4.736-3.839-8.575-8.575-8.575H205.185c-11.68,0-22.574,3.405-31.768,9.253v-28.88    c0-30.278,24.632-54.911,54.911-54.911h55.33c30.287,0,54.928,24.64,54.928,54.928v28.84c-1.928-1.228-3.932-2.355-6.016-3.36    c-4.264-2.055-9.391-0.268-11.45,3.998c-2.057,4.265-0.268,9.391,3.998,11.45c14.526,7.006,23.913,21.952,23.913,38.075    C349.031,207.266,344.637,217.869,336.655,225.852z M350.612,90.354c-7.076-17.724-20.98-32.004-38.458-39.558l15.885-28.466    c1.959-3.515,5.531-5.44,9.534-5.154c4.015,0.287,7.273,2.701,8.711,6.454l2.355,6.152    C356.122,49.332,356.648,70.731,350.612,90.354z M374.359,186.642c0,0.005,0,0.01,0,0.015c-0.001,10.26-3.89,19.922-10.959,27.335    c1.823-5.748,2.779-11.8,2.779-18.003c0-12.141-3.79-23.806-10.446-33.536v-3.865c4.538,6.095,11.071,10.618,18.625,12.596    V186.642z M382.94,155.138c-6.102,0-11.437-3.291-14.365-8.181h14.36v0.001h14.368    C394.376,151.848,389.042,155.138,382.94,155.138z M459.237,214.696c-7.481,7.491-17.44,11.618-28.043,11.618    c-10.6,0-20.565-4.128-28.057-11.618c-7.495-7.506-11.623-17.462-11.627-28.037c0-0.002,0-0.006,0-0.008v-15.462    c11.817-3.09,21.138-12.412,24.229-24.229h15.453c21.875,0,39.67,17.802,39.67,39.683    C470.864,197.235,466.736,207.196,459.237,214.696z M472.732,85.002c-6.754-16.128-19.5-29.319-35.849-36.473l14.842-26.595    c1.776-3.187,5.006-4.932,8.646-4.674c3.642,0.261,6.596,2.45,7.901,5.854l2.238,5.841    C477.429,47.034,478.054,66.786,472.732,85.002z"/>
	</g>
</g>
<g>
	<g>
		<path d="M423.067,92.821c-4.736,0-8.575,3.839-8.575,8.575v11.779c0,4.736,3.839,8.575,8.575,8.575    c4.736,0,8.575-3.839,8.575-8.575v-11.779C431.642,96.661,427.803,92.821,423.067,92.821z"/>
	</g>
</g>
<g>
	<g>
		<path d="M237.344,94.207c-4.736,0-8.575,3.839-8.575,8.575v16.629c0,4.736,3.839,8.575,8.575,8.575s8.575-3.839,8.575-8.575    v-16.629C245.919,98.046,242.08,94.207,237.344,94.207z"/>
	</g>
</g>
<g>
	<g>
		<path d="M274.657,94.207c-4.736,0-8.575,3.839-8.575,8.575v16.629c0,4.736,3.839,8.575,8.575,8.575    c4.736,0,8.575-3.839,8.575-8.575v-16.629C283.232,98.046,279.393,94.207,274.657,94.207z"/>
	</g>
</g>
<g>
	<g>
		<path d="M88.931,92.821c-4.736,0-8.575,3.839-8.575,8.575v11.779c0,4.736,3.839,8.575,8.575,8.575    c4.736,0,8.575-3.839,8.575-8.575v-11.779C97.506,96.661,93.667,92.821,88.931,92.821z"/>
	</g>
</g>
<g>
</g>
<g>
</g>
<g>
</g>
<g>
</g>
<g>
</g>
<g>
</g>
<g>
</g>
<g>
</g>
<g>
</g>
<g>
</g>
<g>
</g>
<g>
</g>
<g>
</g>
<g>
</g>
<g>
</g>
</svg>
