<?xml version="1.0" encoding="iso-8859-1"?>
<!-- Generator: Adobe Illustrator 19.0.0, SVG Export Plug-In . SVG Version: 6.00 Build 0)  -->
<svg xmlns="http://www.w3.org/2000/svg" xmlns:xlink="http://www.w3.org/1999/xlink" version="1.1" id="Layer_1" x="0px" y="0px" viewBox="0 0 511.999 511.999" style="enable-background:new 0 0 511.999 511.999;" xml:space="preserve">
<g>
	<g>
		<path d="M294.683,154.479c-10.785-10.786-28.337-10.785-39.122,0c-3.178,3.178-3.178,8.331,0,11.509    c3.175,3.178,8.329,3.178,11.507,0c4.44-4.44,11.663-4.441,16.107,0c1.589,1.589,3.672,2.384,5.754,2.384    c2.082,0,4.165-0.794,5.755-2.384C297.862,162.81,297.862,157.657,294.683,154.479z"/>
	</g>
</g>
<g>
	<g>
		<path d="M458.674,324.764c-9.955-9.955-26.757-7.631-31.451-6.74c-12.852-0.305-30.287-8.531-50.856-23.94    c15.605-7.138,44.527-9.178,62.175-8.599c3.084,0.1,5.987-1.562,7.449-4.298c1.462-2.735,1.241-6.062-0.566-8.581    c-23.02-32.063-57.216-41.74-75.953-44.661c2.059-4.163,3.874-8.593,5.434-13.27c11.771-1.072,37.987-5.722,58.232-25.798    c17.179-17.035,25.89-40.909,25.89-70.96c0-34.635-24.074-69.316-64.396-92.771c-3.885-2.26-8.867-0.943-11.127,2.943    c-2.259,3.884-0.942,8.866,2.943,11.126c35.257,20.508,56.305,49.93,56.305,78.702c0,25.48-7.052,45.427-20.958,59.288    c-13.752,13.706-31.492,18.675-42.534,20.481c1.803-9.638,2.732-19.99,2.732-30.943c0-11.623-1.023-22.575-3.05-32.686    c2.356-0.191,4.674-0.448,6.943-0.768c4.73-0.671,9.225,2.212,10.484,6.785l0.129,0.449c1.288,4.673-1.162,9.48-5.7,11.18    c-4.208,1.578-6.341,6.268-4.763,10.476c1.577,4.209,6.269,6.34,10.476,4.764c12.478-4.678,19.218-17.894,15.654-30.828    l-0.128-0.446c-3.4-12.353-15.628-20.304-28.429-18.495c-4.688,0.663-9.639,1.008-14.721,1.026    c-0.116-0.002-0.24-0.002-0.357,0.001c-0.034,0-0.062,0-0.096,0c-54.982,0-112.671-37.617-113.245-37.995    c-2.5-1.65-5.703-1.796-8.341-0.378c-2.638,1.418-4.283,4.172-4.283,7.167c0,41.351-29.224,51.17-38.074,53.195    c-2.989-1.445-6.198-2.198-9.44-2.198c-14.425,0-25.726,14.06-25.726,32.008s11.301,32.008,25.726,32.008    c1.386,0,2.757-0.133,4.102-0.397c6.092,17.204,16.693,32.653,30.612,44.611c-3.051,6.766-9.987,19.771-23.469,34.748    c-17.571,19.536-40.496,36.259-68.143,49.752c-6.327-0.928-20.642-1.813-29.517,7.062c-3.178,3.178-3.178,8.33,0,11.508    c3.178,3.178,8.331,3.178,11.508,0c2.011-2.009,5.778-2.734,9.451-2.834l-1.484,7.419c-0.881,4.407,1.977,8.694,6.384,9.575    c0.539,0.107,1.075,0.159,1.605,0.159c3.8,0,7.197-2.676,7.972-6.544l1.93-9.649c15.508-0.069,53.575-1.766,83.432-15.592    c2.455-1.135,4.811-2.333,7.061-3.591c-2.056,15.27-7.493,34.845-15.825,37.301c-2.726,0.804-4.834,2.971-5.563,5.716    c-7.491,28.2-25.574,45.29-53.815,50.912c-3.136-10.348-10.292-22.946-26.604-28.121c-21.562-6.829-34.012-21.9-34.119-22.03    c-2.081-2.593-5.53-3.66-8.712-2.693c-3.182,0.967-5.456,3.772-5.742,7.084c-0.17,1.974-3.45,43.2,16.789,64.078    c-20.239,20.878-16.959,62.105-16.789,64.078c0.288,3.313,2.56,6.117,5.741,7.084c0.781,0.238,1.578,0.353,2.365,0.353    c2.426,0,4.775-1.087,6.346-3.044c0.12-0.15,12.329-15.121,34.12-22.033c9.555-3.027,17.121-9.155,22.18-17.867    c11.228,0.885,22.039,1.349,32.39,1.349c40.598,0,74.367-6.804,100.686-20.327c3.998-2.054,5.573-6.959,3.519-10.957    c-2.055-3.998-6.961-5.573-10.958-3.519c-29.423,15.118-69.71,21.019-119.817,17.577c1.179-6.023,1.093-10.551,1.069-11.269    c-0.016-0.487-0.09-0.961-0.19-1.427c0.101-0.47,0.175-0.947,0.191-1.439c0.003-0.09,0.01-0.36,0.01-0.775    c35.799-6.848,53.644-28.313,62.478-49.314c4.582,4.232,10.763,9.107,18.612,13.544c12.09,6.835,29.965,13.562,53.473,13.562    c3.807,0,7.766-0.179,11.869-0.561c-3.007,3.061-6.229,5.948-9.669,8.64c-3.539,2.77-4.162,7.885-1.392,11.424    c1.605,2.051,3.997,3.122,6.414,3.122c1.754,0,3.522-0.565,5.011-1.729c10.388-8.131,19.144-17.781,26.023-28.683    c16.805-26.623,18.934-54.782,18.569-70.118c8.549,1.344,17.083,1.883,25.167,1.883c17.197,0,32.349-2.351,41.294-4.112    l1.624,8.121c0.774,3.868,4.172,6.544,7.972,6.544c0.528,0,1.065-0.052,1.605-0.159c4.407-0.881,7.265-5.168,6.384-9.575    l-1.484-7.42c3.666,0.104,7.444,0.829,9.451,2.835c3.179,3.178,8.331,3.178,11.509,0    C461.852,333.094,461.852,327.942,458.674,324.764z M102.556,395.652c6.844,5.019,15.981,10.352,27.212,13.909    c9.535,3.024,14.021,10.592,16.096,17.82c-0.542,0.87-0.922,1.845-1.105,2.882c-10.455-2.324-19.77-1.982-27.824,1.012    C107.529,423.926,103.777,408.666,102.556,395.652z M144.576,457.286c-3.021,7.304-7.863,11.924-14.807,14.124    c-11.23,3.562-20.367,8.895-27.211,13.912c1.348-14.362,5.779-31.457,17.495-37.649c3.335-1.771,7.253-2.656,11.725-2.656    c4.545,0,9.663,0.915,15.323,2.743C146.724,450.439,145.994,453.847,144.576,457.286z M421.029,269.398    c-17.518,0.8-43.231,3.762-58.351,13.753c-9.709-8.221-18.033-16.222-23.642-21.851c7.976-4.553,14.958-10.607,20.869-18.098    C370.19,244.126,398.654,248.536,421.029,269.398z M212.134,188.359c-0.684-2.717-2.716-4.892-5.381-5.757    c-0.822-0.267-1.67-0.397-2.51-0.397c-1.885,0-3.74,0.655-5.226,1.899c-1.289,1.08-2.624,1.628-3.965,1.628    c-4.47,0-9.451-6.461-9.451-15.733s4.98-15.733,9.451-15.733c1.068,0,2.148,0.359,3.214,1.067    c1.648,1.189,3.697,1.728,5.753,1.477c0.57-0.071,14.112-1.825,27.552-11.353c10.538-7.47,22.791-21.03,26.291-44.661    c19.713,11.142,61.564,31.722,104.502,33.549c0.949,4.195,1.686,8.589,2.233,13.145c-2.502-0.731-5.121-1.115-7.801-1.115    c-7.391,0-14.34,2.879-19.565,8.104c-3.179,3.178-3.179,8.331-0.001,11.509c1.59,1.59,3.672,2.384,5.755,2.384    c2.082,0,4.165-0.794,5.754-2.384c2.153-2.153,5.014-3.338,8.059-3.338c3.041,0,5.898,1.184,8.043,3.333    c0.277,0.277,0.573,0.521,0.876,0.749c0,0.003,0,0.008,0,0.011c0,13.908-1.596,26.667-4.745,37.926    c-2.739,9.814-6.648,18.386-11.623,25.483c-6.919,9.89-15.936,16.932-26.812,20.938c-7.309,2.709-15.597,4.082-24.634,4.082    c-19.5,0-37.978-6.213-53.439-17.969C228.48,225.057,216.998,207.71,212.134,188.359z M324.517,396.788    c-49.235,10.949-77.959-10.295-89.273-21.646c9.379-9.087,14.276-25.549,16.59-39.729c3.797,2.514,8.255,4.147,13.105,4.589    c0.851,0.076,1.696,0.113,2.535,0.113c11.863,0,22.311-7.479,26.384-18.277h5.116c2.677,11.56,12.519,20.642,24.955,21.755    c0.837,0.076,1.67,0.113,2.503,0.113c4.353,0,8.611-1.026,12.454-2.911C338.914,353.787,336.776,375.8,324.517,396.788z     M255.521,312.094c0-0.483,0.015-0.87,0.054-1.271c0.159-1.79,0.742-3.115,3.142-4.183c2.011-0.894,4.786-1.357,8.019-1.357    c1.094,0,2.238,0.053,3.424,0.161c5.273,0.471,7.335,1.684,8.094,2.364c0.357,0.32,1.443,1.293,1.094,5.16    c-0.591,6.555-6.397,11.414-12.945,10.824C260.251,323.232,255.572,318.174,255.521,312.094z M314.567,314.433    c0.42-4.649,6.424-5.561,11.061-5.561c1.348,0,2.58,0.077,3.526,0.162c9.791,0.886,9.529,3.825,9.197,7.533    c-0.195,2.153-0.927,4.131-2.175,5.878c-2.5,3.476-6.52,5.321-10.793,4.938C318.833,326.797,313.981,320.984,314.567,314.433z     M354.028,321.459c0.244-1.13,0.427-2.274,0.533-3.432c0.764-8.535-1.332-23.157-23.948-25.203    c-15.047-1.345-25.987,3.431-30.317,12.738h-5.329c-1.175-4.706-3.61-7.866-5.853-9.876c-4.079-3.654-9.804-5.766-17.498-6.454    c-5.235-0.474-12.872-0.418-19.516,2.537c-6.457,2.872-10.702,7.913-12.212,14.343c-4.622,4.095-10.436,7.776-17.291,10.945    c-15.286,7.078-33.481,10.627-48.931,12.388c17.228-11.086,32.199-23.661,44.727-37.59c13.072-14.522,20.665-27.461,24.765-35.854    c16.418,10.123,35.141,15.446,54.741,15.446c8.899,0,17.271-1.147,24.982-3.374c5.9,6.15,18.77,19.062,34.603,31.915    c12.258,9.945,23.682,17.749,34.222,23.387C380.173,324.098,366.935,323.903,354.028,321.459z"/>
	</g>
</g>
<g>
	<g>
		<path d="M368.06,12.394c-25.956-10.053-52.851-14.11-77.778-11.732c-25.301,2.413-47.512,11.532-64.679,26.482    c-19.862-12.117-45.523-9.623-62.975,6.304c-15.801,14.412-33.62,41.745-31.324,90.977c-49.779,9.117-68.344,37.653-74.14,49.932    c-8.951,18.965-8.217,39.314,2.015,55.828c0.717,1.158,1.491,2.28,2.293,3.382c14.149,23.543,51.826,66.403,112.265,66.403    c1.567,0,3.154-0.027,4.755-0.081c4.492-0.154,8.008-3.92,7.854-8.411c-0.153-4.491-3.933-8.006-8.411-7.855    c-33.188,1.136-58.035-11.469-75.279-25.576c2.165,0.275,4.324,0.417,6.471,0.417c10.337,0,20.365-3.187,29.108-9.603    c20.691-15.184,28.169-43.927,18.647-71.592c-4.667-16.638-7.647-32.335-8.861-46.657v-0.001    c-4.023-47.416,11.687-72.469,25.577-85.139c12.386-11.303,30.693-12.868,44.51-3.813c1.747,1.149,2.692,1.975,2.693,1.975    c3.211,2.937,8.166,2.825,11.244-0.253c15.054-15.054,35.727-24.223,59.783-26.517c22.423-2.137,46.748,1.565,70.353,10.707    c4.194,1.624,8.905-0.459,10.528-4.649C374.332,18.729,372.25,14.017,368.06,12.394z M128.605,235.737    c-13.008,9.546-29.892,8.464-45.166-2.894c-4.265-3.169-7.773-6.947-10.425-11.23c-7.272-11.736-7.684-26.429-1.133-40.31    c4.645-9.841,19.612-32.555,60.844-40.584c1.631,12.953,4.497,26.765,8.553,41.183c0.044,0.158,0.093,0.315,0.148,0.47    C147.488,199.803,145.876,223.064,128.605,235.737z"/>
	</g>
</g>
<g>
	<g>
		<path d="M334.686,205.66c-3.178-3.178-8.331-3.179-11.508,0c-4.443,4.442-11.672,4.442-16.113,0    c-3.178-3.177-8.331-3.178-11.508,0c-3.179,3.177-3.179,8.33-0.001,11.508c5.395,5.395,12.479,8.091,19.564,8.091    c7.084,0,14.172-2.697,19.564-8.091C337.864,213.99,337.864,208.838,334.686,205.66z"/>
	</g>
</g>
<g>
</g>
<g>
</g>
<g>
</g>
<g>
</g>
<g>
</g>
<g>
</g>
<g>
</g>
<g>
</g>
<g>
</g>
<g>
</g>
<g>
</g>
<g>
</g>
<g>
</g>
<g>
</g>
<g>
</g>
</svg>
