<?xml version="1.0" encoding="iso-8859-1"?>
<!-- Generator: Adobe Illustrator 19.0.0, SVG Export Plug-In . SVG Version: 6.00 Build 0)  -->
<svg xmlns="http://www.w3.org/2000/svg" xmlns:xlink="http://www.w3.org/1999/xlink" version="1.1" id="Layer_1" x="0px" y="0px" viewBox="0 0 512 512" style="enable-background:new 0 0 512 512;" xml:space="preserve">
<g>
	<g>
		<path d="M312.071,162.016c-3.557-2.792-8.706-2.174-11.499,1.385c-1.89,2.409-4.607,3.936-7.647,4.302    c-3.038,0.365-6.041-0.475-8.45-2.366c-3.558-2.793-8.705-2.174-11.498,1.383c-2.794,3.557-2.174,8.706,1.383,11.499    c4.954,3.891,10.94,5.949,17.141,5.949c1.12,0,2.25-0.068,3.382-0.203c7.384-0.89,13.98-4.6,18.573-10.451    C316.249,169.956,315.628,164.808,312.071,162.016z"/>
	</g>
</g>
<g>
	<g>
		<path d="M363.171,207.752c-0.837-0.657-1.698-1.267-2.567-1.853l0.067-0.151c1.829-4.136-0.042-8.972-4.179-10.801    c-4.135-1.826-8.973,0.043-10.801,4.18l-0.153,0.346c-9.024-1.936-18.47-0.94-26.885,2.804l-1.797-2.472    c-2.662-3.658-7.782-4.466-11.44-1.807c-3.658,2.661-4.467,7.782-1.806,11.44l1.609,2.213c-1.048,1.081-2.052,2.224-3.003,3.434    c-2.794,3.556-2.174,8.705,1.383,11.498c1.5,1.178,3.282,1.749,5.052,1.749c2.427,0,4.832-1.073,6.447-3.132    c9.208-11.724,26.235-13.773,37.959-4.566c3.559,2.793,8.707,2.175,11.498-1.383C367.349,215.694,366.728,210.545,363.171,207.752    z"/>
	</g>
</g>
<g>
	<g>
		<path d="M409.14,228.722c-0.201-0.751-4.772-17.488-18.229-32.483c0.877-7.02,1.329-14.375,1.329-22.029    c0-18.888-2.667-35.766-7.799-50.229c5.906-14.043,26.415-69.529-3.537-100.49C354.291-4.021,267.453-6.063,213.303,10.589    c-4.324,1.33-6.75,5.912-5.421,10.236c1.331,4.324,5.918,6.749,10.235,5.42c25.125-7.725,58.174-11.273,88.401-9.481    c29.95,1.772,53.356,8.544,62.616,18.115c7.242,7.486,14.771,22.496,9.517,51.486c-1.126,6.21-2.664,12.045-4.215,17.07    c-2.894-4.443-6.115-8.524-9.685-12.183c-8.501-8.714-21.634-11.39-32.675-6.664c-11.024,4.719-17.333,13.268-20.932,21.136    c-7.423-7.137-16.711-11.889-27.488-13.979c-28.692-5.566-57.912,9.589-71.039,36.855c-2.602,5.404-4.732,11.021-6.369,16.782    c-0.71-0.072-1.425-0.109-2.141-0.109c-5.833,0-11.155,2.289-15.438,6.193c-4.023-9.004-9.192-21.847-13.031-35.835    c-11.396-41.52-2.788-61.237,6.441-70.465c3.965-3.966,9.37-7.689,16.066-11.066c4.038-2.036,5.661-6.961,3.623-11    c-2.038-4.038-6.963-5.661-11-3.623c-8.253,4.162-15.073,8.909-20.271,14.108c-38.121,38.122,0.071,119.174,8.521,135.788    c-0.192,0.954-0.347,1.928-0.472,2.918c-7.919,4.374-24.169,15.105-34.875,34.138c-2.117,3.765-0.947,8.527,2.674,10.881    l21.037,13.674c1.379,0.896,2.926,1.324,4.456,1.324c2.678,0,5.305-1.314,6.874-3.728c2.466-3.792,1.389-8.864-2.402-11.329    l-14.214-9.239c5.859-8.032,12.793-13.802,18.243-17.557c3.938,11.425,12.982,19.24,23.767,19.24c1.391,0,2.768-0.134,4.121-0.399    c14.054,39.988,50.841,67.728,93.461,70.098l8.455,24.848l-117.326-76.261c-3.789-2.464-8.863-1.389-11.329,2.403    c-2.466,3.792-1.389,8.864,2.403,11.33l20.622,13.405c-10.241,27.765-20.054,68.554-14.516,114.991    c4.899,41.119-3.998,77.89-24.412,100.881c-14.305,16.111-33.258,24.627-54.81,24.627c-4.524,0-8.189,3.667-8.189,8.189    S106.25,512,110.774,512h201.624c28.968,0,52.3-22.681,53.119-51.634l2.543-89.282c0.129-4.521-3.433-8.29-7.953-8.419    c-4.553-0.135-8.291,3.432-8.42,7.954l-2.543,89.283c-0.433,15.324-9.988,28.098-23.425,33.259    c5.024-7.161,7.985-15.87,7.985-25.263V326.915l19.927-24.526l-1.228,43.135c-0.129,4.521,3.433,8.29,7.953,8.419    c0.08,0.002,0.159,0.003,0.238,0.003c4.415,0,8.055-3.515,8.182-7.957l1.837-64.501l36.966-45.496    C409.235,233.957,409.814,231.255,409.14,228.722z M307.617,263.201c-40.874,0.002-76.366-27.648-86.311-67.236    c-0.687-2.733-2.73-4.92-5.409-5.793c-0.83-0.271-1.684-0.402-2.532-0.402c-1.892,0-3.755,0.656-5.249,1.902    c-1.308,1.092-2.658,1.646-4.008,1.646c-4.495,0-9.505-6.502-9.505-15.833c0-9.331,5.01-15.833,9.505-15.833    c1.12,0,2.253,0.39,3.361,1.159c2.28,1.578,5.203,1.896,7.77,0.843c2.566-1.053,4.424-3.333,4.939-6.057    c1.43-7.577,3.851-14.942,7.198-21.891c9.901-20.565,31.758-32.033,53.163-27.881c12.167,2.36,20.948,8.857,26.843,19.861    c1.72,3.208,5.354,4.878,8.913,4.124c3.562-0.752,6.201-3.787,6.475-7.416c0.014-0.186,1.57-18.679,15.752-24.75    c4.866-2.084,10.697-0.862,14.505,3.043c12.281,12.59,19.79,31.552,22.078,55.383c-0.043,0.048-0.09,0.092-0.132,0.141    c-1.977,2.339-4.748,3.766-7.8,4.022c-3.049,0.258-6.02-0.694-8.358-2.672c-3.455-2.922-8.622-2.49-11.541,0.963    c-2.922,3.454-2.49,8.621,0.963,11.542c5.073,4.291,11.367,6.588,17.936,6.588c0.784,0,1.572-0.033,2.363-0.098    c2.531-0.211,4.98-0.762,7.303-1.614C375.37,204.965,367.202,263.201,307.617,263.201z M317.329,467.898    c0,15.287-12.437,27.723-27.724,27.723h-126.92v0c5.421-3.91,10.487-8.502,15.148-13.752    c23.866-26.88,33.963-67.258,28.428-113.696c-4.932-41.36,3.252-78.027,12.357-103.883l98.709,64.161V467.898z M328.502,307.348    l-9.665-28.404c22.663-2.612,41.123-13.293,53.818-31.297c5.959-8.452,10.593-18.482,13.865-29.78    c2.657,4.473,4.435,8.531,5.5,11.306L328.502,307.348z"/>
	</g>
</g>
<g>
	<g>
		<path d="M294.365,334.116c-5.224,4.995-1.524,14.094,5.677,14.094c4.208,0,7.807-3.326,8.161-7.509    C308.824,333.341,299.684,329.032,294.365,334.116z"/>
	</g>
</g>
<g>
	<g>
		<path d="M294.737,406.142c-2.561,2.16-3.549,5.848-2.408,9.001c1.164,3.217,4.287,5.429,7.712,5.429    c4.157,0,7.735-3.254,8.149-7.387C308.909,406.008,300.227,401.511,294.737,406.142z"/>
	</g>
</g>
<g>
	<g>
		<path d="M294.997,369.745c-2.867,2.221-3.914,6.252-2.523,9.596c1.259,3.025,4.291,5.056,7.568,5.056    c4.093,0,7.602-3.152,8.123-7.189C309.083,370.092,300.603,365.402,294.997,369.745z"/>
	</g>
</g>
<g>
	<g>
		<path d="M303.541,441.166c-2.978-1.408-6.624-0.854-9.053,1.374c-5.378,4.931-1.716,14.219,5.556,14.219    c4.156,0,7.734-3.269,8.149-7.392C308.533,445.964,306.626,442.624,303.541,441.166z"/>
	</g>
</g>
<g>
</g>
<g>
</g>
<g>
</g>
<g>
</g>
<g>
</g>
<g>
</g>
<g>
</g>
<g>
</g>
<g>
</g>
<g>
</g>
<g>
</g>
<g>
</g>
<g>
</g>
<g>
</g>
<g>
</g>
</svg>
