<?xml version="1.0" encoding="iso-8859-1"?>
<!-- Generator: Adobe Illustrator 19.0.0, SVG Export Plug-In . SVG Version: 6.00 Build 0)  -->
<svg xmlns="http://www.w3.org/2000/svg" xmlns:xlink="http://www.w3.org/1999/xlink" version="1.1" id="Layer_1" x="0px" y="0px" viewBox="0 0 511.998 511.998" style="enable-background:new 0 0 511.998 511.998;" xml:space="preserve">
<g>
	<g>
		<path d="M303.947,91.953c-4.164-18.432-20.28-31.307-39.192-31.307c-18.911,0-35.028,12.874-39.192,31.307    c-0.281,1.243-0.281,2.534,0,3.777c4.162,18.432,20.279,31.307,39.192,31.307c18.912,0,35.028-12.874,39.192-31.307    C304.229,94.486,304.229,93.196,303.947,91.953z M264.756,109.894c-10.014,0-18.954-6.644-21.958-16.053    c3.004-9.409,11.944-16.053,21.958-16.053s18.953,6.644,21.958,16.053C283.709,103.249,274.77,109.894,264.756,109.894z"/>
	</g>
</g>
<g>
	<g>
		<path d="M259.828,86.836c-3.002,2.104-4.32,5.983-3.271,9.492c1.066,3.569,4.476,6.078,8.197,6.078    c3.807,0,7.247-2.611,8.255-6.28C275.098,88.522,266.275,82.319,259.828,86.836z"/>
	</g>
</g>
<g>
	<g>
		<path d="M305.389,134.618c-3.347-3.347-8.774-3.347-12.121,0c-22.405,22.407-55.917,6.17-57.423,5.422    c-4.223-2.12-9.368-0.422-11.498,3.8c-2.132,4.226-0.434,9.381,3.792,11.513c0.464,0.234,11.524,5.748,26.263,7.56    c3.146,0.386,6.225,0.578,9.236,0.578c16.404,0,30.705-5.706,41.75-16.751C308.736,143.392,308.736,137.964,305.389,134.618z"/>
	</g>
</g>
<g>
	<g>
		<path d="M264.911,375.918c-1.013-4.625-5.584-7.551-10.205-6.54c-17.157,3.756-33.902,2.513-49.765-3.695    c-4.406-1.722-9.38,0.451-11.105,4.858c-1.724,4.408,0.45,9.38,4.858,11.105c11.923,4.666,24.236,7.003,36.808,7.003    c7.539,0,15.174-0.841,22.869-2.526C262.995,385.111,265.924,380.542,264.911,375.918z"/>
	</g>
</g>
<g>
	<g>
		<path d="M253.688,308.382c-3.124-1.466-6.919-0.887-9.466,1.441c-5.661,5.175-1.801,14.871,5.803,14.871    c4.272,0.001,7.968-3.276,8.504-7.505C258.988,313.564,256.994,309.934,253.688,308.382z"/>
	</g>
</g>
<g>
	<g>
		<path d="M212.502,243.054c-3.132-1.979-7.327-1.688-10.144,0.727c-5.907,5.064-2.223,15.086,5.565,15.086    c4.044,0.001,7.605-2.934,8.399-6.89C217.013,248.535,215.467,244.928,212.502,243.054z"/>
	</g>
</g>
<g>
	<g>
		<path d="M408.336,74.032c-4.154-7.119-10.862-11.038-18.888-11.038c-6.341,0-12.157,2.604-17.284,7.741    c-14.355,14.383-23.874,50.303-29.104,109.81c-2.802,31.882-3.484,61.944-3.651,75.184c-4.794,1.755-8.772,4.942-11.275,8.971    c-18.519-1.154-37.338-7.485-46.046-10.777c-0.23-18.686,2.911-34.151,4.595-41.029c12.276-5.23,22.499-13.089,30.535-23.521    c16.69-21.664,22.832-53.102,17.762-90.914c-4.153-30.985-14.709-56.385-30.526-73.454C286.269,5.382,261.4-2.943,232.549,0.923    c-7.132,0.955-14.174,2.604-20.931,4.899c-4.482,1.522-6.881,6.389-5.359,10.873c1.522,4.482,6.392,6.881,10.873,5.359    c5.707-1.938,11.66-3.331,17.694-4.14c23.425-3.14,42.619,3.166,57.054,18.742c13.401,14.461,22.428,36.619,26.109,64.081    c4.386,32.707-0.711,60.471-14.351,78.176c-10.099,13.113-24.927,21.061-44.071,23.624c-26.837,3.598-53.853-4.642-74.146-22.604    c-0.034-0.032-0.069-0.063-0.104-0.095c-10.795-9.596-19.309-21.717-24.623-35.051c-1.093-2.74-3.516-4.727-6.419-5.258    c-2.9-0.53-5.873,0.467-7.865,2.643c-1.2,1.311-2.527,2.073-3.916,2.263c-4.656,0.626-10.776-5.433-12.076-15.108    c-0.64-4.786,0.102-9.555,2.036-13.082c0.864-1.575,2.742-4.274,5.648-4.66c1.152-0.161,2.378,0.088,3.638,0.73    c2.585,1.319,5.66,1.242,8.176-0.208c2.514-1.449,4.124-4.072,4.28-6.969c0.958-17.925,7.065-35.096,17.668-49.684    c0.079-0.099,0.157-0.2,0.233-0.304c4.086-5.584,8.808-10.721,14.034-15.268c3.323-2.89,6.88-5.565,10.571-7.949    c3.976-2.569,5.117-7.874,2.548-11.85c-2.569-3.976-7.876-5.119-11.85-2.548c-4.372,2.824-8.585,5.992-12.522,9.416    c-6.087,5.297-11.595,11.268-16.378,17.754c-0.085,0.104-0.167,0.211-0.246,0.32c-10.752,14.673-17.648,31.58-20.211,49.384    c-0.747,0.025-1.492,0.088-2.234,0.19c-7.563,1.006-14.263,5.892-18.384,13.405c-3.708,6.762-5.128,15.142-3.996,23.602    c2.518,18.725,16.285,31.828,31.355,29.818c1.442-0.197,2.85-0.529,4.214-0.992c4.616,9.009,10.496,17.395,17.403,24.839    c-6.16,4.841-14.935,12.471-24.169,22.902c-3.138,3.544-2.808,8.961,0.737,12.099c1.631,1.445,3.658,2.153,5.677,2.153    c2.369,0,4.727-0.976,6.422-2.89c9.637-10.886,18.772-18.431,24.165-22.496c19.476,15.242,43.387,23.468,67.944,23.468    c4.875,0,9.776-0.323,14.67-0.979c2.074-0.278,4.095-0.627,6.09-1.011c-1.19,6.463-2.341,14.748-2.819,24.199    c-2.956-1.446-6.683-1.319-9.506,1.291c-5.581,5.162-1.806,14.862,5.812,14.862c1.265,0,2.482-0.293,3.583-0.809    c0.403,11.045,1.915,23.007,5.311,35.131c1.292,4.61,2.728,8.779,4.118,12.809c3.185,9.245,5.787,16.806,5.236,25.533    c-57.663,28.022-96.442-5.274-106.676-15.774c4.14-19.931,10.422-45.223,18.266-73.527c0.761-2.745,0.109-5.688-1.74-7.855    c-1.849-2.167-4.652-3.274-7.484-2.952c-19.877,2.252-39.555,23.551-58.487,63.305c-2.908,6.107-5.571,12.164-7.963,17.918    c1.432-25.87,9.464-50.239,24.036-72.795c2.569-3.976,1.428-9.282-2.548-11.851c-3.977-2.569-9.282-1.429-11.851,2.548    c-24.199,37.457-32.208,79.335-23.802,124.475c0.723,3.887,4.012,6.775,7.961,6.988c0.091,0.005,0.179-0.01,0.27-0.008    c0.062,0.007,0.121,0.023,0.184,0.023c0.205,0,0.413-0.032,0.619-0.047c0.175-0.013,0.349-0.016,0.521-0.039    c0.048-0.007,0.094-0.003,0.142-0.01l15.237-2.286c4.682-0.702,7.907-5.066,7.205-9.747c-0.702-4.682-5.066-7.909-9.747-7.205    l-1.547,0.232c10.878-31.519,29.128-71.034,47.56-87.181c-6.208,23.352-11.056,43.684-14.453,60.627    c-0.015,0.065-0.029,0.131-0.042,0.197c-2.594,12.618-1.973,25.533,1.75,38.517c-20.758,49.913-9.899,114.35-4.265,139.765    h-14.229c-4.734,0-8.571,3.838-8.571,8.571s3.838,8.571,8.571,8.571h25.077c0.021,0,0.04,0.005,0.061,0.005    c0.387,0,0.781-0.026,1.174-0.08c4.242-0.583,7.404-4.209,7.404-8.491c0-36.555,11.088-67.93,22.211-90.215    c0.192,0.19,0.375,0.379,0.568,0.568c23.741,23.255,48.955,37.424,50.016,38.016c1.31,0.729,2.744,1.085,4.17,1.085    c2.219,0,4.414-0.861,6.064-2.511c7.255-7.255,13.327-17.115,18.384-27.994c25.814,34.74,51.221,84.383,51.503,84.938    c1.488,2.919,4.47,4.68,7.635,4.68c0.003,0,0.007,0,0.009,0h22.273c4.734,0,8.571-3.838,8.571-8.571s-3.838-8.571-8.571-8.571    H341.2c-1.153-23.948-7.065-50.163-17.645-78.084c-1.677-4.427-6.621-6.657-11.052-4.977c-4.426,1.678-6.655,6.625-4.977,11.052    c4.978,13.138,8.857,25.828,11.624,38.003c-10.804-18.423-24.476-40.045-38.041-56.943c2.767-7.991,5.086-16.055,7.008-23.674    c2.759,5.17,5.868,11.294,9.074,18.169c1.454,3.119,4.546,4.952,7.773,4.952c1.213,0,2.446-0.259,3.617-0.806    c4.29-2,6.146-7.1,4.146-11.39c-8.405-18.026-16.111-31.031-19.208-36.056c1.599-8.894,2.396-15.132,2.589-16.709    c2.512-14.814-1.544-26.586-5.467-37.973c-0.181-0.522-0.361-1.054-0.543-1.582c17.629-1.859,31.106-7.648,39.47-12.33    c2.148,2.672,4.993,4.852,8.299,6.333l-1.763,8.618c-0.949,4.638,2.042,9.167,6.68,10.115c0.579,0.119,1.157,0.176,1.727,0.176    c3.986,0,7.559-2.798,8.388-6.856l2.247-10.985c8.966-2.718,15.45-10.336,15.45-19.303c0-3.122-0.808-6.072-2.21-8.72    c9.018-17.932,22.704-53.668,33.005-91.666C415.155,123.43,417.493,89.723,408.336,74.032z M163.035,447.221    c-1.71-21.205-1.451-45.834,4.259-68.425c4.051,7.04,8.998,14.059,14.83,21.022C175.337,412.565,168.243,428.618,163.035,447.221z     M271.07,377.646c-6.393,24.894-14.454,43.921-23.512,55.622c-18.287-11.534-73.094-49.851-76.512-96.444    c5.843,4.552,13.434,9.552,22.63,13.707c10.838,4.897,25.016,9.065,41.886,9.065c12.361,0,26.168-2.244,41.157-8.074    C275.431,358.726,273.582,367.867,271.07,377.646z M285.207,282.061c-0.696-3.161-1.258-6.305-1.703-9.414    c5.786,1.946,13.078,4.126,21.123,5.895C299.037,280.217,292.529,281.543,285.207,282.061z M347.925,277.841    c-3.371,0-5.523-1.918-5.523-3.238s2.152-3.238,5.523-3.238c3.371,0,5.523,1.918,5.523,3.238S351.296,277.841,347.925,277.841z     M384.841,169.731c-8.458,31.201-19.736,62.177-28.213,80.96c0.269-14.714,1.078-41.045,3.518-68.762    c6.29-71.461,17.832-92.754,24.151-99.085c2.703-2.708,4.545-2.708,5.15-2.708c1.688,0,2.838,0.405,4.083,2.537    C399.907,93.597,396.658,126.143,384.841,169.731z"/>
	</g>
</g>
<g>
</g>
<g>
</g>
<g>
</g>
<g>
</g>
<g>
</g>
<g>
</g>
<g>
</g>
<g>
</g>
<g>
</g>
<g>
</g>
<g>
</g>
<g>
</g>
<g>
</g>
<g>
</g>
<g>
</g>
</svg>
