<?xml version="1.0" encoding="iso-8859-1"?>
<!-- Generator: Adobe Illustrator 19.0.0, SVG Export Plug-In . SVG Version: 6.00 Build 0)  -->
<svg xmlns="http://www.w3.org/2000/svg" xmlns:xlink="http://www.w3.org/1999/xlink" version="1.1" id="Layer_1" x="0px" y="0px" viewBox="0 0 511.998 511.998" style="enable-background:new 0 0 511.998 511.998;" xml:space="preserve">
<g>
	<g>
		<path d="M273.07,134.893c-4.49,0-8.128,3.639-8.128,8.127v11.242c0,4.489,3.638,8.127,8.128,8.127s8.127-3.639,8.127-8.127    v-11.242C281.198,138.532,277.56,134.893,273.07,134.893z"/>
	</g>
</g>
<g>
	<g>
		<path d="M220.213,169.712c-1.546-3.353-5.323-5.286-8.952-4.557c-3.46,0.721-6.127,3.609-6.499,7.133    c-0.359,3.395,1.532,6.716,4.609,8.179c3.172,1.507,7.083,0.755,9.458-1.837C221.027,176.232,221.573,172.662,220.213,169.712z"/>
	</g>
</g>
<g>
	<g>
		<path d="M270.373,278.469c-2.62-2.212-6.487-2.546-9.429-0.771c-2.98,1.797-4.531,5.401-3.738,8.8    c0.847,3.631,4.176,6.291,7.913,6.291C272.495,292.789,276.044,283.256,270.373,278.469z"/>
	</g>
</g>
<g>
	<g>
		<path d="M258.645,357.326c-2.412,3.194-2.113,7.823,0.73,10.648c4.988,5.022,13.89,1.335,13.872-5.743    C273.228,354.625,263.241,351.239,258.645,357.326z"/>
	</g>
</g>
<g>
	<g>
		<path d="M263.142,312.195c-4.123,1.022-6.855,5.285-5.988,9.463c1.318,7.039,10.908,8.781,14.767,2.859    C275.879,318.442,270.151,310.459,263.142,312.195z"/>
	</g>
</g>
<g>
	<g>
		<path d="M306.435,134.893c-4.49,0-8.127,3.639-8.127,8.127v11.242c0,4.489,3.638,8.127,8.127,8.127s8.127-3.639,8.127-8.127    v-11.242C314.563,138.532,310.925,134.893,306.435,134.893z"/>
	</g>
</g>
<g>
	<g>
		<path d="M394.132,367.209c0.104-0.518,0.159-1.053,0.159-1.603c0-18.878-3.041-35.775-9.04-50.337    c4.426-5.042,6.823-11.907,5.876-19.313c-1.403-10.98-10.269-19.765-21.259-21.082c-4.854-0.582-9.471,0.273-13.488,2.189    c-8.652-6.685-18.738-12.024-29.643-15.688c-2.621-8.99-7.523-17.013-14.042-23.398c13.198-3.204,23.03-15.114,23.03-29.283    V104.236c0-0.026-0.008-0.051-0.009-0.077c-0.019-1.985-0.756-3.938-2.161-5.452l-56.501-60.895V8.127    c0-4.489-3.639-8.127-8.127-8.127h-30.792c-4.489,0-8.127,3.639-8.127,8.127v22.74c-8.627-7.905-20.132-12.148-32.342-11.459    c-22.118,1.248-40.135,19.114-41.539,41.223c-0.937,14.752,5.316,28.636,16.824,37.666c0.188,0.147,0.39,0.257,0.586,0.385    l-0.025,0.027c-0.021,0.022-0.036,0.05-0.055,0.074c-1.31,1.442-2.114,3.353-2.114,5.454v104.456    c0,14.044,9.658,25.875,22.681,29.203c-7.086,6.911-12.277,15.748-14.717,25.661c-7.574,3.048-15.785,7.366-23.698,13.5    c-4.016-1.912-8.629-2.764-13.481-2.181c-10.987,1.32-19.851,10.105-21.253,21.082c-0.946,7.405,1.451,14.27,5.877,19.312    c-5.999,14.561-9.039,31.458-9.039,50.337c0,0.548,0.056,1.084,0.159,1.602c-3.591,4.771-5.482,10.893-4.755,17.456    c1.245,11.233,10.287,20.281,21.519,21.529c14.73,1.637,27.247-9.899,27.247-24.304c0-13.487-10.972-24.46-24.459-24.46    c-1.1,0-2.181,0.08-3.243,0.221c0.67-12.747,2.977-24.258,6.886-34.379c1.323,0.222,2.679,0.344,4.064,0.344    c13.487,0,24.46-10.972,24.46-24.46c0-3.752-0.851-7.307-2.367-10.487c3.481-2.544,7.024-4.691,10.516-6.5v31.218    c0,4.451,3.43,8.331,7.878,8.464c4.602,0.138,8.377-3.552,8.377-8.124v-37.301c0.245-0.323,0.469-0.62,0.715-0.943    c9.136-2.585,15.644-2.931,15.764-2.937c4.485-0.18,7.975-3.961,7.796-8.446c-0.18-4.485-3.939-7.957-8.446-7.796    c-0.463,0.018-4.576,0.216-10.831,1.428c6.495-11.282,18.668-18.901,32.594-18.901l14.934,0.005    c21.707,0,39.303,17.596,39.303,39.303v113.06h-34.755h-37.097h-8.139c-6.538,0-11.838-5.3-11.838-11.838v-40.372    c0-4.451-3.43-8.331-7.878-8.464c-4.602-0.138-8.377,3.552-8.377,8.124v40.711c0,15.516,12.578,28.093,28.093,28.093h0.011v96.419    c0,4.489,3.639,8.127,8.127,8.127l93.302-0.003c4.489,0,8.128-3.639,8.128-8.128v-11.244c0-12.189-8.049-22.534-19.111-25.999    v-24.487c0-4.489-3.639-8.128-8.128-8.128s-8.127,3.639-8.127,8.128l0.001,23.249h-20.84v-57.928h20.838v8.334    c0,4.451,3.43,8.331,7.878,8.464c4.602,0.138,8.377-3.552,8.377-8.124v-8.677h4.509c15.516,0,28.094-12.578,28.094-28.094v-99.76    c5.052,2.202,10.525,5.157,15.882,9.075c-1.513,3.178-2.363,6.732-2.363,10.48c0,13.487,10.972,24.46,24.459,24.46    c1.385,0,2.742-0.121,4.065-0.345c3.909,10.122,6.216,21.633,6.886,34.379c-1.062-0.141-2.143-0.221-3.243-0.221    c-14.408,0-25.948,12.523-24.304,27.256c1.252,11.221,10.287,20.256,21.509,21.507c14.733,1.644,27.256-9.895,27.256-24.304    C399.04,376.384,397.21,371.301,394.132,367.209z M137.425,373.682c4.524,0,8.204,3.681,8.204,8.205    c0,4.524-3.68,8.206-8.204,8.206c-4.525,0-8.206-3.68-8.206-8.206C129.22,377.363,132.9,373.682,137.425,373.682z     M145.131,307.359c-4.524,0-8.204-3.68-8.204-8.206s3.68-8.206,8.204-8.206c4.525,0,8.206,3.68,8.206,8.206    S149.657,307.359,145.131,307.359z M222.099,407.454h20.842v57.934h-20.842V407.454z M288.166,481.642    c6.056,0,10.982,4.926,10.982,10.982v3.118h-0.001h-20.84v-3.112c0-3.909-0.837-7.624-2.326-10.987H288.166z M262.052,492.63    v3.112h-10.976c-0.025,0-0.049,0.003-0.074,0.003h-28.902v-14.103h28.865c0.035,0,0.069,0.005,0.105,0.005    C257.125,481.648,262.052,486.574,262.052,492.63z M246.263,16.255H260.8v16.62h-14.537V16.255z M241.686,49.129h23.695    l43.589,46.979h-67.053c-4.49,0-8.127,3.639-8.127,8.127s3.638,8.129,8.127,8.129h77.552v74.801h-62.787    c-3.883,0-7.042-3.159-7.042-7.043v-13.948c0-17.25-14.033-31.283-31.284-31.283h-30.76v-22.528h27.633    c4.49,0,8.128-3.639,8.128-8.128s-3.638-8.127-8.128-8.127h-17.134L241.686,49.129z M182.986,85.51    c-6.797-5.335-10.696-13.346-10.696-21.982c0-15.404,12.537-27.937,27.949-27.937c8.681,0,16.67,3.939,21.942,10.664    l-37.769,40.707C184.004,86.433,183.534,85.941,182.986,85.51z M201.48,222.578v-0.001c-7.655,0-13.884-6.228-13.884-13.883    v-57.546h30.76c8.287,0,15.029,6.741,15.029,15.028v13.948c0,12.846,10.451,23.298,23.297,23.298h62.787v5.273    c0,7.655-6.228,13.883-13.884,13.883H201.48z M312.638,379.361c0,6.096-4.63,11.125-10.558,11.766V278.14    c0-14.224-5.379-27.213-14.202-37.05c14.429,5.257,24.761,19.111,24.761,35.336V379.361z M366.872,307.36    c-4.524,0-8.204-3.681-8.204-8.206c0-4.524,3.68-8.205,8.204-8.205s8.204,3.68,8.204,8.205    C375.077,303.68,371.397,307.36,366.872,307.36z M374.579,390.093c-4.525,0-8.206-3.68-8.206-8.206    c0-4.525,3.68-8.205,8.206-8.205c4.524,0,8.204,3.68,8.204,8.205C382.784,386.413,379.104,390.093,374.579,390.093z"/>
	</g>
</g>
<g>
</g>
<g>
</g>
<g>
</g>
<g>
</g>
<g>
</g>
<g>
</g>
<g>
</g>
<g>
</g>
<g>
</g>
<g>
</g>
<g>
</g>
<g>
</g>
<g>
</g>
<g>
</g>
<g>
</g>
</svg>
