<?xml version="1.0" encoding="iso-8859-1"?>
<!-- Generator: Adobe Illustrator 19.0.0, SVG Export Plug-In . SVG Version: 6.00 Build 0)  -->
<svg xmlns="http://www.w3.org/2000/svg" xmlns:xlink="http://www.w3.org/1999/xlink" version="1.1" id="Layer_1" x="0px" y="0px" viewBox="0 0 512 512" style="enable-background:new 0 0 512 512;" xml:space="preserve">
<path style="fill:#BC6D1E;" d="M249.288,282.639c17.337,31.996,84.869,57.795,139.475,51.587h0.011  c-2.838,19.219-11.767,38.725-30.402,55.35c-6.973,6.24-15.318,12.065-25.203,17.316v74.292v22.844h-34.037v-22.844v-58.539  c0,0-39.607,9.599-80.66,3.72c-8.355-1.201-16.753-3.03-24.906-5.719v61.536v21.844h-27.553v-21.844v-52.118  c0,0-9.418-1.828-21.781-6.622c-14-3.497-26.596-10.556-36.726-20.186c-16.902-16.03-27.011-39.139-25.554-64.587  c2.296-40.511,38.342-75.919,78.885-77.556c2.477-0.106,4.943-0.096,7.377,0.021c13.596,0.648,26.33,4.603,37.407,11.066  c4.22,2.456,8.206,5.272,11.895,8.398c8.238,6.984,20.048,8.461,29.562,3.359c0.446-0.244,0.872-0.489,1.297-0.744  C248.693,283.021,248.991,282.819,249.288,282.639z"/>
<g>
	<rect x="333.164" y="481.184" style="fill:#847E74;" width="25.417" height="22.839"/>
	<rect x="193.572" y="482.194" style="fill:#847E74;" width="24.902" height="21.839"/>
</g>
<g>
	<path style="fill:#A05818;" d="M218.472,426.362v55.825h-24.902V420.65C201.716,423.331,210.12,425.166,218.472,426.362z"/>
	<path style="fill:#A05818;" d="M358.583,389.809v91.379h-25.417v-74.293c9.889-5.259,18.23-11.085,25.211-17.322L358.583,389.809z"/>
</g>
<path style="fill:#52CBCE;" d="M168.215,261.136c-2.433-0.114-4.898-0.123-7.382-0.02c-10.249,0.412-20.2,2.98-29.398,7.259  c-27.201,12.601-47.762,40.029-49.484,70.292c-1.454,25.448,8.652,48.556,25.551,64.59l-1.433,1.34  c-14.889,30.212-56.61,31.45-56.61,31.45s27.025-22.798,6.888-76.448c-1.577-4.197-2.959-8.652-4.155-13.312  c-14.013-54.846-0.423-136.904,58.228-136.904C151.645,209.384,164.369,239.761,168.215,261.136z"/>
<g>
	<path style="fill:#A05818;" d="M204.386,423.692c63.168-9.372,94.742-38.781,94.742-38.781v37.729   C299.128,422.64,244.331,441.313,204.386,423.692z"/>
	<path style="fill:#A05818;" d="M118.04,348.326c0,56.713,47.969,81.738,47.969,81.738s-9.414-1.825-21.777-6.62   c-14.003-3.495-26.593-10.559-36.728-20.189c-16.9-16.034-27.005-39.141-25.551-64.59c2.299-40.503,38.347-75.912,78.881-77.552   c2.485-0.103,4.949-0.092,7.382,0.02C168.215,261.134,118.04,288.521,118.04,348.326z"/>
</g>
<path style="fill:#43B5B5;" d="M81.95,338.668c-1.454,25.448,8.652,48.556,25.551,64.59l-1.433,1.34  c-14.889,30.212-56.61,31.45-56.61,31.45s27.025-22.798,6.888-76.448c-1.577-4.197-2.959-8.652-4.155-13.312  c9.837-9.848,15.859-23.241,19.426-34.172c3.558-10.94,4.661-19.417,4.661-19.417c0.526-64.683,55.66-25.046,55.66-25.046  l-0.505,0.722C104.234,280.975,83.672,308.403,81.95,338.668z"/>
<path style="fill:#52CBCE;" d="M464.852,53.755c0,0-14.244,36.035-38.215,43.126c-2.615,0.787-5.347,1.212-8.185,1.212  c-28.871,0-44.337-22.684-44.337-22.684c-13.351,13.341-25.257,6.559-42.052,8.77c-3.306,0.425-6.803,1.212-10.545,2.572  c-22.684,8.249-37.12,45.368-37.12,45.368l-18.347-28.467v-0.011c-33.176-89.908,59.942-69.541,59.942-69.541l-0.021-0.053  c-0.468-1.127-7.824-19.633,16.179-24.629c24.746-5.156,64.438,3.604,82.488,21.653C442.678,49.11,464.852,53.755,464.852,53.755z"/>
<g>
	<path style="fill:#FFD0B8;" d="M388.774,334.225h-0.011c-23.046,2.615-48.387-0.457-71.284-7.303   c-31.379-9.365-58.167-25.788-68.191-44.284c12.458-7.643,42.094-73.017,50.109-89.801c8.791,6.941,18.868,12.299,29.838,15.668   l0.011,0.011c8.525,2.615,17.582,4.029,26.979,4.029c10.449,0,19.665-1.743,27.702-4.975c-0.138,0.563-0.308,1.127-0.478,1.701   c-7.728,26.288,3.71,86.868,3.71,86.868C389.784,308.033,390.709,321.066,388.774,334.225z"/>
	<path style="fill:#FFD0B8;" d="M428.402,120.777c0,40.234-13.542,74.409-44.476,86.793c-5.453,2.19-11.448,3.699-17.996,4.443   c-3.104,0.351-6.335,0.531-9.705,0.531c-12.48,0-24.364-2.487-35.206-7.005c-7.813-3.242-15.073-7.537-21.621-12.703   c-15.647-12.352-27.17-29.7-32.177-49.631c-2.541,2.126-5.538,3.348-8.738,3.348c-9.227,0-16.721-10.152-16.721-22.684   s7.494-22.684,16.721-22.684c2.721,0,5.283,0.893,7.568,2.456v0.011l18.347,28.467c0,0,14.435-37.12,37.12-45.368   c9.227-3.348,16.997-3.21,24.045-2.944c10.3,0.404,19.059,1.084,28.552-8.398c0,0,10.29,15.094,29.753,20.654   c4.401,1.254,9.269,2.03,14.584,2.03c2.838,0,5.57-0.425,8.185-1.212C427.828,104.503,428.402,112.507,428.402,120.777z"/>
</g>
<path style="fill:#E2B39F;" d="M317.479,326.923c-31.379-9.365-58.167-25.788-68.191-44.284  c12.458-7.643,42.094-73.017,50.109-89.801c8.791,6.941,18.868,12.299,29.838,15.668l0.011,0.011  C329.247,208.516,286.631,269.957,317.479,326.923z"/>
<path style="fill:#FCE0D4;" d="M428.402,120.777c0,40.234-13.542,74.409-44.476,86.793c-5.453,2.19-11.448,3.699-17.996,4.443  c54.032-33.994,37.938-115.951,37.938-115.951c4.401,1.254,9.269,2.03,14.584,2.03c2.838,0,5.57-0.425,8.185-1.212  C427.828,104.503,428.402,112.507,428.402,120.777z"/>
<path style="fill:#E2B39F;" d="M321.019,205.54c-7.813-3.242-15.073-7.537-21.621-12.703c-15.647-12.352-27.17-29.7-32.177-49.631  c-2.541,2.126-5.538,3.348-8.738,3.348c-9.227,0-16.721-10.152-16.721-22.684s7.494-22.684,16.721-22.684  c2.721,0,5.283,0.893,7.568,2.456v0.011l18.347,28.467c0,0,14.435-37.12,37.12-45.368c9.227-3.348,16.997-3.21,24.045-2.944  C345.564,83.806,283.06,141.994,321.019,205.54z"/>
<path style="fill:#43B5B5;" d="M332.064,84.178c-3.306,0.425-6.803,1.212-10.545,2.572c-22.684,8.249-37.12,45.368-37.12,45.368  l-18.347-28.467v-0.011c-33.176-89.908,59.942-69.541,59.942-69.541S303.714,64.375,332.064,84.178z"/>
<g>
	<rect x="166.009" y="482.194" style="fill:#847E74;" width="27.562" height="21.839"/>
	<rect x="299.127" y="481.184" style="fill:#847E74;" width="34.037" height="22.839"/>
</g>
<path d="M471.871,49.975c-1.114-2.07-3.084-3.542-5.384-4.023c-0.199-0.041-20.037-4.346-36.211-20.519  c-3.338-3.339-8.903-3.096-11.92,0.727c-2.515,3.187-2.075,7.841,0.803,10.703c12.068,12.006,25.724,18.537,34.599,21.816  c-5.8,11.026-16.508,26.748-29.416,30.565c-1.928,0.58-3.91,0.874-5.888,0.874c-24.105,0-37.226-18.449-37.751-19.203  c-0.009-0.013-0.019-0.023-0.028-0.036c-0.087-0.125-0.186-0.246-0.282-0.368c-0.084-0.107-0.162-0.219-0.251-0.321l-12.134-14.154  c-2.841-3.315-7.874-4.016-11.272-1.276c-3.515,2.836-3.97,7.993-1.052,11.397l6.848,7.988c-4.507,2.171-9.182,1.991-15.633,1.735  c-7.559-0.301-16.964-0.675-28.105,3.376c-16.376,5.956-28.565,23.84-35.442,36.519l-3.955-6.137  c-5.851-9.079-9.971-19.21-11.707-29.871c-2.09-12.83-0.341-22.535,5.249-28.972c11.518-13.266,38.834-11.305,50.032-9.175  l8.354,5.302c1.324,0.841,2.803,1.243,4.265,1.243c2.728,0,5.396-1.4,6.889-3.949c2.194-3.747,0.8-8.59-2.866-10.918l-6.84-4.341  c-0.324-1.644-0.488-4.007,0.562-5.987c1.765-3.324,6.653-4.962,10.443-5.752c14.557-3.033,35.861-0.569,53.126,6.128  c4.057,1.574,8.806-0.122,10.54-4.114c1.809-4.165-0.208-8.963-4.4-10.605c-20.279-7.949-44.818-10.702-62.517-7.017  c-10.502,2.187-17.703,6.942-21.405,14.135c-1.569,3.047-2.275,6.114-2.482,8.945c-14.898-1.424-41.143-1.115-55.708,15.615  c-10.595,12.169-12.749,30.065-6.467,53.298c-11.869,2.318-20.673,14.778-20.673,30.264c0,17.191,10.847,30.657,24.693,30.657  c1.264,0,2.515-0.116,3.745-0.343c5.554,15.57,15.007,29.672,27.348,40.782c-0.229,0.487-0.457,0.973-0.701,1.49  c-2.597,5.529-6.047,12.872-9.921,20.878c-16.435,0.929-35.742,5.144-41.173,19.217c-4.697,12.173,3.353,22.97,12.958,32.697  c-3.514,4.941-7.139,7.524-7.431,7.683c-6.517,3.496-14.812,2.526-20.639-2.416c-4.049-3.43-8.437-6.528-13.031-9.201  c-10.65-6.214-22.589-10.178-34.85-11.623c-4.084-16.876-13.54-36.718-35.208-46.496c-4.207-1.9-9.192,0.154-10.786,4.583  c-1.417,3.933,0.615,8.299,4.418,10.038c14.132,6.464,21.316,19.389,24.955,31.485c-8.264,0.571-16.411,2.383-24.233,5.349  c-16.124-13.802-34.834-15.222-52.003-3.737c-3.431,2.295-4.823,6.821-2.903,10.476c2.257,4.296,7.655,5.566,11.554,2.922  c9.207-6.246,18.341-6.78,27.258-1.649c-5.807,3.647-11.306,7.982-16.377,12.966c-16.493,16.211-26.248,37.018-27.471,58.586  c-1.395,24.363,7.187,47.828,23.258,65.848c-7.36,12.011-20.379,18.045-31.013,21.053c5.953-13.73,9.67-36.091-2.427-68.319  c-12.503-33.29-12.922-88.096,8.201-118.593c9.542-13.778,22.4-20.791,38.219-20.846c4.28-0.015,7.984-3.369,8.155-7.645  c0.182-4.552-3.454-8.3-7.966-8.3c-21.145,0-38.958,9.583-51.516,27.713C34.52,264.325,34.66,324.531,48.882,362.398  c17.689,47.126-3.716,66.798-4.566,67.553c-2.592,2.187-3.517,5.773-2.307,8.941c1.183,3.093,4.15,5.126,7.445,5.126  c0.08,0,0.158-0.001,0.239-0.003c1.761-0.052,40.457-1.538,59.467-29.004c18.845,13.776,45.301,20.376,48.878,21.335v67.682  c0,4.403,3.57,7.972,7.972,7.972h27.553c0.001,0,0.001,0,0.001,0c0.001,0,0.002,0,0.003,0h24.903c4.403,0,7.972-3.57,7.972-7.972  v-68.703c26.764,2.514,51.537-0.649,64.715-2.953v71.656c0,4.403,3.57,7.972,7.972,7.972h59.453c4.403,0,7.972-3.57,7.972-7.972  V392.854c16.693-15.937,26.822-35.247,30.104-57.468c0.15-1.024,0.258-2.056,0.378-3.086c1.57,1.719,3.722,2.596,5.885,2.596  c1.938,0,3.884-0.704,5.423-2.131c3.197-2.969,3.269-8.065,0.367-11.322c-1.861-2.089-3.596-4.414-5.157-6.913  c-3.256-5.208-1.521-8.549,16.228-20.638c13.262-9.033,28.292-19.272,28.292-35.974c0-27.679-40.488-33.375-58.936-34.532  c0.296-3.716,0.772-7.116,1.475-10.044c14.904-6.987,26.449-18.829,34.337-35.275c7.579-15.802,11.422-35.077,11.422-57.288  c0-6.478-0.347-12.778-1.023-18.815c23.326-11.531,36.327-43.789,36.913-45.276C473.131,54.501,472.985,52.045,471.871,49.975z   M252.658,242.291c1.117-2.895,6.458-6.294,17.918-8.015c-1.607,3.168-3.235,6.319-4.859,9.396  c-2.344,4.438-4.441,8.259-6.319,11.563C254.789,250.233,251.447,245.426,252.658,242.291z M273.913,296.849  c0,0.222-0.005,0.433-0.014,0.637c-5.925-4.358-10.785-8.951-14.312-13.604c0.858-1.001,1.763-2.138,2.729-3.436  C268.271,286.299,273.913,292.565,273.913,296.849z M173.986,496.055v-5.894h11.608v5.894H173.986z M201.539,496.055v-5.894h8.962  v5.894H201.539z M201.539,474.216v-43.003c2.912,0.714,5.907,1.346,8.962,1.911v41.092L201.539,474.216L201.539,474.216z   M307.105,489.161h18.092v6.895h-18.092V489.161z M341.141,496.055v-6.895h9.471v6.895H341.141z M350.613,473.216h-9.471v-61.616  c3.292-1.883,6.449-3.857,9.471-5.911V473.216z M353.057,383.634c-6.689,5.986-14.638,11.442-23.628,16.216  c-2.604,1.384-4.232,4.091-4.232,7.041v66.324h-18.092v-88.307c0-4.403-3.568-7.972-7.972-7.972c-4.404,0-7.972,3.57-7.972,7.972  v31.241c-12.337,2.303-41.673,6.602-71.553,2.324c-7.954-1.144-15.448-2.822-22.296-4.995c-1.117-0.595-2.392-0.932-3.745-0.932  c-4.404,0-7.972,3.57-7.972,7.972v53.697h-11.608v-44.151c0-3.811-2.705-7.09-6.445-7.825c-0.088-0.017-31.408-5.717-54.548-24.769  c-16.946-13.952-24.338-36.372-23.081-58.352c2.068-36.49,34.695-68.565,71.266-70.041c2.189-0.094,4.429-0.087,6.656,0.019  c11.862,0.565,23.54,4.02,33.777,9.994c3.797,2.209,7.415,4.762,10.749,7.588c9.507,8.061,22.658,10.347,34.07,6.249  c2.866,3.894,6.354,7.679,10.4,11.317c-2.5,0.95-4.467,3.129-5.005,5.95c-0.827,4.325,2.008,8.501,6.332,9.328  c0.601,0.115,3.107,0.552,6.485,0.552c3.325,0,7.494-0.432,11.52-2.001c10.043,5.819,21.705,10.948,34.627,15.124  c0.815,0.264,1.641,0.388,2.454,0.388c3.364,0,6.493-2.148,7.584-5.522c1.353-4.189-0.945-8.684-5.134-10.038  c-10.029-3.241-19.34-7.2-27.556-11.617c1.035-2.595,1.72-5.741,1.72-9.558c0-11.265-9.126-20.865-18.726-30.069  c4.752-8.128,10.542-19.009,17.779-33.616c6.938,0.065,12.025,0.566,12.204,0.584c4.375,0.454,8.296-2.734,8.747-7.112  c0.451-4.38-2.733-8.297-7.114-8.747c-1.34-0.138-3.482-0.331-6.16-0.49c1.901-3.963,3.888-8.148,5.962-12.553  c16.001,10.272,34.363,15.674,53.675,15.674c6.06,0,11.852-0.566,17.351-1.651c-3.302,30.196,5.326,76.521,5.747,78.752  c0.016,0.08,0.032,0.159,0.049,0.239c2.181,9.878,2.892,19.602,2.179,28.996c-11.488,0.765-23.69,0.17-36.382-1.811  c-4.355-0.68-8.427,2.298-9.106,6.647c-0.679,4.351,2.297,8.427,6.648,9.107c9.975,1.557,19.709,2.338,29.107,2.338  c2.351,0,4.675-0.064,6.984-0.162C374.562,358.491,365.942,372.137,353.057,383.634z M432.131,257.917  c0,8.27-10.84,15.655-21.325,22.796c-5.969,4.066-11.654,7.963-16.101,12.397c-2.055-11.333-5.339-33.921-5.877-53.742  C406.357,240.655,432.131,245.899,432.131,257.917z M380.953,200.173c-7.259,2.919-15.578,4.399-24.727,4.399  c-19.031,0-36.974-6.222-51.888-17.993c-14.479-11.429-24.914-27.523-29.384-45.315c-0.67-2.662-2.661-4.793-5.271-5.64  c-2.61-0.847-5.474-0.292-7.578,1.469c-1.181,0.989-2.399,1.489-3.621,1.489c-4.13,0-8.748-6.292-8.748-14.712  s4.62-14.712,8.748-14.712c0.638,0,1.27,0.153,1.911,0.432l17.303,26.848c1.477,2.292,4.009,3.653,6.699,3.653  c0.267,0,0.536-0.014,0.805-0.04c2.982-0.302,5.542-2.249,6.628-5.043c3.651-9.388,16.59-35.012,32.413-40.766  c8.194-2.979,14.909-2.712,22.023-2.429c8.287,0.33,17.466,0.695,26.837-5.345c7.608,7.762,22.891,19.595,45.35,19.595  c0.423,0,0.845-0.032,1.268-0.047c0.454,4.758,0.709,9.682,0.709,14.759C420.43,176.107,395.703,194.268,380.953,200.173z"/>
<path d="M364.836,315.389c3.835,0,7.175-2.856,7.848-6.614c0.608-3.393-1.168-6.906-4.236-8.462  c-2.921-1.481-6.542-1.005-8.972,1.193C354.182,306.291,357.71,315.389,364.836,315.389z"/>
<path d="M366.617,129.025V115.62c0-4.403-3.568-7.972-7.972-7.972c-4.404,0-7.972,3.57-7.972,7.972v13.404  c0,4.403,3.568,7.972,7.972,7.972C363.049,136.997,366.617,133.429,366.617,129.025z"/>
<path d="M392.672,107.648c-4.404,0-7.972,3.57-7.972,7.972v13.404c0,4.403,3.568,7.972,7.972,7.972c4.404,0,7.972-3.57,7.972-7.972  V115.62C400.645,111.217,397.076,107.648,392.672,107.648z"/>
<path d="M384.364,155.726c-2.107,2.108-4.91,3.269-7.893,3.269c-2.982,0-5.784-1.161-7.892-3.269c-3.113-3.112-8.162-3.114-11.274,0  c-3.115,3.113-3.115,8.162-0.001,11.275c5.119,5.119,11.928,7.939,19.167,7.939c7.241,0,14.048-2.82,19.168-7.939  c3.113-3.113,3.113-8.162-0.001-11.275C392.526,152.612,387.478,152.612,384.364,155.726z"/>
<g>
</g>
<g>
</g>
<g>
</g>
<g>
</g>
<g>
</g>
<g>
</g>
<g>
</g>
<g>
</g>
<g>
</g>
<g>
</g>
<g>
</g>
<g>
</g>
<g>
</g>
<g>
</g>
<g>
</g>
</svg>
