<?xml version="1.0" encoding="iso-8859-1"?>
<!-- Generator: Adobe Illustrator 19.0.0, SVG Export Plug-In . SVG Version: 6.00 Build 0)  -->
<svg xmlns="http://www.w3.org/2000/svg" xmlns:xlink="http://www.w3.org/1999/xlink" version="1.1" id="Layer_1" x="0px" y="0px" viewBox="0 0 511.999 511.999" style="enable-background:new 0 0 511.999 511.999;" xml:space="preserve">
<path style="fill:#F9D780;" d="M501.82,377.075c-12.642,53.749-64.715,73.899-110.054,65.392  c-18.98-3.555-36.788-12.127-50.032-25.371c-15.542-15.542-31.182-38.206-39.968-64.919c-1.547-4.694-3.716-9.033-6.412-12.943  c75.779,94.898,149.549,42.159,155.811,37.401c0.172-0.129,0.29-0.226,0.365-0.279c4.436-3.287,8.432-7.175,11.901-11.536  c19.356-24.35,22.137-63.33-7.154-92.621C456.277,272.198,515.901,317.225,501.82,377.075z"/>
<path style="fill:#F4516D;" d="M450.993,376.763c-7.325,5.499-80.494,56.574-155.639-37.53  c-10.451-15.209-28.657-23.878-47.723-21.353c-17.465,2.309-32.041,13.555-39.012,29.098c-1.697,3.749-2.943,7.744-3.673,11.933  c-0.859,4.876-1.966,10.032-3.394,15.317h-0.011c-96.241,78.002-135.65,10.827-136.423,9.484  c9.914,15.177,28.346,22.879,50.784,11.944c12.599-6.133,18.84-19.431,21.063-37.068c6.412-50.516-20.086-136.606-24.286-191.708  C105.59,73.756,185.192,58.664,238.007,60.018c19.108,0.494,34.705,3.147,41.429,5.027  c120.827,33.835,76.101,178.174,76.101,178.174s-18.99,59.001-1.912,101.815c5.983,15.038,16.434,28.077,33.716,35.865  c5.661,2.546,12.052,4.533,19.259,5.843C423.452,389.803,438.844,385.539,450.993,376.763z"/>
<path style="fill:#F77C96;" d="M257.812,65.045c120.827,33.835,76.101,178.174,76.101,178.174s-18.99,59.001-1.912,101.815  c5.983,15.038,16.434,28.077,33.716,35.865c5.661,2.546,12.052,4.533,19.259,5.843c7.296,1.325,14.318,1.273,20.923,0.079  c-0.172-0.03-0.342-0.048-0.514-0.079c-7.207-1.31-13.598-3.298-19.259-5.843c-17.283-7.787-27.734-20.827-33.716-35.865  c-17.078-42.814,1.912-101.815,1.912-101.815S399.047,98.879,278.22,65.045c-6.724-1.88-22.32-4.533-41.429-5.027  c-5.215-0.133-10.694-0.103-16.322,0.143C237.697,60.895,251.575,63.301,257.812,65.045z"/>
<path style="fill:#F9D780;" d="M409.929,303.487c25.779,64.447-22.589,77.411-22.589,77.411  c-17.283-7.787-27.734-20.827-33.716-35.865C408.157,354.873,409.929,303.487,409.929,303.487z"/>
<path style="fill:#BF984B;" d="M295.353,339.234c2.696,3.91,4.866,8.249,6.412,12.943c8.786,26.713,24.425,49.377,39.968,64.919  c-48.367,35.038-88.41-38.174-88.41-38.174c-2.664,18.314-9.474,37.573-25.446,47.014c-35.446,20.945-63.351,7.873-63.351,7.873  c20.483-15.499,31.321-38.539,37.014-59.581h0.011c1.429-5.285,2.535-10.44,3.394-15.317c3.792-21.536,21.01-38.163,42.685-41.031  C266.696,315.356,284.902,324.024,295.353,339.234z"/>
<path style="fill:#F9D780;" d="M201.54,374.228c-5.693,21.042-16.531,44.082-37.014,59.581  c-14.554,11.02-33.985,18.238-59.903,18.238c-7.691,0-14.995-0.677-21.89-1.966c-61.02-11.267-89.882-69.001-66.724-112.427  c10.129-18.99,24.984-28.786,39.291-33.663c22.105-7.551,42.879-3.394,42.879-3.394c-22.288,9.119-34.479,24.662-38.947,40.816  v0.011c-1.278,4.619-1.923,9.27-1.987,13.845c-0.161,10.462,2.675,20.462,7.863,28.421  C65.106,383.691,104.333,453.015,201.54,374.228z"/>
<path style="fill:#D84161;" d="M238.007,60.018v0.011c0,0-122.9,64.629-50.408,230.569c8.872,20.29,15.757,39.065,21.02,56.38  c-1.697,3.749-2.943,7.744-3.673,11.933c-0.859,4.876-1.966,10.032-3.394,15.317h-0.011c-96.241,78.002-135.65,10.827-136.423,9.484  c9.914,15.177,28.346,22.879,50.784,11.944c12.599-6.133,18.84-19.431,21.063-37.068c6.412-50.516-20.086-136.606-24.286-191.708  C105.59,73.756,185.192,58.664,238.007,60.018z"/>
<g>
	<path style="fill:#DBB561;" d="M82.733,450.082c-61.02-11.267-89.882-69.001-66.724-112.427   c10.129-18.99,24.984-28.786,39.291-33.663c22.105-7.551,42.879-3.394,42.879-3.394c-22.288,9.119-34.479,24.662-38.947,40.816   v0.011c-1.278,4.619-1.923,9.27-1.987,13.845C57.244,355.27,39.102,406.441,82.733,450.082z"/>
	<path style="fill:#DBB561;" d="M463.431,364.819c0,0-5.929,68.206-71.643,77.648c-0.011,0-0.011,0-0.021,0   c-18.98-3.555-36.788-12.127-50.032-25.371c-15.542-15.542-31.182-38.206-39.968-64.919c-1.547-4.694-3.716-9.033-6.412-12.943   c75.779,94.898,149.549,42.159,155.811,37.401c0.172-0.129,0.29-0.226,0.365-0.279C455.966,373.068,459.961,369.18,463.431,364.819   z"/>
</g>
<path style="fill:#D84161;" d="M136.965,358.589c-2.223,17.637-8.464,30.934-21.063,37.068  c-22.449,10.934-40.892,3.222-50.795-11.966c-7.454-11.439-10.064-27.121-5.875-42.266  C74.118,387.021,135.891,359.073,136.965,358.589z"/>
<path style="fill:#F9D780;" d="M16.009,337.655c-8.861-101.16,70.902-84.909,70.902-84.909  c-12.696,12.696-28.045,28.045-31.611,51.246C40.993,308.868,26.138,318.664,16.009,337.655z"/>
<path d="M490.924,297.567c-13.716-19.551-29.142-31.306-29.792-31.797c-3.378-2.551-8.154-2.052-10.932,1.141  c-2.778,3.193-2.612,7.991,0.38,10.985c13.798,13.798,20.664,31.236,19.333,49.104c-1.27,17.058-9.932,33.088-23.174,42.88  c-0.013,0.01-0.025,0.021-0.038,0.031c-0.066,0.049-0.133,0.095-0.197,0.146c-0.024,0.018-0.048,0.038-0.074,0.058l-0.052,0.04  c-7.866,5.709-20.889,11.829-38.337,8.663c-0.185-0.033-0.365-0.073-0.549-0.107c4.512-3.802,9.027-8.915,12.429-15.708  c8.296-16.569,7.451-37.599-2.511-62.505c-1.41-3.526-5.091-5.574-8.837-4.933c-3.743,0.639-6.533,3.822-6.693,7.617  c-0.009,0.183-0.917,18.368-13.332,28.305c-7.046,5.639-16.792,7.741-28.994,6.29c-12.987-39.207,3.479-91.551,3.677-92.17  c0.953-3.075,22.985-75.971-7.815-132.534c-14.971-27.492-39.803-46.26-73.81-55.782c-14.955-4.186-58.604-9.692-98.078,0.004  c-4.32,1.061-6.962,5.424-5.902,9.745c1.062,4.321,5.43,6.965,9.745,5.901c36.013-8.846,76.812-3.797,89.89-0.136  c29.631,8.298,51.151,24.415,63.968,47.905c23.705,43.452,11.681,100.512,7.735,116.013c-9.345,1.977-16.219-1.818-27.383-8.648  c-10.212-6.247-22.919-14.021-41.278-15.822c-25.957-2.543-45.662,12.87-60.043,24.127c-5.81,4.548-13.041,10.206-15.931,10.206  c-8.31,0-11.429-12.851-11.479-13.063c-0.982-4.321-5.273-7.044-9.603-6.078c-4.343,0.965-7.082,5.269-6.116,9.611  c0.14,0.628,1.467,6.31,5.018,12.12c5.329,8.72,13.205,13.522,22.179,13.522c8.446,0,16.131-6.015,25.861-13.631  c12.919-10.112,28.996-22.694,48.541-20.779c14.677,1.439,24.725,7.586,34.44,13.531c9.417,5.76,19.073,11.661,31.294,11.546  c-4.798,20.393-11.541,61.525,1.671,94.65c6.953,17.474,18.525,30.426,34.426,38.56c-23.345-3.468-50.779-17.185-78.809-52.232  c-12.506-17.939-33.606-27.301-55.183-24.446c-25.217,3.336-45.135,22.474-49.563,47.62c-0.727,4.13-1.6,8.179-2.588,12.088  c-28.866,22.969-54.716,34.445-77.039,34.229c0.681-0.303,1.361-0.599,2.041-0.93c14.189-6.907,22.779-21.476,25.53-43.296  c4.102-32.313-4.455-77.15-12.73-120.513c-5.106-26.759-9.93-52.034-11.515-72.822c-2.94-38.61,9.774-66.266,37.791-82.199  c3.868-2.2,5.22-7.117,3.02-10.985c-2.2-3.868-7.117-5.22-10.985-3.02c-15.691,8.923-27.592,21.039-35.374,36.01  c-8.794,16.918-12.332,37.582-10.518,61.419c1.654,21.692,6.56,47.4,11.754,74.618c7.636,40.012,15.51,81.308,13.044,110.872  c-12.233,4.675-33.437,9.812-47.69,3.516c-6.519-2.881-11.122-7.896-14.031-15.275c4.852-14.55,16.65-26.274,33.506-33.17  c3.289-1.346,5.307-4.686,4.968-8.223c-0.338-3.537-2.954-6.434-6.438-7.131c-0.749-0.149-15.142-2.928-33.098,0.145  c5.658-14.107,16.306-24.76,25.945-34.401c2.098-2.097,2.872-5.177,2.018-8.017c-0.854-2.84-3.2-4.982-6.106-5.574  c-1.396-0.284-34.486-6.724-58.397,14.613c-17.489,15.606-24.989,41.357-22.32,76.548c-11.713,23.752-10.179,51.997,4.252,76.051  c18.047,30.078,52.654,48.037,92.572,48.037c23.82,0,44.362-5.812,61.141-17.273c4.418,1.38,11.748,3.076,21.133,3.076  c12.207,0,27.876-2.87,45.079-13.035c11.541-6.822,19.914-18.235,25.035-34.004c10.037,13.031,26.508,29.932,47.024,34.556  c3.661,0.825,7.299,1.236,10.909,1.236c8.84,0,17.511-2.473,25.924-7.388c18.795,16.235,44.516,25.174,70.897,25.174  c8.859,0,17.796-1.009,26.565-3.086c4.329-1.026,7.006-5.366,5.981-9.696c-1.026-4.329-5.359-7.009-9.696-5.982  c-22.753,5.391-47.421,2.161-67.184-7.932c0.162-0.392,0.296-0.799,0.395-1.221c1.698-7.267-6.938-12.682-12.784-8.176  c-0.364,0.28-0.691,0.582-0.986,0.898c-2.337-1.831-4.556-3.78-6.628-5.852c-6.619-6.619-16.932-18.33-26.058-34.629  c26.917,21.023,52.213,26.795,71.835,26.794c2.299,0,4.522-0.079,6.657-0.222c30.749-2.054,52.189-17.265,56.146-20.274l0.307-0.236  c0.001,0,0.001-0.001,0.002-0.001c0.002-0.002,0.005-0.004,0.008-0.005c0.012-0.009,0.024-0.018,0.035-0.027  c0.014-0.011,0.029-0.025,0.044-0.035c16.91-12.548,27.964-32.938,29.575-54.569c0.187-2.508,0.247-5.009,0.186-7.494  c8.304,16.161,11.316,32.309,9.001,48.222c-2.634-2.697-7.055-3.622-10.569-1.014c-2.708,2.01-3.882,5.576-2.912,8.805  c1.006,3.351,4.203,5.723,7.706,5.723c0.936,0,1.843-0.17,2.693-0.478c-6.111,18.986-18.319,33.918-35.656,43.421  c-3.902,2.139-5.331,7.034-3.193,10.937c1.465,2.673,4.225,4.186,7.072,4.186c1.308,0,2.636-0.32,3.865-0.994  c23.46-12.858,39.189-33.809,45.489-60.589C515.959,352.149,509.48,324.018,490.924,297.567z M367.584,354.325  c12.32-0.142,22.769-3.597,31.168-10.373c4.407-3.555,7.806-7.694,10.425-11.936c0.886,9.054-0.299,16.933-3.561,23.564  c-0.216,0.438-0.438,0.865-0.667,1.283c-2.467-2.175-6.182-2.942-9.441-1.004c-3.145,1.869-4.605,5.755-3.566,9.245  c0.414,1.391,1.222,2.596,2.259,3.549c-2.463,1.693-4.741,2.823-6.393,3.523C379.546,367.914,372.783,361.94,367.584,354.325z   M75.243,371.236c7.118,3.145,14.894,4.314,22.52,4.314c10.385,0,20.487-2.168,28.276-4.461  c-2.884,8.565-7.405,14.278-13.665,17.325c-16.43,8.002-31.576,4.592-40.518-9.121c-2.602-3.992-4.437-8.539-5.497-13.35  C69.038,368.035,71.999,369.803,75.243,371.236z M40.754,271.571c8.593-7.716,19.217-10.541,27.933-11.393  c-8.799,10.064-16.961,22.185-20.446,37.867c-9.382,3.8-17.591,9.134-24.576,15.954c0.605-9.038,2.197-16.986,4.781-23.807  c1.367,1.346,3.229,2.223,5.456,2.223c3.805,0,7.147-2.771,7.895-6.488c0.65-3.231-0.818-6.611-3.592-8.375  c-0.684-0.436-1.427-0.742-2.193-0.946C37.471,274.783,39.048,273.103,40.754,271.571z M129.551,441.242  c-2.334-3.83-7.837-5.528-11.918-2.336c-1.499,1.173-2.466,2.848-2.851,4.651c-3.302,0.279-6.682,0.435-10.16,0.435  c-8.375,0-16.461-0.907-24.124-2.637c2.344-1.047,4.15-3.19,4.683-5.793c1.489-7.27-7.308-12.461-13.011-7.799  c-2.654,2.17-3.637,5.925-2.4,9.12c0.244,0.628,0.581,1.204,0.965,1.741c-19.244-6.462-35.073-18.517-44.87-34.846  c-11.932-19.886-12.96-43.188-2.75-62.332c7.774-14.577,19.477-24.612,34.787-29.83c4.278-1.462,8.521-2.436,12.541-3.066  c-9.206,8.481-15.713,18.911-18.979,30.716l0.003,0.001c-0.001,0.003-0.002,0.006-0.003,0.01  c-4.604,16.646-2.113,34.696,6.643,48.406c0.704,1.237,14.641,25.07,45.706,30.959c4.604,0.873,9.314,1.308,14.132,1.308  c20.401,0,42.697-7.823,66.621-23.351c-6.432,12.794-14.756,23.107-24.905,30.787C150.999,433.947,140.918,438.566,129.551,441.242z   M307.616,417.714c-22.988-5.156-41.115-32.548-45.947-40.49c0.626-4.976,1.032-10.189,1.179-15.566  c0.122-4.447-3.383-8.151-7.831-8.274c-4.433-0.12-8.153,3.383-8.275,7.831c-0.159,5.783-0.626,11.347-1.391,16.549  c-3.008,20.68-10.266,34.555-21.571,41.237c-17.357,10.257-32.465,11.522-42.58,10.572c12.713-13.52,22.124-31.255,28.035-52.959  c0.029-0.096,0.066-0.187,0.092-0.284c1.388-5.135,2.583-10.526,3.551-16.023c3.203-18.191,17.593-32.032,35.809-34.441  c15.668-2.072,31.002,4.797,40.033,17.94c2.294,3.328,4.108,6.991,5.393,10.887c9.05,27.516,23.841,48.033,34.904,60.606  C321.968,418.552,314.903,419.349,307.616,417.714z"/>
<path d="M31.899,365.664c-2.822-1.516-6.39-1.157-8.874,0.852c-5.773,4.669-2.329,14.309,5.079,14.309  c3.828,0,7.202-2.816,7.912-6.566C36.665,370.836,34.964,367.31,31.899,365.664z"/>
<path d="M40.596,400.48c-5.549,4.758-2.097,14.18,5.231,14.18c3.803,0,7.147-2.773,7.895-6.488  C55.197,400.848,46.272,395.613,40.596,400.48z"/>
<path d="M464.619,409.395c1.112-7.287-7.824-12.059-13.298-7.22c-5.445,4.812-1.902,14.097,5.333,14.097  C460.61,416.271,464.025,413.286,464.619,409.395z"/>
<path d="M406.432,416.485c-5.73,4.681-2.291,14.287,5.108,14.287c3.709,0,7.002-2.646,7.843-6.243  C421.101,417.194,412.251,411.731,406.432,416.485z"/>
<path d="M227.512,385.401c-3.046-2.008-7.162-1.731-9.878,0.729c-5.346,4.845-1.801,14.029,5.409,14.029  c3.77,0,7.1-2.73,7.881-6.404C231.601,390.583,230.225,387.187,227.512,385.401z"/>
<path d="M235.404,343.407c-2.939-1.865-6.892-1.582-9.534,0.683c-5.552,4.76-2.092,14.18,5.231,14.18  c3.791,0,7.159-2.763,7.905-6.477C239.656,348.556,238.179,345.168,235.404,343.407z"/>
<path d="M277.544,366.545c-2.54,2.093-3.567,5.617-2.534,8.747c1.075,3.26,4.209,5.534,7.649,5.534c3.814,0,7.134-2.772,7.896-6.488  C292.039,367.082,283.237,361.851,277.544,366.545z"/>
<path d="M235.858,158.931c-4.347,0.945-7.105,5.235-6.16,9.583l3.995,18.378c0.821,3.771,4.157,6.346,7.865,6.346  c0.567,0,1.143-0.06,1.72-0.186c4.347-0.945,7.105-5.235,6.16-9.583l-3.995-18.378C244.496,160.744,240.206,157.986,235.858,158.931  z"/>
<path d="M292.825,164.693l-0.962,21.168c-0.202,4.445,3.237,8.212,7.681,8.414c0.125,0.005,0.248,0.009,0.373,0.009  c4.28,0,7.845-3.371,8.041-7.691l0.962-21.168c0.202-4.445-3.237-8.212-7.681-8.414C296.795,156.812,293.028,160.25,292.825,164.693  z"/>
<path d="M254.516,147.77c1.32-4.249-1.053-8.764-5.302-10.084c-4.895-1.522-9.165-4.083-12.694-7.61  c-7.162-7.162-14.526-10.107-21.893-8.758c-11.085,2.033-16.362,13.115-16.928,14.373c-1.825,4.058-0.029,8.858,4.028,10.683  c4.057,1.824,8.812,0.046,10.637-4.011c0.693-1.467,2.962-4.813,5.193-5.202c1.774-0.308,4.526,1.264,7.569,4.307  c5.394,5.394,11.888,9.298,19.303,11.603c0.797,0.247,1.602,0.365,2.394,0.365C250.259,153.436,253.442,151.222,254.516,147.77z"/>
<path d="M309.969,132.864c2.227,0.387,4.492,3.72,5.189,5.192c1.844,4.02,6.588,5.806,10.627,3.988  c4.057-1.825,5.868-6.593,4.043-10.651c-0.565-1.257-5.842-12.339-16.927-14.373c-7.366-1.353-14.733,1.596-21.895,8.758  c-3.527,3.527-7.798,6.088-12.693,7.61c-4.248,1.32-6.622,5.836-5.302,10.084c1.073,3.452,4.256,5.667,7.691,5.666  c0.792,0,1.597-0.118,2.394-0.365c7.415-2.305,13.91-6.209,19.304-11.603C305.443,134.128,308.201,132.557,309.969,132.864z"/>
<g>
</g>
<g>
</g>
<g>
</g>
<g>
</g>
<g>
</g>
<g>
</g>
<g>
</g>
<g>
</g>
<g>
</g>
<g>
</g>
<g>
</g>
<g>
</g>
<g>
</g>
<g>
</g>
<g>
</g>
</svg>
