<?xml version="1.0" encoding="iso-8859-1"?>
<!-- Generator: Adobe Illustrator 19.0.0, SVG Export Plug-In . SVG Version: 6.00 Build 0)  -->
<svg xmlns="http://www.w3.org/2000/svg" xmlns:xlink="http://www.w3.org/1999/xlink" version="1.1" id="Layer_1" x="0px" y="0px" viewBox="0 0 512.005 512.005" style="enable-background:new 0 0 512.005 512.005;" xml:space="preserve">
<path style="fill:#43B5B5;" d="M149.428,171.286c-19.739,35.755-48.048,63.008-105.32,40.657  C44.107,211.942,64.902,159.849,149.428,171.286z"/>
<path style="fill:#52CBCE;" d="M419.776,117.881c0,0-31.843-21.618-56.739-58.251c0,0-35.199,45.402-120.014,51.593  c-2.134,3.901-4.001,7.969-5.602,12.17c-2.045,5.357-3.623,10.937-4.713,16.694c-2.456-1.701-5.235-2.656-8.169-2.656  c-9.947,0-18.016,10.948-18.016,24.452c0,13.504,8.069,24.452,18.016,24.452c3.457,0,6.68-1.323,9.425-3.612  c1.845,7.336,4.501,14.36,7.88,20.94c-8.403,10.525-17.072,19.072-25.852,25.908c-19.083-11.959-38.289-29.631-46.225-54.627  c0,0,0.156,35.711,20.262,70.088c-73.111,31.254-145.921-33.088-145.921-33.088c57.273,22.351,85.581-4.901,105.32-40.657  c11.681-21.129,20.362-45.236,30.276-63.819c11.748-22.029,29.331-46.447,52.26-65.52v-0.011  c29.109-24.229,66.842-39.867,112.234-31.165C425.334,26.331,419.776,117.881,419.776,117.881z"/>
<path style="fill:#FFD0B8;" d="M407.694,158.548c0,44.347-15.26,81.88-50.237,94.439c-8.114,2.912-17.283,4.479-27.564,4.479  c-15.249,0-29.687-3.445-42.579-9.614c-7.358-3.512-14.215-7.902-20.428-13.048c-10.314-8.536-18.872-19.128-25.041-31.143  c-3.379-6.58-6.035-13.604-7.88-20.94c-2.745,2.29-5.968,3.612-9.425,3.612c-9.947,0-18.017-10.948-18.017-24.452  c0-13.504,8.069-24.452,18.016-24.452c2.934,0,5.713,0.956,8.169,2.656c1.934-10.27,5.468-19.984,10.314-28.864  c15.905-1.167,28.898-3.701,39.512-7.058c46.003-14.56,80.502-44.536,80.502-44.536c24.896,36.633,27.447,41.751,41.012,55.317  l-1.4,2.934C406.06,130.284,407.694,144.055,407.694,158.548z"/>
<path style="fill:#FCE0D4;" d="M387.553,96.821L387.553,96.821c-2.198,12.186-2.312,24.641-0.499,36.891  c1.174,7.937,1.746,16.26,1.746,24.836c0,44.347-15.26,81.88-50.237,94.439c-5.575,2.001-11.66,3.349-18.25,4.008  c3.154,0.303,6.347,0.471,9.581,0.471c10.281,0,19.45-1.567,27.564-4.479c34.977-12.559,50.237-50.093,50.237-94.439  c0-14.493-1.634-28.264-5.046-40.668l-2.579-10.201"/>
<path style="fill:#52CBCE;" d="M353.034,281.852c4.001,2.601,6.013,6.858,5.424,13.426c-0.345,3.79-1.689,7.236-3.757,10.125  c-1.034,1.434-2.234,2.734-3.59,3.835c-4.035,3.368-9.347,5.179-14.982,4.668c-11.303-1.011-19.65-11.003-18.639-22.318  c1.023-11.314,12.682-14.093,23.996-13.082C346.22,278.94,350.143,279.963,353.034,281.852z"/>
<g>
	<path style="fill:#FFD0B8;" d="M465.278,215.265c-0.356,1.412-23.663,92.372-114.279,100.052c0.011-2.056,0.056-4.079,0.111-6.08   c1.356-1.1,2.556-2.401,3.59-3.835c2.067-2.89,3.412-6.335,3.757-10.125c0.589-6.569-1.423-10.825-5.424-13.426   c0.645-5.868,1.356-11.048,2.012-15.349C355.045,266.503,434.147,266.37,465.278,215.265z"/>
	<path style="fill:#FFD0B8;" d="M341.485,278.507c4.735,0.433,8.658,1.456,11.548,3.345c0.645-5.868,1.356-11.048,2.012-15.349   c1.3-8.48,2.412-13.515,2.412-13.515c-8.114,2.912-17.283,4.479-27.564,4.479c-15.249,0-29.687-3.445-42.579-9.614   c0,0-0.011-0.011-0.044-0.022c-7.336-3.501-14.182-7.891-20.384-13.026c-1.167,8.636-10.07,13.949-18.217,10.859   c-9.025-3.412-20.817-8.647-32.676-16.094c-2.979-1.867-5.968-3.879-8.914-6.035c-15.894-11.626-30.62-27.497-37.311-48.592   c0,0,0.156,35.711,20.262,70.088c4.568,7.802,10.147,15.538,16.994,22.773c9.981,10.525,22.618,19.995,38.634,27.053   c-3.612,15.082-8.014,30.32-12.259,43.88l0.033,0.011l36.444,15.293c6.791,2.845,14.56,1.99,20.573-2.267l12.859-9.136   c7.191-5.102,16.783-5.246,24.129-0.367l26.808,17.828c-2.59-15.171-3.401-30.565-3.245-44.78c0.011-2.056,0.056-4.079,0.111-6.08   c-4.035,3.368-9.347,5.179-14.982,4.668c-11.303-1.011-19.65-11.003-18.639-22.318   C318.512,280.274,330.171,277.495,341.485,278.507z M296.772,295.278c-0.345,3.79-1.689,7.236-3.757,10.125   c-4.112,5.724-11.048,9.181-18.572,8.503c-2.879-0.256-5.579-1.1-7.969-2.401c-6.98-3.79-11.426-11.492-10.67-19.917   c0.767-8.458,7.469-12.137,15.527-13.037c2.723-0.311,5.613-0.3,8.469-0.044C291.104,279.529,297.784,283.964,296.772,295.278z"/>
</g>
<path style="fill:#5AE090;" d="M360.814,386.272H217.438v-0.978c0,0,7.68-20.073,15.96-46.558l0.033,0.011l36.444,15.293  c6.791,2.845,14.56,1.99,20.573-2.267l12.859-9.136c7.191-5.102,16.783-5.246,24.129-0.367l26.808,17.828  C355.767,369,357.901,377.825,360.814,386.272z"/>
<path style="fill:#E2B39F;" d="M287.314,247.853c0,0-9.803,9.069-15.983,30.698c-2.523,8.814-4.446,19.717-4.857,32.954  c-0.378,12.159,0.522,26.275,3.401,42.535l-36.444-15.293l-0.033-0.011c4.246-13.56,8.647-28.798,12.259-43.88  c-16.016-7.058-28.653-16.527-38.634-27.053c3.768-13.048,5.202-28.464,0.056-44.269c2.945,2.156,5.935,4.168,8.914,6.035  c11.859,7.447,23.652,12.682,32.676,16.094c8.147,3.09,17.05-2.223,18.217-10.859c6.202,5.135,13.048,9.525,20.384,13.026  C287.302,247.842,287.314,247.853,287.314,247.853z"/>
<g>
	<path style="fill:#26BC62;" d="M393.823,415.625c0,0.6-0.022,1.2-0.056,1.789c-8.647-3.801-15.582-8.391-32.376-8.391   c-28.609,0-28.609,13.337-57.217,13.337c-28.609,0-28.609-13.337-57.217-13.337c-18.228,0-24.841,5.413-34.633,9.336   c-5.579,2.245-12.204,4.001-22.596,4.001c-16.805,0-23.74-4.601-32.399-8.403c0.867-15.427,13.66-27.686,29.309-27.686H364.47   c8.102,0,15.449,3.29,20.762,8.603C390.533,400.188,393.823,407.523,393.823,415.625z"/>
	<path style="fill:#26BC62;" d="M186.64,444.968h-24.785c-11.292,0-21.084,6.369-25.986,15.705c0,0-16.105-7.936-30.354-21.818   c-16.316-15.883-30.198-39.545-14.782-68.009c28.898-53.349-21.117-107.81-21.117-107.81s73.3,35.622,54.461,105.587   c-2.779,10.325-1.978,18.928,1.4,26.097c5.413,11.492,17.461,19.306,32.043,24.585c0.822,6.635,3.879,12.582,8.369,17.072   C171.201,441.689,178.537,444.968,186.64,444.968z"/>
</g>
<path style="fill:#E2B39F;" d="M287.314,247.853c-7.358-3.512-14.215-7.902-20.428-13.048  c-10.314-8.536-18.872-19.128-25.041-31.143c-3.379-6.58-6.035-13.604-7.88-20.94c-2.745,2.29-5.968,3.612-9.425,3.612  c-9.947,0-18.017-10.948-18.017-24.452c0-13.504,8.069-24.452,18.016-24.452c2.934,0,5.713,0.956,8.169,2.656  c1.934-10.27,5.468-19.984,10.314-28.864c15.905-1.167,28.898-3.701,39.512-7.058C282.535,104.166,237.166,158.204,287.314,247.853z  "/>
<path style="fill:#5AE090;" d="M417.842,480.978c-3.012,13.004-14.66,22.685-28.575,22.685H161.855  c-8.102,0-15.449-3.29-20.762-8.591c-5.302-5.313-8.591-12.648-8.591-20.751c0-2.29,0.267-4.524,0.767-6.658  c27.853,0.233,28.108,13.326,56.461,13.326c1.845,0,3.579-0.056,5.202-0.156c23.529-1.512,25.252-13.182,52.027-13.182  c28.609,0,28.609,13.337,57.217,13.337c28.609,0,28.609-13.337,57.217-13.337C389.745,467.652,390.001,480.745,417.842,480.978z"/>
<path style="fill:#52CBCE;" d="M279.801,278.507c11.303,1.023,17.983,5.457,16.972,16.772c-0.345,3.79-1.689,7.236-3.757,10.125  c-4.112,5.724-11.048,9.181-18.572,8.503c-11.303-1.011-19.65-11.003-18.639-22.318  C256.828,280.274,268.486,277.495,279.801,278.507z"/>
<path style="fill:#5AE090;" d="M393.767,417.415c-0.922,15.371-13.682,27.553-29.298,27.553H186.639  c-8.102,0-15.438-3.279-20.751-8.591c-4.49-4.49-7.547-10.436-8.369-17.072c-0.156-1.2-0.233-2.434-0.233-3.679  c0-0.556,0.011-1.111,0.044-1.667c8.658,3.801,15.594,8.403,32.399,8.403c10.392,0,17.016-1.756,22.596-4.001  c9.792-3.923,16.405-9.336,34.633-9.336c28.609,0,28.609,13.337,57.217,13.337c28.609,0,28.609-13.337,57.217-13.337  C378.185,409.023,385.122,413.614,393.767,417.415z"/>
<path style="fill:#43B5B5;" d="M241.844,203.662c-8.403,10.525-17.072,19.072-25.852,25.908  c-19.083-11.959-38.289-29.631-46.225-54.627c0,0,0.156,35.711,20.262,70.088c-73.111,31.254-145.921-33.088-145.921-33.088  c57.273,22.351,85.581-4.901,105.32-40.657c11.681-21.129,20.362-45.236,30.276-63.819c11.748-22.029,29.331-46.447,52.26-65.52  c0,0-17.916,40.723,5.457,81.447c-2.045,5.357-3.623,10.937-4.713,16.694c-2.456-1.701-5.235-2.656-8.169-2.656  c-9.947,0-18.017,10.948-18.017,24.452c0,13.504,8.069,24.452,18.016,24.452c3.457,0,6.68-1.323,9.425-3.612  C235.81,190.058,238.465,197.082,241.844,203.662z"/>
<g>
	<path style="fill:#26BC62;" d="M418.609,474.321c0,2.29-0.267,4.524-0.767,6.658c-27.842-0.233-28.097-13.326-56.45-13.326   c-28.609,0-28.609,13.337-57.217,13.337s-28.609-13.337-57.217-13.337c-26.775,0-28.497,11.67-52.027,13.182   c-1.623,0.1-3.357,0.156-5.202,0.156c-28.353,0-28.609-13.093-56.461-13.326c0.567-2.467,1.445-4.813,2.601-6.991   c4.901-9.336,14.693-15.705,25.986-15.705h227.413c8.102,0,15.438,3.279,20.751,8.591   C415.319,458.872,418.609,466.207,418.609,474.321z"/>
	<path style="fill:#26BC62;" d="M228.552,444.968H186.64c-8.102,0-15.438-3.279-20.751-8.591c-4.49-4.49-7.547-10.436-8.369-17.072   c-0.156-1.2-0.233-2.434-0.233-3.679c0-0.556,0.011-1.111,0.044-1.667c0.867-15.427,13.66-27.686,29.309-27.686h41.913   c0,0-17.628,13.615-16.227,32.087C212.947,426.529,217.304,435.654,228.552,444.968z"/>
</g>
<g>
	<path style="fill:#97EFBB;" d="M386.277,413.958c-0.867-15.427-13.66-27.686-29.309-27.686h-13.337   c15.649,0,28.442,12.259,29.309,27.686c0.033,0.556,0.044,1.111,0.044,1.667c0,1.245-0.078,2.479-0.233,3.679   c-0.822,6.635-3.879,12.582-8.369,17.072c-5.313,5.313-12.648,8.591-20.751,8.591h13.337c8.102,0,15.438-3.279,20.751-8.591   c4.49-4.49,7.547-10.436,8.369-17.072c0.156-1.2,0.233-2.434,0.233-3.679C386.322,415.07,386.31,414.514,386.277,413.958z"/>
	<path style="fill:#97EFBB;" d="M412.302,472.52c-0.867-15.427-13.66-27.686-29.309-27.686h-13.337   c15.649,0,28.442,12.259,29.309,27.686c0.033,0.556,0.044,1.111,0.044,1.667c0,1.245-0.078,2.479-0.233,3.679   c-0.822,6.635-3.879,12.582-8.369,17.072c-5.313,5.313-12.648,8.591-20.751,8.591h13.337c8.102,0,15.438-3.279,20.751-8.591   c4.49-4.49,7.547-10.436,8.369-17.072c0.156-1.2,0.233-2.434,0.233-3.679C412.346,473.632,412.335,473.076,412.302,472.52z"/>
</g>
<g>
	<path style="fill:#1EA856;" d="M212.324,418.36c-5.579,2.245-12.204,4.001-22.596,4.001c-16.805,0-23.74-4.601-32.399-8.403   c0.867-15.427,13.66-27.686,29.309-27.686h41.913C228.552,386.272,210.925,399.887,212.324,418.36z"/>
	<path style="fill:#1EA856;" d="M186.64,444.968h-24.785c-11.292,0-21.084,6.369-25.986,15.705c0,0-16.105-7.936-30.354-21.818   c22.918-15.104,22.329-34.177,19.962-44.135c5.413,11.492,17.461,19.306,32.043,24.585c0.822,6.635,3.879,12.582,8.369,17.072   C171.201,441.689,178.537,444.968,186.64,444.968z"/>
</g>
<g>
	<path style="fill:#26BC62;" d="M270.232,386.272h-52.794v-0.978c0,0,7.68-20.073,15.96-46.558l0.033,0.011l36.444,15.293   L270.232,386.272z"/>
	<path style="fill:#26BC62;" d="M194.931,480.834c1.345,6.947,4.746,14.638,11.392,22.829h-44.469   c-8.102,0-15.449-3.29-20.762-8.591c-5.302-5.313-8.591-12.648-8.591-20.751c0-2.29,0.267-4.524,0.767-6.658   c0.567-2.467,1.445-4.813,2.601-6.991c4.901-9.336,14.693-15.705,25.986-15.705h44.469   C206.324,444.968,190.751,459.316,194.931,480.834z"/>
</g>
<path style="fill:#1EA856;" d="M194.931,480.834c-1.623,0.1-3.357,0.156-5.202,0.156c-28.353,0-28.609-13.093-56.461-13.326  c0.567-2.467,1.445-4.813,2.601-6.991c4.901-9.336,14.693-15.705,25.986-15.705h44.469  C206.324,444.968,190.751,459.316,194.931,480.834z"/>
<path style="fill:#4D4D4D;" d="M318.297,188.579c0,16.779,13.603,30.381,30.381,30.381c16.779,0,30.381-13.603,30.381-30.381  L318.297,188.579L318.297,188.579z"/>
<path style="fill:#FFFFFF;" d="M379.063,188.58c0,5.679-1.556,11.003-4.279,15.549h-52.205c-2.723-4.546-4.279-9.87-4.279-15.549  H379.063z"/>
<path d="M320.84,162.281c4.605,0,8.336-3.732,8.336-8.336V133.94c0-4.604-3.731-8.336-8.336-8.336c-4.605,0-8.336,3.732-8.336,8.336  v20.005C312.504,158.548,316.235,162.281,320.84,162.281z"/>
<path d="M377.52,162.281c4.605,0,8.336-3.732,8.336-8.336V133.94c0-4.604-3.731-8.336-8.336-8.336c-4.605,0-8.336,3.732-8.336,8.336  v20.005C369.185,158.548,372.916,162.281,377.52,162.281z"/>
<path d="M348.676,227.302c13.567,0,26.315-7.243,33.259-18.89c3.574-5.966,5.464-12.825,5.464-19.833  c0-4.604-3.731-8.336-8.336-8.336H318.3c-4.605,0-8.336,3.732-8.336,8.336c0,7.007,1.889,13.865,5.452,19.811  C322.357,220.056,335.102,227.302,348.676,227.302z M369.098,196.916c-0.415,1.015-0.906,1.998-1.472,2.944  c-4.022,6.744-11.106,10.771-18.949,10.771c-7.846,0-14.922-4.023-18.946-10.785c-0.562-0.939-1.051-1.919-1.464-2.93H369.098z"/>
<path d="M465.1,176.391c-3.938-3.94-10.842-3.111-13.537,2.486c-1.513,3.14-0.68,6.865,1.781,9.334  c4.346,4.36,5.891,9.047,6.191,13.081l-1.867-1.268c-3.777-2.565-9.047-1.892-11.724,1.807c-2.77,3.827-1.812,9.155,2.067,11.788  l5.651,3.837c-22.344,28.909-63.56,37.296-84.954,39.724c29.522-14.984,46.534-49.091,47.283-95.432  c5.066-6.327,8.623-15.301,10.584-26.748c1.44-8.401,1.533-15.435,1.536-16.902c0.144-2.886,0.956-25.761-7.838-50.707  c-12.493-35.444-38.257-57.853-74.506-64.805c-30.047-5.762-59.13-1.882-86.448,11.536c-4.126,2.026-6.166,6.975-4.235,11.147  c1.977,4.271,7.071,6.05,11.262,3.977c24.088-11.911,49.75-15.372,76.279-10.284c0.019,0.003,0.038,0.007,0.056,0.011  c3.691,0.71,6.887,3.023,8.787,6.265c8.975,15.305,5.538,26.997,4.395,29.98c-2.196,2.543-10.65,11.699-26.202,21.292  c-16.811,10.368-45.593,23.365-87.235,26.405c-6.081,0.436-12.492,0.66-19.057,0.668c-4.547,0.004-8.507,3.518-8.653,8.062  c-0.151,4.729,3.637,8.61,8.331,8.61c2.247,0,4.471-0.033,6.683-0.081c-1.138,2.968-2.148,5.981-3.016,9.038  c-0.722-0.073-1.449-0.11-2.177-0.11c-14.777,0-26.352,14.402-26.352,32.788s11.576,32.788,26.352,32.788  c1.42,0,2.825-0.138,4.206-0.408c0.98,2.781,2.087,5.511,3.291,8.191c-5.316,6.266-10.872,11.876-16.592,16.778  c-17.261-11.81-29.199-25.582-35.603-41.053l6.96-4.725c3.508-2.382,4.923-7.024,3.001-10.803c-2.325-4.569-8.027-5.935-12.13-3.15  l-2.156,1.464c0.299-4.046,1.853-8.742,6.216-13.107c2.342-2.343,3.231-5.848,1.933-8.897c-1.42-3.334-4.266-5.087-7.203-5.306  c3.552-7.981,7.002-15.524,10.599-22.267c8.84-16.576,28.254-47.658,59.064-69.898c3.678-2.654,4.836-7.806,2.314-11.576  c-2.634-3.939-7.984-4.881-11.798-2.14c-33.697,24.223-54.744,57.868-64.29,75.766c-4.704,8.817-9.014,18.558-13.576,28.871  c-4.412,9.972-8.958,20.229-14.009,29.921c-25.129-2.63-58.394-1.021-84.632,18.275c-17.483,12.857-23.518,27.619-23.767,28.242  l0.002,0.001c-1.287,3.221-0.453,6.974,2.22,9.336c0.782,0.691,19.486,17.077,47.673,29.632  c21.007,9.357,41.725,14.051,61.482,14.051c13.476,0,26.503-2.194,38.868-6.572c12.546,19.144,29.082,33.976,49.32,44.181  c-2.885,11.383-6.403,23.717-10.489,36.768c-5.868,18.77-11.48,34.415-14.158,41.688h-24.646c-17.742,0-32.753,12.317-36.68,29.01  c-21.423-11.228-20.648-25.714-17.834-36.156c8.476-31.478,0.857-61.491-22.033-86.79c-16.861-18.636-36.025-28.068-36.833-28.461  c-3.601-1.749-7.939-0.692-10.329,2.519c-2.392,3.211-2.163,7.669,0.545,10.618c0.46,0.501,45.695,50.631,19.928,98.202  c-8.159,15.063-9.855,30.365-5.043,45.479c8.404,26.391,34.651,44.66,47.14,52.093c-0.118,0.437-0.246,0.871-0.347,1.313  c-0.656,2.794-0.988,5.675-0.988,8.56c0,10.053,3.916,19.514,11.04,26.651c7.124,7.111,16.589,11.028,26.65,11.028h227.411  c17.631,0,32.721-11.982,36.693-29.121c0.655-2.795,0.986-5.674,0.986-8.557c0-10.06-3.916-19.524-11.033-26.656  c-5.648-5.648-12.778-9.273-20.514-10.53c3.842-5.503,6.263-12.08,6.692-19.22c0.001-0.013,0.002-0.026,0.002-0.039  c0.041-0.74,0.069-1.495,0.069-2.25c0-10.053-3.916-19.514-11.033-26.645c-6.54-6.54-15.058-10.372-24.203-10.957  c-1.801-6.046-3.298-12.522-4.462-19.329c-1.886-11.051-2.919-23.11-3.103-35.945c22.776-3.161,43.271-11.65,61.004-25.326  c3.375-2.603,4.492-7.364,2.303-11.021c-2.622-4.378-8.374-5.365-12.279-2.339c-13.508,10.468-28.912,17.463-45.925,20.913  c1.23-2.829,2.017-5.85,2.298-8.954c0.749-8.34-1.736-13.87-4.929-17.497c0.162-1.328,0.318-2.653,0.493-3.978  c14.642-0.957,48.437-5.062,77.071-22.621c-3.435,5.337-7.448,10.814-12.106,16.14c-3.026,3.461-2.963,8.812,0.436,11.907  c1.602,1.458,3.61,2.174,5.611,2.174c2.314,0,4.616-0.958,6.264-2.832c23.376-26.594,32.185-56.215,33.572-61.289  C475.061,213.539,482.125,193.414,465.1,176.391z M251.075,307.524c4.51,8.041,12.772,13.803,22.621,14.684  c0.857,0.077,1.711,0.116,2.563,0.116c9.239,0,18.081-4.476,23.527-12.056c0.003-0.004,0.007-0.009,0.01-0.013  c1.697-2.372,3.005-4.989,3.916-7.745l6.479-1.154c3.197,11.152,12.969,19.759,25.185,20.852c0.891,0.081,1.778,0.121,2.662,0.121  c1.564,0,3.11-0.138,4.631-0.386c0.079,7.269,0.427,14.318,1.024,21.126l-11.644-7.742c-10.146-6.74-23.634-6.533-33.569,0.515  l-12.847,9.128c-3.687,2.61-8.374,3.126-12.532,1.384l-29.516-12.386C246.379,324.753,248.886,315.907,251.075,307.524z   M264.108,292.339c0.43-4.763,6.581-5.696,11.33-5.696c1.38,0,2.643,0.079,3.612,0.166c10.029,0.907,9.76,3.917,9.421,7.717  c-0.2,2.206-0.949,4.231-2.228,6.021c-2.562,3.56-6.704,5.452-11.054,5.057C268.477,305.002,263.507,299.048,264.108,292.339z   M350.156,294.525c-0.2,2.208-0.951,4.237-2.217,6.005c-0.63,0.876-1.33,1.628-2.08,2.236c-0.029,0.023-0.059,0.048-0.088,0.072  c-2.49,2.078-5.654,3.063-8.898,2.765c-6.71-0.6-11.68-6.554-11.08-13.265c0.43-4.764,6.583-5.696,11.329-5.696  c1.377,0,2.639,0.079,3.604,0.164c4.474,0.41,6.681,1.325,7.763,2.033C349.209,289.308,350.546,290.177,350.156,294.525z   M404.382,72.454c4.377,12.234,6.102,24.108,6.757,32.573c-10.422-6.023-26.473-19.015-39.078-45.724  c1.737-5.517,3.729-16.13-0.317-29.284C386.665,39.316,397.6,53.498,404.382,72.454z M228.626,176.32  c-1.335,1.114-2.71,1.678-4.087,1.678c-4.579,0-9.681-6.619-9.681-16.116s5.102-16.116,9.681-16.116c1.147,0,2.3,0.395,3.424,1.174  c2.322,1.607,5.298,1.929,7.911,0.858c2.612-1.073,4.504-3.394,5.025-6.169c1.469-7.798,3.972-15.341,7.436-22.491  c61.601-5.618,97.221-31.135,112.464-45.162c10.072,18.627,21.751,30.771,31.911,38.607l1.857,7.34  c0.014,0.057,0.029,0.112,0.044,0.168c3.15,11.45,4.747,24.388,4.747,38.457c0,61.373-28.017,80.597-44.716,86.594  c-7.377,2.647-15.702,3.989-24.75,3.989c-21.031,0-41.52-7.369-57.693-20.748c-9.568-7.919-17.287-17.516-22.94-28.529  c-3.11-6.055-5.535-12.504-7.211-19.166c-0.699-2.78-2.779-5.006-5.505-5.893C233.818,173.908,230.826,174.484,228.626,176.32z   M240.602,217.946c4.627,6.957,10.035,13.331,16.187,19.057c-0.24,0.198-0.471,0.353-0.666,0.47  c-0.804,0.479-2.459,1.169-4.506,0.393c-5.523-2.088-13.074-5.265-21.239-9.61C233.861,225.046,237.272,221.605,240.602,217.946z   M56.436,207.43c8.578-11.607,30.748-32.1,79.067-29.147c-8.862,13.485-18.061,22.416-28.436,27.689  C93.024,213.108,76.388,213.595,56.436,207.43z M93.463,232.777c-3.253-1.439-6.377-2.941-9.353-4.466  c38.477-0.961,59.416-29.089,72.613-52.994c0.975-1.764,1.922-3.547,2.854-5.337c0.562,2.888,1.324,5.214,1.897,6.72  c0.267,7.111,2.244,34.823,16.691,63.869C152.402,248.869,123.959,246.266,93.463,232.777z M197.224,240.821  c-4.749-8.121-8.32-16.363-11.004-24.137c7.144,7.181,15.6,13.841,25.341,19.945c12.952,8.134,25.725,13.642,34.154,16.828  c6.27,2.378,13.173,1.774,18.938-1.659c1.999-1.19,3.759-2.669,5.25-4.362c17.632,11.892,38.57,18.367,59.991,18.367  c5.922,0,11.615-0.504,17.055-1.47c-0.047,0.303-0.094,0.6-0.142,0.913c-0.276,1.804-0.522,3.632-0.774,5.456  c-1.214-0.203-2.471-0.376-3.803-0.498c-15.986-1.43-27.443,3.884-31.517,14.125l-6.624,1.18  c-2.227-7.047-8.385-13.933-23.544-15.305c-17.249-1.544-29.23,4.765-32.346,16.643  C226.544,277.105,209.392,261.632,197.224,240.821z M238.575,349.946l28.077,11.782c9.504,3.981,20.199,2.803,28.623-3.161  l12.853-9.133c4.348-3.084,10.253-3.172,14.691-0.225l23.853,15.863c0.839,4.425,1.817,8.716,2.916,12.863H229.023  C231.477,371.101,234.891,361.32,238.575,349.946z M94.231,407.249c-3.413-10.763-2.16-21.372,3.831-32.433  c12.319-22.742,13.22-48.969,2.683-76.144c16.784,20.323,21.927,43.108,15.281,67.783c-4.08,15.142-1.875,28.407,6.555,39.426  c6.057,7.918,15.36,14.478,27.672,19.544c1.13,4.182,2.985,8.159,5.466,11.726c-8.743,1.43-16.645,5.877-22.381,12.537  C122.514,443.122,100.742,427.776,94.231,407.249z M410.157,472.138c-7.083-0.93-11.602-3.031-16.635-5.377  c-7.489-3.49-15.978-7.446-32.13-7.446c-4.605,0-8.336,3.732-8.336,8.336s3.731,8.336,8.336,8.336  c12.458,0,18.312,2.728,25.089,5.885c5.048,2.352,10.559,4.919,18.568,6.341c-3.875,4.414-9.538,7.113-15.783,7.113H161.855  c-5.614,0-10.895-2.186-14.861-6.144c-3.45-3.457-5.548-7.897-6.041-12.68c7.089,0.93,11.611,3.032,16.647,5.378  c7.49,3.489,15.979,7.444,32.13,7.444c1.949,0,3.872-0.058,5.735-0.172c12.516-0.805,19.889-4.241,26.392-7.274  c6.78-3.161,12.634-5.891,25.101-5.891c12.456,0,18.309,2.729,25.085,5.888c7.489,3.492,15.979,7.449,32.131,7.449  c16.151,0,24.641-3.958,32.131-7.449c1.748-0.815,3.401-1.585,5.122-2.293c4.257-1.752,6.289-6.623,4.537-10.881  c-1.751-4.257-6.619-6.29-10.88-4.538c-2.075,0.854-3.981,1.743-5.823,2.601c-6.778,3.16-12.629,5.888-25.086,5.888  c-12.457,0-18.31-2.729-25.086-5.888c-7.489-3.492-15.978-7.449-32.13-7.449c-16.163,0-24.655,3.959-32.146,7.452  c-5.92,2.76-11.032,5.144-20.395,5.745c-1.503,0.092-3.08,0.14-4.688,0.14c-12.457,0-18.312-2.728-25.089-5.885  c-5.045-2.351-10.552-4.915-18.55-6.336c3.933-4.478,9.628-7.129,15.764-7.129h24.785H364.47h24.796  c5.615,0,10.891,2.184,14.85,6.143C407.567,462.904,409.667,467.349,410.157,472.138z M381.495,403.336  c-5.229-1.548-11.598-2.65-20.103-2.65c-16.152,0-24.642,3.958-32.131,7.449c-6.778,3.16-12.629,5.888-25.086,5.888  c-12.457,0-18.284-2.717-25.033-5.864c-4.17-1.945-9.13-0.14-11.078,4.032c-1.945,4.172-0.14,9.133,4.033,11.078  c7.464,3.48,15.926,7.424,32.077,7.424s24.642-3.958,32.131-7.449c6.778-3.16,12.629-5.888,25.086-5.888  c11.166,0,17.028,2.192,22.999,4.922c-2.796,8.365-10.699,14.351-19.92,14.351H186.64c-5.614,0-10.89-2.184-14.856-6.15  c-0.749-0.749-1.429-1.558-2.053-2.405c5.209,1.533,11.551,2.62,19.999,2.62c12.644,0,20.381-2.461,25.697-4.599  c2.321-0.93,4.42-1.908,6.451-2.854c6.774-3.158,12.625-5.884,25.081-5.884c4.605,0,8.336-3.732,8.336-8.336  s-3.731-8.336-8.336-8.336c-16.15,0-24.636,3.955-32.123,7.444c-1.911,0.89-3.714,1.731-5.622,2.495  c-4.177,1.681-9.757,3.399-19.484,3.399c-11.196,0-17.06-2.206-23.05-4.947c2.762-8.43,10.684-14.47,19.959-14.47h177.831  c5.615,0,10.894,2.188,14.861,6.155C380.133,401.566,380.841,402.435,381.495,403.336z"/>
<g>
</g>
<g>
</g>
<g>
</g>
<g>
</g>
<g>
</g>
<g>
</g>
<g>
</g>
<g>
</g>
<g>
</g>
<g>
</g>
<g>
</g>
<g>
</g>
<g>
</g>
<g>
</g>
<g>
</g>
</svg>
