<?xml version="1.0" encoding="iso-8859-1"?>
<!-- Generator: Adobe Illustrator 19.0.0, SVG Export Plug-In . SVG Version: 6.00 Build 0)  -->
<svg xmlns="http://www.w3.org/2000/svg" xmlns:xlink="http://www.w3.org/1999/xlink" version="1.1" id="Layer_1" x="0px" y="0px" viewBox="0 0 512.002 512.002" style="enable-background:new 0 0 512.002 512.002;" xml:space="preserve">
<rect x="209.182" y="59.484" style="fill:#E6E6E6;" width="147.426" height="172.569"/>
<rect x="337.845" y="59.484" style="fill:#F2F2F2;" width="18.755" height="172.569"/>
<rect x="153.525" y="59.484" style="fill:#CCCCCC;" width="55.657" height="172.569"/>
<rect x="192.854" y="232.052" style="fill:#E6E6E6;" width="129.217" height="153.72"/>
<rect x="192.854" y="232.052" style="fill:#CCCCCC;" width="35.199" height="153.72"/>
<rect x="284.373" y="232.052" style="fill:#F2F2F2;" width="17.599" height="153.72"/>
<rect x="192.854" y="232.052" style="fill:#CCCCCC;" width="129.217" height="29.383"/>
<path style="fill:#666666;" d="M356.603,195.292h-95.24c-7.69,0-13.924-6.234-13.924-13.924l0,0c0-7.69,6.234-13.924,13.924-13.924  h95.24"/>
<circle style="fill:#F4516D;" cx="264.154" cy="21.52" r="13.367"/>
<path d="M255.237,138.837c4.504,0,8.153-3.65,8.153-8.153v-12.253c0-4.503-3.649-8.153-8.153-8.153c-4.504,0-8.153,3.65-8.153,8.153  v12.253C247.084,135.186,250.733,138.837,255.237,138.837z"/>
<path d="M327.641,138.837c4.504,0,8.153-3.65,8.153-8.153v-12.253c0-4.503-3.649-8.153-8.153-8.153c-4.504,0-8.153,3.65-8.153,8.153  v12.253C319.488,135.186,323.138,138.837,327.641,138.837z"/>
<path d="M330.225,266.462v-26.258h26.378c4.504,0,8.153-3.65,8.153-8.153V59.484c0-4.503-3.649-8.153-8.153-8.153h-84.302v-9.907  c7.832-3.22,13.366-10.925,13.366-19.905C285.668,9.654,276.014,0,264.149,0c-11.866,0-21.52,9.654-21.52,21.519  c0,8.981,5.534,16.685,13.367,19.906v9.906h-46.812h-55.657c-4.504,0-8.153,3.65-8.153,8.153v172.567  c0,4.503,3.649,8.153,8.153,8.153h31.179v30.571c-1.458,1.437-2.919,2.973-4.37,4.62c-25.799,29.273-28.814,69.827-26.8,98.692  c0.299,4.299,3.88,7.587,8.125,7.587c0.191,0,0.384-0.007,0.576-0.021c4.492-0.314,7.879-4.209,7.565-8.701  c-2.149-30.805,3.004-56.789,14.905-76.069v88.889c0,4.503,3.649,8.153,8.153,8.153h24.701c6.083,15.981,22.84,68.682-4.386,105.036  c-1.85,2.471-2.147,5.775-0.765,8.535s4.204,4.505,7.291,4.505h21.165c4.504,0,8.153-3.65,8.153-8.153  c0-4.503-3.649-8.153-8.153-8.153h-6.603c9.683-19.394,12.638-43.265,8.536-69.972c-1.98-12.886-5.21-24.031-7.872-31.797h48.252  c6.083,15.981,22.84,68.682-4.386,105.036c-1.85,2.471-2.147,5.775-0.765,8.535s4.204,4.505,7.291,4.505h21.165  c4.504,0,8.153-3.65,8.153-8.153c0-4.503-3.649-8.153-8.153-8.153h-6.603c9.683-19.394,12.638-43.265,8.536-69.972  c-1.98-12.886-5.21-24.031-7.872-31.797h21.536c4.504,0,8.153-3.65,8.153-8.153v-35.992c0-4.503-3.649-8.153-8.153-8.153  c-4.504,0-8.153,3.65-8.153,8.153v27.839H201.011V278.02c9.364-7.69,17.318-10.229,17.558-10.304  c4.297-1.274,6.763-5.783,5.508-10.093c-1.257-4.323-5.782-6.808-10.105-5.55c-0.392,0.114-5.671,1.701-12.962,6.049v-17.916h8.174  h104.736v86.746c0,4.503,3.649,8.153,8.153,8.153c4.504,0,8.153-3.65,8.153-8.153v-36.981c12.39,15.95,22.481,41.709,19.601,82.983  c-0.314,4.492,3.073,8.388,7.565,8.701c0.194,0.013,0.385,0.021,0.576,0.021c4.244,0,7.825-3.287,8.125-7.585  C370.238,314.691,349.607,282.974,330.225,266.462z M264.149,16.306c2.875,0,5.214,2.339,5.214,5.213  c0,2.875-2.338,5.215-5.214,5.215s-5.215-2.339-5.215-5.215C258.934,18.645,261.274,16.306,264.149,16.306z M294.579,187.139  v-11.542h20.453v11.542H294.579z M261.364,187.139c-3.182,0-5.771-2.589-5.771-5.771s2.589-5.771,5.771-5.771h16.911v11.542  L261.364,187.139L261.364,187.139z M331.339,175.596h17.111v11.542h-17.111V175.596z M217.337,223.898V123.674  c0-4.503-3.649-8.153-8.153-8.153s-8.153,3.65-8.153,8.153v100.225H161.68V67.637h39.351V98.67c0,4.503,3.649,8.153,8.153,8.153  s8.153-3.65,8.153-8.153V67.637H348.45v91.652h-87.087c-12.173,0-22.077,9.904-22.077,22.077s9.903,22.077,22.077,22.077h87.087  v20.454H217.337V223.898z"/>
<g>
</g>
<g>
</g>
<g>
</g>
<g>
</g>
<g>
</g>
<g>
</g>
<g>
</g>
<g>
</g>
<g>
</g>
<g>
</g>
<g>
</g>
<g>
</g>
<g>
</g>
<g>
</g>
<g>
</g>
</svg>
