<?xml version="1.0" encoding="iso-8859-1"?>
<!-- Generator: Adobe Illustrator 19.0.0, SVG Export Plug-In . SVG Version: 6.00 Build 0)  -->
<svg xmlns="http://www.w3.org/2000/svg" xmlns:xlink="http://www.w3.org/1999/xlink" version="1.1" id="Layer_1" x="0px" y="0px" viewBox="0 0 511.999 511.999" style="enable-background:new 0 0 511.999 511.999;" xml:space="preserve">
<path style="fill:#F9E4AF;" d="M344.153,425.44c-1.43-5.777-2.728-11.909-3.903-18.307c-17.165,4.214-35.849,3.626-49.876-10.401  c-20.88,20.88-52.038,11.976-73.195,1.83c-8.405-4.025-15.236-8.25-19.205-10.878c5.755,2.484,12.885-0.144,20.48-4.535  c13.583-7.862,28.642-21.401,39.852-21.401c18.95,0,32.068,13.118,32.068,13.118s13.118-13.118,32.068-13.118  c3.637,0,7.684,1.43,11.953,3.615c-1.963-18.529-3.26-37.479-4.136-55.01l-50.974-33.986l-23.286,31.048l-15.779-21.046  l-7.507-10.002l-50.974,33.986c-1.874,37.878-5.788,82.321-13.894,115.088c-5.034,20.336,2.395,41.715,19.183,54.256l2.595,1.94  c19.693,14.703,43.035,22.044,66.376,22.044s46.683-7.341,66.376-22.044l2.595-1.94C341.757,467.156,349.187,445.776,344.153,425.44  z M194.236,385.123c0.31,0.222,1.619,1.164,3.715,2.55C196.631,387.118,195.4,386.276,194.236,385.123z"/>
<path style="fill:#E0CB9B;" d="M255.999,503.681c-23.341,0-46.683-7.341-66.376-22.044l-2.595-1.94  c-16.788-12.541-24.217-33.92-19.183-54.256c8.106-32.767,12.02-77.209,13.894-115.088l50.974-33.986l7.507,10.002  c-6.786,20.747-17.597,58.181-21.767,96.781c-0.554,5.134-0.987,10.279-1.275,15.413C214.694,442.194,222.5,484.675,255.999,503.681  z"/>
<g>
	<path style="fill:#D1CBBF;" d="M334.395,365.363c16.223,8.35,35.661,27.821,48.379,22.321   c-7.252,4.801-24.007,14.914-42.524,19.449c-17.165,4.214-35.849,3.626-49.876-10.401c-29.174,29.174-78.429,0.2-92.401-9.048   c16.056,6.941,42.846-25.936,60.333-25.936c18.95,0,32.068,13.118,32.068,13.118s13.118-13.118,32.068-13.118   C326.078,361.748,330.126,363.179,334.395,365.363z"/>
	<path style="fill:#D1CBBF;" d="M328.784,265.288l17.032,55.431l-15.557-10.368l-50.974-33.986l-23.286,31.048l-8.017-10.689   l-15.269-20.359l-50.974,33.986l-15.557,10.368l17.032-55.432l-46.971,8.86l20.813-32.855c28.464,4.846,62.439,5.5,98.943,5.5   h3.216c35.284-0.044,68.106-0.798,95.727-5.5l20.813,32.855L328.784,265.288z"/>
</g>
<path style="fill:#F4516D;" d="M255.999,8.313c100.318,0,181.641,67.352,181.641,150.427c0,52.848-32.922,74.093-82.698,82.554  c-28.464,4.846-62.439,5.5-98.943,5.5s-70.479-0.654-98.943-5.5c-49.776-8.461-82.698-29.706-82.698-82.554  C74.358,75.665,155.681,8.313,255.999,8.313z"/>
<path style="fill:#D64161;" d="M243.546,241.294c-49.776-8.461-82.698-29.706-82.698-82.554  c0-70.733,58.959-130.056,138.396-146.126c-13.861-2.804-28.341-4.301-43.245-4.301c-100.318,0-181.641,67.352-181.641,150.427  c0,52.848,32.922,74.093,82.698,82.554c28.464,4.846,62.439,5.5,98.943,5.5c14.909,0,29.383-0.115,43.245-0.574  C279.165,245.553,260.387,244.16,243.546,241.294z"/>
<path style="fill:#B7AE9F;" d="M259.215,246.794l-11.233,49.932l-15.269-20.359l-50.974,33.986l-15.557,10.368l17.032-55.431  l-46.971,8.86l20.813-32.855c28.464,4.846,62.439,5.5,98.943,5.5H259.215z"/>
<path d="M445.956,158.739c0-41.182-18.755-80.204-52.81-109.878c-3.462-3.018-8.717-2.657-11.733,0.806  c-3.018,3.463-2.657,8.716,0.807,11.734c30.376,26.468,47.103,61.037,47.103,97.338c0,34.911-14.699,55.679-47.658,67.339  c-32.362,11.449-77.909,12.397-125.666,12.397c-61.924,0-119.987-1.919-149.931-25.106c-3.633-2.812-8.854-2.148-11.667,1.484  c-2.812,3.631-2.148,8.855,1.484,11.667c12.744,9.868,28.894,16.349,47.634,20.6l-14.302,22.576  c-1.772,2.798-1.715,6.38,0.144,9.121c1.858,2.739,5.164,4.115,8.423,3.502l33.434-6.306l-12.985,42.263  c-1.032,3.362,0.161,7.009,2.979,9.11c2.82,2.102,6.656,2.203,9.583,0.253l1.702-1.134c-1.769,27.863-4.364,52.17-7.744,72.404  c-0.757,4.53,2.302,8.816,6.833,9.573c0.464,0.078,0.925,0.115,1.381,0.115c3.991,0,7.514-2.881,8.193-6.947  c3.976-23.8,6.889-52.96,8.67-86.699l40.953-27.302l18.565,24.754c1.571,2.095,4.035,3.327,6.653,3.327s5.082-1.232,6.653-3.327  l18.567-24.754l40.957,27.304c0.727,13.661,1.633,26.6,2.714,38.62c-0.816-0.084-1.631-0.143-2.446-0.143  c-14.248,0-25.609,6.177-32.069,10.753c-6.46-4.574-17.823-10.753-32.07-10.753c-10.425,0-20.946,7.178-32.085,14.775  c-8.843,6.032-19.628,13.396-24.691,11.857c-1.495-1.006-2.345-1.626-2.412-1.674c-3.498-2.592-8.405-2.049-11.25,1.25  c-2.844,3.299-2.662,8.232,0.417,11.311c1.956,1.956,4.007,3.383,6.13,4.361c6.437,4.185,18.247,11.183,32.164,16.25  c25.822,9.4,47.685,8.035,63.782-3.863c9.863,7.352,20.988,10.124,32.167,10.123c3.737,0,7.478-0.319,11.179-0.872  c0.762,3.653,1.554,7.172,2.374,10.489c4.261,17.214-2.054,35.111-16.091,45.597l-2.59,1.937  c-17.872,13.342-39.105,20.395-61.402,20.395s-43.529-7.052-61.395-20.391l-2.598-1.944c-14.034-10.483-20.35-28.381-16.088-45.595  c1.103-4.459-1.617-8.967-6.074-10.072c-4.46-1.104-8.967,1.616-10.072,6.074c-5.872,23.724,2.873,48.42,22.275,62.914l2.6,1.945  c20.768,15.504,45.441,23.699,71.351,23.699c25.912,0,50.584-8.196,71.356-23.703l2.593-1.939  c19.407-14.497,28.152-39.193,22.279-62.916c-0.807-3.262-1.586-6.743-2.336-10.364c15.843-5.126,29.451-13.179,36.528-17.805  c2.091-0.977,4.116-2.392,6.045-4.321c3.077-3.077,3.258-8.006,0.419-11.304c-2.841-3.3-7.745-3.848-11.247-1.262  c-0.067,0.049-0.919,0.671-2.418,1.679c-5.063,1.527-15.848-5.825-24.69-11.857c-4.177-2.85-8.269-5.641-12.299-8.016  c-1.048-10.473-1.958-21.739-2.72-33.681l1.695,1.131c1.399,0.933,3.006,1.396,4.612,1.396c1.751,0,3.498-0.552,4.97-1.649  c2.819-2.101,4.012-5.749,2.979-9.11l-12.986-42.263l33.434,6.306c3.253,0.61,6.562-0.763,8.423-3.502  c1.86-2.741,1.916-6.324,0.144-9.121l-14.316-22.598c6.567-1.49,12.837-3.249,18.747-5.34  C426.741,227.775,445.956,200.619,445.956,158.739z M359.706,391.197c-19.031,9.1-46.168,16.94-63.452-0.345  c-1.56-1.56-3.675-2.436-5.881-2.436s-4.32,0.876-5.881,2.436c-17.286,17.287-44.423,9.445-63.453,0.345  c5.033-2.757,9.965-6.121,14.553-9.25c8.164-5.57,17.419-11.882,22.711-11.882c15.104,0,26.11,10.606,26.19,10.684  c3.221,3.225,8.473,3.219,11.731,0.03c0.11-0.108,11.114-10.714,26.219-10.714c5.293,0,14.547,6.313,22.711,11.882  C349.742,385.076,354.673,388.441,359.706,391.197z M358.486,262.429l-28.16-5.311c-2.861-0.539-5.799,0.459-7.74,2.629  c-1.942,2.171-2.606,5.201-1.75,7.986l10.179,33.129L283.9,269.447c-3.673-2.448-8.619-1.601-11.266,1.929l-16.633,22.177  l-16.633-22.177c-2.648-3.531-7.593-4.378-11.267-1.929l-47.115,31.415l10.179-33.129c0.856-2.785,0.192-5.815-1.75-7.986  c-1.942-2.172-4.877-3.17-7.741-2.629l-28.16,5.311l7.633-12.048c27.871,4.149,60.188,4.728,94.854,4.728  c33.707,0,66.401-0.48,94.852-4.731L358.486,262.429z"/>
<path d="M92.368,198.298c-6.522-10.546-9.692-23.487-9.692-39.559c0-78.357,77.753-142.106,173.323-142.106  c39.844,0,77.309,10.796,108.346,31.221c3.837,2.523,8.994,1.461,11.519-2.375s1.461-8.994-2.375-11.519  C339.729,11.743,299.102,0,255.999,0c-50.451,0-97.948,16.326-133.743,45.97c-36.249,30.02-56.213,70.068-56.213,112.77  c0,18.987,4.097,35.239,12.179,48.307c1.573,2.544,4.296,3.943,7.081,3.943c1.493,0,3.003-0.401,4.367-1.244  C93.575,207.33,94.783,202.205,92.368,198.298z"/>
<path d="M277.623,341.788v-14.415c0-4.593-3.722-8.316-8.316-8.316c-4.594,0-8.316,3.724-8.316,8.316v14.415  c0,4.593,3.722,8.316,8.316,8.316C273.9,350.104,277.623,346.381,277.623,341.788z"/>
<path d="M297.027,350.104c4.594,0,8.316-3.724,8.316-8.316v-14.415c0-4.593-3.722-8.316-8.316-8.316  c-4.594,0-8.316,3.724-8.316,8.316v14.415C288.711,346.381,292.433,350.104,297.027,350.104z"/>
<g>
</g>
<g>
</g>
<g>
</g>
<g>
</g>
<g>
</g>
<g>
</g>
<g>
</g>
<g>
</g>
<g>
</g>
<g>
</g>
<g>
</g>
<g>
</g>
<g>
</g>
<g>
</g>
<g>
</g>
</svg>
