<?xml version="1.0" encoding="iso-8859-1"?>
<!-- Generator: Adobe Illustrator 19.0.0, SVG Export Plug-In . SVG Version: 6.00 Build 0)  -->
<svg xmlns="http://www.w3.org/2000/svg" xmlns:xlink="http://www.w3.org/1999/xlink" version="1.1" id="Layer_1" x="0px" y="0px" viewBox="0 0 512 512" style="enable-background:new 0 0 512 512;" xml:space="preserve">
<path style="fill:#F4516D;" d="M326.45,318.166c-0.989,4.494-2.259,8.901-3.858,13.162c-28.314,9.377-58.118,12.649-87.482,9.805  c-15.384-1.478-30.634-4.64-45.493-9.475h-0.012c-1.758-4.261-3.26-8.742-4.444-13.393c-5.348-20.964-4.579-45.603,4.249-70.755  c0.037-0.085,0.061-0.135,0.061-0.135c1.929-5.519,4.261-11.075,7.009-16.617c11.258,6.642,23.687,11.343,36.739,13.748  c14.432,2.65,29.621,2.49,44.846-0.928c2.723-0.623,5.348-1.318,7.887-2.076c4.041,4.81,9.719,8.364,16.373,9.718  c7.778,1.588,16.324,2.087,24.31,2.027c0.171,1.025,0.33,2.076,0.488,3.15C329.784,274.492,331.102,297.238,326.45,318.166z"/>
<path style="fill:#DB4565;" d="M235.111,341.132c-15.384-1.478-30.634-4.64-45.493-9.475h-0.012  c-1.758-4.261-3.26-8.742-4.444-13.393c-5.348-20.964-4.579-45.603,4.249-70.755c0.037-0.085,0.061-0.135,0.061-0.135  c1.929-5.519,4.261-11.075,7.009-16.617c11.258,6.642,23.687,11.343,36.739,13.748C232.681,245.323,206.478,285.639,235.111,341.132  z"/>
<g>
	<path style="fill:#F4516D;" d="M396.778,338.91c0,0-50.389-1.087-69.961-20.658l-0.366-0.085   c4.652-20.928,3.334-43.673,0.671-61.768C338.257,277.495,367.903,328.947,396.778,338.91z"/>
	<path style="fill:#F4516D;" d="M332.312,432.13c-7.313,7.313-14.236,9.121-20.256,8.205l2.076,25.616H269.64l-9.059-40.414   c-2.1-9.34,4.212-18.498,13.699-19.853l0.098-0.012l-7.46-28.888c-7.985,1.428-15.616,1.526-22.832,0.476l-7.313,28.412   l0.085,0.012c9.487,1.355,15.8,10.512,13.711,19.853l-9.059,40.414h-44.504l1.16-14.359l0.904-11.258   c-6.007,0.916-12.93-0.904-20.244-8.205c-20.439-20.452,11.001-76.738,17.374-87.628c-2.491-4.005-4.7-8.302-6.581-12.844   c14.859,4.835,30.109,7.997,45.493,9.475c29.364,2.845,59.167-0.428,87.482-9.805c-1.856,5.006-4.176,9.817-6.996,14.31   C323.203,358.812,352.128,412.314,332.312,432.13z"/>
</g>
<g>
	<polygon style="fill:#666666;" points="314.132,465.951 317.196,503.923 294.522,491.322 278.15,503.923 269.64,465.951    314.119,465.951  "/>
	<polygon style="fill:#666666;" points="241.508,465.951 232.998,503.923 216.613,491.322 193.94,503.923 197.004,465.951  "/>
</g>
<path style="fill:#F4516D;" d="M189.41,247.508c-8.828,25.152-9.597,49.791-4.249,70.755  c-19.572,19.548-69.937,20.647-69.937,20.647C150.888,326.615,187.701,251.037,189.41,247.508z"/>
<path style="fill:#DB4565;" d="M199.068,440.335c-6.007,0.916-12.93-0.904-20.244-8.205c-20.439-20.452,11.001-76.738,17.374-87.628  c-2.491-4.005-4.7-8.302-6.581-12.844c14.859,4.835,30.109,7.997,45.493,9.475C235.111,341.132,181.815,414.719,199.068,440.335z"/>
<path style="fill:#F4516D;" d="M351.529,169c0,60.011-25.457,108.666-85.467,108.666c-16.776,0-32.673-3.797-46.861-10.598  c-28.815-13.796-50.597-39.9-58.533-71.512c-3.016,2.515-6.556,3.968-10.354,3.968c-10.928,0-19.78-12.027-19.78-26.861  c0-14.835,8.851-26.861,19.78-26.861c3.236,0,6.276,1.062,8.974,2.918c6.349-33.614,28.168-61.757,57.776-76.725l23.138-7.887  l5.421-1.843c6.618-1.27,13.455-1.929,20.439-1.929c6.349,0,12.32,0.549,17.912,1.599l32.734,14.64  C340.76,95.731,351.529,129.967,351.529,169z"/>
<path style="fill:#DB4565;" d="M233.01,116.963c0,0-51.512,50.915-13.809,150.105c-28.815-13.796-50.597-39.9-58.533-71.512  c-3.016,2.515-6.556,3.968-10.354,3.968c-10.928,0-19.78-12.027-19.78-26.861c0-14.835,8.851-26.861,19.78-26.861  c3.236,0,6.276,1.062,8.974,2.918c6.349-33.614,28.168-61.757,57.776-76.725l23.138-7.887L233.01,116.963z"/>
<g>
	<path style="fill:#666666;" d="M257.721,96.563c-5.494-25.312-21.378-67.892-66.748-80.72c0,0,28.318,38.701,31.006,85.393   c0.604,10.488,9.871,18.316,20.294,17.012l0,0C252.778,116.936,259.966,106.909,257.721,96.563z"/>
	<path style="fill:#666666;" d="M318.543,101.621c0.272-25.901-5.743-70.946-47.122-93.544c0,0,19.001,44.029,11.236,90.151   c-1.744,10.358,5.55,20.052,16.002,21.1l0,0C309.192,120.384,318.431,112.207,318.543,101.621z"/>
	<path style="fill:#666666;" d="M248.358,217.912c0,7.755,12.026,20.146,26.861,20.146c14.836,0,26.861-12.391,26.861-20.146   c0-7.755-12.026-7.936-26.861-7.936S248.358,210.157,248.358,217.912z"/>
</g>
<path d="M431.467,338.244c-10.279-10.292-27.301-8.771-33.928-7.696c-17.654-7.449-40.747-35.656-62.422-76.331  c0.953-1.211,1.884-2.448,2.784-3.726c14.2-20.139,21.705-48.319,21.705-81.492c0-42.764-12.575-76.963-35.479-96.761  c-4.679-25.106-17.311-54.037-48.836-71.253c-3.024-1.65-6.758-1.198-9.307,1.118c-2.547,2.318-3.343,6-1.985,9.165  c0.104,0.246,6.192,14.687,9.807,35.228c-2.917-0.264-5.9-0.4-8.931-0.4c-6.195,0-12.377,0.57-18.402,1.654  c-11.184-17.001-28.004-32.53-53.304-39.684c-3.315-0.937-6.864,0.333-8.832,3.163c-1.967,2.831-1.92,6.598,0.114,9.38  c0.196,0.268,14.356,19.884,23.034,47.415c-8.345,4.846-16.073,10.694-23.014,17.477c-3.191,3.118-3.251,8.232-0.132,11.424  c1.583,1.62,3.679,2.432,5.779,2.432c2.036,0,4.074-0.765,5.644-2.301c4.882-4.77,10.216-9.001,15.917-12.671  c1.099,5.598,1.892,11.388,2.234,17.311c0.418,7.258,3.851,14.083,9.42,18.721c4.703,3.917,10.66,6.042,16.731,6.042  c1.067,0,2.14-0.067,3.21-0.2c7.281-0.91,13.89-4.866,18.132-10.855c4.218-5.953,5.752-13.447,4.207-20.559  c-1.96-9.028-5.245-20.398-10.709-32.009c3.298-0.374,6.629-0.586,9.972-0.586c3.812,0,7.513,0.252,11.048,0.744  c0.851,10.691,0.725,22.248-1.235,33.888c-1.206,7.17,0.625,14.587,5.022,20.348c4.368,5.72,10.979,9.413,18.141,10.13  c0.867,0.087,1.733,0.13,2.598,0.13c6.416,0,12.677-2.366,17.495-6.68c5.436-4.866,8.597-11.831,8.675-19.108  c0.006-0.633,0.005-1.291,0.005-1.948c10.956,17.188,16.825,40.971,16.825,69.242c0,90.786-54.12,100.588-77.389,100.588  c-46.208,0-86.325-31.252-97.559-75.999c-0.676-2.695-2.692-4.853-5.334-5.714c-2.646-0.862-5.543-0.303-7.675,1.478  c-1.666,1.389-3.408,2.093-5.18,2.093c-6.895,0-11.701-9.898-11.701-18.782c0-8.885,4.806-18.783,11.701-18.783  c1.473,0,2.953,0.503,4.398,1.497c2.25,1.547,5.128,1.854,7.655,0.811c2.525-1.04,4.352-3.286,4.86-5.969  c2.328-12.328,6.899-23.979,13.584-34.626c2.373-3.778,1.233-8.764-2.545-11.137c-3.778-2.374-8.764-1.234-11.137,2.545  c-6.068,9.664-10.636,20.039-13.634,30.948c-1.054-0.15-2.116-0.225-3.181-0.225c-15.621,0-27.858,15.347-27.858,34.939  s12.237,34.938,27.858,34.938c1.801,0,3.579-0.21,5.318-0.625c5.325,15.561,13.761,29.461,24.479,41.107  c-13.416,26.565-41.45,72.313-65.645,82.463c-6.626-1.076-23.651-2.598-33.93,7.696c-3.153,3.157-3.149,8.272,0.008,11.423  c3.157,3.153,8.272,3.149,11.424-0.008c3.03-3.033,8.675-3.767,13.608-3.699l-2.055,10.261c-0.876,4.375,1.959,8.632,6.334,9.507  c0.535,0.108,1.068,0.158,1.594,0.158c3.771,0,7.143-2.654,7.912-6.493l2.554-12.748c5.325-0.377,13.409-1.161,22.377-2.782  c15.188-2.744,27.43-6.873,36.601-12.307c0.401,1.067,0.813,2.129,1.246,3.18c0.025,0.059,0.059,0.111,0.085,0.169  c1.378,3.311,2.931,6.54,4.644,9.645c-4.513,8.091-11.901,22.371-17.061,37.584c-8.805,25.959-7.694,44.701,3.31,55.711  c6.084,6.075,12.026,8.965,17.231,10.123l-4.46,55.303c-0.24,2.968,1.174,5.829,3.678,7.442c2.506,1.612,5.693,1.716,8.298,0.269  l18.033-10.021l12.176,9.364c2.186,1.682,5.082,2.129,7.674,1.192c2.595-0.939,4.53-3.138,5.133-5.829l14.695-65.554l14.692,65.554  c0.603,2.693,2.539,4.891,5.134,5.829c0.894,0.324,1.823,0.483,2.748,0.483c1.758,0,3.494-0.573,4.928-1.676l12.166-9.362  l18.03,10.021c2.604,1.448,5.793,1.343,8.298-0.269c2.504-1.613,3.918-4.473,3.678-7.443l-4.471-55.307  c5.215-1.158,11.162-4.039,17.246-10.123c8.522-8.522,11.128-21.751,7.747-39.317c-0.843-4.38-5.077-7.25-9.459-6.405  c-4.382,0.843-7.249,5.078-6.406,9.459c1.587,8.238,2.3,19.233-3.307,24.84c-4.648,4.648-9.01,6.591-13.334,5.929  c-1.91-0.29-3.92-1.081-5.971-2.356c-3.791-2.353-8.771-1.189-11.124,2.602c-2.353,3.79-1.189,8.771,2.602,11.124  c1.868,1.16,3.768,2.112,5.686,2.865l0.913,11.289h-29.263l-7.645-34.108c-0.516-2.294-0.065-4.624,1.272-6.562  c1.338-1.938,3.357-3.188,5.635-3.513c2.307-0.285,4.378-1.55,5.686-3.473c1.309-1.921,1.725-4.314,1.144-6.565l-7.461-28.888  c-1.056-4.091-5.091-6.673-9.245-5.931c-6.913,1.238-13.724,1.383-20.247,0.434c-4.075-0.597-7.957,1.984-8.986,5.98l-7.313,28.411  c-0.572,2.224-0.127,4.594,1.147,6.504c1.274,1.911,3.345,3.194,5.62,3.519c2.329,0.333,4.349,1.583,5.688,3.521  c1.34,1.94,1.794,4.274,1.282,6.568l-7.644,34.103h-29.284l0.909-11.277c1.929-0.755,3.84-1.713,5.719-2.883  c3.787-2.358,4.945-7.34,2.586-11.127c-2.358-3.788-7.341-4.946-11.127-2.586c-2.049,1.276-4.053,2.065-5.953,2.345  c-0.006,0.001-0.012,0.002-0.018,0.003c-0.008,0.001-0.015,0.001-0.023,0.002c-4.307,0.659-8.662-1.284-13.313-5.929  c-11.664-11.671,1.482-48.531,18.632-77.838c0.802-1.371,1.155-2.918,1.085-4.448c13.098,3.125,26.467,5.08,39.941,5.775  c0.142,0.008,0.283,0.011,0.423,0.011c4.271,0,7.838-3.348,8.061-7.661c0.229-4.456-3.196-8.254-7.652-8.484  c-16.734-0.864-33.297-3.802-49.306-8.69c-1.057-2.892-1.976-5.842-2.734-8.818c-4.449-17.437-4.131-36.429,0.827-55.489  c20.041,15.762,45.244,24.968,72.246,24.968c21.257,0,39.691-5.835,54.422-17.058c1.733,17.838,1.094,34.173-1.924,47.743  c-0.639,2.906-1.405,5.712-2.274,8.41c-15.536,4.813-31.612,7.789-47.86,8.807c-4.453,0.279-7.836,4.114-7.558,8.567  c0.268,4.281,3.824,7.574,8.056,7.574c0.169,0,0.34-0.005,0.513-0.016c12.913-0.809,25.723-2.778,38.277-5.819  c-0.411,1.925-0.13,3.965,0.886,5.725c2.688,4.656,9.522,16.973,14.91,30.75c1.247,3.188,4.297,5.139,7.526,5.139  c0.978,0,1.973-0.179,2.939-0.557c4.154-1.624,6.206-6.311,4.582-10.465c-4.534-11.595-9.885-22.018-13.647-28.832  c1.995-3.65,3.751-7.519,5.243-11.543c0.322-0.856,0.625-1.736,0.925-2.616c9.175,5.441,21.423,9.573,36.621,12.319  c8.972,1.621,17.06,2.405,22.388,2.781l2.553,12.746c0.769,3.839,4.141,6.494,7.913,6.494c0.525,0,1.059-0.052,1.594-0.158  c4.375-0.876,7.21-5.132,6.335-9.507l-2.057-10.274c5.041-0.055,10.667,0.766,13.609,3.711c3.154,3.157,8.269,3.16,11.424,0.008  C434.616,346.516,434.62,341.401,431.467,338.244z M248.225,106.071c-1.651,2.33-4.12,3.809-6.953,4.163  c-2.764,0.345-5.46-0.446-7.599-2.226c-2.177-1.814-3.467-4.383-3.631-7.235c-1.526-26.509-10.742-50.335-18.984-66.765  c24.832,17.05,34.825,46.109,38.767,64.269C250.419,101.008,249.85,103.775,248.225,106.071z M310.464,101.536  c-0.029,2.794-1.199,5.366-3.295,7.242c-2.128,1.905-4.864,2.798-7.705,2.513c-2.768-0.278-5.224-1.648-6.911-3.859  c-1.72-2.252-2.405-5.045-1.932-7.863c4.408-26.185,0.724-51.464-3.658-69.314C307.382,52.399,310.661,82.952,310.464,101.536z   M306.676,474.028l1.254,15.504l-9.484-5.27c-2.819-1.566-6.297-1.307-8.851,0.659l-6.334,4.875l-3.534-15.766h26.95V474.028z   M250.187,385.952c3.532,0.169,7.101,0.094,10.696-0.222l3.821,14.799c-3.266,1.817-6.113,4.372-8.271,7.5  c-0.304,0.441-0.593,0.891-0.867,1.349c-0.275-0.461-0.565-0.913-0.872-1.357c-2.156-3.121-5.001-5.673-8.261-7.488L250.187,385.952  z M231.42,474.028l-3.535,15.772l-6.347-4.881c-2.556-1.964-6.032-2.222-8.849-0.657l-9.484,5.27l1.249-15.504H231.42z   M171.778,294.394c0.656-0.988,1.3-1.971,1.938-2.953c0.043,8.12,0.863,16.114,2.484,23.886  c-7.573,5.641-19.017,9.365-30.256,11.744C154.294,318.623,162.923,307.713,171.778,294.394z M335.318,314.97  c1.377-7.635,2.139-15.784,2.279-24.414c10.548,16.41,20.15,28.157,28.547,36.555C354.643,324.686,342.912,320.846,335.318,314.97z"/>
<path d="M266.205,183.115v-20.756c0-4.461-3.616-8.078-8.078-8.078c-4.462,0-8.078,3.617-8.078,8.078v20.756  c0,4.461,3.616,8.078,8.078,8.078C262.589,191.193,266.205,187.576,266.205,183.115z"/>
<path d="M302.08,191.193c4.462,0,8.078-3.617,8.078-8.078v-20.756c0-4.461-3.616-8.078-8.078-8.078  c-4.462,0-8.078,3.617-8.078,8.078v20.756C294.002,187.576,297.619,191.193,302.08,191.193z"/>
<path d="M240.279,217.912c0,12.704,16.123,28.224,34.939,28.224c18.817,0,34.938-15.52,34.938-28.224  c0-10.65-9.996-13.887-14.294-14.784c-5.461-1.141-12.287-1.231-20.644-1.231c-8.357,0-15.185,0.09-20.644,1.231  C250.276,204.026,240.279,207.262,240.279,217.912z M275.22,218.055c5.296,0,14.597,0,18.429,1.109  c-1.645,3.725-8.85,10.816-18.429,10.816c-9.578,0-16.784-7.091-18.43-10.816C260.622,218.055,269.923,218.055,275.22,218.055z"/>
<g>
</g>
<g>
</g>
<g>
</g>
<g>
</g>
<g>
</g>
<g>
</g>
<g>
</g>
<g>
</g>
<g>
</g>
<g>
</g>
<g>
</g>
<g>
</g>
<g>
</g>
<g>
</g>
<g>
</g>
</svg>
