<?xml version="1.0" encoding="iso-8859-1"?>
<!-- Generator: Adobe Illustrator 19.0.0, SVG Export Plug-In . SVG Version: 6.00 Build 0)  -->
<svg xmlns="http://www.w3.org/2000/svg" xmlns:xlink="http://www.w3.org/1999/xlink" version="1.1" id="Layer_1" x="0px" y="0px" viewBox="0 0 511.999 511.999" style="enable-background:new 0 0 511.999 511.999;" xml:space="preserve">
<path style="fill:#5BA0CE;" d="M354.734,192.63c-2.479-15.974-7.491-30.289-15.338-41.812c-6.295-9.248-19.1-10.79-27.734-3.665  c-7.987,6.607-19.585,10.757-32.499,10.757c-13.344,0-25.277-4.43-33.275-11.426c-0.011-0.011-0.022-0.022-0.032-0.022  c-0.485-0.485-1.002-0.959-1.552-1.434c-0.41-0.399-0.83-0.776-1.261-1.11c-0.032-0.032-0.075-0.075-0.119-0.108  c-6.823-5.476-16.783-5.282-23.606,0.485c-11.652,9.82-20.922,22.366-26.85,36.659c-3.794-2.652-8.009-4.139-12.471-4.139  c-6.931,0-13.301,3.568-18.335,9.561C119.106,73.835,256.171,8.084,256.171,8.084C399.552,82.707,355.273,191.315,354.734,192.63z"/>
<path style="fill:#4B8EB2;" d="M242.924,143.812c-6.823-5.476-16.783-5.282-23.606,0.485c-11.652,9.82-20.922,22.366-26.85,36.659  c-3.794-2.652-8.009-4.139-12.471-4.139c-6.931,0-13.301,3.568-18.335,9.561C119.106,73.835,256.171,8.084,256.171,8.084  S192.263,97.679,242.924,143.812z"/>
<path style="fill:#FFD0B8;" d="M356.566,217.648c0,30.817-7.61,58.249-24.404,75.798c-12.072,12.622-28.898,20.135-51.049,20.135  c-16.287,0-31.636-4.064-45.067-11.232v-0.011c-13.043-6.942-24.296-16.837-32.876-28.758v-0.011  c-3.104-4.312-5.853-8.882-8.214-13.689c-4.387,3.88-9.496,6.112-14.961,6.112c-16.373,0-29.642-19.963-29.642-44.593  c0-14.207,4.419-26.861,11.307-35.021c5.034-5.993,11.404-9.561,18.335-9.561c4.462,0,8.677,1.488,12.471,4.139  c5.928-14.293,15.198-26.84,26.85-36.659c7.297-6.166,18.173-5.961,24.986,0.733c7.966,7.826,20.609,12.881,34.859,12.881  c12.913,0,24.511-4.15,32.499-10.757c8.634-7.125,21.439-5.583,27.734,3.665c7.847,11.523,12.859,25.837,15.338,41.812  C355.973,200.607,356.566,208.993,356.566,217.648z"/>
<path style="fill:#EFBFAB;" d="M236.047,302.338c-13.043-6.942-24.296-16.837-32.876-28.758v-0.011  c-3.104-4.312-5.853-8.882-8.214-13.689c-4.387,3.88-9.496,6.112-14.961,6.112c-16.373,0-29.642-19.963-29.642-44.593  c0-14.207,4.419-26.861,11.307-35.021c5.034-5.993,11.404-9.561,18.335-9.561c4.462,0,8.677,1.488,12.471,4.139  c5.928-14.293,15.198-26.84,26.85-36.659c7.297-6.166,18.173-5.961,24.986,0.733C244.303,145.03,205.337,234.431,236.047,302.338z"/>
<path style="fill:#F4C33B;" d="M343.491,381.219l11.663,90.36H182.691l9.345-90.36h30.332c3.223,16.858,8.828,35.657,18.529,52.634  l6.737-52.634L343.491,381.219L343.491,381.219z"/>
<path style="fill:#F4516D;" d="M247.634,381.219l-6.737,52.634c-9.701-16.977-15.306-35.775-18.529-52.634h-30.332l11.135-107.639  c17.419,24.22,45.832,40.001,77.943,40.001c22.151,0,38.977-7.513,51.049-20.135l11.329,87.773L247.634,381.219L247.634,381.219z"/>
<path style="fill:#FFD0B8;" d="M218.261,330.374c0,0-3.234,58.206,22.636,103.478l11.857-92.699"/>
<path d="M364.646,217.647c0-8.403-0.562-16.44-1.633-24.07c3.519-9.849,15.746-50.991-5.393-98.563  c-1.813-4.08-6.588-5.915-10.67-4.106c-4.08,1.813-5.918,6.59-4.105,10.67c9.578,21.557,11.309,41.788,10.376,57.408  c-2.106-4.543-4.477-8.803-7.141-12.717l0,0c-4.275-6.28-10.767-10.326-18.282-11.395c-7.566-1.078-15.33,1.127-21.287,6.049  c-6.848,5.66-16.816,8.904-27.348,8.904c-11.545,0-22.459-3.948-29.193-10.561c-9.808-9.634-25.229-10.128-35.868-1.151  c-10.509,8.867-19.212,19.807-25.491,31.98c-2.813-0.898-5.709-1.359-8.612-1.359c-5.111,0-9.951,1.361-14.358,3.827  c-10.962-39.394,0.06-76.907,32.885-111.658c8.735-9.248,18.039-17.185,26.688-23.727c-10.094,18.839-19.346,44.766-19.346,76.54  c0,4.465,3.62,8.084,8.084,8.084c4.465,0,8.084-3.62,8.084-8.084c0-47.43,23.563-80.997,34.378-93.905  c15.566,16.365,42.15,48.957,42.15,71.269c0,4.465,3.618,8.084,8.084,8.084s8.084-3.62,8.084-8.084  c0-15.252-8.401-32.446-18.516-47.619c14.253,11.485,25.954,23.911,34.963,37.198c2.504,3.695,7.529,4.66,11.228,2.156  c3.695-2.506,4.66-7.532,2.155-11.228c-18.502-27.29-46.985-51.07-84.66-70.675c-2.257-1.175-4.935-1.217-7.228-0.117  c-1.454,0.697-35.952,17.441-65.585,48.669c-38.986,41.086-50.871,87.839-34.536,135.477c-6.398,9.397-10.284,22.177-10.284,36.463  c0,29.534,16.572,52.669,37.726,52.669c4.139,0,8.202-0.914,12.047-2.684c0.888,1.47,1.819,2.911,2.777,4.333l-20.17,195.023  c-0.236,2.277,0.504,4.547,2.038,6.245c1.533,1.7,3.714,2.67,6.003,2.67H218.8v24.253c0,4.465,3.62,8.084,8.084,8.084h26.947  c4.465,0,8.084-3.62,8.084-8.084c0-4.465-3.618-8.084-8.084-8.084h-18.863v-16.168h43.116v24.253c0,4.465,3.618,8.084,8.084,8.084  h26.947c4.466,0,8.084-3.62,8.084-8.084c0-4.465-3.618-8.084-8.084-8.084h-18.863v-16.168h60.901c2.324,0,4.537-1,6.072-2.746  c1.535-1.745,2.243-4.067,1.947-6.372L340.66,296.097c1.627-1.887,3.181-3.87,4.653-5.958  C357.96,272.2,364.646,247.132,364.646,217.647z M158.438,221.405c0-19.786,9.872-36.501,21.558-36.501  c2.657,0,5.297,0.902,7.843,2.682c2.008,1.403,4.545,1.818,6.896,1.134c2.352-0.687,4.265-2.403,5.203-4.666  c5.35-12.912,13.852-24.524,24.588-33.582c4.156-3.506,10.355-3.363,14.113,0.329c9.833,9.656,24.603,15.195,40.522,15.195  c14.228,0,27.95-4.594,37.647-12.605c2.458-2.031,5.636-2.948,8.713-2.507c2.956,0.42,5.509,2.014,7.193,4.486l0,0  c10.313,15.149,15.764,36.684,15.764,62.278c0,26.414-6.564,87.848-67.368,87.848c-33.446,0-63.416-18.497-78.458-48.327  l-1.269-6.059c-0.915-4.371-5.202-7.168-9.57-6.255c-4.37,0.915-7.17,5.2-6.255,9.57l0.407,1.943  c-1.949,1.019-3.944,1.539-5.968,1.539C168.311,257.905,158.438,241.19,158.438,221.405z M191.655,463.494l7.674-74.191h16.422  c3.52,15.807,9.151,32.85,18.129,48.56c1.458,2.551,4.156,4.073,7.017,4.073c0.522,0,1.05-0.051,1.576-0.155  c3.409-0.677,6.004-3.457,6.445-6.904l5.829-45.576h19.021c4.466,0,8.084-3.62,8.084-8.084c0-4.465-3.618-8.084-8.084-8.084h-16.953  l3.959-30.955c0.567-4.429-2.564-8.479-6.992-9.045c-4.431-0.568-8.478,2.565-9.045,6.993l-8.167,63.857  c-12.026-36.372-10.258-72.716-10.235-73.166c0.245-4.455-3.168-8.266-7.624-8.514c-4.453-0.234-8.272,3.165-8.52,7.623  c-0.075,1.351-0.979,19.442,2.565,43.208H201l8.3-80.246c4.912,4.688,10.286,8.913,16.071,12.591  c16.648,10.588,35.923,16.185,55.738,16.185c17.246,0,32.416-4.302,44.918-12.609l8.27,64.08h-34.123  c-4.466,0-8.084,3.62-8.084,8.084c0,4.465,3.618,8.084,8.084,8.084h36.21l9.575,74.191H191.655z"/>
<path d="M193.477,224.203c1.314,0,2.647-0.321,3.88-0.997c3.915-2.147,5.347-7.06,3.201-10.976  c-1.81-3.301-8.427-14.17-17.601-15.48c-4.184-0.595-8.226,0.805-11.373,3.95c-3.157,3.157-3.157,8.276,0,11.432  c2.646,2.647,6.672,3.075,9.765,1.284c1.51,1.353,3.671,4.134,5.041,6.604C187.864,222.692,190.626,224.203,193.477,224.203z"/>
<path d="M270,226.358c4.466,0,8.084-3.62,8.084-8.084v-21.558c0-4.465-3.618-8.084-8.084-8.084c-4.466,0-8.084,3.62-8.084,8.084  v21.558C261.916,222.738,265.535,226.358,270,226.358z"/>
<path d="M310.96,226.358c4.466,0,8.084-3.62,8.084-8.084v-21.558c0-4.465-3.618-8.084-8.084-8.084c-4.466,0-8.084,3.62-8.084,8.084  v21.558C302.876,222.738,306.495,226.358,310.96,226.358z"/>
<path d="M232.993,247.85c0.5,0.36,12.457,8.883,31.05,12.91c5.537,1.2,12.03,2.066,19.243,2.066  c15.151,0,33.459-3.828,52.638-16.441c3.731-2.453,4.765-7.467,2.313-11.196c-2.454-3.731-7.469-4.766-11.197-2.312  c-44.757,29.436-82.959,3.017-84.603,1.85c-3.618-2.594-8.658-1.774-11.266,1.839C228.556,240.184,229.372,245.237,232.993,247.85z"/>
<g>
</g>
<g>
</g>
<g>
</g>
<g>
</g>
<g>
</g>
<g>
</g>
<g>
</g>
<g>
</g>
<g>
</g>
<g>
</g>
<g>
</g>
<g>
</g>
<g>
</g>
<g>
</g>
<g>
</g>
</svg>
