<?xml version="1.0" encoding="iso-8859-1"?>
<!-- Generator: Adobe Illustrator 19.0.0, SVG Export Plug-In . SVG Version: 6.00 Build 0)  -->
<svg xmlns="http://www.w3.org/2000/svg" xmlns:xlink="http://www.w3.org/1999/xlink" version="1.1" id="Layer_1" x="0px" y="0px" viewBox="0 0 511.996 511.996" style="enable-background:new 0 0 511.996 511.996;" xml:space="preserve">
<circle cx="157.153" cy="358.362" r="10.427"/>
<circle cx="409.089" cy="244.777" r="10.427"/>
<g>
	<polygon style="fill:#B3B3B3;" points="229.336,469.524 246.887,501.234 220.311,493.318 205.994,503.518 194.38,476.784  "/>
	<polygon style="fill:#B3B3B3;" points="319.229,469.637 336.712,501.234 310.136,493.318 295.831,503.518 284.307,476.999    284.805,476.784  "/>
	<path style="fill:#B3B3B3;" d="M458.1,8.479l-24.008,51.794c-5.01,10.822-15.855,17.755-27.774,17.755h-28.046l-0.746,0.249   c-3.607-10.947-10.02-23.601-21.407-34.164l0.011-0.011h44.296L458.1,8.479z"/>
	<path style="fill:#B3B3B3;" d="M246.638,44.101c10.709,0,18.739,9.793,16.635,20.288c-0.792,3.969-2.929,7.373-5.881,9.793   c-2.952,2.42-6.717,3.845-10.755,3.845h-62.65c-11.931,0-22.764-6.921-27.786-17.743L132.194,8.479l57.674,35.622h24.042   C213.91,44.101,246.638,44.101,246.638,44.101z"/>
</g>
<g>
	<path style="fill:#D67729;" d="M329.135,246.584c0,10.483,79.953,8.617,79.953,8.617c-26.01,36.188-86.84,33.089-86.84,33.089   c2.816-6.706,4.614-13.932,5.236-21.475L329.135,246.584z"/>
	<path style="fill:#D67729;" d="M349.31,417.38l-38.608,36.855l8.527,15.402l-34.424,7.147l-0.498,0.215l-14.317-32.942   l38.45-40.711l-45.529-49.747h-0.26c0.565,29.12,0.339,60.445-3.166,63.781l-38.608,36.855l8.459,15.289l-34.955,7.26   l-14.215-32.727l38.45-40.711l-10.675-18.309c-19.349-33.18-29.459-70.928-29.301-109.333   c-17.834,30.002-26.587,61.599-30.047,76.707c-1.176,1.685-1.866,3.743-1.866,5.948c0,0.69,0.068,1.357,0.204,2.013   c-0.136,0.746-0.204,1.131-0.204,1.131c-19.225-152.668,57.844-214.967,57.844-214.967c7.701,13.152,18.648,24.302,31.8,32.275   c13.932,8.493,30.33,13.423,47.96,13.423h0.78c18.264,0,36.109-5.439,51.262-15.617l9.318,39.761   c3.008,12.824-4.15,25.807-16.556,30.206l-1.651,20.231c-0.622,7.543-2.42,14.769-5.236,21.475   c-2.092,4.998-4.75,9.714-7.905,14.057l39.886,90.289C357.972,401.095,356.004,411.001,349.31,417.38z"/>
	<path style="fill:#D67729;" d="M404.598,129.731l-2.635,19.202c-1.527,11.207-11.105,19.553-22.414,19.553h-31.076l-12.1,8.131   c-15.154,10.178-32.999,15.617-51.262,15.617h-0.78c-12.654,0-24.664-2.533-35.589-7.102v-0.011   c-18.671-7.792-34.164-21.509-44.172-38.585c-5.722-9.748-9.658-20.593-11.377-32.06l-19.7,16.171c0,0-9.805-32.32,10.494-52.619   h62.65c0.136,0,0.283,0,0.418-0.011c3.879-0.09,7.486-1.493,10.336-3.834c2.952-2.42,5.089-5.824,5.881-9.793   c0.645-3.212,0.339-6.356-0.701-9.183c-2.364-6.389-8.504-11.105-15.934-11.105H213.91c22.787-27.005,55.254-25.501,90.73-21.645   c23.624,2.578,40.055,11.071,51.477,21.656c11.388,10.562,17.8,23.217,21.407,34.164c4.727,14.339,4.648,25.75,4.648,25.75   C395.89,104.026,406.453,116.138,404.598,129.731z"/>
</g>
<g>
	<path style="fill:#BA642A;" d="M248.741,185.121c-18.671-7.792-34.164-21.509-44.172-38.585   c-5.722-9.748-9.658-20.593-11.377-32.06l-19.7,16.171c0,0-9.805-32.32,10.494-52.619h62.65c0.136,0,0.283,0,0.418-0.011   C233.791,103.777,228.691,139.083,248.741,185.121z"/>
	<path style="fill:#BA642A;" d="M304.64,22.456c0,0-22.663,10.314-42.068,32.75c-2.364-6.389-8.504-11.105-15.934-11.105H213.91   C236.698,17.096,269.165,18.6,304.64,22.456z"/>
	<path style="fill:#BA642A;" d="M220.877,454.235l8.459,15.289l-34.955,7.26l-14.215-32.727l38.45-40.711l-10.675-18.309   c-19.349-33.18-29.459-70.928-29.301-109.333c-17.834,30.002-26.587,61.599-30.047,76.707c-1.176,1.685-1.866,3.743-1.866,5.948   c0,0.69,0.068,1.357,0.204,2.013c-0.136,0.746-0.204,1.131-0.204,1.131c-19.225-152.668,57.844-214.967,57.844-214.967   c7.701,13.152,18.648,24.302,31.8,32.275l0.011,0.023c0,0-53.75,125.549,23.104,238.546L220.877,454.235z"/>
</g>
<path style="fill:#F2A972;" d="M337.842,159.216c6.854,5.979,15.642,9.274,24.739,9.274h16.969c11.309,0,20.887-8.346,22.414-19.553  l2.635-19.202c1.855-13.593-8.708-25.705-22.425-25.705h-36.335c-13.706,0-24.269,12.112-22.414,25.705l0.718,5.23  c1.236,9.009,5.693,17.265,12.545,23.243L337.842,159.216z"/>
<path style="fill:#B3B3B3;" d="M71.986,129.49H53.892v18.094c0,9.994,8.1,18.094,18.094,18.094l0,0  c9.994,0,18.094-8.1,18.094-18.094l0,0C90.08,137.59,81.978,129.49,71.986,129.49z"/>
<path d="M463.729,2.139c-2.802-2.487-6.903-2.84-10.086-0.872l-55.625,34.357h-38.741c-12.212-10.407-29.437-18.956-53.719-21.595  c-36.038-3.915-70.451-5.136-95.441,21.593h-17.842L136.652,1.266c-3.186-1.969-7.285-1.614-10.086,0.872  c-2.801,2.485-3.641,6.513-2.066,9.91l24.005,51.8c4.235,9.141,11.807,16.114,20.854,19.781  c-11.984,22.26-4.375,48.197-3.986,49.481c0.823,2.711,2.945,4.832,5.656,5.654c0.809,0.245,1.637,0.365,2.461,0.365  c1.938,0,3.846-0.665,5.383-1.927l9.117-7.486c1.597,5.227,3.619,10.264,6.022,15.08c-4.473,4.487-11.345,12.133-18.843,23.26  c-2.617,3.885-1.591,9.156,2.293,11.773c1.454,0.979,3.102,1.449,4.733,1.449c2.727,0,5.403-1.312,7.042-3.743  c5.314-7.886,10.24-13.773,13.958-17.801c18.524,24.928,48.357,40.985,81.136,40.985h0.78c15.983,0,31.543-3.771,45.627-10.971  l6.695,28.568c2.013,8.59-2.776,17.307-11.139,20.275c-15.738,5.584-42.561,10.96-80.979,4.84c-4.628-0.734-8.973,2.416-9.71,7.042  c-0.736,4.626,2.417,8.973,7.042,9.71c12.996,2.07,24.818,2.919,35.478,2.918c16.73,0,30.57-2.094,41.544-4.838l-0.642,7.864  c-1.58,19.357-12.324,37.055-28.741,47.341c-3.969,2.487-5.17,7.722-2.684,11.69c1.61,2.569,4.371,3.98,7.196,3.98  c1.538,0,3.095-0.418,4.495-1.296c4.583-2.872,8.82-6.196,12.662-9.896l10.316,23.347c1.401,3.17,4.507,5.056,7.762,5.056  c1.146,0,2.309-0.234,3.423-0.726c4.285-1.893,6.223-6.902,4.33-11.187l-13.814-31.262c1.297-2.056,2.5-4.171,3.605-6.337  c16.482-0.176,63.639-3.617,87.622-35.673c3.907-3.466,6.387-8.508,6.387-14.13c0-10.426-8.482-18.908-18.908-18.908  c-10.34,0-18.757,8.346-18.895,18.654c-14.394-0.257-27.991-1.009-37.216-2.206c6.919-8.055,9.955-19.139,7.38-30.129l-7.981-34.055  l5.09-3.42h28.491c15.48,0,28.729-11.56,30.816-26.882L413,130.879c1.216-8.909-1.478-17.905-7.391-24.679  c-4.117-4.717-9.513-8.027-15.444-9.604c-0.31-2.782-0.815-6.211-1.643-10.085h17.794c15.172,0,29.095-8.9,35.47-22.669  l24.008-51.794C467.369,8.652,466.529,4.624,463.729,2.139z M163.895,56.715l-12.132-26.177l33.646,20.781  c1.34,0.827,2.883,1.265,4.457,1.265h56.769c2.551,0,4.942,1.131,6.559,3.104c1.617,1.972,2.257,4.538,1.757,7.04  c-0.79,3.95-4.287,6.818-8.316,6.818h-62.653C175.392,69.545,167.506,64.509,163.895,56.715z M388.016,263.778  c-17.516,11.795-40.519,15-54.043,15.821c0.96-3.95,1.624-7.99,1.959-12.089l0.614-7.516c7.14,1.587,18.206,2.837,35.955,3.45  C377.911,263.631,383.204,263.73,388.016,263.778z M392.831,117.358c2.73,3.128,3.925,7.117,3.364,11.224l-2.636,19.21  c-0.949,6.965-6.972,12.217-14.01,12.217h-31.076c-1.685,0-3.332,0.502-4.73,1.442l-12.099,8.13  c-13.808,9.274-29.899,14.177-46.533,14.177h-0.78c-39.532,0-73.914-28.02-81.895-65.903l15.222-12.5  c3.62-2.973,4.145-8.316,1.173-11.937c-2.972-3.62-8.316-4.144-11.937-1.173l-27.229,22.36c-0.292-8.51,1.103-19.45,8.106-28.097  h58.866c12.087,0,22.579-8.601,24.95-20.453c1.501-7.504-0.421-15.202-5.273-21.121s-12.023-9.313-19.677-9.313h-8.626  c17.819-8.821,39.968-7.527,65.715-4.729c54.854,5.962,66.708,46.676,69.265,64.656h-27.15c-8.978,0-17.517,3.882-23.425,10.651  c-5.913,6.775-8.608,15.771-7.392,24.688l1.654,12.061c-8.315,1.892-22.881,2.91-30.235-10.249  c-2.285-4.089-7.452-5.553-11.542-3.266c-4.089,2.285-5.551,7.452-3.266,11.542c14.241,25.482,43.949,21.48,57.669,15.799  c3.563-1.475,5.684-5.168,5.159-8.989l-2.634-19.195c-0.553-4.055,0.673-8.15,3.366-11.234c2.727-3.123,6.506-4.842,10.646-4.842  h36.335C386.318,112.512,390.103,114.233,392.831,117.358z M426.395,56.714c-3.61,7.797-11.491,12.837-20.078,12.837h-22.962  c-0.915-2.272-1.937-4.58-3.095-6.905c-1.623-3.257-3.563-6.647-5.861-10.058h26.027c1.574,0,3.118-0.439,4.457-1.265l33.643-20.78  L426.395,56.714z"/>
<path d="M309.947,96.155c4.684,0,8.482-3.797,8.482-8.482V69.58c0-4.684-3.797-8.482-8.482-8.482c-4.684,0-8.482,3.797-8.482,8.482  v18.094C301.466,92.358,305.263,96.155,309.947,96.155z"/>
<path d="M340.104,94.27c4.684,0,8.482-3.797,8.482-8.482V69.58c0-4.684-3.797-8.482-8.482-8.482c-4.684,0-8.482,3.797-8.482,8.482  v16.209C331.623,90.473,335.419,94.27,340.104,94.27z"/>
<path d="M358.648,133.015c-1.319-3.125-4.425-5.236-7.831-5.236c-3.393,0-6.53,2.11-7.831,5.236  c-1.416,3.404-0.407,7.467,2.451,9.801c2.721,2.221,6.629,2.535,9.666,0.761C358.714,141.468,360.243,136.878,358.648,133.015z"/>
<path d="M380.452,128.435c-3.259-1.346-7.171-0.507-9.532,2.135c-2.463,2.755-2.881,6.87-0.99,10.052  c1.768,2.974,5.318,4.585,8.724,3.995c3.507-0.606,6.279-3.411,6.903-6.903C386.237,133.896,384.069,129.882,380.452,128.435z"/>
<path d="M348.874,359.534c-1.892-4.285-6.902-6.22-11.185-4.33c-4.285,1.893-6.223,6.902-4.33,11.187l13.111,29.672  c2.288,5.177,1.074,11.28-3.019,15.188L304.846,448.1c-2.789,2.662-3.431,6.87-1.564,10.242l2.95,5.331l-16.942,3.516l-9.289-21.378  l34.606-36.641c3.052-3.232,3.091-8.271,0.09-11.551l-43.628-47.665c-0.13-5.798-0.3-12.066-0.517-18.857  c-0.149-4.682-4.045-8.328-8.747-8.207c-4.682,0.149-8.356,4.065-8.207,8.747c1.985,62.293-0.154,77.222-1.01,80.603l-37.566,35.861  c-2.789,2.662-3.431,6.869-1.564,10.242l2.889,5.22l-16.933,3.515l-9.237-21.266l34.607-36.641c2.583-2.736,3.056-6.846,1.16-10.096  l-10.678-18.311c-18.167-31.154-27.85-66.593-28.118-102.631c12.069-19.839,28.244-38.644,49.654-50.578  c4.091-2.281,5.56-7.446,3.28-11.538c-2.282-4.093-7.447-5.561-11.538-3.28c-29.875,16.652-54.956,47.501-72.528,89.214  c-1.374,3.26-2.652,6.465-3.839,9.591c0.437-50.785,12.409-87.465,23.89-111.058c2.049-4.213,0.296-9.288-3.915-11.338  c-4.211-2.049-9.288-0.296-11.338,3.915c-14.882,30.586-30.563,81.577-24.119,154.412c-9.141-1.354-18.261-4.208-25.524-9.672  c-11.054-8.319-16.428-21.372-16.428-39.908c0-32.552,8.372-50.532,15.099-64.978c11.109-23.857,16.047-39.524-13.563-74.569  c1.464-3.292,2.285-6.932,2.285-10.761c0-14.654-11.922-26.576-26.575-26.576H53.897c-4.684,0-8.482,3.797-8.482,8.482v18.094  c0,14.654,11.922,26.575,26.575,26.575c4.599,0,8.928-1.176,12.705-3.24c10.351,12.493,15.706,22.102,16.704,29.901  c1.009,7.877-2.151,14.662-6.935,24.932c-7.042,15.121-16.685,35.831-16.685,72.138c0,23.916,7.817,41.913,23.233,53.492  c10.994,8.258,24.523,12.081,37.84,13.464c2.656,7.233,9.593,12.418,17.737,12.418c8.544,0,15.773-5.701,18.109-13.495  c4.805-0.694,8.971-1.497,12.237-2.207c3.907,9.522,8.463,18.798,13.679,27.741l7.481,12.829l-34.092,36.097  c-2.332,2.469-2.966,6.089-1.613,9.203l25.829,59.461c1.019,2.347,3.043,4.107,5.51,4.793c0.747,0.207,1.51,0.309,2.27,0.309  c1.746,0,3.47-0.539,4.923-1.574l10.943-7.797l22.606,6.734c3.302,0.983,6.871-0.128,9.03-2.812c2.16-2.685,2.48-6.409,0.812-9.424  l-22.842-41.275l33.874-32.336c2.768-2.642,6.067-5.798,6.05-48.087l25.468,27.825l-33.035,34.978  c-2.332,2.469-2.966,6.09-1.613,9.204l25.836,59.459c1.02,2.347,3.044,4.108,5.511,4.793c0.748,0.208,1.51,0.309,2.269,0.309  c1.746,0,3.471-0.539,4.924-1.575l10.936-7.796l22.605,6.733c3.303,0.984,6.871-0.128,9.03-2.812  c2.159-2.685,2.48-6.409,0.812-9.424l-22.841-41.271l33.872-32.332c9.249-8.829,11.991-22.619,6.823-34.314L348.874,359.534z   M62.374,147.584v-9.612h9.612c5.3,0,9.612,4.312,9.612,9.612c0,5.3-4.312,9.612-9.612,9.612S62.374,152.884,62.374,147.584z   M171.697,347.042c-2.672-3.558-6.555-6.15-11.044-7.139c2.687-9.272,6.477-20.621,11.632-32.672  c1.796,12.979,4.734,25.765,8.76,38.214C178.384,345.979,175.219,346.543,171.697,347.042z M222.732,485.189  c-2.507-0.746-5.214-0.295-7.343,1.221l-5.788,4.124l-3.286-7.566l18.63-3.866l4.47,8.078L222.732,485.189z M312.558,485.185  c-2.506-0.748-5.217-0.295-7.345,1.222l-5.781,4.122l-3.237-7.449l18.637-3.868l4.407,7.964L312.558,485.185z"/>
<g>
</g>
<g>
</g>
<g>
</g>
<g>
</g>
<g>
</g>
<g>
</g>
<g>
</g>
<g>
</g>
<g>
</g>
<g>
</g>
<g>
</g>
<g>
</g>
<g>
</g>
<g>
</g>
<g>
</g>
</svg>
