<?xml version="1.0" encoding="iso-8859-1"?>
<!-- Generator: Adobe Illustrator 19.0.0, SVG Export Plug-In . SVG Version: 6.00 Build 0)  -->
<svg xmlns="http://www.w3.org/2000/svg" xmlns:xlink="http://www.w3.org/1999/xlink" version="1.1" id="Layer_1" x="0px" y="0px" viewBox="0 0 512.001 512.001" style="enable-background:new 0 0 512.001 512.001;" xml:space="preserve">
<g>
	<path style="fill:#B3B3B3;" d="M366.485,292.667c-14.477-14.477-43.667,3.386-67.165,11.867   c-2.182-14.139-4.556-26.614-6.693-36.715C337.723,254.309,366.485,292.667,366.485,292.667z"/>
	<path style="fill:#B3B3B3;" d="M345.462,164.862c-0.292,9.01-1.755,20.371-6.153,31.642c-7.21,18.537-22.339,36.827-53.205,43.982   c-7.267,1.699-15.41,2.767-24.522,3.082c-6.119,1.429-12.745,2.193-19.91,2.193c-11.338,0-21.406-1.451-30.326-3.959   c-8.853-2.486-16.58-6.007-23.307-10.169v-0.011c-13.566-8.391-23.127-19.37-29.741-29.741   c-9.629-15.062-13.768-32.98-12.306-50.798c1.575-19.235,4.308-46.884,7.289-52.485c-18.976-23.397-15.433-51.417-9.651-69.943   c3.791-12.148,8.549-20.214,8.549-20.214c25.849,17.199,38.245,34.432,44.105,47.952c13.622-6.94,29.044-10.855,45.388-10.855   c14.994,0,27.649,3.307,38.132,9.224c0.866,0.484,1.71,0.99,2.542,1.507c10.956,6.862,19.381,16.715,25.489,28.695   c3.217,6.31,5.782,13.206,7.739,20.573c1.417,5.321,2.508,10.877,3.296,16.636c3.734,7.458,8.628,14.466,15.005,19.28   C341.244,147.021,345.766,155.627,345.462,164.862z"/>
</g>
<path style="fill:#7F7F7F;" d="M330.49,493.306l1.541,10.259h-60.742c0,0,2.643-15.152,1.699-33.734l0.135-0.011h25.163h4.938  C316.868,469.819,328.465,479.807,330.49,493.306z"/>
<path style="fill:#999999;" d="M323.167,8.44c0,0,34.15,57.896-7.581,97.097h-0.011c-1.957-7.368-4.522-14.263-7.739-20.573  c-6.108-11.98-14.533-21.833-25.489-28.695c-0.832-0.517-1.676-1.024-2.542-1.507V54.75C285.935,41.488,298.353,24.953,323.167,8.44  z"/>
<path style="fill:#F26D53;" d="M241.605,407.57c-4.004,11.721-9.505,22.531-15.017,31.664  c-10.551,17.503-21.091,28.897-21.091,28.897H173.72c7.694-36.49,10.922-70.528,11.361-101.236c0,0,40.405-32.036,119.83-13.487  c2.722,36.94,2.126,78.289-6.625,116.41h-25.163l-0.135,0.011C271.841,446.928,265.26,418.841,241.605,407.57z"/>
<path style="fill:#B3B3B3;" d="M304.911,353.408c-39.291-9.179-69.032-5.973-89.054-0.394  c-20.461,5.703-30.776,13.881-30.776,13.881c0.36-24.544-1.069-46.962-3.431-66.827l-0.72-1.879  c12.508-4.893,25.455-10.36,36.603-11.44c7.806-0.754,14.735,0.641,20.011,5.917c0,0-6.659-8.886-18.594-16.603  c-10.484-6.772-25.039-12.643-42.733-10.787l11.822-33.644c9.921,6.13,22.013,10.877,36.67,12.958  c5.309,0.765,10.956,1.17,16.963,1.17c7.165,0,13.791-0.765,19.91-2.193c9.111-0.315,17.255-1.384,24.522-3.082v0.011  c0,0,2.913,10.259,6.524,27.323c2.137,10.101,4.511,22.576,6.693,36.715C301.582,319.281,303.629,335.85,304.911,353.408z"/>
<path style="fill:#7F7F7F;" d="M229.411,487.67l4.769,15.894h-69.178c3.386-12.036,6.277-23.858,8.718-35.433h31.777  C216.712,469.155,226.172,476.883,229.411,487.67z"/>
<g>
	<path style="fill:#999999;" d="M211.335,241.79c0,0,0,0.011,0.011,0.011c-8.853-2.486-16.58-6.007-23.307-10.169v-0.011   c-13.566-8.391-23.127-19.37-29.741-29.741c-9.629-15.062-13.768-32.98-12.306-50.798c1.575-19.235,4.308-46.884,7.289-52.485   c-18.976-23.397-15.433-51.417-9.651-69.943c3.791-12.148,8.549-20.214,8.549-20.214c25.849,17.199,38.245,34.432,44.105,47.952   c13.622-6.94,29.044-10.855,45.388-10.855C241.672,45.538,137.039,141.15,211.335,241.79z"/>
	<path style="fill:#999999;" d="M217.533,286.75c-2.385,20.045-3.656,43.194-1.676,66.265   c-20.461,5.703-30.776,13.881-30.776,13.881c0.36-24.544-1.069-46.962-3.431-66.827l-0.72-1.879   C193.439,293.297,206.386,287.83,217.533,286.75z"/>
</g>
<path style="fill:#B3B3B3;" d="M176.217,265.277c37.829-3.959,61.327,27.39,61.327,27.39c-12.801-12.801-35.343-2.79-56.614,5.523  c-15.174,5.928-29.685,10.99-39.55,6.277c-38.807-18.549,16.918-102.586,16.918-102.586c6.614,10.371,16.175,21.35,29.741,29.741  v0.011L176.217,265.277z"/>
<path style="fill:#999999;" d="M224.71,244.591c-1.833,8.29-3.959,19.089-5.759,31.473c-10.484-6.772-25.039-12.643-42.733-10.787  l11.822-33.644C197.961,237.763,210.053,242.51,224.71,244.591z"/>
<path d="M256.783,131.602c4.659,0,8.436-3.777,8.436-8.436v-16.872c0-4.659-3.777-8.436-8.436-8.436  c-4.659,0-8.436,3.777-8.436,8.436v16.872C248.347,127.825,252.124,131.602,256.783,131.602z"/>
<path d="M292.214,131.602c4.659,0,8.436-3.777,8.436-8.436v-16.872c0-4.659-3.777-8.436-8.436-8.436s-8.436,3.777-8.436,8.436  v16.872C283.778,127.825,287.555,131.602,292.214,131.602z"/>
<path d="M391.067,311.195l-17.829-23.587c-0.001-0.001-0.001-0.002-0.002-0.003c-1.24-1.652-29.175-38.073-74.163-29.99  c-1.085-4.756-2.058-8.743-2.846-11.855c4.395-1.094,8.078-2.22,10.504-3.327c39.427-17.992,46.473-56.148,47.164-77.292  c0.381-11.703-5.201-23.075-14.932-30.421c-4.408-3.327-8.417-8.413-11.928-15.127c-0.575-3.937-1.297-7.751-2.139-11.457  c11.143-11.836,17.676-26.028,19.408-42.276c0.494-4.633-2.862-8.788-7.495-9.282c-4.625-0.496-8.788,2.86-9.282,7.495  c-0.967,9.071-3.895,17.316-8.712,24.653c-1.074-2.613-2.218-5.156-3.46-7.594c-6.259-12.286-14.489-22.092-24.465-29.309  c6.4-10.793,16.12-21.103,29.044-30.779c1.917,4.496,4.132,10.543,5.733,17.468c1.051,4.54,5.582,7.368,10.12,6.319  c4.54-1.049,7.369-5.58,6.319-10.12c-4.054-17.523-11.361-30.033-11.67-30.558c-1.177-1.995-3.123-3.42-5.381-3.937  c-2.258-0.517-4.63-0.084-6.559,1.2c-19.188,12.769-33.378,26.922-42.327,42.158c-10.244-4.283-21.789-6.475-34.495-6.475  c-14.455,0-28.374,2.768-41.496,8.22c-7.462-13.347-20.546-28.75-43.326-43.907c-1.928-1.283-4.304-1.719-6.559-1.199  c-2.259,0.517-4.205,1.941-5.381,3.937c-0.432,0.732-10.614,18.203-13.543,40.96c-2.708,21.031,1.588,39.646,12.489,54.995  c-1.567,6.17-3.737,19.416-6.271,50.281c-1.476,17.969,2.361,35.971,10.817,51.305c-9.436,15.135-35.698,60.925-27.67,89.978  c2.557,9.254,8.439,16.311,17.01,20.411c3.998,1.912,8.28,2.714,12.796,2.713c7.363,0,15.341-2.139,23.675-5.072  c2.839,28.262,3.25,57.132,1.201,85.954c-0.331,4.647,3.169,8.683,7.817,9.013c0.204,0.015,0.406,0.022,0.607,0.022  c4.387,0,8.09-3.395,8.406-7.839c0.602-8.468,0.995-16.94,1.188-25.401c10.191-6.137,45.095-23.137,103.426-11.189  c2.036,32.518,1.328,67.972-5.387,101.097h-10.644c-2.211-21.205-9.472-44.822-29.138-57.78c2.724-9.578,4.426-19.665,4.426-29.956  c0-4.659-3.777-8.436-8.436-8.436c-4.659,0-8.436,3.777-8.436,8.436c0,38.555-29.057,75.913-37.591,86.051h-17.648  c2.431-12.72,4.413-25.474,5.912-38.194c0.546-4.628-2.764-8.82-7.39-9.365c-4.63-0.544-8.82,2.764-9.365,7.39  c-3.22,27.325-8.697,54.831-16.278,81.752c-0.717,2.542-0.199,5.273,1.395,7.38c1.595,2.106,4.084,3.343,6.725,3.343h69.178  c2.667,0,5.177-1.261,6.768-3.4c1.593-2.139,2.079-4.905,1.313-7.46l-4.768-15.894c-2.824-9.416-9.19-16.999-17.469-21.418  c7.317-9.485,17.951-24.983,25.783-43.577c26.956,22.86,17.286,81.231,17.176,81.862c-0.427,2.453,0.252,4.971,1.854,6.876  c1.603,1.907,3.966,3.007,6.457,3.007h60.739c2.456,0,4.79-1.071,6.393-2.931c1.603-1.86,2.315-4.328,1.951-6.757l-1.539-10.26  c-2.395-15.964-14.723-27.995-30.233-30.277c10.084-52.372,6.345-108.764,0.151-151.834c3.097-1.247,6.216-2.56,9.278-3.856  c14.116-5.977,29.841-12.629,38.697-9.711l-3.447,12.635c-1.226,4.496,1.424,9.134,5.919,10.359  c4.498,1.225,9.133-1.424,10.359-5.919l0.544-1.997l7.499,9.92c1.659,2.195,4.182,3.35,6.737,3.35c1.772,0,3.559-0.557,5.081-1.708  C393.14,320.203,393.876,314.912,391.067,311.195z M221.332,490.093l1.511,5.035h-46.815c1.603-6.164,3.098-12.354,4.486-18.56  h24.489C212.706,477.377,219.1,482.654,221.332,490.093z M192.786,81.275l0.019-0.108l16.602,3.013  c0.145-0.798,1.634-9.917-2.524-23.375c11.002-4.532,22.67-6.831,34.79-6.831c27.145,0,46.876,11.714,58.645,34.817  c4.971,9.757,8.403,21.372,10.2,34.524c0.125,0.916,0.4,1.804,0.813,2.631c4.828,9.655,10.704,17.136,17.464,22.239  c5.359,4.046,8.437,10.179,8.234,16.405c-0.29,8.891-1.594,16.613-3.615,23.344c-9.763-1.517-17.266-9.956-17.266-20.137  c0-0.396-0.037-0.783-0.09-1.164h5.15c4.659,0,8.436-3.777,8.436-8.436s-3.777-8.436-8.436-8.436h-28.282  c-4.659,0-8.436,3.777-8.436,8.436s3.777,8.436,8.436,8.436h6.439c-0.053,0.381-0.09,0.768-0.09,1.164  c0,11.251-9.154,20.405-20.405,20.405c-11.251,0-20.405-9.153-20.405-20.405c0-4.659-3.777-8.436-8.436-8.436  s-8.436,3.777-8.436,8.436c0,20.554,16.722,37.277,37.277,37.277c11.611,0,22-5.336,28.841-13.685  c4.782,5.835,11.3,10.19,18.753,12.289c-7.43,12.122-17.614,19.239-26.74,23.404c-9.017,4.115-50.971,10.242-58.053,10.242  c-41.923,0-64.611-21.743-76.264-39.984c-8.428-13.193-12.337-29.379-11.008-45.572c1.449-17.635,2.754-29.031,3.803-36.38  c1.913,1.577,3.914,3.107,6.021,4.575c1.47,1.025,3.152,1.516,4.817,1.516c2.666,0,5.289-1.26,6.929-3.613  c2.665-3.822,1.726-9.081-2.097-11.745c-24.208-16.873-28.191-39.572-25.936-58.378c6.536,8.728,14.576,20.291,19.663,30.561  c1.472,2.972,4.46,4.693,7.567,4.693c1.258,0,2.534-0.282,3.738-0.879c4.174-2.067,5.883-7.129,3.815-11.305  c-8.396-16.949-23.32-36.145-29.672-43.998c0.78-2.142,1.568-4.094,2.314-5.817C196.745,51.958,192.979,80.028,192.786,81.275z   M145.021,296.861c-4.205-2.011-6.755-5.085-8.025-9.677c-2.854-10.314,1.049-27.787,10.988-49.202  c3.733-8.045,7.718-15.363,10.927-20.912c5.125,6.247,11.387,12.444,18.998,17.933l-7.962,22.67  c-4.279,0.764-8.566,1.894-12.842,3.422c-4.388,1.567-6.675,6.395-5.108,10.782c1.567,4.388,6.397,6.676,10.782,5.108  c18.632-6.655,34.248-3.146,45.804,2.742c-8.945,2.029-18.176,5.668-26.933,9.12C167.933,294.255,152.388,300.386,145.021,296.861z   M193.514,352.263c-0.227-16.382-1.225-32.679-2.99-48.776c14.325-5.623,28.682-10.868,37.325-7.315l-3.498,12.829  c-1.226,4.495,1.424,9.133,5.92,10.359c4.496,1.224,9.133-1.425,10.359-5.92l2.175-7.977c3.564,2.731,6.557,6.06,6.557,9.133  c0,4.659,3.777,8.436,8.436,8.436s8.436-3.777,8.436-8.436c0-16.093-17.113-25.783-23.395-28.796  c-3.016-3.559-10.624-11.732-22.071-18.528c-10.403-6.175-21.388-9.679-32.612-10.53l4.551-12.959  c13.162,6.308,29.278,10.416,48.965,10.416c4.731,0,22.008-2.105,37.992-4.98c3.534,14.112,11.754,50.062,15.828,93.604  C245.1,333.51,210.993,343.978,193.514,352.263z M322.152,494.552l0.085,0.571h-41.38c0.426-4.524,0.793-10.338,0.804-16.872h16.628  h4.935C312.775,478.253,320.734,485.108,322.152,494.552z M311.454,290.544c-1.837,0.777-3.625,1.531-5.393,2.267  c-1.145-6.711-2.314-12.959-3.452-18.652c14.615-2.422,26.958,1.229,36.388,6.35C329.887,282.739,320.418,286.748,311.454,290.544z"/>
<g>
</g>
<g>
</g>
<g>
</g>
<g>
</g>
<g>
</g>
<g>
</g>
<g>
</g>
<g>
</g>
<g>
</g>
<g>
</g>
<g>
</g>
<g>
</g>
<g>
</g>
<g>
</g>
<g>
</g>
</svg>
