<?xml version="1.0" encoding="iso-8859-1"?>
<!-- Generator: Adobe Illustrator 19.0.0, SVG Export Plug-In . SVG Version: 6.00 Build 0)  -->
<svg xmlns="http://www.w3.org/2000/svg" xmlns:xlink="http://www.w3.org/1999/xlink" version="1.1" id="Layer_1" x="0px" y="0px" viewBox="0 0 512.003 512.003" style="enable-background:new 0 0 512.003 512.003;" xml:space="preserve">
<g>
	<path style="fill:#7DA9B5;" d="M244.684,428.738l-36.453-1.676l-29.094-1.332l-33.241-1.526l-18.318-0.838   c0-6.822,1.526-14.547,3.696-22.078c3.019,0.43,6.102,0.645,9.229,0.645c25.14,0,47.014-13.978,58.263-34.584l0.011,0.011   l31.941,1.214C243.609,395.432,244.684,428.738,244.684,428.738z"/>
	<path style="fill:#7DA9B5;" d="M263.84,263.886c4.34,8.337,8.778,20.596,8.778,35.927c0,16.255-10.669,26.247-21.326,36.733   c-9.057,8.917-18.103,18.2-20.574,32.027l-31.941-1.214l-0.011-0.011c5.157-9.433,8.079-20.252,8.079-31.758   c0-26.945-16.062-50.141-39.15-60.541c-0.483-11.764,0.795-21.122,9.164-29.491c6.833,3.878,14.203,6.93,21.96,9.025   c0.118,0.881,5.329,39.859,30.824,39.859c25.785,0,34.186-30.544,34.186-30.544L263.84,263.886z"/>
</g>
<g>
	<path style="fill:#FFD0B8;" d="M179.136,425.729c0,0,4.308,47.348-32.22,78.214c0,0,3.341-61.712-1.021-79.74L179.136,425.729z"/>
	<path style="fill:#FFD0B8;" d="M208.23,427.062l36.453,1.676c0,0-6.446,40.826-22.562,75.206L208.23,427.062z"/>
	<path style="fill:#FFD0B8;" d="M272.617,299.813c0,23.636,31.157,49.421,31.157,49.421c-38.677,11.818-52.483-12.688-52.483-12.688   C261.949,326.06,272.617,316.068,272.617,299.813z"/>
	<path style="fill:#FFD0B8;" d="M263.84,263.886l-0.011,0.011c0,0-8.402,30.544-34.186,30.544   c-25.495,0-30.706-38.978-30.824-39.859c7.972,2.159,16.363,3.309,25.022,3.309c12.14,0,22.68-2.267,31.705-6.403   C255.546,251.488,259.65,255.871,263.84,263.886z"/>
</g>
<g>
	<path style="fill:#874B31;" d="M160.894,234.244c0,0-30.469,21.101-74.518,21.101c0,0,37.807-26.43,37.807-48.669v-0.011   c4.469-1.193,8.745-2.632,12.849-4.255C142.694,214.637,150.87,225.477,160.894,234.244z"/>
	<path style="fill:#874B31;" d="M215.354,124.411c0,0-23.024,56.179-78.322,77.999c-4.104,1.622-8.38,3.062-12.849,4.255   c-10.045,2.718-21.004,4.287-32.929,4.287c0,0,33.359-27.053,38.624-66.525h0.011C129.887,144.427,164.686,126.786,215.354,124.411   z"/>
</g>
<path style="fill:#FFD0B8;" d="M299.046,162.272c0,40.665-13.279,75.399-43.501,89.216c-9.025,4.136-19.564,6.403-31.705,6.403  c-8.659,0-17.05-1.15-25.022-3.309c-4.212-1.139-8.316-2.557-12.269-4.244c-3.331-1.407-6.575-3.019-9.691-4.781  c-5.716-3.212-11.066-7.016-15.965-11.313c-10.024-8.767-18.2-19.607-23.862-31.834c55.298-21.82,78.322-77.999,78.322-77.999  c3.374-0.161,6.822-0.258,10.335-0.258c21.681-0.086,45.833,2.783,71.145,10.905C298.325,143.686,299.046,152.818,299.046,162.272z"/>
<path style="fill:#E8BB54;" d="M185.948,84.122c0,2.364-0.322,4.77-0.978,7.166c-1.139,4.147-3.234,7.735-5.995,10.669  c-4.609,4.899-11.088,8.036-18.168,9.068c-11.968,1.74-20.757,1.429-27.214,0.032c-18.157-3.911-17.835-16.449-17.835-16.449  c-30.082,0-23.636-32.231-23.636-32.231c-17.19,0-23.636-32.231-23.636-32.231l92.342,26.494l5.608,1.612  C178.234,61.636,185.948,72.401,185.948,84.122z"/>
<g>
	<path style="fill:#7DA9B5;" d="M296.833,135.005c0,0.032,0,0.054,0,0.054c-29.406-9.433-57.253-11.786-81.48-10.647   c-4.813,0.226-9.476,0.591-13.988,1.064c-42.975,4.502-71.478,18.952-71.478,18.952c0-12.173,1.354-23.282,3.707-33.37   c6.457,1.397,15.245,1.708,27.214-0.032c7.08-1.031,13.559-4.169,18.168-9.068c0,0,7.155-2.245,18.511-4.222   c23.024-3.986,63.291-6.876,96.049,12.302C296.756,123.992,296.833,134.145,296.833,135.005z"/>
	<path style="fill:#7DA9B5;" d="M293.533,110.036c-32.758-19.178-73.025-16.287-96.049-12.302   c-11.356,1.977-18.511,4.222-18.511,4.222c2.761-2.933,4.856-6.521,5.995-10.669c0.655-2.396,0.978-4.802,0.978-7.166   c0-11.721-7.714-22.487-19.511-25.871l-5.608-1.612c20.155-23.84,42.717-33.477,42.717-33.477   c4.727,0.892,9.207,1.977,13.462,3.234C269.242,41.792,287.302,83.016,293.533,110.036z"/>
	<polygon style="fill:#7DA9B5;" points="441.82,163.583 443.518,190.711 339.046,344.442 311.499,325.727 415.971,171.995  "/>
</g>
<path style="fill:#B7A57D;" d="M140.502,316.101c10.765,0,19.5,8.724,19.5,19.489c0,10.765-8.735,19.5-19.5,19.5  c-10.754,0-19.489-8.735-19.489-19.5C121.013,324.824,129.748,316.101,140.502,316.101z"/>
<path style="fill:#E2B39F;" d="M186.549,250.338c-3.331-1.407-6.575-3.019-9.691-4.781c-5.716-3.212-11.066-7.016-15.965-11.313  c-10.024-8.767-18.2-19.607-23.862-31.834c55.298-21.82,78.322-77.999,78.322-77.999c3.374-0.161,6.822-0.258,10.335-0.258  l1.805,3.76C227.492,127.914,164.813,219.235,186.549,250.338z"/>
<path style="fill:#E8BB54;" d="M167.694,275.049c23.088,10.4,39.15,33.596,39.15,60.541c0,11.507-2.922,22.325-8.079,31.758  c-11.249,20.606-33.123,34.584-58.263,34.584c-3.126,0-6.21-0.215-9.229-0.645c-32.263-4.48-57.103-32.188-57.103-65.698  c0-36.636,29.696-66.342,66.332-66.342C150.193,269.247,159.4,271.321,167.694,275.049z M160.002,335.59  c0-10.765-8.735-19.489-19.5-19.489c-10.754,0-19.489,8.724-19.489,19.489c0,10.765,8.735,19.5,19.489,19.5  C151.267,355.089,160.002,346.355,160.002,335.59z"/>
<path style="fill:#69949E;" d="M197.486,97.735c0.021,9.057,1.139,18.436,3.878,27.74c-42.975,4.502-71.478,18.952-71.478,18.952  c0-12.173,1.354-23.282,3.707-33.37c6.457,1.397,15.245,1.708,27.214-0.032c7.08-1.031,13.559-4.169,18.168-9.068  c2.761-2.933,4.856-6.521,5.995-10.669c0.655-2.396,0.978-4.802,0.978-7.166c0-11.721-7.714-22.487-19.511-25.871l-5.608-1.612  c20.155-23.84,42.717-33.477,42.717-33.477c4.727,0.892,9.207,1.977,13.462,3.234C217.006,26.396,197.409,59.39,197.486,97.735z"/>
<path d="M267.029,196.364c-10,9.998-26.267,9.999-36.27,0c-3.146-3.148-8.248-3.147-11.395,0s-3.147,8.249,0.001,11.395  c8.141,8.142,18.835,12.211,29.528,12.211c10.694,0,21.389-4.071,29.529-12.211c3.148-3.147,3.148-8.248,0.001-11.395  C275.278,193.217,270.175,193.216,267.029,196.364z"/>
<path d="M227.68,175.303c4.451,0,8.058-3.608,8.058-8.058v-15.041c0-4.45-3.607-8.058-8.058-8.058s-8.058,3.608-8.058,8.058v15.041  C219.622,171.695,223.23,175.303,227.68,175.303z"/>
<path d="M273.312,144.146c-4.451,0-8.058,3.608-8.058,8.058v15.041c0,4.45,3.607,8.058,8.058,8.058s8.058-3.608,8.058-8.058v-15.041  C281.369,147.754,277.763,144.146,273.312,144.146z"/>
<path d="M158.194,91.385c3.715,0,7.008-2.633,7.845-6.242c0.748-3.222-0.615-6.689-3.376-8.52c-2.919-1.935-6.87-1.75-9.579,0.478  c-2.658,2.185-3.637,5.912-2.406,9.126C151.857,89.298,154.903,91.385,158.194,91.385z"/>
<path d="M169.26,300.973c-3.416,2.869-3.857,7.95-0.988,11.356c1.589,1.902,3.868,2.879,6.167,2.879  c1.826,0,3.664-0.623,5.177-1.891c3.406-2.858,3.858-7.94,1-11.345C177.748,298.556,172.666,298.114,169.26,300.973z"/>
<path d="M114.209,380.853c1.279,0.741,2.675,1.096,4.051,1.096c2.772,0,5.479-1.44,6.973-4.007  c2.234-3.846,0.934-8.778-2.913-11.023c-3.845-2.235-8.778-0.935-11.023,2.912C109.063,373.676,110.363,378.607,114.209,380.853z"/>
<path d="M146.698,371.291c-4.383,0.752-7.327,4.921-6.575,9.304c0.677,3.921,4.083,6.693,7.929,6.693  c0.451,0,0.914-0.043,1.375-0.118c4.383-0.752,7.327-4.921,6.575-9.315C155.25,373.472,151.081,370.528,146.698,371.291z"/>
<path d="M114.392,290.23c-3.857,2.224-5.177,7.155-2.955,11.012c1.494,2.589,4.201,4.029,6.983,4.029  c1.366,0,2.751-0.344,4.018-1.074c3.857-2.224,5.178-7.155,2.955-11.012S118.25,288.006,114.392,290.23z"/>
<path d="M168.176,358.968c-2.88,3.395-2.45,8.488,0.945,11.356c1.515,1.279,3.363,1.902,5.2,1.902c2.288,0,4.555-0.967,6.156-2.847  c2.869-3.395,2.449-8.488-0.947-11.356C176.125,355.143,171.043,355.572,168.176,358.968z"/>
<path d="M96.117,343.078c-4.189,1.515-6.35,6.135-4.835,10.314c1.183,3.277,4.276,5.318,7.574,5.318c0.914,0,1.837-0.15,2.741-0.483  c4.189-1.504,6.348-6.124,4.835-10.314C104.917,343.723,100.296,341.562,96.117,343.078z"/>
<path d="M101.682,312.802c-4.179-1.526-8.798,0.623-10.334,4.802c-1.527,4.179,0.622,8.81,4.802,10.335  c0.913,0.333,1.848,0.494,2.772,0.494c3.277,0,6.371-2.02,7.564-5.297c0,0.011,0,0.011,0,0.011  C108.011,318.958,105.862,314.339,101.682,312.802z"/>
<path d="M146.838,299.93c0.473,0.075,0.945,0.118,1.409,0.118c3.834,0,7.24-2.75,7.929-6.661c0.774-4.383-2.161-8.563-6.543-9.336  c-4.383-0.774-8.564,2.16-9.336,6.543C139.532,294.978,142.454,299.158,146.838,299.93z"/>
<path d="M184.784,343.83c4.426,0,8.035-3.588,8.058-8.026c0-0.043,0-0.086,0-0.118s0-0.064,0-0.097c0-4.448-3.61-8.058-8.058-8.058  c-4.449,0-8.047,3.599-8.058,8.036c0,0.011,0,0.021,0,0.021c0,0.032,0,0.064,0,0.097c0,0.021,0,0.032,0,0.054  c-0.023,4.448,3.567,8.069,8.026,8.09C184.763,343.83,184.775,343.83,184.784,343.83z"/>
<path d="M112.958,335.594c0,15.191,12.358,27.548,27.549,27.548s27.548-12.357,27.548-27.548c0-15.191-12.357-27.548-27.548-27.548  S112.958,320.403,112.958,335.594z M140.507,324.162c6.303,0,11.432,5.128,11.432,11.432c0,6.304-5.128,11.432-11.432,11.432  s-11.433-5.128-11.433-11.432C129.074,329.29,134.202,324.162,140.507,324.162z"/>
<path d="M451.559,190.208l-1.696-27.131c-0.156-2.486-1.453-4.762-3.513-6.162c-2.062-1.401-4.654-1.767-7.023-0.998l-25.852,8.412  c-1.699,0.553-3.166,1.656-4.171,3.134l-43.059,63.364c-2.501,3.681-1.545,8.692,2.135,11.193c3.682,2.502,8.692,1.545,11.194-2.136  l41.509-61.083l13.343-4.343l0.876,14.003l-98.389,144.785l-14.218-9.662l42.778-62.953c2.501-3.681,1.545-8.692-2.135-11.193  c-3.682-2.502-8.693-1.545-11.194,2.136l-42.779,62.952l-2.221-1.509c-3.681-2.502-8.693-1.545-11.194,2.136  s-1.545,8.692,2.135,11.193l8.882,6.036c0.001,0.001,0.003,0.002,0.004,0.003l3.775,2.566c-2.656,0.459-5.058,1.652-6.994,3.368  c-2.64-2.556-5.993-6.015-9.356-10.074c-8.979-10.837-13.725-20.669-13.725-28.433c0-21.033-7.547-36.826-13.197-45.706  c7.852-5.003,14.686-11.548,20.349-19.58c12.609-17.883,19.273-42.867,19.273-72.255c0-9.77-0.747-19.146-2.214-27.885  c-0.063-4.359-0.945-27.098-12.106-51.935c-10.911-24.281-33.935-54.937-81.881-65.969l-1.066-9.337  c-0.505-4.423-4.495-7.593-8.919-7.093c-4.421,0.505-7.596,4.498-7.092,8.919l1.083,9.491c-7.737,4.171-22.482,13.357-36.76,29.027  L70.708,22.401c-2.704-0.776-5.614-0.087-7.681,1.818c-2.068,1.905-2.993,4.75-2.442,7.507c0.684,3.42,6.448,29.764,22.88,36.92  c-0.097,6.603,1.071,16.059,7.202,23.536c3.252,3.968,8.994,8.568,18.641,10.021c1.152,2.857,3.125,6.116,6.499,9.113  c2.393,2.126,5.216,3.867,8.448,5.236c-1.562,8.739-2.375,17.841-2.414,27.167c-4.927,35.508-35.365,60.736-35.663,60.98  c-2.65,2.149-3.658,5.735-2.518,8.951c1.14,3.216,4.183,5.365,7.594,5.365c7.284,0,14.442-0.568,21.448-1.69  c-6.514,11.527-20.938,24.404-30.944,31.416c-2.884,2.016-4.126,5.668-3.068,9.024c1.055,3.355,4.167,5.638,7.685,5.638  c35.816,0,62.97-13.078,73.891-19.319c1.583,1.227,3.191,2.418,4.84,3.552c-3.09,5.225-4.571,10.674-5.181,16.147  c-6.194-1.676-12.698-2.586-19.415-2.586c-11.729,0-22.956,2.654-33.371,7.888c-3.976,1.998-5.579,6.842-3.581,10.818  c1.998,3.976,6.836,5.58,10.818,3.581c8.148-4.096,16.941-6.171,26.133-6.171c32.138,0,58.284,26.146,58.284,58.285  s-26.146,58.285-58.284,58.285s-58.285-26.146-58.285-58.285c0-15.568,6.063-30.204,17.072-41.213  c3.147-3.147,3.147-8.249-0.001-11.396c-3.146-3.147-8.248-3.146-11.395,0c-14.052,14.054-21.79,32.737-21.79,52.609  c0,34.423,23.504,63.45,55.303,71.904c-1.247,5.835-1.892,11.157-1.892,15.867c0,4.306,3.386,7.853,7.688,8.049l6.406,0.293  c2.078,18.045,0.696,56.789-0.117,71.799c-0.173,3.211,1.578,6.218,4.456,7.651c1.139,0.566,2.367,0.843,3.588,0.843l0,0l0,0h18.264  c4.451,0,8.058-3.608,8.058-8.058c0-4.254-3.3-7.731-7.48-8.029c17.763-22.79,21.123-48.663,21.553-61.989l14.088,0.647  l12.793,70.804c0.624,3.452,3.409,6.104,6.887,6.558c0.35,0.045,0.699,0.068,1.046,0.068c0.002,0,0.004,0,0.008,0h18.254  c4.451,0,8.058-3.608,8.058-8.058s-3.607-8.058-8.058-8.058h-6.001c9.528-23.753,14.863-47.854,17.06-59.218  c1.6-0.28,3.094-1.034,4.271-2.194c1.599-1.577,2.467-3.751,2.395-5.996c-0.045-1.387-1.212-33.309-13.57-60.836  c1.925-7.452,6.382-13.466,11.73-19.204c6.077,5.613,16.619,12.124,32.862,12.124c3.581,0,7.45-0.332,11.597-1.044l-2.358,3.191  c-2.645,3.579-1.889,8.624,1.69,11.269c1.441,1.065,3.119,1.578,4.783,1.578c2.469,0,4.906-1.131,6.486-3.268l6.735-9.112  c0.162,0.005,0.32,0.025,0.483,0.025c7.849,0,14.235-6.386,14.235-14.235c0-0.992-0.103-1.959-0.298-2.894l16.295,11.074  c1.387,0.942,2.963,1.395,4.522,1.395c2.578,0,5.113-1.236,6.672-3.53c2.501-3.681,1.545-8.692-2.135-11.193l-2.222-1.509  l99.938-147.066C451.185,193.762,451.671,191.991,451.559,190.208z M255.044,264.706c-2.534,6.577-10.025,21.678-25.404,21.678  c-10.953,0-16.997-11.955-20.07-21.439c4.69,0.656,9.452,1.003,14.265,1.003c10.488,0,20.202-1.602,29.017-4.726  C253.527,262.22,254.268,263.378,255.044,264.706z M223.836,249.832c-31.245,0-60.119-16.852-75.687-43.537  c16.171-7.691,31.084-18.797,44.315-33.149c15.181-16.465,24.208-32.839,28.095-40.771c20.935-0.572,44.425,1.61,69.067,8.898  c0.898,6.648,1.36,13.684,1.36,20.997C290.984,188.599,284.441,249.832,223.836,249.832z M121.759,88.902  c-1.528-1.693-3.722-2.352-6.001-2.352c-5.946,0-10.067-1.488-12.599-4.548c-4.385-5.3-3.745-14.848-3.136-18.045  c0.473-2.367-0.14-4.822-1.671-6.689c-1.53-1.867-3.817-2.949-6.231-2.949c-4.332,0-8.346-5.709-11.298-12.25l83.387,23.928h-0.001  c9.895,2.84,15.725,13.226,12.996,23.151c-2.005,7.293-8.732,12.617-17.555,13.898c-21.093,3.062-29.605-0.871-32.802-3.488  c-2.527-2.068-2.952-4.262-3.022-4.88C124.014,92.469,123.255,90.56,121.759,88.902z M145.739,120.266  c4.965,0,10.376-0.424,16.227-1.273c8.359-1.213,15.665-4.714,21.189-9.852c5.418-1.487,22.679-5.76,43.652-6.224  c4.449-0.098,7.976-3.785,7.877-8.234c-0.097-4.388-3.685-7.879-8.052-7.879c-0.06,0-0.12,0-0.182,0.002  c-12.846,0.284-24.308,1.85-33.001,3.475c2.689-15.107-4.936-30.218-18.315-37.189c12.568-12.279,24.714-19.094,29.471-21.506  c34.674,7.211,59.307,26.36,73.238,56.945c1.003,2.204,1.906,4.391,2.733,6.553c-7.594-2.82-15.7-4.959-24.293-6.343  c-4.407-0.71-8.529,2.282-9.236,6.674c-0.708,4.394,2.281,8.528,6.674,9.236c12.129,1.952,23.101,5.544,32.701,10.658  c0.65,3.213,1.125,6.163,1.465,8.736c-44.09-11.695-83.798-8.349-110.183-3.147c-16.86,3.324-30.323,7.724-39.247,11.123  c0.341-4.068,0.872-8.056,1.55-11.966C141.848,120.191,143.753,120.266,145.739,120.266z M137.152,149.967  c8.691-3.75,32.362-12.838,64.421-16.306c-4.532,7.833-11.561,18.444-21.323,28.955c-19.663,21.175-42.54,34.08-68.221,38.528  C121.766,189.343,133.144,171.631,137.152,149.967z M131.56,212.841c0.497-0.158,0.996-0.309,1.492-0.474  c4.076,7.369,9.006,14.125,14.618,20.183c-7.788,3.959-20.471,9.342-36.522,12.386C120.077,235.998,129.071,224.527,131.56,212.841z   M140.507,409.993c26.307,0,49.452-13.738,62.684-34.404l22.21,0.844c6.691,15.91,9.443,33.569,10.534,43.835l-99.67-4.571  c0.276-1.832,0.642-3.761,1.099-5.784C138.407,409.958,139.454,409.993,140.507,409.993z M150.495,482.096  c0.454-15.568,0.659-35.779-0.626-49.641l15.95,0.732C165.491,443.41,163.093,463.631,150.495,482.096z M229.733,436.117  c-1.773,8.706-5.056,23.018-10.111,38.409l-7.082-39.197L229.733,436.117z M224.543,360.274l-13.686-0.52  c2.611-7.581,4.049-15.704,4.049-24.16c0-28.31-15.896-52.971-39.23-65.542c0.096-6.286,1.085-10.66,3.339-14.37  c4.119,1.981,8.371,3.699,12.736,5.128c2.609,12.279,11.602,41.688,37.89,41.688c13.165,0,24.606-6.358,33.12-18.377  c1.097,4.719,1.797,9.97,1.797,15.691c0,12.389-8.318,20.566-17.948,30.033C238.248,338.065,228.931,347.224,224.543,360.274z   M262.273,336.997c3.603-3.658,7.162-7.559,10.175-11.921c2.565,4.375,5.738,8.861,9.54,13.452c1.709,2.062,3.415,3.988,5.048,5.749  C274.316,345.074,266.495,340.654,262.273,336.997z"/>
<g>
</g>
<g>
</g>
<g>
</g>
<g>
</g>
<g>
</g>
<g>
</g>
<g>
</g>
<g>
</g>
<g>
</g>
<g>
</g>
<g>
</g>
<g>
</g>
<g>
</g>
<g>
</g>
<g>
</g>
</svg>
