<?xml version="1.0" encoding="iso-8859-1"?>
<!-- Generator: Adobe Illustrator 19.0.0, SVG Export Plug-In . SVG Version: 6.00 Build 0)  -->
<svg xmlns="http://www.w3.org/2000/svg" xmlns:xlink="http://www.w3.org/1999/xlink" version="1.1" id="Layer_1" x="0px" y="0px" viewBox="0 0 512 512" style="enable-background:new 0 0 512 512;" xml:space="preserve">
<path style="fill:#24BC57;" d="M308.566,419.54l-14.494-14.224l-16.453-16.16l-31.51,34.886l-24.454-36.934l-3.117-4.704  l-24.758,36.011c-20.256-48.39-7.281-93.505-7.281-93.505s13.268,8.069,35.426,14.652c25.467,7.574,62.659,13.212,104.927,2.431  C343.271,390.101,308.566,419.54,308.566,419.54z"/>
<g>
	<path style="fill:#FFD0B8;" d="M377.341,379.9c0,0-24.476-64.448-65.079-87.766c-0.878-9.498-0.619-20.459,0.214-31.24   C337.785,274.073,377.341,306.427,377.341,379.9z"/>
	<path style="fill:#FFD0B8;" d="M326.864,341.993h-0.011c-42.268,10.781-79.461,5.143-104.927-2.431   c-22.158-6.583-35.426-14.652-35.426-14.652c0.506-6.82,1.328-13.47,2.397-19.919c-30.294,28.28-48.007,74.925-48.007,74.925   c0-67.442,33.333-100.234,58.372-115.359v-0.011c5.897-17.004,12.851-31.453,18.928-42.482c8.17,8.057,17.735,14.72,28.28,19.581   c0,0,0,0,0,0.011c12.761,5.908,26.986,9.205,41.975,9.205c9.352,0,17.78-1.283,25.354-3.68c-0.518,4.456-0.979,9.07-1.317,13.718   c-0.833,10.781-1.092,21.742-0.214,31.24c0.664,7.101,1.981,13.392,4.175,18.186C320.956,320.139,324.849,331.01,326.864,341.993z"/>
	<path style="fill:#FFD0B8;" d="M367.219,150.707c0,45.97-16.205,84.705-53.42,96.476c-7.574,2.397-16.002,3.68-25.354,3.68   c-15.057,0-29.338-3.32-42.144-9.284c-10.477-4.873-19.975-11.49-28.111-19.513c-3.849-3.781-7.394-7.889-10.601-12.255v-0.011   c-7.506-10.229-13.099-21.944-16.284-34.616c-2.78,2.318-6.043,3.657-9.543,3.657c-10.072,0-18.231-11.085-18.231-24.758   s8.159-24.758,18.231-24.758c2.982,0,5.784,0.968,8.271,2.69l0.653-0.09c16.317-2.161,31.003-10.736,41.323-23.553   c17.432-21.629,35.91-21.517,49.301-16.756c9.217,3.263,19.468,0.957,26.716-5.604c3.32-3.005,8.147-5.199,15.17-5.199   c22.327,0,40.366,35.302,40.647,35.853c0,0.011,0,0.011,0,0.011C366.127,127.3,367.219,138.756,367.219,150.707z"/>
</g>
<path style="fill:#F4516D;" d="M363.843,116.665c-0.281-0.551-18.321-35.853-40.647-35.853c-7.022,0-11.85,2.194-15.17,5.199  c-7.247,6.561-17.499,8.868-26.716,5.604c-13.392-4.76-31.87-4.873-49.301,16.756c-8.879,11.028-20.988,18.917-34.582,22.271  c-2.206,0.551-4.456,0.979-6.741,1.283l-0.653,0.09c-2.487-1.722-5.289-2.69-8.271-2.69c-10.072,0-18.231,11.085-18.231,24.758  c0,13.673,8.159,24.758,18.231,24.758c3.5,0,6.763-1.339,9.543-3.657c3.185,12.671,8.778,24.386,16.284,34.616v0.011L176.9,245.112  c-17.443-17.443-23.07-53.454-23.07-53.454l-15.192,15.192c-16.88-78.774,25.883-116.822,25.883-116.822h-23.553  c23.632-57.381,86.078-62.445,86.078-62.445l-11.805-16.88c55.389-9.014,89.15,11.467,102.035,21.663  c3.995,3.173,5.987,5.345,5.987,5.345l3.376-18.568C383.57,41.988,364.158,115.484,363.843,116.665z"/>
<g>
	<path style="fill:#E2B39F;" d="M246.3,241.579c-10.477-4.873-19.975-11.49-28.111-19.513c-3.849-3.781-7.394-7.889-10.601-12.255   v-0.011c-7.506-10.229-13.099-21.944-16.284-34.616c-2.78,2.318-6.043,3.657-9.543,3.657c-10.072,0-18.231-11.085-18.231-24.758   s8.159-24.758,18.231-24.758c2.982,0,5.784,0.968,8.271,2.69l0.653-0.09c16.317-2.161,31.003-10.736,41.323-23.553   c17.432-21.629,35.91-21.517,49.301-16.756C281.31,91.615,200.915,165.269,246.3,241.579z"/>
	<path style="fill:#E2B39F;" d="M246.469,241.646c0,0,0,0,0,0.011c-8.361,17.848-20.976,51.541-24.544,97.905   c-22.158-6.583-35.426-14.652-35.426-14.652c0.506-6.82,1.328-13.47,2.397-19.919c-30.294,28.28-48.007,74.925-48.007,74.925   c0-67.442,33.333-100.234,58.372-115.359v-0.011c5.897-17.004,12.851-31.453,18.928-42.482   C226.359,230.123,235.925,236.785,246.469,241.646z"/>
</g>
<path style="fill:#1BA545;" d="M221.655,387.108l-3.117-4.704l-24.758,36.011c-20.256-48.39-7.281-93.505-7.281-93.505  s13.268,8.069,35.426,14.652C220.789,354.192,220.564,370.07,221.655,387.108z"/>
<path style="fill:#DB4565;" d="M317.276,32.366l-5.334,15.44c0,0-45.014-12.007-79.528-2.251l23.261,12.75  c0,0-42.583,13.392-58.248,72.337c-2.206,0.551-4.456,0.979-6.741,1.283l-0.653,0.09c-2.487-1.722-5.289-2.69-8.271-2.69  c-10.072,0-18.231,11.085-18.231,24.758c0,13.673,8.159,24.758,18.231,24.758c3.5,0,6.763-1.339,9.543-3.657  c3.185,12.671,8.778,24.386,16.284,34.616v0.011L176.9,245.112c-17.443-17.443-23.07-53.454-23.07-53.454l-15.192,15.192  c-16.88-78.774,25.883-116.822,25.883-116.822h-23.553c23.632-57.381,86.078-62.445,86.078-62.445l-11.805-16.88  C270.63,1.689,304.391,22.17,317.276,32.366z"/>
<path d="M285.336,207.601c5.42,5.42,12.626,8.405,20.291,8.405c7.667,0,14.873-2.986,20.292-8.405  c3.296-3.296,3.296-8.64-0.001-11.937c-3.295-3.296-8.639-3.295-11.935,0c-2.23,2.232-5.199,3.462-8.356,3.462  c-3.155,0-6.123-1.229-8.355-3.462c-3.296-3.295-8.64-3.296-11.935,0C282.04,198.961,282.04,204.305,285.336,207.601z"/>
<path d="M282.683,171.402c4.662,0,8.44-3.779,8.44-8.44v-18.005c0-4.661-3.778-8.44-8.44-8.44c-4.662,0-8.44,3.779-8.44,8.44v18.005  C274.243,167.623,278.022,171.402,282.683,171.402z"/>
<path d="M328.822,171.402c4.662,0,8.44-3.779,8.44-8.44v-18.005c0-4.661-3.778-8.44-8.44-8.44c-4.662,0-8.44,3.779-8.44,8.44v18.005  C320.382,167.623,324.161,171.402,328.822,171.402z"/>
<path d="M261.533,274.622c-3.076-1.442-6.814-0.888-9.321,1.415c-5.555,5.103-1.789,14.655,5.714,14.655  c4.077,0,7.643-3.046,8.323-7.051C266.871,279.972,264.902,276.201,261.533,274.622z"/>
<path d="M361.353,293c-2.648-3.837-7.903-4.803-11.741-2.155c-3.836,2.647-4.802,7.903-2.155,11.74  c5.946,8.619,10.668,18.179,14.15,28.625c-10.55-16.226-24.43-33.122-41.226-43.989c-0.198-3.61-0.257-7.558-0.173-11.817  c4.985,3.44,9.673,7.269,13.998,11.483c1.641,1.598,3.765,2.395,5.888,2.395c2.197,0,4.392-0.853,6.046-2.55  c3.253-3.339,3.182-8.682-0.156-11.935c-7.383-7.194-15.658-13.439-24.639-18.637c0.088-0.944,0.179-1.895,0.277-2.857  c13.628-5.426,25.075-14.471,33.848-26.913c13.207-18.731,20.188-44.901,20.188-75.683c0-12.006-1.076-23.375-3.173-33.846  c1.298-5.636,4.543-22.283,2.677-41.152c-3.114-31.471-18.806-53.742-45.381-64.405c-2.352-0.943-5.003-0.781-7.225,0.446  c-2.219,1.225-3.77,3.384-4.222,5.879l-0.798,4.387C300.808,10.365,266.489-6.199,213.88,2.368c-2.866,0.467-5.29,2.373-6.42,5.048  c-1.129,2.675-0.804,5.743,0.862,8.122l4.25,6.072c-4.994,1.21-11.032,2.991-17.579,5.597c-4.331,1.724-6.445,6.633-4.72,10.963  c1.722,4.33,6.633,6.446,10.962,4.72c14.658-5.835,26.399-6.893,26.498-6.902c3.015-0.244,5.668-2.084,6.956-4.821  c1.287-2.738,1.011-5.954-0.724-8.432l-3.759-5.369c57.564-4.593,85.598,24.711,86.823,26.027c2.163,2.368,5.483,3.307,8.566,2.419  c3.083-0.887,5.397-3.445,5.971-6.601l1.358-7.473c14.708,9.228,23.235,24.383,25.393,45.193c0.611,5.887,0.629,11.584,0.352,16.684  c-0.062-0.075-0.122-0.15-0.185-0.226C347.055,79.441,335.18,72.37,323.196,72.37c-8.418,0-15.428,2.485-20.839,7.386  c-5.071,4.595-12.052,6.09-18.217,3.899c-21.589-7.664-42.434-0.767-58.699,19.421c-8.682,10.775-20.604,17.868-33.752,20.15  c-3.134-1.538-6.509-2.343-9.927-2.343c-14.956,0-26.671,14.582-26.671,33.198s11.715,33.198,26.671,33.198  c1.436,0,2.858-0.138,4.254-0.412c2.764,7.843,6.428,15.3,10.928,22.311l-19.812,22.801c-10.9-16.588-14.919-41.342-14.963-41.623  c-0.491-3.14-2.702-5.737-5.722-6.722c-3.02-0.985-6.338-0.19-8.585,2.056l-3.629,3.629c-2.948-24.292-0.151-46.489,8.365-66.159  c7.695-17.775,17.466-26.762,17.534-26.824c2.618-2.328,3.525-6.033,2.278-9.308s-4.384-5.439-7.889-5.439h-9.957  c6.805-11.509,16.053-21.164,27.609-28.802c3.888-2.57,4.957-7.807,2.387-11.696c-2.57-3.888-7.807-4.956-11.696-2.387  c-18.137,11.988-31.496,28.175-39.704,48.111c-1.071,2.603-0.774,5.57,0.792,7.91c1.568,2.34,4.196,3.744,7.012,3.744h5.787  c-12.389,18.637-28.175,55.039-16.367,110.148c0.648,3.024,2.898,5.45,5.863,6.327c2.963,0.874,6.17,0.06,8.359-2.127l4.384-4.384  c3.618,12.954,10.395,31.101,21.94,42.646c1.586,1.586,3.734,2.472,5.969,2.472c0.098,0,0.197-0.001,0.296-0.005  c2.338-0.082,4.54-1.132,6.075-2.899l24.098-27.73c0.163,0.182,0.329,0.362,0.493,0.544c-6.005,11.485-11.213,23.386-15.555,35.478  c-4.58,2.918-9.359,6.372-14.14,10.461c-20.856,17.838-45.717,51.489-45.717,110.509c0,4.074,2.91,7.567,6.916,8.302  c0.512,0.093,1.023,0.14,1.527,0.14c3.449,0,6.625-2.122,7.886-5.444c0.081-0.214,8.277-21.611,22.79-43.65  c1.46-2.217,3.023-4.491,4.675-6.785c-2.867,16.601-5.899,51.816,9.75,89.203c1.193,2.849,3.845,4.819,6.917,5.136  c3.07,0.315,6.072-1.07,7.822-3.613l17.67-25.704l13.19,19.919l8.588,77.708h-19.835c-4.662,0-8.44,3.779-8.44,8.44  c0,4.661,3.778,8.44,8.44,8.44h29.259c2.4,0,4.686-1.022,6.287-2.81c1.601-1.787,2.365-4.173,2.102-6.557l-7.865-71.18  c0.831-0.45,1.592-1.035,2.241-1.753l25.613-28.356l8.025,7.879l9.413,85.899h-19.843c-4.662,0-8.44,3.779-8.44,8.44  c0,4.661,3.778,8.44,8.44,8.44h29.259c2.399,0,4.684-1.021,6.285-2.807c1.601-1.786,2.367-4.168,2.104-6.553l-8.272-75.48  c2.921,1.383,6.481,1.013,9.07-1.185c1.589-1.348,38.553-33.5,21.034-86.043c-1.491-7.901-3.957-16.196-7.362-24.758  c25.923,26.738,41.569,67.229,41.758,67.727c1.262,3.322,4.436,5.444,7.886,5.444c0.504,0,1.016-0.046,1.527-0.14  c4.007-0.735,6.916-4.228,6.916-8.302C385.788,345.742,377.566,316.502,361.353,293z M185.899,168.701  c-1.352,1.126-2.744,1.698-4.137,1.698c-4.631,0-9.79-6.701-9.79-16.317c0-9.616,5.16-16.317,9.79-16.317  c1.177,0,2.311,0.389,3.466,1.188c1.795,1.242,3.9,1.685,5.906,1.419c0.002,0,0.008,0.008,0.01,0.008l0.655-0.087  c18.296-2.432,34.91-11.887,46.785-26.626c11.919-14.794,24.971-19.408,39.907-14.104c12.03,4.271,25.518,1.475,35.199-7.298  c2.239-2.028,5.349-3.015,9.505-3.015c13.54,0,27.88,21.433,32.607,30.256c1.968,9.56,2.977,20.044,2.977,31.199  c0,27.577-6.853,91.716-70.334,91.716c-29.14,0-56.819-14.059-74.052-37.617c-7.005-9.546-12.019-20.206-14.903-31.68  c-0.708-2.816-2.812-5.07-5.573-5.969C191.155,166.258,188.128,166.842,185.899,168.701z M308.368,407.517l-24.834-24.383  c-1.642-1.61-3.859-2.487-6.166-2.414c-2.299,0.069-4.47,1.072-6.01,2.778L247.14,410.31l-21.564-32.565  c-1.548-2.34-4.158-3.755-6.964-3.78c-0.025,0-0.05,0-0.073,0c-2.778,0-5.379,1.367-6.956,3.659l-15.326,22.293  c-7.318-25.946-5.637-49.497-3.684-62.383c11.723,5.453,32.656,13.541,59.662,17.102c4.621,0.608,8.862-2.642,9.471-7.264  c0.61-4.621-2.643-8.862-7.264-9.471c-28.71-3.786-50.154-13.288-59.043-17.779c0.362-3.6,0.827-7.228,1.38-10.854  c9.703-8.577,20.818-15.12,32.937-16.635c4.624-0.578,7.906-4.796,7.328-9.421c-0.578-4.626-4.791-7.907-9.423-7.328  c-30.706,3.839-54.886,30.531-71.121,55.529c6.417-19.436,17.123-35.717,32.051-48.672c19.531-16.952,39.477-21.701,39.733-21.76  c4.535-1.027,7.386-5.533,6.371-10.074c-1.017-4.549-5.529-7.41-10.079-6.394c-0.368,0.082-3.972,0.916-9.551,3.013  c1.78-4.047,3.661-8.056,5.645-12.018c19.06,15.196,42.971,23.798,67.777,23.798c5.469,0,10.736-0.418,15.787-1.237  c-0.514,6.196-0.806,11.965-0.898,17.34c-0.186-0.133-0.362-0.278-0.56-0.396c-3.179-1.892-7.345-1.483-10.065,1.04  c-5.491,5.09-1.798,14.642,5.729,14.642c1.922,0,3.719-0.68,5.161-1.81c0.65,10.477,2.368,18.839,5.174,24.967  c3.468,7.551,6.137,14.846,7.997,21.792c-11.18,2.327-22.571,3.634-33.975,3.857c-4.661,0.091-8.365,3.942-8.275,8.603  c0.091,4.66,3.988,8.392,8.604,8.273c12.706-0.248,25.402-1.708,37.85-4.348C327.365,379.183,315.704,398.544,308.368,407.517z"/>
<g>
</g>
<g>
</g>
<g>
</g>
<g>
</g>
<g>
</g>
<g>
</g>
<g>
</g>
<g>
</g>
<g>
</g>
<g>
</g>
<g>
</g>
<g>
</g>
<g>
</g>
<g>
</g>
<g>
</g>
</svg>
