<?xml version="1.0" encoding="iso-8859-1"?>
<!-- Generator: Adobe Illustrator 19.0.0, SVG Export Plug-In . SVG Version: 6.00 Build 0)  -->
<svg xmlns="http://www.w3.org/2000/svg" xmlns:xlink="http://www.w3.org/1999/xlink" version="1.1" id="Layer_1" x="0px" y="0px" viewBox="0 0 512 512" style="enable-background:new 0 0 512 512;" xml:space="preserve">
<path style="fill:#8BE8E8;" d="M477.927,66.164c0,27.141-56.757,25.305-84.414,22.786v0.011  c21.14,99.731-40.096,250.778-40.096,250.778s-0.011,0.034-0.045,0.112c-0.034,0.056-0.056,0.112-0.067,0.168  c-1.164,2.654-2.239,5.33-3.258,8.017c-0.034,0.078-0.067,0.168-0.09,0.246c-7.468,17.893-25.686,58.986-41.977,75.266  c-0.795,26.223,0.672,55.369,7.726,80.047h-40.992c-4.02-14.914-6.192-34.823-7.289-54.955  c-40.466,21.577-75.244,16.997-75.244,16.997l-1.265-0.448c-7.67,22.215-16.034,38.406-16.034,38.406h-39.212l6.539-33.647  l-0.638-0.123c-19.427,19.438-68.122,28.519-92.744,31.99c24.488-4.994,70.239-23.984,63.666-96.26  c-8.913-98.041,58.829-135.472,130.131-135.472c56.993,0,130.344-89.341,89.643-159.59c-27.511-47.486,0-97.1,40.108-97.1  S477.927,30.278,477.927,66.164z"/>
<path style="fill:#B7F9F7;" d="M372.373,13.392c-2.065,0-4.092,0.139-6.084,0.394c40.008,2.718,94.47,19.639,94.47,52.377  c0,17.663-24.039,23.052-48.45,23.968c28.782,0.955,65.619-2.103,65.619-23.968C477.927,30.278,412.481,13.392,372.373,13.392z"/>
<g>
	<path style="fill:#76CECC;" d="M242.623,270.083c0,0-92.276,28.553-101.053,199.743c-19.427,19.438-68.122,28.519-92.744,31.99   c24.488-4.994,70.239-23.984,63.666-96.26C103.579,307.514,171.32,270.083,242.623,270.083z"/>
	<path style="fill:#76CECC;" d="M344.233,503.595h-28.53c-7.054-24.678-8.521-53.824-7.726-80.047   c16.292-16.28,34.509-57.373,41.977-75.266C323.25,419.652,344.233,503.595,344.233,503.595z"/>
</g>
<path d="M373.949,5.003c-8.417-3.056-46.209-14.584-73.744,12.948c-3.28,3.28-3.28,8.597,0,11.875c1.64,1.64,3.789,2.46,5.939,2.46  c2.149,0,4.298-0.82,5.939-2.46c7.736-7.736,16.746-11.237,25.293-12.485c-5.961,4.743-11.139,10.742-15.211,17.809  c-1.863,3.231-3.439,6.587-4.747,10.034c-7.302,2.926-15.031,7.533-22.249,14.753c-3.28,3.28-3.28,8.597,0,11.875  c1.64,1.639,3.79,2.46,5.939,2.46c2.149,0,4.299-0.82,5.939-2.46c1.905-1.905,3.856-3.555,5.82-5.005  c-0.882,15.821,3.182,32.434,12.139,47.894c15.415,26.61,13.907,59.826-4.137,91.132c-18.653,32.361-51.559,55.849-78.242,55.849  c-25.293,0-49.227,4.617-69.218,13.348c-4.25,1.856-6.19,6.808-4.334,11.057c1.378,3.155,4.463,5.039,7.7,5.039  c1.122,0,2.263-0.226,3.358-0.704c17.887-7.814,39.497-11.944,62.495-11.944c32.828,0,70.985-26.424,92.794-64.258  c21.123-36.649,22.625-75.992,4.118-107.938c-9.093-15.697-12.005-32.682-8.606-47.829c8.738-2.052,15.355-1.157,15.905-1.076  c4.574,0.718,8.85-2.395,9.588-6.96c0.738-4.578-2.375-8.889-6.953-9.628c-0.448-0.073-4.589-0.692-10.803-0.33  c8.001-11.75,20.363-18.673,33.712-18.673c7.95,0,16.395,0.662,24.827,1.887c-0.223,0.137-0.45,0.26-0.667,0.422  c-2.84,2.127-4.005,5.968-2.901,9.327c1.12,3.406,4.388,5.761,7.973,5.761c4.052,0,7.556-2.987,8.267-6.958  c0.465-2.598-0.329-4.913-1.794-6.647c10.322,2.101,20.294,4.994,28.942,8.516c12.14,4.946,32.504,15.688,32.504,32.067  c0,2.701-1.001,4.768-3.243,6.703c-4.141,3.572-15.978,9.498-48.86,8.995c-19.787-0.298-37.304-2.869-37.478-2.894  c-4.589-0.684-8.859,2.483-9.541,7.071c-0.681,4.586,2.482,8.858,7.069,9.541c1.341,0.2,4.525,0.653,8.988,1.154  c2.459,14.128,3.46,30.057,2.975,47.454c-0.129,4.637,3.524,8.5,8.16,8.628c0.08,0.002,0.159,0.003,0.239,0.003  c4.529,0,8.263-3.608,8.39-8.164c0.468-16.772-0.398-32.323-2.532-46.439c24.16,1.441,58.112,0.687,73.555-12.627  c5.937-5.117,9.074-11.835,9.074-19.426C486.321,24.906,419.863,5.438,373.949,5.003z"/>
<path d="M266.445,400.194c0.053,0.001,0.104,0.001,0.157,0.001c4.566,0,8.309-3.66,8.393-8.245  c0.306-16.876,0.96-28.585,0.966-28.701c0.261-4.63-3.281-8.596-7.911-8.858c-4.645-0.26-8.596,3.28-8.858,7.91  c-0.027,0.487-0.676,12.121-0.991,29.344C258.118,396.283,261.81,400.11,266.445,400.194z"/>
<path d="M397.327,157.127c-4.615-0.401-8.691,3.022-9.09,7.643c-7.246,83.773-42.249,170.941-42.603,171.811  c-0.016,0.038-0.03,0.077-0.046,0.116c-4.514,11.631-15.629,37.637-27.415,58.107c2.281-24.845,5.738-42.693,5.776-42.892  c0.89-4.55-2.076-8.963-6.627-9.854c-4.542-0.89-8.962,2.074-9.854,6.624c-0.703,3.585-16.154,84.011-2.51,146.52h-23.637  c-3.998-18.543-6.226-45.962-6.462-79.954c-0.032-4.638-3.82-8.388-8.457-8.338c-4.638,0.032-8.371,3.819-8.338,8.457  c0.071,10.026,0.303,19.448,0.699,28.258c-23.75,11.561-45.025,13.788-56.518,13.984c5.289-17.299,9.56-37.019,9.56-55.614  c0-4.638-3.76-8.398-8.398-8.398c-4.638,0-8.398,3.76-8.398,8.398c0,36.293-18.824,79.334-25.373,93.209h-23.779l14.676-75.463  c0.886-4.553-2.088-8.961-6.641-9.847c-4.548-0.883-8.961,2.088-9.847,6.641l-9.389,48.279  c-7.475,6.918-19.841,12.539-33.633,16.989c16.102-18.773,22.775-44.664,19.835-77.003c-4.279-47.081,9.241-81.979,40.187-103.722  c3.795-2.666,4.709-7.905,2.043-11.7c-2.666-3.795-7.904-4.709-11.7-2.043c-45.116,31.701-50.6,82.202-47.257,118.986  c2.584,28.427-3.14,50.585-17.012,65.855c-12.49,13.75-29.309,19.292-40.633,21.525c-5.176,0.714-9.678,1.223-13.168,1.537  c-4.473,0.403-7.838,4.254-7.636,8.741c0.202,4.487,3.897,8.02,8.389,8.02c0.642,0,7.091-0.052,16.238-1.893  c20.096-2.841,55.344-9.327,79.847-22.152l-2.731,14.044c-0.478,2.462,0.168,5.01,1.764,6.944c1.596,1.936,3.973,3.056,6.481,3.056  h39.217c3.142,0,6.021-1.753,7.463-4.546c0.576-1.115,7.338-14.348,14.238-33.081c1.219,0.048,2.619,0.081,4.195,0.081  c12.006,0,33.929-1.871,59.082-12.831c1.422,17.992,3.67,32.773,6.737,44.163c0.988,3.667,4.312,6.214,8.109,6.214h40.969  c0.009,0,0.018,0.002,0.027,0.002c0.01,0,0.021-0.002,0.031-0.002h28.494c2.585,0,5.024-1.191,6.616-3.228  c1.591-2.036,2.157-4.694,1.532-7.202c-0.212-0.849-19.994-82.402,5.492-150.445c1.903-4.582,3.089-7.613,3.353-8.291  c1.795-4.434,36.315-90.682,43.745-176.614C405.369,161.597,401.948,157.526,397.327,157.127z M333.856,495.202h-11.655  c-4.493-18.689-6.491-41.881-5.897-68.242c4.137-4.623,8.316-10.505,12.374-17.009C326.049,446.644,330.807,479.171,333.856,495.202  z"/>
<path d="M383.233,50.739c1.519-7.643-7.725-13.049-13.654-8.049c-5.853,4.935-2.211,14.812,5.424,14.812  C378.955,57.502,382.464,54.61,383.233,50.739z"/>
<g>
</g>
<g>
</g>
<g>
</g>
<g>
</g>
<g>
</g>
<g>
</g>
<g>
</g>
<g>
</g>
<g>
</g>
<g>
</g>
<g>
</g>
<g>
</g>
<g>
</g>
<g>
</g>
<g>
</g>
</svg>
