<?xml version="1.0" encoding="iso-8859-1"?>
<!-- Generator: Adobe Illustrator 19.0.0, SVG Export Plug-In . SVG Version: 6.00 Build 0)  -->
<svg xmlns="http://www.w3.org/2000/svg" xmlns:xlink="http://www.w3.org/1999/xlink" version="1.1" id="Layer_1" x="0px" y="0px" viewBox="0 0 511.999 511.999" style="enable-background:new 0 0 511.999 511.999;" xml:space="preserve">
<path style="fill:#644F77;" d="M324.635,430.998c0,21.45,17.398,38.837,38.837,38.837h-29.83c-14.678,0-24.863,14.623-19.765,28.387  l2.037,5.517l-33.144-20.382c-13.489-8.291-30.49-8.291-43.968,0l-3.105,1.916l-30.039,18.466l2.037-5.517  c5.087-13.764-5.087-28.387-19.765-28.387h-29.841c21.45,0,38.837-17.387,38.837-38.837V223.755l-66.629-54.726l-65,13.676  l56.444-56.433l94.069,51.302l30.788-76.958l-5.131-63.282l34.201,56.444l-13.687,83.796l130.847-77.817l50.454,50.454  l-53.019-15.394l-65.627,73.478L324.635,430.998L324.635,430.998z"/>
<g>
	<polyline style="fill:#4A395B;" points="273.477,204.743 358.136,120.391 261.985,177.579  "/>
	<path style="fill:#4A395B;" d="M207.695,498.222c5.087-13.764-5.087-28.387-19.765-28.387h-29.841   c21.45,0,38.837-17.387,38.837-38.837V223.755l-66.629-54.726l-65,13.676l56.444-56.433l94.069,51.302l10.263,42.768l9.624,264.931   l-30.039,18.466L207.695,498.222z"/>
</g>
<path d="M479.988,135.098c-1.736-4.217-6.563-6.229-10.781-4.493l-23.985,9.876l-40.016-40.016l26.106-20.75  c2.715-2.158,3.792-5.784,2.696-9.077l-8.551-25.655c-1.442-4.327-6.121-6.665-10.446-5.224c-4.327,1.442-6.665,6.119-5.224,10.446  l6.725,20.174l-28.393,22.568l-49.457,29.416l3.334-24.034c0.627-4.518-2.527-8.689-7.045-9.314  c-4.517-0.632-8.689,2.527-9.314,7.045l-5.149,37.114l-47.498,28.251l10.464-64.094l15.66-18.792  c2.92-3.504,2.447-8.711-1.057-11.631c-3.505-2.919-8.711-2.447-11.631,1.057l-9.694,11.632l-27.278-45.009l-3.211-27.294  c-0.533-4.53-4.634-7.766-9.167-7.237c-4.53,0.533-7.77,4.637-7.237,9.167l1.147,9.746L210.549,3.4  c-3.628-2.764-8.809-2.065-11.574,1.564c-2.764,3.628-2.065,8.81,1.564,11.574l32.988,25.133l4.676,57.678l-26.61,66.525  l-34.243-18.677l-2.923-30.272c-0.438-4.539-4.473-7.855-9.015-7.426c-4.54,0.438-7.864,4.474-7.426,9.015l1.85,19.129  l-32.353-17.648l-20.251-30.376l18.587-40.272c1.912-4.141,0.104-9.048-4.038-10.96c-4.142-1.912-9.048-0.104-10.96,4.038  L95.007,76.693L67.421,51.735c-3.38-3.06-8.604-2.798-11.664,0.584s-2.799,8.604,0.584,11.664L91.496,95.79l19.619,29.429  l-50.274,50.273l-23.805,7.935c-4.327,1.442-6.665,6.119-5.224,10.446c1.442,4.327,6.12,6.664,10.446,5.224l14.785-4.929v17.618  c0,4.561,3.698,8.258,8.258,8.258s8.258-3.698,8.258-8.258v-22.375l54.554-11.485l27.874,22.892l-16.069,4.759  c-4.374,1.295-6.869,5.891-5.574,10.264c1.064,3.591,4.352,5.915,7.915,5.915c0.776,0,1.566-0.11,2.349-0.342l26.794-7.936  l17.268,14.183v63.358l-20.514-20.55l-7.924-20.601c-1.637-4.256-6.415-6.381-10.672-4.744s-6.38,6.415-4.744,10.672l5.201,13.522  l-34.296,8.573l-19.783-19.783c-3.225-3.225-8.454-3.225-11.679,0c-3.225,3.225-3.225,8.454,0,11.679l23.09,23.09  c2.05,2.051,5.03,2.877,7.842,2.173l43.348-10.836l30.132,30.186v38.796c0,4.561,3.698,8.258,8.258,8.258s8.258-3.698,8.258-8.258  V223.757c0-2.472-1.107-4.813-3.017-6.382l-23.645-19.418c-0.01-0.008-0.02-0.017-0.03-0.024l-42.965-35.287  c-1.938-1.59-4.492-2.218-6.943-1.699l-37.806,7.96l32.427-32.426l85.422,46.593l9.406,39.192c0.91,3.787,4.292,6.333,8.024,6.333  c0.639,0,1.286-0.075,1.935-0.23c4.434-1.065,7.167-5.523,6.102-9.957l-9.649-40.203l29.809-74.525  c0.475-1.185,0.667-2.463,0.564-3.735l-2.306-28.437l14.508,23.939l-13.191,80.799c-0.253,1.548-0.05,3.097,0.527,4.49  c0.008,0.019,0.009,0.039,0.017,0.057l18.813,44.468c1.332,3.15,4.391,5.043,7.61,5.043c1.073,0,2.164-0.21,3.214-0.655  c4.2-1.777,6.165-6.623,4.388-10.824l-16.007-37.835l119.128-70.853l23.178,23.178l-22.141-6.428  c-3.055-0.885-6.345,0.058-8.463,2.43l-20.908,23.413c-3.038,3.401-2.743,8.623,0.66,11.661c3.401,3.037,8.623,2.743,11.661-0.66  l17.443-19.532l43.144,12.525l4.195,22.372c0.744,3.968,4.212,6.738,8.108,6.738c0.504,0,1.016-0.046,1.532-0.143  c4.483-0.84,7.435-5.157,6.595-9.639l-3.894-20.763l22.865-9.415C479.714,144.141,481.726,139.315,479.988,135.098z"/>
<path d="M399.105,179.436L368.32,201.67c-2.326,1.679-3.613,4.445-3.4,7.305l3.181,42.945l-19.432,24.315  c-0.001,0.002-0.003,0.003-0.004,0.006l-15.767,19.73v-84.52l27.508-30.803c3.038-3.401,2.743-8.623-0.66-11.661  c-3.401-3.037-8.623-2.743-11.661,0.66l-29.607,33.153c-1.351,1.514-2.099,3.472-2.099,5.501v222.704  c0,11.908,4.442,22.798,11.757,31.099c-7.455,1.425-14.154,5.708-18.571,12.051c-2.713,3.898-4.399,8.333-5.005,12.912  l-17.464-10.739c-16.231-9.981-36.396-9.979-52.626,0l-17.465,10.739c-0.606-4.578-2.291-9.015-5.005-12.913  c-4.417-6.342-11.116-10.626-18.571-12.051c7.315-8.301,11.757-19.19,11.757-31.099v-49.729c0-4.561-3.698-8.258-8.258-8.258  s-8.258,3.698-8.258,8.258v49.729c0,16.862-13.718,30.578-30.579,30.578c-4.561,0-8.258,3.698-8.258,8.258  c0,4.561,3.698,8.258,8.258,8.258h29.838c4.253,0,8.086,2.002,10.516,5.492c2.43,3.491,2.977,7.779,1.502,11.769l-2.041,5.516  c-1.222,3.303-0.216,7.017,2.507,9.251c2.724,2.234,6.564,2.495,9.563,0.65l33.144-20.381c10.893-6.698,24.428-6.698,35.322,0  l33.144,20.381c1.333,0.82,2.832,1.223,4.325,1.223c1.866,0,3.725-0.632,5.238-1.873c2.723-2.233,3.731-5.948,2.508-9.251  l-2.042-5.516c-1.475-3.989-0.928-8.278,1.502-11.769c2.43-3.491,6.263-5.492,10.517-5.492h29.838c4.561,0,8.258-3.698,8.258-8.258  c0-4.561-3.698-8.258-8.258-8.258c-16.862,0-30.579-13.718-30.579-30.578V322.427l25.841-32.336l37.605,3.46  c0.257,0.023,0.513,0.035,0.766,0.035c4.22,0,7.82-3.217,8.213-7.502c0.417-4.542-2.926-8.562-7.467-8.98l-26.771-2.462  l11.942-14.943c1.302-1.629,1.938-3.688,1.785-5.766l-3.08-41.575l27.044-19.532c3.698-2.67,4.53-7.832,1.86-11.53  C407.965,177.597,402.803,176.765,399.105,179.436z"/>
<path d="M260.275,333.495c4.561,0,8.258-3.698,8.258-8.258v-27.365c0-4.561-3.698-8.258-8.258-8.258  c-4.561,0-8.258,3.698-8.258,8.258v27.365C252.016,329.797,255.714,333.495,260.275,333.495z"/>
<path d="M300.716,325.236v-27.365c0-4.561-3.698-8.258-8.258-8.258c-4.561,0-8.258,3.698-8.258,8.258v27.365  c0,4.561,3.698,8.258,8.258,8.258C297.018,333.495,300.716,329.797,300.716,325.236z"/>
<path d="M246.892,361.655c-2.908,3.513-2.418,8.719,1.096,11.628c7.223,5.98,16.115,9.17,25.374,9.17  c1.265,0,2.537-0.059,3.812-0.181c10.612-0.999,20.199-6.072,26.996-14.282c2.908-3.514,2.418-8.719-1.096-11.628  c-3.514-2.908-8.719-2.417-11.628,1.096c-3.983,4.812-9.602,7.784-15.821,8.371c-6.216,0.586-12.294-1.285-17.106-5.27  C255.006,357.651,249.801,358.142,246.892,361.655z"/>
<g>
</g>
<g>
</g>
<g>
</g>
<g>
</g>
<g>
</g>
<g>
</g>
<g>
</g>
<g>
</g>
<g>
</g>
<g>
</g>
<g>
</g>
<g>
</g>
<g>
</g>
<g>
</g>
<g>
</g>
</svg>
