<?xml version="1.0" encoding="iso-8859-1"?>
<!-- Generator: Adobe Illustrator 19.0.0, SVG Export Plug-In . SVG Version: 6.00 Build 0)  -->
<svg xmlns="http://www.w3.org/2000/svg" xmlns:xlink="http://www.w3.org/1999/xlink" version="1.1" id="Layer_1" x="0px" y="0px" viewBox="0 0 511.997 511.997" style="enable-background:new 0 0 511.997 511.997;" xml:space="preserve">
<g>
	<path style="fill:#E8BB54;" d="M380.809,349.282c7.839,12.874,15.477,30.646,11.77,47.238c-1.19,5.322-3.92,7.977-7.627,8.721   c-8.158,1.657-21.054-5.938-32.589-14.616C365.087,380.745,376.029,366.182,380.809,349.282z"/>
	<path style="fill:#E8BB54;" d="M223.491,424.541l0.011,0.138l-33.004,52.793c13.745,0,24.049,12.566,21.351,26.035l-0.106,0.52   h-37.72l0.096-0.52c0.287-1.455,0.436-2.9,0.436-4.323c0-11.716-9.528-21.712-21.776-21.712l34.385-55.024   C197.222,424.117,209.406,425.136,223.491,424.541z"/>
	<circle style="fill:#E8BB54;" cx="41.848" cy="395.683" r="14.871"/>
</g>
<path style="fill:#B7A57D;" d="M325.466,7.963l47.397,48.959c-12.842-4.451-28.117-7.659-46.26-8.689L325.466,7.963z"/>
<path style="fill:#FCC34F;" d="M435.864,110.427c17.219,1.052,44.157,7.117,49.139,34.172v22.307h-3.389h-66.719l-0.659-0.945  c-12.279-17.506-9.231-41.47,7.032-55.353c0,0,3.24-0.372,8.275-0.372C431.424,110.236,433.559,110.289,435.864,110.427z"/>
<path style="fill:#E8BB54;" d="M326.199,403.339c-2.273,8.594-6.118,16.847-12.418,23.146c-3.856,3.856-7.584,4.631-11.111,3.282  c-5.46-2.082-10.442-9.263-14.68-18.016h-0.011c-24.421,8.477-46.08,12.014-64.488,12.789c-14.085,0.595-26.269-0.425-36.329-2.093  l-34.385,55.024c12.248,0,21.776,9.996,21.776,21.712c0,1.423-0.149,2.868-0.436,4.323l-0.096,0.52h-4.769h-37.72l-12.91-29.048  c-3.645-8.199-2.925-17.681,1.914-25.237l23.743-37.068c-25.494-13.809-46.738-56.299-46.738-94.539  c0-18.621,4.716-35.245,12.757-48.374c12.588-20.576,33.365-32.579,56.978-30.231h0.011c3.718,4.132,9.847,7.255,19.811,7.446  c0,0,10.187,22.509,33.652,17.654c0,0,9.465,16.263,36.286,23.645l18.504,45.793l35.054-23.369l24.431,22.307l12.747-28.68  l34.873,17.028c1.477,9.719,0.659,19.142-1.838,27.916v0.011c-4.78,16.9-15.721,31.464-28.447,41.342  C343.991,397.114,334.856,401.576,326.199,403.339z"/>
<path style="fill:#B7A57D;" d="M354.03,177.412l-0.053,1.052c0,0-17.676,66.464,14.181,109.442  c8.307,11.217,12.842,22.519,14.489,33.45l-34.873-17.028l-12.747,28.68l-24.431-22.307l-35.054,23.369l-18.504-45.793  c-26.822-7.383-36.286-23.645-36.286-23.645c-23.465,4.854-33.652-17.654-33.652-17.654c-9.964-0.191-16.093-3.314-19.811-7.446  h-0.011c-7.807-8.647-5.12-21.723-5.12-21.723c-31.984,5.757-42.989-29.52-42.989-29.52c-31.74-6.99-24.771-37.656-24.771-37.656  c-9.943-0.202-16.518-5.524-20.788-11.578c-6.055-8.594-2.178-20.724,7.701-24.336c47.11-17.261,104.014-6.756,130.932,0.042  c8.785,2.22,14.839,10.229,14.648,19.29c-1.094,52.56,21.617,88.091,37.157,106.149h0.011  C253.436,112.732,326.73,77.678,326.73,77.678L279.992,50.06c17.314-2.146,32.791-2.624,46.611-1.827  c18.143,1.03,33.418,4.238,46.26,8.689l0.011,0.011c49.522,17.155,62.736,52.761,62.991,53.494c-2.305-0.138-4.44-0.191-6.32-0.191  c-5.035,0-8.275,0.372-8.275,0.372c-16.263,13.883-19.311,37.848-7.032,55.353l0.659,0.945  C414.896,166.906,381.52,178.973,354.03,177.412z"/>
<path d="M492.843,143.163c-3.66-19.871-17.735-33.168-40.704-38.453c-3.764-0.866-7.46-1.438-10.93-1.811  c-3.698-7.345-12.593-21.79-30.309-35.005c-10.409-7.764-21.758-13.535-33.518-17.763L331.198,2.426  c-2.286-2.361-5.787-3.077-8.817-1.8c-3.029,1.276-4.964,4.281-4.871,7.566l0.894,31.838c-14.062-0.295-27.491,0.658-39.389,2.133  c-3.383,0.42-6.125,2.945-6.82,6.283c-0.695,3.339,0.812,6.748,3.747,8.482l35.707,21.099c-5.478,4.193-12.343,10.31-19.372,18.78  c-2.811,3.386-2.343,8.409,1.042,11.218c3.385,2.81,8.409,2.344,11.219-1.043c13.209-15.917,25.542-22.064,25.633-22.108  c2.653-1.269,4.392-3.898,4.522-6.839c0.129-2.939-1.373-5.711-3.907-7.207l-25.075-14.817c38.891-1.253,71.363,6.913,94.812,24.03  c10.678,7.795,17.658,16.121,21.964,22.477c-1.233,0.087-1.98,0.168-2.11,0.183c-1.578,0.178-3.068,0.825-4.276,1.857  c-17.051,14.554-21.944,38.087-13.055,57.797c-22.46,6.501-63.475,13.983-73.829-4.289c-2.17-3.828-7.032-5.172-10.859-3.004  c-3.828,2.169-5.173,7.031-3.004,10.859c5.611,9.9,15.389,16.061,29.187,18.463c-1.377,7.25-3.108,18.873-3.379,32.531  c-0.607,30.548,6.517,56.738,20.601,75.74c3.426,4.623,6.08,9.168,8.105,13.598l-18.593-9.078c-1.944-0.95-4.189-1.065-6.22-0.327  c-2.032,0.74-3.675,2.274-4.554,4.25l-8.257,18.58l-16.269-14.854c-2.703-2.47-6.744-2.778-9.791-0.746l-26.915,17.943  l-9.347-23.125c4.007,0.494,8.256,0.813,12.781,0.9c0.052,0.001,0.104,0.001,0.156,0.001c4.328,0,7.879-3.466,7.963-7.813  c0.085-4.4-3.413-8.034-7.812-8.12c-41.215-0.797-54.846-22.391-55.366-23.241c-1.724-2.962-5.151-4.486-8.5-3.793  c-8.052,1.666-13.956-1.028-17.987-4.415l6.316-1.202c4.322-0.822,7.159-4.994,6.337-9.317c-0.822-4.323-5.002-7.158-9.317-6.336  l-17.957,3.418c-6.467-0.242-11.092-1.986-13.714-5.221c-2.239-2.761-2.952-6.344-3.105-9.238l16.468-3.042  c4.326-0.799,7.187-4.954,6.387-9.281c-0.8-4.326-4.965-7.189-9.281-6.387l-22.533,4.162l0,0  c-15.888,2.855-25.275-7.561-30.029-15.588l21.375-3.696c4.336-0.75,7.242-4.871,6.493-9.207c-0.749-4.335-4.872-7.249-9.207-6.492  l-29.938,5.176c-9.09-2.348-14.574-7.221-16.728-14.878c-0.784-2.785-1.001-5.509-0.993-7.733l25.811-4.022  c4.348-0.678,7.323-4.751,6.645-9.098c-0.677-4.347-4.738-7.324-9.097-6.645l-31.127,4.85c-5.623-0.28-10.156-2.954-13.838-8.174  c-1.427-2.023-1.811-4.571-1.055-6.992c0.773-2.474,2.59-4.397,4.983-5.273c19.552-7.163,43.054-10.029,69.853-8.524  c4.406,0.235,8.155-3.114,8.401-7.508c0.246-4.392-3.115-8.154-7.507-8.401c-28.981-1.626-54.625,1.559-76.227,9.472  c-7.087,2.596-12.449,8.24-14.712,15.484c-2.246,7.191-1.064,14.818,3.243,20.925c4.949,7.016,11.318,11.668,18.708,13.733  c-0.025,6.022,1.049,14.34,5.874,21.946c4.727,7.451,11.93,12.689,21.45,15.614c5.411,12.97,18.661,30.716,40.725,31.45  c0.133,1.658,0.382,3.435,0.802,5.267c-13.623,1.456-26.468,7.23-37.101,16.857c-1.248,1.13-2.448,2.317-3.621,3.536  c-3.076-7.814-8.25-16.323-16.864-20.864c-9.319-4.912-20.224-4.112-32.411,2.38c-35.914,19.132-23.275,54.5-13.119,82.919  c10.199,28.537,15.312,46.678,0.375,57.973c-0.201,0.152-0.391,0.313-0.574,0.481c-2.896-1.331-6.104-2.093-9.493-2.093  c-12.593,0-22.838,10.245-22.838,22.838s10.245,22.838,22.838,22.838s22.838-10.245,22.838-22.838c0-3.357-0.747-6.536-2.052-9.409  c23.882-19.201,13.293-48.897,3.91-75.151c-11.263-31.516-17.018-51.443,5.605-63.494c7.23-3.851,13.106-4.646,17.466-2.359  c7.447,3.905,11.16,16.412,12.38,22.96c-8.025,14.236-12.43,31.47-12.43,49.911c0,20.07,5.393,41.754,15.186,61.06  c1.404,2.769,4.205,4.365,7.111,4.365c1.212,0,2.443-0.277,3.598-0.864c3.924-1.991,5.492-6.786,3.501-10.709  c-8.555-16.867-13.462-36.495-13.462-53.852c0-23.652,8.292-44.725,22.749-57.816c10.161-9.201,22.403-13.686,35.567-13.056  c4.731,4.085,10.894,6.563,18.421,7.383c5.668,8.876,17.505,19.842,34.942,18.518c4.847,5.775,15.354,15.675,33.9,21.646  l17.074,42.243c0.898,2.221,2.747,3.921,5.036,4.627c0.77,0.238,1.561,0.354,2.35,0.354c1.555,0,3.095-0.456,4.419-1.338  l29.867-19.912l19.828,18.104c1.89,1.727,4.501,2.439,7.003,1.914c2.506-0.525,4.608-2.222,5.648-4.562l9.393-21.134l23.542,11.493  c0.786,10.101-1.238,18.999-3.921,26c-7.027,18.327-21.263,31.91-34.884,38.706c1.995-18.186-0.796-34.131-1.008-35.295  c-0.786-4.325-4.92-7.194-9.254-6.411c-4.326,0.782-7.201,4.924-6.424,9.252c0.021,0.11,1.983,11.237,1.328,24.691  c-0.57,11.689-3.276,27.65-12.931,37.305c-0.289,0.29-1.765,1.737-2.477,1.527c-2.557-0.743-8.842-7.428-16.178-27.779  c-5.131-14.232-8.271-28.14-8.301-28.279c-0.961-4.294-5.224-6.994-9.514-6.032c-4.293,0.961-6.995,5.22-6.035,9.512  c0.135,0.601,3.356,14.898,8.809,30.057c0.893,2.484,1.79,4.831,2.692,7.061c-31.46,9.698-57.569,10.811-76.628,9.17  c5.465-9.012,6.963-19.951,4.085-30.104l-14.422-50.899c-1.199-4.233-5.603-6.695-9.837-5.493c-4.233,1.199-6.692,5.603-5.493,9.836  l14.422,50.899c1.7,5.997,0.779,12.467-2.525,17.752l-40.732,65.169c-1.534,2.456-1.616,5.551-0.211,8.085  c1.403,2.533,4.072,4.105,6.968,4.105c4.152,0,8.043,1.841,10.675,5.052c1.352,1.651,2.286,3.556,2.764,5.57h-29.506l-10.808-24.319  c-2.564-5.768-2.062-12.387,1.344-17.703l23.743-37.067c1.194-1.864,1.559-4.142,1.006-6.286c-0.553-2.145-1.973-3.961-3.92-5.016  c-5.262-2.851-10.474-7.237-15.491-13.036c-2.881-3.33-7.912-3.691-11.237-0.814c-3.328,2.879-3.692,7.909-0.815,11.237  c4.085,4.723,8.355,8.741,12.755,12.01l-19.458,30.379c-6.303,9.841-7.233,22.09-2.487,32.768l12.91,29.05  c1.279,2.877,4.132,4.731,7.281,4.731h80.21c3.784,0,7.044-2.66,7.804-6.366l0.114-0.557c1.756-8.768-0.486-17.763-6.155-24.678  c-2.861-3.492-6.414-6.232-10.381-8.09l25.056-40.079c16.266-1.038,35.056-4.157,55.91-10.789  c3.687,6.342,7.512,10.823,11.572,13.578l2.616,12.028c0.668,7.492-0.132,15.687-4.995,20.55c-3.111,3.111-3.111,8.156,0,11.266  c3.112,3.111,8.156,3.111,11.267,0c0.18-0.18,0.354-0.359,0.528-0.542l4.111,18.908c0.797,3.662,4.038,6.274,7.785,6.274h24.431  c4.401,0,7.967-3.567,7.967-7.967c0-4.4-3.566-7.967-7.967-7.967H323.4l-9.45-43.456c-0.288-2.641-0.702-5.1-1.149-7.295  c2.133-0.957,4.374-2.443,6.625-4.694c6.246-6.246,10.393-13.998,13.093-22.146c6.824-1.991,13.55-5.244,19.876-9.486  c11.902,8.354,21.349,12.559,29.05,12.917l11.084,13.04l-13.337,15.444h-16.537c-4.401,0-7.967,3.567-7.967,7.967  c0,4.4,3.566,7.967,7.967,7.967h16.879l15.724,15.724c1.556,1.555,3.596,2.334,5.634,2.334c2.038,0,4.078-0.778,5.634-2.334  c3.111-3.111,3.111-8.156,0-11.266l-12.822-12.822l15.342-17.765c2.568-2.973,2.585-7.374,0.041-10.367l-12.439-14.634  c1.569-2.092,2.905-4.825,3.713-8.434c3.267-14.622-0.549-31.913-11.012-50.17c5.191-22.13,0.103-44.835-14.783-64.925  c-24.34-32.839-17.123-81.987-13.989-97.659c4.932-0.074,10.197-0.463,15.829-1.206c18.505-2.438,35.073-7.79,39.844-9.421h62.258  c0.291,0.281,0.58,0.566,0.867,0.853c1.525,1.524,3.563,2.334,5.636,2.334c1.026,0,2.061-0.199,3.047-0.607  c2.977-1.233,4.918-4.138,4.918-7.36v-25.494C492.975,144.122,492.93,143.639,492.843,143.163z M334.013,28.242l13.94,14.399  c-4.539-0.735-9.075-1.297-13.583-1.713L334.013,28.242z M41.856,402.588c-3.807,0-6.905-3.097-6.905-6.905  c0-3.807,3.097-6.905,6.905-6.905c3.807,0,6.905,3.097,6.905,6.905C48.76,399.491,45.663,402.588,41.856,402.588z M183.53,481.337  c1.403,2.533,4.072,4.106,6.968,4.106c4.158,0,8.052,1.842,10.685,5.055c1.352,1.651,2.285,3.556,2.762,5.567h-21.601  c-0.607-5.685-2.844-11.128-6.568-15.671c-2.86-3.488-6.41-6.227-10.374-8.085l25.76-41.217c5.375,0.713,11.4,1.243,18.028,1.452  l-25.449,40.708C182.207,475.708,182.124,478.804,183.53,481.337z M381.532,368.398c3.294,8.436,5.21,17.743,3.278,26.386  c-0.553,2.475-1.205,2.606-1.438,2.652c-0.59,0.119-5.413,0.732-18.12-7.49C371.633,383.656,377.209,376.34,381.532,368.398z   M419.195,158.947c-0.804-1.382-1.5-2.802-2.088-4.249h11.484c8.469,0,16.712,1.455,24.45,4.249H419.195z M477.041,153.319  c-14.244-9.47-30.957-14.555-48.451-14.555h-12.628c-0.392,0-0.776,0.029-1.155,0.083c0.749-7.559,4.079-14.845,9.818-20.503  c4.358-0.246,13.939-0.408,23.94,1.894c16.479,3.791,25.8,12.016,28.475,25.133V153.319z"/>
<path d="M371.681,113.128V98.257c0-4.4-3.566-7.967-7.967-7.967c-4.401,0-7.967,3.567-7.967,7.967v14.871  c0,4.4,3.566,7.967,7.967,7.967C368.115,121.095,371.681,117.528,371.681,113.128z"/>
<path d="M400.361,113.128V98.257c0-4.4-3.566-7.967-7.967-7.967s-7.967,3.567-7.967,7.967v14.871c0,4.4,3.566,7.967,7.967,7.967  S400.361,117.528,400.361,113.128z"/>
<path d="M179.442,116.318c10.337,1.535,20.718,3.613,30.854,6.175c5.198,1.313,8.749,5.998,8.637,11.394  c-1.725,82.642,52.061,124.831,54.352,126.586c1.444,1.107,3.144,1.642,4.832,1.642c2.388,0,4.749-1.071,6.318-3.11  c2.68-3.48,2.031-8.479-1.443-11.167c-0.076-0.059-4.772-3.738-11.172-10.883c-3.262-43.52,3.126-80.425,19.048-109.69  c2.102-3.865,0.675-8.703-3.191-10.805c-3.862-2.102-8.702-0.675-10.805,3.19c-14.309,26.301-21.615,57.906-21.826,94.214  c-13.997-23.874-20.79-50.634-20.185-79.645c0.269-12.857-8.228-24.031-20.662-27.174c-10.65-2.691-21.557-4.874-32.418-6.486  c-4.347-0.647-8.403,2.357-9.051,6.709C172.085,111.62,175.089,115.672,179.442,116.318z"/>
<g>
</g>
<g>
</g>
<g>
</g>
<g>
</g>
<g>
</g>
<g>
</g>
<g>
</g>
<g>
</g>
<g>
</g>
<g>
</g>
<g>
</g>
<g>
</g>
<g>
</g>
<g>
</g>
<g>
</g>
</svg>
