<?xml version="1.0" encoding="iso-8859-1"?>
<!-- Generator: Adobe Illustrator 19.0.0, SVG Export Plug-In . SVG Version: 6.00 Build 0)  -->
<svg xmlns="http://www.w3.org/2000/svg" xmlns:xlink="http://www.w3.org/1999/xlink" version="1.1" id="Layer_1" x="0px" y="0px" viewBox="0 0 511.999 511.999" style="enable-background:new 0 0 511.999 511.999;" xml:space="preserve">
<path style="fill:#FFD0B8;" d="M329.703,403.931c-8.42,2.083-16.319,3.277-23.697,3.765c-23.079,1.53-41.101-3.852-54.382-10.774  c-19.411-10.134-28.656-23.578-28.656-23.578c19.172-5.653,23.393-51.647,22.395-61.206l2.018-0.043  c0.087,10.21,7.91,18.858,18.283,19.802c2.799,0.25,5.523-0.087,8.029-0.922c7.4-2.409,13.009-9.027,13.758-17.274h19.01  c-0.987,11.046,7.161,20.8,18.196,21.787c3.993,0.358,7.812-0.477,11.122-2.203c2.778-1.454,5.176-3.548,7.009-6.098  c1.15,0.326,2.311,0.629,3.472,0.911c0.054,0.401,0.195,1.443,0.347,3.027C347.552,341.293,348.713,373.822,329.703,403.931z"/>
<path style="fill:#F7B348;" d="M450.89,117.918c0,33.126-11.208,53.904-25.335,66.946v0.011  c-24.109,22.254-56.736,21.983-56.736,21.983h-0.011c3.418-12.217,5.045-25.802,5.045-40.113c0-14.431-1.649-28.113-5.132-40.406  c-58.277,0.13-118.018-39.343-118.018-39.343c0,37.14-21.071,52.19-35.187,58.092c-7.129,2.984-12.489,3.646-12.489,3.646  l-0.011-0.011c-2.387-1.649-5.1-2.593-7.964-2.593c-9.711,0-17.588,10.688-17.588,23.871c0,13.183,7.877,23.871,17.588,23.871  c3.364,0,6.521-1.291,9.19-3.526c5.425,21.581,18.109,40.276,35.296,53.34c0,0-5.848,19.021-27.191,42.728  c-97.468,26.518-142.941-52.504-147.021-60.024l0.77-0.488c3.125,5.045,7.291,9.613,12.489,13.476  c42.316,31.466,87.887-9.765,70.527-59.676c-5.1-18.131-7.997-34.189-9.201-48.403c-4.286-50.508,12.76-77.753,28.2-91.837  c15.017-13.704,37.466-15.744,54.468-4.601c2.441,1.606,3.711,2.767,3.711,2.767c23.48-23.48,56.476-31.672,89.97-28.992  C382.609,13.918,450.89,61.822,450.89,117.918z"/>
<g>
	<path style="fill:#8FC6EF;" d="M329.888,300.93c11.035,0.998,17.556,5.327,16.568,16.373c-0.336,3.7-1.649,7.064-3.667,9.885   c-4.015,5.588-10.785,8.962-18.131,8.3c-11.035-0.987-19.183-10.742-18.196-21.787C307.46,302.655,318.842,299.942,329.888,300.93z   "/>
	<path style="fill:#8FC6EF;" d="M270.884,297.338c11.046,0.987,17.567,5.317,16.568,16.362   c-0.998,11.046-10.753,19.183-21.787,18.196c-10.373-0.944-18.196-9.592-18.283-19.802c0-0.662,0.022-1.324,0.087-1.996   C248.456,299.063,259.849,296.34,270.884,297.338z"/>
</g>
<path style="fill:#52CBCE;" d="M155.621,442.189c0,0,0.304,8.919-3.526,18.207c-3.114,7.53-8.941,15.31-19.867,18.771  c-24.391,7.736-38.008,24.695-38.008,24.695s-4.286-49.477,22.015-63.376c8.235-4.373,19.465-5.241,34.775,0  C152.507,440.985,154.048,441.56,155.621,442.189z"/>
<path style="fill:#3EADAD;" d="M155.057,431.415c0.662,4.351,0.564,7.367,0.564,7.367c-1.573,0.629-3.114,1.204-4.611,1.703  c-15.31-5.241-26.54-4.373-34.775,0c-26.301-13.899-22.015-63.376-22.015-63.376s13.617,16.97,38.008,24.695  C148.786,407.056,153.647,422.214,155.057,431.415z"/>
<path style="fill:#52CBCE;" d="M329.703,403.931c-17.892,28.341-53.665,54.566-124.344,57.973  c-15.255,0.738-32.138,0.412-50.823-1.183l-2.441-0.325c3.83-9.288,3.526-18.207,3.526-18.207c-1.573-0.629-3.114-1.204-4.611-1.703  c1.497-0.499,3.038-1.074,4.611-1.703c0,0,0.098-3.016-0.564-7.367c34.927-4.318,53.275-22.634,62.671-43.271  c2.213-4.861,3.928-9.841,5.241-14.8C222.969,373.344,256.431,422.008,329.703,403.931z"/>
<path style="fill:#C18033;" d="M373.853,166.744c0,0,30.337-2.43,30.337-28.916s-53.189-12.597-53.189-12.597"/>
<g>
	<path style="fill:#FFD0B8;" d="M427.963,326.178c0,0-43.195,11.447-81.703,1.92c-1.161-0.282-2.322-0.586-3.472-0.911   c2.018-2.821,3.331-6.185,3.667-9.885c0.987-11.046-5.534-15.375-16.568-16.373c-11.046-0.987-22.427,1.725-23.426,12.771h-19.01   c0.857-9.483-3.83-14.019-12.163-15.733c-1.367-0.282-2.843-0.488-4.405-0.629c-11.035-0.998-22.428,1.725-23.415,12.76   c-0.065,0.673-0.087,1.335-0.087,1.996l-2.018,0.043c-5.566,4.948-12.185,8.995-19.346,12.304   c-3.949,1.823-8.062,3.429-12.261,4.839c-34.384,11.534-74.411,9.917-74.411,9.917c28.406-13.552,49.097-29.014,64.027-43.477   c3.266-3.157,6.25-6.271,8.973-9.31c21.342-23.708,27.191-42.728,27.191-42.728c9.505,7.226,20.377,12.727,32.182,16.037   c8.322,2.344,17.1,3.591,26.182,3.591c10.275,0,19.411-1.606,27.462-4.59l0.065,0.184c0,0,16.015,17.577,37.184,34.764   C382.859,310.098,407.803,326.178,427.963,326.178z"/>
	<path style="fill:#FFD0B8;" d="M373.853,166.744c0,14.311-1.628,27.896-5.045,40.113c-2.919,10.46-7.15,19.91-12.792,27.961   c-7.584,10.839-17.718,19.14-30.652,23.903c-8.051,2.984-17.187,4.59-27.462,4.59c-16.449,0-31.932-4.101-45.484-11.349v-0.011   c-4.514-2.42-8.821-5.186-12.879-8.268c-17.187-13.064-29.871-31.759-35.296-53.34c-2.669,2.235-5.827,3.526-9.19,3.526   c-9.711,0-17.588-10.688-17.588-23.871c0-13.183,7.877-23.871,17.588-23.871c2.864,0,5.577,0.944,7.964,2.593l0.011,0.011   c0,0,47.676-5.859,47.676-61.738c0,0,9.928,6.554,25.628,14.312c22.829,11.284,57.864,25.108,92.39,25.032   C372.204,138.631,373.853,152.314,373.853,166.744z"/>
</g>
<path style="fill:#E0993B;" d="M438.813,277.352c0,0-58.841-1.964-76.201,16.319c-21.169-17.187-37.184-34.764-37.184-34.764  l-0.065-0.184c12.934-4.763,23.068-13.064,30.652-23.903h0.011C356.026,234.819,408.433,235.036,438.813,277.352z"/>
<g>
	<path style="fill:#E2B39F;" d="M273.694,330.974c-2.626,21.874-8.886,45.539-22.069,65.937v0.011   c-19.411-10.134-28.656-23.578-28.656-23.578c19.172-5.653,23.393-51.647,22.395-61.206c-5.566,4.948-12.185,8.995-19.346,12.304   c-3.949,1.823-8.062,3.429-12.261,4.839c1.986-7.942,7.042-33.56-10.384-33.56c3.266-3.157,6.25-6.271,8.973-9.31   c21.342-23.708,27.191-42.728,27.191-42.728c9.505,7.226,20.377,12.727,32.182,16.037c0,0,3.168,15.776,3.57,38.247   c-1.367-0.282-2.843-0.488-4.405-0.629c-11.035-0.998-22.427,1.725-23.415,12.76c-0.065,0.673-0.087,1.335-0.087,1.996   c0.087,10.21,7.91,18.858,18.283,19.802C268.464,332.146,271.188,331.809,273.694,330.974z"/>
	<path style="fill:#E2B39F;" d="M276.331,101.306l-1.356,5.696c0,0-60.306,55.542-22.558,144.949   c-4.514-2.42-8.821-5.186-12.879-8.268c-17.187-13.064-29.871-31.759-35.296-53.34c-2.669,2.235-5.827,3.526-9.19,3.526   c-9.711,0-17.588-10.688-17.588-23.871c0-13.183,7.877-23.871,17.588-23.871c2.864,0,5.577,0.944,7.964,2.593l0.011,0.011   c0,0,47.676-5.859,47.676-61.738C250.702,86.995,260.63,93.548,276.331,101.306z"/>
</g>
<path style="fill:#C18033;" d="M149.111,179.7c17.36,49.911-28.211,91.142-70.527,59.676c-5.197-3.863-9.364-8.431-12.489-13.476  c-20.214-32.627,3.298-85.088,73.814-94.603C141.115,145.51,144.012,161.569,149.111,179.7z"/>
<path style="fill:#E58376;" d="M357.428,195.976c-3.81,0-7.211-2.688-7.976-6.567c-0.869-4.41,2.002-8.688,6.411-9.557l11.935-2.351  c4.41-0.868,8.689,2.002,9.557,6.411c0.869,4.41-2.002,8.688-6.411,9.557l-11.935,2.351  C358.478,195.926,357.95,195.976,357.428,195.976z"/>
<path style="fill:#E0993B;" d="M239.537,243.684c0,0-5.848,19.021-27.191,42.728c-97.468,26.518-142.941-52.504-147.021-60.024  l0.77-0.488c3.125,5.045,7.291,9.613,12.489,13.476c42.316,31.466,87.887-9.765,70.527-59.676  c-5.1-18.131-7.997-34.189-9.201-48.403c-4.286-50.508,12.76-77.753,28.2-91.837c15.017-13.704,37.466-15.744,54.468-4.601  c0,0-58.44,58.852-7.064,110.228c-7.129,2.984-12.489,3.646-12.489,3.646l-0.011-0.011c-2.387-1.649-5.1-2.593-7.964-2.593  c-9.711,0-17.588,10.688-17.588,23.871c0,13.183,7.877,23.871,17.588,23.871c3.364,0,6.521-1.291,9.19-3.526  C209.667,211.925,222.351,230.62,239.537,243.684z"/>
<path style="fill:#F9D5A5;" d="M450.89,117.918c0,33.126-11.208,53.904-25.335,66.946C443.533,39.742,316.26,8.634,316.26,8.634  C382.609,13.918,450.89,61.822,450.89,117.918z"/>
<path style="fill:#FCE0D4;" d="M329.703,403.931c-8.42,2.083-16.319,3.277-23.697,3.765l0.011-0.011  c19.802-19.802,18.641-72.198,18.641-72.198l11.122-2.203l10.829-2.159C347.552,341.293,348.713,373.822,329.703,403.931z"/>
<path style="fill:#3EADAD;" d="M205.37,461.893c0,0-0.011,0-0.011,0.011c-15.255,0.738-32.138,0.412-50.823-1.183l-2.441-0.325  c3.83-9.288,3.526-18.207,3.526-18.207c-1.573-0.629-3.114-1.204-4.611-1.703c1.497-0.499,3.038-1.074,4.611-1.703  c0,0,0.098-3.016-0.564-7.367c34.927-4.318,58.515-37.433,67.912-58.071C222.969,373.344,244.279,435.95,205.37,461.893z"/>
<path style="fill:#E58376;" d="M270.284,196.337c-0.409,0-0.824-0.03-1.24-0.094l-13.02-1.989c-4.443-0.679-7.494-4.831-6.815-9.274  c0.678-4.443,4.836-7.494,9.274-6.815l13.02,1.989c4.443,0.679,7.494,4.831,6.815,9.274  C277.702,193.454,274.235,196.337,270.284,196.337z"/>
<path d="M267.068,165.988c4.44-4.44,11.663-4.441,16.107,0c1.588,1.588,3.672,2.384,5.754,2.384c2.082,0,4.165-0.794,5.755-2.384  c3.178-3.178,3.178-8.331-0.001-11.509c-10.785-10.786-28.337-10.785-39.122,0c-3.178,3.178-3.178,8.331,0,11.509  C258.736,169.166,263.89,169.166,267.068,165.988z"/>
<path d="M458.674,324.764c-9.955-9.955-26.757-7.631-31.451-6.74c-12.852-0.305-30.287-8.53-50.856-23.94  c15.605-7.138,44.527-9.178,62.175-8.599c3.084,0.1,5.987-1.562,7.449-4.298c1.462-2.735,1.241-6.062-0.566-8.581  c-23.02-32.063-57.216-41.74-75.953-44.661c2.059-4.163,3.874-8.593,5.434-13.27c11.771-1.072,37.987-5.722,58.232-25.798  c17.179-17.035,25.89-40.909,25.89-70.96c0-34.635-24.073-69.316-64.396-92.771c-3.885-2.26-8.867-0.943-11.127,2.943  c-2.259,3.884-0.942,8.866,2.943,11.126c35.257,20.508,56.305,49.93,56.305,78.702c0,25.48-7.052,45.427-20.958,59.288  c-13.752,13.706-31.492,18.675-42.534,20.481c1.803-9.638,2.732-19.991,2.732-30.943c0-11.623-1.023-22.575-3.05-32.686  c2.356-0.191,4.674-0.448,6.943-0.768c4.73-0.671,9.225,2.212,10.484,6.785l0.129,0.449c1.288,4.673-1.162,9.48-5.7,11.18  c-4.208,1.578-6.341,6.268-4.763,10.476c1.577,4.209,6.269,6.34,10.476,4.764c12.478-4.678,19.218-17.894,15.654-30.828  l-0.128-0.446c-3.4-12.353-15.628-20.304-28.429-18.495c-4.688,0.663-9.639,1.008-14.721,1.026c-0.116-0.002-0.24-0.002-0.357,0.001  c-0.034,0-0.062,0-0.095,0c-54.982,0-112.671-37.617-113.245-37.995c-2.5-1.65-5.703-1.796-8.341-0.378s-4.283,4.172-4.283,7.167  c0,41.351-29.224,51.17-38.074,53.194c-2.989-1.445-6.198-2.198-9.44-2.198c-14.425,0-25.726,14.06-25.726,32.008  s11.301,32.008,25.726,32.008c1.386,0,2.757-0.133,4.102-0.397c6.092,17.204,16.693,32.653,30.612,44.611  c-3.051,6.766-9.987,19.771-23.469,34.748c-17.571,19.536-40.496,36.259-68.143,49.752c-6.327-0.928-20.642-1.813-29.517,7.062  c-3.178,3.178-3.178,8.33,0,11.508c3.178,3.178,8.331,3.178,11.508,0c2.011-2.009,5.778-2.734,9.451-2.834l-1.484,7.419  c-0.881,4.407,1.977,8.694,6.384,9.575c0.539,0.107,1.075,0.16,1.605,0.16c3.8,0,7.197-2.676,7.972-6.544l1.93-9.649  c15.508-0.069,53.575-1.766,83.432-15.592c2.455-1.135,4.811-2.333,7.061-3.591c-2.056,15.27-7.493,34.845-15.825,37.301  c-2.726,0.804-4.834,2.971-5.563,5.716c-7.491,28.2-25.574,45.29-53.815,50.912c-3.136-10.348-10.291-22.946-26.604-28.121  c-21.562-6.829-34.012-21.9-34.119-22.03c-2.081-2.593-5.53-3.66-8.712-2.693c-3.182,0.967-5.456,3.772-5.742,7.084  c-0.17,1.974-3.45,43.2,16.789,64.078c-20.239,20.878-16.959,62.105-16.789,64.078c0.288,3.313,2.56,6.117,5.741,7.084  c0.781,0.238,1.578,0.353,2.365,0.353c2.426,0,4.775-1.087,6.346-3.043c0.12-0.15,12.329-15.121,34.12-22.033  c9.555-3.027,17.121-9.155,22.18-17.867c11.228,0.885,22.039,1.349,32.39,1.349c40.598,0,74.367-6.804,100.686-20.327  c3.998-2.054,5.573-6.959,3.519-10.957c-2.055-3.998-6.961-5.573-10.958-3.519c-29.423,15.118-69.71,21.019-119.817,17.577  c1.179-6.023,1.093-10.551,1.069-11.269c-0.016-0.487-0.09-0.961-0.19-1.427c0.101-0.47,0.175-0.947,0.191-1.439  c0.003-0.09,0.01-0.36,0.01-0.775c35.799-6.848,53.644-28.313,62.478-49.314c4.582,4.232,10.763,9.107,18.613,13.544  c12.09,6.835,29.965,13.562,53.473,13.562c3.807,0,7.766-0.179,11.869-0.561c-3.007,3.061-6.229,5.948-9.669,8.64  c-3.539,2.77-4.162,7.885-1.392,11.424c1.605,2.051,3.997,3.122,6.414,3.122c1.754,0,3.522-0.565,5.011-1.73  c10.388-8.131,19.144-17.781,26.023-28.683c16.805-26.623,18.934-54.782,18.569-70.118c8.549,1.344,17.083,1.883,25.167,1.883  c17.197,0,32.349-2.351,41.294-4.112l1.624,8.121c0.774,3.868,4.172,6.544,7.972,6.544c0.528,0,1.065-0.052,1.605-0.159  c4.407-0.881,7.265-5.168,6.384-9.575l-1.484-7.421c3.666,0.104,7.444,0.829,9.451,2.835c3.179,3.178,8.331,3.178,11.509,0  C461.852,333.094,461.852,327.942,458.674,324.764z M129.769,409.561c9.535,3.024,14.021,10.592,16.096,17.82  c-0.543,0.87-0.922,1.845-1.105,2.882c-10.455-2.324-19.77-1.982-27.824,1.012c-9.407-7.35-13.159-22.61-14.38-35.624  C109.4,400.672,118.537,406.005,129.769,409.561z M129.769,471.41c-11.23,3.562-20.367,8.895-27.211,13.912  c1.348-14.362,5.779-31.457,17.495-37.649c3.335-1.771,7.253-2.656,11.725-2.656c4.545,0,9.663,0.915,15.323,2.743  c-0.375,2.679-1.106,6.087-2.524,9.527C141.555,464.591,136.713,469.211,129.769,471.41z M362.678,283.15  c-9.709-8.221-18.033-16.222-23.642-21.851c7.976-4.553,14.958-10.607,20.869-18.098c10.284,0.926,38.748,5.335,61.123,26.197  C403.511,270.197,377.798,273.159,362.678,283.15z M212.134,188.359c-0.684-2.717-2.716-4.892-5.381-5.757  c-0.822-0.267-1.67-0.397-2.51-0.397c-1.885,0-3.74,0.655-5.225,1.899c-1.289,1.08-2.624,1.628-3.965,1.628  c-4.47,0-9.451-6.461-9.451-15.733s4.98-15.733,9.451-15.733c1.068,0,2.148,0.359,3.214,1.067c1.648,1.189,3.697,1.728,5.753,1.477  c0.57-0.071,14.112-1.825,27.552-11.353c10.538-7.47,22.791-21.03,26.291-44.661c19.713,11.142,61.564,31.722,104.502,33.549  c0.949,4.195,1.686,8.589,2.233,13.145c-2.502-0.731-5.121-1.115-7.801-1.115c-7.391,0-14.34,2.879-19.565,8.104  c-3.179,3.178-3.179,8.331-0.001,11.509c1.59,1.59,3.672,2.384,5.755,2.384c2.082,0,4.165-0.794,5.754-2.384  c2.153-2.153,5.014-3.338,8.058-3.338c3.041,0,5.898,1.184,8.043,3.333c0.277,0.277,0.573,0.521,0.876,0.749  c0,0.003,0,0.008,0,0.011c0,13.908-1.596,26.667-4.745,37.926c-2.739,9.814-6.648,18.386-11.623,25.483  c-6.919,9.89-15.936,16.932-26.812,20.938c-7.309,2.709-15.597,4.082-24.634,4.082c-19.5,0-37.978-6.213-53.439-17.969  C228.48,225.057,216.998,207.71,212.134,188.359z M324.517,396.788c-49.235,10.949-77.959-10.295-89.273-21.646  c9.379-9.087,14.276-25.549,16.59-39.729c3.796,2.514,8.255,4.147,13.105,4.589c0.851,0.076,1.696,0.113,2.535,0.113  c11.863,0,22.311-7.479,26.383-18.277h5.116c2.677,11.56,12.519,20.642,24.954,21.755c0.837,0.076,1.67,0.113,2.503,0.113  c4.353,0,8.611-1.026,12.454-2.911C338.914,353.787,336.776,375.8,324.517,396.788z M255.521,312.094  c0-0.483,0.015-0.87,0.054-1.271c0.16-1.79,0.742-3.115,3.142-4.183c2.011-0.894,4.786-1.357,8.019-1.357  c1.094,0,2.238,0.053,3.424,0.161c5.273,0.471,7.335,1.684,8.094,2.364c0.357,0.32,1.443,1.293,1.094,5.16  c-0.591,6.555-6.397,11.414-12.945,10.824C260.251,323.232,255.572,318.174,255.521,312.094z M338.351,316.567  c-0.195,2.153-0.927,4.131-2.175,5.878c-2.5,3.476-6.52,5.321-10.793,4.938c-6.549-0.586-11.401-6.398-10.816-12.95  c0.42-4.649,6.424-5.561,11.061-5.561c1.348,0,2.58,0.077,3.526,0.162C338.945,309.92,338.683,312.858,338.351,316.567z   M354.028,321.459c0.244-1.129,0.428-2.274,0.533-3.432c0.764-8.535-1.332-23.157-23.948-25.203  c-15.047-1.345-25.987,3.431-30.317,12.738h-5.329c-1.175-4.706-3.61-7.866-5.853-9.876c-4.079-3.654-9.804-5.766-17.498-6.454  c-5.235-0.474-12.872-0.418-19.516,2.537c-6.457,2.872-10.702,7.913-12.212,14.343c-4.622,4.095-10.436,7.776-17.291,10.945  c-15.286,7.078-33.481,10.627-48.931,12.388c17.228-11.086,32.199-23.661,44.727-37.59c13.072-14.522,20.665-27.461,24.765-35.854  c16.418,10.123,35.141,15.446,54.741,15.446c8.899,0,17.271-1.147,24.982-3.374c5.9,6.15,18.77,19.062,34.603,31.915  c12.258,9.945,23.682,17.749,34.222,23.387C380.173,324.098,366.935,323.903,354.028,321.459z"/>
<path d="M173.737,299.969c1.567,0,3.154-0.027,4.755-0.081c4.492-0.154,8.008-3.92,7.855-8.411  c-0.153-4.491-3.933-8.006-8.411-7.855c-33.188,1.136-58.035-11.469-75.279-25.576c2.165,0.275,4.324,0.417,6.471,0.417  c10.337,0,20.365-3.187,29.108-9.602c20.691-15.184,28.169-43.927,18.647-71.592c-4.667-16.638-7.647-32.335-8.861-46.657v-0.001  c-4.023-47.416,11.687-72.469,25.577-85.139c12.386-11.303,30.693-12.868,44.51-3.813c1.747,1.149,2.692,1.975,2.693,1.975l0,0  c3.211,2.937,8.166,2.825,11.244-0.253c15.054-15.054,35.727-24.223,59.783-26.517c22.423-2.138,46.748,1.565,70.353,10.707  c4.194,1.624,8.905-0.459,10.528-4.649c1.623-4.191-0.459-8.904-4.649-10.527c-25.956-10.053-52.851-14.11-77.778-11.732  c-25.301,2.413-47.512,11.532-64.68,26.482c-19.862-12.116-45.523-9.623-62.975,6.304c-15.801,14.412-33.62,41.745-31.324,90.977  c-49.779,9.117-68.344,37.653-74.14,49.932c-8.951,18.965-8.217,39.314,2.015,55.828c0.717,1.158,1.491,2.28,2.293,3.382  C75.62,257.11,113.298,299.969,173.737,299.969z M71.881,181.303c4.645-9.841,19.612-32.555,60.844-40.584  c1.631,12.953,4.497,26.765,8.553,41.183c0.044,0.158,0.093,0.315,0.148,0.47c6.062,17.431,4.45,40.692-12.821,53.365  c-13.008,9.546-29.892,8.464-45.166-2.894c-4.265-3.169-7.773-6.947-10.425-11.23C65.742,209.877,65.33,195.184,71.881,181.303z"/>
<path d="M295.556,217.168c5.395,5.395,12.479,8.091,19.564,8.091c7.084,0,14.172-2.697,19.564-8.091  c3.179-3.178,3.179-8.33,0.001-11.508c-3.178-3.178-8.331-3.179-11.508,0c-4.443,4.442-11.672,4.442-16.113,0  c-3.178-3.177-8.331-3.178-11.508,0C292.378,208.837,292.378,213.99,295.556,217.168z"/>
<g>
</g>
<g>
</g>
<g>
</g>
<g>
</g>
<g>
</g>
<g>
</g>
<g>
</g>
<g>
</g>
<g>
</g>
<g>
</g>
<g>
</g>
<g>
</g>
<g>
</g>
<g>
</g>
<g>
</g>
</svg>
