<?xml version="1.0" encoding="iso-8859-1"?>
<!-- Generator: Adobe Illustrator 19.0.0, SVG Export Plug-In . SVG Version: 6.00 Build 0)  -->
<svg xmlns="http://www.w3.org/2000/svg" xmlns:xlink="http://www.w3.org/1999/xlink" version="1.1" id="Layer_1" x="0px" y="0px" viewBox="0 0 512 512" style="enable-background:new 0 0 512 512;" xml:space="preserve">
<g>
	<path style="fill:#5B5B5B;" d="M362.506,278.48l-5.176,181.654c-0.688,24.317-20.605,43.677-44.933,43.677h-22.8   c19.84,0,35.914-16.084,35.914-35.914V324.002L362.506,278.48z"/>
	<path style="fill:#5B5B5B;" d="M325.515,324.002v143.895c0,19.829-16.073,35.914-35.914,35.914H110.775   c57.501,0,96.811-55.328,87.354-134.668c-5.864-49.17,6.3-91.897,16.401-117.284l63.31,41.155l0.011,0.011L325.515,324.002z"/>
</g>
<g>
	<path style="fill:#EF5454;" d="M307.615,271.393l17.897,52.609l-110.984-72.144l-63.725-41.417   c13.103-23.291,35.608-32.954,35.608-32.954c0,13.267,7.917,24.022,17.689,24.022c3.396,0,6.563-1.299,9.26-3.549   C223.962,240.153,262.136,271.393,307.615,271.393z"/>
	<path style="fill:#EF5454;" d="M401.226,230.828l-38.72,47.652l-36.995,45.523l-17.897-52.609   c45.097,0,68.366-30.716,74.655-72.373C396.563,213.313,401.226,230.828,401.226,230.828z"/>
</g>
<path style="fill:#FCEBE3;" d="M384.053,174.211c0,8.572-0.579,16.892-1.78,24.809c-6.29,41.657-29.559,72.373-74.655,72.373  c-15.418,0-29.995-3.592-42.946-9.98c-25.245-12.459-44.3-35.564-51.31-63.452c-2.697,2.249-5.864,3.549-9.26,3.549  c-9.773,0-17.689-10.756-17.689-24.022c0-3.221,0.47-6.3,1.321-9.107c2.642-8.757,8.976-14.916,16.368-14.916  c2.894,0,5.613,0.95,8.026,2.61c1.583-8.408,4.259-16.434,7.873-23.924c11.28-23.444,36.547-37.322,62.098-32.365  c12.219,2.369,24.437,8.998,32.496,24.033c0,0,1.551-23.509,20.703-31.699c8.069-3.461,17.46-1.441,23.586,4.848  c7.163,7.327,12.699,16.412,16.717,26.752C381.345,138.44,384.053,155.725,384.053,174.211z"/>
<path style="fill:#5B5B5B;" d="M375.612,123.72h-0.011c-4.018-10.341-9.554-19.425-16.717-26.752  c-6.126-6.29-15.516-8.31-23.586-4.848c-19.152,8.189-20.703,31.699-20.703,31.699c-8.058-15.036-20.277-21.664-32.496-24.033  c-7.032-1.365-14.042-1.299-20.736,0c-17.657,3.407-33.195,15.374-41.362,32.365c-3.614,7.491-6.29,15.516-7.873,23.924  c-2.413-1.66-5.132-2.61-8.026-2.61c-7.392,0-13.726,6.158-16.368,14.916c0,0-49.301-91.154-11.443-129.001  c14.108-14.108,41.111-23.455,70.997-28.008c50.305-7.676,108.778-1.78,127.734,17.809  C405.237,60.421,375.612,123.72,375.612,123.72z"/>
<path style="fill:#DDCAC3;" d="M264.661,261.402c0,0,0,0.011,0.011,0.011c-25.245-12.459-44.3-35.564-51.31-63.452  c-2.697,2.249-5.864,3.549-9.26,3.549c-9.773,0-17.689-10.756-17.689-24.022c0-3.221,0.47-6.3,1.321-9.107  c2.642-8.757,8.976-14.916,16.368-14.916c2.894,0,5.613,0.95,8.026,2.61c1.583-8.408,4.259-16.434,7.873-23.924  c11.28-23.444,36.547-37.322,62.098-32.365C282.099,99.785,217.271,181.702,264.661,261.402z"/>
<g>
	<path style="fill:#4D4D4D;" d="M261.364,99.785c-17.657,3.407-33.195,15.374-41.362,32.365c-3.614,7.491-6.29,15.516-7.873,23.924   c-2.413-1.66-5.132-2.61-8.026-2.61c-7.392,0-13.726,6.158-16.368,14.916c0,0-49.301-91.154-11.443-129.001   c14.108-14.108,41.111-23.455,70.997-28.008C247.289,11.372,228.376,66.787,261.364,99.785z"/>
	<path style="fill:#4D4D4D;" d="M277.852,293.024c0,0-40.052-1.048-40.052,33.894s0,157.238-19.655,176.893h-107.37   c57.501,0,96.811-55.328,87.354-134.668c-5.864-49.17,6.3-91.897,16.401-117.284l63.31,41.155L277.852,293.024z"/>
</g>
<path d="M313.455,173.514c2.793-3.558,2.173-8.706-1.385-11.498c-3.557-2.792-8.706-2.174-11.499,1.385  c-1.89,2.409-4.607,3.936-7.647,4.302c-3.038,0.365-6.041-0.475-8.45-2.366c-3.558-2.793-8.705-2.174-11.498,1.383  c-2.794,3.558-2.174,8.706,1.383,11.499c4.954,3.891,10.94,5.949,17.141,5.949c1.12,0,2.25-0.068,3.382-0.203  C302.266,183.075,308.863,179.364,313.455,173.514z"/>
<path d="M315.098,225.201c9.208-11.724,26.235-13.773,37.959-4.566c3.559,2.793,8.707,2.175,11.498-1.383  c2.794-3.558,2.174-8.706-1.383-11.499c-0.838-0.657-1.698-1.267-2.567-1.853l0.067-0.151c1.829-4.136-0.041-8.972-4.179-10.801  c-4.135-1.826-8.973,0.043-10.801,4.18l-0.153,0.346c-9.024-1.936-18.47-0.94-26.886,2.804l-1.797-2.472  c-2.662-3.658-7.782-4.466-11.44-1.807c-3.658,2.661-4.467,7.782-1.806,11.44l1.609,2.213c-1.048,1.081-2.052,2.224-3.003,3.434  c-2.794,3.556-2.174,8.705,1.383,11.498c1.5,1.178,3.282,1.749,5.052,1.749C311.078,228.333,313.483,227.26,315.098,225.201z"/>
<path d="M409.14,228.722c-0.201-0.751-4.772-17.488-18.229-32.483c0.877-7.02,1.329-14.375,1.329-22.029  c0-18.888-2.666-35.766-7.799-50.229c5.906-14.043,26.415-69.529-3.537-100.49C354.291-4.021,267.453-6.063,213.303,10.589  c-4.324,1.33-6.75,5.912-5.421,10.236c1.331,4.324,5.918,6.749,10.235,5.42c25.125-7.725,58.174-11.273,88.401-9.481  c29.949,1.772,53.356,8.544,62.616,18.115c7.242,7.486,14.771,22.496,9.517,51.486c-1.126,6.21-2.664,12.045-4.215,17.07  c-2.894-4.443-6.115-8.524-9.685-12.183c-8.501-8.714-21.634-11.39-32.675-6.664c-11.024,4.719-17.333,13.268-20.932,21.137  c-7.423-7.137-16.711-11.889-27.488-13.979c-28.692-5.566-57.912,9.589-71.039,36.855c-2.602,5.404-4.732,11.021-6.369,16.782  c-0.71-0.072-1.425-0.109-2.141-0.109c-5.833,0-11.155,2.289-15.438,6.193c-4.023-9.004-9.192-21.847-13.031-35.835  c-11.396-41.52-2.788-61.237,6.441-70.465c3.965-3.966,9.37-7.689,16.066-11.066c4.038-2.036,5.661-6.961,3.623-11  c-2.038-4.038-6.963-5.661-11-3.623c-8.253,4.162-15.073,8.909-20.271,14.108c-38.122,38.122,0.071,119.174,8.521,135.788  c-0.192,0.954-0.347,1.928-0.472,2.918c-7.919,4.374-24.169,15.105-34.875,34.138c-2.117,3.765-0.947,8.527,2.674,10.881  l21.037,13.674c1.379,0.896,2.926,1.325,4.456,1.325c2.678,0,5.305-1.314,6.874-3.728c2.466-3.792,1.389-8.864-2.402-11.329  l-14.214-9.239c5.859-8.032,12.793-13.802,18.243-17.557c3.938,11.425,12.982,19.24,23.767,19.24c1.391,0,2.768-0.134,4.121-0.399  c14.054,39.988,50.841,67.728,93.461,70.098l8.455,24.848l-117.326-76.26c-3.789-2.464-8.863-1.389-11.329,2.403  s-1.389,8.864,2.403,11.33l20.622,13.405c-10.241,27.765-20.054,68.554-14.516,114.991c4.9,41.119-3.998,77.89-24.412,100.881  c-14.305,16.111-33.258,24.627-54.809,24.627c-4.524,0-8.189,3.667-8.189,8.189S106.25,512,110.774,512h201.624  c28.968,0,52.3-22.68,53.119-51.634l2.543-89.282c0.129-4.521-3.433-8.29-7.953-8.419c-4.553-0.135-8.291,3.432-8.42,7.954  l-2.543,89.283c-0.434,15.324-9.988,28.098-23.425,33.259c5.024-7.161,7.985-15.87,7.985-25.263V326.915l19.927-24.526  l-1.228,43.135c-0.129,4.521,3.433,8.29,7.953,8.419c0.08,0.002,0.159,0.003,0.238,0.003c4.415,0,8.055-3.515,8.182-7.957  l1.837-64.501l36.966-45.496C409.235,233.957,409.814,231.255,409.14,228.722z M221.306,195.965c-0.687-2.733-2.73-4.92-5.409-5.793  c-0.83-0.271-1.684-0.402-2.532-0.402c-1.892,0-3.755,0.656-5.249,1.902c-1.308,1.092-2.658,1.646-4.008,1.646  c-4.495,0-9.505-6.502-9.505-15.833s5.01-15.833,9.505-15.833c1.12,0,2.253,0.39,3.361,1.159c2.28,1.578,5.203,1.896,7.77,0.843  c2.566-1.053,4.424-3.333,4.939-6.057c1.43-7.577,3.851-14.942,7.198-21.891c9.901-20.565,31.758-32.033,53.163-27.881  c12.167,2.36,20.948,8.857,26.843,19.861c1.72,3.208,5.354,4.878,8.913,4.124c3.562-0.752,6.201-3.787,6.475-7.416  c0.014-0.186,1.57-18.679,15.752-24.75c4.866-2.084,10.697-0.862,14.505,3.043c12.281,12.59,19.79,31.552,22.078,55.383  c-0.043,0.048-0.09,0.092-0.132,0.141c-1.978,2.339-4.748,3.766-7.8,4.022c-3.049,0.258-6.02-0.694-8.358-2.672  c-3.455-2.922-8.622-2.49-11.541,0.963c-2.922,3.454-2.49,8.621,0.963,11.542c5.073,4.291,11.367,6.588,17.936,6.588  c0.784,0,1.572-0.033,2.363-0.098c2.531-0.211,4.98-0.762,7.303-1.614c-0.47,28.024-8.637,86.26-68.223,86.26  C266.742,263.203,231.25,235.553,221.306,195.965z M162.686,495.621c5.421-3.91,10.487-8.502,15.148-13.752  c23.866-26.88,33.963-67.258,28.428-113.696c-4.932-41.36,3.252-78.027,12.357-103.883l98.709,64.161v139.447  c0,15.287-12.437,27.723-27.724,27.723L162.686,495.621L162.686,495.621z M328.502,307.348l-9.665-28.404  c22.663-2.612,41.123-13.293,53.818-31.297c5.959-8.452,10.593-18.482,13.865-29.78c2.657,4.473,4.435,8.531,5.5,11.306  L328.502,307.348z"/>
<path d="M300.042,348.21c4.208,0,7.807-3.326,8.161-7.509c0.621-7.36-8.519-11.668-13.838-6.584  C289.141,339.11,292.841,348.21,300.042,348.21z"/>
<path d="M300.042,420.572c4.157,0,7.735-3.254,8.149-7.387c0.717-7.177-7.965-11.674-13.454-7.043  c-2.561,2.16-3.549,5.848-2.408,9.001C293.494,418.359,296.617,420.572,300.042,420.572z"/>
<path d="M300.042,384.396c4.093,0,7.602-3.152,8.123-7.189c0.918-7.115-7.562-11.805-13.168-7.462  c-2.867,2.221-3.913,6.252-2.523,9.596C293.733,382.365,296.765,384.396,300.042,384.396z"/>
<path d="M303.541,441.166c-2.978-1.408-6.624-0.854-9.053,1.374c-5.378,4.931-1.716,14.219,5.556,14.219  c4.156,0,7.734-3.269,8.149-7.392C308.533,445.964,306.626,442.624,303.541,441.166z"/>
<g>
</g>
<g>
</g>
<g>
</g>
<g>
</g>
<g>
</g>
<g>
</g>
<g>
</g>
<g>
</g>
<g>
</g>
<g>
</g>
<g>
</g>
<g>
</g>
<g>
</g>
<g>
</g>
<g>
</g>
</svg>
