<?xml version="1.0" encoding="iso-8859-1"?>
<!-- Generator: Adobe Illustrator 19.0.0, SVG Export Plug-In . SVG Version: 6.00 Build 0)  -->
<svg xmlns="http://www.w3.org/2000/svg" xmlns:xlink="http://www.w3.org/1999/xlink" version="1.1" id="Layer_1" x="0px" y="0px" viewBox="0 0 512.002 512.002" style="enable-background:new 0 0 512.002 512.002;" xml:space="preserve">
<path style="fill:#EFCA54;" d="M429.52,198.509h-95.787c0-26.453,21.451-47.894,47.894-47.894  C408.079,150.615,429.52,172.056,429.52,198.509z"/>
<path style="fill:#FCE9B4;" d="M381.627,150.615c-2.656,0-5.257,0.226-7.795,0.642c22.741,3.725,40.095,23.455,40.095,47.252h15.594  C429.52,172.056,408.079,150.615,381.627,150.615z"/>
<path style="fill:#DBB342;" d="M395.551,152.678c-4.407-1.337-9.081-2.063-13.924-2.063c-26.441,0-47.894,21.441-47.894,47.894  h27.846C361.577,176.9,375.895,158.643,395.551,152.678z"/>
<path style="fill:#5B5B5B;" d="M442.273,227.045c6.393,10.636,10.08,23.1,10.08,36.421c0,39.061-31.666,56.247-70.727,56.247  S310.9,302.527,310.9,263.466c0-13.322,3.687-25.785,10.08-36.421l0.245-0.746c1.426,0.491,2.951,0.746,4.533,0.746h111.737  c1.582,0,3.107-0.256,4.533-0.746L442.273,227.045z"/>
<g>
	<path style="fill:#CCCCCC;" d="M442.273,227.045l-0.245-0.746c-1.426,0.49-2.951,0.746-4.533,0.746h-7.474   c6.393,10.637,10.08,23.1,10.08,36.421c0,36.996-28.41,54.358-64.601,56.091c2.02,0.097,4.06,0.156,6.126,0.156   c39.061,0,70.727-17.186,70.727-56.247C452.353,250.145,448.666,237.681,442.273,227.045z"/>
	<path style="fill:#CCCCCC;" d="M321.225,226.298l-0.245,0.746h4.779C324.176,227.045,322.651,226.789,321.225,226.298z"/>
</g>
<g>
	<path style="fill:#4D4D4D;" d="M340.354,263.466c0-13.322,3.687-25.784,10.08-36.421h-24.676c-1.582,0-3.107-0.256-4.533-0.746   l-0.245,0.746c-6.393,10.637-10.08,23.1-10.08,36.421c0,39.061,31.666,56.247,70.727,56.247c5.051,0,9.976-0.293,14.727-0.879   C364.363,314.896,340.354,297.475,340.354,263.466z"/>
	<path style="fill:#4D4D4D;" d="M442.028,226.298c-1.426,0.49-2.951,0.746-4.533,0.746h4.778L442.028,226.298z"/>
</g>
<path style="fill:#5B5B5B;" d="M447.586,202.686c2.584,2.584,4.177,6.148,4.177,10.091c0,6.293-4.076,11.639-9.735,13.521  c-1.426,0.491-2.951,0.746-4.533,0.746H325.758c-1.582,0-3.107-0.256-4.533-0.746c-2.116-0.702-4.01-1.894-5.558-3.431  c-2.584-2.584-4.177-6.16-4.177-10.091c0-7.886,6.393-14.268,14.268-14.268h7.975h95.787h7.975  C441.438,198.509,445.002,200.102,447.586,202.686z"/>
<path style="fill:#4D4D4D;" d="M358.579,222.868c-2.584-2.584-4.177-6.16-4.177-10.091c0-7.886,6.393-14.268,14.268-14.268h-34.938  h-7.975c-7.875,0-14.268,6.382-14.268,14.268c0,3.931,1.593,7.507,4.177,10.091c1.548,1.537,3.442,2.729,5.558,3.431  c1.426,0.49,2.951,0.746,4.533,0.746h42.913c-1.582,0-3.107-0.256-4.533-0.746C362.021,225.596,360.127,224.404,358.579,222.868z"/>
<g>
	<path style="fill:#FFD0B8;" d="M114.804,153.778l1.258,42.725c-2.751,2.283-5.981,3.609-9.445,3.609   c-9.969,0-18.054-10.971-18.054-24.504c0-13.533,8.086-24.504,18.054-24.504C109.557,151.105,112.342,152.074,114.804,153.778z"/>
	<path style="fill:#FFD0B8;" d="M290.164,172.267c0,11.027-1.883,22.877-4.879,34.773c-20.727,30.697-48.138,11.65-48.138,11.65   s-31.254,28.224-64.011-9.312c-1.693-1.916-3.363-4.01-5.046-6.282c-24.793-33.581,1.693-96.901,1.693-96.901   c9.835,3.53,17.208,6.359,23.702,8.487c3.698,1.213,7.106,2.206,10.525,2.962c5.736,1.281,11.494,1.916,18.656,1.916   c5.135,0,11.505-1.047,18.478-2.639c10.737-2.439,22.888-6.171,34.06-9.323c6.561,11.138,10.86,24.426,13.098,39.05   C289.551,154.826,290.164,163.412,290.164,172.267z"/>
</g>
<g>
	<path style="fill:#19A343;" d="M171.986,423.119v38.939h-27.288h-30.073V416.77C128.414,419.142,148.251,421.848,171.986,423.119z"/>
	<path style="fill:#19A343;" d="M261.091,419.822v42.236h-27.288h-30.073v-38.226c3.687-0.034,7.429-0.111,11.238-0.234   C229.67,423.129,245.152,421.972,261.091,419.822z"/>
</g>
<g>
	<path style="fill:#24BC57;" d="M215.228,389.103l-0.256,34.495c-3.809,0.122-7.552,0.201-11.238,0.233   c-11.172,0.111-21.797-0.178-31.743-0.713c-10.136-0.546-19.559-1.348-28.09-2.272c-11.473-1.247-21.363-2.718-29.271-4.076   c-13.455-2.306-21.162-4.277-21.162-4.277c0-15.683,0.746-30.997,2.005-45.688c18.556,4.901,35.219,7.396,48.507,8.643   c19.659,1.838,31.91,0.914,31.91,0.914v12.742H215.228z"/>
	<path style="fill:#24BC57;" d="M247.167,376.361c0,0,14.58,0.846,32.702-0.69c0.245,23.735-0.401,41.277-0.401,41.277   c-6.182,1.114-12.319,2.061-18.378,2.874c-15.938,2.15-31.42,3.308-46.122,3.775l0.256-34.495h31.944L247.167,376.361   L247.167,376.361z"/>
	<path style="fill:#24BC57;" d="M279.156,347.268c-17.71,1.448-31.988,0.624-31.988,0.624v-14.479h-31.532l0.29-38.827   c16.273,5.535,27.901,7.64,27.901,7.64s10.67-17.309,21.763-41.367c5.87,12.096,9.4,32.557,11.483,54.744   C278.054,326.006,278.711,336.787,279.156,347.268z"/>
	<path style="fill:#24BC57;" d="M215.929,294.586l-0.29,38.827h-39.752v14.479c0,0-10.815,0.813-28.425-0.613   c-13.11-1.058-29.984-3.352-48.974-8.164c3.152-23.813,7.396-45.242,11.528-62.919c7.396-31.576,14.468-51.223,14.468-51.223   c11.127,23.033,30.863,39.684,51.135,51.492C189.71,284.684,204.056,290.542,215.929,294.586z"/>
</g>
<path style="fill:#F48B2C;" d="M279.869,375.671c-18.122,1.537-32.701,0.69-32.701,0.69v-28.469c0,0,14.279,0.824,31.988-0.624  C279.568,357.203,279.78,366.86,279.869,375.671z"/>
<polygon style="fill:#EFCA54;" points="247.167,376.361 247.167,389.103 215.224,389.103 175.885,389.103 175.885,376.361   175.885,347.893 175.885,333.412 215.636,333.412 247.167,333.412 247.167,347.893 "/>
<path style="fill:#1AA344;" d="M303.972,101.741c17.821,0,37.713,34.126-15.671,44.909c-2.238-14.624-6.538-27.912-13.098-39.05  C286.686,104.37,297.133,101.741,303.972,101.741z"/>
<g>
	<path style="fill:#F48B2C;" d="M285.286,207.04c-4.745,18.846-12.319,37.824-19.692,53.819   c-11.093,24.058-21.764,41.367-21.764,41.367s-11.628-2.105-27.901-7.64c-11.873-4.044-26.219-9.901-40.308-18.122   c-20.271-11.806-40.008-28.457-51.135-51.492c-4.143-8.577-7.083-18.043-8.42-28.469l-1.259-42.726   c0.79-4.2,1.849-8.309,3.152-12.297c5.313-16.273,14.714-30.686,26.998-42.035c4.956,0.523,10.102,1.604,15.337,3.408   c3.408,1.181,6.56,2.295,9.489,3.342c0,0-26.486,63.32-1.693,96.901c1.682,2.272,3.352,4.366,5.046,6.282   c32.757,37.535,64.011,9.312,64.011,9.312S264.558,237.737,285.286,207.04z"/>
	<path style="fill:#F48B2C;" d="M275.203,107.6c-11.172,3.152-23.323,6.884-34.06,9.323l-5.201-45.242   c7.117-0.824,14.168-2.227,20.939-4.377C261.001,79.455,266.86,93.143,275.203,107.6z"/>
</g>
<path style="fill:#24BC57;" d="M256.884,67.303c-6.771,2.15-13.822,3.553-20.94,4.377l-1.025-8.921l-40.097,1.114l-0.19,7.128  c-6.805-0.869-13.254-2.005-19.124-3.23c-18.678-3.931-31.553-8.788-31.553-8.788l9.656-41.89c0,0,16.049-6.716,38.426-8.487  c16.273-1.292,35.898,0.045,55.133,8.487C247.172,17.092,246.803,37.587,256.884,67.303z"/>
<path style="fill:#EFCA54;" d="M235.94,71.68l5.201,45.242c-6.972,1.593-13.343,2.639-18.478,2.639  c-11.428,0-19.28-1.627-29.181-4.879L194.629,71l0.19-7.128l40.097-1.114L235.94,71.68z"/>
<path style="fill:#F48B2C;" d="M194.634,71l-1.147,43.683c-6.103-2.005-12.987-4.623-21.964-7.852  c-0.568-0.212-1.147-0.423-1.738-0.635c-2.929-1.047-6.081-2.161-9.489-3.342c-5.235-1.804-10.381-2.885-15.337-3.408  c-3.53-0.378-6.961-0.49-10.247-0.39l9.245-40.075c0,0,12.876,4.856,31.553,8.788C181.378,68.996,187.828,70.132,194.634,71z"/>
<path style="fill:#1AA344;" d="M192.038,8.605c-5.436,14.646-12.286,35.853-16.529,59.166c-18.678-3.931-31.553-8.788-31.553-8.788  l9.656-41.89C153.611,17.092,169.662,10.377,192.038,8.605z"/>
<path style="fill:#DD7824;" d="M175.509,67.771c-2.306,12.63-3.843,25.896-3.987,39.061c-0.568-0.212-1.147-0.423-1.738-0.635  c-2.929-1.047-6.081-2.161-9.489-3.342c-5.235-1.804-10.381-2.885-15.337-3.408c-3.53-0.378-6.961-0.49-10.247-0.39l9.245-40.075  C143.955,58.982,156.831,63.838,175.509,67.771z"/>
<path style="fill:#E2B39F;" d="M204.012,117.647c0,0-24.849,35.063-30.874,91.733c-1.693-1.916-3.363-4.01-5.046-6.282  c-24.793-33.581,1.693-96.901,1.693-96.901c9.835,3.53,17.208,6.359,23.702,8.487C197.184,115.898,200.592,116.889,204.012,117.647z  "/>
<g>
	<path style="fill:#1AA344;" d="M143.977,375.447c-0.969,13.589-1.125,28.692-0.077,45.398c-11.473-1.247-21.363-2.718-29.271-4.076   c-13.455-2.306-21.162-4.277-21.162-4.277c0-15.683,0.746-30.997,2.005-45.688C114.027,371.705,130.689,374.2,143.977,375.447z"/>
	<path style="fill:#1AA344;" d="M175.621,276.464c0,0-19.335,21.563-28.157,70.816c-13.11-1.058-29.984-3.352-48.974-8.164   c3.152-23.813,7.396-45.242,11.528-62.919c7.396-31.576,14.468-51.223,14.468-51.223   C135.613,248.007,155.349,264.658,175.621,276.464z"/>
</g>
<path style="fill:#DD7824;" d="M175.621,276.464c-20.271-11.806-40.008-28.457-51.135-51.492c-4.143-8.577-7.083-18.043-8.42-28.469  l-1.259-42.726c0.79-4.2,1.849-8.309,3.152-12.297c5.313-16.273,14.714-30.686,26.999-42.035c4.956,0.523,10.102,1.604,15.337,3.408  c3.408,1.181,6.56,2.295,9.489,3.342c0,0-26.486,63.32-1.693,96.901c1.682,2.272,3.352,4.366,5.046,6.282  C171.009,229.272,171.21,251.827,175.621,276.464z"/>
<path style="fill:#F48B2C;" d="M175.885,347.893v28.469c0,0-34.406,2.595-80.417-9.557c0.802-9.523,1.838-18.767,3.019-27.69  C142.983,350.376,175.885,347.893,175.885,347.893z"/>
<path style="fill:#1AA344;" d="M134.707,99.057c3.286-0.1,6.716,0.011,10.247,0.39c-12.285,11.349-21.686,25.762-26.998,42.035  c-20.84-6.939-24.47-16.239-23.535-23.212c0.746-5.513,4.578-10.102,9.69-12.308C110.204,103.334,121.297,99.48,134.707,99.057z"/>
<path d="M210.796,162.444v-13.365c0-4.516-3.661-8.177-8.177-8.177s-8.177,3.661-8.177,8.177v13.365  c0,4.516,3.661,8.177,8.177,8.177S210.796,166.96,210.796,162.444z"/>
<path d="M258.83,137.004c-4.516,0-8.177,3.661-8.177,8.177v13.365c0,4.516,3.661,8.177,8.177,8.177c4.516,0,8.177-3.661,8.177-8.177  V145.18C267.006,140.664,263.345,137.004,258.83,137.004z"/>
<path d="M260.32,180.503c-3.479-2.879-8.634-2.393-11.513,1.085c-3.761,4.543-9.065,7.349-14.937,7.903  c-5.871,0.556-11.607-1.213-16.15-4.975c-3.479-2.879-8.632-2.395-11.513,1.085c-2.879,3.478-2.394,8.632,1.085,11.513  c6.957,5.76,15.521,8.832,24.44,8.832c1.218,0,2.444-0.058,3.672-0.173c10.221-0.963,19.455-5.848,26.002-13.755  C264.284,188.538,263.799,183.383,260.32,180.503z"/>
<path d="M215.985,107.691c4.516,0,8.177-3.661,8.177-8.177V86.149c0-4.516-3.661-8.177-8.177-8.177  c-4.516,0-8.177,3.661-8.177,8.177v13.365C207.808,104.03,211.469,107.691,215.985,107.691z"/>
<path d="M222.111,353.081h-21.162c-4.516,0-8.177,3.661-8.177,8.177c0,4.516,3.661,8.177,8.177,8.177h21.162  c4.516,0,8.177-3.661,8.177-8.177C230.287,356.742,226.626,353.081,222.111,353.081z"/>
<path d="M181.698,309.804c1.274,3.078,4.418,5.138,7.756,5.053c3.334-0.085,6.383-2.283,7.495-5.425  c1.115-3.151,0.18-6.759-2.358-8.94c-2.759-2.37-6.844-2.623-9.873-0.609C181.486,302.032,180.268,306.221,181.698,309.804z"/>
<path d="M452.78,229.34c4.394-4.049,7.166-9.832,7.166-16.263v-0.604c0-12.211-9.934-22.145-22.146-22.145h-0.706  c-3.971-27.054-27.328-47.894-55.468-47.894c-28.14,0-51.497,20.839-55.468,47.894h-0.698c-12.211,0-22.145,9.934-22.145,22.145  v0.604c0,6.429,2.77,12.208,7.16,16.258c-5.085,10.607-7.753,22.267-7.753,34.128c0,31.045,18.453,52.902,49.732,60.98  c-0.529,0.474-1.054,0.948-1.574,1.418c-7.888,7.126-15.34,13.856-26.857,13.856c-20.732,0-35.521-21.264-39.017-26.8  c-2.019-20.295-5.27-39.193-10.434-51.943c11.891-26.369,23.769-59.911,23.769-88.706c0-6.63-0.349-13.103-1.007-19.354  c32.338-8.829,34.35-26.686,33.586-34.334c-1.355-13.56-13.694-25.015-26.944-25.015c-6.467,0-15.119,1.88-24.744,4.451  c-24.056-44.517-23.889-80.424-23.885-80.779c0.059-3.297-1.869-6.307-4.889-7.633c-17.702-7.771-37.575-10.848-59.064-9.152  c-4.502,0.355-7.863,4.293-7.507,8.795c0.356,4.503,4.301,7.868,8.795,7.507c16.86-1.333,32.478,0.655,46.502,5.912  c0.466,7.324,2.05,21.173,7.298,38.943c-1.112,0.249-2.24,0.476-3.383,0.692l-0.056-0.48c-0.484-4.214-4.099-7.343-8.35-7.24  l-40.097,1.113c-3.629,0.1-6.656,2.563-7.621,5.904c-14.282-2.396-26.325-5.783-33.387-8.003l6.997-30.354  c1.586-0.535,3.626-1.181,6.046-1.857c4.35-1.215,6.891-5.724,5.678-10.074c-1.213-4.349-5.724-6.891-10.074-5.678  c-7.217,2.015-11.598,3.837-11.781,3.913c-2.429,1.017-4.219,3.141-4.811,5.706l-17.527,76.033  c-11.455,1.201-20.999,4.476-27.242,7.17c-7.876,3.399-13.452,10.571-14.554,18.716c-1.055,7.81,1.28,17.995,15.723,26.259  c-5.662,1.234-10.885,4.722-14.774,9.999c-4.438,6.024-6.883,13.9-6.883,22.177c0,8.277,2.444,16.153,6.883,22.177  c4.919,6.675,11.971,10.503,19.348,10.503c1.087,0,2.166-0.081,3.231-0.241c1.407,5.982,3.355,11.778,5.826,17.383  c-2.238,6.622-7.42,22.772-12.883,45.528c-5.261,3.231-10.904,7.443-16.458,12.911c-32.096,31.604-36.45,80.373-34.449,115.72  c0.246,4.351,3.852,7.716,8.156,7.714c0.156,0,0.313-0.004,0.47-0.013c4.509-0.255,7.957-4.117,7.701-8.626  c-2.566-45.348,7.427-80.774,28.899-102.449c0.059-0.06,0.119-0.116,0.178-0.174c-6.448,32.37-12.002,72.889-12.002,116.451  c0,3.734,2.529,6.994,6.146,7.921c0.839,0.216,6.149,1.546,15.016,3.235v38.41c0,4.516,3.661,8.177,8.177,8.177h21.896v33.591  c0,4.516,3.661,8.177,8.177,8.177h17.821c4.516,0,8.177-3.661,8.177-8.177c0-4.516-3.661-8.177-8.177-8.177h-9.644v-25.414h19.112  c4.516,0,8.177-3.661,8.177-8.177v-30.313c4.987,0.182,10.122,0.297,15.39,0.331v29.982c0,4.516,3.661,8.177,8.177,8.177h21.895  v33.591c0,4.516,3.661,8.177,8.177,8.177h17.821c4.516,0,8.177-3.661,8.177-8.177c0-4.516-3.661-8.177-8.177-8.177h-9.644v-25.414  h19.112c4.516,0,8.177-3.661,8.177-8.177v-35.138c3.859-0.584,7.743-1.221,11.648-1.923c3.783-0.68,6.583-3.904,6.725-7.745  c0.099-2.685,1.353-38.472-0.608-76.77c9.105,8.157,21.609,15.588,36.989,15.588c17.81,0,28.904-10.021,37.819-18.074  c8.514-7.69,12.212-10.44,17.309-8.823c3.989,1.267,7.555,2.877,10.6,4.786c3.827,2.4,8.872,1.242,11.271-2.584  c1-1.594,1.374-3.398,1.203-5.135c20.892-3.507,37.325-12.553,47.31-26.335c2.649-3.657,1.833-8.769-1.825-11.419  c-3.658-2.649-8.77-1.833-11.419,1.825c-9.913,13.685-29.328,21.221-54.665,21.221c-56.455,0-62.55-33.616-62.55-48.07  c0-9.85,2.317-19.523,6.723-28.24h111.652c4.408,8.716,6.723,18.389,6.723,28.24c0,2.885-0.198,5.689-0.59,8.334  c-0.661,4.468,2.426,8.625,6.892,9.285c0.407,0.06,0.809,0.089,1.207,0.089c3.987,0,7.478-2.92,8.079-6.981  c0.508-3.435,0.765-7.044,0.765-10.727C460.53,251.602,457.862,239.943,452.78,229.34z M255.349,356.266  c1.125,0.023,2.415,0.038,3.862,0.038c3.266,0,7.339-0.081,12.093-0.322c0.125,4.116,0.22,8.154,0.288,12.073  c-7.185,0.397-12.751,0.395-16.243,0.316v-12.106H255.349z M268.909,315.505c-0.008,0.596,0.043,1.196,0.168,1.791  c0.666,7.325,1.175,14.858,1.561,22.343c-6.725,0.343-11.958,0.339-15.29,0.265v-6.49c0-4.516-3.661-8.177-8.177-8.177h-23.294  l0.145-19.498c10.624,3.105,17.704,4.417,18.351,4.533c0.487,0.088,0.975,0.131,1.458,0.131c2.802,0,5.454-1.445,6.96-3.888  c0.65-1.055,6.2-10.139,13.291-23.864C266.216,292.24,267.775,303.566,268.909,315.505z M184.065,380.926v-39.337h54.93v39.337  H184.065z M254.763,216.284c-7.315-0.56-12.94-4.302-12.95-4.309c-3.121-2.168-7.326-1.9-10.147,0.647  c-0.104,0.094-10.786,9.343-24.888,7.925c-11.213-1.127-22.015-8.631-32.108-22.306c-11.038-14.949-9.915-37.872-7.029-54.47  c1.917-11.027,4.86-20.818,7-27.113c0.612,0.223,1.218,0.446,1.811,0.663c18.35,6.718,28.458,10.418,46.215,10.418  c12.192,0,29.461-4.985,46.163-9.804c0.752-0.217,1.506-0.434,2.26-0.652c4.286,8.811,7.365,19.058,9.132,30.601  c1.172,7.683,1.766,15.887,1.766,24.384c0,9.876-1.634,20.532-4.268,31.315C271.218,212.67,263.497,216.947,254.763,216.284z   M314.647,120.206c0.649,6.496-6.814,12.517-19.903,16.435c-1.854-8.586-4.394-16.549-7.643-23.777  c6.846-1.736,12.863-2.947,16.874-2.947C308.316,109.918,314.093,114.666,314.647,120.206z M251.725,77.174  c3.024,7.994,6.769,16.51,11.399,25.386c-4.893,1.412-9.965,2.864-14.919,4.179l-3.236-28.155  C247.269,78.171,249.52,77.701,251.725,77.174z M227.821,72.615c0,0.002,0,0.004,0,0.007c0,0.002,0.001,0.004,0.001,0.007  l4.34,37.77c-3.561,0.616-6.795,0.989-9.496,0.989c-8.074,0-14.148-0.88-20.842-2.715l0.967-36.84l24.858-0.69L227.821,72.615z   M186.27,78.059l-0.662,25.195c-1.138-0.415-2.308-0.843-3.533-1.292c-5.451-1.996-11.631-4.257-19.115-6.838  c-6.189-2.135-12.243-3.355-18.041-3.92l4.982-21.613C157.966,72.088,170.931,75.623,186.27,78.059z M102.529,119.364  c0.337-2.493,2.187-4.75,4.828-5.891c3.767-1.626,10.487-4.096,18.875-5.388c-5.243,7.018-9.615,14.656-13.003,22.727  C107.635,128.163,101.873,124.215,102.529,119.364z M96.743,175.609c0-9.621,5.206-16.327,9.879-16.327  c0.057,0,0.112,0.013,0.169,0.014l0.957,32.513c-0.375,0.081-0.75,0.126-1.126,0.126C101.949,191.936,96.743,185.23,96.743,175.609z   M137.181,267.507c-0.722-4.457-4.917-7.484-9.378-6.766c-0.269,0.044-2.425,0.412-5.845,1.458  c1.754-6.723,3.408-12.601,4.855-17.51c6.542,8.999,14.689,17.382,24.432,25.105c1.502,1.191,3.294,1.769,5.074,1.769  c2.411,0,4.799-1.062,6.414-3.098c2.805-3.54,2.21-8.683-1.329-11.488c-21.587-17.108-34.088-37.698-37.178-61.197l-1.217-41.294  c0.7-3.536,1.609-7.053,2.723-10.465c4.403-13.488,11.996-25.831,22.044-35.923c3.228,0.536,6.525,1.342,9.852,2.489  c0.542,0.186,1.064,0.368,1.593,0.553c-6.546,19.075-19.627,67.129,2.291,96.815c12.95,17.546,27.63,27.258,43.63,28.866  c1.572,0.158,3.11,0.231,4.614,0.231c12.488,0,22.486-5.063,28.053-8.696c5.608,2.61,15.084,5.711,25.785,3.708  c1.977-0.37,3.899-0.904,5.775-1.574c-10.171,27.568-23.708,52.285-29.581,62.491c-10.84-2.573-35.99-9.557-60.052-23.576  c-3.903-2.273-8.908-0.954-11.181,2.949c-2.273,3.902-0.953,8.908,2.949,11.181c12.513,7.29,25.14,12.781,36.207,16.834  l-0.185,24.867h-31.635c-4.516,0-8.177,3.661-8.177,8.177v6.532c-10.942,0.024-32.891-0.89-60.068-7.046  c2.759-19.014,6.166-36.351,9.557-51.221c7.602-3.754,13.078-4.769,13.255-4.8C134.89,276.137,137.899,271.95,137.181,267.507z   M105.501,349.181c27.495,6.098,49.704,7.131,61.588,7.131c0.213,0,0.416-0.001,0.623-0.001v12.103  c-11.395,0.024-34.726-0.974-63.442-7.834C104.648,356.732,105.058,352.931,105.501,349.181z M102.892,377.061  c28.682,6.621,51.923,7.721,64.186,7.721c0.217,0,0.423-0.001,0.633-0.001v4.322c0,4.516,3.661,8.177,8.177,8.177h31.101  l-0.136,18.298c-50.286,0.75-90.344-6.481-105.167-9.609C101.818,396.157,102.242,386.501,102.892,377.061z M163.813,453.881  h-41.008v-27.452c11.261,1.701,25.154,3.375,41.008,4.458V453.881z M252.917,453.881H211.91v-21.963  c13.089-0.342,26.829-1.225,41.007-2.836V453.881z M271.484,410.019c-16.588,2.698-32.806,4.269-48.272,5.034l0.132-17.774h23.828  c4.516,0,8.177-3.661,8.177-8.177v-4.369c1.115,0.023,2.394,0.038,3.827,0.038c3.373,0,7.611-0.086,12.57-0.348  C271.763,395.306,271.615,404.321,271.484,410.019z M381.626,158.788c19.098,0,35.086,13.55,38.867,31.54H342.76  C346.54,172.337,362.529,158.788,381.626,158.788z M319.669,212.472c0-3.193,2.598-5.791,5.791-5.791H437.8  c3.193,0,5.792,2.598,5.792,5.791v0.604c0,3.193-2.598,5.791-5.792,5.791H325.46c-3.193,0-5.791-2.598-5.791-5.791L319.669,212.472  L319.669,212.472z"/>
<g>
</g>
<g>
</g>
<g>
</g>
<g>
</g>
<g>
</g>
<g>
</g>
<g>
</g>
<g>
</g>
<g>
</g>
<g>
</g>
<g>
</g>
<g>
</g>
<g>
</g>
<g>
</g>
<g>
</g>
</svg>
