<?xml version="1.0" encoding="iso-8859-1"?>
<!-- Generator: Adobe Illustrator 19.0.0, SVG Export Plug-In . SVG Version: 6.00 Build 0)  -->
<svg xmlns="http://www.w3.org/2000/svg" xmlns:xlink="http://www.w3.org/1999/xlink" version="1.1" id="Layer_1" x="0px" y="0px" viewBox="0 0 512.003 512.003" style="enable-background:new 0 0 512.003 512.003;" xml:space="preserve">
<path style="fill:#589B38;" d="M216.381,470.201c0,0,35.615,11.852,79.386,8.58l34.096-30.009l-43.474-67.88l-99.019,9.848  l4.117,41.252"/>
<path style="fill:#66B246;" d="M343.199,366.664c28.784,10.411,85.461,9.656,83.081-38.074c-4.107-82.406,33.178-84.9,33.178-84.9  c-35.18,35.18,3.192,49.766,3.192,121.59c0,50.11-59.926,83.951-111.019,100.952"/>
<path style="fill:#75CC54;" d="M498.871,164.589c-5.217,9.038-14.301,15.056-25.718,17.996  c-21.257,5.491-50.613,0.378-78.254-15.582c0,0-36.049,8.535-36.049,39.424c0,30.901,38.623,72.098,38.623,100.425  c0,23.11-22.286,50.51-54.274,59.8v0.011l2.631,31.004c8.706,3.112,14.953,11.406,14.953,21.188c0,8.443-4.645,15.777-11.498,19.643  l3.135,37.01h6.43c14.93,0,27.046,12.104,27.046,27.034h-90.129v-68.232c-12.756,4.965-26.233,7.448-39.687,7.448  c-7.722,0-15.445-0.812-23.018-2.448c0,0-0.011,0-0.011-0.011c-5.652-1.201-11.223-2.872-16.669-4.988v68.232h-90.129  c0-7.459,3.02-14.221,7.917-19.117c4.897-4.885,11.646-7.917,19.117-7.917h6.441l3.135-37.01  c-6.864-3.867-11.498-11.2-11.498-19.643c0-1.682,0.183-3.318,0.549-4.897c1.67-7.585,7.196-13.717,14.404-16.291l2.311-27.286  l0.309-3.718v-0.011c-31.988-9.29-54.274-36.69-54.274-59.8c0-28.327,38.623-69.524,38.623-100.425  c0-30.89-36.038-39.424-36.038-39.424c-6.109,3.524-12.287,6.521-18.465,8.981l-0.057,0.034c-10.525,4.21-20.982,6.876-30.855,8.031  c-24.574,2.883-45.488-3.661-54.606-19.46c-14.919-25.867,7.425-66.71,49.904-91.239c26.187-15.124,54.343-20.982,75.21-16.795  c8.763,1.762,16.246,5.297,21.749,10.663c13.569,13.237,27.206,43.245,31.668,56.997h0.011c-1.705,8.317-2.608,17.115-2.608,26.21  c0,20.032,4.393,38.612,11.91,53.897v0.011c1.316,19.289-0.217,37.273-6.613,51.025c-16.932,36.404,9.564,41.083,29.7,40.008  l3.192-59.434l0.011-0.011c8.683,5.858,18.408,9.13,28.67,9.13s19.987-3.272,28.682-9.118l3.203,59.434  c2.254,0.126,4.599,0.172,6.944,0.114c18.591-0.492,37.788-7.802,22.755-40.122c-6.395-13.752-7.928-31.736-6.613-51.025v-0.011  c7.516-15.285,11.91-33.864,11.91-53.897c0-9.095-0.904-17.893-2.608-26.21h0.011c4.462-13.752,18.099-43.76,31.668-56.997  c12.928-12.608,36.77-15.102,62.591-8.226c11.326,2.997,23.03,7.814,34.367,14.358C491.458,97.879,513.801,138.722,498.871,164.589z  "/>
<g>
	<path style="fill:#66B246;" d="M168.937,366.664v-0.011c-31.988-9.29-54.274-36.69-54.274-59.8   c0-28.327,38.623-69.524,38.623-100.425c0-30.89-36.038-39.424-36.038-39.424c-6.109,3.524-12.287,6.521-18.465,8.981   l31.931-17.321c0,0,43.177,8.672,43.177,53.29s-57.718,105.985,6.029,157.102L168.937,366.664z"/>
	<path style="fill:#66B246;" d="M67.87,184.05c-24.574,2.883-45.488-3.661-54.606-19.46c-14.919-25.867,7.425-66.71,49.904-91.239   c26.187-15.124,54.343-20.982,75.21-16.795C138.379,56.556,21.342,109.251,67.87,184.05z"/>
	<path style="fill:#66B246;" d="M233.049,439.3c-5.652-1.201-11.223-2.872-16.669-4.988v68.232h-90.129   c0-7.459,3.02-14.221,7.917-19.117c4.897-4.885,11.647-7.917,19.117-7.917h6.441l3.135-37.01   c-6.864-3.867-11.498-11.2-11.498-19.643c0-1.682,0.183-3.318,0.549-4.897c1.67-7.585,7.196-13.717,14.404-16.291l2.311-27.286   l11.292-1.327C189.232,414.463,231.722,438.568,233.049,439.3z"/>
</g>
<path style="fill:#75CC54;" d="M322.95,150.426c0,20.032-4.393,38.612-11.91,53.897v0.011c-6.636,13.523-15.696,24.471-26.29,31.599  c-8.695,5.846-18.419,9.118-28.682,9.118c-10.262,0-19.987-3.272-28.67-9.13c-10.594-7.116-19.655-18.065-26.29-31.587v-0.011  c-7.516-15.285-11.91-33.864-11.91-53.897c0-9.095,0.904-17.893,2.608-26.21c8.02-39.516,33.761-68.415,64.262-68.415  c4.954,0,9.77,0.755,14.415,2.208c23.979,7.448,43.142,33.098,49.858,66.207C322.046,132.533,322.95,141.331,322.95,150.426z"/>
<path style="fill:#A0E085;" d="M320.341,124.216c-6.716-33.109-25.879-58.759-49.858-66.207c-4.645-1.453-9.461-2.208-14.415-2.208  c-3.293,0-6.526,0.357-9.691,1.007c1.57,0.325,3.123,0.722,4.656,1.201c23.979,7.448,43.142,33.098,49.858,66.207  c1.705,8.317,2.608,17.115,2.608,26.21c0,20.032-4.393,38.612-11.91,53.897v0.011c-6.636,13.523-15.696,24.471-26.29,31.599  c-5.896,3.964-12.267,6.741-18.956,8.119c3.175,0.656,6.42,0.999,9.723,0.999c10.262,0,19.987-3.272,28.681-9.118  c10.594-7.127,19.655-18.076,26.29-31.599v-0.011c7.516-15.285,11.91-33.864,11.91-53.897  C322.95,141.331,322.046,132.533,320.341,124.216z"/>
<path style="fill:#66B246;" d="M414.611,58.993c-1.224,0.286-2.528,0.561-3.901,0.801c-64.067,11.441-91.378,119.781-70.932,187.625  c25.169,83.516-50.304,76.171-50.304,76.171l5.423-28.109c18.591-0.492,37.788-7.802,22.755-40.122  c-6.395-13.752-7.928-31.736-6.613-51.025v-0.011c7.516-15.285,11.91-33.864,11.91-53.897c0-9.095-0.904-17.893-2.608-26.21h0.011  c4.462-13.752,18.099-43.76,31.668-56.997C364.948,54.611,388.79,52.117,414.611,58.993z"/>
<path style="fill:#A0E085;" d="M498.871,164.589c-5.217,9.038-14.301,15.056-25.718,17.996  c23.533-51.105-24.174-109.235-24.174-109.235C491.458,97.879,513.801,138.722,498.871,164.589z"/>
<g>
	<polygon style="fill:#66B246;" points="227.386,235.933 224.194,295.367 222.673,323.59 241.39,323.59 246.745,244.136  "/>
	<path style="fill:#66B246;" d="M256.068,245.051c-10.262,0-19.987-3.272-28.67-9.13c-10.594-7.116-19.655-18.065-26.29-31.587   v-0.011c-7.516-15.285-11.91-33.864-11.91-53.897c0-9.095,0.904-17.893,2.608-26.21c8.02-39.516,33.761-68.415,64.262-68.415   c4.954,0,9.77,0.755,14.415,2.208C270.483,58.009,166.317,112.272,256.068,245.051z"/>
</g>
<path d="M144.705,206.428c0,11.174-6.457,24.923-13.436,38.117c-2.216,4.19-0.615,9.381,3.574,11.596  c1.279,0.676,2.651,0.998,4.004,0.998c3.078,0,6.053-1.661,7.592-4.57c8.012-15.148,15.426-31.224,15.426-46.14  c0-20.304-12.947-33.49-25.864-40.941l11.503-7.116c4.029-2.493,5.275-7.781,2.782-11.811c-2.493-4.029-7.781-5.276-11.811-2.782  l-25.65,15.868c-37.642,21.674-79.812,21.985-92.131,0.658C8.381,138.946,29.795,102.53,67.46,80.781  c15.107-8.726,30.912-14.175,45.173-16.176c-0.887,12.49,2.443,23.471,5.906,29.831c1.556,2.86,4.502,4.48,7.544,4.48  c1.385,0,2.792-0.336,4.095-1.047c4.162-2.265,5.7-7.476,3.433-11.638c-0.032-0.059-3.239-6.16-3.889-14.909  c-0.186-2.513-0.129-4.97,0.142-7.372c10.121,0.796,18.614,3.891,24.271,9.411c10.935,10.667,23.538,36.328,28.815,51.484  c-1.543,8.291-2.333,16.882-2.333,25.581c0,20.068,4.159,39.401,12.021,56.057c1.145,19.097-0.84,34.325-5.924,45.258  c-7.585,16.309-8.199,29.36-1.824,38.793c5.573,8.244,15.732,12.74,30.243,13.443l-1.03,19.154c-0.255,4.732,3.374,8.775,8.106,9.03  c0.158,0.008,0.313,0.013,0.469,0.013c4.527,0,8.314-3.544,8.561-8.118l1.515-28.167c0.003-0.058,0.007-0.118,0.009-0.176  l2.475-46.013c6.703,2.61,13.668,3.934,20.829,3.934c7.155,0,14.121-1.324,20.831-3.933l2.484,46.075  c0,0.01,0.001,0.021,0.001,0.031l1.523,28.248c0.247,4.575,4.033,8.118,8.561,8.118c0.156,0,0.312-0.003,0.469-0.013  c4.732-0.255,8.361-4.298,8.106-9.03l-1.032-19.154c14.511-0.702,24.673-5.199,30.245-13.443c6.376-9.432,5.763-22.483-1.822-38.792  c-5.084-10.934-7.07-26.161-5.924-45.259c7.862-16.655,12.021-35.987,12.021-56.055c0-8.704-0.792-17.299-2.333-25.581  c5.278-15.155,17.88-40.817,28.814-51.483c5.656-5.517,14.143-8.611,24.256-9.41c1.432,12.157-3.384,21.616-3.753,22.316  c-2.237,4.156-0.697,9.344,3.454,11.602c1.303,0.709,2.709,1.047,4.095,1.047c3.041,0,5.987-1.621,7.544-4.48  c3.462-6.36,6.792-17.342,5.906-29.831c14.261,2.001,30.067,7.449,45.175,16.176c4.104,2.37,9.352,0.964,11.722-3.139  c2.37-4.104,0.964-9.352-3.139-11.722c-2.581-1.491-5.179-2.893-7.786-4.211c4.546-14.717,5.095-38.324-14.902-58.321  c-3.35-3.351-8.783-3.351-12.134,0s-3.351,8.784,0,12.134c14.542,14.542,13.461,30.329,11.121,39.246  c-11.706-4.321-23.32-6.901-34.218-7.716c-2.743-6.543-6.967-13.113-13.188-19.332c-3.35-3.351-8.783-3.351-12.134,0  s-3.351,8.784,0,12.134c2.543,2.543,4.597,5.124,6.261,7.701c-12.23,1.701-22.735,6.18-30.261,13.522  c-9.258,9.032-18.034,24.279-24.484,37.8c-4.72-11.285-10.986-21.275-18.606-29.512c-2.913-3.15-5.966-5.955-9.126-8.45  c4.361-13.842,6.321-30.029-0.006-44.579c-1.889-4.346-6.946-6.338-11.29-4.448c-4.346,1.889-6.338,6.944-4.448,11.29  c3.88,8.924,2.943,19.415,0.525,28.646c-7.189-3.033-14.748-4.6-22.525-4.6c-8.452,0-16.648,1.848-24.389,5.424  c-2.733-10.044-3.544-20.651,0.289-29.469c1.89-4.345-0.102-9.401-4.448-11.29c-4.346-1.892-9.401,0.102-11.29,4.448  c-6.533,15.025-4.228,31.794,0.431,45.925c-2.567,2.15-5.057,4.513-7.455,7.105c-7.619,8.238-13.885,18.229-18.605,29.511  c-6.45-13.52-15.226-28.766-24.484-37.799c-7.53-7.345-18.043-11.825-30.282-13.525c1.737-2.669,3.822-5.24,6.28-7.698  c3.351-3.351,3.351-8.784,0-12.134c-3.351-3.351-8.784-3.351-12.134,0c-6.22,6.22-10.445,12.789-13.188,19.332  c-10.889,0.815-22.493,3.392-34.19,7.706c-0.577-2.21-1.083-4.835-1.301-7.768c-0.875-11.78,3.295-22.367,12.395-31.468  c3.351-3.351,3.351-8.784,0-12.134c-3.351-3.351-8.784-3.351-12.134,0C61.567,23.385,62.115,46.993,66.661,61.71  c-2.607,1.318-5.204,2.721-7.784,4.21C11.585,93.229-11.716,138.452,5.834,168.882c17.17,29.724,66.084,32.734,112.444,7.385  C125.779,178.835,144.705,187.225,144.705,206.428z M199.109,280.922c-2.69-3.979-1.565-11.772,3.167-21.945  c3.584-7.706,5.94-16.865,7.066-27.374c2.915,3.138,5.997,5.986,9.228,8.504l-2.512,46.73  C207.472,286.43,201.445,284.377,199.109,280.922z M313.039,280.922c-2.336,3.456-8.365,5.511-16.951,5.917l-2.518-46.719  c3.234-2.524,6.32-5.375,9.237-8.516c1.127,10.509,3.483,19.666,7.067,27.373C314.604,269.149,315.728,276.943,313.039,280.922z   M223.684,79.11c4.368,8.699,8.416,14.495,8.868,15.132c1.673,2.358,4.318,3.615,7.005,3.615c1.717,0,3.452-0.514,4.958-1.583  c3.865-2.742,4.774-8.099,2.032-11.963c-2.337-3.294-5.688-8.817-8.813-15.47c5.821-2.897,11.998-4.46,18.335-4.46  c5.704,0,11.279,1.271,16.582,3.636c-4.416,9.49-9.031,16.112-9.163,16.298c-2.738,3.865-1.828,9.218,2.035,11.959  c1.507,1.07,3.241,1.583,4.958,1.583c2.686,0,5.332-1.258,7.005-3.615c0.476-0.67,4.933-7.039,9.556-16.511  c11.687,10.91,20.758,27.829,24.894,48.206c1.614,7.88,2.433,16.12,2.433,24.489c0,18.11-3.813,35.438-11.029,50.11  c-0.042,0.087-0.084,0.174-0.122,0.262c-5.994,12.125-14.032,21.809-23.255,28.015c-7.558,5.082-15.597,7.658-23.894,7.658  c-8.302,0-16.334-2.578-23.886-7.672c-9.221-6.195-17.257-15.874-23.253-28.003c-0.039-0.088-0.08-0.174-0.122-0.261  c-7.216-14.671-11.029-31.999-11.029-50.11c0-8.369,0.819-16.608,2.437-24.503C204.18,106.388,212.688,90.039,223.684,79.11z"/>
<path d="M478.907,84.519c-3.512-3.184-8.94-2.915-12.12,0.596c-3.182,3.511-2.915,8.939,0.596,12.12  c23.372,21.178,33.263,47.111,24.056,63.065c-5.665,9.816-17.888,15.433-34.418,15.817c-18.028,0.413-38.548-5.435-57.725-16.485  l-25.629-15.855c-4.031-2.494-9.319-1.247-11.811,2.782c-2.493,4.029-1.247,9.318,2.782,11.811l11.536,7.137  c-1.336,0.755-2.693,1.577-4.052,2.48c-14.296,9.509-21.853,22.802-21.853,38.44c0,17.975,10.671,37.531,20.99,56.442  c8.67,15.888,17.633,32.317,17.633,43.983c0,18.081-18.385,42.934-48.098,51.564c-6.678,1.951-13.597,2.939-20.568,2.939  c-4.739,0-8.58,3.842-8.58,8.58c0,4.739,3.842,8.58,8.58,8.58c5.125,0,10.227-0.444,15.257-1.303l1.797,21.18  c0.285,3.349,2.497,6.223,5.662,7.354c5.54,1.979,9.261,7.248,9.261,13.109c0,5.025-2.734,9.688-7.134,12.17  c-2.923,1.649-4.616,4.852-4.334,8.197l2.346,27.703h-3.541c-4.739,0-8.58,3.842-8.58,8.58c0,4.739,3.842,8.58,8.58,8.58h12.832  c0.016,0,0.031,0.002,0.047,0.002h6.43c7.084,0,13.249,4.007,16.345,9.873h-70.848v-53.635l19.233-6.964  c4.456-1.613,6.76-6.533,5.146-10.989c-1.614-4.456-6.534-6.76-10.989-5.146l-24.888,9.012c-0.04,0.015-0.077,0.034-0.117,0.049  c-0.025,0.009-0.051,0.015-0.077,0.024c-11.7,4.554-24.005,6.864-36.574,6.864c-12.566,0-24.876-2.31-36.588-6.864  c-0.027-0.01-0.055-0.016-0.082-0.026c-0.038-0.014-0.073-0.033-0.111-0.047l-24.888-9.012c-4.456-1.617-9.376,0.691-10.989,5.146  c-1.614,4.456,0.691,9.376,5.146,10.989l19.235,6.965v53.633h-70.864c0.856-1.626,1.959-3.129,3.293-4.462  c3.497-3.489,8.134-5.41,13.057-5.41h6.441c0.016,0,0.031-0.002,0.047-0.002h12.829c4.739,0,8.58-3.842,8.58-8.58  s-3.842-8.58-8.58-8.58h-3.539l2.346-27.703c0.284-3.346-1.412-6.552-4.338-8.199c-4.398-2.477-7.129-7.139-7.129-12.167  c0-5.861,3.722-11.128,9.261-13.109c3.166-1.131,5.379-4.008,5.662-7.357l1.789-21.177c5.03,0.859,10.131,1.303,15.253,1.303  c4.739,0,8.58-3.842,8.58-8.58s-3.842-8.58-8.58-8.58c-6.97,0-13.89-0.988-20.579-2.943c-29.702-8.626-48.087-33.48-48.087-51.559  c0-8.65,4.934-19.599,9.233-28.171c2.125-4.236,0.412-9.392-3.823-11.516c-4.235-2.126-9.392-0.413-11.516,3.823  c-5.147,10.262-11.054,23.613-11.054,35.864c0,26.408,23.119,54.186,53.74,65.786l-1.639,19.399  c-9.394,5.507-15.398,15.683-15.398,26.819c0,9.266,4.151,17.97,11.113,23.824l-2.056,24.278  c-8.958,0.357-17.338,4.016-23.739,10.402c-6.726,6.726-10.43,15.67-10.43,25.184c0,4.739,3.842,8.58,8.58,8.58h90.129  c4.739,0,8.58-3.842,8.58-8.58v-21.099c11.723,2.806,31.599,6.493,55.184,6.493c2.311,0,4.663-0.042,7.042-0.118v14.724  c0,4.739,3.842,8.58,8.58,8.58h90.129c4.739,0,8.58-3.842,8.58-8.58c0-15.748-10.28-29.133-24.482-33.822  c19.838-7.71,43.331-19.066,62.944-34.867c3.691-2.973,4.271-8.375,1.299-12.065c-2.972-3.69-8.375-4.271-12.065-1.299  c-19.488,15.702-43.484,26.754-62.922,33.959l-0.996-11.773c6.962-5.859,11.113-14.563,11.113-23.822  c0-11.137-6.005-21.313-15.4-26.82l-1.174-13.831c19.495,4.065,46.334,4.122,64.378-9.223c8.675-6.415,18.785-18.705,17.683-40.82  c-0.924-18.539,0.336-32.511,2.629-43.017c1.242,5.552,3.135,11.229,5.14,17.243c5.101,15.305,11.45,34.353,11.45,62.89  c0,13.53-5.179,26.691-15.396,39.118c-3.009,3.661-2.481,9.068,1.18,12.077c1.597,1.313,3.526,1.953,5.443,1.953  c2.478,0,4.937-1.069,6.633-3.131c12.807-15.579,19.3-32.407,19.3-50.016c0-31.322-7.126-52.704-12.331-68.316  c-7.174-21.525-10.144-30.436,6.626-47.206c2.527-2.527,3.224-6.359,1.746-9.614c-1.478-3.256-4.832-5.258-8.386-5.014  c-1.866,0.125-45.651,4.089-41.175,93.889c0.589,11.824-2.925,20.384-10.747,26.168c-8.862,6.554-22.76,8.871-36.467,8.139  c21.139-13.924,35.556-35.62,35.556-56.471c0-16.044-9.584-33.608-19.73-52.203c-9.289-17.022-18.893-34.625-18.893-48.222  c0-19.305,18.883-27.62,26.425-30.17c20.977,11.457,43.439,17.489,63.564,17.016c22.748-0.527,40.108-9.191,48.883-24.395  C519.797,145.497,508.788,111.596,478.907,84.519z M224.961,463.73v-17.557c10.118,2.769,20.542,4.168,31.118,4.168  c10.577,0,20.997-1.398,31.107-4.165v24.476C259.228,471.587,235.517,466.486,224.961,463.73z"/>
<path d="M63.061,96.508c-4.536-1.361-9.322,1.214-10.684,5.752l-3.862,12.874c-1.361,4.54,1.214,9.323,5.752,10.684  c0.823,0.247,1.652,0.364,2.469,0.364c3.691,0,7.1-2.4,8.215-6.117l3.862-12.874C70.176,102.652,67.6,97.869,63.061,96.508z"/>
<path d="M83.276,113.847l-3.862,12.874c-1.361,4.54,1.214,9.323,5.752,10.684c0.823,0.247,1.652,0.364,2.469,0.364  c3.691,0,7.1-2.4,8.215-6.117l3.862-12.874c1.361-4.54-1.214-9.323-5.752-10.684C89.425,106.732,84.638,109.309,83.276,113.847z"/>
<path d="M228.325,165.413c4.739,0,8.58-3.842,8.58-8.58v-21.345c0-4.739-3.842-8.58-8.58-8.58c-4.739,0-8.58,3.842-8.58,8.58v21.345  C219.744,161.571,223.586,165.413,228.325,165.413z"/>
<path d="M283.82,165.413c4.739,0,8.58-3.842,8.58-8.58v-21.345c0-4.739-3.842-8.58-8.58-8.58s-8.58,3.842-8.58,8.58v21.345  C275.24,161.571,279.082,165.413,283.82,165.413z"/>
<path d="M449.084,96.508c-4.538,1.361-7.115,6.145-5.752,10.684l3.862,12.874c1.115,3.717,4.525,6.117,8.215,6.117  c0.816,0,1.646-0.118,2.469-0.364c4.538-1.361,7.115-6.145,5.752-10.684l-3.862-12.874C458.407,97.72,453.623,95.144,449.084,96.508  z"/>
<path d="M418.185,108.095c-4.538,1.361-7.115,6.145-5.752,10.684l3.862,12.874c1.115,3.717,4.525,6.117,8.215,6.117  c0.816,0,1.646-0.118,2.469-0.364c4.538-1.361,7.115-6.145,5.752-10.684l-3.862-12.874  C427.507,109.307,422.725,106.731,418.185,108.095z"/>
<g>
</g>
<g>
</g>
<g>
</g>
<g>
</g>
<g>
</g>
<g>
</g>
<g>
</g>
<g>
</g>
<g>
</g>
<g>
</g>
<g>
</g>
<g>
</g>
<g>
</g>
<g>
</g>
<g>
</g>
</svg>
