<?xml version="1.0" encoding="iso-8859-1"?>
<!-- Generator: Adobe Illustrator 19.0.0, SVG Export Plug-In . SVG Version: 6.00 Build 0)  -->
<svg xmlns="http://www.w3.org/2000/svg" xmlns:xlink="http://www.w3.org/1999/xlink" version="1.1" id="Layer_1" x="0px" y="0px" viewBox="0 0 512 512" style="enable-background:new 0 0 512 512;" xml:space="preserve">
<path style="fill:#FCC03A;" d="M103.881,397.592c-15.896,32.254-60.435,33.575-60.435,33.575s28.852-24.339,7.353-81.614  c-21.51-57.275-10.194-160.367,57.727-160.367c44.011,0,57.595,32.43,61.701,55.25c-2.598-0.121-5.229-0.132-7.882-0.022  c-43.273,1.75-81.758,39.552-84.212,82.792c-1.552,27.168,9.236,51.837,27.278,68.955L103.881,397.592z"/>
<g>
	<rect x="346.328" y="479.361" style="fill:#847E74;" width="27.135" height="24.383"/>
	<rect x="309.99" y="479.361" style="fill:#847E74;" width="36.338" height="24.383"/>
	<rect x="197.299" y="480.429" style="fill:#847E74;" width="26.585" height="23.315"/>
	<rect x="167.874" y="480.429" style="fill:#847E74;" width="29.425" height="23.315"/>
</g>
<g>
	<path style="fill:#DDBB6F;" d="M223.881,420.83v59.598h-26.585v-65.697C205.992,417.593,214.964,419.553,223.881,420.83z"/>
	<path style="fill:#DDBB6F;" d="M373.459,381.806v97.554h-27.135v-79.314c10.557-5.614,19.462-11.834,26.915-18.494L373.459,381.806   z"/>
</g>
<path style="fill:#F9D780;" d="M417.173,259.505c-6.671,0.242-13.573-0.385-20.574-1.992l-0.231,1.024  c14.597,33.19,19.363,85.093-23.128,123.016c-7.453,6.66-16.358,12.88-26.915,18.494v79.314h-36.338v-62.504  c0,0-42.282,10.249-86.106,3.974c-8.917-1.277-17.888-3.236-26.585-6.099v65.697h-29.425v-55.646c0,0-10.05-1.948-23.249-7.067  c-14.949-3.732-28.39-11.272-39.211-21.554c-18.042-17.118-28.83-41.787-27.278-68.955c2.455-43.24,40.939-81.042,84.212-82.792  c2.653-0.11,5.284-0.099,7.882,0.022c14.509,0.694,28.104,4.91,39.938,11.812c4.502,2.62,8.751,5.625,12.692,8.972  c8.796,7.453,21.4,9.027,31.56,3.578c0.473-0.253,0.936-0.517,1.387-0.793c0.341-0.198,0.661-0.418,0.98-0.616  c44.77-27.476,5.658-71.025,5.658-134.63s54.578-70.595,54.578-70.595c0-8.355,1.035-15.334,2.741-21.169  c8.278-28.258,32.441-29.711,32.441-29.711v48.051h0.055c1.431-48.909,35.138-51.078,35.138-51.078v51.309  c0,0,22.126,20.244,32.1,33.575c0,0,28.104,39.673,28.115,39.684c5.416,7.232,10.975,14.41,16.644,21.444  C505.425,205.279,468.317,257.722,417.173,259.505z"/>
<path style="fill:#DDBB6F;" d="M311.461,102.199c0,0-47.426,18.043-47.426,53.479c0,22.628,8.135,38.886,12.296,54.85  c6.64,25.477,93.147,49.093,98.504,38.807c0,0-75.531-25.29-84.245-112.162"/>
<g>
	<path style="fill:#F9E5BB;" d="M374.835,249.334c97.878-19.073,73.457-114.98,72.775-116.51   c5.416,7.232,10.975,14.41,16.644,21.444C505.425,205.279,466.566,288.138,374.835,249.334z"/>
	<path style="fill:#F9E5BB;" d="M417.173,259.494v0.011c-6.671,0.242-13.573-0.385-20.574-1.992l-0.231,1.024   c14.597,33.19,19.363,85.093-23.128,123.016c-7.453,6.66-16.358,12.88-26.915,18.494c73.578-101.957,14.608-158.231,13.463-159.321   L417.173,259.494z"/>
</g>
<path style="fill:#FCC03A;" d="M319.762,40.994c-1.706,5.834-2.741,12.813-2.741,21.169c0,0-54.578,6.99-54.578,70.595  s39.112,107.153-5.658,134.63c-0.319,0.198-0.638,0.418-0.98,0.616c-0.451,0.275-0.914,0.539-1.387,0.793  c-10.161,5.449-22.765,3.875-31.56-3.578c-3.941-3.346-8.19-6.352-12.692-8.972c38.187-23.315,3.809-58.354,13.793-142.567  C234.151,27.817,319.762,40.994,319.762,40.994z"/>
<polygon style="fill:#F9E5BB;" points="330.219,406.871 346.324,401.367 346.324,479.36 330.219,479.36 "/>
<g>
	<path style="fill:#DDBB6F;" d="M208.841,417.979c67.437-10.006,101.144-41.402,101.144-41.402v40.279   C309.986,416.856,251.486,436.792,208.841,417.979z"/>
	<path style="fill:#DDBB6F;" d="M116.661,337.52c0,60.545,51.21,87.262,51.21,87.262s-10.05-1.948-23.249-7.067   c-14.949-3.732-28.39-11.272-39.211-21.554c-18.042-17.118-28.83-41.787-27.278-68.955c2.455-43.24,40.939-81.042,84.212-82.792   c2.653-0.11,5.284-0.099,7.882,0.022C170.227,244.435,116.661,273.673,116.661,337.52z"/>
</g>
<path style="fill:#E58376;" d="M349.259,181.022H332.38c-4.561,0-8.256-3.697-8.256-8.256c0-4.56,3.695-8.256,8.256-8.256h16.879  c4.561,0,8.256,3.697,8.256,8.256C357.515,177.325,353.819,181.022,349.259,181.022z"/>
<path style="fill:#F9D780;" d="M245.058,272.065c0,0-54.814-42.012-53.093-124.458c0.196-9.386-6.079-17.683-15.181-19.983  c-27.902-7.052-86.866-17.937-135.693-0.052c-10.23,3.747-14.257,16.317-7.978,25.221c4.425,6.275,11.239,11.796,21.548,11.996  c0,0-7.22,31.79,25.67,39.032c0,0,11.404,36.554,44.55,30.588c0,0-6.078,29.61,25.841,30.227c0,0,10.559,23.325,34.879,18.291  c0,0,15.863,27.25,64.353,28.186L245.058,272.065z"/>
<path style="fill:#DDB55B;" d="M206.439,219.872c-43.086-0.011-38.352-64.64-60.369-64.64c-21.774,0-20.233-35.534-20.2-36.316  c20.607,1.816,38.727,5.625,50.913,8.707c9.104,2.301,15.378,10.601,15.18,19.98C191.358,176.786,197.832,200.894,206.439,219.872z"/>
<path d="M470.68,149.084c-9.032-11.195-18.405-23.575-27.858-36.796c-12.609-17.632-26.579-34.496-41.522-50.125l-5.649-5.909V8.256  c0-2.282-0.943-4.462-2.609-6.023c-1.663-1.561-3.902-2.362-6.177-2.217c-1.121,0.072-11.247,0.935-21.553,8.906  c-1.758,1.36-3.368,2.817-4.858,4.347v-1.991c0-2.275-0.94-4.451-2.596-6.01c-1.656-1.56-3.884-2.372-6.156-2.23  c-1.138,0.068-26.198,1.918-37.566,29.14c-13.075-0.75-42.218-0.013-65.86,17.958c-18.302,13.912-29.244,34.963-32.522,62.569  c-4.294,36.233-0.535,64.204,2.21,84.626c1.828,13.603,2.998,23.439,2.128,31.094c-10.973-19.408-20.59-46.35-19.874-80.647  c0.279-13.324-8.527-24.904-21.411-28.16c-14.29-3.612-36.571-8.212-61.56-9.616c-30.034-1.685-56.609,1.616-78.997,9.816  c-7.345,2.689-12.9,8.538-15.246,16.047c-2.327,7.453-1.102,15.356,3.362,21.685c5.128,7.272,11.728,12.092,19.388,14.232  c-0.028,6.241,1.087,14.861,6.088,22.743c2.077,3.275,4.644,6.112,7.633,8.553c-13.437,15.299-22.389,38.064-25.549,65.463  c-3.29,28.539,0.125,59.907,9.14,83.909c18.955,50.498-4.03,71.589-4.947,72.402c-2.684,2.264-3.643,5.98-2.389,9.26  c1.225,3.203,4.298,5.307,7.71,5.307c0.083,0,0.164-0.001,0.248-0.003c1.878-0.055,43.182-1.641,63.371-30.981  c7.929,6.143,16.779,11.019,26.193,14.43c2.904,1.051,12.872,4.228,14.743,4.872c4.558,1.57,8.541,2.733,11.619,3.555v72.45  c0,4.56,3.695,8.256,8.256,8.256h29.343c0.029,0,0.056,0.004,0.085,0.004h26.584c4.561,0,8.256-3.697,8.256-8.256v-73.629  c7.517,0.717,14.892,1.019,21.934,1.019c19.986,0,37.292-2.371,47.66-4.197v76.807c0,4.56,3.695,8.256,8.256,8.256h63.473  c4.561,0,8.256-3.697,8.256-8.256V384.955c12.183-11.625,21.168-25.072,26.718-40.034c1.586-4.274-0.593-9.027-4.868-10.613  c-4.279-1.585-9.028,0.594-10.613,4.869c-5.049,13.606-13.531,25.792-25.214,36.219c-7.174,6.41-15.682,12.251-25.291,17.361  c-2.695,1.433-4.38,4.237-4.38,7.29v71.058h-19.827v-94.527c0-4.56-3.695-8.256-8.256-8.256c-4.561,0-8.256,3.697-8.256,8.256  v33.552c-13.088,2.448-44.664,7.112-76.679,2.527c-8.982-1.286-17.452-3.227-25.172-5.767c-4.332-1.427-8.999,0.93-10.424,5.262  c-0.255,0.778-0.385,1.566-0.408,2.345c-0.001,0.03-0.01,0.057-0.01,0.088v57.588h-12.911v-47.395c0-3.948-2.803-7.345-6.676-8.103  c-0.068-0.013-5.123-1.019-12.605-3.404c-2.786-0.888-16.394-5.315-19.381-6.46c-9.755-3.742-18.744-9.398-26.37-16.644  c-17.054-16.18-26.064-38.958-24.718-62.497c0.384-6.739,1.759-13.496,4.088-20.081c1.521-4.299-0.731-9.017-5.03-10.537  c-4.301-1.52-9.016,0.732-10.536,5.03c-2.851,8.058-4.535,16.352-5.008,24.648c-1.487,26.011,7.52,51.255,24.859,70.32  c-8.006,13.154-22.316,19.646-33.835,22.83c6.454-14.56,10.647-38.511-2.387-73.234c-19.188-51.094-7.598-111.271,15.835-135.269  c5.778,13.375,19.426,31.174,41.916,31.923c0.168,2.108,0.522,4.401,1.157,6.757c-9.885,6.064-18.848,13.92-26.207,23.024  c-2.867,3.546-2.316,8.744,1.23,11.61c1.528,1.235,3.363,1.836,5.185,1.836c2.409,0,4.794-1.048,6.425-3.066  c6.134-7.588,13.596-14.114,21.802-19.178c4.993,4.626,11.628,7.411,19.822,8.303c5.874,9.198,18.156,20.564,36.211,19.191  c7.377,8.79,27.386,26.808,67.894,27.591c0.054,0.001,0.108,0.001,0.162,0.001c4.485,0,8.165-3.592,8.252-8.096  c0.088-4.56-3.537-8.325-8.095-8.415c-42.711-0.826-56.837-23.204-57.377-24.086c-1.787-3.068-5.339-4.649-8.809-3.931  c-8.34,1.729-14.459-1.064-18.638-4.575l6.543-1.246c4.479-0.852,7.419-5.175,6.567-9.655c-0.853-4.479-5.184-7.419-9.655-6.566  l-18.609,3.542c-6.702-0.251-11.494-2.059-14.212-5.41c-2.321-2.861-3.059-6.574-3.218-9.574l17.066-3.153  c4.484-0.828,7.448-5.134,6.619-9.618c-0.829-4.484-5.145-7.454-9.618-6.619l-23.352,4.314l0,0  c-16.46,2.964-26.191-7.835-31.119-16.154l22.152-3.83c4.494-0.777,7.505-5.048,6.729-9.542c-0.777-4.492-5.048-7.512-9.542-6.728  l-31.025,5.363c-9.42-2.433-15.102-7.483-17.335-15.418c-0.812-2.886-1.037-5.709-1.029-8.014l26.748-4.168  c4.506-0.702,7.589-4.924,6.887-9.428c-0.701-4.506-4.921-7.588-9.427-6.887L54.205,156.5c-5.828-0.291-10.526-3.061-14.34-8.471  c-1.478-2.096-1.877-4.738-1.093-7.247c0.801-2.564,2.683-4.555,5.162-5.463c13.514-4.949,38.02-10.989,73.823-8.848  c0.568,8.393,2.765,21.313,10.529,29.475c4.691,4.931,10.842,7.537,17.789,7.537c3.603,0,8.069,11.073,11.328,19.159  c7.259,18.003,17.035,42.244,43.561,45.182c16.028,32.739,37.617,49.672,39.075,50.788c1.959,1.503,4.377,1.989,6.621,1.547  c0.615-0.121,3.449-0.929,4.261-1.149c2.568-0.698,5.041-1.679,7.384-2.938c0.59-0.315,2.796-1.656,2.796-1.656  c34.003-20.868,26.546-51.175,18.651-83.26c-4.244-17.253-9.056-36.808-9.056-58.406c0-55.284,45.471-62.145,47.371-62.405  c4.12-0.527,7.207-4.036,7.207-8.189c0-7.042,0.81-13.384,2.409-18.848c3.552-12.123,10.561-18.091,16.261-21.016v37.035  c0,0.225,0.017,0.445,0.034,0.664c-0.025,0.964-0.03,1.869-0.03,2.599c0,4.56,3.695,8.256,8.256,8.256s8.256-3.697,8.256-8.256  c0-0.996,0.009-1.962,0.052-3.017c0.504-17.263,5.3-29.736,14.254-37.074c1.479-1.212,2.963-2.183,4.375-2.96v40.028  c0,2.126,0.82,4.169,2.289,5.706l7.938,8.303c11.717,12.255,22.8,25.31,33.076,38.901c-1.029-0.461-2.168-0.723-3.37-0.723  c-4.561,0-8.256,3.697-8.256,8.256v14.311c0,4.56,3.695,8.256,8.256,8.256c4.561,0,8.256-3.697,8.256-8.256v-14.311  c0-0.354-0.03-0.701-0.073-1.044c0.711,0.976,1.433,1.947,2.134,2.929c9.638,13.479,19.206,26.117,28.44,37.562  c6.117,7.578,10.478,15.383,13.059,23.16c-1.203,0.363-2.332,0.994-3.273,1.891c-5.274,5.026-1.606,14.239,5.689,14.239  c0.123,0,0.244-0.011,0.367-0.017c0.092,8.974-2.323,17.661-7.309,25.645c-13.287,21.271-40.59,31.351-67.918,25.094  c-6.695-1.536-13.337-4.034-19.744-7.427c-54.583-28.926-77.589-62.939-80.921-85.125c-2.544-16.937,4.023-33.382,19.52-48.877  c3.224-3.224,3.224-8.452,0-11.675s-8.451-3.225-11.676,0c-19.403,19.403-27.537,40.601-24.173,63.005  c7.542,50.226,70.426,87.145,89.52,97.264c6.122,3.242,12.447,5.796,18.864,7.644c4.536,11.029,10.609,30.807,8.122,53.54  c-0.496,4.533,2.776,8.609,7.309,9.105c0.305,0.033,0.608,0.05,0.907,0.05c4.157,0,7.734-3.132,8.197-7.359  c1.844-16.852-0.193-34.912-5.737-52.007c1.968,0.133,3.929,0.207,5.879,0.207c27.105-0.001,52.136-12.73,65.854-34.69  C496.252,207.694,492.63,176.277,470.68,149.084z M354.58,495.488v-7.871h10.622v7.871H354.58z M354.58,404.922  c3.7-2.114,7.238-4.338,10.622-6.654v72.838H354.58V404.922z M338.068,487.617v7.871h-19.827v-7.871H338.068z M205.548,495.488  v-6.803h10.076v6.803H205.548z M205.548,425.676c3.279,0.811,6.639,1.538,10.076,2.169v44.328h-10.076V425.676z M189.035,488.684  v6.799h-12.911v-6.799H189.035z M172.714,176.471c-5.848-14.501-11.894-29.495-26.643-29.495c-2.44,0-4.234-0.738-5.813-2.392  c-3.513-3.68-5.107-10.667-5.765-16.576c12.303,1.503,25.717,3.942,40.269,7.62c5.386,1.361,9.065,6.216,8.95,11.807  c-0.485,23.259,3.277,43.418,9.056,60.493C183.851,202.359,178.53,190.897,172.714,176.471z M284.944,66.875  c-14.034,9.976-30.762,29.501-30.762,65.879c0,23.599,5.066,44.187,9.534,62.351c8.421,34.229,11.462,51.3-11.293,65.266  c0,0-1.564,0.961-1.921,1.151c-1.092,0.587-2.238,1.051-3.422,1.411c-3.311-3.009-9.012-8.646-15.324-16.868  c7.547-13.886,5.318-30.516,2.574-50.934c-2.774-20.639-6.226-46.324-2.179-80.482c2.725-22.935,11.478-40.194,26.019-51.295  c17.449-13.319,39.541-15.018,51.562-14.794c-0.329,2.248-0.599,4.545-0.756,6.927C302.995,57.147,293.957,60.468,284.944,66.875z"/>
<path d="M426.906,206.66c3.902,0,7.313-2.827,8.091-6.638c1.507-7.388-7.32-12.707-13.208-8.099  c-2.809,2.199-3.879,6.13-2.586,9.452C420.432,204.531,423.513,206.66,426.906,206.66z"/>
<path d="M392.103,134.316v-14.311c0-4.56-3.695-8.256-8.256-8.256c-4.561,0-8.256,3.697-8.256,8.256v14.311  c0,4.56,3.695,8.256,8.256,8.256C388.407,142.572,392.103,138.876,392.103,134.316z"/>
<g>
</g>
<g>
</g>
<g>
</g>
<g>
</g>
<g>
</g>
<g>
</g>
<g>
</g>
<g>
</g>
<g>
</g>
<g>
</g>
<g>
</g>
<g>
</g>
<g>
</g>
<g>
</g>
<g>
</g>
</svg>
