<?xml version="1.0" encoding="iso-8859-1"?>
<!-- Generator: Adobe Illustrator 19.0.0, SVG Export Plug-In . SVG Version: 6.00 Build 0)  -->
<svg xmlns="http://www.w3.org/2000/svg" xmlns:xlink="http://www.w3.org/1999/xlink" version="1.1" id="Layer_1" x="0px" y="0px" viewBox="0 0 511.998 511.998" style="enable-background:new 0 0 511.998 511.998;" xml:space="preserve">
<path style="fill:#3EADAD;" d="M440.347,346.057c-3.007,5.809-6.252,11.46-9.735,16.951c11.403,42.501,51.271,63.514,51.271,63.514  c31.11-61.018-17.279-154.267-17.96-155.584C460.406,297.747,452.271,323.059,440.347,346.057z"/>
<path style="fill:#8EEFEF;" d="M463.923,270.937c-1.424,10.853-3.617,21.456-6.499,31.764c10.776,29.998,22.077,75.814,9.01,113.143  c8.718,7.124,15.449,10.678,15.449,10.678C512.994,365.504,464.604,272.253,463.923,270.937z"/>
<path style="fill:#EDEAE4;" d="M440.33,380.482h0.011c-2.998,5.808-6.252,11.46-9.727,16.945  c-8.728,13.791-18.888,26.583-30.281,38.154c-0.011,0-0.011,0.011-0.022,0.011c-41.396,42.063-99.061,68.08-163.032,68.08  c-79.684,0-128.731-35.489-154.06-93.409h0.011c32.535,10.815,58.663,12.548,80.694,8.65c26.861-4.741,47.615-17.856,66.381-33.035  c1.299,11.415,3.787,22.975,7.962,34.101c0,0,55.254-34.379,63.138-89.467h0.011c13.059-6.485,27.483-10.549,44.306-10.549  C444.538,319.964,440.33,380.482,440.33,380.482z"/>
<path style="fill:#D3D1CD;" d="M400.31,435.592c-41.396,42.063-99.061,68.08-163.032,68.08c-79.684,0-128.731-35.489-154.06-93.408  h0.011c32.535,10.815,58.663,12.548,80.694,8.65C163.924,418.914,263.374,498.509,400.31,435.592z"/>
<path style="fill:#52CBCE;" d="M465.892,275.059c0,10.271-0.666,20.398-1.965,30.303c-3.52,26.806-11.659,52.123-23.585,75.12  h-0.011c0,0,1.499-21.553-18.289-38.931c-13.369-11.748-36.466-21.587-76.319-21.587c-16.823,0-31.247,4.064-44.306,10.549h-0.011  c-7.884,55.088-63.138,89.467-63.138,89.467c-4.175-11.126-6.663-22.686-7.962-34.101c-34.156,27.627-74.853,48.392-147.075,24.385  h-0.011c-1.932-4.431-3.731-8.983-5.397-13.669c-11.071-31.136-16.134-67.802-16.134-108.288  C-4.915,259.391,27.62,187.425,27.62,187.425c48.203,21.686,62.65,72.288,62.65,72.288c0-48.192,57.842-84.336,57.842-84.336  c24.096,72.288-33.735,112.93-33.735,112.93s45.461,100.959,93.286-3.387c0-0.011,0-0.011,0-0.011  c2.643-5.752,5.286-12.115,7.928-19.166c3.809-10.16,6.962-22.331,9.561-35.678c1.965-10.038,3.62-20.754,5.008-31.758  c8.661-68.48,72.322-104.335,129.542-93.775h0.011c5.597,1.022,11.126,2.498,16.534,4.431l-11.26,15.457  c-11.16,15.313-3.065,37.166,15.413,41.296c0.233,0.056,0.466,0.111,0.711,0.155c9.361,1.932,18.6-1.588,24.585-8.361  c2.632-2.965,4.63-6.563,5.741-10.593l1.754-6.385l1.866-6.785l0.322,0.089c5.685,5.741,10.927,12.292,15.579,19.699  C453.1,188.746,465.892,230.398,465.892,275.059z"/>
<path style="fill:#8EEFEF;" d="M465.892,275.059c0,10.271-0.666,20.398-1.965,30.303c-3.52,26.806-11.659,52.123-23.585,75.12  h-0.011c0,0,1.499-21.553-18.289-38.931c40.219-78.84-16.345-184.041-16.345-184.041c2.632-2.965,4.63-6.563,5.741-10.593  l1.754-6.385l1.865-6.785l0.322,0.089c5.685,5.741,10.927,12.292,15.579,19.699C453.1,188.746,465.892,230.398,465.892,275.059z"/>
<path style="fill:#3EADAD;" d="M207.664,284.919c-0.133,1.455-11.471,125.555-129.841,111.675  c-11.071-31.136-16.134-67.802-16.134-108.288C-4.915,259.391,27.62,187.425,27.62,187.425c48.203,21.686,62.65,72.288,62.65,72.288  c0-48.192,57.842-84.336,57.842-84.336c24.096,72.288-33.735,112.93-33.735,112.93S159.838,389.266,207.664,284.919z"/>
<path style="fill:#F9D780;" d="M449.562,8.332l-36.371,132.198l-1.753,6.387c-3.367,12.238-14.913,20.412-27.256,19.402  c-1.026-0.085-2.042-0.231-3.066-0.44c-0.243-0.049-0.476-0.103-0.726-0.162c-18.47-4.126-26.566-25.985-15.406-41.298  L449.562,8.332z"/>
<path style="fill:#F9E9C7;" d="M449.562,8.332l-36.371,132.198l-1.753,6.387c-3.367,12.238-14.913,20.412-27.256,19.402  L449.562,8.332z"/>
<path d="M495.663,335.662c-6.158-28.076-16.521-52.115-21.456-62.645c-0.375-43.996-12.864-86.8-36.195-123.921  c-4.035-6.412-8.611-12.396-13.625-17.858l33.202-120.7c1.067-3.879-0.791-7.965-4.415-9.712s-7.978-0.652-10.347,2.598  l-69.762,95.761c-25.54-7.582-53.238-6.248-78.689,3.926c-4.271,1.708-6.349,6.554-4.642,10.824c1.301,3.257,4.43,5.239,7.735,5.239  c1.028,0,2.075-0.192,3.089-0.597c20.043-8.014,41.663-9.667,61.979-4.944l-4.282,5.877c-6.931,9.51-8.588,21.769-4.433,32.792  c4.126,10.944,13.379,18.997,24.655,21.518c0.335,0.08,0.67,0.157,1.004,0.222c2.253,0.46,4.505,0.682,6.73,0.682  c14.61,0,28.017-9.57,32.737-23.988c1.74,2.33,3.397,4.741,4.961,7.227c22.017,35.03,33.656,75.521,33.656,117.092  c0,9.804-0.641,19.634-1.903,29.221c-2.293,17.475-6.631,34.461-12.945,50.742c-2.583-5.303-6.271-10.903-11.534-16.272  c-3.219-3.284-8.493-3.337-11.777-0.118c-3.285,3.219-3.337,8.492-0.118,11.777c11.092,11.316,12.567,23.695,12.725,27.999  c-2.627,4.962-5.453,9.857-8.445,14.572c-40.545,64.098-110.186,102.365-186.293,102.365c-38.345,0-70.582-8.6-95.817-25.562  c-3.818-2.566-8.991-1.551-11.558,2.266c-2.566,3.818-1.551,8.992,2.266,11.557c28.031,18.84,63.395,28.395,105.109,28.395  c81.85,0,156.755-41.165,200.364-110.109c0.535-0.843,1.056-1.701,1.581-2.555c16.641,22.693,37.744,34.009,38.775,34.552  c1.208,0.636,2.542,0.96,3.882,0.96c0.847,0,1.696-0.129,2.518-0.39c2.124-0.674,3.889-2.17,4.901-4.154  C501.886,405.628,504.026,373.785,495.663,335.662z M384.87,111.271l15.31-21.016c2.066,8.105,5.562,17.13,11.467,24.486  l-4.62,16.795c0,0.002-0.001,0.004-0.001,0.007l-3.349,12.187C389.321,128.164,385.748,116.079,384.87,111.271z M417.964,91.782  c-2.825-8.107-3.721-16.37-3.999-20.449l15.465-21.229L417.964,91.782z M382.789,157.719c-0.03-0.007-0.082-0.017-0.113-0.022  c-0.115-0.022-0.231-0.052-0.348-0.08c-0.036-0.009-0.079-0.019-0.115-0.027c-5.965-1.334-10.631-5.401-12.802-11.161  c-2.201-5.839-1.36-12.074,2.31-17.107l1.064-1.46c3.542,7.905,9.668,17.794,20.193,28.813  C389.837,158.006,386.316,158.444,382.789,157.719z M478.148,414.28c-7.938-5.619-20.477-16.069-29.79-31.187  c11.555-22.603,19.336-46.76,23.148-71.894C481.21,340.076,490.234,381.373,478.148,414.28z"/>
<path d="M99.215,423.576c15.712,3.898,29.905,5.629,42.836,5.629c34.63,0,60.27-12.338,82.208-28.194  c1.557,7.7,3.634,15.024,6.213,21.89c0.877,2.336,2.755,4.155,5.117,4.958c0.873,0.296,1.778,0.443,2.678,0.443  c1.538,0,3.065-0.426,4.399-1.257c2.329-1.448,55.737-35.266,66.227-90.843c11.889-5.313,23.978-7.913,36.829-7.913  c21.424,0,39.338,2.963,53.242,8.806c4.238,1.781,9.121-0.211,10.904-4.452c1.781-4.241-0.211-9.122-4.452-10.904  c-15.959-6.706-36.043-10.106-59.695-10.106c-12.164,0-23.733,1.96-35.049,5.939c0-0.043,0.002-0.086,0.002-0.129  c0-4.599-3.729-8.328-8.328-8.328c-4.599,0-8.328,3.729-8.328,8.328c0,3.801-0.265,7.664-0.791,11.488  c-0.026,0.133-0.048,0.266-0.068,0.402c-5.378,37.569-35.318,65.334-50.486,77.207c-1.86-6.801-3.232-14.031-4.099-21.605  c-5.066-44.328,8.781-86.948,9.01-87.641c1.455-4.364-0.904-9.08-5.268-10.533c-4.365-1.455-9.08,0.904-10.533,5.268  c-0.606,1.818-14.341,43.736-10.225,90.164c-34.666,27.073-71.197,40.598-132.144,21.303C76.549,372.462,70.01,333.75,70.01,288.307  c0-3.317-1.968-6.317-5.011-7.639c-16.524-7.176-27.643-17.874-33.047-31.8c-7.147-18.415-3.025-38.71,0.316-49.747  c37.595,21.458,49.873,62.458,49.997,62.883c1.14,3.993,5.047,6.535,9.162,5.96c4.113-0.576,7.173-4.094,7.173-8.247  c0-31.807,29.288-58.708,44.698-70.658c5.203,23.213,1.908,45.059-9.844,65.073c-10.358,17.639-23.755,27.28-23.872,27.363  c-3.268,2.296-4.446,6.591-2.805,10.234c0.222,0.493,5.538,12.203,14.509,23.913c3.241,4.231,6.535,7.926,9.876,11.083  c-8.36-1.442-17.653-4.635-27.342-10.72c-3.894-2.447-9.035-1.271-11.482,2.623c-2.446,3.895-1.273,9.035,2.623,11.482  c17.545,11.02,34.118,14.299,47.634,14.299c16.479,0,28.403-4.874,32.008-6.545c18.098-7.364,34.149-30.176,48.78-69.196  c6.284-16.74,11.342-40.063,15.034-69.32c3.549-28.057,17.687-52.371,39.81-68.462c3.72-2.706,4.542-7.914,1.837-11.634  c-2.706-3.72-7.915-4.543-11.634-1.837c-25.878,18.823-42.405,47.178-46.538,79.844c-3.529,27.974-8.274,50.029-14.103,65.558  c-14.571,38.859-30.88,60.535-45.925,61.034c-15.38,0.519-30.05-20.372-37.06-33.299c5.73-5.06,14.829-14.257,22.628-27.336  c11.336-19.01,22.027-50.14,8.582-90.477c-0.807-2.422-2.681-4.34-5.082-5.203c-2.402-0.865-5.067-0.579-7.232,0.774  c-2.058,1.286-41.862,26.559-56.453,64.178c-9.891-17.387-27.384-39.688-56.207-52.661c-4.189-1.887-9.114-0.023-11.006,4.163  c-0.682,1.509-16.561,37.338-3.658,70.779c6.478,16.79,18.915,29.841,37.007,38.858c0.52,47.141,7.983,87.482,22.203,119.972  c8.49,19.409,19.513,36.232,32.764,50.002c1.636,1.699,3.817,2.554,6.002,2.554c2.078,0,4.159-0.773,5.774-2.327  c3.313-3.189,3.416-8.461,0.227-11.775C112.403,443.792,105.333,434.253,99.215,423.576z"/>
<path d="M421.636,205.387c3.846,0,7.283-2.745,8.127-6.499c0.804-3.578-0.906-7.385-4.136-9.129  c-2.949-1.591-6.672-1.275-9.271,0.865C410.452,195.483,413.976,205.387,421.636,205.387z"/>
<path d="M319.35,190.384c-2.96,2.199-4.123,6.234-2.789,9.671c1.23,3.169,4.353,5.331,7.758,5.331c3.911,0,7.41-2.849,8.173-6.696  C333.951,191.333,325.324,185.947,319.35,190.384z"/>
<path d="M386.36,226.292c0-4.599-3.729-8.328-8.328-8.328s-8.328,3.729-8.328,8.328c0,9.131-7.429,16.561-16.561,16.561  s-16.56-7.429-16.56-16.561c0-4.599-3.729-8.328-8.328-8.328c-4.599,0-8.328,3.729-8.328,8.328  c0,18.315,14.901,33.217,33.216,33.217c9.898,0,18.798-4.351,24.889-11.242c6.091,6.89,14.991,11.242,24.889,11.242  c18.316,0,33.217-14.901,33.217-33.217c0-4.599-3.729-8.328-8.328-8.328s-8.328,3.729-8.328,8.328  c0,9.131-7.429,16.561-16.561,16.561S386.36,235.423,386.36,226.292z"/>
<g>
</g>
<g>
</g>
<g>
</g>
<g>
</g>
<g>
</g>
<g>
</g>
<g>
</g>
<g>
</g>
<g>
</g>
<g>
</g>
<g>
</g>
<g>
</g>
<g>
</g>
<g>
</g>
<g>
</g>
</svg>
