<?xml version="1.0" encoding="iso-8859-1"?>
<!-- Generator: Adobe Illustrator 19.0.0, SVG Export Plug-In . SVG Version: 6.00 Build 0)  -->
<svg xmlns="http://www.w3.org/2000/svg" xmlns:xlink="http://www.w3.org/1999/xlink" version="1.1" id="Layer_1" x="0px" y="0px" viewBox="0 0 511.998 511.998" style="enable-background:new 0 0 511.998 511.998;" xml:space="preserve">
<path style="fill:#B3B3B3;" d="M251.075,503.869h19.101h17.988h19.111v-11.244c0-10.554-8.555-19.109-19.109-19.109h-0.002v-74.186  h-37.088"/>
<polygon style="fill:#999999;" points="267.386,399.326 252.214,399.326 252.214,473.52 252.214,503.873 267.386,503.873   267.386,473.52 "/>
<path style="fill:#B3B3B3;" d="M327.597,104.237v104.454c0,9.189-5.624,17.057-13.611,20.351c-2.59,1.073-5.429,1.658-8.398,1.658  H201.48c-12.159,0-22.009-9.85-22.009-22.009V104.237H327.597z"/>
<path style="fill:#999999;" d="M215.231,208.693V104.236H179.47v104.456c0,12.157,9.855,22.01,22.01,22.01h35.761  C225.085,230.704,215.231,220.849,215.231,208.693z"/>
<g>
	<polygon style="fill:#B3B3B3;" points="327.598,104.236 179.47,104.236 238.14,41.004 268.928,41.004  "/>
	<polyline style="fill:#B3B3B3;" points="238.135,40.999 238.135,8.127 268.928,8.127 268.928,40.999  "/>
	<path style="fill:#B3B3B3;" d="M275.045,230.704h-43.456c-25.251,0-45.721,20.47-45.721,45.721v102.936   c0,11.026,8.939,19.965,19.965,19.965H300.8c11.026,0,19.965-8.939,19.965-19.965V276.425   C320.766,251.173,300.295,230.704,275.045,230.704z"/>
</g>
<g>
	<path style="fill:#999999;" d="M218.377,379.361V276.425c0-25.251,20.47-45.721,45.721-45.721h-32.51   c-25.251,0-45.721,20.47-45.721,45.721v102.936c0,11.026,8.939,19.965,19.965,19.965h32.51   C227.316,399.326,218.377,390.387,218.377,379.361z"/>
	<polyline style="fill:#999999;" points="252.218,41.004 215.231,104.236 179.47,104.236 238.135,40.999  "/>
</g>
<polyline style="fill:#CCCCCC;" points="254.85,41.004 291.837,104.236 327.598,104.236 268.932,40.999 "/>
<path style="fill:#B3B3B3;" d="M251.07,473.52v-74.194h-37.097v74.194v30.352h37.097h19.109V492.63  C270.179,482.076,261.624,473.52,251.07,473.52L251.07,473.52z"/>
<polygon style="fill:#999999;" points="229.144,399.326 213.973,399.326 213.973,473.52 213.973,503.873 229.144,503.873   229.144,473.52 "/>
<path style="fill:#CCCCCC;" d="M313.986,104.237v124.805c-2.59,1.073-5.429,1.658-8.398,1.658h-12.451V104.237H313.986z"/>
<g>
	<circle style="fill:#B3B3B3;" cx="145.137" cy="299.156" r="16.331"/>
	<circle style="fill:#B3B3B3;" cx="137.421" cy="381.883" r="16.331"/>
	<circle style="fill:#B3B3B3;" cx="366.875" cy="299.156" r="16.331"/>
	<circle style="fill:#B3B3B3;" cx="374.58" cy="381.883" r="16.331"/>
</g>
<path d="M273.07,162.39c4.49,0,8.127-3.639,8.127-8.127v-11.242c0-4.489-3.638-8.127-8.127-8.127c-4.49,0-8.127,3.639-8.127,8.127  v11.242C264.943,158.751,268.581,162.39,273.07,162.39z"/>
<path d="M211.261,165.156c-3.46,0.721-6.127,3.609-6.499,7.133c-0.359,3.395,1.532,6.717,4.609,8.179  c3.172,1.507,7.083,0.755,9.458-1.837c2.198-2.399,2.744-5.969,1.384-8.919C218.666,166.359,214.89,164.426,211.261,165.156z"/>
<path d="M265.12,292.789c7.375,0,10.924-9.533,5.254-14.321c-2.62-2.212-6.487-2.546-9.429-0.77c-2.98,1.797-4.531,5.401-3.738,8.8  C258.054,290.13,261.383,292.789,265.12,292.789z"/>
<path d="M259.375,367.974c4.988,5.022,13.89,1.335,13.872-5.743c-0.02-7.605-10.007-10.992-14.602-4.905  C256.233,360.519,256.532,365.149,259.375,367.974z"/>
<path d="M257.154,321.658c1.318,7.039,10.908,8.781,14.767,2.859c3.959-6.075-1.77-14.057-8.779-12.321  C259.019,313.217,256.287,317.48,257.154,321.658z"/>
<path d="M306.435,162.39c4.49,0,8.127-3.639,8.127-8.127v-11.242c0-4.489-3.638-8.127-8.127-8.127s-8.127,3.639-8.127,8.127v11.242  C298.308,158.751,301.946,162.39,306.435,162.39z"/>
<path d="M394.132,367.209c0.104-0.518,0.159-1.053,0.159-1.603c0-18.878-3.041-35.775-9.04-50.337  c4.426-5.042,6.823-11.907,5.876-19.313c-1.403-10.98-10.269-19.765-21.259-21.082c-4.854-0.582-9.471,0.273-13.488,2.189  c-8.652-6.685-18.738-12.024-29.642-15.688c-2.621-8.99-7.523-17.013-14.042-23.398c13.198-3.204,23.03-15.114,23.03-29.283V104.236  c0-0.026-0.008-0.051-0.009-0.077c-0.02-1.985-0.756-3.938-2.161-5.452l-56.501-60.895V8.127c0-4.489-3.639-8.127-8.127-8.127  h-30.792c-4.489,0-8.127,3.639-8.127,8.127v22.74c-8.627-7.905-20.132-12.148-32.342-11.459  c-22.118,1.248-40.135,19.114-41.539,41.223c-0.937,14.752,5.316,28.636,16.824,37.666c0.187,0.147,0.39,0.257,0.586,0.385  l-0.025,0.027c-0.021,0.022-0.036,0.05-0.055,0.074c-1.31,1.442-2.114,3.353-2.114,5.454v104.456  c0,14.044,9.658,25.875,22.681,29.203c-7.086,6.911-12.277,15.748-14.717,25.661c-7.574,3.048-15.785,7.366-23.698,13.5  c-4.016-1.912-8.629-2.764-13.481-2.181c-10.987,1.32-19.851,10.105-21.253,21.082c-0.946,7.405,1.451,14.27,5.877,19.312  c-5.999,14.561-9.039,31.458-9.039,50.337c0,0.548,0.056,1.084,0.159,1.602c-3.591,4.771-5.482,10.893-4.755,17.456  c1.245,11.233,10.287,20.281,21.519,21.529c14.73,1.637,27.247-9.899,27.247-24.304c0-13.487-10.972-24.46-24.459-24.46  c-1.1,0-2.181,0.08-3.243,0.221c0.67-12.747,2.977-24.258,6.886-34.379c1.323,0.222,2.679,0.344,4.064,0.344  c13.487,0,24.46-10.972,24.46-24.46c0-3.752-0.851-7.307-2.367-10.487c3.481-2.544,7.024-4.691,10.516-6.5v31.218  c0,4.451,3.43,8.331,7.878,8.464c4.602,0.138,8.377-3.552,8.377-8.124v-37.301c0.245-0.323,0.469-0.62,0.715-0.943  c9.136-2.585,15.644-2.931,15.764-2.937c4.485-0.18,7.975-3.961,7.796-8.446c-0.18-4.485-3.939-7.957-8.446-7.796  c-0.463,0.018-4.576,0.216-10.831,1.428c6.495-11.282,18.668-18.901,32.594-18.901l14.934,0.005  c21.707,0,39.303,17.597,39.303,39.303v113.06h-34.755h-37.097h-8.139c-6.538,0-11.838-5.3-11.838-11.838v-40.372  c0-4.451-3.43-8.331-7.878-8.464c-4.602-0.138-8.377,3.552-8.377,8.124v40.711c0,15.516,12.578,28.093,28.093,28.093h0.011v96.419  c0,4.489,3.639,8.127,8.127,8.127l93.302-0.003c4.489,0,8.127-3.639,8.127-8.127v-11.244c0-12.189-8.049-22.534-19.111-25.999  v-24.487c0-4.489-3.639-8.127-8.127-8.127l0,0c-4.489,0-8.127,3.639-8.127,8.127l0.001,23.249h-20.84v-57.928h20.838v8.334  c0,4.451,3.43,8.331,7.878,8.465c4.602,0.138,8.377-3.552,8.377-8.124v-8.677h4.509c15.516,0,28.094-12.578,28.094-28.094v-99.76  c5.052,2.202,10.525,5.157,15.882,9.075c-1.513,3.178-2.363,6.732-2.363,10.48c0,13.487,10.972,24.46,24.459,24.46  c1.385,0,2.742-0.121,4.065-0.345c3.909,10.122,6.216,21.633,6.886,34.379c-1.062-0.141-2.143-0.221-3.243-0.221  c-14.408,0-25.948,12.523-24.304,27.256c1.252,11.221,10.287,20.256,21.509,21.507c14.733,1.644,27.256-9.895,27.256-24.304  C399.04,376.384,397.21,371.301,394.132,367.209z M145.63,381.888c0,4.524-3.68,8.205-8.204,8.205c-4.525,0-8.205-3.68-8.205-8.205  c0-4.525,3.68-8.206,8.205-8.206C141.949,373.682,145.63,377.364,145.63,381.888z M145.131,307.359c-4.524,0-8.204-3.68-8.204-8.205  s3.68-8.205,8.204-8.205c4.525,0,8.205,3.68,8.205,8.205S149.656,307.359,145.131,307.359z M241.918,112.364h77.552v74.801h-62.787  c-3.883,0-7.042-3.159-7.042-7.043v-13.948c0-17.25-14.033-31.283-31.284-31.283h-30.76v-22.528h27.633  c4.49,0,8.127-3.639,8.127-8.127s-3.638-8.127-8.127-8.127h-17.134l43.589-46.979h23.695l43.589,46.979h-67.053  c-4.49,0-8.127,3.639-8.127,8.127S237.429,112.364,241.918,112.364z M260.8,16.255v16.62h-14.537v-16.62H260.8z M182.986,85.51  c-6.797-5.335-10.696-13.346-10.696-21.982c0-15.404,12.537-27.937,27.949-27.937c8.681,0,16.67,3.939,21.942,10.664l-37.769,40.707  C184.004,86.433,183.534,85.941,182.986,85.51z M201.48,222.577c-7.655,0-13.884-6.228-13.884-13.883v-57.546h30.76  c8.287,0,15.029,6.741,15.029,15.028v13.948c0,12.846,10.451,23.298,23.297,23.298h62.787v5.273c0,7.655-6.228,13.883-13.884,13.883  H201.48V222.577z M222.099,481.642h28.866c0.035,0,0.069,0.005,0.105,0.005c6.055,0,10.982,4.926,10.982,10.982v3.112h-10.976  c-0.025,0-0.049,0.003-0.074,0.003h-28.902V481.642z M299.147,495.742h-20.84v-3.112c0-3.909-0.837-7.624-2.326-10.987h12.185  c6.056,0,10.982,4.926,10.982,10.982v3.118H299.147z M222.099,465.387v-57.934h20.842v57.934H222.099z M312.638,379.361  c0,6.096-4.63,11.125-10.558,11.766V278.14c0-14.224-5.379-27.213-14.202-37.05c14.429,5.257,24.761,19.111,24.761,35.336V379.361z   M358.668,299.155c0-4.524,3.68-8.206,8.204-8.206c4.524,0,8.204,3.68,8.204,8.206c0,4.525-3.68,8.205-8.204,8.205  C362.348,307.36,358.668,303.679,358.668,299.155z M374.579,390.093c-4.525,0-8.205-3.68-8.205-8.205  c0-4.525,3.68-8.206,8.205-8.206c4.524,0,8.204,3.68,8.204,8.206C382.784,386.413,379.104,390.093,374.579,390.093z"/>
<g>
</g>
<g>
</g>
<g>
</g>
<g>
</g>
<g>
</g>
<g>
</g>
<g>
</g>
<g>
</g>
<g>
</g>
<g>
</g>
<g>
</g>
<g>
</g>
<g>
</g>
<g>
</g>
<g>
</g>
</svg>
