<?xml version="1.0" encoding="iso-8859-1"?>
<!-- Generator: Adobe Illustrator 19.0.0, SVG Export Plug-In . SVG Version: 6.00 Build 0)  -->
<svg xmlns="http://www.w3.org/2000/svg" xmlns:xlink="http://www.w3.org/1999/xlink" version="1.1" id="Layer_1" x="0px" y="0px" viewBox="0 0 512 512" style="enable-background:new 0 0 512 512;" xml:space="preserve">
<polyline style="fill:#4D4D4D;" points="311.559,256.499 353.432,503.789 158.569,503.789 199.107,264.392 "/>
<g>
	<polyline style="fill:#333333;" points="231.552,264.43 217.685,503.789 158.569,503.789 205.841,224.631  "/>
	<polyline style="fill:#333333;" points="316.028,284.599 370.662,373.173 335.631,397.257  "/>
	<polyline style="fill:#333333;" points="195.686,284.599 141.053,373.173 176.085,397.257  "/>
</g>
<path style="fill:#4D4D4D;" d="M319.66,114.718l-0.088,0.876c-19.694-2.124-41.14-3.284-63.571-3.284  c-8.068,0-16.016,0.142-23.789,0.438c-13.848,0.525-27.171,1.489-39.783,2.846l-0.088-0.876L256.001,8.211L319.66,114.718z"/>
<polygon style="fill:#B3B3B3;" points="256.001,8.211 328.618,130.482 303.074,130.482 "/>
<path style="fill:#4D4D4D;" d="M430.786,160.467c0,17.614-34.331,33.028-85.554,41.414c1.182-3.591,1.872-6.995,1.872-9.754  c0-11.484-7.357-20.8-16.421-20.8c-1.336,0-2.616,0.219-3.853,0.602c-1.16-9.656-3.427-18.819-6.645-27.259  c-19.585-2.069-41.315-3.219-64.184-3.219s-44.6,1.149-64.184,3.219c-3.219,8.44-5.485,17.603-6.645,27.259  c-1.237-0.383-2.518-0.602-3.853-0.602c-9.064,0-16.421,9.316-16.421,20.8c0,2.759,0.69,6.163,1.872,9.754  c-51.223-8.386-85.554-23.8-85.554-41.414c0-20.417,46.11-37.867,111.214-44.873c19.694-2.124,41.14-3.284,63.571-3.284  c11.9,0,23.515,0.328,34.736,0.952c0.011,0,0.011,0,0.011,0c9.94,0.547,19.585,1.336,28.824,2.332  C384.676,122.6,430.786,140.05,430.786,160.467z"/>
<g>
	<path style="fill:#333333;" d="M256.001,8.211l-22.442,104.099l-1.347,0.438c-13.848,0.525-27.171,1.489-39.783,2.846l-0.088-0.876   L256.001,8.211z"/>
	<path style="fill:#333333;" d="M256.001,141.451c-22.869,0-44.6,1.149-64.184,3.219c-3.219,8.44-5.485,17.603-6.645,27.259   c-1.237-0.383-2.518-0.602-3.853-0.602c-9.064,0-16.421,9.316-16.421,20.8c0,2.759,0.69,6.163,1.872,9.754   c-51.223-8.386-85.554-23.8-85.554-41.414c0-20.417,46.11-37.867,111.214-44.873c19.694-2.124,41.14-3.284,63.571-3.284   c11.9,0,23.515,0.328,34.736,0.952C289.905,113.305,246.246,115.451,256.001,141.451z"/>
</g>
<path style="fill:#FFD0B8;" d="M347.105,192.129c0,2.759-0.69,6.163-1.872,9.754c-3.7,11.374-12.206,24.577-18.72,24.577  c0,0-14.68,58.404-70.512,58.404c-16.323,0-29.12-4.992-39.071-12.064c-24.084-17.089-31.441-46.34-31.441-46.34  c-6.514,0-15.02-13.203-18.72-24.577c-1.182-3.591-1.872-6.995-1.872-9.754c0-11.484,7.357-20.8,16.421-20.8  c1.336,0,2.616,0.219,3.853,0.602c1.16-9.656,3.427-18.819,6.645-27.259c19.585-2.069,41.315-3.219,64.184-3.219  c7.061,0,14.024,0.109,20.844,0.317c15.25,0.482,29.81,1.467,43.341,2.901c3.219,8.44,5.485,17.603,6.645,27.259  c1.237-0.383,2.518-0.602,3.853-0.602C339.748,171.329,347.105,180.645,347.105,192.129z"/>
<path style="fill:#E2B39F;" d="M216.929,272.8c-24.084-17.089-31.441-46.34-31.441-46.34c-6.514,0-15.02-13.203-18.72-24.577  c-1.182-3.591-1.872-6.995-1.872-9.754c0-11.484,7.357-20.8,16.421-20.8c1.336,0,2.616,0.219,3.853,0.602  c1.16-9.656,3.427-18.819,6.645-27.259c19.585-2.069,41.315-3.219,64.184-3.219c7.061,0,14.024,0.109,20.844,0.317  C276.844,141.771,195.735,174.624,216.929,272.8z"/>
<path style="fill:#9376E2;" d="M287.793,142.21c0,0-30.975,58.497-102.621,29.719l6.645-27.259L287.793,142.21z"/>
<path d="M333.076,233.031c8.252-4.134,14.666-15.264,18.196-23.848c76.178-13.301,87.726-36.132,87.726-48.717  c0-35.466-81.702-48.684-113.808-52.499L263.048,3.998C261.566,1.518,258.89,0,256.001,0c-2.889,0-5.566,1.518-7.048,3.998  L186.81,107.968c-14.641,1.712-28.408,3.959-40.974,6.7c-4.43,0.967-7.238,5.341-6.272,9.772s5.347,7.238,9.773,6.272  c13.343-2.911,28.136-5.25,43.972-6.955c19.919-2.148,41.011-3.237,62.692-3.237s42.772,1.089,62.693,3.237  c71.653,7.711,103.883,26.108,103.883,36.71c0,7.648-18.18,21.738-67.277,31.272c-0.164-14.561-9.471-26.571-21.459-28.385  c-1.355-7.485-3.359-14.725-5.984-21.609c-1.101-2.89-3.733-4.915-6.809-5.241c-20.503-2.165-42.388-3.263-65.047-3.263  c-22.66,0-44.545,1.098-65.047,3.263c-3.075,0.325-5.707,2.35-6.809,5.239c-2.624,6.884-4.63,14.124-5.984,21.609  c-11.99,1.814-21.296,13.825-21.46,28.385c-49.096-9.533-67.276-23.624-67.276-31.272c0-5.162,8.74-14.162,33.373-22.533  c4.294-1.459,6.591-6.123,5.132-10.415c-1.459-4.294-6.125-6.589-10.416-5.132c-29.535,10.038-44.511,22.849-44.511,38.08  c0,12.585,11.545,35.417,87.726,48.717c3.536,8.596,9.948,19.715,18.196,23.847c1.891,5.542,5.855,15.38,12.849,25.495  l-3.916,23.123l-53.794,87.213c-2.298,3.724-1.269,8.597,2.337,11.077l3.996,2.748c-1.078,6.203-1.454,16.139,3.326,27.293  c1.334,3.113,4.365,4.978,7.55,4.978c1.078,0,2.175-0.215,3.229-0.666c4.169-1.787,6.099-6.613,4.312-10.781  c-1.548-3.61-2.29-6.981-2.575-9.931l11.341,7.798L150.47,502.418c-0.404,2.383,0.263,4.823,1.824,6.67  c1.56,1.847,3.855,2.912,6.272,2.912h194.863c2.417,0,4.712-1.065,6.272-2.912c1.561-1.847,2.228-4.287,1.824-6.67l-6.474-38.23  c-0.758-4.471-4.991-7.48-9.465-6.724c-4.471,0.756-7.481,4.995-6.725,9.466l4.852,28.649h-79.503V292.667  c15.926-1.573,30.153-7.772,42.048-18.278l28.728,169.651c0.678,4.007,4.153,6.841,8.086,6.841c0.455,0,0.916-0.038,1.38-0.116  c4.471-0.756,7.481-4.995,6.725-9.466l-6.791-40.099l11.083-7.619c-0.285,2.949-1.025,6.319-2.573,9.929  c-1.787,4.169,0.145,8.994,4.312,10.781c1.054,0.452,2.151,0.666,3.229,0.666c3.186,0,6.217-1.865,7.55-4.978  c4.78-11.154,4.404-21.09,3.326-27.293l3.996-2.748c3.606-2.48,4.634-7.351,2.337-11.077l-53.399-86.573l-4.024-23.763  C327.221,248.41,331.185,238.572,333.076,233.031z M207.13,105.977l48.87-81.764l48.869,81.764  c-15.793-1.248-32.167-1.879-48.869-1.879C239.298,104.099,222.923,104.729,207.13,105.977z M256.001,149.662  c5.385,0,10.72,0.068,16.004,0.195c-11.968,13.001-36.915,30.568-77.714,16.699c0.871-4.885,2.04-9.65,3.532-14.238  C216.259,150.555,235.804,149.662,256.001,149.662z M152.143,370.834l28.414-46.065l-9.95,58.76L152.143,370.834z M168.287,495.579  l37.455-221.191c11.894,10.506,26.122,16.705,42.048,18.278v202.912h-79.503V495.579z M256.001,276.653  c-20.212,0-36.784-8.551-49.253-25.414c-9.728-13.155-13.266-26.667-13.297-26.783c-0.867-3.451-3.848-5.927-7.35-6.186  c-2.402-1.288-8.313-9.057-11.534-18.954c-0.928-2.822-1.46-5.442-1.46-7.188c0-3.658,1.054-6.764,2.586-8.978l-0.106,0.973  c-0.49,4.508,2.764,8.56,7.273,9.052c0.302,0.033,0.602,0.048,0.899,0.048c4.136,0,7.694-3.116,8.153-7.322l0.301-2.758  c11.223,3.489,21.443,4.93,30.654,4.93c19.522,0,34.526-6.437,45.008-13.359c12.477-8.239,20.431-18.3,24.327-24.051  c7.475,0.421,14.813,0.971,21.979,1.655c2.122,6.525,3.624,13.393,4.484,20.48c0,0.007,0,0.014,0.001,0.021l1.428,13.083  c0.459,4.205,4.017,7.321,8.152,7.321c0.297,0,0.598-0.016,0.9-0.049c4.507-0.492,7.764-4.544,7.272-9.052l-0.106-0.97  c1.53,2.215,2.584,5.319,2.584,8.976c0,1.749-0.532,4.368-1.469,7.214c-3.212,9.872-9.124,17.641-11.525,18.93  c-3.489,0.262-6.464,2.736-7.345,6.168c-0.034,0.135-3.573,13.646-13.3,26.801C292.785,268.103,276.213,276.653,256.001,276.653z   M359.573,370.834l-18.208,12.517l-9.812-57.942L359.573,370.834z"/>
<path d="M285.95,194.077l-11.616,4.804c-4.191,1.733-6.182,6.534-4.449,10.725c1.308,3.164,4.367,5.075,7.591,5.075  c1.045,0,2.108-0.201,3.134-0.625l11.616-4.804c4.191-1.733,6.182-6.534,4.449-10.725  C294.941,194.337,290.138,192.344,285.95,194.077z"/>
<path d="M241.627,210.26c1.893-4.121,0.086-8.995-4.034-10.888l-11.252-5.168c-4.126-1.894-8.998-0.086-10.888,4.034  c-1.893,4.121-0.086,8.995,4.034,10.888l11.252,5.168c1.111,0.51,2.276,0.752,3.422,0.752  C237.27,215.046,240.245,213.27,241.627,210.26z"/>
<path d="M262.386,232.762c-1.706,1.706-3.974,2.646-6.386,2.646c-2.412,0-4.68-0.939-6.386-2.646c-3.206-3.205-8.405-3.206-11.611,0  c-3.208,3.206-3.208,8.405-0.001,11.612c4.808,4.808,11.198,7.455,17.997,7.455c6.799,0,13.19-2.647,17.997-7.455  c3.206-3.206,3.206-8.405-0.001-11.612C270.793,229.556,265.594,229.556,262.386,232.762z"/>
<g>
</g>
<g>
</g>
<g>
</g>
<g>
</g>
<g>
</g>
<g>
</g>
<g>
</g>
<g>
</g>
<g>
</g>
<g>
</g>
<g>
</g>
<g>
</g>
<g>
</g>
<g>
</g>
<g>
</g>
</svg>
