<?xml version="1.0" encoding="iso-8859-1"?>
<!-- Generator: Adobe Illustrator 19.0.0, SVG Export Plug-In . SVG Version: 6.00 Build 0)  -->
<svg xmlns="http://www.w3.org/2000/svg" xmlns:xlink="http://www.w3.org/1999/xlink" version="1.1" id="Layer_1" x="0px" y="0px" viewBox="0 0 512.002 512.002" style="enable-background:new 0 0 512.002 512.002;" xml:space="preserve">
<polyline style="fill:#EDEAE4;" points="381.551,196.859 404.066,150.015 313.778,130.107 213.064,147.673 256.394,209.742   359.451,220.282 "/>
<path style="fill:#6ABA49;" d="M275.128,480.266v-60.592c0-25.282-20.689-46.453-45.967-45.969  c-24.495,0.469-44.208,20.471-44.208,45.079c0,18.341-27.433,34.117-11.711,41.157c8.006,3.585,18.738,11.554,18.738,20.326H170.9  h53.871c0,12.935,10.486,23.422,23.422,23.422h26.935h51.528l0,0c0-12.935-10.486-23.422-23.422-23.422h-28.107V480.266z"/>
<polyline style="fill:#E53578;" points="281.121,51.642 247.022,8.312 232.246,52.515 183.782,22.365 190.448,75.747   143.965,75.747 169.997,120.747 117.029,137.133 154.767,175.269 101.805,206.228 142.422,233.096 96.901,264.784 131.505,296.404   76.626,320.411 112.871,356.657 "/>
<path style="fill:#75CC54;" d="M404.066,150.015H270.795c-9.1,0-16.63,7.261-16.746,16.361c-0.105,8.467,3.29,16.138,8.818,21.666  c5.446,5.446,12.964,8.818,21.279,8.818h97.401c8.936,0,16.395,7.085,16.548,16.009c0.293,17.625-13.913,32.007-31.468,32.007  h-65.734l12.425,90.784c4.649,33.986-9.533,65.711-34.033,85.42c-15.904,12.812-36.151,20.541-58.415,20.541h-10.154l-63.497,18.316  L20.998,445.133c31.151-14.767,57.396-37.018,76.883-64.13c19.499-27.123,32.217-59.094,36.328-93.325  c1.639-13.631,3.572-27.217,5.808-40.754c8.28-50.112,20.646-99.555,37.018-147.816c9.638-28.376,36.269-47.465,66.238-47.465h37.85  c11.547,0,22.157,6.418,27.521,16.664c5.282,10.095,16.02,16.126,27.404,16.126h14.651c29.441,0,55.065,16.349,68.287,40.461  C425.194,136.196,416.961,150.015,404.066,150.015z"/>
<path style="fill:#6ABA49;" d="M279.286,421.079c-15.904,12.812-36.151,20.541-58.415,20.541h-10.154l-63.497,18.316L20.998,445.133  c31.151-14.767,57.396-37.018,76.883-64.13c19.499-27.123,32.217-59.094,36.328-93.325c1.639-13.631,3.572-27.217,5.808-40.754  c8.28-50.112,20.646-99.555,37.018-147.816c9.638-28.376,36.269-47.465,66.238-47.465h17.8c0,0-46.845,38.646-60.897,139.362  s7.027,209.064,74.951,228.669C276.604,420.095,277.997,420.575,279.286,421.079z"/>
<path style="fill:#75CC54;" d="M210.718,480.266v-60.592c0-25.282-20.689-46.453-45.967-45.969  c-24.495,0.469-44.208,20.471-44.208,45.079c0,18.341,10.954,34.117,26.675,41.157c8.006,3.585,13.142,11.554,13.142,20.326l0,0l0,0  c0,12.935,10.486,23.422,23.422,23.422h26.935h51.528l0,0c0-12.935-10.486-23.422-23.422-23.422h-28.106V480.266z"/>
<g>
	<path style="fill:#AFF492;" d="M404.066,150.015h-22.368c9.462-35.848-30.999-65.581-30.999-65.581   c29.441,0,55.065,16.349,68.287,40.461C425.194,136.196,416.961,150.015,404.066,150.015z"/>
	<path style="fill:#AFF492;" d="M398.094,212.868c0.293,17.625-13.913,32.007-31.468,32.007h-11.864   c22.251-22.251,8.198-48.015,8.198-48.015h18.585C390.482,196.859,397.941,203.944,398.094,212.868z"/>
</g>
<path style="fill:#F9D780;" d="M483.7,193.086L483.7,193.086c9.737-9.737,9.737-25.525,0-35.262l0,0  c-9.737-9.737-25.525-9.737-35.262,0l-17.631,17.631l17.631,17.631C458.177,202.823,473.963,202.823,483.7,193.086z"/>
<path d="M265.873,110.197V93.802c0-4.59-3.721-8.312-8.312-8.312s-8.312,3.721-8.312,8.312v16.395c0,4.59,3.721,8.312,8.312,8.312  S265.873,114.788,265.873,110.197z"/>
<path d="M295.151,110.197V93.802c0-4.59-3.721-8.312-8.312-8.312s-8.312,3.721-8.312,8.312v16.395c0,4.59,3.721,8.312,8.312,8.312  S295.151,114.788,295.151,110.197z"/>
<path d="M303.235,471.954h-19.795v-43.543c3.637-2.857,7.11-5.976,10.388-9.359c19.337-19.959,29.504-46.165,28.629-73.792  c-0.145-4.588-4.006-8.175-8.57-8.045c-4.588,0.145-8.19,3.983-8.045,8.571c0.731,23.089-7.775,45-23.953,61.698  c-16.134,16.652-37.803,25.824-61.018,25.824h-1.842v-13.634c0-14.549-5.989-28.767-16.429-39.012  c-10.313-10.117-23.827-15.545-38.008-15.268c-28.871,0.552-52.361,24.503-52.361,53.39c0,10.809,3.287,21.115,9.083,29.749  l-73.708-8.647c13.487-8.62,25.928-18.768,37.172-30.333c3.201-3.291,3.125-8.553-0.165-11.754  c-3.29-3.199-8.552-3.125-11.753,0.166c-16.009,16.467-34.656,29.81-55.423,39.659c-3.348,1.588-5.241,5.202-4.64,8.859  c0.601,3.657,3.552,6.474,7.232,6.906l124.793,14.641c4.422,2.427,7.226,7.114,7.226,12.238c0,17.498,14.235,31.734,31.733,31.734  h142.875c4.59,0,8.312-3.721,8.312-8.312c0-8.472-3.301-16.44-9.297-22.437C319.675,475.257,311.708,471.954,303.235,471.954z   M183.781,495.377c-8.332,0-15.11-6.778-15.11-15.111c0-12.043-7.088-22.999-18.057-27.912c-13.219-5.919-21.76-19.097-21.76-33.571  c0-19.894,16.175-36.389,36.056-36.769c0.23-0.004,0.459-0.007,0.688-0.007c9.445,0,18.428,3.72,25.36,10.52  c7.275,7.138,11.448,17.031,11.448,27.145v60.592c0,4.59,3.721,8.312,8.312,8.312h28.106c5.264,0,9.908,2.705,12.614,6.799h-67.656  V495.377z M269.446,495.377c-3.663-13.478-15.999-23.422-30.621-23.422h-19.795v-22.023h1.842c16.271,0,31.905-3.775,45.945-10.905  v41.239c0,4.59,3.721,8.312,8.312,8.312h28.107c4.033,0,7.826,1.573,10.682,4.428c0.733,0.733,1.381,1.526,1.939,2.371H269.446z"/>
<path d="M259.27,310.633c1.307,0.752,2.733,1.109,4.139,1.109c2.876,0,5.673-1.494,7.21-4.166  c5.313-9.227,11.012-28.135-1.325-40.472c-15.031-15.032-46.312,3.209-52.43,7.02c-3.894,2.425-5.085,7.545-2.663,11.441  c2.421,3.896,7.546,5.092,11.444,2.674c11.78-7.307,28.279-12.996,31.895-9.38c6.351,6.352-1.263,20.313-1.325,20.425  C253.923,303.26,255.292,308.342,259.27,310.633z"/>
<path d="M425.861,145.893c4.592-7.761,4.745-17.107,0.413-24.995c-15.145-27.619-44.103-44.777-75.574-44.777h-14.651  c-8.595,0-16.274-4.471-20.04-11.669c-6.158-11.765-17.661-19.484-30.656-20.875L253.553,3.172c-1.89-2.402-4.94-3.572-7.955-3.049  c-3.01,0.523-5.491,2.655-6.46,5.553l-11.439,34.221l-39.527-24.59c-2.721-1.692-6.172-1.671-8.87,0.057  c-2.7,1.727-4.165,4.852-3.768,8.031l5.5,44.041h-37.069c-2.971,0-5.716,1.586-7.2,4.159c-1.484,2.573-1.483,5.743,0.006,8.315  l20.812,35.977l-43.011,13.306c-2.775,0.859-4.901,3.104-5.607,5.922c-0.706,2.818,0.112,5.799,2.154,7.865l30.202,30.521  l-43.713,25.552c-2.479,1.45-4.034,4.075-4.114,6.945c-0.08,2.87,1.328,5.578,3.723,7.162l30.403,20.112l-35.468,24.688  c-2.073,1.443-3.378,3.751-3.545,6.273s0.821,4.98,2.686,6.685l25.164,22.995l-43.164,18.883c-2.517,1.102-4.327,3.375-4.836,6.074  c-0.509,2.7,0.348,5.476,2.291,7.418l31.839,31.839c-3.484,6.204-7.293,12.231-11.458,18.024c-2.68,3.727-1.83,8.921,1.897,11.601  c1.468,1.056,3.164,1.564,4.844,1.564c2.584,0,5.132-1.202,6.756-3.461c20.554-28.594,33.638-62.201,37.837-97.189  c1.614-13.442,3.549-27.031,5.753-40.387c8.196-49.61,20.541-98.9,36.688-146.498c8.497-25.017,31.953-41.827,58.367-41.827h37.85  c8.492,0,16.216,4.678,20.156,12.206c6.644,12.697,19.966,20.584,34.769,20.584h14.651c25.399,0,48.773,13.851,61.001,36.151  c2.13,3.879,0.607,7.259-0.146,8.532c-0.76,1.286-3.012,4.274-7.488,4.274H270.795c-13.644,0-24.884,11.02-25.055,24.566  c-0.132,10.444,3.864,20.264,11.25,27.649c7.256,7.257,16.9,11.253,27.156,11.253h97.401c4.468,0,8.163,3.516,8.237,7.835  c0.104,6.265-2.255,12.172-6.644,16.634c-4.391,4.464-10.254,6.923-16.513,6.923c0,0-114.516,6.437-126.603-9.974  c-1.913-2.598-3.428-4.494-3.428-7.478c0-4.59-3.721-8.312-8.312-8.312s-8.312,3.721-8.312,8.312c0,7.586,3.035,14.397,8.779,19.695  c13.789,12.721,41.558,14.861,58.682,14.861c2.3,0,4.404-0.039,6.26-0.095l9.031,65.977c0.623,4.548,4.817,7.734,9.362,7.108  c4.548-0.623,7.73-4.814,7.108-9.362l-4.359-31.845c11.041-5.856,23.886-9.73,27.024-6.591c6.351,6.352-1.263,20.313-1.325,20.425  c-2.291,3.979-0.923,9.06,3.055,11.35c1.307,0.752,2.733,1.109,4.139,1.109c2.876,0,5.673-1.494,7.21-4.166  c5.313-9.227,11.012-28.135-1.325-40.472c-10.497-10.498-28.917-4.766-41.161,0.944l-2.034-14.861h56.207  c10.751,0,20.824-4.222,28.364-11.889c7.539-7.666,11.592-17.81,11.414-28.571c-0.156-9.126-5.433-17.087-13.068-21.201  l16.248-33.804C416.351,156.238,422.217,152.054,425.861,145.893z M250.019,25.561l13.985,17.769H244.08L250.019,25.561z   M174.612,84.059c-2.139,3.916-3.975,8.046-5.446,12.378c-0.449,1.323-0.884,2.653-1.328,3.98l-9.463-16.357H174.612z   M132.573,141.025l24.927-7.712c-2.503,8.52-4.883,17.084-7.147,25.679L132.573,141.025z M117.529,206.664l24.71-14.445  c-2.025,8.988-3.92,18.002-5.679,27.034L117.529,206.664z M110.186,265.664l20.728-14.429c-1.555,9.799-2.965,19.679-4.21,29.523  L110.186,265.664z M91.115,323.145l30.621-13.395c-2.768,11.233-6.554,22.193-11.276,32.74L91.115,323.145z M196.698,58.711  l-2.508-20.083l17.953,11.169C206.658,52.176,201.478,55.171,196.698,58.711z M342.278,163.342l21.342,25.204h-40.246  L342.278,163.342z M306.676,183.109l-19.02-24.782h37.607L306.676,183.109z M359.814,158.327h31.036l-11.239,23.38L359.814,158.327z   M268.743,182.163c-4.19-4.19-6.457-9.76-6.382-15.685c0.041-3.27,2.06-6.09,4.924-7.387l22.609,29.457h-5.749  C278.331,188.548,272.86,186.28,268.743,182.163z"/>
<path d="M489.578,151.946c-6.279-6.279-14.627-9.738-23.508-9.738s-17.228,3.459-23.508,9.738l-17.631,17.631  c-3.246,3.246-3.246,8.508,0,11.754l17.631,17.631c6.279,6.279,14.627,9.738,23.508,9.738s17.228-3.459,23.508-9.737  c6.279-6.279,9.738-14.627,9.738-23.509C499.316,166.573,495.857,158.226,489.578,151.946z M477.823,187.208L477.823,187.208  c-3.14,3.14-7.314,4.868-11.754,4.868c-4.44,0-8.613-1.729-11.753-4.868l-11.754-11.754l11.754-11.754  c3.14-3.14,7.314-4.868,11.753-4.868c4.44,0,8.614,1.729,11.754,4.868c3.14,3.14,4.868,7.313,4.868,11.754  C482.692,179.895,480.963,184.069,477.823,187.208z"/>
<g>
</g>
<g>
</g>
<g>
</g>
<g>
</g>
<g>
</g>
<g>
</g>
<g>
</g>
<g>
</g>
<g>
</g>
<g>
</g>
<g>
</g>
<g>
</g>
<g>
</g>
<g>
</g>
<g>
</g>
</svg>
