<?xml version="1.0" encoding="iso-8859-1"?>
<!-- Generator: Adobe Illustrator 19.0.0, SVG Export Plug-In . SVG Version: 6.00 Build 0)  -->
<svg xmlns="http://www.w3.org/2000/svg" xmlns:xlink="http://www.w3.org/1999/xlink" version="1.1" id="Layer_1" x="0px" y="0px" viewBox="0 0 512.001 512.001" style="enable-background:new 0 0 512.001 512.001;" xml:space="preserve">
<g>
	<path style="fill:#FCC732;" d="M325.755,126.084l-32.026,32.026l-5.735,5.735c-8.031,8.031-21.622,5.559-26.302-4.801   c-0.989-2.186-1.45-4.461-1.45-6.68c0-7.46,5.208-14.392,13.118-15.964l13.415-2.637L325.755,126.084z"/>
	<path style="fill:#FCC732;" d="M221.645,354.277l-78.269,110.196l8.789-57.13l-46.144,14.283l30.763-46.144l-35.157-7.691   l59.734-53.813c8.69,3.417,17.161,5.603,25.126,6.076C193.97,334.951,206.341,347.135,221.645,354.277z"/>
</g>
<path style="fill:#DDAA2A;" d="M503.76,121.613l-72.226,63.843l57.109-8.405l-48.726,42.002l30.246,1.681  c0,0-77.653,86.421-135.641,98.1c-3.285-3.746-6.878-6.856-10.547-9.196c4.384-13.459,4.977-28.411,0.714-43.342l-20.336-71.083  L471.844,74.568l-67.194,82.323L503.76,121.613z"/>
<g>
	<path style="fill:#FCC732;" d="M231.379,358.012h-0.011c-3.351-1.022-6.603-2.263-9.723-3.735   c-15.304-7.141-27.675-19.326-35.157-34.223c5.856,0.363,11.437-0.209,16.634-1.89c21.413-6.933,31.729-22.83,36.267-40.013   c8.086-30.686-4.285-63.151-30.037-81.708l-11.393-8.207l14.008-65.821c3.604-16.864,18.491-28.928,35.74-28.928   c8.152,0,15.81,2.703,21.995,7.372c6.174,4.658,10.877,11.272,13.118,19.117l1.857,6.449l2.098,7.339l-13.415,2.637   c-7.91,1.571-13.118,8.504-13.118,15.964c0,2.219,0.461,4.494,1.45,6.68c4.68,10.36,18.271,12.832,26.302,4.801l5.735-5.735   l1.934,6.746l8.69,30.356l20.336,71.084c4.263,14.931,3.67,29.884-0.714,43.342c3.67,2.34,7.262,5.449,10.547,9.196   c0.934,1.066,1.835,2.175,2.714,3.34c11.514,15.337,13.228,33.487,3.823,40.541c-9.405,7.053-26.346,0.341-37.86-14.997   c-0.912-1.209-1.747-2.428-2.538-3.67c-7.713,6.46-16.81,11.382-26.873,14.272c0.022,1.461-0.011,2.944-0.11,4.439   c-1.252,19.128-11.789,34.015-23.511,33.246c-11.723-0.769-20.215-16.908-18.952-36.036   C231.259,359.309,231.313,358.66,231.379,358.012z"/>
	<path style="fill:#FCC732;" d="M161.362,313.978c-55.252-21.732-119.513-93.255-119.513-93.255l30.235-1.681L23.37,177.051   l57.119,8.394L8.241,121.613l99.121,35.278L40.168,74.568l157.79,113.668l11.393,8.207c25.753,18.556,38.124,51.022,30.037,81.708   c-4.537,17.183-14.854,33.081-36.267,40.013c-5.197,1.681-10.778,2.252-16.634,1.89   C178.523,319.581,170.052,317.395,161.362,313.978z"/>
</g>
<path d="M238.293,132.071c3.821,0,7.178-2.715,8.03-6.428c1.65-7.193-6.711-12.742-12.744-8.565  c-2.658,1.84-3.996,5.199-3.372,8.369C230.959,129.254,234.421,132.071,238.293,132.071z"/>
<path d="M261.817,127.973c3.897,0,7.297-2.838,8.075-6.636c1.538-7.512-7.643-12.822-13.431-7.868  c-2.512,2.15-3.503,5.704-2.468,8.843C255.094,125.65,258.297,127.973,261.817,127.973z"/>
<path d="M510.857,117.427c-2.006-3.4-6.14-4.9-9.861-3.576l-71.292,25.377l48.524-59.448c2.615-3.204,2.45-7.849-0.383-10.859  c-2.835-3.01-7.461-3.453-10.815-1.037l-96.576,69.563c-3.693,2.66-4.53,7.809-1.87,11.502s7.81,4.532,11.502,1.87l45.833-33.013  l-27.652,33.874c-2.338,2.864-2.482,6.936-0.352,9.958c2.13,3.021,6.014,4.255,9.498,3.015l58.952-20.984l-40.289,35.613  c-2.732,2.415-3.552,6.339-2.015,9.646c1.536,3.307,5.068,5.213,8.673,4.679l29.04-4.274l-27.236,23.477  c-2.544,2.194-3.503,5.714-2.42,8.896c1.082,3.182,3.988,5.387,7.343,5.572l12.425,0.69  c-22.894,23.213-73.781,70.965-114.647,81.761c-1.224-1.19-2.48-2.317-3.766-3.37c3.405-13.857,3.126-28.371-0.86-42.333  l-18.748-65.512l48.395-34.859c3.693-2.66,4.53-7.809,1.87-11.502s-7.809-4.531-11.502-1.87l-43.582,31.392l-6.059-21.171  l28.596-28.596c2.564-2.564,3.151-6.504,1.444-9.704c-1.707-3.199-5.303-4.908-8.863-4.207l-31.555,6.215l-1.866-6.503  c-2.693-9.425-8.253-17.527-16.077-23.429c-5.335-4.028-11.363-6.758-17.764-8.092c1.142-10.917,1.103-31.271-12.114-44.488  c-3.218-3.218-8.436-3.218-11.652,0c-3.218,3.218-3.218,8.436,0,11.652c4.746,4.747,6.796,11.803,7.475,18.614  c-11.616-9.298-24.088-12.095-36.116-8.086c-4.318,1.439-6.65,6.105-5.212,10.423c1.439,4.318,6.106,6.65,10.423,5.212  c9.366-3.124,17.997,2.534,23.767,8.093c-14.642,4.971-26.208,17.376-29.565,33.09l-11.38,53.471L44.978,67.884  c-3.355-2.416-7.982-1.972-10.816,1.038c-2.835,3.01-2.998,7.655-0.383,10.858l48.524,59.444l-71.298-25.378  c-3.719-1.321-7.855,0.177-9.862,3.577c-2.005,3.4-1.317,7.746,1.641,10.36l51.461,45.478l-29.687-4.366  c-3.627-0.531-7.17,1.393-8.694,4.728c-1.524,3.333-0.662,7.273,2.114,9.666l33.25,28.663l-9.846,0.547  c-3.165,0.176-5.949,2.151-7.159,5.081c-1.211,2.93-0.632,6.294,1.488,8.652c0.658,0.733,16.392,18.187,39.166,38.654  c1.574,1.415,3.543,2.112,5.505,2.112c2.257,0,4.505-0.922,6.132-2.732c3.042-3.385,2.764-8.595-0.621-11.636  c-10.297-9.254-19.204-17.975-25.793-24.666l12.437-0.691c3.355-0.186,6.261-2.392,7.343-5.572s0.125-6.702-2.42-8.896  l-27.236-23.478l29.056,4.273c3.608,0.526,7.136-1.374,8.672-4.681c1.536-3.307,0.716-7.231-2.016-9.646l-40.287-35.603  l58.948,20.982c3.485,1.24,7.367,0.009,9.498-3.016c2.13-3.022,1.987-7.094-0.352-9.958l-27.64-33.855l118.433,85.311  c3.693,2.662,8.842,1.824,11.502-1.87c2.66-3.694,1.823-8.842-1.87-11.502l-7.031-5.065l12.888-60.559  c2.774-12.985,14.417-22.409,27.681-22.409c6.194,0,12.084,1.974,17.033,5.71c4.944,3.73,8.456,8.849,10.163,14.818l1.479,5.156  l-4.614,0.909l0,0c-7.382,1.454-13.593,6.124-17.039,12.812c-3.447,6.688-3.645,14.455-0.547,21.311  c3.312,7.327,10.013,12.564,17.924,14.007c1.465,0.267,2.933,0.398,4.395,0.398c4.588,0,9.072-1.313,12.952-3.733l27.314,95.445  c2.757,9.655,3.3,19.631,1.648,29.304c-4.191-1.207-8.635,1.064-10.067,5.235c-1.478,4.303,0.815,8.991,5.12,10.468  c5.996,2.058,12.258,6.998,17.178,13.554c9.098,12.122,10.389,25.312,5.466,29.007c-4.923,3.696-17.228-1.229-26.326-13.352  c-3.484-4.642-6.011-9.697-7.304-14.618c-1.158-4.401-5.664-7.031-10.065-5.873c-4.401,1.158-7.03,5.664-5.873,10.065  c0.828,3.15,2.011,6.31,3.479,9.416c-2.918,1.975-5.981,3.698-9.176,5.169c-0.95-4.68-2.454-9.058-4.486-12.921  c-2.118-4.028-7.101-5.576-11.128-3.456c-4.028,2.118-5.576,7.101-3.456,11.128c2.841,5.402,4.183,12.885,3.679,20.531  c-0.994,15.123-8.604,25.977-14.75,25.568c-2.663-0.175-5.432-2.635-7.596-6.748c-2.84-5.402-4.182-12.885-3.679-20.532  c0.434-6.596,2.201-12.894,4.974-17.732c2.264-3.949,0.898-8.984-3.05-11.247c-3.947-2.262-8.984-0.899-11.247,3.05  c-2.119,3.697-3.791,7.816-5.003,12.209c-9.509-4.457-17.872-11.165-24.336-19.494c1.666-0.348,3.297-0.77,4.887-1.284  c12.846-4.156,23.171-11.507,30.688-21.848c2.675-3.682,1.86-8.834-1.82-11.511c-3.682-2.676-8.834-1.86-11.511,1.82  c-5.5,7.568-12.837,12.754-22.43,15.858c-20.728,6.706-55.11-8.334-96.805-42.353c-3.527-2.876-8.717-2.351-11.594,1.176  c-2.876,3.526-2.35,8.717,1.176,11.594c19.329,15.77,37.046,27.641,53.081,35.592l-50.325,45.334  c-2.295,2.068-3.242,5.245-2.45,8.232s3.186,5.28,6.204,5.939l23.367,5.112l-24.063,36.104c-1.935,2.902-1.833,6.707,0.254,9.501  c2.086,2.794,5.705,3.972,9.039,2.941l33.56-10.388l-6.786,44.11c-0.581,3.775,1.508,7.454,5.048,8.889  c1.007,0.409,2.056,0.604,3.093,0.604c2.608,0,5.138-1.24,6.721-3.469l72.826-102.528c0.383,8.092,2.301,15.716,5.601,21.991  c3.978,7.564,9.806,12.717,16.422,14.681l14.814,34.373l-5.719,10.069c-2.248,3.957-0.861,8.987,3.095,11.235  c1.284,0.729,2.683,1.077,4.062,1.077c2.868,0,5.655-1.5,7.172-4.172l5.407-9.519l26.385-0.303c4.551-0.053,8.197-3.784,8.144-8.334  c-0.052-4.518-3.731-8.145-8.238-8.145c-0.032,0-0.065,0-0.097,0l-15.214,0.175l5.647-8.195c2.582-3.748,1.637-8.878-2.109-11.46  c-3.75-2.584-8.879-1.638-11.46,2.109l-6.217,9.022l-8.61-19.978c10.519-5.821,18.404-19.785,19.806-37.008  c6.065-2.232,11.804-5.135,17.15-8.721c9.793,11.603,22.247,18.126,33.16,18.126c2.819,0,5.529-0.452,8.069-1.346l27.625,20.882  v11.58c0,4.551,3.689,8.24,8.24,8.24s8.24-3.689,8.24-8.24v-10.948l22.793-13.295c3.931-2.293,5.259-7.339,2.966-11.269  c-2.294-3.932-7.34-5.258-11.269-2.966l-13.142,7.666l0.862-9.915c0.394-4.533-2.961-8.529-7.495-8.922  c-4.533-0.405-8.529,2.961-8.922,7.495l-0.949,10.915l-16.499-12.471c4.769-9.951,3.172-24.126-4.566-37.487  c57.77-19.565,125.186-94.038,128.219-97.414c2.119-2.358,2.697-5.722,1.488-8.652c-1.21-2.93-3.994-4.906-7.159-5.081l-9.853-0.548  l33.257-28.666c2.776-2.393,3.638-6.333,2.114-9.667c-1.525-3.334-5.073-5.264-8.694-4.726l-29.678,4.367l51.453-45.48  C512.176,125.173,512.863,120.827,510.857,117.427z M275.061,160.236c-2.627-0.479-4.765-2.15-5.865-4.583  c-1.014-2.243-0.948-4.785,0.179-6.972c1.127-2.189,3.16-3.716,5.575-4.192l25.835-5.088l-18.619,18.619  C280.278,159.908,277.686,160.716,275.061,160.236z M157.547,401.102c-2.151-1.855-5.105-2.471-7.818-1.632l-23.984,7.424  l17.895-26.843c1.511-2.265,1.804-5.131,0.784-7.655c-1.02-2.525-3.22-4.384-5.88-4.965l-19.478-4.261l44.125-39.749  c6.361,2.193,12.406,3.66,18.131,4.398c6.885,11.986,16.654,22.035,28.238,29.244l-52.748,74.262l3.497-22.731  C160.742,405.788,159.698,402.956,157.547,401.102z"/>
<g>
</g>
<g>
</g>
<g>
</g>
<g>
</g>
<g>
</g>
<g>
</g>
<g>
</g>
<g>
</g>
<g>
</g>
<g>
</g>
<g>
</g>
<g>
</g>
<g>
</g>
<g>
</g>
<g>
</g>
</svg>
