<?xml version="1.0" encoding="iso-8859-1"?>
<!-- Generator: Adobe Illustrator 19.0.0, SVG Export Plug-In . SVG Version: 6.00 Build 0)  -->
<svg xmlns="http://www.w3.org/2000/svg" xmlns:xlink="http://www.w3.org/1999/xlink" version="1.1" id="Layer_1" x="0px" y="0px" viewBox="0 0 512 512" style="enable-background:new 0 0 512 512;" xml:space="preserve">
<g>
	<path style="fill:#24BC57;" d="M330.136,209.615c35.816-3.089,30.703,36.988,30.703,36.988   c-3.267-15.185-39.213-3.539-70.708,0.118c1.882-12.286,4.58-24.157,7.433-34.727C306.286,211.485,317.224,210.738,330.136,209.615   z"/>
	<path style="fill:#24BC57;" d="M322.751,503.967h-94.63c-7.61,0-12.014-8.64-7.528-14.796   c23.85-32.703,29.318-73.396,13.789-96.784c-3.445-5.173-7.907-9.492-13.422-12.7c-50.896-29.59-24.417-106.62-24.417-106.62   l-0.035-1.87c-26.679,0.485-49.676-4.332-44.977-32.951c10.286-62.601,60.743-104.549,60.743-104.549   c8.557,17.292,20.938,32.81,35.544,41.983c8.723,5.492,18.239,8.711,28.181,8.711c12.771,0,24.797-5.315,35.378-13.884   c-0.213,0.532-7.385,17.707-13.813,41.485c-2.852,10.57-5.551,22.441-7.433,34.727c-4.036,26.299-4.308,54.529,5.812,76.023   c1.988,4.236,3.87,8.51,5.421,12.925c8.25,23.625,27.306,90.168,2.45,143.441L322.751,503.967z"/>
	<path style="fill:#24BC57;" d="M352.34,84.376c0,29.39-16.606,66.4-40.952,86.119c-10.582,8.581-22.619,13.896-35.39,13.896   c-9.942,0-19.458-3.22-28.181-8.7v-0.012c-14.606-9.173-26.986-24.691-35.544-41.983c-7.978-16.109-12.617-33.78-12.617-49.321   c0-42.161,34.183-76.343,76.343-76.343c6.344,0,12.511,0.769,18.405,2.238C327.675,18.509,352.34,48.561,352.34,84.376z"/>
</g>
<g>
	<path style="fill:#1EA547;" d="M247.816,175.68c-14.606-9.173-26.986-24.691-35.544-41.983   c-7.978-16.109-12.617-33.78-12.617-49.321c0-42.161,34.183-76.343,76.343-76.343c6.344,0,12.511,0.769,18.405,2.238   C294.403,10.271,202.472,80.565,247.816,175.68z"/>
	<path style="fill:#1EA547;" d="M234.382,392.388c-3.445-5.172-7.907-9.492-13.422-12.7c-50.896-29.59-24.417-106.62-24.417-106.62   l-0.035-1.87c-26.679,0.485-49.676-4.332-44.977-32.951c10.286-62.601,60.743-104.549,60.743-104.549   c8.557,17.292,20.938,32.81,35.544,41.983C247.816,175.68,194.565,295.071,234.382,392.388z"/>
</g>
<g>
	<path style="fill:#EFCA54;" d="M329.531,72.613c-9.933,0-18.422,6.124-21.936,14.796c3.513,8.672,12.003,14.796,21.936,14.796   c9.933,0,18.422-6.124,21.936-14.796C347.953,78.736,339.463,72.613,329.531,72.613z"/>
	<path style="fill:#EFCA54;" d="M260.019,72.613c-9.933,0-18.422,6.124-21.936,14.796c3.513,8.672,12.003,14.796,21.936,14.796   c9.933,0,18.422-6.124,21.936-14.796C278.441,78.736,269.951,72.613,260.019,72.613z"/>
</g>
<path d="M260.019,64.579c-12.972,0-24.505,7.776-29.381,19.813c-0.784,1.934-0.784,4.098,0,6.033  c4.876,12.035,16.409,19.813,29.381,19.813s24.505-7.777,29.381-19.813c0.784-1.934,0.784-4.098,0-6.033  C284.524,72.356,272.991,64.579,260.019,64.579z M260.019,94.169c-5.235,0-9.996-2.572-12.871-6.762  c2.875-4.19,7.635-6.762,12.871-6.762c5.236,0,9.996,2.571,12.871,6.762C270.015,91.598,265.254,94.169,260.019,94.169z"/>
<path d="M287.476,126.628c-2.541,2.618-3.086,6.657-1.205,9.81c1.729,2.898,5.236,4.439,8.54,3.737  c6.876-1.461,8.639-10.92,2.617-14.664C294.257,123.54,290.145,124.037,287.476,126.628z"/>
<path d="M358.718,211.045c-7.035-7.33-16.882-10.507-29.279-9.433c-7.058,0.615-14.067,1.155-20.973,1.63  c4.103-13.557,7.986-23.749,9.575-27.763c6.584-5.6,12.809-12.519,18.52-20.677c14.91-21.298,23.812-47.626,23.812-70.427  C360.374,37.851,322.523,0,275.998,0c-11.432,0-22.524,2.249-32.965,6.685c-4.084,1.734-5.988,6.451-4.253,10.535  s6.45,5.988,10.535,4.252c8.445-3.586,17.422-5.405,26.684-5.405c31.73,0,58.473,21.747,66.115,51.118  c-3.89-1.677-8.147-2.606-12.583-2.606c-12.972,0-24.505,7.776-29.381,19.813c-0.784,1.934-0.784,4.098,0,6.033  c4.876,12.035,16.409,19.813,29.381,19.813c3.967,0,7.797-0.735,11.345-2.09c-3.514,12.967-9.572,26.149-17.477,37.441  c-13.69,19.555-30.967,30.77-47.402,30.77c-16.433,0-33.711-11.216-47.401-30.77c-12.896-18.42-20.908-41.876-20.908-61.211  c0-19.628,8.459-38.328,23.208-51.305c3.331-2.931,3.656-8.007,0.725-11.338c-2.93-3.33-8.007-3.655-11.338-0.725  c-18.216,16.026-28.662,39.123-28.662,63.368c0,15.062,3.905,31.656,10.84,47.33c-13.196,12.402-49.974,51.157-58.86,105.232  c-2.041,12.418,0.275,22.374,6.883,29.59c6.924,7.562,17.617,10.909,29.833,12.129c-1.518,10.839-2.89,27.408-0.749,44.568  c3.67,29.405,16.585,51.329,37.352,63.401c10.876,6.325,15.19,17.317,16.892,25.423c4.562,21.723-2.99,49.46-19.706,72.386  c-3.867,5.298-4.422,12.222-1.45,18.071c2.975,5.855,8.903,9.491,15.469,9.491h60.28c0.007,0,0.014,0.001,0.02,0.001h34.324  c3.054,0,5.844-1.732,7.199-4.468c1.356-2.737,1.042-6.005-0.809-8.434l-16.06-21.079c11.461-27.298,14.092-60.297,7.813-98.18  c-0.726-4.378-4.87-7.339-9.238-6.611c-4.377,0.725-7.337,4.862-6.611,9.238c7.581,45.744-0.443,75.956-8.51,93.247  c-1.263,2.706-0.92,5.89,0.89,8.265l9.108,11.954H291.76l-17.797-17.789c9.775-16.299,29.713-64.484-9.588-145.423  c8.707-3.919,15.685-9.029,20.843-15.171c1,2.957,2.144,5.837,3.451,8.616c1.562,3.32,3.553,7.702,5.109,12.156  c2.052,5.874,3.96,12.08,5.672,18.447c0.964,3.586,4.208,5.949,7.753,5.949c0.691,0,1.392-0.09,2.091-0.277  c4.285-1.153,6.824-5.559,5.672-9.844c-1.813-6.743-3.838-13.328-6.02-19.572c-1.798-5.15-4.011-10.025-5.737-13.697  c-8.597-18.281-9.003-42.235-5.996-65.426c6.234-0.884,12.494-1.974,18.596-3.038c9.737-1.698,18.934-3.302,26.228-3.724  c8.277-0.476,10.565,0.834,10.938,1.099c0.003,0.015,0.007,0.032,0.012,0.051c0.823,3.826,4.262,6.509,8.195,6.337  c3.911-0.166,7.132-3.127,7.628-7.009C368.928,246.679,371.595,224.458,358.718,211.045z M329.531,94.169  c-5.235,0-9.996-2.572-12.871-6.762c2.875-4.19,7.635-6.762,12.871-6.762s9.996,2.571,12.871,6.762  C339.527,91.599,334.765,94.169,329.531,94.169z M250.74,320.764c-2.249,0.727-4.064,2.409-4.961,4.596  c-0.897,2.187-0.784,4.659,0.307,6.757c14.26,27.401,30.053,68.226,24.309,107.112c-3.391,22.958-12.874,34.595-12.933,34.668  c-2.724,3.189-2.539,7.936,0.427,10.901l11.14,11.135h-40.904c-0.195,0-0.788,0-1.146-0.703c-0.352-0.694-0.009-1.164,0.107-1.323  c19.316-26.491,27.918-59.121,22.45-85.158c-3.402-16.201-11.887-28.653-24.54-36.011c-16.496-9.591-26.417-26.919-29.485-51.502  c-2.043-16.365-0.514-32.249,0.954-42.012c8.325-0.135,16.884-0.776,25.106-1.391c9.857-0.738,19.167-1.434,26.467-1.142  c8.285,0.334,10.432,1.866,10.773,2.165c0.002,0.016,0.004,0.034,0.008,0.055c0.446,3.889,3.628,6.892,7.536,7.108  c0.151,0.009,0.3,0.013,0.449,0.013c3.724,0,6.989-2.575,7.828-6.244c0.133-0.578,1.289-5.852,1.2-12.796  c-0.127-9.878-2.779-18.38-7.669-24.588c-6.284-7.979-15.775-12.098-28.204-12.245c-14.719-0.174-26.875-0.563-36.063-0.96  c2.412-8.932,8.393-17.537,11.077-20.705c2.872-3.374,2.469-8.437-0.902-11.315c-3.374-2.881-8.444-2.481-11.326,0.892  c-0.567,0.663-11.96,14.183-15.143,30.262c-2.332-0.153-3.575-0.253-3.625-0.257c-4.418-0.359-8.299,2.932-8.66,7.353  s2.93,8.299,7.351,8.66c0.853,0.07,21.293,1.713,57.1,2.135c7.415,0.088,12.564,2.077,15.742,6.084  c2.129,2.685,3.277,6.165,3.827,9.682c-2.107-0.522-4.244-0.854-6.281-1.055c-9.031-0.895-20.522-0.034-32.687,0.877  c-21.855,1.639-49.056,3.678-58.037-6.132c-3.154-3.446-4.096-8.723-2.878-16.134c7.36-44.786,36.878-78.962,50.722-92.869  c1.657,2.775,3.409,5.491,5.255,8.128c16.985,24.261,38.494,37.622,60.564,37.622c6.81,0,13.568-1.277,20.155-3.749  c-7.44,22.397-17.35,58.982-16.621,93.193c-0.001,0.114,0.005,0.228,0.009,0.343c0.045,1.906,0.119,3.803,0.232,5.69  C279.431,303.594,269.688,314.636,250.74,320.764z M345.494,230.968c-0.018,0-0.036,0-0.055,0c-9.066,0-20.396,1.976-32.392,4.068  c-4.325,0.755-8.729,1.515-13.11,2.204c1.187-6.075,2.536-11.984,3.959-17.591c8.814-0.562,17.84-1.239,26.93-2.031  c7.393-0.638,12.713,0.841,16.268,4.519c2.383,2.466,3.864,5.821,4.756,9.267C349.701,231.091,347.541,230.97,345.494,230.968z"/>
<g>
</g>
<g>
</g>
<g>
</g>
<g>
</g>
<g>
</g>
<g>
</g>
<g>
</g>
<g>
</g>
<g>
</g>
<g>
</g>
<g>
</g>
<g>
</g>
<g>
</g>
<g>
</g>
<g>
</g>
</svg>
