<?xml version="1.0" encoding="iso-8859-1"?>
<!-- Generator: Adobe Illustrator 19.0.0, SVG Export Plug-In . SVG Version: 6.00 Build 0)  -->
<svg xmlns="http://www.w3.org/2000/svg" xmlns:xlink="http://www.w3.org/1999/xlink" version="1.1" id="Layer_1" x="0px" y="0px" viewBox="0 0 512 512" style="enable-background:new 0 0 512 512;" xml:space="preserve">
<path style="fill:#CCCCCC;" d="M121.907,27.932c0,0-29.771,45.72-6.379,69.111c0,0-48.909,19.138-48.909,112.704H52.796  C52.796,209.748,23.025,88.538,121.907,27.932z"/>
<path style="fill:#FFD0B8;" d="M162.268,180.253c-5.944-3.679-10.058-11.823-10.058-21.265c0-12.918,7.709-23.391,17.225-23.391  c2.818,0,5.465,0.914,7.815,2.541l1.201,40.786c-2.626,2.19-5.71,3.456-9.016,3.456C166.872,182.38,164.448,181.625,162.268,180.253  z"/>
<path style="fill:#F4516D;" d="M323.924,329.023c0,0,3.307,18.862,3.402,47.41c-14.141,4.296-28.601,6.39-42.009,7.177  c-32.004,1.882-58.064-3.604-59.627-3.945c0.351-22.435-0.649-37.883-0.649-37.883s37.522,2.733,73.215-4.923  C307.125,334.956,315.886,332.414,323.924,329.023z"/>
<g>
	<path style="fill:#666666;" d="M285.317,383.61l0.043,0.797c-0.893,14.056-3.349,26.411-6.698,37.15v0.011   c-2.531,8.187-5.582,15.438-8.836,21.797c-34.641,0-46.358-17.777-46.708-18.341c1.659-16.395,2.35-32.099,2.573-45.358   C227.253,380.005,253.314,385.492,285.317,383.61z"/>
	<path style="fill:#666666;" d="M327.326,376.433c0.064,15.056-0.766,32.812-3.445,51.908c-24.742,8.315-43.04,6.954-43.04,6.954   c-0.617-4.466-1.329-9.048-2.18-13.727v-0.011c3.349-10.739,5.805-23.094,6.698-37.15l-0.043-0.797   C298.725,382.823,313.185,380.728,327.326,376.433z"/>
</g>
<g>
	<path style="fill:#D67729;" d="M347.911,504.024h-65.209c0,0,3.828-27.073-1.861-68.731c0,0,18.298,1.361,43.04-6.954   c-2.275,16.31-5.912,33.609-11.483,51.057L347.911,504.024z"/>
	<path style="fill:#D67729;" d="M269.826,443.364c-12.77,25.018-28.591,36.204-28.591,36.204l18.607,24.455h-55.108   c10.25-22.945,15.64-51.918,18.384-78.999C223.468,425.587,235.185,443.364,269.826,443.364z"/>
</g>
<g>
	<path style="fill:#666666;" d="M206.563,106.145c0,0-16.608,58.946,17.416,81.275c0,0-18.065,18.447-40.106,7.113   c-2.243-4.987-4.062-10.207-5.423-15.608l-1.201-40.786c1.308-6.943,3.37-13.61,6.114-19.925   C183.363,118.213,191.454,112.269,206.563,106.145z"/>
	<path style="fill:#666666;" d="M438.467,121.254c17.905,0,32.429,14.524,32.429,32.429s-14.524,32.429-32.429,32.429   s-32.429-14.524-32.429-32.429S420.562,121.254,438.467,121.254z"/>
</g>
<path style="fill:#333333;" d="M343.551,142.838c-2.796,12.833-12.121,22.264-23.2,22.264c-13.301,0-24.072-13.567-24.072-30.303  c0-7.879,2.382-15.056,6.305-20.446v-0.011C317.97,120.637,332.674,129.728,343.551,142.838z"/>
<path style="fill:#D67729;" d="M317.544,34.312c25.518,19.138,54.226-7.443,54.226-7.443s8.506,83.996-38.181,73.215  c-46.581-11.728-84.05-7.273-109.908,0.159c-6.443,1.85-12.153,3.881-17.118,5.901c-15.109,6.124-23.2,12.068-23.2,12.068  C147,101.105,147.425,75.779,147.425,75.779c46.783,6.379,44.656-46.783,83.996-62.732S302.499,23.031,317.544,34.312z"/>
<g>
	<path style="fill:#FFD0B8;" d="M302.585,114.343c-37.458-15.332-78.904-14.088-78.904-14.088v-0.011   c25.858-7.432,63.327-11.887,109.908-0.159c6.061,12.536,9.516,27.41,10.654,43.561h-0.011c-0.223-0.266-0.436-0.542-0.681-0.808   C332.674,129.728,317.97,120.637,302.585,114.343z"/>
	<path style="fill:#FFD0B8;" d="M344.243,143.646c0.276,3.977,0.415,8.038,0.415,12.153c0,23.934-4.646,45.815-14.737,62.476   c-2.126,3.541-4.508,6.858-7.166,9.899v0.011c-7.421,8.57-16.852,15.034-28.442,18.724c-0.074-0.128-0.128-0.213-0.149-0.245   c-0.011-0.011-0.011-0.021-0.011-0.021l-0.138,0.361c-7.102,2.233-15.024,3.424-23.785,3.424c-15.927,0-30.93-3.934-44.103-10.888   c-10.771-5.678-20.308-13.376-28.112-22.583c-5.699-6.73-10.484-14.269-14.141-22.424c22.041,11.334,40.106-7.113,40.106-7.113   c-34.024-22.328-17.416-81.275-17.416-81.275c4.965-2.02,10.675-4.051,17.118-5.901v0.011c0,0,41.445-1.244,78.904,14.088v0.011   c-3.923,5.391-6.305,12.568-6.305,20.446c0,16.736,10.771,30.303,24.072,30.303c11.079,0,20.404-9.431,23.2-22.264   c0.245,0.266,0.457,0.542,0.68,0.808L344.243,143.646L344.243,143.646z"/>
</g>
<g>
	<path style="fill:#CCCCCC;" d="M330.101,264.973c0.468,6.284,0.574,12.366,0.425,18.107c-19.723-9.048-34.556-33.365-36.214-36.172   c11.589-3.689,21.02-10.154,28.442-18.724C327.018,240.592,329.208,253.139,330.101,264.973z"/>
	<path style="fill:#CCCCCC;" d="M294.015,247.004l-16.874,43.551c0,0-51.015-16.959-51.015-51.015   c13.174,6.954,28.176,10.888,44.103,10.888C278.991,250.427,286.912,249.237,294.015,247.004z"/>
</g>
<g>
	<path style="fill:#D67729;" d="M445.379,186.112c-42.221,84.432-114.225,78.946-115.277,78.861   c-0.893-11.834-3.083-24.38-7.347-36.788v-0.011c2.658-3.041,5.04-6.358,7.166-9.899   C368.697,241.007,445.379,186.112,445.379,186.112z"/>
	<path style="fill:#D67729;" d="M330.527,283.08c-0.659,26.454-6.603,45.943-6.603,45.943c-8.038,3.392-16.799,5.933-25.667,7.836   v-0.011c5.944-39.223-3.2-85.772-4.04-89.908c0.032,0,0.064-0.011,0.096-0.032C295.971,249.715,310.803,274.031,330.527,283.08z"/>
	<path style="fill:#D67729;" d="M195.622,272.118C81.493,295.169,59.175,221.443,59.175,221.443   c79.743,58.479,138.839-4.487,138.839-4.487c7.804,9.208,17.342,16.906,28.112,22.583c0,34.056,51.015,51.015,51.015,51.015   l16.874-43.551c0.064-0.011,0.138-0.032,0.202-0.064c0.84,4.136,9.984,50.685,4.04,89.908v0.011   c-35.693,7.655-73.215,4.923-73.215,4.923C225.042,297.125,195.622,272.118,195.622,272.118z"/>
</g>
<path d="M292.736,208.881c10.248-0.964,19.504-5.863,26.068-13.79c2.809-3.393,2.335-8.419-1.058-11.228  c-3.39-2.807-8.418-2.336-11.228,1.058c-3.846,4.646-9.272,7.516-15.277,8.083c-6.001,0.567-11.87-1.241-16.518-5.088  c-3.39-2.807-8.419-2.336-11.228,1.058c-2.809,3.392-2.335,8.419,1.058,11.228c6.975,5.774,15.56,8.855,24.5,8.855  C290.276,209.055,291.504,208.997,292.736,208.881z"/>
<path d="M238.754,74.179c1.535,1.426,3.482,2.131,5.425,2.131c2.14,0,4.275-0.857,5.846-2.548l8.4-9.046l8.002,7.362  c1.532,1.41,3.467,2.105,5.397,2.105c2.152,0,4.299-0.867,5.87-2.575c2.982-3.241,2.771-8.286-0.469-11.268l-7.948-7.312  l8.392-9.038c2.996-3.228,2.81-8.273-0.418-11.27c-3.228-2.996-8.273-2.809-11.27,0.418l-8.442,9.092l-6.895-6.344  c-3.241-2.981-8.286-2.772-11.268,0.469c-2.981,3.241-2.772,8.286,0.469,11.268l6.842,6.294l-8.35,8.992  C235.339,66.137,235.527,71.182,238.754,74.179z"/>
<path d="M267.571,163.496c4.405,0,7.974-3.57,7.974-7.974V135.32c0-4.404-3.569-7.974-7.974-7.974c-4.405,0-7.974,3.57-7.974,7.974  v20.202C259.596,159.926,263.167,163.496,267.571,163.496z"/>
<path d="M478.875,153.685c0-21.557-16.972-39.225-38.256-40.345c-1.146-0.711-2.935-1.982-4.44-3.755  c-2.974-3.504-3.435-7.166-1.497-11.873c7.581-18.411-4.585-32.114-14.611-36.833c-3.983-1.875-8.766-0.181-10.642,3.805  c-1.876,3.985-0.197,8.721,3.788,10.595c2.624,1.294,10.861,6.297,6.717,16.36c-4.142,10.059-2.305,18.703,1.887,25.249  c-13.992,6.357-23.752,20.455-23.752,36.798c0,16.798,10.307,31.231,24.928,37.317c-23.669,13.817-59.051,29.794-81.964,23.363  c7.61-16.072,11.598-35.998,11.598-58.566c0-17.565-2.34-33.332-6.956-47.069c7.586-0.938,13.08-4.243,16.744-7.472  c22.218-19.581,17.854-69.557,17.284-75.192c-0.304-3-2.283-5.565-5.101-6.64c-2.817-1.074-6.008-0.459-8.234,1.577  c-0.979,0.897-24.219,21.793-44.04,6.93l-1.907-1.439c-16.254-12.28-50.075-37.833-91.996-20.838  c-7.065,2.864-13.369,6.911-19.273,12.369c-3.234,2.99-3.432,8.035-0.442,11.269c2.991,3.234,8.036,3.432,11.269,0.442  c4.467-4.129,9.19-7.172,14.44-9.3c33.536-13.599,61.413,7.466,76.389,18.782l1.75,1.319l24.525,20.869  c1.5,1.277,3.338,1.901,5.163,1.901c2.257,0,4.5-0.953,6.078-2.807c2.855-3.353,2.449-8.387-0.906-11.241l-1.077-0.917  c6.578-1.209,12.747-3.668,18.062-6.571c-0.007,3.661-0.131,7.801-0.473,12.128c-1.361,17.169-5.643,29.738-12.054,35.389  c-2.63,2.318-7.194,5.151-16.414,3.043c-82.685-20.793-137.5,7.363-152.639,16.694c-10.863-5.778-18.95-13.077-23.525-21.274  c-0.693-1.242-1.263-2.428-1.731-3.538c23.839-1.192,35.355-18.174,45.672-33.385c1.044-1.54,2.096-3.09,3.167-4.638  c2.506-3.621,1.602-8.589-2.019-11.095c-3.622-2.507-8.59-1.603-11.095,2.019c-1.1,1.59-2.181,3.182-3.252,4.762  c-11.41,16.825-19.656,28.983-41.533,25.999c-2.258-0.309-4.541,0.366-6.271,1.85c-1.73,1.484-2.742,3.638-2.779,5.918  c-0.019,1.173-0.027,27.382,33.88,46.368c-0.658,1.886-1.27,3.79-1.816,5.715c-0.691-0.07-1.385-0.105-2.082-0.105  c-14.131,0-25.199,13.778-25.199,31.366c0,10.072,3.634,18.889,9.391,24.59l-1.308,7.847c-0.724,4.343,2.21,8.453,6.555,9.177  c0.443,0.074,0.885,0.11,1.321,0.11c3.828,0,7.207-2.764,7.856-6.664l0.619-3.716c0.255,0.01,0.508,0.023,0.766,0.023  c1.356,0,2.697-0.131,4.015-0.388c3.329,9.477,7.984,18.236,13.699,26.118c-3.502,2.899-8.744,6.789-15.535,10.536  c-3.855,2.128-5.257,6.979-3.128,10.834c1.453,2.635,4.179,4.122,6.989,4.122c1.304,0,2.624-0.32,3.846-0.994  c7.85-4.332,13.985-8.89,18.163-12.362c6.256,6.281,13.302,11.727,20.964,16.197c4.201,36.005,53.969,52.97,56.177,53.704  c0.834,0.276,1.682,0.408,2.516,0.408c3.208,0,6.217-1.948,7.435-5.095l6.083-15.701c1.559,15.27,2.488,34.44,0.444,52.412  c-5.307,0.976-10.906,1.79-16.797,2.431c-4.378,0.476-7.543,4.411-7.066,8.79c0.444,4.085,3.9,7.112,7.918,7.112  c0.288,0,0.578-0.016,0.871-0.047c15.568-1.694,29.406-4.534,41.309-8.458c0.774,6.996,1.66,17.503,1.919,30.447  c-34.894,9.047-71.108,4.901-85.483,2.607c0.04-9.461-0.149-17.342-0.352-22.904c2.363,0.061,5.125,0.104,8.23,0.104  c3.148,0,6.642-0.045,10.404-0.159c4.403-0.135,7.862-3.813,7.727-8.215c-0.134-4.402-3.804-7.857-8.215-7.727  c-7.675,0.235-14.221,0.155-18.817,0.02c-1.879-26.776-13.319-46.194-21.988-57.297c1.182-0.298,2.368-0.601,3.56-0.917  c4.257-1.126,6.796-5.491,5.67-9.748c-1.126-4.257-5.49-6.798-9.748-5.67c-49.718,13.148-90.288,10.09-117.32-8.841  c-2.893-2.025-5.492-4.137-7.822-6.269c28.448,11.818,52.917,9.871,70.12,5.081c4.242-1.181,6.724-5.579,5.543-9.821  c-1.181-4.242-5.574-6.726-9.821-5.543c-27.421,7.635-55.399,1.773-83.228-17.402h9.536c4.404,0,7.974-3.57,7.974-7.974  c0-4.404-3.57-7.974-7.974-7.974h-2.524c0.805-24.153,5.579-54.849,22.016-77.707c10.757-14.96,21.649-19.578,21.69-19.596  c2.506-0.98,4.349-3.159,4.899-5.794c0.551-2.635-0.264-5.368-2.167-7.272c-7.383-7.383-8.63-19.161-3.705-35.003  c4.101-13.194,11.063-24.017,11.129-24.118c2.034-3.124,1.632-7.241-0.968-9.913c-2.601-2.672-6.704-3.187-9.883-1.238  C95.997,34.461,78.516,51.68,65.786,72.313c-2.313,3.748-1.149,8.661,2.6,10.974c3.748,2.312,8.661,1.148,10.974-2.6  c6.215-10.072,13.711-19.247,22.414-27.454c-3.847,13.206-5.281,28.62,1.974,41.411c-14.579,10.126-42.107,37.888-44.874,104.107  c-2.636-17.431-5.997-57.253,9.474-96.1c1.63-4.091-0.367-8.729-4.458-10.359c-4.096-1.631-8.73,0.367-10.359,4.458  c-17.17,43.118-13.368,86.136-10.376,105.022h-2.054c-4.404,0-7.974,3.57-7.974,7.974c0,4.404,3.57,7.974,7.974,7.974h9.166  l-1.991,32.766c-0.267,4.397,3.08,8.176,7.476,8.443c0.165,0.01,0.329,0.015,0.491,0.015c4.184,0,7.695-3.259,7.952-7.491  l0.292-4.807c4.555,5.719,10.544,11.817,18.344,17.421c13.954,10.026,30.834,16.454,50.171,19.101  c6.739,0.923,13.783,1.383,21.118,1.383c12.198,0,25.203-1.282,38.922-3.821c6.696,7.056,24.024,28.464,24.024,61.049  c0,0.093,0.011,0.182,0.013,0.273c0.003,0.082-0.002,0.162,0.003,0.243c0.017,0.252,1.612,25.553-0.067,57.766  c-2.197,42.147-8.962,76.972-19.563,100.71c-1.102,2.467-0.879,5.324,0.591,7.591s3.988,3.635,6.69,3.635h55.111  c3.031,0,5.799-1.717,7.145-4.433c1.346-2.716,1.037-5.958-0.799-8.371l-14.031-18.441c5.752-5.406,14.512-15.028,22.508-29.409  c2.822,30.974,0.17,51.342,0.136,51.594c-0.313,2.283,0.376,4.589,1.89,6.326c1.514,1.736,3.705,2.733,6.009,2.733h65.212  c3.486,0,6.57-2.266,7.611-5.594c1.041-3.328-0.201-6.947-3.067-8.933l-30.718-21.298c20.705-69.633,12.179-134.724,10.335-146.674  c1.786-6.518,7.248-28.94,6.441-56.606c8.184-0.47,21.179-2.23,36.145-8.014c22.375-8.646,53.658-28.322,76.666-72.903  C467.323,186.592,478.875,171.468,478.875,153.685z M316.627,422.271c-12.389,3.659-22.696,4.746-28.895,5.033  c-0.273-1.714-0.564-3.448-0.87-5.201c2.733-9.24,4.84-19.568,5.955-31.038c8.576-0.786,17.477-2.123,26.407-4.212  C318.963,397.709,318.195,409.661,316.627,422.271z M318.705,242.956c2.01,8.585,3.11,17.117,3.582,25.277  c-6.619-5.61-12.162-12.42-15.924-17.605C310.753,248.498,314.872,245.935,318.705,242.956z M327.926,106.918  c1.985,4.644,3.643,9.697,4.963,15.092c-13.257-9.781-28.61-16.365-43.557-20.785C301.295,101.912,314.183,103.685,327.926,106.918z   M306.07,124.604c10.639,5.038,20.6,11.616,28.616,20.209c-2.723,7.402-8.27,12.315-14.335,12.315  c-8.726,0-16.099-10.225-16.099-22.328C304.253,131.2,304.888,127.728,306.07,124.604z M189.973,188.531  c-0.014-0.035-0.029-0.069-0.043-0.104c-2.375-5.872-3.58-12.153-3.767-18.486l-0.918-31.12c1.039-5.242,2.561-10.383,4.55-15.322  c1.287-0.823,3.286-2.039,5.975-3.492c-0.72,5.36-1.27,11.697-1.231,18.448c0.118,20.76,5.782,37.291,16.501,48.505  C205.852,189.671,198.326,191.811,189.973,188.531z M169.431,143.571l0.527,17.896c-1.12-1.077-2.562-1.84-4.21-2.115  c-1.99-0.333-3.927,0.111-5.515,1.098c-0.029-0.48-0.049-0.965-0.049-1.462C160.184,149.905,165.056,143.574,169.431,143.571z   M199.607,206.102c13.533-0.399,24.782-7.702,30.07-13.103c1.668-1.704,2.486-4.065,2.23-6.435s-1.56-4.502-3.553-5.811  c-24.205-15.884-17.721-56.131-15.009-68.666c3.534-1.326,7.418-2.639,11.641-3.877c6.032-0.033,36.527,0.336,66.288,10.444  c-1.938,5.01-2.971,10.512-2.971,16.145c0,21.107,14.376,38.277,32.047,38.277c5.713,0,11.142-1.806,15.854-5.007  c-2.265,29.107-14.132,74.384-65.977,74.384C241.487,242.453,215.487,228.414,199.607,206.102z M272.611,280.17  c-4.544-2.006-10.724-5.073-16.821-9.165c-8.398-5.637-14.361-11.593-17.886-17.802c10.214,3.378,21.091,5.199,32.325,5.199  c3.793,0,7.479-0.219,11.062-0.637L272.611,280.17z M306.477,275.316c4.646,4.607,9.991,9.025,15.853,12.446  c-0.839,16.314-3.6,29.341-5.08,35.341c-3.074,1.164-6.328,2.24-9.752,3.228C308.993,308.35,308.01,290.018,306.477,275.316z   M271.644,392.014c1.65,0,3.334-0.022,5.033-0.057c-1.961,17.448-6.41,31.797-11.683,43.296  c-20.206-1.103-30.025-8.943-33.578-12.656c1.117-11.788,1.748-23.143,2.071-33.439  C242.029,390.458,255.604,392.014,271.644,392.014z M236.638,473.057c-1.767,1.248-2.951,3.162-3.279,5.3  c-0.33,2.138,0.225,4.319,1.535,6.041l8.865,11.651H216.52c6.136-17.033,10.156-36.159,12.76-55.008  c6.325,3.949,15.245,7.764,27.373,9.425C246.945,465.453,237.39,472.516,236.638,473.057z M322.422,496.05h-30.981  c0.675-10.367,1.119-29.008-1.558-52.878c5.93-0.344,14.273-1.3,24.146-3.696c-2.182,12.212-5.175,24.83-9.223,37.5  c-1.066,3.339,0.172,6.982,3.053,8.98L322.422,496.05z M369.663,249.713c-13.581,5.361-25.366,6.879-32.308,7.264  c-1.055-8.847-2.854-17.991-5.67-27.139c0.359-0.468,0.713-0.942,1.063-1.421c17.999,6.801,42.412,3.312,72.74-10.43  c5.469-2.478,10.678-5.089,15.482-7.655C406.796,228.636,389.624,241.833,369.663,249.713z M438.472,178.139  c-13.485,0-24.455-10.971-24.455-24.455s10.969-24.455,24.455-24.455s24.455,10.971,24.455,24.455S451.957,178.139,438.472,178.139z  "/>
<path d="M277.215,315.021c6.026,3.977,14.054-1.779,12.108-8.756c-0.934-3.348-4.004-5.76-7.484-5.848  c-3.333-0.085-6.432,2-7.63,5.103C272.869,308.99,274.162,312.934,277.215,315.021z"/>
<g>
</g>
<g>
</g>
<g>
</g>
<g>
</g>
<g>
</g>
<g>
</g>
<g>
</g>
<g>
</g>
<g>
</g>
<g>
</g>
<g>
</g>
<g>
</g>
<g>
</g>
<g>
</g>
<g>
</g>
</svg>
