<?xml version="1.0" encoding="iso-8859-1"?>
<!-- Generator: Adobe Illustrator 19.0.0, SVG Export Plug-In . SVG Version: 6.00 Build 0)  -->
<svg xmlns="http://www.w3.org/2000/svg" xmlns:xlink="http://www.w3.org/1999/xlink" version="1.1" id="Layer_1" x="0px" y="0px" viewBox="0 0 512.001 512.001" style="enable-background:new 0 0 512.001 512.001;" xml:space="preserve">
<path style="fill:#EFCA54;" d="M279.086,135.739c0,50.523-22.848,91.477-73.36,91.477c-12.436,0-24.297-2.483-35.103-6.98  c-33.11-13.758-56.384-46.41-56.384-84.496c0-8.387,1.13-16.507,3.24-24.223v-0.011c27.729,0.746,55.372-1.598,82.44-6.906  c23.551-4.625,46.665-11.499,69.023-20.567C275.793,98.739,279.086,116.546,279.086,135.739z"/>
<g>
	<path style="fill:#24BC57;" d="M253.222,45.669c-26.993,10.934-55.233,18.276-83.996,21.889   c-16.113,2.035-32.396,2.899-48.722,2.558l3.709-39.27l6.692-3.57c12.17-6.49,25.032-11.381,38.268-14.621   c12.745-3.112,25.842-4.689,38.982-4.689c9.207,0,18.447,0.767,27.611,2.334L253.222,45.669z"/>
	<path style="fill:#24BC57;" d="M290.926,74.303c-7.236,3.485-14.568,6.735-21.985,9.729   c-35.966,14.589-73.904,23.509-112.449,26.482l-0.011,0.011c-12.948,1.002-25.97,1.332-39.003,0.98   c-7.332-0.181-14.674-0.586-22.006-1.215c9.229-13.086,17.573-26.503,25.032-40.175c16.326,0.341,32.609-0.522,48.722-2.558   c28.762-3.613,57.002-10.955,83.996-21.889C265.062,55.793,277.637,65.362,290.926,74.303z"/>
</g>
<path style="fill:#FC813D;" d="M313.763,247.197v52.75h-47.688c3.389,36.584,2.728,73.168-2.003,109.753  c-39.43,5.968-78.859,5.968-118.289,0c-4.732-36.584-5.392-73.168-1.993-109.753H97.977v-52.75h62.49  c0,25.075,20.322,45.408,45.408,45.408c25.075,0,45.408-20.333,45.408-45.408L313.763,247.197L313.763,247.197z"/>
<path style="fill:#D6B047;" d="M170.623,220.225v0.011c-33.11-13.758-56.384-46.41-56.384-84.496c0-8.387,1.13-16.507,3.24-24.223  v-0.011c27.729,0.746,55.372-1.598,82.44-6.906C199.918,104.6,135.36,147.855,170.623,220.225z"/>
<path style="fill:#1BA545;" d="M169.227,67.558l-12.735,42.957l-0.011,0.011c-12.948,1.002-25.97,1.332-39.003,0.98  c-7.332-0.181-14.674-0.586-22.006-1.215c9.229-13.086,17.573-26.503,25.032-40.176l3.709-39.27l6.692-3.57  c12.17-6.49,25.032-11.381,38.268-14.621l0.011,0.011C169.184,12.665,161.906,45.275,169.227,67.558z"/>
<path style="fill:#F48B2C;" d="M449.041,79.751l-91.519-22.463l-21.5,87.596c-6.203,25.272,9.255,50.787,34.527,56.991l0,0  c25.272,6.203,50.787-9.255,56.991-34.527L449.041,79.751z"/>
<path d="M216.597,145.706c4.414,0,7.992-3.579,7.992-7.992v-14.876c0-4.414-3.578-7.992-7.992-7.992  c-4.414,0-7.992,3.578-7.992,7.992v14.876C208.604,142.128,212.183,145.706,216.597,145.706z"/>
<path d="M247.834,145.706c4.414,0,7.992-3.579,7.992-7.992v-14.876c0-4.414-3.578-7.992-7.992-7.992  c-4.414,0-7.992,3.578-7.992,7.992v14.876C239.842,142.128,243.42,145.706,247.834,145.706z"/>
<path d="M450.946,71.989l-91.518-22.462c-4.287-1.052-8.615,1.57-9.667,5.857l-21.5,87.596c-3.509,14.296-1.24,29.103,6.388,41.693  c5.8,9.574,14.177,16.987,24.14,21.535l-10.191,41.521h-26.837v-0.536c0-4.414-3.578-7.992-7.992-7.992h-62.485  c-4.414,0-7.992,3.578-7.992,7.992c0,0.18-0.011,0.357-0.014,0.536h-29.41v-12.893c39.615-3.44,65.846-32.222,71.878-78.031  l14.005,12.218c1.515,1.321,3.387,1.97,5.252,1.97c2.228,0,4.445-0.927,6.025-2.738c2.902-3.327,2.558-8.375-0.768-11.277  l-23.19-20.232c0.002-0.341,0.016-0.672,0.016-1.013c0-4.436-0.173-8.754-0.498-12.963l19.796,19.194  c1.553,1.506,3.558,2.254,5.563,2.254c2.087,0,4.171-0.812,5.739-2.429c3.072-3.169,2.995-8.229-0.175-11.301l-35.628-34.545  c-0.752-2.6-1.594-5.129-2.508-7.599c5.049-2.172,10.059-4.452,15.022-6.845c2.579-1.244,4.297-3.771,4.501-6.627  c0.205-2.856-1.134-5.603-3.509-7.203c-12.443-8.373-24.452-17.467-35.733-27.036l-16.72-33.869c-1.133-2.295-3.298-3.91-5.823-4.34  c-37.42-6.384-76.474-0.061-109.969,17.805l-6.688,3.568c-2.367,1.263-3.943,3.629-4.196,6.299l-3.557,37.604  c-7.132,12.961-15.113,25.735-23.756,37.991c-1.65,2.34-1.922,5.385-0.713,7.981c1.21,2.596,3.714,4.347,6.568,4.59  c2.616,0.223,5.233,0.416,7.852,0.584L64.03,162.948c-2.908,3.321-2.574,8.37,0.747,11.278c1.516,1.329,3.394,1.98,5.262,1.98  c2.223,0,4.436-0.923,6.016-2.727l30.248-34.539c0.182,5.733,0.846,11.347,1.964,16.798l-22.825,35.757  c-2.375,3.721-1.284,8.663,2.436,11.037c1.332,0.85,2.821,1.256,4.294,1.256c2.638,0,5.22-1.305,6.745-3.693l15.662-24.535  c14.391,32.803,45.985,56.412,83.306,59.336v12.835h-29.41c-0.002-0.179-0.014-0.356-0.014-0.536c0-4.414-3.579-7.992-7.992-7.992  H97.982c-4.414,0-7.992,3.578-7.992,7.992v0.536H62.959c-4.414,0-7.992,3.579-7.992,7.992s3.578,7.992,7.992,7.992h27.031v36.227  c0,4.414,3.578,7.992,7.992,7.992h37.113c-0.27,3.571-0.501,7.145-0.694,10.692c-0.239,4.408,3.142,8.174,7.549,8.413  c4.409,0.228,8.174-3.143,8.413-7.549c0.338-6.239,0.802-12.568,1.382-18.809c0.208-2.239-0.536-4.462-2.051-6.123  c-1.514-1.661-3.658-2.609-5.907-2.609h-37.813v-36.763h47.097c3.868,25.668,26.075,45.408,52.804,45.408  s48.935-19.74,52.804-45.408h47.097v36.763h-39.704c-2.249,0-4.393,0.947-5.907,2.609c-1.514,1.661-2.259,3.884-2.051,6.123  c3.143,33.857,2.728,68.131-1.228,101.975c-34.508,4.675-69.406,4.674-103.913,0c-2.282-19.513-3.397-39.24-3.321-58.725  c0.017-4.414-3.547-8.006-7.961-8.024c-0.011,0-0.021,0-0.032,0c-4.399,0-7.974,3.557-7.992,7.961  c-0.088,22.197,1.324,44.692,4.194,66.86c0.458,3.537,3.204,6.342,6.73,6.876c17.686,2.677,35.482,4.167,53.291,4.479v81.924  c0,4.414,3.578,7.992,7.992,7.992c4.414,0,7.992-3.578,7.992-7.992v-81.968c17.177-0.382,34.34-1.853,51.399-4.435  c3.526-0.534,6.272-3.339,6.73-6.876c4.411-34.062,5.338-68.597,2.766-102.792h39.005c4.414,0,7.992-3.578,7.992-7.992v-36.227  h22.913l-42.89,174.745c-1.052,4.286,1.57,8.615,5.857,9.667c0.641,0.157,1.281,0.232,1.911,0.232c3.594,0,6.861-2.443,7.756-6.089  l56.842-231.591c2.578,0.366,5.159,0.569,7.731,0.569c9.945,0,19.733-2.712,28.456-7.997c12.59-7.628,21.456-19.702,24.965-33.998  l7.47-30.436c1.052-4.286-1.57-8.615-5.857-9.667c-4.287-1.055-8.615,1.57-9.667,5.857l-5.565,22.674l-75.995-18.652l17.69-72.072  l6.174,1.515l-8.728,35.558c-1.052,4.286,1.57,8.615,5.857,9.667c0.64,0.157,1.281,0.232,1.911,0.232  c3.594,0,6.861-2.442,7.756-6.089l8.728-35.557l21.573,5.295l-13.299,54.186c-1.052,4.286,1.57,8.615,5.857,9.667  c0.64,0.157,1.281,0.232,1.911,0.232c3.594,0,6.861-2.443,7.756-6.089l13.299-54.186l17.2,4.221l-6.52,26.564  c-1.052,4.286,1.57,8.615,5.857,9.667c4.286,1.051,8.615-1.571,9.667-5.857l8.425-34.326  C457.854,77.369,455.233,73.042,450.946,71.989z M125.181,78.169c29.65,0.177,59.241-3.464,87.983-10.883  c4.274-1.103,6.845-5.462,5.742-9.736c-1.104-4.274-5.466-6.845-9.737-5.742c-26.113,6.741-52.941,10.212-79.887,10.366  l2.487-26.297l2.898-1.545c29.195-15.573,63.048-21.476,95.769-16.779l11.762,23.825c-3.977,1.49-7.984,2.915-11.989,4.24  c-4.191,1.386-6.463,5.908-5.077,10.099c1.386,4.19,5.907,6.462,10.099,5.077c5.518-1.827,11.048-3.815,16.494-5.931  c7.458,6.227,15.209,12.248,23.174,18.002c-51.896,22.654-108.391,33.06-164.957,30.38  C115.334,95.031,120.431,86.644,125.181,78.169z M123.797,119.604c1.189,0.011,2.379,0.037,3.568,0.037  c1.32,0,2.64-0.014,3.96-0.028l-9.061,14.196C122.371,129.025,122.882,124.272,123.797,119.604z M125.428,158.558l25.271-39.588  c0.01-0.015,0.017-0.032,0.027-0.047c4.377-0.266,8.747-0.606,13.11-1.021l-13.518,29.527c-1.837,4.014-0.074,8.757,3.94,10.594  c1.078,0.493,2.209,0.728,3.323,0.728c3.03,0,5.928-1.732,7.272-4.668l17.585-38.411c28.018-4.053,55.566-11.184,82.108-21.312  c4.298,11.912,6.555,26.045,6.555,41.373c0,10.741-1.067,20.739-3.146,29.812c-48.791,9.813-82.188-0.074-82.664-0.22  c-4.206-1.301-8.681,1.05-9.992,5.261c-1.312,4.215,1.041,8.695,5.256,10.007c1.04,0.324,17.58,5.328,44.446,5.328  c10.846,0,23.381-0.818,37.251-3.088c-2.099,4.697-4.55,9.016-7.365,12.889c-11.328,15.591-27.868,23.496-49.162,23.496  C167.601,219.219,135.387,193.528,125.428,158.558z M172.315,263.714h25.567v20.027  C186.648,281.286,177.288,273.773,172.315,263.714z M213.867,283.741v-20.027h25.567  C234.462,273.773,225.102,281.286,213.867,283.741z M402.055,189.579c-8.939,5.415-19.449,7.024-29.6,4.534  c-10.149-2.492-18.72-8.785-24.136-17.724c-4.007-6.615-5.924-14.09-5.645-21.643l74.405,18.262  C413.83,179.833,408.669,185.571,402.055,189.579z"/>
<g>
</g>
<g>
</g>
<g>
</g>
<g>
</g>
<g>
</g>
<g>
</g>
<g>
</g>
<g>
</g>
<g>
</g>
<g>
</g>
<g>
</g>
<g>
</g>
<g>
</g>
<g>
</g>
<g>
</g>
</svg>
