<?xml version="1.0" encoding="iso-8859-1"?>
<!-- Generator: Adobe Illustrator 19.0.0, SVG Export Plug-In . SVG Version: 6.00 Build 0)  -->
<svg xmlns="http://www.w3.org/2000/svg" xmlns:xlink="http://www.w3.org/1999/xlink" version="1.1" id="Layer_1" x="0px" y="0px" viewBox="0 0 512.004 512.004" style="enable-background:new 0 0 512.004 512.004;" xml:space="preserve">
<path style="fill:#FFD0B8;" d="M322.92,270.913l-0.117,0.181c-2.402-1.615-5.26-2.635-8.438-2.805  c-0.361-0.021-0.723-0.032-1.095-0.032c-10.244,0.032-18.544,8.353-18.544,18.586c-0.064-10.234-8.395-18.512-18.65-18.48  c-10.265,0.032-18.576,8.384-18.544,18.65l-18.49-4.92c-32.252,25.472-44.855,93.706-44.855,93.706  c-27.81-87.224,35.557-142.706,48.065-145.682c14.25,8.608,30.956,13.56,48.819,13.56c10.159,0,19.192-1.605,27.13-4.58  C320.135,249.213,321.687,259.967,322.92,270.913z"/>
<path style="fill:#509364;" d="M329.015,293.218l-3.432,7.619c-28.65,75.673-3.146,203.193-3.146,203.193H193.854  c1.328-3.687,58.564-93.239,51.933-112.569c-2.816-8.204-5.143-14.707-6.748-19.139c-0.988-2.157-1.828-4.389-2.476-6.705  c0-0.011-0.011-0.021-0.011-0.021c-1.583-5.622-2.136-11.658-1.424-17.874c3.018-26.248,19.309-32.858,3.911-65.631l18.49,4.92  c-0.032-10.265,8.278-18.618,18.544-18.65h0.011c10.255-0.032,18.576,8.246,18.639,18.48c0-10.234,8.299-18.554,18.544-18.586  c0.372,0,0.733,0.011,1.095,0.032c3.177,0.17,6.036,1.19,8.438,2.805C329.622,275.663,332.745,284.982,329.015,293.218z"/>
<path style="fill:#FFD0B8;" d="M365.454,149.099c0,52.23-22.146,94.578-74.387,94.578c-12.338,0-24.123-2.359-34.93-6.663v-0.011  c-27.959-11.105-49.35-35.174-56.789-64.791c-2.625,2.189-5.707,3.454-9.011,3.454c-9.511,0-17.226-10.467-17.226-23.379  s7.715-23.379,17.226-23.379c2.816,0,5.462,0.925,7.811,2.54c8.268-43.793,46.726-76.927,92.92-76.927  C343.308,54.521,365.454,96.868,365.454,149.099z"/>
<path style="fill:#E2B39F;" d="M256.138,237.003c-27.959-11.105-49.35-35.174-56.789-64.791c-2.625,2.189-5.707,3.454-9.011,3.454  c-9.511,0-17.226-10.467-17.226-23.379s7.715-23.379,17.226-23.379c2.816,0,5.462,0.925,7.811,2.54  c8.268-43.793,46.726-76.927,92.92-76.927C291.067,54.521,196.638,133.318,256.138,237.003z"/>
<path style="fill:#417A50;" d="M268.253,370.134c12.752,41.444-7.439,133.897-7.439,133.897h-66.959  c1.328-3.687,58.564-93.239,51.933-112.569c-2.816-8.204-5.143-14.707-6.748-19.139c-0.988-2.157-1.828-4.389-2.476-6.705  c0-0.011-0.011-0.021-0.011-0.021c-1.583-5.622-2.136-11.658-1.424-17.874c3.018-26.248,19.309-32.858,3.911-65.631l18.49,4.92  c-0.032-10.265,8.278-18.618,18.544-18.65h0.011C276.084,268.362,255.501,328.69,268.253,370.134z"/>
<path d="M315.191,187.158c-4.351,4.352-11.429,4.35-15.78,0c-3.114-3.113-8.159-3.113-11.272,0s-3.113,8.159,0,11.271  c5.284,5.283,12.223,7.924,19.162,7.924c6.938,0,13.878-2.642,19.161-7.924c3.113-3.113,3.113-8.159,0-11.271  C323.349,184.046,318.303,184.046,315.191,187.158z"/>
<path d="M391.663,78.836c11.206-1.075,23.907-2.293,30.036-17.14c1.679-4.069-0.257-8.729-4.326-10.408  c-4.067-1.68-8.728,0.257-10.408,4.326c-2.225,5.391-5.374,6.257-16.824,7.355c-10.109,0.969-23.778,2.289-36.876,13.144  c-1.663-2.242-3.423-4.36-5.273-6.356c4.505-7.703,10.733-21.423,6.657-33.242c-2.137-6.194-5.642-10.16-8.457-13.347  c-4.073-4.611-5.041-5.707-2.423-12.226c1.64-4.085-0.341-8.726-4.426-10.366c-4.081-1.639-8.725,0.341-10.366,4.426  c-6.283,15.646,0.394,23.202,5.271,28.721c2.268,2.567,4.227,4.784,5.334,7.991c1.573,4.561-0.993,11.707-3.966,17.445  c-4.471-2.999-9.287-5.479-14.426-7.42c-6.489-15.204-14.179-24.604-22.975-28.025c-6.563-2.551-12.507-3.642-17.282-4.517  c-3.912-0.717-7.604-1.394-9.043-2.506c-1.338-1.034-1.537-4.706-1.537-6.801c0-4.402-3.567-7.97-7.97-7.97s-7.97,3.568-7.97,7.97  c0,20.651,13.11,23.055,23.644,24.987c4.326,0.794,9.23,1.693,14.38,3.696c2.383,0.927,5.297,3.619,8.411,8.471  c-3.176-0.325-6.434-0.49-9.773-0.49c-1.999,0-3.982,0.079-5.957,0.192c-7.37-7.367-15.859-12.937-25.26-14.264  c-9.296-1.308-18.156,1.565-26.385,8.544c-3.636-0.497-7.298-0.377-10.96,0.38c-9.109,1.884-16.805,8.008-23.91,15.503  c-7.884-1.347-16.109-0.811-24.534,1.655c-10.978,3.212-19.344,2.921-23.556-0.819c-3.057-2.714-4.295-7.832-3.313-13.69  c1.109-6.612-0.715-13.311-5.005-18.38c-4.202-4.965-10.347-7.813-16.894-7.813c-4.403,0-7.952,3.568-7.952,7.97  s3.584,7.97,7.987,7.97c2.486,0,4.007,1.359,4.693,2.17c1.255,1.482,1.785,3.469,1.453,5.447c-1.924,11.475,1.156,21.77,8.45,28.246  c5.989,5.318,17.549,10.363,38.616,4.198c2.322-0.68,4.569-1.137,6.744-1.404c-8.866,10.732-17.991,21.071-27.136,21.517  c-5.51,0.266-11.8-3.103-18.717-10.02c-3.114-3.113-8.159-3.113-11.272,0c-3.113,3.113-3.113,8.159,0,11.271  c9.883,9.883,19.483,14.705,29.297,14.705c0.489,0,0.979-0.012,1.469-0.036c2.174-0.106,4.268-0.445,6.292-0.981  c-1.466,13.35,0.463,27.017,1.419,32.54c-0.966,3.362-1.491,7.007-1.491,10.833c0,0.131,0.012,0.256,0.013,0.386  c0.001,0.026-0.001,0.051,0,0.078c0.002,0.04,0.004,0.085,0.006,0.125c0.012,0.824,0.04,1.641,0.1,2.446  c0.333,12.639-1.639,35.129-9.728,44.369c-1.063-4.679-1.998-9.873-2.948-15.522c-3.222-19.178-6.875-40.914-26.232-40.914  c-4.403,0-7.97,3.568-7.97,7.97s3.567,7.97,7.97,7.97c5.45,0,7.795,11.446,10.513,27.616c0.842,5.008,1.759,10.442,3.002,15.885  c-2.818-0.929-5.915-2.386-9.296-4.393c-6.869-4.076-14.595-6.025-22.354-5.64l-10.955,0.548c-4.396,0.22-7.781,3.963-7.561,8.358  c0.219,4.396,3.922,7.771,8.358,7.562l10.954-0.548c4.627-0.232,9.257,0.954,13.423,3.427c8.338,4.949,16.008,7.563,22.956,7.841  c5.119,11.266,13.36,20.272,27.742,22.164c1.31,0.172,2.608,0.258,3.894,0.258c6.666,0,12.993-2.314,18.852-6.907  c5.87-4.601,11.253-11.584,16.119-20.883c4.629,5.598,9.835,10.666,15.51,15.141c-5.948,4.645-12.439,11.083-18.276,18.349  c-2.758,3.431-2.21,8.448,1.221,11.205c1.472,1.183,3.235,1.758,4.986,1.758c2.333,0,4.644-1.019,6.219-2.979  c4.178-5.202,8.185-9.293,11.654-12.405l-2.017,32.645c-17.256,15.279-28.796,41.072-35.86,62.119  c-1.728-27.844,6.263-49.971,14.636-65.09c2.133-3.85,0.741-8.701-3.11-10.833c-3.849-2.134-8.7-0.741-10.833,3.11  c-12.982,23.435-25.173,61.667-9.539,110.715c1.11,3.483,4.452,5.755,8.094,5.534c3.649-0.231,6.671-2.913,7.336-6.507  c0.109-0.591,10.163-53.73,33.947-81.154c3.422,11.651,0.9,18.345-2.543,27.484c-2.391,6.346-5.1,13.538-6.216,23.241  c-0.812,7.082-0.249,14.127,1.671,20.942c0.023,0.086,0.05,0.172,0.077,0.257c0.695,2.436,1.602,4.897,2.697,7.325  c1.47,4.038,3.778,10.483,6.597,18.704c0.058,0.186,1.327,4.762-6.317,22.923c-1.708,4.056,0.197,8.73,4.253,10.438  c1.011,0.425,2.058,0.626,3.089,0.626c3.11,0,6.066-1.833,7.348-4.88c7.036-16.713,9.104-27.282,6.708-34.272  c-2.932-8.545-5.319-15.203-6.805-19.283c-0.072-0.2-0.154-0.397-0.243-0.591c-0.849-1.854-1.538-3.717-2.047-5.535h-0.002  c-0.019-0.069-0.039-0.137-0.061-0.206c-1.316-4.758-1.697-9.68-1.13-14.631c0.891-7.743,3.13-13.688,5.295-19.438  c3.676-9.761,7.445-19.783,3.454-35.457l3.687,0.982c2.397,0.638,4.953,0.124,6.917-1.39c1.964-1.514,3.111-3.855,3.104-6.336  c-0.018-5.86,4.736-10.641,10.597-10.658c0.011,0,0.021,0,0.031,0c5.845,0,10.609,4.747,10.626,10.595  c0.013,4.394,3.578,7.947,7.97,7.947c0.007,0,0.016,0,0.022,0c4.394-0.013,7.947-3.578,7.948-7.968c0-0.009,0-0.017,0-0.026  c-0.018-5.86,4.736-10.641,10.596-10.658c0.215,0,0.425,0.005,0.632,0.017c2.996,0.165,5.636,1.778,7.245,4.427  c1.714,2.822,1.933,6.288,0.587,9.272l-3.439,7.616c-0.067,0.151-0.131,0.304-0.19,0.458  c-12.288,32.461-16.596,77.321-12.808,133.333c1.92,28.401,5.465,52.169,7.585,64.711H207.725  c7.373-12.408,19.506-33.013,29.398-52.586c1.985-3.929,0.409-8.722-3.52-10.707c-3.927-1.985-8.722-0.41-10.709,3.52  c-10.393,20.569-23.447,42.513-30.461,54.302c-4.87,8.188-5.601,9.449-6.067,10.744c-0.879,2.442-0.513,5.159,0.979,7.282  c1.492,2.123,3.924,3.387,6.521,3.387h128.583c2.388,0,4.65-1.07,6.163-2.917c1.514-1.847,2.12-4.274,1.652-6.616  c-0.25-1.252-24.687-125.856,2.691-198.58l3.337-7.388c3.511-7.777,2.953-16.788-1.492-24.107c-1.203-1.981-2.659-3.751-4.301-5.297  c-0.969-8.194-2.085-15.964-3.333-23.21c10.432-5.056,19.345-12.541,26.469-22.313c1.186,2.178,2.652,4.298,4.474,6.244  c5.48,5.855,13.168,8.951,22.227,8.951c9.295,0,14.328-3.983,16.915-7.324c7.813-10.094,3.6-26.355-0.116-40.702  c-0.902-3.48-2.121-8.189-2.672-11.483h7.126c4.403,0,7.97-3.568,7.97-7.97s-3.567-7.97-7.97-7.97h-11.689  c-3.681,0-6.881,1.514-9.008,4.263c-4.663,6.025-2.368,14.889,0.811,27.157c2.086,8.052,5.968,23.04,2.943,26.949  c-0.768,0.993-3.03,1.14-4.309,1.14c-4.644,0-8.095-1.264-10.551-3.863c-4.211-4.458-5.076-12.271-5.075-16.01  c5.732-14.786,8.719-32.332,8.719-51.857c0-3.767-0.116-7.458-0.336-11.072c4.192-0.763,8.252-2.598,11.937-5.465  c8.303-6.458,14.328-17.96,14.328-27.35c0-0.562,0.067-0.874,0.106-1.011c1.135-0.71,5.363-0.767,8.919,0.189  c4.245,1.179,8.635-1.306,9.813-5.546c1.177-4.241-1.306-8.634-5.546-9.813c-2.395-0.664-14.752-3.666-22.919,2.541  c-2.88,2.189-6.312,6.331-6.312,13.639c0,3.437-2.911,10.673-8.174,14.768c-1.304,1.014-2.606,1.703-3.918,2.105  c-1.937-11.869-5.212-22.635-9.745-32.058c0.157-0.146,0.307-0.299,0.466-0.443C371.791,80.742,381.892,79.773,391.663,78.836z   M257.627,48.263c1.96,0.276,3.995,0.96,6.082,2.018c-2.496,0.691-4.956,1.474-7.377,2.346c-1.585-1.427-3.189-2.725-4.806-3.9  C253.554,48.128,255.581,47.974,257.627,48.263z M225.738,57.012c4.988-1.03,9.818,0.395,14.29,3.159  c-5.081,2.918-9.9,6.254-14.398,9.981c-3.32-2.851-6.759-5.269-10.302-7.253C218.824,59.895,222.306,57.722,225.738,57.012z   M199.647,80.092c1.393-1.694,2.794-3.395,4.199-5.068c3.799,1.6,7.236,3.768,10.311,6.231  c-9.944,11.253-17.487,24.759-21.742,39.787c-0.69-0.07-1.384-0.105-2.079-0.105c-3.409,0-6.636,0.809-9.576,2.272  c-0.401-10.616,0.611-22.124,5.174-27.508C190.721,90.949,195.213,85.487,199.647,80.092z M186.05,222.82  c-3.589,2.813-7.033,3.893-10.832,3.39c-6.59-0.867-10.989-4.515-14.204-10.418c11.095-6.947,16.191-21.558,18.469-35.119  c3.271,1.899,6.942,2.963,10.852,2.963c1.354,0,2.695-0.131,4.011-0.388c1.969,5.603,4.412,10.949,7.25,16.021  C197.259,209.51,192.091,218.085,186.05,222.82z M313.565,260.294c-0.104-0.001-0.208-0.008-0.312-0.008  c-7.234,0.022-13.792,2.947-18.574,7.666c-4.809-4.692-11.389-7.6-18.619-7.557c-11.156,0.033-20.708,6.973-24.609,16.752  l-4.049-1.078l2.053-33.218c12.797,5.67,26.902,8.795,41.618,8.795c7.345,0,14.305-0.798,20.84-2.357  C312.495,252.835,313.046,256.505,313.565,260.294z M291.071,235.706c-29.44,0-56-14.749-71.745-38.029  c2.695-7.349,5.184-15.588,7.455-24.715c5.637-22.649,7.857-42.35,7.948-43.176c0.486-4.375-2.668-8.314-7.043-8.799  c-4.399-0.485-8.315,2.669-8.799,7.043c-1.164,10.494-4.345,30.194-9.733,49.257c-0.785-2.292-1.48-4.631-2.08-7.016  c-0.668-2.66-2.658-4.789-5.266-5.637c-0.808-0.262-1.639-0.391-2.463-0.391c-1.842,0-3.657,0.64-5.11,1.853  c-1.271,1.062-2.583,1.6-3.899,1.6c-4.375,0-9.251-6.328-9.251-15.409s4.876-15.409,9.251-15.409c1.09,0,2.192,0.379,3.272,1.128  c2.218,1.536,5.064,1.845,7.562,0.819c2.496-1.024,4.305-3.243,4.805-5.895c2.875-15.227,9.661-28.892,19.195-40.047  c5.444,7.338,8.312,13.971,8.604,14.664c1.278,3.052,4.237,4.891,7.354,4.891c1.022,0,2.059-0.198,3.063-0.615  c4.063-1.693,5.985-6.359,4.291-10.423c-0.197-0.471-4.089-9.687-11.859-19.639c4.85-3.918,10.122-7.313,15.729-10.118  c4.626,5.735,8.281,11.871,10.498,15.941c2.104,3.865,6.943,5.292,10.812,3.187c3.866-2.105,5.291-6.947,3.186-10.812  c-2.878-5.283-5.876-10.052-8.971-14.302c3.53-0.981,7.145-1.74,10.828-2.269c4.218,5.135,8.44,11.459,12.512,18.828  c1.454,2.631,4.176,4.117,6.983,4.117c1.304,0,2.626-0.321,3.848-0.996c3.852-2.13,5.249-6.979,3.121-10.831  c-2.099-3.797-4.478-7.778-7.116-11.716c3.93,0.334,7.609,0.943,11.041,1.807c1.544,4.272,3.067,9.116,4.532,14.598  c0.952,3.563,4.174,5.915,7.695,5.915c0.681,0,1.373-0.088,2.062-0.272c4.253-1.136,6.78-5.505,5.644-9.757  c-0.122-0.459-0.248-0.908-0.372-1.36c25.364,18.766,28.835,56.319,28.835,75.378C357.488,175.139,351.018,235.706,291.071,235.706z  "/>
<path d="M288.415,148.036v-17.003c0-4.402-3.567-7.97-7.97-7.97s-7.97,3.568-7.97,7.97v17.003c0,4.402,3.567,7.97,7.97,7.97  S288.415,152.438,288.415,148.036z"/>
<path d="M334.641,123.063c-4.403,0-7.97,3.568-7.97,7.97v17.003c0,4.402,3.567,7.97,7.97,7.97s7.97-3.568,7.97-7.97v-17.003  C342.611,126.632,339.043,123.063,334.641,123.063z"/>
<g>
</g>
<g>
</g>
<g>
</g>
<g>
</g>
<g>
</g>
<g>
</g>
<g>
</g>
<g>
</g>
<g>
</g>
<g>
</g>
<g>
</g>
<g>
</g>
<g>
</g>
<g>
</g>
<g>
</g>
</svg>
