<?xml version="1.0" encoding="iso-8859-1"?>
<!-- Generator: Adobe Illustrator 19.0.0, SVG Export Plug-In . SVG Version: 6.00 Build 0)  -->
<svg xmlns="http://www.w3.org/2000/svg" xmlns:xlink="http://www.w3.org/1999/xlink" version="1.1" id="Layer_1" x="0px" y="0px" viewBox="0 0 511.999 511.999" style="enable-background:new 0 0 511.999 511.999;" xml:space="preserve">
<g>
	<path style="fill:#52CBCE;" d="M384.506,191.318c0,0,66.379,49.001,27.786,76.567c-39.088,27.919-29.771,47.413-16.54,81.595   c0,0-51.603-11.159-68.253-64.57c4.036-13.794,7.63-21.755,7.818-22.152C364.416,252.712,379.963,225.444,384.506,191.318z"/>
	<path style="fill:#52CBCE;" d="M382.466,134.62c-3.054-13.849-8.182-26.21-15.569-36.299l-3.176-0.099   c-11.567,7.112-26.86,16.01-36.288,19.594c-36.773,13.97-60.248,8.391-82.113,13.43c-10.905,2.514-21.413,7.674-32.98,19.241   c-2.426-1.687-5.182-2.635-8.104-2.635c-9.858,0-17.863,10.85-17.863,24.247c-13.584-7.035-37.567-22.306-29.848-60.899   c7.564-37.842,63.953-28.669,63.953-28.669s0-50.611,56.234-68.253c8.126-2.558,16.297-4.234,24.368-5.149   c47.766-5.447,92.147,15.878,104.64,42.639C432.713,109.635,382.466,134.62,382.466,134.62z"/>
</g>
<path style="fill:#FFD0B8;" d="M385.95,168.802c0,7.752-0.474,15.283-1.444,22.516c-4.543,34.127-20.09,61.395-49.189,71.44  c-7.851,2.724-16.683,4.179-26.551,4.179c-20.101,0-38.802-6.042-54.36-16.429c-3.154-2.095-6.186-4.377-9.064-6.825  c-15.382-13.033-26.695-30.73-31.756-50.898c-2.712,2.271-5.921,3.584-9.35,3.584c-9.858,0-17.863-10.861-17.863-24.258v-0.011  c0-13.397,8.005-24.247,17.863-24.247c2.922,0,5.679,0.948,8.104,2.635c28.117-28.117,50.005-18.392,86.579-24.787  c8.601-1.5,18.017-3.892,28.514-7.884c9.428-3.584,24.721-12.482,36.288-19.594l3.176,0.099  c7.388,10.089,12.515,22.45,15.569,36.299C384.814,145.261,385.95,156.783,385.95,168.802z"/>
<path style="fill:#F4516D;" d="M327.499,284.909c-8.104,27.687-17.984,78.871-5.579,139.439c0,0-33.994,1.213-69.62-10.574  c-23.177-7.674-47.049-20.851-62.696-43.455c0,0,3.992-16.97,11.203-39.044h0.011c4.543-13.893,10.365-29.815,17.3-44.8  c6.098-13.221,13.055-25.713,20.741-35.439c2.106-2.679,4.267-5.138,6.484-7.355c9.758,8.281,21.149,14.676,33.619,18.646  c9.394,2.999,19.406,4.609,29.804,4.609c9.869,0,18.701-1.455,26.551-4.179C335.13,263.154,331.535,271.115,327.499,284.909z"/>
<path style="fill:#E2B39F;" d="M254.406,250.507c-3.154-2.095-6.186-4.377-9.064-6.825c-15.382-13.033-26.695-30.73-31.756-50.898  c-2.712,2.271-5.921,3.584-9.35,3.584c-9.858,0-17.863-10.861-17.863-24.258v-0.011c0-13.397,8.005-24.247,17.863-24.247  c2.922,0,5.679,0.948,8.104,2.635c28.117-28.117,50.005-18.392,86.579-24.787C298.919,125.7,231.03,170.279,254.406,250.507z"/>
<path style="fill:#E6E6E6;" d="M238.859,251.036c-7.685,9.725-14.643,22.218-20.741,35.439  c-33.388,1.456-66.158-7.674-90.504-21.093c-36.74-20.211-54.294-50.159-25.835-68.176  C146.182,169.089,218.967,232.391,238.859,251.036z"/>
<path style="fill:#C63958;" d="M252.3,413.763v0.011c-23.177-7.674-47.049-20.851-62.696-43.455c0,0,3.992-16.97,11.203-39.044  h0.011c4.543-13.893,10.365-29.815,17.3-44.8c6.098-13.221,13.055-25.713,20.741-35.439c2.106-2.679,4.267-5.138,6.484-7.355  c9.758,8.281,21.149,14.676,33.619,18.646C278.961,262.327,235.65,322.587,252.3,413.763z"/>
<path style="fill:#43B5B5;" d="M245.32,131.246c-10.905,2.514-21.413,7.674-32.98,19.241c-2.426-1.687-5.182-2.635-8.104-2.635  c-9.858,0-17.863,10.85-17.863,24.247c-13.584-7.035-37.567-22.306-29.848-60.899c7.564-37.842,63.953-28.669,63.953-28.669  s0-50.611,56.234-68.253c8.126-2.558,16.297-4.234,24.368-5.149C301.08,9.129,223.885,64.018,245.32,131.246z"/>
<path style="fill:#E6E6E6;" d="M127.614,265.382c24.346,13.419,57.117,22.549,90.504,21.093c-6.936,14.985-12.757,30.907-17.3,44.8  h-0.011c-61.417,6.55-119.261-24.82-90.052-55.485C115.485,270.796,121.229,267.455,127.614,265.382z"/>
<path style="fill:#FFD0B8;" d="M242.107,289.228c-8.925,19.639-14.015,47.753-0.095,82.866c0,0,4.923-38.419,20.936-62.024  L242.107,289.228z"/>
<path style="fill:#F9D780;" d="M297.96,79.797c-0.717-2.249-1.103-4.642-1.103-7.123c0-13,10.541-23.541,23.541-23.541  c11.942,0,21.81,8.898,23.321,20.432"/>
<path style="fill:#E58376;" d="M279.986,208.778c-0.416,0-0.837-0.031-1.26-0.096l-13.232-2.021  c-4.515-0.689-7.615-4.909-6.926-9.423c0.689-4.515,4.918-7.614,9.424-6.927l13.232,2.021c4.515,0.689,7.615,4.909,6.926,9.423  C287.526,205.848,284.002,208.778,279.986,208.778z"/>
<path d="M393.256,187.637c0.632-6.071,0.964-12.379,0.964-18.835c0-10.588-0.859-20.682-2.532-30.115  c5.158-3.49,12.978-9.77,19.361-19.135c9.591-14.073,17.754-37.862,2.166-71.281c-5.147-11.029-14.78-21.204-27.856-29.426  c-3.868-2.431-8.973-1.267-11.403,2.599c-2.43,3.866-1.267,8.972,2.599,11.402c10.378,6.524,17.872,14.277,21.67,22.417  c9.763,20.928,9.594,39.252-0.501,54.462c-3.219,4.849-6.996,8.667-10.328,11.484c-2.585-8.016-5.902-15.303-9.895-21.835  c3.883-2.467,6.357-4.093,6.525-4.203c3.814-2.512,4.87-7.64,2.359-11.455c-2.511-3.814-7.639-4.87-11.455-2.359  c-0.066,0.044-6.735,4.43-15.541,9.819c-15.505,9.533-27.898,16.248-34.894,18.908c-22.245,8.453-39.464,9.366-54.658,10.172  c-20.649,1.095-38.665,2.054-59.074,20.337c-2.118-0.666-4.312-1.012-6.528-1.012c-10.811,0-19.888,7.779-23.908,19.184  c-11.453-8.373-20.559-21.62-15.694-45.945c2.408-12.044,11.464-19.216,27.689-21.927c7.448-1.245,14.764-1.188,19.871-0.881  l-0.031,17.975c-0.008,4.567,3.688,8.276,8.255,8.284c0.004,0,0.01,0,0.014,0c4.561,0,8.262-3.693,8.27-8.255l0.044-25.449l0,0  c0.017-1.825,0.965-44.877,50.44-60.399c24.096-7.559,50.504-7.51,74.363,0.139c4.347,1.393,9.005-1.001,10.399-5.351  c1.395-4.35-1-9.005-5.351-10.4c-27.08-8.681-57.04-8.741-84.363-0.17c-31.903,10.009-47.086,30.048-54.204,45.097  c-4,8.456-5.955,16.312-6.912,22.009c-5.966-0.355-14.357-0.398-23.105,1.019c-23.386,3.789-37.772,15.914-41.6,35.066  c-3.822,19.108-1.032,35.486,8.292,48.678c6.418,9.082,14.816,14.987,21.7,18.922c1.902,15.749,12.565,27.458,25.829,27.458  c1.406,0,2.797-0.136,4.164-0.401c2.021,5.751,4.53,11.281,7.482,16.555c-9.657-7.347-20.677-14.916-32.341-21.426  c-35.492-19.81-64.489-22.884-86.185-9.145c-15.305,9.689-18.213,21.593-17.959,29.875c0.46,14.944,11.988,31.045,31.471,44.631  c-2.192,1.612-4.236,3.392-6.102,5.362c-13.936,14.63-10.419,28.17-7.082,34.939c10.441,21.179,46.544,35.408,86.373,35.406  c1.734,0,3.478-0.036,5.224-0.09c-4.912,16.18-7.593,27.507-7.728,28.084c-0.536,2.278-0.082,4.676,1.251,6.6  c10.69,15.442,26.021,28.156,45.237,37.705c-5.311,9.504-16.405,25.86-32.395,31.703c-10.118,3.697-20.604,2.652-32.056-3.198  c-3.933-2.007-8.749-0.571-10.941,3.262l-13.232,23.155c-2.266,3.966-0.889,9.017,3.077,11.283c1.294,0.74,2.704,1.092,4.095,1.092  c2.871,0,5.662-1.497,7.188-4.168l9.523-16.665c13.071,4.986,25.858,5.242,38.105,0.744c21.859-8.027,35.783-29.268,41.897-40.6  c6.061,2.273,12.424,4.276,19.077,5.997c-1.152,4.934-3.301,11.938-7.222,19.19c-9.478,17.532-24.447,27.641-44.489,30.046  c-4.157,0.499-7.284,4.025-7.284,8.211v20.95c0,4.567,3.702,8.27,8.27,8.27c4.568,0,8.27-3.703,8.27-8.27v-13.925  c21.835-4.552,38.951-17.375,49.783-37.412c4.773-8.83,7.4-17.395,8.819-23.527c18.703,3.373,34.03,3.792,40.459,3.792  c1.906,0,3.031-0.037,3.232-0.044c2.431-0.087,4.701-1.239,6.205-3.151c1.504-1.912,2.091-4.389,1.602-6.772  c-4.047-19.756-5.955-40.087-5.675-60.431c0.064-4.567-3.588-8.319-8.155-8.383c-0.04,0-0.077,0-0.116,0  c-4.514,0-8.204,3.629-8.266,8.156c-0.25,18.093,1.138,36.181,4.13,53.911c-23.382-0.992-83.186-7.516-113.386-47.363  c1.538-6.05,5.004-19.074,10.075-34.614c0.014-0.042,0.036-0.078,0.051-0.12c5.385-16.47,11.087-31.239,16.95-43.907  c6.485-14.06,13.119-25.423,19.733-33.791c0.323-0.411,0.649-0.807,0.975-1.206c1.859,1.347,3.753,2.636,5.688,3.857  c-4.93,5.606-11.273,14.048-16.562,25.11c-9.304,19.463-17.052,51.09-1.137,91.235c1.261,3.181,4.33,5.222,7.683,5.222  c0.343,0,0.688-0.022,1.035-0.065c3.742-0.47,6.692-3.414,7.172-7.154c2.027-15.82,11.653-59.291,31.603-70.326  c3.996-2.211,5.444-7.243,3.233-11.239c-2.21-3.996-7.241-5.445-11.239-3.234c-4.113,2.275-7.978,5.384-11.59,9.302l-10.08-10.08  c5.283-9.94,11.367-17.021,15.064-20.829c13.05,5.535,27.179,8.467,41.561,8.467c4.605,0,9.065-0.315,13.377-0.905  c-0.821,2.484-1.689,5.241-2.58,8.285c-5.11,17.457-8.614,35.894-10.412,54.801c-0.433,4.546,2.902,8.583,7.448,9.016  c0.267,0.025,0.53,0.038,0.794,0.038c4.213,0,7.816-3.206,8.222-7.487c0.926-9.729,2.345-19.312,4.208-28.687  c22.778,37.89,62.228,46.873,64.182,47.295c0.581,0.126,1.168,0.186,1.748,0.186c2.389,0,4.697-1.036,6.286-2.897  c1.976-2.312,2.524-5.522,1.426-8.359l-1.323-3.409c-12.438-31.986-17.587-45.227,14.957-68.471  c12.721-9.087,15.461-19.996,15.521-27.548C432.817,221.809,404.249,196.455,393.256,187.637z M241.858,336.139  c-0.797-11,0.364-21.683,3.462-32.001l7.154,7.154C248.504,318.284,244.955,326.561,241.858,336.139z M212.819,278.338  c-8.034,0.088-16.225-0.44-24.429-1.597c-4.524-0.633-8.706,2.512-9.344,7.035s2.512,8.706,7.035,9.344  c6.476,0.913,12.95,1.466,19.368,1.675c-3.687,8.848-7.285,18.446-10.756,28.71c-3.541,0.25-7.045,0.382-10.494,0.382  c-35.327-0.001-64.977-12.578-71.679-26.173c-1.643-3.333-2.994-8.642,4.24-16.236c2.851-3.011,6.239-5.326,10.267-7.041  c10.25,5.336,21.369,9.756,33.122,13.142c0.764,0.221,1.536,0.325,2.293,0.325c3.591,0,6.898-2.359,7.942-5.983  c1.264-4.388-1.268-8.971-5.658-10.236c-11.882-3.423-23.026-7.98-33.126-13.548c-21.31-11.723-35.311-26.855-35.671-38.551  c-0.181-5.866,3.18-10.901,10.274-15.392c36.362-23.027,99.557,28.268,121.585,47.933  C222.715,259.461,217.702,268.237,212.819,278.338z M250.688,237.373c-14.447-12.241-24.503-28.355-29.081-46.602  c-0.694-2.762-2.759-4.973-5.468-5.853c-2.707-0.881-5.679-0.303-7.863,1.525c-1.31,1.097-2.669,1.654-4.04,1.654  c-4.537,0-9.593-6.566-9.593-15.999c0-9.415,5.056-15.977,9.593-15.977c1.142,0,2.28,0.389,3.382,1.154  c3.331,2.318,7.768,1.838,10.546-0.926c0.007-0.006,0.018-0.009,0.024-0.015c17.715-17.715,31.563-18.449,52.526-19.561  c15.591-0.827,34.995-1.856,59.657-11.227c8.881-3.376,22.15-10.889,33.069-17.471c4.867,7.983,8.555,17.467,10.95,28.328  c1.752,7.941,2.798,16.543,3.148,25.629c-10.269-4.418-22.649-2.448-31.023,5.926c-3.23,3.23-3.23,8.466,0,11.695  c3.231,3.23,8.466,3.23,11.696,0c4.514-4.514,11.858-4.514,16.372,0c0.775,0.775,1.667,1.358,2.618,1.762  c-0.224,2.998-0.509,5.95-0.894,8.813c-5.722,42.996-26.916,58.924-43.701,64.718c-7.12,2.47-15.14,3.721-23.841,3.721  C287.498,258.667,266.874,251.106,250.688,237.373z M407.485,261.155c-36.753,26.252-34.926,48.506-25.86,74.373  c-14.684-7.1-35.62-21.876-45.459-50.739c2.193-7.213,4.181-12.515,5.397-15.553c24.307-9.798,41.176-31.616,48.509-62.482  c11.527,10.602,26.113,27.055,26.01,40.182C416.053,250.425,415.132,255.693,407.485,261.155z"/>
<path d="M305.487,167.956c-10.962-10.962-28.8-10.964-39.764,0c-3.23,3.23-3.23,8.466,0,11.695c3.231,3.23,8.466,3.23,11.696,0  c4.515-4.514,11.86-4.513,16.373,0c1.615,1.614,3.732,2.423,5.848,2.423s4.233-0.807,5.848-2.423  C308.717,176.422,308.717,171.186,305.487,167.956z"/>
<path d="M345.482,209.497c-3.231-3.23-8.466-3.23-11.696,0c-4.514,4.514-11.858,4.514-16.372,0c-3.231-3.23-8.466-3.23-11.696,0  s-3.23,8.466,0,11.695c5.482,5.481,12.681,8.222,19.882,8.222c7.2,0,14.4-2.74,19.882-8.222  C348.712,217.962,348.712,212.725,345.482,209.497z"/>
<path d="M269.017,97.066c1.63,2.113,4.078,3.219,6.553,3.219c1.764,0,3.542-0.562,5.046-1.722  c0.304-0.236,31.141-23.578,77.014-20.601c4.547,0.298,8.492-3.159,8.788-7.718c0.296-4.557-3.16-8.491-7.717-8.787  c-2.944-0.191-5.825-0.275-8.656-0.286c-4.649-11.968-16.319-20.308-29.645-20.308c-17.541,0-31.811,14.27-31.811,31.811  c0,0.73,0.034,1.457,0.084,2.18c-11.097,5.264-17.55,10.143-18.157,10.612C266.897,88.256,266.227,93.449,269.017,97.066z   M320.398,57.403c4.377,0,8.376,1.878,11.182,4.897c-9.544,1.218-18.166,3.312-25.736,5.756  C307.807,61.886,313.587,57.403,320.398,57.403z"/>
<g>
</g>
<g>
</g>
<g>
</g>
<g>
</g>
<g>
</g>
<g>
</g>
<g>
</g>
<g>
</g>
<g>
</g>
<g>
</g>
<g>
</g>
<g>
</g>
<g>
</g>
<g>
</g>
<g>
</g>
</svg>
