<?xml version="1.0" encoding="iso-8859-1"?>
<!-- Generator: Adobe Illustrator 19.0.0, SVG Export Plug-In . SVG Version: 6.00 Build 0)  -->
<svg xmlns="http://www.w3.org/2000/svg" xmlns:xlink="http://www.w3.org/1999/xlink" version="1.1" id="Layer_1" x="0px" y="0px" viewBox="0 0 511.999 511.999" style="enable-background:new 0 0 511.999 511.999;" xml:space="preserve">
<g>
	<g>
		<path d="M490.924,297.567c-13.716-19.551-29.142-31.306-29.792-31.797c-3.378-2.551-8.154-2.052-10.932,1.141    c-2.778,3.193-2.612,7.991,0.38,10.985c13.798,13.798,20.664,31.236,19.333,49.104c-1.27,17.058-9.932,33.088-23.174,42.88    c-0.013,0.01-0.025,0.021-0.038,0.031c-0.066,0.049-0.133,0.095-0.197,0.146c-0.024,0.018-0.048,0.038-0.074,0.058l-0.052,0.04    c-7.866,5.709-20.889,11.829-38.337,8.663c-0.185-0.033-0.365-0.073-0.549-0.107c4.512-3.802,9.027-8.915,12.429-15.708    c8.296-16.569,7.451-37.599-2.511-62.505c-1.41-3.526-5.091-5.574-8.837-4.933c-3.743,0.639-6.533,3.822-6.693,7.617    c-0.009,0.183-0.917,18.368-13.332,28.305c-7.046,5.639-16.792,7.741-28.994,6.29c-12.987-39.207,3.479-91.551,3.677-92.17    c0.953-3.075,22.985-75.971-7.815-132.534c-14.971-27.492-39.803-46.26-73.81-55.782c-14.955-4.186-58.604-9.692-98.078,0.004    c-4.32,1.061-6.962,5.424-5.902,9.745c1.062,4.321,5.43,6.965,9.745,5.901c36.013-8.846,76.812-3.797,89.89-0.136    c29.63,8.298,51.151,24.415,63.968,47.906c23.705,43.452,11.681,100.512,7.735,116.013c-9.345,1.977-16.219-1.818-27.383-8.648    c-10.212-6.247-22.919-14.021-41.278-15.822c-25.957-2.544-45.662,12.87-60.043,24.127c-5.81,4.548-13.041,10.206-15.931,10.206    c-8.31,0-11.429-12.851-11.479-13.063c-0.982-4.321-5.273-7.044-9.603-6.078c-4.343,0.965-7.082,5.269-6.116,9.611    c0.14,0.628,1.467,6.31,5.018,12.12c5.329,8.72,13.205,13.522,22.179,13.522c8.446,0,16.131-6.015,25.861-13.631    c12.919-10.112,28.996-22.694,48.541-20.779c14.677,1.439,24.725,7.586,34.44,13.531c9.417,5.76,19.073,11.661,31.294,11.546    c-4.798,20.393-11.541,61.525,1.671,94.65c6.953,17.474,18.525,30.426,34.426,38.56c-23.345-3.468-50.779-17.185-78.809-52.232    c-12.506-17.939-33.606-27.301-55.183-24.446c-25.217,3.336-45.135,22.474-49.563,47.62c-0.727,4.13-1.6,8.179-2.588,12.088    c-28.866,22.969-54.716,34.445-77.039,34.229c0.681-0.303,1.361-0.599,2.041-0.93c14.189-6.907,22.779-21.476,25.53-43.296    c4.102-32.313-4.455-77.15-12.73-120.513c-5.106-26.759-9.93-52.034-11.515-72.822c-2.94-38.61,9.774-66.266,37.791-82.199    c3.868-2.2,5.22-7.117,3.02-10.985c-2.2-3.868-7.117-5.22-10.985-3.02c-15.691,8.923-27.592,21.039-35.374,36.01    c-8.794,16.918-12.332,37.582-10.518,61.419c1.654,21.692,6.56,47.4,11.754,74.618c7.636,40.012,15.51,81.308,13.044,110.872    c-12.233,4.674-33.437,9.812-47.69,3.516c-6.519-2.881-11.122-7.896-14.031-15.275c4.852-14.55,16.65-26.274,33.506-33.17    c3.289-1.346,5.307-4.686,4.968-8.223c-0.338-3.537-2.954-6.434-6.438-7.131c-0.749-0.149-15.142-2.928-33.098,0.145    c5.658-14.107,16.306-24.76,25.945-34.401c2.098-2.097,2.872-5.177,2.018-8.017c-0.854-2.84-3.2-4.982-6.106-5.574    c-1.396-0.284-34.485-6.724-58.397,14.613c-17.489,15.606-24.989,41.357-22.32,76.548c-11.713,23.752-10.179,51.997,4.252,76.051    c18.047,30.078,52.654,48.036,92.573,48.036c23.82,0,44.362-5.812,61.141-17.273c4.418,1.38,11.748,3.076,21.133,3.076    c12.207,0,27.876-2.87,45.079-13.035c11.541-6.822,19.914-18.235,25.035-34.004c10.036,13.031,26.508,29.932,47.024,34.556    c3.661,0.825,7.299,1.236,10.909,1.236c8.84,0,17.511-2.473,25.924-7.388c18.795,16.235,44.516,25.174,70.897,25.174    c8.859,0,17.796-1.009,26.565-3.086c4.329-1.026,7.006-5.366,5.981-9.696c-1.026-4.329-5.359-7.009-9.696-5.982    c-22.753,5.391-47.421,2.161-67.184-7.932c0.162-0.392,0.296-0.799,0.395-1.221c1.698-7.267-6.938-12.682-12.784-8.176    c-0.364,0.28-0.691,0.582-0.986,0.898c-2.337-1.831-4.556-3.78-6.628-5.852c-6.619-6.619-16.932-18.33-26.058-34.629    c26.917,21.023,52.213,26.795,71.835,26.794c2.299,0,4.522-0.08,6.657-0.222c30.749-2.054,52.189-17.265,56.146-20.274    l0.307-0.236c0.001,0,0.001-0.001,0.002-0.001c0.002-0.002,0.005-0.004,0.008-0.005c0.012-0.009,0.024-0.018,0.035-0.027    c0.014-0.011,0.029-0.025,0.044-0.035c16.91-12.548,27.963-32.938,29.575-54.569c0.187-2.508,0.247-5.009,0.186-7.494    c8.304,16.161,11.316,32.309,9.001,48.222c-2.634-2.697-7.055-3.622-10.569-1.014c-2.708,2.01-3.882,5.576-2.912,8.805    c1.006,3.351,4.203,5.723,7.706,5.723c0.936,0,1.843-0.17,2.693-0.478c-6.111,18.986-18.319,33.918-35.656,43.421    c-3.902,2.139-5.331,7.034-3.193,10.937c1.465,2.673,4.224,4.186,7.072,4.186c1.308,0,2.636-0.32,3.865-0.994    c23.46-12.858,39.189-33.809,45.489-60.589C515.959,352.149,509.48,324.018,490.924,297.567z M75.243,371.236    c7.118,3.145,14.894,4.314,22.52,4.314c10.385,0,20.487-2.168,28.276-4.461c-2.884,8.565-7.405,14.278-13.665,17.325    c-16.43,8.002-31.576,4.592-40.518-9.121c-2.602-3.992-4.437-8.539-5.497-13.35C69.038,368.035,71.999,369.803,75.243,371.236z     M28.447,290.192c1.367,1.346,3.229,2.223,5.456,2.223c3.805,0,7.147-2.771,7.895-6.488c0.65-3.231-0.818-6.611-3.592-8.375    c-0.684-0.436-1.427-0.742-2.193-0.946c1.458-1.824,3.035-3.504,4.741-5.035c8.593-7.716,19.217-10.541,27.933-11.393    c-8.799,10.064-16.961,22.185-20.446,37.867c-9.382,3.8-17.591,9.134-24.576,15.954C24.271,304.961,25.863,297.012,28.447,290.192    z M159.663,427.387c-8.664,6.56-18.744,11.178-30.112,13.855c-2.334-3.83-7.837-5.529-11.918-2.336    c-1.499,1.173-2.466,2.847-2.851,4.651c-3.302,0.279-6.682,0.435-10.16,0.435c-8.375,0-16.461-0.906-24.123-2.637    c2.344-1.047,4.15-3.19,4.683-5.793c1.489-7.27-7.308-12.461-13.011-7.799c-2.654,2.17-3.637,5.925-2.4,9.12    c0.244,0.628,0.581,1.204,0.965,1.741c-19.244-6.462-35.073-18.517-44.87-34.846c-11.932-19.886-12.96-43.188-2.75-62.332    c7.774-14.577,19.477-24.612,34.787-29.83c4.278-1.462,8.521-2.436,12.541-3.066c-9.206,8.481-15.713,18.911-18.979,30.716    l0.003,0.001c-0.001,0.003-0.002,0.006-0.003,0.01c-4.604,16.646-2.113,34.696,6.643,48.406    c0.704,1.237,14.641,25.07,45.706,30.959c4.604,0.873,9.314,1.308,14.132,1.308c20.401,0,42.697-7.823,66.621-23.351    C178.137,409.394,169.812,419.707,159.663,427.387z M329.017,415.3c-7.049,3.251-14.114,4.048-21.402,2.414    c-22.988-5.156-41.115-32.548-45.947-40.49c0.626-4.976,1.032-10.189,1.179-15.566c0.122-4.447-3.383-8.151-7.831-8.274    c-4.433-0.12-8.153,3.383-8.275,7.831c-0.159,5.783-0.626,11.347-1.391,16.549c-3.008,20.68-10.266,34.555-21.571,41.237    c-17.357,10.257-32.465,11.522-42.58,10.573c12.713-13.52,22.124-31.255,28.035-52.959c0.029-0.096,0.065-0.187,0.092-0.284    c1.388-5.135,2.583-10.526,3.551-16.023c3.203-18.191,17.593-32.032,35.809-34.441c15.668-2.072,31.002,4.797,40.033,17.94    c2.294,3.328,4.109,6.991,5.393,10.887C303.163,382.21,317.954,402.728,329.017,415.3z M404.95,356.863    c-2.467-2.175-6.182-2.942-9.441-1.004c-3.145,1.869-4.605,5.755-3.566,9.245c0.414,1.391,1.222,2.596,2.259,3.549    c-2.463,1.693-4.741,2.823-6.393,3.523c-8.262-4.262-15.025-10.235-20.223-17.851c12.32-0.142,22.769-3.597,31.168-10.373    c4.407-3.555,7.806-7.694,10.425-11.936c0.886,9.054-0.299,16.933-3.561,23.564C405.401,356.019,405.178,356.445,404.95,356.863z"/>
	</g>
</g>
<g>
	<g>
		<path d="M31.899,365.664c-2.822-1.516-6.39-1.157-8.874,0.852c-5.773,4.669-2.329,14.309,5.079,14.309    c3.828,0,7.202-2.816,7.912-6.566C36.665,370.836,34.964,367.31,31.899,365.664z"/>
	</g>
</g>
<g>
	<g>
		<path d="M40.596,400.48c-5.549,4.758-2.097,14.18,5.231,14.18c3.803,0,7.147-2.773,7.895-6.488    C55.197,400.848,46.272,395.613,40.596,400.48z"/>
	</g>
</g>
<g>
	<g>
		<path d="M451.321,402.175c-5.445,4.812-1.902,14.097,5.333,14.097c3.956,0,7.371-2.985,7.965-6.876    C465.73,402.108,456.795,397.336,451.321,402.175z"/>
	</g>
</g>
<g>
	<g>
		<path d="M406.432,416.485c-5.73,4.681-2.291,14.287,5.109,14.287c3.709,0,7.002-2.646,7.843-6.243    C421.101,417.194,412.251,411.731,406.432,416.485z"/>
	</g>
</g>
<g>
	<g>
		<path d="M227.512,385.401c-3.046-2.008-7.162-1.731-9.878,0.729c-5.346,4.845-1.801,14.029,5.409,14.029    c3.77,0,7.1-2.73,7.881-6.404C231.6,390.583,230.225,387.187,227.512,385.401z"/>
	</g>
</g>
<g>
	<g>
		<path d="M235.404,343.407c-2.939-1.865-6.892-1.582-9.534,0.683c-5.552,4.76-2.092,14.18,5.231,14.18    c3.791,0,7.159-2.763,7.905-6.477C239.656,348.556,238.179,345.168,235.404,343.407z"/>
	</g>
</g>
<g>
	<g>
		<path d="M277.544,366.545c-2.54,2.093-3.567,5.617-2.534,8.746c1.075,3.26,4.209,5.534,7.649,5.534    c3.814,0,7.134-2.772,7.896-6.488C292.039,367.082,283.237,361.851,277.544,366.545z"/>
	</g>
</g>
<g>
	<g>
		<path d="M249.437,183.469l-3.995-18.378c-0.946-4.347-5.236-7.105-9.584-6.16c-4.347,0.945-7.105,5.235-6.16,9.583l3.995,18.378    c0.821,3.771,4.157,6.346,7.865,6.346c0.567,0,1.143-0.06,1.72-0.186C247.624,192.107,250.382,187.817,249.437,183.469z"/>
	</g>
</g>
<g>
	<g>
		<path d="M301.238,157.011c-4.444-0.2-8.211,3.238-8.414,7.682l-0.962,21.168c-0.202,4.445,3.237,8.212,7.681,8.414    c0.125,0.005,0.248,0.009,0.373,0.009c4.28,0,7.845-3.371,8.041-7.691l0.962-21.168    C309.121,160.98,305.682,157.213,301.238,157.011z"/>
	</g>
</g>
<g>
	<g>
		<path d="M249.214,137.686c-4.895-1.522-9.165-4.083-12.694-7.61c-7.162-7.162-14.526-10.107-21.893-8.758    c-11.085,2.033-16.362,13.115-16.928,14.373c-1.825,4.058-0.029,8.858,4.028,10.683c4.057,1.824,8.812,0.046,10.637-4.011    c0.693-1.467,2.962-4.813,5.193-5.202c1.774-0.308,4.526,1.264,7.569,4.307c5.394,5.394,11.888,9.298,19.303,11.603    c0.797,0.247,1.602,0.365,2.394,0.365c3.435,0,6.618-2.214,7.692-5.666C255.836,143.52,253.463,139.006,249.214,137.686z"/>
	</g>
</g>
<g>
	<g>
		<path d="M329.828,131.394c-0.565-1.257-5.842-12.339-16.927-14.373c-7.366-1.353-14.733,1.596-21.895,8.758    c-3.527,3.527-7.798,6.088-12.693,7.61c-4.248,1.32-6.622,5.836-5.302,10.084c1.073,3.452,4.256,5.667,7.691,5.666    c0.792,0,1.597-0.118,2.394-0.365c7.415-2.305,13.91-6.209,19.304-11.603c3.042-3.043,5.8-4.614,7.568-4.307    c2.227,0.387,4.492,3.72,5.189,5.192c1.844,4.02,6.588,5.806,10.627,3.988C329.842,140.22,331.653,135.452,329.828,131.394z"/>
	</g>
</g>
<g>
</g>
<g>
</g>
<g>
</g>
<g>
</g>
<g>
</g>
<g>
</g>
<g>
</g>
<g>
</g>
<g>
</g>
<g>
</g>
<g>
</g>
<g>
</g>
<g>
</g>
<g>
</g>
<g>
</g>
</svg>
