<?xml version="1.0" encoding="iso-8859-1"?>
<!-- Generator: Adobe Illustrator 19.0.0, SVG Export Plug-In . SVG Version: 6.00 Build 0)  -->
<svg xmlns="http://www.w3.org/2000/svg" xmlns:xlink="http://www.w3.org/1999/xlink" version="1.1" id="Layer_1" x="0px" y="0px" viewBox="0 0 512.005 512.005" style="enable-background:new 0 0 512.005 512.005;" xml:space="preserve">
<g>
	<g>
		<path d="M320.84,125.604c-4.605,0-8.336,3.732-8.336,8.336v20.005c0,4.604,3.731,8.336,8.336,8.336    c4.605,0,8.336-3.732,8.336-8.336V133.94C329.176,129.336,325.445,125.604,320.84,125.604z"/>
	</g>
</g>
<g>
	<g>
		<path d="M377.52,125.604c-4.605,0-8.336,3.732-8.336,8.336v20.005c0,4.604,3.731,8.336,8.336,8.336    c4.605,0,8.336-3.732,8.336-8.336V133.94C385.856,129.336,382.125,125.604,377.52,125.604z"/>
	</g>
</g>
<g>
	<g>
		<path d="M379.063,180.244H318.3c-4.605,0-8.336,3.732-8.336,8.336c0,7.007,1.889,13.865,5.452,19.811    c6.941,11.665,19.686,18.911,33.26,18.911c13.567,0,26.315-7.243,33.259-18.89c3.574-5.966,5.464-12.825,5.464-19.833    C387.399,183.976,383.668,180.244,379.063,180.244z M367.626,199.86c-4.022,6.744-11.106,10.771-18.949,10.771    c-7.846,0-14.922-4.023-18.946-10.785c-0.562-0.939-1.051-1.919-1.464-2.93h40.83C368.683,197.93,368.192,198.914,367.626,199.86z    "/>
	</g>
</g>
<g>
	<g>
		<path d="M465.1,176.391c-3.938-3.94-10.842-3.111-13.537,2.486c-1.513,3.14-0.68,6.865,1.781,9.334    c4.346,4.36,5.891,9.047,6.191,13.081l-1.867-1.268c-3.777-2.565-9.047-1.892-11.724,1.807c-2.77,3.827-1.812,9.155,2.067,11.788    l5.651,3.837c-22.344,28.909-63.56,37.296-84.954,39.724c29.522-14.984,46.534-49.091,47.283-95.432    c5.066-6.327,8.623-15.301,10.584-26.748c1.44-8.401,1.533-15.435,1.536-16.902c0.144-2.886,0.956-25.761-7.838-50.707    c-12.493-35.444-38.257-57.853-74.506-64.805c-30.047-5.762-59.13-1.882-86.448,11.536c-4.126,2.026-6.166,6.975-4.235,11.147    c1.977,4.271,7.071,6.05,11.262,3.977c24.088-11.911,49.75-15.372,76.279-10.284c0.019,0.003,0.038,0.007,0.056,0.011    c3.691,0.71,6.887,3.023,8.787,6.265c8.975,15.305,5.538,26.997,4.395,29.98c-2.196,2.543-10.65,11.699-26.202,21.292    c-16.811,10.368-45.593,23.365-87.235,26.405c-6.081,0.436-12.492,0.66-19.057,0.668c-4.547,0.004-8.507,3.518-8.653,8.062    c-0.151,4.729,3.637,8.61,8.331,8.61c2.247,0,4.471-0.033,6.683-0.081c-1.138,2.968-2.148,5.981-3.016,9.038    c-0.722-0.073-1.449-0.11-2.177-0.11c-14.777,0-26.352,14.402-26.352,32.788s11.576,32.788,26.352,32.788    c1.42,0,2.825-0.138,4.206-0.408c0.98,2.781,2.087,5.511,3.291,8.191c-5.316,6.266-10.872,11.876-16.592,16.778    c-17.261-11.81-29.199-25.582-35.603-41.053l6.96-4.725c3.508-2.382,4.923-7.024,3.001-10.803    c-2.325-4.569-8.027-5.935-12.13-3.15l-2.156,1.464c0.299-4.046,1.853-8.742,6.216-13.107c2.342-2.343,3.231-5.848,1.933-8.897    c-1.42-3.334-4.266-5.087-7.203-5.306c3.552-7.981,7.002-15.524,10.599-22.267c8.84-16.576,28.254-47.658,59.064-69.898    c3.678-2.654,4.836-7.806,2.314-11.576c-2.634-3.939-7.984-4.881-11.798-2.14c-33.697,24.223-54.744,57.868-64.29,75.766    c-4.704,8.817-9.014,18.558-13.576,28.871c-4.412,9.972-8.958,20.229-14.009,29.921c-25.129-2.63-58.394-1.021-84.632,18.275    c-17.483,12.857-23.518,27.619-23.767,28.242l0.002,0.001c-1.287,3.221-0.453,6.974,2.22,9.336    c0.782,0.691,19.486,17.077,47.673,29.632c21.007,9.357,41.725,14.051,61.482,14.051c13.476,0,26.503-2.194,38.868-6.572    c12.546,19.143,29.082,33.976,49.32,44.181c-2.885,11.383-6.403,23.717-10.489,36.768c-5.868,18.77-11.48,34.415-14.158,41.688    h-24.646c-17.742,0-32.753,12.317-36.68,29.01c-21.423-11.228-20.648-25.714-17.834-36.156    c8.476-31.478,0.857-61.491-22.033-86.79c-16.861-18.636-36.025-28.068-36.833-28.461c-3.601-1.749-7.939-0.692-10.329,2.518    c-2.392,3.211-2.163,7.669,0.545,10.618c0.46,0.501,45.695,50.631,19.928,98.202c-8.159,15.063-9.855,30.365-5.043,45.479    c8.404,26.391,34.651,44.66,47.14,52.093c-0.118,0.437-0.246,0.871-0.347,1.313c-0.656,2.794-0.988,5.675-0.988,8.56    c0,10.053,3.916,19.514,11.04,26.651c7.124,7.111,16.589,11.028,26.65,11.028h227.411c17.631,0,32.721-11.982,36.693-29.121    c0.655-2.795,0.986-5.674,0.986-8.557c0-10.06-3.916-19.524-11.033-26.656c-5.648-5.648-12.778-9.273-20.514-10.53    c3.842-5.503,6.263-12.08,6.692-19.22c0.001-0.013,0.002-0.026,0.002-0.039c0.041-0.74,0.069-1.495,0.069-2.25    c0-10.053-3.916-19.514-11.033-26.645c-6.54-6.54-15.058-10.372-24.203-10.957c-1.801-6.046-3.298-12.521-4.462-19.329    c-1.886-11.051-2.919-23.11-3.103-35.945c22.776-3.161,43.271-11.65,61.004-25.326c3.375-2.603,4.492-7.364,2.303-11.021    c-2.622-4.378-8.374-5.365-12.279-2.338c-13.508,10.468-28.912,17.463-45.925,20.913c1.23-2.829,2.017-5.85,2.298-8.954    c0.749-8.34-1.736-13.87-4.929-17.497c0.162-1.328,0.318-2.653,0.494-3.978c14.642-0.957,48.437-5.062,77.071-22.621    c-3.435,5.337-7.448,10.814-12.106,16.14c-3.026,3.461-2.963,8.812,0.436,11.907c1.602,1.458,3.61,2.174,5.611,2.174    c2.314,0,4.616-0.958,6.264-2.832c23.376-26.594,32.185-56.215,33.572-61.289C475.061,213.539,482.125,193.414,465.1,176.391z     M56.436,207.43c8.578-11.607,30.748-32.1,79.067-29.147c-8.862,13.485-18.061,22.416-28.436,27.689    C93.024,213.108,76.388,213.595,56.436,207.43z M93.463,232.777c-3.253-1.439-6.377-2.941-9.353-4.466    c38.477-0.961,59.416-29.089,72.613-52.994c0.975-1.764,1.922-3.547,2.854-5.337c0.562,2.888,1.324,5.214,1.897,6.72    c0.267,7.111,2.244,34.823,16.691,63.869C152.402,248.869,123.959,246.266,93.463,232.777z M404.382,72.454    c4.377,12.234,6.102,24.108,6.757,32.573c-10.422-6.023-26.474-19.015-39.078-45.724c1.737-5.517,3.729-16.13-0.317-29.284    C386.665,39.316,397.6,53.498,404.382,72.454z M240.602,217.946c4.627,6.957,10.035,13.331,16.187,19.057    c-0.24,0.198-0.471,0.353-0.666,0.47c-0.804,0.479-2.459,1.169-4.506,0.393c-5.523-2.088-13.074-5.265-21.239-9.61    C233.861,225.046,237.272,221.605,240.602,217.946z M197.224,240.821c-4.749-8.121-8.32-16.363-11.004-24.137    c7.144,7.181,15.6,13.841,25.341,19.945c12.952,8.134,25.725,13.642,34.154,16.828c6.27,2.379,13.173,1.774,18.938-1.659    c1.999-1.19,3.759-2.669,5.25-4.362c17.632,11.892,38.57,18.367,59.991,18.367c5.922,0,11.615-0.503,17.055-1.47    c-0.047,0.303-0.094,0.6-0.142,0.912c-0.276,1.804-0.522,3.632-0.774,5.456c-1.214-0.203-2.471-0.376-3.803-0.498    c-15.986-1.43-27.443,3.884-31.517,14.125l-6.624,1.18c-2.227-7.047-8.385-13.933-23.544-15.305    c-17.248-1.544-29.23,4.765-32.346,16.643C226.544,277.105,209.392,261.632,197.224,240.821z M273.696,322.209    c0.857,0.077,1.711,0.116,2.563,0.116c9.239,0,18.081-4.476,23.527-12.056c0.003-0.004,0.007-0.009,0.01-0.013    c1.697-2.372,3.005-4.989,3.916-7.745l6.479-1.154c3.196,11.152,12.969,19.759,25.185,20.852c0.891,0.081,1.778,0.121,2.662,0.121    c1.564,0,3.11-0.138,4.631-0.386c0.079,7.269,0.427,14.318,1.024,21.126l-11.643-7.742c-10.146-6.74-23.634-6.533-33.569,0.515    l-12.847,9.128c-3.687,2.61-8.374,3.126-12.531,1.384l-29.515-12.386c2.793-9.216,5.3-18.062,7.489-26.445    C255.585,315.565,263.846,321.327,273.696,322.209z M264.108,292.339c0.43-4.763,6.581-5.696,11.33-5.696    c1.38,0,2.643,0.079,3.612,0.166c10.029,0.907,9.76,3.917,9.421,7.717c-0.2,2.206-0.949,4.231-2.228,6.021    c-2.562,3.56-6.704,5.452-11.054,5.057C268.477,305.002,263.507,299.048,264.108,292.339z M336.873,305.604    c-6.71-0.6-11.68-6.554-11.08-13.265c0.43-4.764,6.583-5.696,11.329-5.696c1.377,0,2.639,0.079,3.604,0.164    c4.474,0.41,6.681,1.325,7.763,2.033c0.719,0.468,2.056,1.337,1.666,5.685c-0.2,2.208-0.951,4.237-2.217,6.005    c-0.63,0.876-1.33,1.628-2.08,2.236c-0.029,0.023-0.059,0.048-0.088,0.072C343.281,304.917,340.117,305.901,336.873,305.604z     M238.575,349.946l28.077,11.782c9.504,3.981,20.199,2.803,28.623-3.161l12.853-9.133c4.348-3.084,10.253-3.172,14.691-0.224    l23.853,15.862c0.839,4.425,1.817,8.716,2.916,12.863H229.023C231.477,371.101,234.891,361.32,238.575,349.946z M133.338,449.687    c-10.824-6.565-32.596-21.911-39.107-42.438c-3.413-10.763-2.16-21.372,3.831-32.433c12.319-22.742,13.22-48.969,2.683-76.144    c16.784,20.323,21.927,43.108,15.281,67.783c-4.08,15.142-1.875,28.407,6.555,39.426c6.057,7.918,15.36,14.478,27.672,19.544    c1.13,4.182,2.985,8.159,5.466,11.726C146.977,438.58,139.075,443.027,133.338,449.687z M404.116,459.445    c3.451,3.459,5.551,7.904,6.041,12.693c-7.083-0.93-11.602-3.031-16.635-5.377c-7.489-3.49-15.978-7.446-32.13-7.446    c-4.605,0-8.336,3.732-8.336,8.336c0,4.604,3.731,8.336,8.336,8.336c12.458,0,18.312,2.727,25.089,5.885    c5.048,2.352,10.559,4.919,18.568,6.341c-3.874,4.414-9.538,7.113-15.782,7.113H161.855c-5.614,0-10.896-2.186-14.861-6.144    c-3.45-3.457-5.548-7.897-6.041-12.68c7.089,0.93,11.611,3.032,16.647,5.378c7.49,3.489,15.979,7.444,32.13,7.444    c1.949,0,3.872-0.058,5.735-0.172c12.516-0.805,19.889-4.241,26.392-7.274c6.78-3.161,12.634-5.891,25.101-5.891    c12.456,0,18.309,2.729,25.085,5.888c7.489,3.492,15.979,7.449,32.131,7.449s24.641-3.958,32.131-7.449    c1.748-0.815,3.401-1.585,5.122-2.293c4.257-1.752,6.289-6.623,4.537-10.881c-1.751-4.257-6.619-6.29-10.88-4.538    c-2.075,0.854-3.981,1.743-5.823,2.601c-6.778,3.16-12.629,5.888-25.086,5.888c-12.457,0-18.31-2.729-25.086-5.888    c-7.489-3.492-15.978-7.449-32.13-7.449c-16.163,0-24.655,3.959-32.146,7.452c-5.92,2.76-11.032,5.144-20.395,5.745    c-1.503,0.092-3.08,0.14-4.688,0.14c-12.457,0-18.312-2.727-25.089-5.885c-5.045-2.351-10.552-4.915-18.55-6.336    c3.933-4.478,9.628-7.129,15.764-7.129h24.785H364.47h24.796C394.881,453.302,400.157,455.486,404.116,459.445z M364.471,394.607    c5.615,0,10.894,2.188,14.861,6.155c0.801,0.804,1.509,1.673,2.163,2.574c-5.229-1.548-11.598-2.65-20.103-2.65    c-16.151,0-24.642,3.958-32.131,7.449c-6.778,3.16-12.629,5.888-25.086,5.888c-12.457,0-18.284-2.717-25.033-5.864    c-4.17-1.945-9.13-0.14-11.078,4.032c-1.945,4.172-0.14,9.133,4.033,11.078c7.464,3.48,15.926,7.424,32.077,7.424    s24.642-3.958,32.131-7.449c6.778-3.16,12.629-5.888,25.086-5.888c11.166,0,17.029,2.192,22.999,4.921    c-2.796,8.365-10.699,14.351-19.92,14.351H186.64c-5.614,0-10.89-2.184-14.856-6.15c-0.749-0.749-1.429-1.558-2.053-2.405    c5.209,1.533,11.551,2.62,19.999,2.62c12.644,0,20.381-2.461,25.697-4.599c2.321-0.93,4.42-1.908,6.451-2.854    c6.774-3.158,12.625-5.884,25.081-5.884c4.605,0,8.336-3.732,8.336-8.336c0-4.604-3.731-8.336-8.336-8.336    c-16.15,0-24.636,3.955-32.123,7.444c-1.911,0.89-3.714,1.731-5.622,2.495c-4.177,1.68-9.757,3.399-19.484,3.399    c-11.196,0-17.06-2.206-23.05-4.947c2.762-8.43,10.684-14.47,19.959-14.47H364.471z M354.642,245.142    c-7.377,2.647-15.702,3.989-24.75,3.989c-21.031,0-41.52-7.369-57.693-20.748c-9.568-7.919-17.287-17.516-22.94-28.529    c-3.11-6.055-5.535-12.504-7.211-19.166c-0.699-2.78-2.779-5.006-5.505-5.893c-2.725-0.888-5.717-0.311-7.918,1.525    c-1.335,1.114-2.71,1.678-4.087,1.678c-4.579,0-9.681-6.619-9.681-16.116s5.102-16.116,9.681-16.116    c1.147,0,2.3,0.395,3.424,1.174c2.322,1.607,5.298,1.929,7.911,0.858c2.612-1.073,4.504-3.394,5.025-6.169    c1.469-7.798,3.972-15.341,7.436-22.491c61.601-5.618,97.221-31.135,112.464-45.162c10.072,18.627,21.751,30.771,31.911,38.607    l1.857,7.34c0.014,0.057,0.029,0.112,0.044,0.168c3.15,11.45,4.747,24.388,4.747,38.457    C399.358,219.921,371.341,239.146,354.642,245.142z"/>
	</g>
</g>
<g>
</g>
<g>
</g>
<g>
</g>
<g>
</g>
<g>
</g>
<g>
</g>
<g>
</g>
<g>
</g>
<g>
</g>
<g>
</g>
<g>
</g>
<g>
</g>
<g>
</g>
<g>
</g>
<g>
</g>
</svg>
