<?xml version="1.0" encoding="iso-8859-1"?>
<!-- Generator: Adobe Illustrator 19.0.0, SVG Export Plug-In . SVG Version: 6.00 Build 0)  -->
<svg xmlns="http://www.w3.org/2000/svg" xmlns:xlink="http://www.w3.org/1999/xlink" version="1.1" id="Layer_1" x="0px" y="0px" viewBox="0 0 511.999 511.999" style="enable-background:new 0 0 511.999 511.999;" xml:space="preserve">
<g>
	<g>
		<path d="M445.956,158.739c0-41.182-18.755-80.204-52.81-109.878c-3.462-3.018-8.717-2.657-11.733,0.806    c-3.018,3.463-2.657,8.716,0.807,11.734c30.376,26.468,47.103,61.037,47.103,97.338c0,34.911-14.699,55.679-47.658,67.339    c-32.362,11.449-77.909,12.397-125.666,12.397c-61.924,0-119.987-1.919-149.931-25.106c-3.633-2.812-8.854-2.148-11.667,1.484    c-2.812,3.631-2.148,8.855,1.484,11.667c12.744,9.868,28.894,16.349,47.634,20.6l-14.302,22.576    c-1.772,2.798-1.715,6.38,0.144,9.121c1.858,2.739,5.164,4.115,8.423,3.502l33.434-6.306l-12.985,42.263    c-1.032,3.362,0.161,7.009,2.979,9.11c2.82,2.102,6.656,2.203,9.583,0.253l1.702-1.134c-1.769,27.863-4.364,52.17-7.744,72.404    c-0.757,4.53,2.302,8.816,6.833,9.573c0.464,0.078,0.925,0.115,1.38,0.115c3.991,0,7.514-2.881,8.193-6.947    c3.976-23.8,6.889-52.96,8.67-86.699l40.953-27.302l18.565,24.754c1.571,2.095,4.035,3.327,6.653,3.327s5.082-1.232,6.653-3.327    l18.567-24.754l40.957,27.304c0.727,13.661,1.633,26.6,2.714,38.62c-0.816-0.084-1.631-0.143-2.446-0.143    c-14.248,0-25.609,6.177-32.069,10.753c-6.46-4.574-17.823-10.753-32.07-10.753c-10.425,0-20.946,7.178-32.085,14.775    c-8.843,6.032-19.628,13.396-24.691,11.857c-1.495-1.006-2.345-1.626-2.412-1.674c-3.498-2.593-8.405-2.049-11.25,1.25    c-2.844,3.299-2.662,8.232,0.417,11.311c1.956,1.956,4.007,3.383,6.13,4.361c6.437,4.185,18.247,11.183,32.164,16.25    c25.822,9.4,47.685,8.035,63.782-3.863c9.863,7.352,20.988,10.124,32.167,10.123c3.737,0,7.478-0.319,11.179-0.872    c0.762,3.653,1.554,7.172,2.374,10.489c4.261,17.214-2.054,35.111-16.091,45.597l-2.59,1.937    c-17.872,13.342-39.105,20.395-61.402,20.395c-22.297,0-43.529-7.052-61.395-20.391l-2.598-1.944    c-14.034-10.483-20.35-28.381-16.088-45.595c1.103-4.459-1.617-8.967-6.074-10.072c-4.46-1.104-8.967,1.616-10.072,6.074    c-5.872,23.724,2.873,48.42,22.275,62.914l2.6,1.945c20.768,15.504,45.441,23.699,71.351,23.699    c25.912,0,50.584-8.195,71.356-23.703l2.593-1.939c19.407-14.497,28.152-39.193,22.279-62.916    c-0.807-3.262-1.586-6.743-2.336-10.364c15.843-5.126,29.451-13.179,36.528-17.805c2.091-0.977,4.116-2.392,6.045-4.321    c3.077-3.077,3.258-8.006,0.419-11.304c-2.841-3.3-7.745-3.848-11.247-1.262c-0.067,0.049-0.919,0.671-2.418,1.679    c-5.063,1.527-15.848-5.825-24.69-11.857c-4.177-2.85-8.269-5.641-12.299-8.016c-1.048-10.473-1.958-21.739-2.72-33.681    l1.695,1.131c1.399,0.932,3.006,1.396,4.612,1.396c1.751,0,3.498-0.552,4.97-1.649c2.819-2.101,4.012-5.749,2.979-9.11    l-12.986-42.263l33.434,6.306c3.253,0.61,6.562-0.763,8.423-3.502c1.86-2.741,1.916-6.324,0.144-9.121l-14.316-22.598    c6.567-1.49,12.837-3.249,18.747-5.34C426.741,227.775,445.956,200.619,445.956,158.739z M345.154,381.947    c4.588,3.129,9.52,6.493,14.553,9.25c-19.031,9.1-46.168,16.94-63.452-0.345c-1.56-1.56-3.675-2.436-5.881-2.436    s-4.32,0.876-5.881,2.436c-17.286,17.287-44.423,9.445-63.453,0.345c5.033-2.757,9.965-6.121,14.553-9.25    c8.164-5.57,17.419-11.882,22.711-11.882c15.104,0,26.11,10.606,26.19,10.684c3.221,3.225,8.473,3.219,11.731,0.03    c0.11-0.107,11.114-10.714,26.219-10.714C327.735,370.065,336.989,376.378,345.154,381.947z M330.325,257.117    c-2.861-0.539-5.799,0.459-7.74,2.629c-1.942,2.171-2.606,5.201-1.75,7.986l10.179,33.129L283.9,269.447    c-3.673-2.448-8.619-1.601-11.266,1.929l-16.633,22.177l-16.633-22.177c-2.648-3.531-7.593-4.378-11.267-1.929l-47.115,31.415    l10.179-33.129c0.856-2.785,0.192-5.815-1.75-7.986c-1.942-2.172-4.877-3.17-7.741-2.629l-28.16,5.311l7.633-12.048    c27.871,4.149,60.188,4.728,94.854,4.728c33.707,0,66.401-0.48,94.852-4.732l7.631,12.051L330.325,257.117z"/>
	</g>
</g>
<g>
	<g>
		<path d="M373.488,33.96C339.729,11.743,299.102,0,255.999,0c-50.451,0-97.948,16.326-133.743,45.97    c-36.249,30.02-56.213,70.068-56.213,112.77c0,18.987,4.097,35.239,12.179,48.307c1.573,2.544,4.296,3.943,7.081,3.943    c1.492,0,3.003-0.401,4.367-1.244c3.906-2.416,5.114-7.541,2.699-11.448c-6.522-10.546-9.693-23.487-9.693-39.559    c0-78.357,77.753-142.106,173.323-142.106c39.844,0,77.309,10.796,108.346,31.221c3.837,2.523,8.994,1.461,11.519-2.375    C378.388,41.642,377.325,36.485,373.488,33.96z"/>
	</g>
</g>
<g>
	<g>
		<path d="M269.306,319.057c-4.594,0-8.316,3.724-8.316,8.316v14.415c0,4.593,3.722,8.316,8.316,8.316s8.316-3.724,8.316-8.316    v-14.415C277.623,322.78,273.9,319.057,269.306,319.057z"/>
	</g>
</g>
<g>
	<g>
		<path d="M297.027,319.057c-4.594,0-8.316,3.724-8.316,8.316v14.415c0,4.593,3.722,8.316,8.316,8.316    c4.594,0,8.316-3.724,8.316-8.316v-14.415C305.344,322.78,301.621,319.057,297.027,319.057z"/>
	</g>
</g>
<g>
</g>
<g>
</g>
<g>
</g>
<g>
</g>
<g>
</g>
<g>
</g>
<g>
</g>
<g>
</g>
<g>
</g>
<g>
</g>
<g>
</g>
<g>
</g>
<g>
</g>
<g>
</g>
<g>
</g>
</svg>
