<?xml version="1.0" encoding="iso-8859-1"?>
<!-- Generator: Adobe Illustrator 19.0.0, SVG Export Plug-In . SVG Version: 6.00 Build 0)  -->
<svg xmlns="http://www.w3.org/2000/svg" xmlns:xlink="http://www.w3.org/1999/xlink" version="1.1" id="Layer_1" x="0px" y="0px" viewBox="0 0 512 512" style="enable-background:new 0 0 512 512;" xml:space="preserve">
<g>
	<g>
		<path d="M508.301,184.638c-1.023-4.401-5.425-7.139-9.824-6.116c-4.401,1.023-7.14,5.422-6.115,9.824    c2.171,9.336,3.272,18.98,3.272,28.663c0,52.755-21.414,97.095-63.647,131.789c-27.37,22.483-55.162,33.493-62.782,36.256    c-7.625-1.915-35.136-9.866-62.208-30.556c-42.015-32.109-63.318-78.369-63.318-137.49c0-49.253,28.944-93.892,73.048-114.346    c0.543,6.303,3.591,12.149,8.507,16.21c4.293,3.547,9.654,5.448,15.141,5.448c1.295,0,2.598-0.106,3.894-0.321    c12.125-2.011,20.646-12.751,19.818-24.982c-0.181-2.671-0.436-5.265-0.728-7.824c4.191-0.204,8.399-0.204,12.589,0    c-0.291,2.558-0.547,5.153-0.728,7.824c-0.829,12.231,7.692,22.971,19.818,24.982c1.297,0.215,2.599,0.321,3.894,0.321    c5.487,0,10.848-1.901,15.143-5.449c4.916-4.063,7.964-9.91,8.505-16.215c28.488,13.213,51.286,36.774,63.441,65.994    c1.308,3.145,4.352,5.042,7.559,5.042c1.047,0,2.113-0.203,3.14-0.63c4.172-1.736,6.148-6.526,4.412-10.699    c-3.33-8.003-7.368-15.63-12.03-22.807c5.272-7.299,8.125-16.039,8.125-25.219c0-23.812-19.373-43.186-43.185-43.186    c-11.128,0-21.656,4.282-29.586,11.742c1.532-8.691,4.249-18.007,8.943-26.487c9.331-16.856,24.652-26.784,45.538-29.508    c3.921-0.512,6.915-3.752,7.115-7.702c0.2-3.948-2.453-7.475-6.302-8.379c-1.613-0.379-39.847-9.015-70.176,13.391    c-15.357,11.347-25.698,28.359-30.889,50.741c-6.003-0.372-12.054-0.372-18.061,0c-5.19-22.382-15.531-39.395-30.889-50.742    c-30.329-22.401-68.563-13.765-70.176-13.387c-3.849,0.904-6.502,4.431-6.302,8.379c0.2,3.95,3.194,7.19,7.115,7.702    c20.887,2.724,36.208,12.653,45.538,29.508c4.695,8.482,7.41,17.796,8.942,26.488c-7.93-7.461-18.454-11.744-29.576-11.744    c-23.819,0-43.198,19.373-43.198,43.186c0,9.211,2.872,17.98,8.178,25.295c-14.404,22.228-22.664,48.492-22.917,76.075    c-3.145,10.312-32.671,102.399-96.109,149.143c-1.231,0.907-2.432,1.828-3.621,2.755c-9.031-5.642-15.758-13.222-20.023-22.602    c-6.454-14.195,6.402-30.389,28.344-55.373c6.496-7.397,13.214-15.048,19.523-23.16c2.773-3.568,2.131-8.709-1.437-11.483    c-3.566-2.773-8.708-2.131-11.482,1.437c-6.008,7.727-12.562,15.19-18.9,22.408c-21.723,24.736-42.241,48.1-30.943,72.945    c4.962,10.916,12.395,19.945,22.151,26.966c-9.055,8.867-16.477,18.523-22.241,28.926c-5.41-3.607-13.108-9.504-20.016-17.616    c-15.685-18.417-20.209-39.411-13.448-62.398c6.85-23.285,25.682-45.245,43.895-66.482c14.29-16.662,27.788-32.402,34.652-48.002    c8.432-19.162,5.5-36.085-8.714-50.299c-16.942-16.942-34.574-10.17-47.448-5.226c-3.955,1.519-7.691,2.953-10.877,3.543    c-10.098,1.862-15.96-4.634-17.923-10.763c-1.918-5.992-0.872-13.841,7.872-17.924c0.219-0.105,0.447-0.201,0.673-0.298    c0.022,0.067,0.031,0.135,0.053,0.202c1.135,3.215,4.293,5.43,7.702,5.43c3.788,0,7.143-2.715,7.976-6.395    c0.363-1.608,0.205-3.271-0.38-4.766c24.6-7.326,45.483-5.828,60.988,4.527c18.669,12.47,28.951,37.041,28.951,69.189    c0,12.051-3.708,24.322-11.339,37.51c-2.263,3.911-0.926,8.917,2.985,11.181c3.911,2.264,8.919,0.926,11.181-2.986    c9.11-15.748,13.538-30.699,13.538-45.705c0-37.789-12.866-67.194-36.226-82.798c-16.244-10.847-45.243-19.783-91.171-0.739    c-0.035,0.015-0.07,0.029-0.105,0.045l-0.269,0.116c-0.543,0.232-1.074,0.463-1.539,0.685    c-14.623,6.829-21.4,22.338-16.478,37.715c0.217,0.68,0.466,1.357,0.732,2.032c-3.618,3.351-8.194,8.51-11.921,15.647    c-16.06-0.523-23.22,7.466-24.063,8.484c-2.884,3.479-2.399,8.638,1.08,11.521c1.527,1.266,3.378,1.882,5.216,1.882    c2.352,0,4.687-1.009,6.305-2.962c0.021-0.025,1.758-1.536,5.74-2.237c-0.687,3.717-1.084,7.73-1.084,12.059    c0,4.519,3.663,8.183,8.183,8.183s8.183-3.664,8.183-8.183c0-15.842,6.978-25.847,12.007-31c6.455,5.371,15.34,8.427,26.103,6.44    c4.67-0.864,9.297-2.639,13.77-4.358c13.145-5.048,21.022-7.469,30.009,1.52c19.74,19.739,3.542,40.71-26.788,76.074    c-18.435,21.497-39.332,45.862-47.172,72.517c-8.361,28.426-2.452,55.43,17.089,78.093c8.935,10.364,18.766,17.519,25.11,21.542    c-2.417,6.36-4.286,12.958-5.596,19.789c-2.874,14.969,1.056,30.304,10.781,42.074c9.764,11.817,24.154,18.594,39.479,18.594    l287.286,0.003c11.148,0,20.218-9.07,20.218-20.219v-3.044c0-8.972-5.877-16.587-13.981-19.223v-19.956    c0-4.519-3.663-8.183-8.183-8.183s-8.183,3.664-8.183,8.183v18.96h-29.612v-60.341c6.183-2.374,16.856-6.898,29.612-14.064v32.533    c0,4.519,3.663,8.183,8.183,8.183s8.183-3.664,8.183-8.183v-42.583c5.9-3.946,11.988-8.385,18.092-13.372    C487.763,324.36,512,274.283,512,217.007C512,206.08,510.755,195.189,508.301,184.638z M454.044,87.52    c14.787-0.001,26.819,12.031,26.819,26.819c0,3.846-0.811,7.565-2.338,10.973c-11.177-13.256-24.716-24.43-39.955-32.879    C443.036,89.28,448.418,87.52,454.044,87.52z M391.549,100.123c1.993-29.443,11.294-50.529,27.643-62.669    c4.615-3.428,9.534-5.94,14.469-7.758c-5.685,5.245-10.553,11.512-14.58,18.787c-9.921,17.923-12.425,38.352-12.778,52.335    c-0.053,2.137-0.995,4.069-2.652,5.438c-1.678,1.387-3.785,1.954-5.933,1.597C393.946,107.229,391.293,103.906,391.549,100.123z     M305.605,29.656c4.902,1.813,9.794,4.312,14.405,7.719c16.416,12.129,25.753,33.24,27.75,62.748    c0.255,3.783-2.395,7.107-6.168,7.732c-2.145,0.357-4.253-0.211-5.933-1.597c-1.657-1.369-2.6-3.3-2.653-5.439    c-0.354-13.983-2.856-34.413-12.777-52.335C316.191,41.19,311.308,34.909,305.605,29.656z M285.275,87.519    c5.622,0,11.002,1.761,15.467,4.915c-15.372,8.528-28.847,19.764-39.926,32.955c-1.55-3.428-2.373-7.176-2.373-11.05    C258.443,99.551,270.48,87.519,285.275,87.519z M331.852,388.695c12.568,5.984,23.19,9.448,29.624,11.252v59.704h-29.624V388.695z     M240.495,481.053l3.808,5.711h-25.559v-24.19h26.943l-5.537,9.964C238.662,475.219,238.795,478.505,240.495,481.053z     M263.972,486.765l-7.093-10.638l9.866-17.76c1.409-2.535,1.37-5.625-0.1-8.124c-1.471-2.5-4.154-4.034-7.053-4.034h-25.226    c-3.078-53.924-36.387-60.446-37.871-60.708c-4.46-0.79-8.697,2.185-9.48,6.637c-0.786,4.45,2.185,8.695,6.636,9.48    c0.231,0.041,21.69,4.995,24.314,44.592h-43.168c-4.52,0-8.183,3.664-8.183,8.183s3.663,8.183,8.183,8.183h27.581v24.19h-72.08    c-10.428-0.001-20.218-4.613-26.863-12.654c-6.605-7.994-9.275-18.405-7.325-28.565c5.116-26.656,20.2-49.373,44.83-67.521    c14.705-10.836,27.643-23.752,38.928-37.47l-0.452,19.295c-0.064,2.713,1.223,5.282,3.434,6.857    c2.212,1.574,5.058,1.951,7.603,1.003l23.78-8.86l-5.007,18.775c-0.655,2.456-0.131,5.078,1.418,7.094    c1.549,2.016,3.946,3.198,6.488,3.198h35.092l-10.341,33.319c-0.754,2.432-0.334,5.078,1.138,7.156    c1.473,2.078,3.83,3.352,6.375,3.447l30.815,1.141l-7.399,29.595c-1.093,4.374,1.557,8.808,5.928,9.916l22.856,5.797    c-0.04,0.524-0.08,1.047-0.08,1.582v3.044c0,1.317,0.136,2.602,0.378,3.85H263.972z M315.486,460.652    c-2.022,0.659-3.897,1.635-5.584,2.86l-19.234-4.878l7.869-31.472c0.598-2.393,0.085-4.928-1.397-6.9    c-1.482-1.971-3.774-3.171-6.24-3.261l-30.218-1.119l10.465-33.72c0.77-2.483,0.315-5.186-1.227-7.278    c-1.542-2.094-3.988-3.33-6.588-3.33h-35.55l6.344-23.79c0.789-2.958-0.14-6.108-2.405-8.165    c-2.266-2.058-5.491-2.677-8.359-1.611l-27.306,10.173l0.712-30.407c14.978-22.34,26.035-44.951,33.607-62.881    c9.666,57.658,40.577,92.844,67.251,113.067c6.019,4.564,12.026,8.536,17.856,12.008V460.652z M361.477,486.768l-39.773-0.003    c-2.11-0.017-3.821-1.736-3.821-3.85v-3.044c0-2.124,1.728-3.854,3.853-3.854h39.741V486.768z M415.722,476.017h1.861    c2.124,0,3.852,1.728,3.852,3.854v3.044h0c0,2.124-1.728,3.854-3.852,3.854h-39.74v-10.751    C377.843,476.017,415.693,476.017,415.722,476.017z"/>
	</g>
</g>
<g>
	<g>
		<path d="M450.568,149.953c-11.381-14.057-31.027-19.094-47.777-12.249c-10.519,4.298-21.666,6.478-33.136,6.478    c-11.466,0-22.612-2.179-33.127-6.474c-16.862-6.888-36.672-1.653-48.175,12.731c-15.146,18.944-23.212,42.771-22.714,67.093    c0.545,26.77,11.35,52.052,30.425,71.187c19.074,19.137,44.32,30.023,71.087,30.654c0.846,0.02,1.69,0.029,2.532,0.029    c27.34,0,53.06-10.458,72.665-29.607c20.216-19.746,31.349-46.181,31.349-74.435C473.695,191.609,465.482,168.381,450.568,149.953    z M430.909,278.089c-17.029,16.634-39.53,25.493-63.375,24.923c-22.531-0.53-43.799-9.709-59.882-25.845    c-16.083-16.135-25.194-37.433-25.655-59.968c-0.419-20.501,6.377-40.58,19.136-56.539c4.951-6.192,12.403-9.609,19.948-9.609    c3.126,0,6.269,0.588,9.255,1.807c12.49,5.103,25.719,7.69,39.317,7.69c13.603,0,26.834-2.589,39.327-7.693    c10.124-4.137,21.991-1.094,28.864,7.397c12.567,15.523,19.486,35.096,19.486,55.11    C457.329,239.171,447.946,261.448,430.909,278.089z"/>
	</g>
</g>
<g>
	<g>
		<path d="M420.349,227.304c-4.52,0-8.183,3.664-8.183,8.183c0,9.465-7.701,17.164-17.164,17.164    c-8.178,0-15.027-5.753-16.741-13.422h3.274c4.52,0,8.183-3.664,8.183-8.183s-3.663-8.183-8.183-8.183h-23.761    c-4.52,0-8.183,3.664-8.183,8.183s3.663,8.183,8.183,8.183h3.275c-1.714,7.669-8.564,13.422-16.741,13.422    c-9.465,0-17.163-7.7-17.163-17.164c0-4.519-3.663-8.183-8.183-8.183s-8.183,3.664-8.183,8.183    c0,18.489,15.041,33.53,33.529,33.53c10.114,0,19.195-4.499,25.347-11.603c6.152,7.104,15.233,11.603,25.346,11.603    c18.489,0,33.53-15.041,33.53-33.53C428.532,230.967,424.868,227.304,420.349,227.304z"/>
	</g>
</g>
<g>
	<g>
		<path d="M349.99,177.799c-4.52,0-8.183,3.664-8.183,8.183v16.388c0,4.519,3.664,8.183,8.183,8.183c4.52,0,8.183-3.664,8.183-8.183    v-16.388C358.172,181.462,354.51,177.799,349.99,177.799z"/>
	</g>
</g>
<g>
	<g>
		<path d="M389.318,177.799c-4.52,0-8.183,3.664-8.183,8.183v16.388c0,4.519,3.664,8.183,8.183,8.183    c4.52,0,8.183-3.664,8.183-8.183v-16.388C397.501,181.462,393.839,177.799,389.318,177.799z"/>
	</g>
</g>
<g>
	<g>
		<path d="M102.368,126.127c-3.154-1.673-7.101-1.09-9.639,1.424c-5.079,5.028-1.33,13.965,5.783,13.965    c3.924,0,7.401-2.904,8.063-6.778C107.162,131.298,105.457,127.764,102.368,126.127z"/>
	</g>
</g>
<g>
</g>
<g>
</g>
<g>
</g>
<g>
</g>
<g>
</g>
<g>
</g>
<g>
</g>
<g>
</g>
<g>
</g>
<g>
</g>
<g>
</g>
<g>
</g>
<g>
</g>
<g>
</g>
<g>
</g>
</svg>
