<?xml version="1.0" encoding="iso-8859-1"?>
<!-- Generator: Adobe Illustrator 19.0.0, SVG Export Plug-In . SVG Version: 6.00 Build 0)  -->
<svg xmlns="http://www.w3.org/2000/svg" xmlns:xlink="http://www.w3.org/1999/xlink" version="1.1" id="Layer_1" x="0px" y="0px" viewBox="0 0 512.001 512.001" style="enable-background:new 0 0 512.001 512.001;" xml:space="preserve">
<g>
	<g>
		<path d="M282.764,145.927c-3.529-2.773-8.639-2.159-11.411,1.372c-3.874,4.935-11.041,5.799-15.977,1.922    c-3.531-2.773-8.639-2.158-11.412,1.372c-2.772,3.532-2.156,8.641,1.373,11.413c5.051,3.967,11.063,5.889,17.037,5.889    c8.197,0,16.32-3.624,21.764-10.556C286.911,153.809,286.295,148.699,282.764,145.927z"/>
	</g>
</g>
<g>
	<g>
		<path d="M397.487,209.423l-11.575-18.477c-0.04-0.065-0.092-0.117-0.14-0.174c-0.074-0.112-0.13-0.231-0.21-0.34    c-2.133-2.887-5.909-4.034-9.287-2.819c-14.601,5.251-37.506,6.6-66.742,3.99c10.593-17.556,16.143-40.659,16.143-67.801    c0-27.926-5.753-55.064-16.197-76.413c-1.972-4.031-6.838-5.703-10.873-3.729c-4.032,1.972-5.702,6.84-3.729,10.873    c3.132,6.402,5.799,13.546,7.973,21.156c-0.652-0.067-1.311-0.111-1.979-0.111c-13.238,0-23.607,13.388-23.607,30.478    c0,17.09,10.369,30.478,23.607,30.478c2.902,0,5.667-0.644,8.213-1.829c-1.564,24.744-8.56,44.685-20.465,58.091    c-6.505,7.315-14.491,12.613-23.757,15.754c-6.935,2.371-14.732,3.573-23.174,3.573c-27.141,0-52.381-12.215-69.252-33.52    c-7.839-9.884-13.361-21.057-16.409-33.209c-0.681-2.715-2.71-4.889-5.373-5.753c-2.662-0.866-5.581-0.298-7.728,1.499    c-1.287,1.078-2.62,1.625-3.96,1.625c-4.465,0-9.439-6.453-9.439-15.714c0-9.26,4.974-15.714,9.439-15.714    c1.109,0,2.23,0.387,3.335,1.15c2.264,1.564,5.163,1.876,7.708,0.831c2.544-1.045,4.387-3.306,4.898-6.009    c1.961-10.385,5.701-21.233,10.925-31.762c2.077,1.013,4.205,1.887,6.368,2.612c5.734,1.968,11.736,2.965,17.842,2.965    c30.517,0,55.344-24.822,55.344-55.333c0-2.089-0.115-4.18-0.344-6.218c-0.122-1.087-0.277-2.17-0.464-3.247    c14.951,0.747,27.838,7.344,38.341,19.637c2.915,3.411,8.045,3.816,11.459,0.899c3.413-2.916,3.816-8.046,0.899-11.459    C281.077,8.784,262.548,0,241.689,0c-2.767,0-5.673,0.18-8.638,0.534c-2.5,0.299-4.719,1.739-6.011,3.9    c-1.012,1.693-1.354,3.677-1.017,5.583c-1.417-0.108-2.843-0.167-4.274-0.167c-27.855,0-50.959,20.689-54.779,47.505    c-1.8-1.13-3.974-1.524-6.062-1.063c-2.244,0.494-4.174,1.915-5.312,3.911c-6.465,11.334-11.427,23.268-14.574,34.981    c-0.683-0.067-1.369-0.101-2.056-0.101c-14.408,0-25.694,14.043-25.694,31.969s11.287,31.969,25.694,31.969    c1.378,0,2.744-0.132,4.083-0.393c3.007,8.544,7.124,16.607,12.275,24.118c-5.978,6.658-14.934,19.521-19.632,40.406    c-0.985,4.379,1.766,8.728,6.146,9.713c0.6,0.135,1.201,0.199,1.791,0.199c3.717,0,7.072-2.567,7.923-6.345    c3.544-15.755,9.693-25.666,14.103-31.124c19.715,20.939,46.952,32.785,76.035,32.785c3.082,0,6.094-0.153,9.046-0.423    c-2.12,5.593-3.524,11.889-4.211,18.827c-27.872-2.366-51.874-7.591-52.137-7.649c-4.381-0.964-8.719,1.808-9.684,6.192    c-0.964,4.384,1.807,8.718,6.19,9.684c1.221,0.269,30.285,6.606,62.753,8.595c10.879,0.677,20.835,0.778,29.832,0.308    c-7.597,3.787-17.071,7.267-28.582,9.403c-21.784,4.054-46.389,2.43-73.132-4.828c-4.334-1.174-8.797,1.384-9.972,5.715    c-1.175,4.332,1.384,8.797,5.715,9.972c18.575,5.039,36.303,7.565,52.987,7.565c6.63,0,13.091-0.409,19.379-1.207    c2.325,11.026,5.262,20.735,7.481,27.354l-88.594,23.534c-13.842-34.382-20.547-65.13-19.936-91.476    c0.104-4.488-3.449-8.21-7.937-8.314c-4.515-0.121-8.21,3.45-8.314,7.937c-0.702,30.318,7.341,65.545,23.908,104.704    c1.297,3.066,4.286,4.962,7.483,4.962c0.692,0,1.395-0.089,2.091-0.274l6.557-1.742c3.937,22.823-3.644,63.727-21.442,114.555    c-2.397,6.837-4.892,13.603-7.414,20.107c-1.766,4.556-1.171,9.681,1.594,13.707c2.758,4.017,7.311,6.412,12.183,6.412    c0.012,0,0.025,0,0.037,0l65.467-0.16c3.603-0.009,6.771-2.39,7.781-5.848c1.011-3.458-0.376-7.17-3.408-9.118l-32.147-20.653    c17.527-18.943,32.324-40.62,44.161-64.652c16.598,22.279,24.918,53.885,28.581,72.177c0.908,4.56,1.695,9.095,2.341,13.48    c1.225,8.331,8.497,14.614,16.916,14.614h50.625c3.499,0,6.605-2.239,7.71-5.558c1.105-3.319-0.036-6.975-2.835-9.073    l-31.071-23.293c2.138-26.734,1.308-51.749-2.471-74.416c-0.738-4.427-4.912-7.416-9.353-6.681    c-4.428,0.738-7.419,4.925-6.68,9.353c3.47,20.823,4.285,43.857,2.442,68.543l-13.327,2.174    c-9.257-40.864-23.571-64.504-35.364-77.834c5.716-13.677,9.337-25.329,11.424-33.006c1.178-4.332-1.377-8.797-5.71-9.977    c-4.33-1.177-8.797,1.378-9.977,5.71c-2.19,8.055-6.179,20.784-12.742,35.685c-12.649,28.761-29.581,54.18-50.339,75.636    l-9.874-1.354c12.726-38.093,24.441-84.673,18.635-114.716l76.928-20.436c4.955,6.032,15.339,20.871,22.742,46.595    c1.024,3.563,4.275,5.882,7.806,5.882c0.745,0,1.502-0.103,2.252-0.319c4.313-1.242,6.805-5.745,5.563-10.059    c-9.632-33.47-24.036-50.776-28.673-55.711c-1.72-4.596-5.99-16.718-9.115-31.43c23.487-5.864,38.873-16.641,47.3-24.148    l6.078,9.704c1.543,2.462,4.19,3.815,6.896,3.815c1.474,0,2.966-0.401,4.308-1.241c3.804-2.383,4.956-7.398,2.574-11.202    l-11.574-18.477c-0.041-0.066-0.094-0.12-0.143-0.179c-0.074-0.111-0.129-0.229-0.208-0.336c-2.135-2.888-5.911-4.035-9.288-2.818    c-11.366,4.09-28.226,5.825-49.068,5.094c0.536-5.041,1.539-9.555,2.986-13.522c10.597,1.7,20.427,2.459,29.496,2.459    c44.022,0,70.363-17.527,82.429-28.334l6.064,9.68c1.542,2.463,4.188,3.815,6.894,3.815c1.474,0,2.966-0.401,4.308-1.241    C398.72,218.242,399.871,213.227,397.487,209.423z M300.871,120.277c-2.999,0-7.352-5.54-7.352-14.222s4.354-14.222,7.352-14.222    s7.352,5.541,7.352,14.222C308.223,114.736,303.868,120.277,300.871,120.277z M221.749,26.105c2.49,0.001,4.948,0.24,7.354,0.696    c-0.088,3.44-0.62,6.769-1.545,9.934c-3.954-4.104-8.234-7.435-12.281-10.084C217.383,26.298,219.544,26.105,221.749,26.105z     M196.838,35.095c5.365,2.378,15.431,7.727,22.307,16.746c-4.155,4.636-9.399,8.274-15.326,10.514l1.58-3.472    c1.859-4.086,0.054-8.905-4.032-10.764c-4.083-1.857-8.905-0.054-10.764,4.032l-5.635,12.384    c-0.764-0.101-1.525-0.227-2.281-0.373C182.991,52.487,188.431,42.066,196.838,35.095z M301.103,486.293l12.394,9.292h-26.233    c-0.423,0-0.774-0.303-0.836-0.723c-0.29-1.978-0.622-3.993-0.966-6.017L301.103,486.293z M179.669,485.524l15.766,10.128    l-35.743,0.088c1.547-4.032,3.08-8.158,4.586-12.327L179.669,485.524z M346.865,209.359c-18.854,9.138-41.673,12.633-66.76,10.332    c6.518-3.362,12.435-7.687,17.687-12.944c19.022,2.168,35.74,2.88,50.043,2.135C347.516,209.041,347.192,209.201,346.865,209.359z    "/>
	</g>
</g>
<g>
	<g>
		<path d="M230.201,75.577c-16.806,0-30.478,13.672-30.478,30.478c0,7.295,2.579,13.999,6.872,19.252    c-3.314-0.898-6.697-2.432-10.051-4.855c-3.64-2.628-8.722-1.808-11.349,1.831c-2.628,3.639-1.809,8.719,1.83,11.347    c9.056,6.541,18.459,8.955,27.239,8.955c14.669,0,27.605-6.736,34.304-12.222c0.01-0.008,0.013-0.016,0.023-0.024    c7.338-5.57,12.088-14.382,12.088-24.285C260.679,89.249,247.007,75.577,230.201,75.577z M230.201,120.278    c-7.843,0-14.222-6.38-14.222-14.222s6.38-14.222,14.222-14.222s14.222,6.38,14.222,14.222    C244.423,113.897,238.044,120.278,230.201,120.278z"/>
	</g>
</g>
<g>
</g>
<g>
</g>
<g>
</g>
<g>
</g>
<g>
</g>
<g>
</g>
<g>
</g>
<g>
</g>
<g>
</g>
<g>
</g>
<g>
</g>
<g>
</g>
<g>
</g>
<g>
</g>
<g>
</g>
</svg>
