<?xml version="1.0" encoding="iso-8859-1"?>
<!-- Generator: Adobe Illustrator 19.0.0, SVG Export Plug-In . SVG Version: 6.00 Build 0)  -->
<svg xmlns="http://www.w3.org/2000/svg" xmlns:xlink="http://www.w3.org/1999/xlink" version="1.1" id="Layer_1" x="0px" y="0px" viewBox="0 0 512 512" style="enable-background:new 0 0 512 512;" xml:space="preserve">
<g>
	<g>
		<path d="M323.505,0H220.573c-13.924,0-25.254,11.329-25.254,25.254v38.661c0,4.477,3.629,8.106,8.106,8.106    s8.106-3.629,8.106-8.106v-11.8l14.577,10.563c2.836,2.057,6.674,2.057,9.512,0.001l22.694-16.439l22.684,16.438    c2.836,2.057,6.674,2.057,9.512,0.001l22.694-16.439l19.335,14.012v49.704h-87.944c-4.477,0-8.106,3.629-8.106,8.106    c0,4.477,3.629,8.106,8.106,8.106h27.688v6c0,4.477,3.629,8.106,8.106,8.106c4.477,0,8.106-3.629,8.106-8.106v-6h19.615v6    c0,4.477,3.629,8.106,8.106,8.106s8.106-3.629,8.106-8.106v-6h8.217v63.67c0,6.775-5.506,12.286-12.275,12.286h-62.243    c-4.477,0-8.106,3.629-8.106,8.106s3.629,8.106,8.106,8.106h21.722v20.083h-68.209v-20.582h6.218c4.477,0,8.106-3.629,8.106-8.106    s-3.629-8.106-8.106-8.106h-6.218v-26.064c0-2.561-1.21-4.971-3.264-6.501c-2.053-1.529-4.708-1.999-7.163-1.264    c-1.544,0.461-3.159,0.696-4.8,0.696c-4.756,0-9.314-2.025-12.505-5.556c-3.23-3.573-4.739-8.211-4.248-13.063    c0.748-7.455,6.656-13.701,14.064-14.853c0.571-0.09,1.14-0.142,1.708-0.175v7.045c0,4.477,3.629,8.106,8.106,8.106    s8.106-3.629,8.106-8.106v-15.181c0-0.014-0.002-0.028-0.002-0.042V86.611c0-4.477-3.629-8.106-8.106-8.106    s-8.106,3.629-8.106,8.106v31.994c-1.402,0.043-2.807,0.175-4.213,0.397c-14.804,2.302-26.19,14.331-27.687,29.245    c-0.943,9.328,2.101,18.644,8.352,25.56c6.039,6.68,14.574,10.612,23.548,10.881v16.937h-5.259v-6.809    c0-4.477-3.629-8.106-8.106-8.106s-8.106,3.629-8.106,8.106v29.829c0,4.477,3.629,8.106,8.106,8.106s8.106-3.629,8.106-8.106    v-6.809h5.259v24.113c-9.338,5.021-15.7,14.882-15.7,26.202v150.806c0,10.089,8.089,18.308,18.12,18.553v41.048v25.336    c0,4.477,3.629,8.106,8.106,8.106h41.186h66.564c4.477,0,8.106-3.629,8.106-8.106c0-15.645-10.801-28.811-25.336-32.443v-28.466    l30.997-46.275c0.009-0.012,0.017-0.025,0.025-0.038c0.866-1.289,1.372-2.841,1.372-4.511v-61.297    c0-4.477-3.629-8.106-8.106-8.106s-8.106,3.629-8.106,8.106v53.192h-11.429v-95.671c0-14.02-8.798-25.442-18.431-33.755h1.767    c15.491,0,28.092,12.603,28.092,28.092v24.366c0,4.477,3.629,8.106,8.106,8.106s8.106-3.629,8.106-8.106v-24.366    c0-20.452-13.934-37.704-32.806-42.782v-21.604h24.311c15.708,0,28.487-12.784,28.487-28.497V25.254    C348.748,11.329,337.424,0,323.505,0z M332.536,40.232L317.96,29.668c-2.837-2.057-6.674-2.057-9.512-0.001l-22.694,16.439    L263.07,29.668c-2.836-2.057-6.674-2.057-9.512-0.001l-22.694,16.439L211.53,32.095v-6.841c0-4.986,4.056-9.043,9.043-9.043    h102.932c4.98,0,9.032,4.056,9.032,9.043V40.232z M213.587,418.955c0,1.304-1.06,2.365-2.365,2.365h-13.027    c-1.305,0-2.365-1.06-2.365-2.365v-18.688h17.757V418.955z M213.949,470.452v-33.144c8.951-1.326,15.848-9.039,15.848-18.352    v-18.688h36.054l-23.95,35.741c-0.895,1.335-1.373,2.905-1.373,4.512v29.932H213.949z M247.031,495.788h-33.08v-9.125h33.079    c0.008,0,0.014-0.001,0.022-0.001s0.014,0.001,0.022,0.001c6.572,0,12.292,3.701,15.197,9.125H247.031z M303.46,495.789h-23.944    c-0.814-3.255-2.103-6.325-3.793-9.125h12.536C294.83,486.663,300.556,490.363,303.46,495.789z M305.467,400.268l-23.943,35.742    c-0.895,1.335-1.371,2.905-1.371,4.511v29.932h-23.41v-27.466l28.625-42.718H305.467z M284.906,384.055h-3.876    c-0.008,0-0.015,0-0.022,0h-51.21v-92.502c0-4.477-3.629-8.106-8.106-8.106s-8.106,3.629-8.106,8.106v92.502H195.83V268.15    c0-7.456,6.071-13.522,13.532-13.522h20.389l26.173,44.224c1.478,2.5,4.151,3.978,6.974,3.978c0.554,0,1.114-0.057,1.671-0.174    l20.337-4.282V384.055z M283.723,282.057l-16.808,3.538l-18.328-30.966h4.599c2.808,1.353,9.332,4.728,15.873,9.746    C274.685,268.691,281.132,274.901,283.723,282.057z"/>
	</g>
</g>
<g>
	<g>
		<path d="M276.721,318.564c-1.316-3.119-4.481-5.167-7.881-4.994c-3.166,0.162-5.996,2.199-7.145,5.152    c-2.702,6.939,4.991,13.638,11.501,10.018C276.721,326.778,278.293,322.288,276.721,318.564z"/>
	</g>
</g>
<g>
	<g>
		<path d="M276.721,350.262c-1.35-3.195-4.607-5.235-8.08-4.982c-3.265,0.238-6.118,2.493-7.112,5.608    c-2.218,6.941,5.506,13.137,11.804,9.461C276.766,358.344,278.273,353.94,276.721,350.262z"/>
	</g>
</g>
<g>
	<g>
		<path d="M320.04,161.333h-46.248c-4.477,0-8.106,3.629-8.106,8.106s3.629,8.106,8.106,8.106h46.248    c4.477,0,8.106-3.629,8.106-8.106S324.516,161.333,320.04,161.333z"/>
	</g>
</g>
<g>
</g>
<g>
</g>
<g>
</g>
<g>
</g>
<g>
</g>
<g>
</g>
<g>
</g>
<g>
</g>
<g>
</g>
<g>
</g>
<g>
</g>
<g>
</g>
<g>
</g>
<g>
</g>
<g>
</g>
</svg>
