<?xml version="1.0" encoding="iso-8859-1"?>
<!-- Generator: Adobe Illustrator 19.0.0, SVG Export Plug-In . SVG Version: 6.00 Build 0)  -->
<svg xmlns="http://www.w3.org/2000/svg" xmlns:xlink="http://www.w3.org/1999/xlink" version="1.1" id="Layer_1" x="0px" y="0px" viewBox="0 0 512 512" style="enable-background:new 0 0 512 512;" xml:space="preserve">
<g>
	<g>
		<path d="M351.271,209.184c76.178-13.301,87.726-36.132,87.726-48.717c0-35.466-81.702-48.684-113.808-52.499L263.048,3.998    C261.566,1.518,258.89,0,256.001,0c-2.889,0-5.566,1.518-7.048,3.998L186.81,107.969c-14.641,1.712-28.408,3.959-40.974,6.7    c-4.43,0.967-7.238,5.341-6.272,9.772c0.967,4.43,5.347,7.238,9.773,6.272c13.343-2.911,28.136-5.25,43.972-6.955    c19.919-2.148,41.011-3.237,62.692-3.237s42.772,1.089,62.693,3.237c71.653,7.711,103.883,26.108,103.883,36.71    c0,7.648-18.18,21.738-67.277,31.272c-0.164-14.561-9.471-26.571-21.459-28.385c-1.355-7.485-3.359-14.725-5.984-21.609    c-1.101-2.89-3.733-4.915-6.809-5.24c-20.503-2.165-42.388-3.263-65.047-3.263c-22.66,0-44.545,1.098-65.047,3.263    c-3.075,0.325-5.707,2.35-6.809,5.239c-2.624,6.884-4.63,14.124-5.984,21.609c-11.99,1.814-21.296,13.825-21.46,28.385    c-49.096-9.533-67.276-23.624-67.276-31.272c0-5.162,8.74-14.162,33.373-22.533c4.294-1.459,6.591-6.123,5.132-10.415    c-1.459-4.294-6.125-6.589-10.416-5.132c-29.535,10.038-44.511,22.849-44.511,38.08c0,12.585,11.545,35.417,87.726,48.717    c3.536,8.596,9.948,19.715,18.196,23.847c1.891,5.542,5.855,15.38,12.849,25.495l-3.916,23.123l-53.794,87.213    c-2.298,3.724-1.269,8.597,2.337,11.077l3.996,2.748c-1.078,6.203-1.454,16.139,3.326,27.293c1.334,3.113,4.365,4.978,7.55,4.978    c1.078,0,2.175-0.215,3.229-0.666c4.169-1.787,6.099-6.613,4.312-10.781c-1.548-3.61-2.29-6.981-2.575-9.931l11.341,7.798    L150.47,502.418c-0.404,2.383,0.263,4.823,1.824,6.67c1.56,1.847,3.855,2.912,6.272,2.912h194.863    c2.417,0,4.712-1.065,6.272-2.912c1.561-1.847,2.228-4.287,1.824-6.67l-6.474-38.23c-0.758-4.471-4.991-7.48-9.465-6.724    c-4.471,0.757-7.482,4.995-6.725,9.466l4.852,28.649h-79.503V292.667c15.926-1.573,30.153-7.772,42.048-18.278l28.728,169.652    c0.678,4.007,4.153,6.841,8.086,6.841c0.455,0,0.916-0.038,1.38-0.116c4.471-0.756,7.482-4.995,6.725-9.466l-6.791-40.099    l11.083-7.619c-0.285,2.949-1.025,6.319-2.573,9.929c-1.787,4.169,0.144,8.994,4.312,10.781c1.054,0.452,2.151,0.666,3.229,0.666    c3.186,0,6.217-1.865,7.55-4.978c4.78-11.154,4.404-21.09,3.326-27.293l3.996-2.748c3.606-2.48,4.634-7.351,2.337-11.077    l-53.399-86.573l-4.024-23.763c6.998-10.115,10.962-19.954,12.852-25.494C341.328,228.898,347.742,217.767,351.271,209.184z     M256.001,104.099c-16.702,0-33.078,0.631-48.87,1.879l48.87-81.764l48.869,81.764    C289.077,104.729,272.703,104.099,256.001,104.099z M359.573,370.834l-18.208,12.517l-9.812-57.942L359.573,370.834z     M197.822,152.317c18.438-1.763,37.982-2.656,58.179-2.656c5.385,0,10.72,0.068,16.004,0.195    c-11.968,13.001-36.915,30.568-77.714,16.699C195.162,161.671,196.33,156.905,197.822,152.317z M152.143,370.834l28.414-46.065    l-9.95,58.76L152.143,370.834z M247.79,495.578h-79.503l37.455-221.19c11.894,10.506,26.122,16.705,42.048,18.278V495.578z     M325.9,218.272c-3.489,0.262-6.464,2.736-7.345,6.168c-0.034,0.135-3.573,13.646-13.3,26.801    c-12.47,16.862-29.042,25.412-49.254,25.412c-20.212,0-36.784-8.551-49.253-25.414c-9.728-13.155-13.266-26.667-13.297-26.783    c-0.867-3.451-3.848-5.927-7.35-6.186c-2.402-1.289-8.313-9.057-11.534-18.954c-0.928-2.822-1.46-5.442-1.46-7.188    c0-3.658,1.054-6.764,2.586-8.978l-0.106,0.973c-0.49,4.508,2.764,8.56,7.273,9.052c0.302,0.033,0.602,0.048,0.899,0.048    c4.136,0,7.694-3.116,8.153-7.322l0.301-2.758c11.223,3.489,21.443,4.93,30.654,4.93c19.522,0,34.526-6.437,45.008-13.359    c12.477-8.239,20.431-18.3,24.327-24.051c7.475,0.421,14.813,0.971,21.979,1.655c2.122,6.525,3.624,13.393,4.484,20.48    c0,0.007,0,0.014,0.001,0.021l1.427,13.083c0.459,4.205,4.017,7.32,8.153,7.32c0.297,0,0.598-0.016,0.9-0.049    c4.507-0.492,7.764-4.544,7.272-9.052l-0.106-0.97c1.53,2.215,2.584,5.319,2.584,8.976c0,1.749-0.532,4.368-1.469,7.214    C334.213,209.214,328.301,216.982,325.9,218.272z"/>
	</g>
</g>
<g>
	<g>
		<path d="M296.676,198.527c-1.734-4.191-6.538-6.183-10.725-4.45l-11.616,4.804c-4.191,1.733-6.182,6.534-4.449,10.725    c1.308,3.164,4.367,5.075,7.591,5.075c1.045,0,2.108-0.201,3.134-0.625l11.616-4.804    C296.417,207.52,298.409,202.718,296.676,198.527z"/>
	</g>
</g>
<g>
	<g>
		<path d="M237.593,199.371l-11.252-5.168c-4.126-1.894-8.998-0.086-10.888,4.034c-1.893,4.121-0.086,8.995,4.034,10.888    l11.252,5.168c1.111,0.51,2.276,0.752,3.422,0.752c3.109,0,6.085-1.776,7.466-4.786    C243.519,206.139,241.713,201.264,237.593,199.371z"/>
	</g>
</g>
<g>
	<g>
		<path d="M273.997,232.762c-3.204-3.206-8.403-3.206-11.611,0c-1.706,1.706-3.974,2.646-6.386,2.646    c-2.412,0-4.68-0.939-6.386-2.646c-3.206-3.205-8.405-3.206-11.611,0c-3.208,3.206-3.208,8.405-0.001,11.612    c4.808,4.808,11.198,7.455,17.998,7.455c6.799,0,13.19-2.647,17.997-7.455C277.205,241.167,277.205,235.969,273.997,232.762z"/>
	</g>
</g>
<g>
</g>
<g>
</g>
<g>
</g>
<g>
</g>
<g>
</g>
<g>
</g>
<g>
</g>
<g>
</g>
<g>
</g>
<g>
</g>
<g>
</g>
<g>
</g>
<g>
</g>
<g>
</g>
<g>
</g>
</svg>
