<?xml version="1.0" encoding="iso-8859-1"?>
<!-- Generator: Adobe Illustrator 19.0.0, SVG Export Plug-In . SVG Version: 6.00 Build 0)  -->
<svg xmlns="http://www.w3.org/2000/svg" xmlns:xlink="http://www.w3.org/1999/xlink" version="1.1" id="Layer_1" x="0px" y="0px" viewBox="0 0 511.998 511.998" style="enable-background:new 0 0 511.998 511.998;" xml:space="preserve">
<g>
	<g>
		<path d="M368.134,397.732c-4.67-1.023-9.28,1.929-10.306,6.596c-4.984,22.709-8.964,36.839-9.005,36.978    c-0.036,0.127-0.07,0.256-0.099,0.385l-9.998,42.735c-1.482-1.815-3.11-4.477-5.246-8.246    c-5.58-9.847-13.217-23.325-32.003-23.325c-0.706,0.003-1.513,0.095-2.204,0.26c-10.5,2.506-19.923,8.51-26.53,16.9    c-0.746,0.946-1.494,1.914-2.253,2.893c-8.667,11.205-16.852,21.787-38.159,21.787c-21.411,0-28.691-7.564-37.123-16.323    c-6.912-7.181-14.746-15.32-29.582-17.532c-0.052-0.008-0.104-0.015-0.156-0.022l-1.592-0.208    c-0.068-0.008-0.136-0.017-0.204-0.024l-1.013-0.107c-0.045-0.005-0.089-0.008-0.133-0.013    c-17.482-1.523-31.069,6.865-43.063,14.265c-13.462,8.306-22.282,13.23-33.491,9.932c-7.244-2.131-11.62-6.898-13.769-14.997    c-2.687-10.162-0.195-21.416,6.659-30.099c34.413-43.532,45.239-115.868,50.375-190.254c4.747,5.005,9.572,9.937,14.303,14.772    c14.227,14.541,33.713,34.457,33.429,41.833c-0.183,4.775,3.539,8.794,8.315,8.977c0.113,0.003,0.225,0.006,0.337,0.006    c4.625,0,8.46-3.658,8.639-8.321c0.568-14.816-15.758-31.503-38.352-54.596c-26.815-27.406-60.186-61.515-52.072-85.468    c2.14-6.32,5.087-6.918,6.345-7.173c17.07-3.463,59.179,33.68,83.623,61.164c3.175,3.57,8.645,3.891,12.214,0.716    c3.57-3.175,3.893-8.642,0.719-12.213c-0.649-0.731-16.128-18.089-35.568-34.985c-13.877-12.062-26.043-20.683-36.647-25.949    c0.568-10,1.097-17.922,1.677-25.128c1.7-21.208,7.574-40.037,17.458-55.96c9.791-15.756,23.69-28.657,40.189-37.304    c4.232-2.218,5.865-7.447,3.648-11.68c-2.218-4.232-7.45-5.865-11.68-3.646c-19.232,10.08-35.434,25.121-46.855,43.501    c-11.353,18.291-18.086,39.725-20.007,63.704c-0.495,6.14-0.952,12.775-1.425,20.712c-3.874-0.6-7.464-0.563-10.78,0.11    c-6.37,1.291-14.888,5.562-19.298,18.579c-7.773,22.948,6.048,47.123,25.595,70.372c-4.34,73.834-13.613,154.313-47.758,197.505    c-10.212,12.937-13.88,29.852-9.808,45.254c3.697,13.933,12.553,23.327,25.612,27.169c19.183,5.642,34.205-3.629,47.46-11.807    c10.629-6.558,20.661-12.754,32.406-11.759l2.191,0.266c8.959,1.357,13.423,5.994,19.593,12.405    c9.275,9.636,20.816,21.627,49.589,21.627c29.798,0,42.54-16.474,51.844-28.503c0.723-0.937,1.438-1.861,2.156-2.77    c4.018-5.102,9.685-8.821,16.038-10.546c7.66,0.359,10.84,5.332,16.054,14.531c4.87,8.595,11.541,20.366,26.378,20.366    c4.019,0,7.509-2.767,8.424-6.681l12.299-52.577c0.526-1.875,4.358-15.72,9.201-37.783    C375.755,403.369,372.802,398.756,368.134,397.732z"/>
	</g>
</g>
<g>
	<g>
		<path d="M355.278,155.761c-9.761-9.685-24.931-9.57-42.495-9.429c-4.148,0.032-8.531,0.032-12.678,0    c-17.562-0.14-32.733-0.255-42.495,9.429c-5.561,5.519-8.265,13.198-8.265,23.478c0,31.484,25.615,57.099,57.099,57.099    s57.099-25.615,57.099-57.099C363.543,168.959,360.839,161.28,355.278,155.761z M306.443,219.036    c-10.122-0.001-19.369-3.807-26.4-10.054c7.21-6.432,16.509-10.024,26.406-10.024c9.893,0,19.188,3.592,26.396,10.026    C325.814,215.231,316.567,219.036,306.443,219.036z M343.02,194.909c-10.15-8.518-22.966-13.256-36.57-13.256    c-13.61,0-26.429,4.738-36.581,13.256c-2.069-4.812-3.22-10.107-3.22-15.669c-0.001-8.07,2.369-10.422,3.148-11.195    c3.965-3.935,13.578-4.44,24.473-4.44c1.869,0,3.777,0.015,5.699,0.03c4.237,0.032,8.712,0.032,12.949,0    c13.124-0.103,25.527-0.198,30.172,4.41c0.779,0.773,3.149,3.124,3.149,11.195C346.24,184.801,345.09,190.097,343.02,194.909z"/>
	</g>
</g>
<g>
	<g>
		<path d="M293.76,119.082c-0.486-7.364-3.808-14.099-9.357-18.963c-5.55-4.866-12.661-7.274-20.025-6.794    c-7.364,0.483-14.099,3.807-18.963,9.355c-4.865,5.549-7.278,12.66-6.794,20.025c0.301,4.575,4.105,8.085,8.625,8.085    c0.19,0,0.383-0.006,0.576-0.018c4.768-0.314,8.379-4.432,8.066-9.201c-0.181-2.752,0.721-5.409,2.539-7.483    s4.335-3.315,7.087-3.496c2.754-0.18,5.41,0.721,7.483,2.539c2.074,1.818,3.315,4.335,3.496,7.087    c0.313,4.768,4.438,8.379,9.201,8.066C290.462,127.969,294.074,123.849,293.76,119.082z"/>
	</g>
</g>
<g>
	<g>
		<path d="M455.944,160.964c-4.071-12.02-11.696-16.483-17.375-18.109c-11.907-3.409-27.507,1.878-47.449,16.129    C379.06,79.525,344.932,28.8,289.526,8.151c-23.365-8.707-48.488-10.478-72.653-5.122c-4.665,1.034-7.609,5.654-6.574,10.319    c1.034,4.665,5.652,7.609,10.319,6.574c20.897-4.632,42.637-3.096,62.867,4.443c31.364,11.689,55.097,34.778,71.038,68.918    c-0.93-0.032-1.865-0.02-2.805,0.043c-7.364,0.483-14.099,3.807-18.963,9.355c-4.865,5.549-7.278,12.66-6.794,20.025    c0.301,4.575,4.105,8.085,8.625,8.085c0.19,0,0.383-0.006,0.576-0.018c4.768-0.314,8.379-4.432,8.066-9.201    c-0.181-2.752,0.721-5.409,2.539-7.483s4.335-3.315,7.087-3.496c2.751-0.18,5.409,0.721,7.483,2.539s3.315,4.335,3.496,7.087    c0.147,2.233,1.135,4.206,2.627,5.647c4.159,14.817,7.272,31.095,9.322,48.829c8.078,69.866-2.078,147.608-12.021,200.523    c-0.883,4.696,2.209,9.218,6.905,10.101c0.54,0.102,1.077,0.15,1.608,0.15c4.08,0,7.713-2.9,8.494-7.055    c5.692-30.289,11.444-68.577,13.945-109.052c1.702-1.749,3.424-3.513,5.177-5.305    C431.563,231.671,467.466,194.969,455.944,160.964z M395.823,243.43c0.511-21.57-0.063-43.401-2.206-64.662    c9.892-7.733,30.138-22.158,40.188-19.278c1.021,0.292,3.733,1.069,5.75,7.026C446.846,188.035,420.656,217.746,395.823,243.43z"/>
	</g>
</g>
<g>
</g>
<g>
</g>
<g>
</g>
<g>
</g>
<g>
</g>
<g>
</g>
<g>
</g>
<g>
</g>
<g>
</g>
<g>
</g>
<g>
</g>
<g>
</g>
<g>
</g>
<g>
</g>
<g>
</g>
</svg>
