<?xml version="1.0" encoding="iso-8859-1"?>
<!-- Generator: Adobe Illustrator 19.0.0, SVG Export Plug-In . SVG Version: 6.00 Build 0)  -->
<svg xmlns="http://www.w3.org/2000/svg" xmlns:xlink="http://www.w3.org/1999/xlink" version="1.1" id="Layer_1" x="0px" y="0px" viewBox="0 0 512.001 512.001" style="enable-background:new 0 0 512.001 512.001;" xml:space="preserve">
<path style="fill:#E6E6E6;" d="M319.058,41.588c0,16.839-12.432,30.773-28.624,33.128v50.054h-50.767V74.716  c-16.191-2.355-28.624-16.289-28.624-33.128c0-18.492,14.992-33.484,33.484-33.484c7.734,0,14.852,2.636,20.523,7.032  c5.671-4.396,12.789-7.032,20.523-7.032C304.066,8.103,319.058,23.096,319.058,41.588z"/>
<path style="fill:#8BE8E8;" d="M349.41,213.622c0,0,66.137,73.028,53.348,101.425c-12.476,27.727-35.591,51.069-36.66,52.138  C355.437,316.7,349.767,265.253,349.41,213.622z"/>
<path style="fill:#AEF4F2;" d="M349.409,213.622c0.04,5.693,0.154,11.385,0.323,17.073c18.661,23.358,47.869,64.624,38.983,84.353  c-6.98,15.514-17.29,29.651-25.206,39.287c0.832,4.289,1.685,8.575,2.588,12.852c1.069-1.069,24.184-24.411,36.66-52.138  C415.546,286.65,349.409,213.622,349.409,213.622z"/>
<path style="fill:#8BE8E8;" d="M348.976,503.897c-8.555,0-16.375-3.284-22.251-8.695c-5.865-5.422-9.786-12.962-10.521-21.484  c-6.168-71.16-31.303-134.532-31.303-134.532s-25.124,63.361-31.302,134.499c-1.48,17.066-15.64,30.212-32.761,30.212  c-18.265,0-32.89-14.82-32.89-32.836c0-0.67,0.022-1.339,0.065-2.02c0.972-16.083,2.808-36.207,6.243-56.923  c-0.302,0.032-6.07,0.518-13.545-0.475c-14.928-2.02-36.66-10.024-35.094-39.749c-55.379-8.112-33.949-68.211-33.949-68.211  s11.99-29.661,33.031-57.852c26.021-34.867,43.162-75.556,49.006-118.675l0.324-2.387h154.773l0.605,88.852  c0.356,51.631,6.027,103.078,16.688,153.564c1.361,6.427,2.798,12.843,4.321,19.237c6.913,29.121,10.002,59.872,11.385,82.598  C382.947,487.932,367.922,503.897,348.976,503.897z"/>
<path style="fill:#AEF4F2;" d="M381.803,469.019c-1.383-22.726-4.472-53.478-11.385-82.598c-1.523-6.394-2.96-12.81-4.321-19.237  c-10.661-50.486-16.332-101.933-16.688-153.564l-0.605-88.852h-15.122l0.605,88.852c0.356,51.631,6.027,103.078,16.688,153.564  c1.361,6.427,2.798,12.843,4.321,19.237c6.913,29.121,10.002,59.872,11.385,82.598c0.987,16.312-10.057,30.421-25.267,33.996  c2.431,0.575,4.962,0.881,7.563,0.881C367.922,503.897,382.947,487.932,381.803,469.019z"/>
<path style="fill:#79D3D1;" d="M180.712,411.631v0.011c-14.928-2.02-36.66-10.024-35.094-39.749  c-55.379-8.112-33.949-68.211-33.949-68.211s11.99-29.661,33.031-57.852c26.021-34.867,43.162-75.556,49.006-118.675l0.324-2.387  h72.099C266.129,124.767,154.174,352.861,180.712,411.631z"/>
<path d="M386.106,428.215c-0.574-4.437-4.652-7.559-9.073-6.994c-4.436,0.575-7.569,4.637-6.994,9.074  c1.619,12.511,2.856,25.704,3.674,39.211c0.419,6.899-1.958,13.468-6.693,18.497c-4.73,5.026-11.138,7.794-18.043,7.794  c-12.953,0-23.571-9.793-24.696-22.779c-6.202-71.518-30.8-134.188-31.844-136.822c-0.009-0.022-0.023-0.039-0.032-0.059  c-0.803-1.977-2.374-3.637-4.514-4.485c-4.16-1.646-8.866,0.386-10.514,4.544c-1.044,2.632-25.634,65.284-31.84,136.789  c-1.129,13.005-11.748,22.811-24.7,22.811c-6.909,0-13.32-2.77-18.053-7.798c-4.728-5.023-7.102-11.581-6.684-18.467  c2.05-33.859,8.736-96.208,30.482-133.356c2.261-3.862,0.962-8.824-2.899-11.083c-3.864-2.26-8.824-0.963-11.084,2.899  c-8.342,14.251-18.225,37.932-25.198,76.084c-8.246-0.377-22.682-2.584-29.526-12.942c-8.674-13.127-4.02-37.122,13.46-69.39  c2.131-3.934,0.669-8.851-3.264-10.982c-3.938-2.133-8.852-0.669-10.982,3.264c-9.844,18.174-15.983,34.228-18.415,48.082  c-8.354-2.509-14.319-6.823-18.1-13.084c-9.779-16.189-1.998-40.448-1.317-42.483c1.026-2.481,12.593-29.944,31.935-55.863  c4.972-6.662,9.687-13.618,14.014-20.676c2.337-3.814,1.142-8.802-2.673-11.141c-3.813-2.338-8.801-1.143-11.14,2.672  c-4.072,6.64-8.507,13.185-13.185,19.454c-21.416,28.697-33.541,58.409-34.046,59.659c-0.042,0.104-0.082,0.208-0.12,0.315  c-0.474,1.333-11.481,32.913,2.616,56.361c6.452,10.732,16.845,17.86,30.934,21.263c0.501,8.224,2.747,15.397,6.766,21.479  c10.234,15.488,28.808,19.314,40.416,20.111c-2.077,14.314-3.755,30.358-4.846,48.377c-0.69,11.391,3.237,22.241,11.058,30.552  c7.828,8.316,18.429,12.895,29.852,12.895c21.421,0,38.98-16.17,40.841-37.613c3.866-44.54,15.436-86.361,23.233-110.614  c7.796,24.241,19.362,66.042,23.231,110.644C309.999,495.843,327.556,512,348.98,512c11.418,0,22.017-4.579,29.841-12.892  c7.828-8.317,11.758-19.178,11.067-30.582C389.045,454.653,387.774,441.09,386.106,428.215z"/>
<path d="M387.564,249.103c-12.132-17.714-25.108-32.926-30.071-38.586l-0.588-85.803c-0.03-4.452-3.649-8.046-8.101-8.046h-50.271  V81.097c16.723-5.518,28.624-21.418,28.624-39.512C327.157,18.655,308.502,0,285.572,0c-7.304,0-14.297,1.856-20.523,5.41  C258.824,1.856,251.83,0,244.526,0c-22.93,0-41.585,18.655-41.585,41.585c0,18.093,11.901,33.993,28.624,39.512v35.571h-37.536  c-4.054,0-7.483,2.995-8.028,7.012l-0.324,2.388c-3.512,25.896-11.246,51.122-22.992,74.977c-1.977,4.014-0.325,8.87,3.69,10.847  c4.016,1.979,8.871,0.324,10.846-3.69c11.819-24.005,19.83-49.325,23.841-75.332h139.696l0.554,80.802  c0.399,58.239,7.539,116.991,21.223,174.624c1.356,5.714,2.627,11.778,3.776,18.025c0.718,3.905,4.125,6.636,7.957,6.636  c0.486,0,0.98-0.044,1.475-0.135c4.4-0.81,7.311-5.033,6.501-9.433c-1.199-6.518-2.528-12.854-3.947-18.835  c-1.176-4.955-2.284-9.92-3.362-14.891c7.155-7.688,24.646-27.81,35.214-51.296C416.782,303.633,409.394,280.976,387.564,249.103z   M247.767,116.668V74.714c0-4.024-2.953-7.438-6.935-8.017c-12.364-1.798-21.689-12.594-21.689-25.112  c0-13.996,11.387-25.383,25.383-25.383c2.507,0,4.947,0.379,7.284,1.079l-3.425,3.593c-3.087,3.238-2.966,8.366,0.272,11.454  c1.568,1.496,3.58,2.238,5.59,2.238c2.138,0,4.272-0.841,5.864-2.51l10.295-10.796c4.411-3.3,9.64-5.056,15.166-5.056  c13.996,0,25.383,11.387,25.383,25.383c0,12.518-9.325,23.314-21.689,25.112c-3.981,0.579-6.935,3.993-6.935,8.017v41.954h-34.566  V116.668z M395.375,311.719c-6.724,14.942-16.858,28.708-24.501,37.957c-7.113-37.553-11.415-75.434-12.84-113.187  c5.026,6.318,10.767,13.882,16.249,21.896C399.522,295.277,396.809,308.535,395.375,311.719z"/>
<path d="M220.763,475.802c-2.978,0-5.401-2.423-5.401-5.401c0-4.474-3.626-8.101-8.101-8.101c-4.475,0-8.101,3.627-8.101,8.101  c0,11.912,9.691,21.603,21.603,21.603c11.912,0,21.603-9.691,21.603-21.603c0-4.474-3.626-8.101-8.101-8.101  c-4.475,0-8.101,3.627-8.101,8.101C226.164,473.38,223.741,475.802,220.763,475.802z"/>
<path d="M349.3,492.004c11.912,0,21.603-9.691,21.603-21.603c0-4.474-3.626-8.101-8.101-8.101c-4.475,0-8.101,3.627-8.101,8.101  c0,2.978-2.423,5.401-5.401,5.401c-2.978,0-5.401-2.423-5.401-5.401c0-4.474-3.626-8.101-8.101-8.101  c-4.475,0-8.101,3.627-8.101,8.101C327.697,482.313,337.388,492.004,349.3,492.004z"/>
<path d="M287.192,191.725v-23.763c0-4.474-3.626-8.101-8.101-8.101s-8.101,3.627-8.101,8.101v23.763  c0,4.474,3.626,8.101,8.101,8.101S287.192,196.199,287.192,191.725z"/>
<path d="M313.655,199.826c4.475,0,8.101-3.627,8.101-8.101v-23.763c0-4.474-3.626-8.101-8.101-8.101s-8.101,3.627-8.101,8.101  v23.763C305.554,196.199,309.181,199.826,313.655,199.826z"/>
<path d="M247.365,219.857c-2.36,3.801-1.191,8.796,2.611,11.155c1.165,0.724,24.183,14.816,46.806,14.816  c4.764,0,9.515-0.625,14.035-2.132c4.245-1.415,6.538-6.002,5.123-10.247c-1.416-4.245-6.001-6.539-10.247-5.124  c-15.569,5.19-39.338-6.241-47.181-11.084C254.711,214.89,249.723,216.059,247.365,219.857z"/>
<g>
</g>
<g>
</g>
<g>
</g>
<g>
</g>
<g>
</g>
<g>
</g>
<g>
</g>
<g>
</g>
<g>
</g>
<g>
</g>
<g>
</g>
<g>
</g>
<g>
</g>
<g>
</g>
<g>
</g>
</svg>
