<?xml version="1.0" encoding="iso-8859-1"?>
<!-- Generator: Adobe Illustrator 19.0.0, SVG Export Plug-In . SVG Version: 6.00 Build 0)  -->
<svg xmlns="http://www.w3.org/2000/svg" xmlns:xlink="http://www.w3.org/1999/xlink" version="1.1" id="Layer_1" x="0px" y="0px" viewBox="0 0 511.999 511.999" style="enable-background:new 0 0 511.999 511.999;" xml:space="preserve">
<path style="fill:#FFD0B8;" d="M357.134,129.856c0,12.244-1.203,23.951-3.716,34.702c-3.813,16.379-10.654,30.567-20.879,41.114  c-2.051,2.127-4.253,4.114-6.595,5.939c-11.288,8.775-25.841,13.833-43.992,13.833c-14.993,0-29.181-3.458-41.801-9.613  c-3.329-1.611-6.541-3.426-9.634-5.402c-12.77-8.152-23.467-19.268-31.136-32.393c28.741-40.179,36.313-103.482,36.313-103.482  s12.921,21.856,38.751,31.243h0.011c7.056,2.567,15.079,4.199,24.069,4.199c24.477,0,43.455,6.057,58.534,14.628  C357.113,126.355,357.134,128.106,357.134,129.856z"/>
<g>
	<path style="fill:#50B3EA;" d="M257.153,393.454c-0.473,20.235-10.74,36.388-23.339,36.388c-12.899,0-23.36-16.948-23.36-37.859   c0-7.776,1.45-15.004,3.931-21.019C224.578,381.532,238.583,390.909,257.153,393.454z"/>
	<path style="fill:#50B3EA;" d="M316.547,377.258c1.181,4.532,1.837,9.494,1.837,14.725c0,20.911-10.45,37.859-23.36,37.859   c-12.48,0-22.662-15.863-23.317-35.829c7.271-0.397,15.133-1.804,23.596-4.446C303.809,386.913,310.812,382.682,316.547,377.258z"/>
</g>
<path style="fill:#42A6D3;" d="M436.816,320.839l24.445,45.485c0,0-38.096-14.038-69.35-34.53l9.741,39.105  c0,0-26.668-14.639-48.9-33.069c-5.026-4.156-9.827-8.506-14.027-12.931c5.95-50.973-12.459-112.225-12.781-113.288  c2.341-1.826,4.543-3.813,6.595-5.939c38.719,19.386,99.433,59.748,162.854,140.794  C495.393,346.465,470.573,340.945,436.816,320.839z"/>
<path style="fill:#50B3EA;" d="M191.573,334.361c-15.702,22.469-33.209,42.317-33.209,42.317l-9.161-32.328  c-15.273,24.509-35.937,46.827-35.937,46.827l-3.115-40.19c-23.177,29.321-54.883,54.689-54.883,54.689l8.818-50.887h-0.011  c-25.272,29.289-46.784,42.424-47.461,42.821c41.092-115.307,96.759-174.787,125.704-199.661c9.924-8.528,25.003-6.863,32.801,3.652  l23.521,31.705l30.642-20.976l1.235-1.901c14.854,9.505,32.5,15.015,51.435,15.015c18.151,0,32.704-5.059,43.992-13.833  c0.322,1.063,18.731,62.315,12.781,113.288c-1.321,11.342-3.845,22.179-8.055,31.727c-3.469,7.905-8.087,14.929-14.123,20.621v0.011  c-5.735,5.424-12.738,9.655-21.244,12.308c-8.463,2.642-16.325,4.049-23.596,4.446c-5.134,0.29-9.988,0.075-14.553-0.558  c-18.57-2.545-32.575-11.922-42.768-22.49C198.383,354.392,191.756,334.898,191.573,334.361z"/>
<path style="fill:#EFBFAB;" d="M240.152,215.832c-3.329-1.611-6.541-3.426-9.634-5.402c-12.77-8.152-23.467-19.268-31.136-32.393  c28.741-40.179,36.313-103.482,36.313-103.482s12.921,21.856,38.751,31.243C274.445,105.798,229.605,163.505,240.152,215.832z"/>
<path style="fill:#6AD3AD;" d="M230.518,210.43l-1.235,1.901l-30.642,20.976l-23.521-31.705  c9.398-5.778,17.431-14.016,24.262-23.564C207.05,191.162,217.747,202.278,230.518,210.43z"/>
<path style="fill:#7AEDC7;" d="M372.622,221.159c7.056-28.225-9.655-47.998-19.204-56.601c2.513-10.751,3.716-22.458,3.716-34.702  c0-1.751-0.021-3.501-0.075-5.23c-15.079-8.571-34.057-14.628-58.534-14.628c-8.99,0-17.023-1.633-24.08-4.199v-0.011  c-25.83-9.376-38.751-31.233-38.751-31.233l-17.152-35.604h0.011c0,0,33.467-40.802,84.966-28.676  c15.939,3.748,33.617,12.577,52.563,29.278C464.451,135.033,372.622,221.159,372.622,221.159z"/>
<g>
	<path style="fill:#6AD3AD;" d="M218.542,38.951l17.152,35.604c0,0-7.572,63.303-36.313,103.482   c-6.831,9.548-14.864,17.786-24.262,23.564c-7.797-10.515-22.877-12.179-32.801-3.652c-19.064-45.646-7.067-91.496,7.626-123.556   C161.92,48.252,190.274,33.72,218.542,38.951z"/>
	<path style="fill:#6AD3AD;" d="M274.445,105.787c-25.83-9.376-38.751-31.233-38.751-31.233l-17.152-35.604h0.011   c0,0,33.467-40.802,84.966-28.676C303.519,10.275,228.907,25.547,274.445,105.787z"/>
</g>
<path d="M501.736,341.501c-43.594-55.706-85.991-92.554-121.317-116.756c8.499-8.866,37.278-42.337,36.563-88.349  c-0.565-36.275-19.265-70.893-55.582-102.89c-3.338-2.941-8.428-2.618-11.369,0.719c-2.941,3.337-2.618,8.428,0.719,11.369  c32.712,28.821,49.575,59.401,50.12,90.89c0.443,25.475-10.03,46.97-19.424,61.043c-2.944-16.466-12.371-28.676-19.227-35.67  c1.398-7.074,2.307-14.564,2.713-22.415c5.176,3.937,9.555,7.975,13.273,11.693c3.146,3.146,8.246,3.146,11.391,0  c3.146-3.146,3.146-8.246,0-11.391c-25.436-25.436-55.227-37.8-91.076-37.8c-35.32,0-53.821-28.153-55.744-31.243l-14.58-30.271  c4.619-4.539,13.763-12.388,26.512-17.974c25.027-10.964,51.197-7.859,77.78,9.226c3.741,2.405,8.726,1.322,11.131-2.421  c2.406-3.742,1.321-8.726-2.421-11.131c-39.117-25.142-72.14-19.548-92.955-10.43c-16.225,7.109-27.542,17.326-32.733,22.645  c-30.497-3.67-60.021,12.591-72.896,40.695c-14.256,31.117-27.156,77.51-9.846,124.587c-14.12,12.658-28.062,27.738-41.503,44.914  c-2.742,3.503-2.124,8.566,1.379,11.307c1.474,1.154,3.222,1.712,4.959,1.712c2.393,0,4.761-1.061,6.35-3.091  c17.631-22.529,33.45-37.671,43.617-46.407c3.091-2.656,7.022-3.872,11.071-3.418c4.036,0.451,7.591,2.496,10.011,5.759  l23.521,31.705c2.581,3.477,7.448,4.294,11.021,1.847l28.52-19.529c15.163,8.415,32.418,13.075,50.241,13.075  c14.654,0,27.802-3.119,39.083-9.171c3.506,13.959,9.211,40.199,10.535,67.583c0.553,11.432,0.318,21.815-0.685,31.155  c-0.137,0.589-0.204,1.189-0.207,1.791c-3.741,31.191-16.382,50.33-37.782,57.017c-9.272,2.898-17.721,4.154-25.418,4.153  c-42.492-0.004-61.796-38.344-66.877-50.593c9.87-14.522,18.733-29.906,21.94-42.09c1.132-4.303-1.437-8.707-5.74-9.84  s-8.708,1.437-9.84,5.74c-5.349,20.325-30.773,53.323-44.978,70.649l-4.072-14.367c5.58-9.304,10.34-18.868,13.004-27.752  c1.278-4.261-1.14-8.751-5.4-10.03c-4.264-1.28-8.751,1.14-10.03,5.4c-5.723,19.075-23.43,43.013-35.694,58.053l-1.374-17.715  c4.916-6.407,9.418-12.991,13.132-19.561c2.189-3.873,0.824-8.788-3.049-10.977c-3.872-2.189-8.788-0.825-10.977,3.049  c-12.294,21.751-34.869,44.468-50.461,58.76l4.582-26.455c5.552-6.535,10.914-13.392,15.946-20.44  c2.585-3.621,1.746-8.651-1.874-11.236c-3.622-2.585-8.651-1.746-11.236,1.874c-5.192,7.271-10.745,14.343-16.503,21.019  c-0.071,0.083-0.14,0.166-0.207,0.251c-8.477,9.803-16.532,17.735-23.434,23.915c15.456-38.072,33.732-72.499,54.497-102.621  c2.525-3.662,1.602-8.679-2.06-11.204c-3.663-2.525-8.68-1.602-11.204,2.06c-26.305,38.156-48.695,82.903-66.551,132.999  c-1.142,3.204-0.148,6.78,2.483,8.936c1.475,1.208,3.285,1.824,5.106,1.824c1.427,0,2.861-0.379,4.144-1.148  c0.702-0.422,13.441-8.16,30.843-24.854l-4.264,24.625c-0.571,3.298,0.957,6.606,3.839,8.309c1.271,0.751,2.686,1.12,4.097,1.12  c1.79,0,3.571-0.596,5.033-1.766c1.34-1.073,22.774-18.326,43.324-40.892l1.607,20.727c0.247,3.192,2.361,5.934,5.384,6.985  c0.867,0.302,1.76,0.448,2.645,0.448c2.206,0,4.361-0.908,5.912-2.583c0.954-1.03,13.993-15.196,27.025-33.377l4.422,15.601  c0.803,2.835,3.091,5.006,5.965,5.659c0.593,0.134,1.191,0.201,1.785,0.201c2.282,0,4.493-0.972,6.04-2.726  c0.983-1.114,12.72-14.478,25.505-31.605c3.423,6.519,8.425,14.61,15.273,22.447c-1.822,5.959-2.784,12.473-2.784,19.135  c0,19.931,8.272,36.509,20.18,42.987L209.052,464.3l-7.939-7.938c-3.146-3.146-8.246-3.146-11.391,0  c-3.146,3.146-3.146,8.246,0,11.391l8.652,8.652l-24.674,14.099c-3.862,2.207-5.205,7.127-2.998,10.991  c2.207,3.862,7.127,5.205,10.99,2.998l14.456-8.26l-1.831,4.883c-1.563,4.165,0.549,8.808,4.714,10.371  c0.932,0.349,1.887,0.514,2.827,0.514c3.262,0,6.331-1.996,7.543-5.229l29.872-69.537c12.612-3.05,22.38-16.553,25.154-34.671  c2.349,15.192,9.637,27.162,19.353,32.419l-13.52,29.318l-7.938-7.938c-3.146-3.146-8.246-3.146-11.391,0  c-3.146,3.146-3.146,8.246,0,11.391l8.652,8.652l-24.674,14.099c-3.862,2.207-5.205,7.127-2.998,10.991  c2.207,3.862,7.128,5.205,10.99,2.998l14.455-8.26l-1.831,4.883c-1.563,4.165,0.549,8.808,4.714,10.371  c0.932,0.349,1.887,0.514,2.827,0.514c3.262,0,6.331-1.996,7.543-5.229l29.879-69.552c14.919-3.682,25.947-22.224,25.947-45.237  c0-4.13-0.366-8.182-1.077-12.105c3.229-3.53,6.044-7.413,8.483-11.587c9.471,6.05,16.044,9.881,16.385,10.079  c1.252,0.728,2.651,1.091,4.048,1.091c1.447,0,2.892-0.389,4.175-1.166c2.521-1.527,4.006-4.31,3.872-7.254l-0.737-16.211  c18.292,13.26,35.299,22.645,36.188,23.133c1.213,0.666,2.547,0.993,3.875,0.993c1.744,0,3.478-0.565,4.917-1.674  c2.536-1.954,3.674-5.223,2.901-8.328l-5.025-20.172c26.63,14.914,52.416,24.508,54.027,25.102c0.91,0.335,1.852,0.497,2.784,0.497  c2.289,0,4.522-0.977,6.082-2.772c2.195-2.526,2.6-6.148,1.015-9.096l-11.83-22.016c21.791,10.34,36.322,13.656,37.121,13.833  c0.583,0.13,1.17,0.192,1.75,0.192c2.725,0,5.315-1.387,6.811-3.758C504.021,347.886,503.833,344.18,501.736,341.501z   M365.652,215.076c-7.237-4.514-14.086-8.459-20.507-11.917c0.26-0.357,0.523-0.708,0.779-1.07c4.46-6.326,8.16-13.556,11.1-21.541  C363.039,188.936,367.981,200.614,365.652,215.076z M160.431,184.632c-4.717-0.529-9.465,0.066-13.86,1.662  c-13.391-40.707-1.891-81.081,10.69-108.545c9.877-21.558,32.461-34.078,55.88-31.452l14.239,29.57  c-2.007,13.786-14.245,86.833-51.273,115.266C171.634,187.566,166.196,185.276,160.431,184.632z M200.489,222.278l-13.972-18.834  c4.412-3.466,8.502-7.418,12.289-11.737c5.355,7.174,11.579,13.569,18.481,19.068L200.489,222.278z M208.991,178.21  c18.272-27.849,27.536-63.583,31.728-84.763c11.232,11.186,30.415,24.606,57.801,24.606c21.093,0,37.575,4.816,50.559,11.411  c0,0.132,0.001,0.258,0.001,0.392c0,26.319-6.541,87.533-67.126,87.533C252.639,217.389,225.131,202.494,208.991,178.21z   M218.885,385.761c7.974,6.097,17.797,11.422,29.62,14.26c-2.021,13.106-8.747,21.766-14.69,21.766  c-7.225,0-15.305-12.747-15.305-29.804C218.51,389.871,218.644,387.793,218.885,385.761z M295.023,421.787  c-5.711,0-12.236-8.156-14.484-20.588c5.445-0.793,11.157-2.07,17.161-3.945c4.595-1.436,8.779-3.279,12.624-5.441  c0,0.058,0.005,0.113,0.005,0.171C310.328,409.04,302.248,421.787,295.023,421.787z M340.623,353.498  c1.407-3.988,2.579-8.128,3.548-12.378c0.23,0.199,0.462,0.398,0.695,0.597l0.678,14.915  C344,355.66,342.351,354.611,340.623,353.498z M440.928,313.909c-7.529-4.486-15.034-9.442-22.306-14.728  c-3.598-2.614-8.636-1.819-11.253,1.779c-2.616,3.598-1.819,8.636,1.779,11.253c7.044,5.121,14.303,9.932,21.601,14.355  l12.706,23.647c-19.3-8.623-47.886-23.032-66.45-39.805c-3.302-2.983-8.395-2.724-11.377,0.577c-2.983,3.3-2.725,8.395,0.577,11.377  c5.601,5.061,11.954,9.885,18.644,14.41l4.297,17.249c-9.131-5.792-20.749-13.683-31.261-22.398  c-4.003-3.31-7.591-6.534-10.719-9.623c3.935-41.835-6.834-88.106-11.525-105.66c34.716,18.411,83.401,52.203,135.368,113.022  C462.435,325.648,452.183,320.614,440.928,313.909z"/>
<path d="M291.2,155.977c4.449,0,8.055-3.607,8.055-8.055v-14.992c0-4.449-3.607-8.055-8.055-8.055c-4.449,0-8.055,3.607-8.055,8.055  v14.992C283.145,152.37,286.751,155.977,291.2,155.977z"/>
<path d="M322.683,155.977c4.449,0,8.055-3.607,8.055-8.055v-14.992c0-4.449-3.607-8.055-8.055-8.055  c-4.449,0-8.055,3.607-8.055,8.055v14.992C314.628,152.37,318.234,155.977,322.683,155.977z"/>
<path d="M328.19,187.96c-0.743-4.858-5.505-7.846-10.103-6.582c-12.634,3.472-20.897,0.855-25.41-1.703  c-2.896-1.641-6.495-1.326-9.064,0.789l0,0c-4.373,3.602-3.727,10.434,1.201,13.231c3.246,1.843,7.403,3.595,12.495,4.603  c6.624,1.311,14.832,1.363,24.671-1.283C326.004,195.931,328.821,192.08,328.19,187.96z"/>
<path d="M263.078,333.718c0.029,0,0.059,0,0.089,0c3.19-0.035,6.059-1.949,7.315-4.881l9.852-22.988l12.861,21.765  c1.598,2.704,4.617,4.232,7.746,3.916c3.124-0.316,5.78-2.419,6.804-5.388l16.109-46.718c1.45-4.206-0.783-8.791-4.99-10.241  c-4.205-1.449-8.79,0.784-10.241,4.99l-10.427,30.239l-12.074-20.434c-1.544-2.613-4.422-4.145-7.454-3.941  c-3.028,0.195-5.69,2.076-6.886,4.865l-8.925,20.824l-16.077-35.347c-1.842-4.05-6.619-5.839-10.667-3.997  c-4.05,1.842-5.839,6.618-3.998,10.667l23.629,51.951C257.053,331.875,259.922,333.718,263.078,333.718z"/>
<g>
</g>
<g>
</g>
<g>
</g>
<g>
</g>
<g>
</g>
<g>
</g>
<g>
</g>
<g>
</g>
<g>
</g>
<g>
</g>
<g>
</g>
<g>
</g>
<g>
</g>
<g>
</g>
<g>
</g>
</svg>
