<?xml version="1.0" encoding="iso-8859-1"?>
<!-- Generator: Adobe Illustrator 19.0.0, SVG Export Plug-In . SVG Version: 6.00 Build 0)  -->
<svg xmlns="http://www.w3.org/2000/svg" xmlns:xlink="http://www.w3.org/1999/xlink" version="1.1" id="Layer_1" x="0px" y="0px" viewBox="0 0 512.002 512.002" style="enable-background:new 0 0 512.002 512.002;" xml:space="preserve">
<path style="fill:#E6E6E6;" d="M458.01,330.135c0,86.383-63.213,158.022-145.908,171.173c-8.926,1.412-18.092,2.152-27.428,2.152  c-95.731,0-173.336-77.605-173.336-173.324c0-14.824,1.856-30.673,5.363-46.886l33.645,21.781l23.785-15.405l43.368-28.077  l21.838,14.141l45.326,29.341l67.164-43.482l11.124,7.196v0.011l56.04,36.275l33.656-21.781  C456.154,299.462,458.01,315.311,458.01,330.135z"/>
<g>
	<path style="fill:#F4516D;" d="M211.757,193.837c-1.924,16.874-6.217,32.757-11.363,46.647   c-28.237-41.319-76.387-51.042-76.387-51.042c0-43.744-37.186-59.046-37.186-59.046S158.506,128.483,211.757,193.837z"/>
	<path style="fill:#F4516D;" d="M212.838,171.248c0,1.309,0,2.619,0,3.917c0,6.319-0.387,12.558-1.082,18.673   c-53.251-65.354-124.935-63.441-124.935-63.441c13.128-39.36-32.814-76.557-32.814-76.557   c49.459,5.818,84.402,23.728,109.018,45.019C190.682,122.79,205.312,151.015,212.838,171.248z"/>
</g>
<path style="fill:#46BA43;" d="M299.096,8.535c49.516,0,70.739,79.586,70.739,79.586l-0.296,0.729  c-12.023-4.873-24.98-8.904-38.609-11.932h-0.011v-0.011C331.079,39.139,299.096,8.535,299.096,8.535z"/>
<path style="fill:#CCCCCC;" d="M312.102,501.308c-8.926,1.412-18.092,2.152-27.428,2.152c-95.731,0-173.336-77.605-173.336-173.324  c0-14.824,1.856-30.673,5.363-46.886l33.645,21.781l23.785-15.405l43.368-28.077l21.838,14.141c0,0-61.494,156.178,72.755,225.608  C312.091,501.296,312.102,501.296,312.102,501.308z"/>
<path style="fill:#56D353;" d="M453.421,180.266c0,40.727-43.471,51.828-101.913,33.975c4.68,15.86,9.154,34.749,11.443,54.503  l-11.124-7.196l-67.164,43.482l-29.682-19.208v-0.011l-37.482-24.263l-43.368,28.077c6.034-7.116,17.397-25.185,26.267-49.129  v-0.011c5.146-13.891,9.439-29.774,11.363-46.647c0.695-6.114,1.082-12.353,1.082-18.673v-3.917  c-0.034-28.441-0.057-59.559,13.037-79.586c6.991-10.714,17.841-18.251,34.647-20.517c-6.797-29.853-29.944-51.998-29.944-51.998  c29.876,0,49.448,28.988,60.276,51.964c2.926,0.205,5.841,0.455,8.721,0.751c10.759,1.082,21.234,2.789,31.345,5.055h0.011  c13.629,3.029,26.586,7.059,38.609,11.932c19.606,7.913,36.742,18.024,50.325,29.603  C440.897,136.396,453.421,157.881,453.421,180.266z"/>
<path style="fill:#46BA43;" d="M294.545,79.513c0,0-58.978,69.931-39.565,206.297l-37.482-24.263l-43.368,28.077  c6.034-7.116,17.397-25.185,26.267-49.129v-0.011c5.146-13.891,9.439-29.774,11.363-46.647c0.695-6.114,1.082-12.353,1.082-18.673  v-3.917c-0.034-28.441-0.057-59.559,13.037-79.586c6.991-10.714,17.841-18.251,34.647-20.517  c-6.797-29.853-29.944-51.998-29.944-51.998c29.876,0,49.448,28.988,60.276,51.964c2.926,0.205,5.841,0.455,8.721,0.751  L294.545,79.513z"/>
<path d="M145.692,312.198c2.824,1.827,6.458,1.829,9.282,0l62.512-40.477l62.523,40.477c2.824,1.827,6.458,1.827,9.282,0  l62.522-40.477l62.523,40.477c2.823,1.826,6.456,1.827,9.28,0l23.008-14.889c1.881,11.437,2.832,22.435,2.832,32.826  c0,4.716,3.822,8.539,8.539,8.539s8.539-3.823,8.539-8.539c0-15.266-1.87-31.648-5.556-48.692c-0.593-2.742-2.493-5.017-5.086-6.088  c-2.591-1.07-5.545-0.799-7.899,0.724l-29.015,18.777l-48.062-31.116c-1.57-12.002-3.99-24.503-7.239-37.356  c34.466,8.111,62.512,5.634,79.959-7.279c11.979-8.867,18.312-22.298,18.312-38.842c0-38.008-32.362-75.057-84.776-97.48  C372.414,67.108,349.118,0,299.096,0c-3.487,0-6.625,2.121-7.924,5.359c-1.3,3.237-0.499,6.938,2.02,9.35  c0.262,0.25,23.451,22.771,28.293,51.609c-8.272-1.484-16.67-2.604-25.115-3.337c-17.268-34.281-39.947-52.37-65.801-52.37  c-3.484,0-6.613,2.12-7.915,5.351c-1.303,3.23-0.507,6.933,2.003,9.349c0.19,0.183,17.098,16.669,25.083,39.331  c-13.344,3.716-23.755,11.206-31.023,22.346c-8.767,13.409-12.216,30.788-13.567,48.872c-8.69-14.346-20.518-29.591-36.545-43.461  c-29.903-25.864-68.126-41.691-113.606-47.041c-3.756-0.441-7.377,1.66-8.857,5.158c-1.48,3.498-0.467,7.556,2.478,9.953  c0.413,0.336,41.174,34.009,30.096,67.226c-1.421,4.259,0.699,8.89,4.85,10.599c0.319,0.131,31.897,13.56,31.897,51.149  c0,4.065,2.866,7.566,6.85,8.371c0.434,0.088,42.217,8.88,68.447,43.9c-7.515,19.193-16.497,34.178-22.4,41.476l-18.022,11.67  l-29.004-18.776c-2.355-1.523-5.309-1.798-7.899-0.724c-2.593,1.07-4.494,3.346-5.087,6.088  c-3.687,17.043-5.556,33.426-5.556,48.692c0,100.28,81.589,181.864,181.875,181.864c86.859,0,161.938-61.783,178.516-146.907  c0.902-4.629-2.119-9.113-6.749-10.015c-4.626-0.901-9.113,2.12-10.014,6.749c-15.021,77.12-83.048,133.094-161.753,133.094  c-90.869,0-164.797-73.923-164.797-164.785c0-10.389,0.951-21.388,2.832-32.824L145.692,312.198z M345.468,52.318  c4.637,7.983,8.239,16.037,10.851,22.669c-5.603-1.81-11.328-3.445-17.15-4.891c-1.463-17.219-8.445-32.586-15.73-44.313  C331.259,31.668,338.619,40.529,345.468,52.318z M132.276,182.761c-1.387-17.474-8.119-30.485-15.818-39.859  c4.957,1.199,10.364,2.758,16.088,4.787c0.943,0.335,1.906,0.493,2.853,0.493c3.515,0,6.807-2.186,8.049-5.688  c1.576-4.445-0.75-9.326-5.195-10.902c-17.01-6.031-31.62-8.341-40.927-9.217c2.67-21.911-8.429-41.937-19.317-55.809  c31.115,7.023,57.752,20.006,79.421,38.749c25.863,22.38,39.709,48.781,46.857,67.482v0.187  c-13.288-13.074-28.258-23.887-44.713-32.245c-4.206-2.135-9.345-0.458-11.48,3.747c-2.136,4.205-0.459,9.345,3.746,11.48  c19.361,9.834,36.481,23.441,50.944,40.462c-1.246,9.097-3.195,17.928-5.592,26.287  C174.184,197.315,145.145,186.522,132.276,182.761z M221.366,175.164l-0.002-3.898c-0.026-26.732-0.056-57.031,11.651-74.937  c4.821-7.389,11.582-12.331,20.515-14.992c0.639,6.51,0.25,12.858-1.21,18.947c-1.101,4.586,1.726,9.195,6.311,10.295  c0.671,0.161,1.34,0.238,1.999,0.238c3.859,0,7.357-2.634,8.297-6.549c2.694-11.23,2.665-23.014-0.084-35.017  c-2.857-12.538-8.291-23.743-13.904-32.791c9.183,6.879,18.941,18.678,28.178,38.292c6.673,14.163,9.902,26.073,9.935,26.193  c1.218,4.553,5.896,7.262,10.45,6.044c4.558-1.215,7.266-5.894,6.05-10.452c-0.099-0.372-1.78-6.601-5.219-15.548  c8.359,1.03,16.637,2.454,24.738,4.265c13.006,2.891,25.54,6.763,37.267,11.515c10.459,4.22,20.057,9.021,28.686,14.277  c-2.162,1.255-4.177,2.794-5.992,4.608c-3.335,3.335-3.335,8.742,0.001,12.077c3.334,3.335,8.741,3.334,12.076,0  c2.257-2.258,5.26-3.502,8.454-3.502c1.974,0,3.875,0.478,5.573,1.375c13.85,12.006,23.309,25.422,27.416,39.216  c-1.922-0.227-3.947,0.18-5.76,1.462c-3.153,2.229-4.386,6.466-2.988,10.051c1.265,3.244,4.465,5.442,7.952,5.442  c1.082,0,2.127-0.219,3.097-0.606c-0.205,10.623-4.023,18.77-11.374,24.213c-15.171,11.229-44.118,11.488-79.423,0.713  c-0.023-0.007-0.044-0.017-0.067-0.024c-24.726-7.534-51.597-20.323-77.707-36.985c-3.974-2.537-9.254-1.372-11.791,2.605  c-2.538,3.976-1.371,9.255,2.605,11.792c25.849,16.496,52.52,29.404,77.447,37.512c3.092,10.961,5.573,21.669,7.425,32.027  c-1.665-0.03-3.335,0.418-4.791,1.361l-62.522,40.477l-62.523-40.477c-2.824-1.827-6.458-1.829-9.282,0l-12.432,8.05  C211.303,239.384,221.366,208.101,221.366,175.164z"/>
<path d="M331.134,127.729c2.259-2.259,5.261-3.502,8.455-3.502c3.194,0,6.195,1.243,8.453,3.502  c1.668,1.667,3.853,2.501,6.039,2.501c2.185,0,4.371-0.833,6.038-2.5c3.336-3.335,3.336-8.742,0.001-12.077  c-5.483-5.483-12.775-8.504-20.53-8.504c-7.755,0-15.046,3.021-20.53,8.504c-3.336,3.335-3.336,8.742-0.001,12.077  C322.395,131.062,327.802,131.064,331.134,127.729z"/>
<path d="M411.013,188.604c4.11,0,7.697-3.051,8.406-7.083c1.28-7.265-7.055-12.629-13.154-8.562  c-3.215,2.144-4.596,6.34-3.294,9.977C404.171,186.293,407.445,188.604,411.013,188.604z"/>
<g>
</g>
<g>
</g>
<g>
</g>
<g>
</g>
<g>
</g>
<g>
</g>
<g>
</g>
<g>
</g>
<g>
</g>
<g>
</g>
<g>
</g>
<g>
</g>
<g>
</g>
<g>
</g>
<g>
</g>
</svg>
