<?xml version="1.0" encoding="iso-8859-1"?>
<!-- Generator: Adobe Illustrator 19.0.0, SVG Export Plug-In . SVG Version: 6.00 Build 0)  -->
<svg xmlns="http://www.w3.org/2000/svg" xmlns:xlink="http://www.w3.org/1999/xlink" version="1.1" id="Layer_1" x="0px" y="0px" viewBox="0 0 511.996 511.996" style="enable-background:new 0 0 511.996 511.996;" xml:space="preserve">
<path style="fill:#FFD0B8;" d="M319.157,342.596c-0.86,3.905-1.963,7.736-3.353,11.439c-24.608,8.15-50.511,10.994-76.032,8.521  c-13.371-1.284-26.625-4.032-39.539-8.235h-0.011c-1.528-3.703-2.833-7.598-3.863-11.641c-4.648-18.22-3.979-39.634,3.693-61.494  c0.032-0.074,0.053-0.117,0.053-0.117c1.677-4.796,3.703-9.625,6.091-14.442c9.784,5.773,20.587,9.858,31.93,11.949  c12.543,2.303,25.744,2.165,38.977-0.806c2.366-0.541,4.648-1.146,6.855-1.804c3.512,4.181,8.447,7.269,14.23,8.447  c6.76,1.379,14.188,1.815,21.128,1.762c0.149,0.891,0.286,1.804,0.424,2.738C322.053,304.638,323.2,324.408,319.157,342.596z"/>
<path style="fill:#E2B39F;" d="M239.771,362.557c-13.371-1.284-26.625-4.032-39.539-8.235h-0.011  c-1.528-3.703-2.833-7.598-3.863-11.641c-4.648-18.22-3.979-39.634,3.693-61.494c0.032-0.074,0.053-0.117,0.053-0.117  c1.677-4.796,3.703-9.625,6.091-14.442c9.784,5.773,20.587,9.858,31.93,11.949C237.659,279.287,214.887,314.327,239.771,362.557z"/>
<path style="fill:#52CBCE;" d="M402.352,437.983c-3.258-11.079-9.158-16.724-15.62-19.313c-12.978-5.189-28.227,1.984-28.927,2.324  c1.093-1.061,36.058-35.422,36.058-128.39C393.862,292.604,434.187,367.946,402.352,437.983z"/>
<path style="fill:#3EADAD;" d="M402.352,437.984l-1.358,0.393c-16.681,4.765-34.467-2.388-43.211-17.371c0,0,0.011,0,0.021-0.011  C358.855,420.486,392.536,404.642,402.352,437.984z"/>
<path style="fill:#FFD0B8;" d="M380.28,360.625c0,0-43.794-0.944-60.805-17.955l-0.318-0.074  c4.043-18.188,2.897-37.958,0.584-53.684C329.418,307.249,355.183,351.966,380.28,360.625z"/>
<path style="fill:#F7B348;" d="M319.316,286.174c-6.94,0.053-14.368-0.382-21.128-1.762c-5.783-1.178-10.718-4.266-14.23-8.447  c-5.391-6.378-7.513-15.281-4.467-23.77c2.133-5.911,6.579-10.845,15.376-11.471c9.667-0.69,15.291,7.046,20.502,16.162  c7.439,12.999,14.039,28.832,30.392,27.113C345.76,283.999,333.578,286.1,319.316,286.174z"/>
<path style="fill:#FFD0B8;" d="M315.368,256.886c-5.21-9.115-10.835-16.851-20.502-16.162c-8.797,0.626-13.243,5.561-15.376,11.471  c-3.046,8.489-0.923,17.392,4.467,23.77c-2.207,0.658-4.489,1.263-6.855,1.804c-13.222,2.971-26.423,3.109-38.966,0.807  c-11.344-2.091-22.146-6.176-31.941-11.949c-15.79-9.317-28.938-23.059-37.459-39.942c-2.133,2.791-4.945,4.765-8.256,5.507  c-9.572,2.144-19.685-6.632-22.603-19.61c-2.918-12.967,2.462-25.245,12.023-27.389c2.823-0.637,5.698-0.308,8.415,0.785h0.011  c5.518,14.485,37.173,26.02,37.173,26.02c-12.044-38.308,16.321-70.907,16.321-70.907c3.396,0,6.834-0.976,9.89-3.003  c4.818-3.226,7.64-8.436,7.938-13.901c0,0,6.643,2.929,16.947,5.189c16.586,3.661,42.648,5.592,65.739-9.137  c8.235,12.798,14.262,28.418,18.146,45.651C338.565,201.833,335.169,235.45,315.368,256.886z"/>
<path style="fill:#FCE0D4;" d="M330.482,165.912c-3.882-17.223-9.905-32.832-18.134-45.623c-4.003,2.553-8.095,4.595-12.211,6.224  c6.358,11.506,11.161,24.875,14.434,39.398c6.811,30.272,5.469,58.894-6.967,79.969c2.91,2.918,5.39,6.793,7.776,10.968  C335.169,235.427,338.562,201.832,330.482,165.912z"/>
<path style="fill:#BC6D1E;" d="M324.25,441.645c-6.356,6.356-12.373,7.927-17.605,7.131l1.804,22.263h-38.669l-7.874-35.125  c-1.825-8.118,3.661-16.077,11.906-17.255l0.085-0.011l-6.484-25.107c-6.94,1.242-13.572,1.326-19.844,0.414l-6.356,24.693  l0.074,0.011c8.245,1.178,13.731,9.137,11.917,17.255l-7.874,35.125h-38.679l1.008-12.479l0.785-9.784  c-5.221,0.796-11.238-0.785-17.594-7.131c-17.764-17.774,9.561-66.694,15.1-76.16c-2.165-3.481-4.085-7.216-5.72-11.163  c12.914,4.202,26.168,6.951,39.539,8.235c25.521,2.473,51.424-0.371,76.032-8.521c-1.613,4.351-3.629,8.532-6.08,12.437  C316.334,377.922,341.473,424.423,324.25,441.645z"/>
<polygon style="fill:#666666;" points="308.449,471.039 311.113,504.042 291.407,493.09 277.177,504.042 269.781,471.039   308.439,471.039 "/>
<path style="fill:#F7B348;" d="M291.725,97.839c7.959,5.783,14.835,13.392,20.608,22.401c-37.427,23.887-82.686,3.948-82.686,3.948  c0.159-2.855-0.382-5.783-1.677-8.532c-2.982-6.271-7.142-13.954-12.596-21.658c5.656-2.568,11.641-4.627,17.912-6.102  c0.34-0.085,0.69-0.17,1.04-0.244c10.283-2.313,19.77-2.727,28.46-1.517c-0.244,2.441-0.552,4.796-0.902,7.004  c-0.117,0.785-0.18,1.571-0.18,2.345c0,7.693,5.911,14.315,13.806,14.994c7.449,0.637,14.262-4.266,15.971-11.535  C291.566,98.581,291.651,98.221,291.725,97.839z"/>
<g>
	<path style="fill:#666666;" d="M291.725,97.839c-0.074,0.382-0.159,0.743-0.244,1.104c-1.708,7.269-8.521,12.172-15.971,11.535   c-7.895-0.679-13.806-7.301-13.806-14.994c0-0.775,0.064-1.56,0.18-2.345c0.35-2.207,0.658-4.563,0.902-7.004   c1.539-15.61,0.212-35.029-13.371-44.049c-4.659-3.088-8.861-4.107-12.426-3.619c-15.238,2.112-18.889,31.835,3.619,46.734   c-2.504,1.135-4.966,1.974-7.364,2.526c-20.417,4.659-36.419-11.312-37.268-33.947c-0.669-17.976,19.387-50.819,52.952-45.248   h0.032c6.569,1.104,13.668,3.682,21.234,8.129C301.615,35.134,296.341,77.528,291.725,97.839z"/>
	<polygon style="fill:#666666;" points="245.331,471.039 237.935,504.042 223.694,493.09 203.988,504.042 206.652,471.039  "/>
	<path style="fill:#666666;" d="M229.647,124.187c-0.297,5.465-3.12,10.675-7.938,13.901c-3.056,2.027-6.494,3.003-9.89,3.003   c-6.176,0-12.203-3.194-15.504-8.999c-2.992-5.263-6.728-11.11-11.132-16.618c-9.741-12.203-22.72-22.709-38.043-21.372   c-7.078,0.615-11.959,3.205-14.92,6.866c-11.439,14.103,5.783,44.081,36.409,38.053v0.011c-1.899,3.767-3.555,7.683-4.945,11.683   l-0.011,0.011c-15.652,16.554-40.632,12.978-57.324-6.399c-15.291-17.775-14.262-74.292,30.371-85.318   c3.82-0.944,7.969-1.56,12.447-1.783c31.219-1.56,52.687,17.732,66.206,36.769c5.454,7.704,9.614,15.387,12.596,21.658   C229.265,118.404,229.807,121.333,229.647,124.187z"/>
</g>
<path style="fill:#E0993B;" d="M196.316,132.093c3.3,5.805,9.328,8.999,15.504,8.999c0,0-28.365,32.599-16.321,70.907  c0,0-31.655-11.535-37.173-26.02h-0.011c-0.424-12.193,1.475-24.12,5.359-35.252l0.011-0.011c1.39-4.001,3.046-7.916,4.945-11.683  v-0.011c2.037-4.064,4.351-7.98,6.94-11.705c0-0.011,0-0.011,0-0.021c2.897-4.181,6.102-8.129,9.614-11.821  C189.588,120.983,193.324,126.83,196.316,132.093z"/>
<path style="fill:#E2B39F;" d="M238.137,278.565v0.011c-11.344-2.091-22.146-6.176-31.941-11.949  c-15.79-9.317-28.938-23.059-37.459-39.942c-2.133,2.791-4.945,4.765-8.256,5.507c-9.572,2.144-19.685-6.632-22.603-19.61  c-2.918-12.967,2.462-25.245,12.023-27.389c2.823-0.637,5.698-0.308,8.415,0.785h0.011c5.518,14.485,37.173,26.02,37.173,26.02  c-12.044-38.308,16.321-70.907,16.321-70.907c3.396,0,6.834-0.976,9.89-3.003c4.818-3.226,7.64-8.436,7.938-13.901  c0,0,6.643,2.929,16.947,5.189C246.594,129.376,184.919,179.718,238.137,278.565z"/>
<path style="fill:#FFD0B8;" d="M200.051,281.187c-7.672,21.86-8.341,43.274-3.693,61.494c-17.01,16.989-60.783,17.944-60.783,17.944  C166.572,349.939,198.566,284.253,200.051,281.187z"/>
<path style="fill:#CCCCCC;" d="M229.647,124.187c-0.297,5.465-3.12,10.675-7.938,13.901c-16.586-52.559-72.541-80.861-72.541-80.861  c31.219-1.56,52.687,17.732,66.206,36.769c5.454,7.704,9.614,15.387,12.596,21.658C229.265,118.404,229.807,121.333,229.647,124.187  z"/>
<g>
	<path style="fill:#4D4D4D;" d="M168.63,139.022v0.011c-1.899,3.767-3.555,7.683-4.945,11.683l-0.011,0.011   c-15.652,16.554-40.632,12.978-57.324-6.399c-15.291-17.775-14.262-74.292,30.371-85.318c-3.672,5.019-18.804,27.654-4.499,41.958   C120.783,115.072,138.005,145.05,168.63,139.022z"/>
	<path style="fill:#4D4D4D;" d="M248.929,8.531v0.021c0,0-19.6,12.511-11.938,29.914c-15.238,2.112-18.889,31.835,3.619,46.734   c-2.504,1.135-4.966,1.974-7.364,2.526c-20.417,4.659-36.419-11.312-37.268-33.947C195.308,35.803,215.364,2.96,248.929,8.531z"/>
</g>
<path style="fill:#CCCCCC;" d="M291.725,97.839c-0.074,0.382-0.159,0.743-0.244,1.104c-1.708,7.269-8.521,12.172-15.971,11.535  c18.114-70.62-26.582-101.925-26.582-101.925l0.032-0.021c6.569,1.104,13.668,3.682,21.234,8.129  C301.615,35.134,296.341,77.528,291.725,97.839z"/>
<path style="fill:#A05818;" d="M208.445,448.776c-5.221,0.796-11.238-0.785-17.594-7.131c-17.764-17.774,9.561-66.694,15.1-76.16  c-2.165-3.481-4.085-7.216-5.72-11.163c12.914,4.202,26.168,6.951,39.539,8.235C239.771,362.557,193.451,426.512,208.445,448.776z"/>
<path style="fill:#3EADAD;" d="M386.731,418.671c-12.978-5.189-28.227,1.984-28.927,2.324c1.093-1.061,36.058-35.422,36.058-128.39  C393.862,292.604,406.766,382.474,386.731,418.671z"/>
<path d="M235.969,300.063c-1.257-3.15-4.569-5.136-7.931-4.892c-3.177,0.23-5.972,2.415-6.964,5.438  c-1.027,3.128,0.013,6.712,2.622,8.746c2.705,2.107,6.485,2.249,9.344,0.364C236.154,307.666,237.426,303.504,235.969,300.063z"/>
<path d="M298.832,301.548c-0.69-3.323-3.447-5.929-6.833-6.34c-3.164-0.384-6.328,1.201-7.894,3.977  c-3.54,6.273,2.796,13.864,9.599,11.406C297.411,309.253,299.538,305.393,298.832,301.548z"/>
<path d="M248.108,165.194c-1.064-4.266-5.39-6.857-9.649-5.795c-4.265,1.064-6.859,5.384-5.794,9.649l3.279,13.137  c0.903,3.618,4.148,6.034,7.716,6.034c0.639,0,1.287-0.077,1.933-0.239c4.265-1.064,6.859-5.384,5.794-9.649L248.108,165.194z"/>
<path d="M301.683,176.175c0.639,0,1.287-0.077,1.933-0.239c4.265-1.064,6.859-5.384,5.794-9.649l-3.279-13.137  c-1.064-4.265-5.391-6.859-9.649-5.795c-4.265,1.064-6.859,5.384-5.794,9.649l3.279,13.137  C294.871,173.76,298.116,176.175,301.683,176.175z"/>
<path d="M260.763,204.592c-4.204-1.291-8.654,1.07-9.945,5.272c-1.29,4.202,1.071,8.655,5.272,9.944  c6.283,1.929,12.722,2.875,19.09,2.875c13.262,0,26.209-4.104,36.746-11.969c3.522-2.63,4.247-7.616,1.616-11.139  c-2.63-3.523-7.616-4.246-11.138-1.617C290.862,206.576,275.293,209.054,260.763,204.592z"/>
<path d="M400.879,288.848c-1.721-3.217-5.413-4.855-8.953-3.964c-3.54,0.887-6.023,4.07-6.023,7.72  c0,23.645-2.277,43.291-5.649,59.419c-13.952-6.536-31.722-27.786-48.875-58.376c8.959-0.654,15.359-1.742,15.732-1.807  c4.231-0.73,7.12-4.684,6.53-8.936s-4.447-7.269-8.715-6.822c-8.293,0.873-12.688-5.198-19.924-18.267  c17.213-22.07,21.931-55.039,13.239-93.675c-4.22-18.731-10.685-34.951-19.209-48.196c-5.39-8.412-11.607-15.544-18.506-21.303  c2.082-10.732,3.697-24.98,1.837-39.121C299.6,34.534,290.136,19.15,274.226,9.796C253.788-2.224,233.1-3.215,215.977,7.003  c-18.872,11.263-28.488,32.657-27.955,47.074c0.054,1.445,0.177,2.866,0.337,4.272c-12.248-6.684-25.554-9.771-39.589-9.071  c-25.165,1.255-44.161,13.924-53.49,35.67c-9.425,21.97-7.214,50.332,5.038,64.574c10.501,12.189,24.474,19.364,38.338,19.685  c0.324,0.007,0.645,0.011,0.968,0.011c4.057,0,8.011-0.613,11.791-1.762c-0.467,3.178-0.801,6.374-0.971,9.588  c-0.768,0.086-1.53,0.213-2.285,0.383c-7.052,1.581-12.972,6.759-16.239,14.204c-2.947,6.719-3.59,14.78-1.808,22.697  c3.941,17.522,18.039,28.783,32.112,25.63c1.416-0.317,2.785-0.777,4.094-1.369c2.334,3.733,4.903,7.321,7.685,10.728  c1.573,1.927,3.863,2.926,6.17,2.926c1.769,0,3.551-0.587,5.028-1.793c3.404-2.779,3.913-7.793,1.131-11.198  c-4.065-4.981-7.596-10.415-10.493-16.153c-1.235-2.446-3.642-4.084-6.37-4.338c-2.72-0.251-5.395,0.916-7.058,3.092  c-1.072,1.402-2.308,2.268-3.671,2.573c-4.518,1.013-11.015-4.319-13.1-13.591c-1.027-4.562-0.715-9.23,0.855-12.808  c0.711-1.621,2.325-4.435,5.154-5.069c0.407-0.092,0.833-0.116,1.266-0.107c9.12,14.789,34.477,24.666,39.857,26.627  c0.888,0.324,1.809,0.482,2.723,0.482c2.015,0,3.995-0.766,5.502-2.206c2.189-2.094,3-5.25,2.092-8.139  c-8.797-27.978,7.248-53.221,12.888-60.912c3.594-0.59,7.045-1.933,10.159-3.998c3.825-2.562,6.857-6.092,8.846-10.139  c7.839,2.443,20.359,5.429,34.763,5.429c12.444,0,26.288-2.25,39.707-8.99c5.673,10.431,10.126,22.716,13.261,36.637  c6.968,30.971,4.492,57.292-6.864,75.509c-4.75-5.832-11.576-11.07-21.548-10.361c-10.768,0.766-18.686,6.7-22.304,16.723  c-2.512,7.002-2.466,14.408-0.09,21.188c-21.23,3.917-42.997,0.095-61.668-10.924c-3.616-2.134-7.114-4.544-10.395-7.163  c-3.436-2.742-8.444-2.181-11.185,1.255c-2.742,3.435-2.181,8.443,1.255,11.186c1.986,1.585,4.043,3.104,6.148,4.548  c-1.2,2.777-2.306,5.572-3.296,8.368c-10.786,22.188-36.238,65.096-57.982,74.424c-6.087-0.95-20.933-2.11-30.022,6.993  c-3.106,3.11-3.103,8.15,0.007,11.256s8.15,3.103,11.255-0.007c2.13-2.132,6.157-2.864,10.016-2.936l-1.561,7.793  c-0.863,4.31,1.931,8.503,6.242,9.366c0.527,0.106,1.053,0.156,1.571,0.156c3.715,0,7.039-2.615,7.796-6.398l2.072-10.349  c11.206-0.787,33.814-3.489,50.011-12.675c0.229,0.589,0.451,1.181,0.691,1.764c0.028,0.066,0.066,0.123,0.096,0.188  c1.14,2.735,2.412,5.407,3.813,7.981c-2.584,4.654-6.086,11.358-9.451,19.054c-1.76,4.027,0.076,8.72,4.105,10.48  c1.038,0.453,2.119,0.669,3.183,0.669c3.067,0,5.99-1.783,7.297-4.773c4.364-9.982,9.087-18.327,10.916-21.451  c0.577-0.986,0.918-2.065,1.037-3.161c14.329,3.306,29.024,4.967,43.719,4.967c14.861,0,29.718-1.699,44.196-5.077  c-0.044,1.452,0.303,2.914,1.057,4.219c14.344,24.841,25.403,55.954,15.793,65.565c-5.671,5.67-9.52,5.083-10.788,4.89  c-1.532-0.231-3.16-0.877-4.835-1.916c-3.734-2.319-8.642-1.172-10.96,2.564c-2.319,3.734-1.17,8.641,2.564,10.96  c1.494,0.927,3.014,1.703,4.546,2.341l0.665,8.226h-23.665l-6.481-28.912c-0.391-1.735-0.049-3.499,0.962-4.964  c1.011-1.467,2.54-2.413,4.251-2.657c2.271-0.284,4.309-1.531,5.594-3.424c1.285-1.893,1.696-4.248,1.124-6.464l-6.484-25.107  c-1.04-4.03-5.017-6.575-9.108-5.844c-5.91,1.058-11.73,1.182-17.296,0.372c-4.028-0.584-7.841,1.955-8.854,5.892l-6.355,24.693  c-0.563,2.191-0.132,4.525,1.126,6.407c1.256,1.882,3.291,3.146,5.531,3.466c1.764,0.251,3.293,1.198,4.306,2.665  c1.014,1.469,1.358,3.236,0.971,4.969l-6.479,28.906h-23.684l0.662-8.214c1.543-0.641,3.072-1.422,4.577-2.358  c3.732-2.323,4.873-7.231,2.55-10.963c-2.324-3.732-7.233-4.873-10.963-2.55c-1.672,1.041-3.293,1.682-4.814,1.906  c-0.007,0.001-0.015,0.003-0.022,0.004c-0.006,0.001-0.013,0.001-0.019,0.002c-1.261,0.192-5.091,0.775-10.766-4.89  c-4.869-4.871-3.908-14.948-2.245-22.543c0.94-4.293-1.779-8.537-6.073-9.476c-4.295-0.94-8.536,1.779-9.476,6.072  c-3.654,16.69-1.455,29.205,6.542,37.205c5.13,5.122,10.16,7.714,14.639,8.863l-3.812,47.261c-0.237,2.926,1.157,5.743,3.624,7.332  c2.469,1.59,5.609,1.69,8.175,0.265l15.133-8.411l10.095,7.762c2.154,1.656,5.007,2.1,7.561,1.175  c2.556-0.925,4.462-3.09,5.058-5.743l11.856-52.892l11.854,52.892c0.595,2.653,2.501,4.819,5.059,5.743  c0.881,0.318,1.797,0.475,2.707,0.475c1.732,0,3.443-0.565,4.855-1.651l10.084-7.76l15.131,8.41  c2.567,1.425,5.707,1.324,8.175-0.265c2.467-1.589,3.861-4.407,3.624-7.332l-3.82-47.264c4.488-1.148,9.523-3.734,14.654-8.865  c19.076-19.076,0.358-60.181-10.987-80.748c1.652-3.075,3.116-6.324,4.363-9.694c0.151-0.402,0.289-0.819,0.434-1.227  c17.5,9.92,42.457,12.267,52.458,12.817c-9.621,32.594-23.011,46.014-23.886,46.863c-0.002,0.002-0.003,0.004-0.005,0.006  c-2.575,2.488-3.231,6.495-1.346,9.727c8.387,14.373,23.624,22.782,39.646,22.782c4.197,0,8.451-0.577,12.647-1.776l1.358-0.393  c2.233-0.645,4.074-2.236,5.036-4.353c4.024-8.853,7.152-18.249,9.3-27.925c0.951-4.291-1.755-8.541-6.047-9.494  c-4.287-0.952-8.541,1.755-9.493,6.047c-0.682,3.077-1.502,6.11-2.404,9.111c-2.9-3.12-6.306-5.563-10.219-7.293  c-4.763-2.107-9.679-2.879-14.306-2.899c8.623-14.964,18.984-39.97,23.323-78.091c4.206,15.279,7.608,34.42,6.744,54.836  c-0.186,4.391,3.224,8.102,7.615,8.289c4.397,0.171,8.102-3.224,8.289-7.615C424.616,333.851,401.85,290.662,400.879,288.848z   M224.136,20.672c12.075-7.206,26.606-6.221,42.025,2.848c11.297,6.643,28.633,24.901,17.804,72.555  c-0.018,0.08-0.035,0.159-0.051,0.239c-0.054,0.277-0.117,0.539-0.18,0.809c-0.797,3.393-4.042,5.728-7.541,5.426  c-3.661-0.315-6.528-3.418-6.528-7.064c0-0.362,0.031-0.757,0.082-1.097c0.386-2.435,0.71-4.945,0.961-7.471  c2.436-24.71-3.403-42.505-16.892-51.462c-5.782-3.835-10.891-5.058-15.052-5.058c-3.899,0-6.967,1.073-8.984,2.077  c-7.526,3.746-12.395,12.098-13.025,22.342c-0.465,7.561,1.544,17.124,7.622,25.676c-3.676-0.334-7.079-1.661-10.059-3.946  c-6.231-4.782-10.018-13.187-10.389-23.058C203.615,44.971,210.46,28.832,224.136,20.672z M255.325,77.564  c-3.646-0.101-7.362,0.035-11.137,0.42c-9.089-6.435-11.95-15.613-11.544-22.194c0.264-4.297,1.965-7.941,4.231-9.069  c2.547-1.269,6.196,0.706,8.139,1.994C253.447,54.315,255.51,66.356,255.325,77.564z M169.028,122.764  c-0.084,0.12-0.163,0.243-0.24,0.367c-1.89,2.743-3.659,5.625-5.302,8.598c-12.667,1.146-19.776-5.656-22.371-8.849  c-4.004-4.929-5.524-11.004-3.782-15.118c1.747-4.128,6.676-5.394,10.5-5.729c8.776-0.767,17.772,3.738,26.788,13.381  C172.659,117.783,170.781,120.233,169.028,122.764z M184.787,198.528c-8.202-4.288-15.968-9.6-18.534-14.342  c-0.186-10.399,1.426-20.673,4.842-30.564c0.038-0.097,0.074-0.195,0.109-0.294c1.279-3.677,2.805-7.282,4.534-10.714  c0.041-0.084,0.083-0.169,0.122-0.254c1.856-3.678,3.957-7.21,6.246-10.501c0.082-0.118,0.16-0.239,0.237-0.361  c0.752-1.076,1.536-2.132,2.333-3.175c1.609,2.433,3.187,5,4.722,7.701c2.287,4.022,5.582,7.28,9.465,9.531  C192.025,156.527,182.897,175.817,184.787,198.528z M217.31,131.455c-1.654,1.097-3.553,1.677-5.49,1.677  c-3.605,0-6.815-1.859-8.586-4.974c-3.729-6.557-7.71-12.497-11.83-17.649c-13.994-17.53-29.12-25.715-44.957-24.336  c-15.595,1.367-21.586,10.223-23.77,15.379c-4.098,9.68-1.766,21.697,6.087,31.362c6.708,8.257,16.203,13.29,26.811,14.535  c-4.717,3.975-10.407,5.991-16.548,5.843c-9.369-0.216-19.081-5.378-26.643-14.156c-7.269-8.448-10.072-30.203-2.475-47.914  c4.813-11.221,15.601-24.847,39.657-26.047c1.049-0.053,2.093-0.079,3.129-0.079c21.5,0,40.391,11.259,56.183,33.499  c4.38,6.187,8.385,13.076,11.891,20.45c0.697,1.481,1.02,3.106,0.93,4.708C221.533,126.849,219.88,129.735,217.31,131.455z   M237.184,118.502c-0.405-2.15-1.08-4.257-2.025-6.264c-2.385-5.017-4.981-9.831-7.757-14.399c2.535-0.841,5.106-1.584,7.707-2.196  c0.036-0.008,0.072-0.017,0.109-0.027c0.248-0.063,0.506-0.125,0.857-0.201c6.148-1.384,12.093-2.027,17.771-1.96  c-0.061,0.683-0.1,1.363-0.1,2.027c0,11.837,9.261,21.907,21.086,22.924c0.652,0.055,1.3,0.083,1.944,0.083  c6.831,0,13.188-3.086,17.495-8.071c2.222,2.178,4.348,4.566,6.38,7.141C275.413,129.254,247.667,122.028,237.184,118.502z   M232.898,490.128l-4.352-3.347c-2.517-1.936-5.941-2.19-8.719-0.647l-6.71,3.729l0.875-10.865h21.399L232.898,490.128z   M257.552,420.138c-1.814-2.618-4.16-4.793-6.853-6.406l2.896-11.251c2.603,0.094,5.225,0.04,7.866-0.162l2.946,11.408  C261.716,415.338,259.366,417.515,257.552,420.138z M295.274,486.133c-2.777-1.543-6.204-1.288-8.721,0.649l-4.34,3.339  l-2.494-11.124h21.385l0.879,10.865L295.274,486.133z M286.976,254.896c1.481-4.106,3.932-5.912,8.456-6.234  c0.187-0.013,0.371-0.02,0.554-0.02c4.048,0,7.39,3.3,12.474,12.196c0.798,1.394,1.585,2.823,2.378,4.257  c2.294,4.158,4.878,8.84,8.07,13.121c-7.268,0.037-13.73-0.501-19.133-1.603c-3.796-0.774-7.25-2.822-9.741-5.785  C286.178,266.264,285.036,260.303,286.976,254.896z M185.507,322.454c0.01-0.014,0.019-0.029,0.029-0.042  c0.194,5.87,0.857,11.656,2.001,17.312c-5.768,4.136-14.022,7.041-22.443,9.033C171.726,341.711,178.542,332.933,185.507,322.454z   M206.274,347.873c-0.846-2.356-1.591-4.75-2.203-7.16c-4.536-17.785-3.33-37.458,3.491-56.89c0.016-0.045,0.04-0.083,0.056-0.127  c0.707-2.02,1.489-4.043,2.324-6.059c14.329,6.924,29.9,10.485,45.664,10.485c7.754,0,15.552-0.858,23.271-2.595  c0.909-0.208,1.821-0.44,2.733-0.672c4.264,3.661,9.436,6.224,14.987,7.355c4.73,0.965,10.026,1.569,15.809,1.808  c2.238,17.614,1.895,33.744-1.022,46.867c-0.514,2.337-1.126,4.596-1.814,6.779C276.136,357.899,239.753,357.975,206.274,347.873z   M327.887,339.415c0.984-5.622,1.596-11.554,1.821-17.787c7.658,11.631,14.737,20.467,21.093,27.144  C342.155,346.73,333.682,343.727,327.887,339.415z M384.325,426.291c2.6,1.157,4.777,3.004,6.569,5.565  c-7.028,0.077-13.837-2.321-19.247-6.724C375.8,424.515,380.416,424.552,384.325,426.291z"/>
<g>
</g>
<g>
</g>
<g>
</g>
<g>
</g>
<g>
</g>
<g>
</g>
<g>
</g>
<g>
</g>
<g>
</g>
<g>
</g>
<g>
</g>
<g>
</g>
<g>
</g>
<g>
</g>
<g>
</g>
</svg>
