<?xml version="1.0" encoding="iso-8859-1"?>
<!-- Generator: Adobe Illustrator 19.0.0, SVG Export Plug-In . SVG Version: 6.00 Build 0)  -->
<svg xmlns="http://www.w3.org/2000/svg" xmlns:xlink="http://www.w3.org/1999/xlink" version="1.1" id="Layer_1" x="0px" y="0px" viewBox="0 0 512 512" style="enable-background:new 0 0 512 512;" xml:space="preserve">
<g>
	<path style="fill:#E8BB54;" d="M303.846,503.767h-56.418c-5.529,0-10.059-4.366-10.268-9.884c-0.033-0.779-0.044-1.558-0.044-2.337   c0-12.604,3.839-24.945,11.047-35.345l16.279-23.508l2.819-4.081l-35.575-42.727l57.603-0.724l10.674,44.965l0.45,1.92   l-29.728,43.451l7.229,0.494C292.514,477.001,303.846,489.133,303.846,503.767z"/>
	<path style="fill:#E8BB54;" d="M340.503,265.202c18.626-18.065,47.153-52.641,47.153-94.991c0,0,21.999,96.249-34.129,142.647"/>
</g>
<path style="fill:#F4516D;" d="M369.182,368.762c-48.903,15.895-100.319,21.227-150.901,16.005  c-25.571-2.633-50.933-7.975-75.659-16.005l16.488-55.387l13.888-46.72l70.898-238.221h24.002L369.182,368.762z"/>
<path style="fill:#DB4565;" d="M256.928,28.434l-38.647,356.333c-25.571-2.633-50.933-7.975-75.659-16.005l16.488-55.387  l13.888-46.72l70.898-238.221L256.928,28.434L256.928,28.434z"/>
<path style="fill:#CE9F42;" d="M264.442,432.694l2.819-4.081l-35.575-42.727l57.603-0.724l10.674,44.965  C288.159,431.564,276.312,432.419,264.442,432.694z"/>
<path style="fill:#E8BB54;" d="M187.223,278.831c0,0-62.886-45.735-62.886-108.621c0,0-27.441,120.054,57.169,156.643"/>
<path style="fill:#FFFFFF;" d="M283.758,218.848c-13.72,0-25.192,9.594-28.093,22.438c2.902,12.843,14.373,22.437,28.093,22.437  s25.192-9.594,28.093-22.437C308.95,228.442,297.478,218.848,283.758,218.848z"/>
<path style="fill:#4D4D4D;" d="M318.03,283.061c-24.821,24.821-61.347,6.398-61.347,6.398s-3.193,53.401,33.177,53.401  C325.264,342.86,318.03,283.061,318.03,283.061z"/>
<path d="M395.677,168.377c-0.935-4.082-4.791-6.813-8.943-6.342c-4.161,0.47-7.305,3.989-7.305,8.176  c0,15.847-5.005,46.487-36.68,80.891L275.784,26.085c-1.038-3.49-4.245-5.881-7.885-5.881h-3.773V8.227  c0-4.544-3.683-8.227-8.227-8.227c-4.545,0-8.227,3.684-8.227,8.227v11.977H243.9c-3.64,0-6.847,2.391-7.885,5.88l-36.75,123.476  c-1.297,4.355,1.184,8.936,5.539,10.233c4.361,1.297,8.937-1.185,10.233-5.539l15.286-51.362c2.771,0.815,6.116,1.624,9.97,2.249  l-18.444,95.778c-0.859,4.461,2.061,8.776,6.523,9.635c0.525,0.101,1.049,0.15,1.564,0.15c3.865,0,7.312-2.737,8.069-6.673  l18.825-97.762c0.713-0.016,1.437-0.043,2.168-0.076l11.534,89.572c0.534,4.15,4.073,7.178,8.149,7.178  c0.35,0,0.705-0.023,1.062-0.069c4.506-0.58,7.69-4.704,7.108-9.21l-11.539-89.607c1.98-0.428,4.003-0.931,6.059-1.505  l77.606,260.777c-33.457,10.057-68.092,15.152-103.08,15.152c-17.045,0-34.005-1.219-50.788-3.621l5.553-28.836  c0.86-4.461-2.061-8.776-6.523-9.635c-4.463-0.858-8.776,2.062-9.634,6.523l-5.631,29.237c-12.143-2.314-24.175-5.247-36.057-8.819  l10.891-36.587c4.563,2.88,9.401,5.444,14.53,7.662c1.064,0.46,2.171,0.678,3.261,0.678c3.182,0,6.212-1.857,7.556-4.964  c1.805-4.171-0.115-9.014-4.286-10.817c-32.06-13.864-50.683-42.448-55.354-84.958c-0.506-4.603-0.813-9.13-0.968-13.517  c5.325,11.009,12.334,21.899,20.952,32.474c16.209,19.894,32.304,31.693,32.981,32.184c3.674,2.671,8.819,1.86,11.493-1.814  c2.673-3.675,1.859-8.821-1.814-11.493c-0.15-0.11-4.016-2.965-9.71-8.103l25.704-86.364c1.297-4.355-1.184-8.936-5.539-10.233  c-4.357-1.294-8.937,1.185-10.233,5.539l-23.183,77.893c-16.752-18.317-36.536-47.069-36.536-80.698  c0-4.187-3.144-7.706-7.305-8.176c-4.158-0.471-8.01,2.261-8.943,6.342c-0.293,1.28-7.123,31.765-3.304,67.313  c3.705,34.484,16.238,61.724,36.701,80.4l-14.979,50.321c-1.274,4.278,1.097,8.791,5.342,10.171  c28.468,9.254,57.808,15.031,87.541,17.276l29.317,35.218L241.4,451.516c-8.599,12.42-13.024,27.576-12.461,42.675  c0.375,9.987,8.495,17.809,18.489,17.809h56.42c4.545,0,8.227-3.684,8.227-8.227c0-16.575-11.374-30.784-26.897-34.883  l22.029-32.196c1.309-1.914,1.751-4.291,1.214-6.547l-8.963-37.754c24.505-2.865,48.683-8.147,72.264-15.812  c4.245-1.38,6.615-5.893,5.342-10.171l-14.924-50.149c12.496-11.33,22.06-25.876,28.451-43.321c1.562-4.267-0.63-8.993-4.897-10.555  c-4.264-1.562-8.991,0.631-10.555,4.896c-4.423,12.079-10.569,22.484-18.329,31.068l-8.667-29.123  c10.882-10.834,25.276-27.583,35.405-48.446c-0.25,7.044-0.892,14.465-2.114,21.978c-0.729,4.484,2.315,8.711,6.799,9.441  c4.499,0.736,8.712-2.316,9.441-6.8C404.088,205.957,396.022,169.893,395.677,168.377z M291.571,430.405l-27.672,40.444  c-1.667,2.435-1.901,5.576-0.615,8.232c1.286,2.655,3.895,4.419,6.839,4.622l7.229,0.498c7.325,0.505,13.514,5.044,16.446,11.343  h-46.371c-1.106,0-2.004-0.866-2.045-1.969c-0.433-11.568,2.957-23.178,9.545-32.693l19.095-27.583  c2.104-3.039,1.924-7.107-0.441-9.946l-23.709-28.479c2.007,0.032,4.016,0.059,6.027,0.059c9.033,0,18.041-0.341,27.015-0.987  L291.571,430.405z M244.277,89.108c-3.684-0.523-6.8-1.266-9.261-1.988l15.019-50.461h11.728l14.918,50.126  C265.706,89.824,254.839,90.609,244.277,89.108z"/>
<path d="M283.758,210.621c-17.429,0-32.281,11.864-36.118,28.852c-0.27,1.194-0.27,2.432,0,3.626  c3.837,16.987,18.689,28.852,36.118,28.852s32.281-11.864,36.118-28.852c0.27-1.194,0.27-2.432,0-3.626  C316.039,222.484,301.187,210.621,283.758,210.621z M283.758,255.495c-8.899,0-16.845-5.873-19.568-14.209  c2.722-8.336,10.669-14.21,19.568-14.21s16.845,5.874,19.568,14.21C300.604,249.62,292.658,255.495,283.758,255.495z"/>
<path d="M288.327,234.443c-6.225-4.098-14.498,1.832-12.492,9.034c0.941,3.38,4.005,5.849,7.515,6.028  c3.432,0.176,6.688-1.904,8.005-5.069C292.838,240.873,291.568,236.572,288.327,234.443z"/>
<path d="M312.212,277.244c-20.226,20.227-50.563,5.495-51.823,4.868c-2.473-1.246-5.407-1.166-7.807,0.214  c-2.4,1.381-3.946,3.877-4.11,6.641c-0.081,1.359-1.802,33.491,14.66,50.967c6.971,7.4,15.964,11.153,26.729,11.153  c9.715,0,18.107-3.674,24.266-10.624c16.364-18.463,12.558-54.358,12.07-58.39c-0.378-3.125-2.506-5.76-5.482-6.788  C317.742,274.26,314.439,275.018,312.212,277.244z M310.182,302.412c-0.818,12.499-3.712,21.883-8.37,27.137  c-3.074,3.469-6.871,5.083-11.953,5.083c-6.123,0-10.941-1.948-14.729-5.957c-6.328-6.697-8.938-18.173-9.867-27.325  c3.438,0.963,7.435,1.85,11.78,2.383c12.343,1.517,23.618-0.23,33.316-5.083C310.325,299.865,310.267,301.123,310.182,302.412z"/>
<path d="M205.755,328.011c0.525,0.101,1.049,0.15,1.564,0.15c3.865,0,7.312-2.737,8.069-6.673l17.171-89.18  c0.859-4.461-2.061-8.776-6.523-9.635c-4.47-0.86-8.776,2.062-9.634,6.524l-17.171,89.179  C198.372,322.839,201.292,327.152,205.755,328.011z"/>
<g>
</g>
<g>
</g>
<g>
</g>
<g>
</g>
<g>
</g>
<g>
</g>
<g>
</g>
<g>
</g>
<g>
</g>
<g>
</g>
<g>
</g>
<g>
</g>
<g>
</g>
<g>
</g>
<g>
</g>
</svg>
