<?xml version="1.0" encoding="iso-8859-1"?>
<!-- Generator: Adobe Illustrator 19.0.0, SVG Export Plug-In . SVG Version: 6.00 Build 0)  -->
<svg xmlns="http://www.w3.org/2000/svg" xmlns:xlink="http://www.w3.org/1999/xlink" version="1.1" id="Layer_1" x="0px" y="0px" viewBox="0 0 511.998 511.998" style="enable-background:new 0 0 511.998 511.998;" xml:space="preserve">
<g>
	<path style="fill:#D67729;" d="M371.332,453.733c4.025,2.115,8.587,3.293,13.366,3.293h46.557   c-0.743-13.469-8.884-25.405-21.141-31.019l-9.25-4.242c21.118-58.528,14.395-99.689,2.252-126.306l-140.049,8.557"/>
	<path style="fill:#D67729;" d="M248.91,304.017l-140.049-8.557c-12.142,26.617-18.865,67.778,2.252,126.306l-9.25,4.242   c-12.257,5.614-20.397,17.55-21.141,31.019h46.557c4.779,0,9.341-1.178,13.366-3.293"/>
</g>
<path style="fill:#F48B2C;" d="M396.997,503.423h-46.569c-12.76,0-23.987-8.415-27.555-20.672c-0.777-2.664-1.166-5.408-1.166-8.152  c0-2.721,0.389-5.442,1.143-8.083c0.537-1.841,1.109-3.979,1.692-6.334c3.098-12.543,6.334-31.614,3.464-49.484l-0.343,0.057  c-47.46,9.055-96.213,9.055-143.673,0c-2.904,18.111,0.457,37.456,3.59,49.964c0.537,2.15,1.063,4.093,1.555,5.797  c0.766,2.653,1.143,5.374,1.143,8.106c0,2.733-0.377,5.477-1.155,8.129c-3.579,12.257-14.806,20.672-27.566,20.672h-46.557  c0.743-13.457,8.884-25.405,21.141-31.019l9.261-4.242c-24.742-68.567-11.262-113.294,4.356-138.734  c-61.318-33.592-68.955-94.532-68.955-94.532L146.1,70.311l217.797,5.145l67.183,159.44c0,0-7.638,60.883-68.875,94.486  c15.641,25.428,29.144,70.167,4.39,138.78l9.25,4.242C388.101,478.018,396.242,489.966,396.997,503.423z"/>
<g>
	<path style="fill:#D67729;" d="M286.193,25.938c-11.1,28.982-7.62,61.385,9.075,87.249v-0.872   c0-28.249,19.291-52.008,45.422-58.802V53.5l-19.954-35.765c-7.388-13.24-26.864-11.833-32.286,2.315L286.193,25.938z"/>
	<path style="fill:#D67729;" d="M295.269,113.187v45.178c8.888-11.6,22.874-19.081,38.615-19.081h23.107h25.515h25.515h0.011h23.095   c15.73,0,29.716,7.47,38.604,19.057v-45.13v-0.908c0-28.261-19.291-52.019-45.422-58.814c-4.898-1.268-10.029-1.943-15.323-1.943   h-52.95c-5.305,0-10.448,0.675-15.346,1.967c-26.131,6.795-45.422,30.553-45.422,58.802L295.269,113.187L295.269,113.187z"/>
	<path style="fill:#D67729;" d="M444.264,17.735L424.31,53.489c26.131,6.795,45.422,30.553,45.422,58.814v0.908   c16.708-25.864,20.174-58.279,9.075-87.272l-2.246-5.887C471.128,5.903,451.652,4.495,444.264,17.735z"/>
</g>
<g>
	<path style="fill:#B3B3B3;" d="M285.274,187.906c0,13.426,5.433,25.573,14.24,34.381c8.796,8.796,20.943,14.24,34.369,14.24   c13.438,0,25.585-5.445,34.381-14.24c8.796-8.807,14.24-20.954,14.24-34.381v-23.095c-14.089,0-25.515-11.425-25.515-25.526   h-23.107c-15.742,0-29.727,7.481-38.615,19.081C288.998,166.556,285.274,176.806,285.274,187.906z"/>
	<path style="fill:#B3B3B3;" d="M469.732,158.342c-8.888-11.588-22.874-19.057-38.604-19.057h-23.095h-0.011   c0,14.101-11.426,25.526-25.515,25.526v23.095c0,13.426,5.445,25.573,14.24,34.381c8.796,8.796,20.966,14.24,34.381,14.24   c13.415,0,25.573-5.445,34.369-14.24c8.807-8.807,14.24-20.954,14.24-34.381C479.737,176.795,476.003,166.544,469.732,158.342z"/>
</g>
<path style="fill:#E6E6E6;" d="M439.831,222.286c8.807-8.807,14.24-20.954,14.24-34.381c0-11.111-3.734-21.361-10.005-29.564  c-8.404-10.956-21.365-18.22-36.046-18.982c0-0.025,0.002-0.05,0.002-0.075h0.011h23.095c15.73,0,29.716,7.469,38.604,19.057  c6.271,8.202,10.005,18.453,10.005,29.564c0,13.426-5.433,25.573-14.24,34.381c-8.796,8.796-20.954,14.242-34.369,14.242  c-4.442,0-8.743-0.608-12.835-1.726C426.554,232.542,433.947,228.17,439.831,222.286z"/>
<path style="fill:#5B5B5B;" d="M382.506,139.284h-25.515c0,14.101,11.426,25.526,25.515,25.526c14.09,0,25.515-11.425,25.515-25.526  C408.021,139.284,382.506,139.284,382.506,139.284z"/>
<g>
	<path style="fill:#D67729;" d="M225.805,25.938c11.1,28.982,7.62,61.385-9.075,87.249v-0.872c0-28.249-19.291-52.008-45.422-58.802   V53.5l19.954-35.765c7.388-13.24,26.864-11.833,32.286,2.315L225.805,25.938z"/>
	<path style="fill:#D67729;" d="M216.73,113.187v45.178c-8.888-11.6-22.874-19.081-38.615-19.081h-23.107h-25.515h-25.515h-0.011   H80.871c-15.73,0-29.716,7.47-38.604,19.057v-45.13v-0.908c0-28.261,19.291-52.019,45.422-58.814   c4.898-1.268,10.029-1.943,15.323-1.943h52.95c5.305,0,10.448,0.675,15.346,1.967c26.131,6.795,45.422,30.553,45.422,58.802v0.871   H216.73z"/>
</g>
<path style="fill:#C66A26;" d="M78.467,113.211v-0.908c0-28.261,19.291-52.019,45.422-58.814c4.898-1.268,10.029-1.943,15.323-1.943  h-36.201c-5.294,0-10.425,0.675-15.323,1.943c-26.131,6.795-45.422,30.553-45.422,58.814v0.908v45.131  c8.433-10.993,21.456-18.268,36.201-18.986V113.211z"/>
<path style="fill:#D67729;" d="M67.735,17.735l19.954,35.754c-26.131,6.795-45.422,30.553-45.422,58.814v0.908  c-16.708-25.864-20.174-58.279-9.075-87.272l2.246-5.887C40.871,5.903,60.348,4.495,67.735,17.735z"/>
<path style="fill:#F48B2C;" d="M356.65,26.72c11.599,30.287,7.965,64.151-9.484,91.18v-0.912c0-29.522-20.16-54.35-47.468-61.452  v-0.013l20.852-37.376c7.721-13.837,28.075-12.365,33.741,2.419L356.65,26.72z"/>
<path style="fill:#7F7F7F;" d="M357.61,195.985c0,14.031-5.678,26.726-14.883,35.93c-9.193,9.193-21.886,14.883-35.917,14.883  c-14.044,0-26.737-5.69-35.93-14.883c-9.193-9.204-14.883-21.899-14.883-35.93V171.85c14.724,0,26.664-11.94,26.664-26.677h24.148  c16.451,0,31.066,7.818,40.356,19.941C353.72,173.673,357.61,184.385,357.61,195.985z"/>
<path style="fill:#B3B3B3;" d="M226.724,187.906c0,13.426-5.433,25.573-14.24,34.381c-8.796,8.796-20.943,14.24-34.369,14.24  c-13.438,0-25.585-5.445-34.381-14.24c-8.796-8.807-14.24-20.954-14.24-34.381v-23.095c14.089,0,25.515-11.425,25.515-25.526h23.107  c15.742,0,29.727,7.481,38.615,19.081C223,166.556,226.724,176.806,226.724,187.906z"/>
<path style="fill:#F48B2C;" d="M347.166,117.9v47.213c-9.29-12.123-23.904-19.941-40.356-19.941h-24.148h-26.664h-26.664h-0.013  h-24.135c-16.439,0-31.053,7.806-40.343,19.916v-47.164v-0.948c0-29.534,20.16-54.363,47.468-61.463  c5.119-1.325,10.481-2.031,16.014-2.031h55.336c5.544,0,10.919,0.705,16.038,2.055c27.309,7.101,47.468,31.929,47.468,61.452v0.911  H347.166z"/>
<path style="fill:#D67729;" d="M200.342,117.925v-0.949c0-29.534,20.16-54.363,47.468-61.463c5.119-1.325,10.481-2.031,16.014-2.031  h-35.499c-5.533,0-10.895,0.705-16.014,2.031c-27.309,7.101-47.468,31.929-47.468,61.463v0.949v47.164  c8.365-10.905,21.055-18.299,35.499-19.667V117.925z"/>
<path style="fill:#B3B3B3;" d="M42.267,158.342c8.888-11.588,22.874-19.057,38.604-19.057h23.095h0.011  c0,14.101,11.425,25.526,25.515,25.526v23.095c0,13.426-5.445,25.573-14.24,34.381c-8.796,8.796-20.966,14.24-34.381,14.24  s-25.573-5.445-34.369-14.24c-8.807-8.807-14.24-20.954-14.24-34.381C32.261,176.795,35.995,166.544,42.267,158.342z"/>
<path style="fill:#999999;" d="M72.167,222.286c-8.807-8.807-14.24-20.954-14.24-34.381c0-11.111,3.734-21.361,10.005-29.564  c8.404-10.956,21.365-18.22,36.046-18.982c0-0.025-0.002-0.05-0.002-0.075h-0.011H80.871c-15.73,0-29.716,7.469-38.604,19.057  c-6.271,8.202-10.005,18.453-10.005,29.564c0,13.426,5.433,25.573,14.24,34.381c8.796,8.796,20.954,14.242,34.369,14.242  c4.442,0,8.743-0.608,12.835-1.726C85.444,232.542,78.051,228.17,72.167,222.286z"/>
<path style="fill:#5B5B5B;" d="M255.998,145.173h26.664c0,14.737-11.94,26.677-26.664,26.677c-14.724,0-26.664-11.94-26.664-26.677  C229.333,145.173,255.998,145.173,255.998,145.173z"/>
<path style="fill:#7F7F7F;" d="M164.843,165.089c9.29-12.11,23.904-19.916,40.343-19.916h24.135h0.013  c0,14.737,11.94,26.677,26.664,26.677v24.135c0,14.031-5.69,26.726-14.883,35.93c-9.193,9.193-21.91,14.883-35.93,14.883  c-14.02,0-26.726-5.69-35.917-14.883c-9.204-9.204-14.883-21.899-14.883-35.93C154.386,184.373,158.289,173.661,164.843,165.089z"/>
<path style="fill:#666666;" d="M196.379,231.914c-9.204-9.204-14.883-21.899-14.883-35.93c0-11.612,3.903-22.324,10.457-30.896  c8.728-11.379,22.157-18.954,37.383-19.829c0-0.03-0.002-0.058-0.002-0.088h-0.013h-24.135c-16.439,0-31.053,7.806-40.343,19.916  c-6.554,8.572-10.457,19.284-10.457,30.896c0,14.031,5.678,26.726,14.883,35.93c9.193,9.193,21.899,14.883,35.917,14.883  c4.695,0,9.237-0.652,13.557-1.845C210.166,242.58,202.492,238.028,196.379,231.914z"/>
<path style="fill:#F48B2C;" d="M191.459,18.148l20.852,37.365c-27.309,7.101-47.468,31.929-47.468,61.463v0.948  c-17.46-27.029-21.083-60.904-9.484-91.204l2.346-6.152C163.384,5.783,183.738,4.311,191.459,18.148z"/>
<path style="fill:#5B5B5B;" d="M129.493,139.284h25.515c0,14.101-11.425,25.526-25.515,25.526c-14.09,0-25.515-11.425-25.515-25.526  C103.978,139.284,129.493,139.284,129.493,139.284z"/>
<path style="fill:#E6E6E6;" d="M324.542,460.182c3.098-12.543,6.334-31.614,3.464-49.484l-0.343,0.057  c-47.46,9.055-96.213,9.055-143.673,0c-2.904,18.111,0.457,37.456,3.59,49.964c-4.562-9.707-7.1-20.546-7.1-31.979  c0-41.675,33.786-75.461,75.461-75.461s75.45,33.786,75.45,75.461C331.391,439.956,328.944,450.612,324.542,460.182z"/>
<path d="M478.081,114.966c16.858-27.594,20.044-61.836,8.446-92.14l-2.239-5.846c-3.696-9.643-12.392-16.089-22.694-16.826  c-10.295-0.736-19.818,4.41-24.845,13.426l-16.743,30.004c-3.548-0.559-7.158-0.844-10.794-0.844h-39.181  c-1.202-6.466-2.986-12.856-5.371-19.087l-2.358-6.157c-3.828-9.987-12.835-16.664-23.505-17.426  c-6.41-0.454-12.521,1.301-17.514,4.789c-5.001-3.532-11.176-5.249-17.581-4.657c-10.035,0.931-18.511,7.362-22.119,16.786  l-2.23,5.829c-2.735,7.136-4.671,14.54-5.792,22.094h-35.12c-1.12-7.554-3.056-14.957-5.791-22.088l-2.233-5.837  c-3.607-9.42-12.082-15.851-22.118-16.782c-6.405-0.596-12.58,1.122-17.581,4.656c-4.995-3.491-11.108-5.246-17.512-4.788  c-10.67,0.763-19.676,7.44-23.505,17.429l-2.356,6.155c-2.385,6.231-4.169,12.621-5.37,19.086h-39.184  c-3.638,0-7.25,0.285-10.794,0.844L75.252,13.583C70.224,4.564,60.699-0.577,50.405,0.154C40.103,0.889,31.407,7.336,27.709,16.982  l-2.238,5.844c-11.598,30.303-8.412,64.546,8.446,92.139v39.618c-6.261,9.133-9.933,20.173-9.933,32.06  c0,15.173,5.911,29.441,16.641,40.17c9.008,9.021,20.525,14.621,32.984,16.185c2.447,10.754,9.008,32.191,25.335,53.839  c-17.005,41.897-9.382,87.143,1.529,120.373l-2.182,1c-15.197,6.961-25.211,21.653-26.132,38.343  c-0.129,2.353,0.715,4.655,2.335,6.366c1.62,1.712,3.871,2.681,6.228,2.681h46.557c1.242,0,2.481-0.078,3.715-0.202  c-14.295,7.237-23.658,21.454-24.553,37.549c-0.131,2.353,0.712,4.657,2.332,6.368c1.62,1.712,3.873,2.682,6.229,2.682h46.562  c16.462,0,31.179-11.038,35.789-26.841c2-6.858,2.009-14.124,0.026-21.011c-2.18-7.575-5.848-22.609-5.923-38.191  c-0.008-1.758,0.04-3.464,0.12-5.139c21.238,3.527,42.768,5.303,64.297,5.303c5.902,0,11.809-0.134,17.704-0.401  c4.731-0.215,8.392-4.224,8.177-8.955c-0.214-4.731-4.206-8.392-8.955-8.178c-26.22,1.191-52.575-0.4-78.472-4.706  c2.108-6.937,5.365-12.732,9.774-17.314c3.284-3.412,3.181-8.84-0.232-12.125c-3.413-3.285-8.84-3.181-12.125,0.232  c-11.678,12.133-17.546,29.415-17.441,51.364c0.08,16.767,3.629,32.558,6.591,42.853c1.084,3.764,1.08,7.729-0.01,11.467  c-2.489,8.533-10.435,14.493-19.325,14.493H125.61c2.63-6.39,7.6-11.667,14.107-14.649l9.255-4.242  c4.053-1.858,6.006-6.511,4.493-10.705c-12.393-34.348-16.048-65.723-10.862-93.255c0.877-4.655-2.186-9.138-6.84-10.015  c-4.658-0.879-9.138,2.186-10.015,6.84c-4.562,24.225-3.04,50.858,4.464,79.404c-0.971,0.143-1.951,0.224-2.934,0.224H91.328  c2.627-6.39,7.599-11.667,14.11-14.65l9.25-4.242c4.052-1.858,6.004-6.511,4.491-10.705c-14.454-40.061-16.93-76.792-7.361-107.192  c7.355,7.381,16.054,14.492,26.334,20.896c-1.642,3.16-3.227,6.525-4.706,10.124c-1.801,4.38,0.289,9.39,4.669,11.192  c1.067,0.439,2.171,0.646,3.257,0.646c3.373,0,6.572-2.003,7.934-5.317c11.004-26.762,28.567-39.096,28.872-39.306  c3.907-2.649,4.938-7.961,2.303-11.882c-2.643-3.931-7.97-4.975-11.901-2.331c-0.616,0.414-10.863,7.434-21.47,22.24  c-37.964-23.798-51.499-59.192-55.89-75.423c11.214-2.066,21.537-7.451,29.776-15.69c3.105-3.11,5.792-6.522,8.064-10.156  c2.273,3.636,4.961,7.048,8.069,10.154c8.547,8.564,19.667,14.181,31.552,15.998c7.896,6.187,17.141,10.222,27.02,11.798  c-1.758,16.016-5.323,48.473-5.323,48.473c-0.517,4.707,2.88,8.943,7.587,9.46c0.318,0.035,0.633,0.051,0.947,0.051  c4.316,0,8.031-3.251,8.513-7.64l5.303-48.281c0.071-0.644,0.137-1.245,0.199-1.817c12.929-1.674,24.884-7.511,34.259-16.886  c3.419-3.423,6.362-7.193,8.812-11.221c2.451,4.031,5.398,7.8,8.819,11.221c9.362,9.375,21.315,15.215,34.252,16.887  c0.063,0.569,0.128,1.171,0.199,1.816l5.303,48.281l17.047-1.873c0,0-3.565-32.456-5.323-48.475  c9.875-1.577,19.118-5.61,27.01-11.795c11.89-1.816,23.014-7.434,31.56-15.995c3.109-3.109,5.8-6.523,8.074-10.16  c2.272,3.637,4.961,7.05,8.069,10.161c8.209,8.209,18.493,13.586,29.664,15.667c-4.384,16.212-17.901,51.59-55.823,75.396  c-10.608-14.788-20.849-21.803-21.432-22.196c-3.918-2.635-9.212-1.596-11.863,2.311c-2.651,3.907-1.632,9.231,2.263,11.9  c0.162,0.111,16.342,11.398,27.398,35.884c14.7,32.556,13.773,73.868-2.682,119.473c-1.514,4.194,0.44,8.848,4.493,10.705  l9.255,4.242c6.507,2.982,11.477,8.258,14.107,14.649h-35.953c-8.89,0-16.836-5.96-19.325-14.493  c-1.091-3.738-1.094-7.702-0.01-11.467c5.526-19.199,15.529-66.812-10.849-94.217c-3.285-3.412-8.713-3.515-12.125-0.232  c-3.412,3.285-3.516,8.713-0.232,12.125c4.397,4.569,7.649,10.346,9.757,17.258c-5.24,0.876-10.511,1.656-15.754,2.305  c-4.7,0.582-8.038,4.864-7.456,9.564c0.539,4.342,4.234,7.522,8.5,7.522c0.351,0,0.707-0.022,1.064-0.066  c5.463-0.677,10.953-1.489,16.413-2.4c0.083,1.696,0.131,3.423,0.124,5.206c-0.074,15.583-3.742,30.617-5.923,38.191  c-1.983,6.888-1.973,14.154,0.026,21.011c4.61,15.803,19.327,26.841,35.789,26.841h46.562c2.358,0,4.61-0.971,6.229-2.682  c1.62-1.713,2.464-4.015,2.332-6.368c-0.894-16.093-10.256-30.309-24.549-37.546c1.226,0.122,2.457,0.2,3.691,0.2h46.557  c2.356,0,4.609-0.97,6.228-2.681c1.62-1.712,2.464-4.014,2.335-6.366c-0.922-16.689-10.934-31.382-26.129-38.341l-2.186-1.002  c10.918-33.252,18.545-78.534,1.497-120.453c16.277-21.612,22.826-42.999,25.273-53.745c12.504-1.544,24.063-7.149,33.095-16.194  c10.734-10.734,16.646-25.002,16.646-40.175c0-11.886-3.672-22.926-9.933-32.06v-39.613H478.081z M451.725,21.934  c1.776-3.187,5.006-4.932,8.646-4.674c3.642,0.261,6.596,2.45,7.901,5.854l2.238,5.841c6.92,18.079,7.545,37.831,2.223,56.047  c-6.754-16.128-19.5-29.319-35.849-36.473L451.725,21.934z M371.835,59.889h37.375c4.451,0,8.838,0.559,13.06,1.666  c22.762,5.912,38.66,26.489,38.66,50.041v26.642c-8.656-5.339-18.841-8.429-29.736-8.429l-75.459-0.001v-9.427  C366.946,102.077,372.408,80.976,371.835,59.889z M382.94,155.138c-6.102,0-11.437-3.291-14.365-8.181h14.36v0.001h14.368  C394.376,151.848,389.042,155.138,382.94,155.138z M337.573,17.176c4.015,0.287,7.273,2.701,8.711,6.454l2.355,6.152  c7.482,19.549,8.008,40.948,1.972,60.571c-7.076-17.724-20.98-32.003-38.458-39.558l15.885-28.466  C329.997,18.816,333.57,16.89,337.573,17.176z M297.598,23.118c1.275-3.328,4.147-5.51,7.687-5.838  c1.93-0.176,3.751,0.231,5.317,1.104l-15.332,27.475c-1.451-0.237-2.913-0.439-4.392-0.587c0.97-5.572,2.463-11.036,4.49-16.325  L297.598,23.118z M206.713,17.28c3.539,0.328,6.412,2.511,7.686,5.836l2.233,5.839c2.026,5.285,3.519,10.747,4.489,16.318  c-1.478,0.147-2.94,0.349-4.39,0.584L201.4,18.385C202.967,17.51,204.788,17.103,206.713,17.28z M163.36,29.785l2.355-6.15  c1.441-3.757,4.697-6.171,8.712-6.458c4.005-0.294,7.576,1.64,9.536,5.157l15.881,28.459c-17.478,7.552-31.383,21.831-38.458,39.554  C155.353,70.725,155.88,49.331,163.36,29.785z M129.058,155.138c-6.101,0-11.436-3.289-14.364-8.178h14.368v-0.001h14.36  C140.495,151.848,135.16,155.138,129.058,155.138z M140.166,59.889c-0.572,21.087,4.889,42.187,16.1,60.491v9.427l-75.461,0.001  c-10.895,0-21.08,3.089-29.736,8.429v-26.641c0-23.552,15.897-44.129,38.678-50.046c4.203-1.101,8.59-1.66,13.041-1.66h37.378  V59.889z M41.489,28.957l2.235-5.839c1.307-3.407,4.26-5.598,7.903-5.857c3.64-0.258,6.869,1.489,8.647,4.676l14.841,26.594  c-16.352,7.157-29.096,20.346-35.849,36.472C33.945,66.787,34.57,47.036,41.489,28.957z M108.866,214.691  c-7.495,7.495-17.46,11.622-28.06,11.622c-10.603,0-20.562-4.126-28.048-11.622c-7.495-7.495-11.622-17.456-11.622-28.048  c0-21.881,17.795-39.683,39.67-39.683h15.454c3.09,11.817,12.412,21.139,24.229,24.229v15.462c0,0.002,0,0.006,0,0.008  C120.484,197.233,116.355,207.189,108.866,214.691z M137.638,186.643v-15.457c7.555-1.978,14.089-6.503,18.627-12.6v3.792  c-6.589,9.565-10.459,21.143-10.459,33.611c0,6.196,0.956,12.243,2.775,17.985c-7.057-7.407-10.941-17.063-10.943-27.318  C137.638,186.653,137.638,186.648,137.638,186.643z M235.054,225.847c-7.978,7.978-18.586,12.371-29.87,12.371  c-0.003,0-0.006,0-0.009,0c-0.015,0-0.03-0.001-0.046-0.001c-11.267-0.014-21.846-4.403-29.801-12.37  c-7.978-7.978-12.372-18.582-12.372-29.856c0-23.292,18.943-42.241,42.227-42.241h16.628c3.15,12.559,13.055,22.462,25.613,25.612  v16.629C247.426,207.252,243.031,217.858,235.054,225.847z M256.001,153.749h15.922c-3.06,5.663-9.051,9.521-15.927,9.521  c-6.876,0-12.867-3.858-15.927-9.521H256.001z M306.802,238.218c-11.287,0-21.888-4.392-29.855-12.371  c-7.978-7.978-12.371-18.581-12.371-29.856v-16.631c12.554-3.152,22.453-13.055,25.603-25.61h16.624  c4.736,0,8.575-3.839,8.575-8.575s-3.839-8.575-8.575-8.575H205.185c-11.68,0-22.574,3.405-31.768,9.253v-28.88  c0-30.278,24.632-54.911,54.911-54.911h55.33c30.287,0,54.928,24.64,54.928,54.928v28.84c-1.928-1.228-3.932-2.355-6.016-3.36  c-4.264-2.055-9.391-0.268-11.45,3.998c-2.057,4.265-0.268,9.391,3.998,11.449c14.526,7.006,23.913,21.952,23.913,38.075  c0,11.275-4.394,21.878-12.376,29.861C328.691,233.826,318.089,238.218,306.802,238.218z M363.4,213.992  c1.823-5.748,2.78-11.801,2.78-18.003c0-12.141-3.79-23.806-10.446-33.536v-3.865c4.538,6.095,11.071,10.618,18.625,12.596v15.457  c0,0.005,0,0.01,0,0.015C374.358,196.918,370.47,206.579,363.4,213.992z M392.799,418.855c-1.513,4.193,0.439,8.846,4.491,10.705  l9.253,4.243c6.509,2.981,11.479,8.257,14.107,14.647h-35.953c-0.986,0-1.967-0.081-2.94-0.225  c8.523-32.72,11.865-73.265-5.405-110.574c-0.822-1.777-1.667-3.493-2.529-5.15c10.272-6.41,18.964-13.525,26.312-20.908  C409.731,342.007,407.264,378.763,392.799,418.855z M459.237,214.695c-7.481,7.491-17.439,11.618-28.043,11.618  c-10.6,0-20.565-4.128-28.057-11.618c-7.495-7.506-11.623-17.462-11.627-28.037c0-0.002,0-0.006,0-0.008v-15.462  c11.816-3.09,21.138-12.412,24.229-24.229h15.453c21.875,0,39.67,17.802,39.67,39.683  C470.864,197.235,466.736,207.196,459.237,214.695z"/>
<path d="M423.067,121.75c4.736,0,8.575-3.839,8.575-8.575v-11.779c0-4.736-3.839-8.575-8.575-8.575s-8.575,3.839-8.575,8.575v11.779  C414.492,117.911,418.331,121.75,423.067,121.75z"/>
<path d="M237.344,94.207c-4.736,0-8.575,3.839-8.575,8.575v16.629c0,4.736,3.839,8.575,8.575,8.575s8.575-3.839,8.575-8.575v-16.629  C245.919,98.046,242.08,94.207,237.344,94.207z"/>
<path d="M274.657,94.207c-4.736,0-8.575,3.839-8.575,8.575v16.629c0,4.736,3.839,8.575,8.575,8.575s8.575-3.839,8.575-8.575v-16.629  C283.232,98.046,279.393,94.207,274.657,94.207z"/>
<path d="M80.356,101.396v11.779c0,4.736,3.839,8.575,8.575,8.575c4.736,0,8.575-3.839,8.575-8.575v-11.779  c0-4.736-3.839-8.575-8.575-8.575C84.196,92.821,80.356,96.661,80.356,101.396z"/>
<g>
</g>
<g>
</g>
<g>
</g>
<g>
</g>
<g>
</g>
<g>
</g>
<g>
</g>
<g>
</g>
<g>
</g>
<g>
</g>
<g>
</g>
<g>
</g>
<g>
</g>
<g>
</g>
<g>
</g>
</svg>
