<?xml version="1.0" encoding="iso-8859-1"?>
<!-- Generator: Adobe Illustrator 19.0.0, SVG Export Plug-In . SVG Version: 6.00 Build 0)  -->
<svg xmlns="http://www.w3.org/2000/svg" xmlns:xlink="http://www.w3.org/1999/xlink" version="1.1" id="Layer_1" x="0px" y="0px" viewBox="0 0 512 512" style="enable-background:new 0 0 512 512;" xml:space="preserve">
<g>
	<path style="fill:#BC6D1E;" d="M266.583,503.634h-56.766v-26.771h29.995C254.603,476.863,266.583,488.854,266.583,503.634z"/>
	<path style="fill:#BC6D1E;" d="M367.12,503.634h-56.766v-26.771h29.995C355.129,476.863,367.12,488.854,367.12,503.634z"/>
	<path style="fill:#BC6D1E;" d="M362.418,392.043c-2.108,0.848-4.295,1.673-6.537,2.443c-17.011,5.912-37.714,9.727-59.086,10.831   c-7.351,0.379-14.78,0.435-22.164,0.134h-0.011c-6.693-0.257-13.352-0.803-19.889-1.662l1.517,28.679   c0.145,2.722-0.212,5.455-1.026,8.054l-0.234,0.759h-50.955c0.803-7.529,2.61-12.114,2.61-12.114   c-10.597-10.597-14.847-48.434-14.847-48.434c-16.197-12.594-25.912-30.397-24.406-54.401c0,0,21.573,7.585,52.137,14.289v0.011   c52.505,11.545,131.514,20.536,173.11-15.873C397.343,351.083,393.639,379.46,362.418,392.043z"/>
</g>
<path style="fill:#8BE8E8;" d="M392.636,324.757c-41.596,36.409-120.604,27.418-173.11,15.873v-0.011  c-30.564-6.704-52.137-14.289-52.137-14.289c1.249-20.123,4.629-38.495,9.058-54.814c-20.848,20.937-42.6,53.509-52.594,69.17  c-3.335,1.629-5.622,5.053-5.622,9.013c-8.857-126.048,96.02-161.107,97.392-161.832c0.011-0.011,0.011-0.011,0.011-0.011  c7.039,5.8,14.925,10.586,23.458,14.144c11.199,4.696,23.503,7.284,36.409,7.284c29.872,0,49.884-13.888,61.518-35.561  c0,0,57.201,52.974,34.936,95.373C371.955,269.096,387.438,295.666,392.636,324.757z"/>
<path style="fill:#BC6D1E;" d="M356.769,432.467c0.145,2.722-0.201,5.455-1.026,8.054l-0.234,0.759h-50.932h-0.011  c0.803-7.529,2.61-12.114,2.61-12.114c-4.596-4.596-7.998-14.311-10.385-23.849c21.372-1.104,42.075-4.919,59.086-10.831  L356.769,432.467z"/>
<g>
	<path style="fill:#8BE8E8;" d="M355.508,441.279l-11.244,35.583h-3.915h-29.995c-6.269-14.1-6.715-26.827-5.789-35.583h0.011   H355.508z"/>
	<path style="fill:#8BE8E8;" d="M349.701,114.949c0,7.485-0.457,14.758-1.394,21.74c-1.841,13.754-5.544,26.347-11.289,37.034   c-11.634,21.674-31.646,35.561-61.518,35.561c-16.453,0-31.914-4.205-45.377-11.612c-5.142-2.822-9.995-6.113-14.49-9.816   c-15.338-12.605-26.637-29.973-31.624-49.85c-2.621,2.186-5.689,3.447-8.991,3.447c-9.481,0-17.178-10.441-17.178-23.324   l0.547-45.065l24.429,24.284c-5.254-60.972,36.654-84.251,78.663-88.312c4.696-0.457,9.392-0.669,14.021-0.669   C327.604,8.366,349.701,62.857,349.701,114.949z"/>
</g>
<path style="fill:#B7F9F7;" d="M275.5,8.366c-3.912,0-7.873,0.162-11.84,0.485c46.198,5.452,65.96,56.842,65.96,106.098  c0,7.485-0.457,14.758-1.394,21.74c-1.841,13.754-5.544,26.347-11.289,37.034c-10.295,19.179-27.156,32.253-51.598,35.01  c3.339,0.358,6.727,0.551,10.162,0.551c29.872,0,49.884-13.888,61.518-35.561c5.745-10.686,9.448-23.28,11.289-37.034  c0.937-6.983,1.394-14.256,1.394-21.74C349.701,62.857,327.604,8.366,275.5,8.366z"/>
<path style="fill:#8BE8E8;" d="M254.982,441.279l-11.244,35.583h-3.926h-29.995c-6.269-14.1-6.715-26.827-5.789-35.583h0.011  H254.982z"/>
<path style="fill:#76CECC;" d="M219.526,340.619c-30.564-6.704-52.137-14.289-52.137-14.289c1.249-20.123,4.629-38.495,9.058-54.814  c-20.848,20.937-42.6,53.509-52.594,69.17c-3.335,1.629-5.622,5.053-5.622,9.013c-8.857-126.048,96.02-161.107,97.392-161.832  c0.011-0.011,0.011-0.011,0.011-0.011c7.039,5.8,14.925,10.586,23.458,14.144l1.841,2.688  C240.932,204.688,201.467,271.315,219.526,340.619z"/>
<path style="fill:#A55D1C;" d="M256.247,432.467c0.145,2.722-0.212,5.455-1.026,8.054l-0.234,0.759h-50.955  c0.803-7.529,2.61-12.114,2.61-12.114c-10.597-10.597-14.847-48.434-14.847-48.434c-16.197-12.594-25.912-30.397-24.406-54.401  c0,0,21.573,7.585,52.137,14.289v0.011c0,0,35.249,55.84,55.093,64.82c-6.693-0.257-13.352-0.803-19.889-1.662L256.247,432.467z"/>
<path style="fill:#76CECC;" d="M230.123,197.672c-5.142-2.822-9.995-6.113-14.49-9.816c-15.338-12.605-26.637-29.973-31.624-49.85  c-2.621,2.186-5.689,3.447-8.991,3.447c-9.481,0-17.178-10.441-17.178-23.324l0.547-45.065l24.429,24.284  c-5.254-60.972,36.654-84.251,78.663-88.312C253.894,17.033,182.894,95.919,230.123,197.672z"/>
<path d="M230.337,273.234c-1.226,4.455,1.393,9.06,5.848,10.285c1.409,0.387,27.561,7.48,51.944,7.48  c7.079,0,14.009-0.598,20.141-2.131c4.483-1.12,7.207-5.662,6.087-10.145c-1.121-4.483-5.658-7.208-10.146-6.087  c-22.99,5.746-63.188-5.141-63.592-5.252C236.167,266.162,231.562,268.78,230.337,273.234z"/>
<path d="M279.205,264.531c1.71-7.621-7.433-13.21-13.459-8.302c-5.969,4.862-2.364,14.829,5.304,14.829  C274.911,271.058,278.358,268.298,279.205,264.531z"/>
<path d="M276.794,109.316V95.462c0-4.62-3.745-8.366-8.366-8.366c-4.621,0-8.366,3.746-8.366,8.366v13.854  c0,4.62,3.745,8.366,8.366,8.366C273.05,117.682,276.794,113.936,276.794,109.316z"/>
<path d="M332.724,103.739V91.111c0-4.62-3.745-8.366-8.366-8.366c-4.621,0-8.366,3.746-8.366,8.366v12.627  c0,4.62,3.745,8.366,8.366,8.366C328.979,112.105,332.724,108.359,332.724,103.739z"/>
<path d="M381.339,268.797c16.552-39.36-20.768-82.906-34.165-96.783c7.154-15.81,10.884-35.206,10.884-57.062  C358.058,57.734,332.529,0,275.496,0c-8.633,0-17.109,0.703-25.194,2.09c-4.554,0.782-7.612,5.107-6.831,9.66  c0.782,4.554,5.107,7.612,9.66,6.831c7.154-1.228,14.677-1.849,22.365-1.849c21.041,0,37.681,9.987,49.455,29.683  c10.559,17.663,16.375,42.004,16.375,68.538c0,4.899-0.232,11.031-1.009,17.749c-1.395,1.256-2.86,2.432-4.384,3.538v-0.711  c0-4.62-3.745-8.366-8.366-8.366c-4.621,0-8.366,3.746-8.366,8.366v9.08c-10.658,3.431-23.191,4.585-37.541,3.39  c-3.175-0.264-6.254-0.635-9.197-1.07v-6.193c0-4.62-3.745-8.366-8.366-8.366c-4.621,0-8.366,3.746-8.366,8.366v2.803  c-7.229-1.855-11.766-3.536-11.852-3.568c-4.321-1.624-9.142,0.556-10.773,4.876c-1.632,4.322,0.55,9.15,4.872,10.781  c0.757,0.286,18.818,7.025,41.861,9.01c4.164,0.358,8.222,0.537,12.178,0.537c16.484,0,31.089-3.11,43.368-9.171  c-7.494,23.038-24.044,44.921-59.889,44.921c-39.485,0-73.772-26.71-83.379-64.953c-0.701-2.792-2.789-5.026-5.526-5.918  c-2.737-0.892-5.74-0.312-7.949,1.534c-1.192,0.995-2.412,1.5-3.624,1.5c-4.16,0-8.81-6.395-8.811-14.851l0.306-25.29l10.394,10.338  c2.49,2.475,6.26,3.136,9.44,1.649c3.181-1.486,5.095-4.8,4.794-8.298c-3.073-35.665,10.635-59.933,40.745-72.132  c4.282-1.735,6.347-6.612,4.612-10.895c-1.736-4.282-6.612-6.348-10.895-4.612c-30.398,12.315-48.076,36.182-51.124,68.277  l-10.194-10.138c-2.383-2.37-5.954-3.085-9.064-1.813c-3.112,1.272-5.159,4.281-5.2,7.643l-0.544,45.169  c0,17.767,11.219,31.685,25.542,31.685c1.257,0,2.502-0.11,3.727-0.328c4.824,13.576,12.352,25.686,21.86,35.805  c-8.121,3.962-16.248,8.795-23.969,14.316c-3.759,2.687-4.627,7.913-1.939,11.671c1.633,2.284,4.203,3.5,6.812,3.5  c1.684,0,3.385-0.508,4.859-1.562c8.86-6.336,18.624-11.851,27.883-15.782c17.242,12.791,38.517,20.215,61.245,20.215  c26.818,0,48.55-10.54,62.936-30.46c4.867,5.373,11.468,13.345,17.298,22.729c6.702,10.79,10.809,20.773,12.339,29.896  c-1.974-0.305-4.08,0.089-5.948,1.414c-2.84,2.017-4.115,5.691-3.199,9.039c0.978,3.575,4.344,6.141,8.056,6.141  c0.279,0,0.553-0.018,0.825-0.046c-0.538,2.366-1.324,4.645-2.318,6.85l-9.496,5.683c-3.964,2.373-5.255,7.509-2.882,11.475  c1.567,2.619,4.341,4.07,7.186,4.07c1.462,0,2.944-0.384,4.289-1.188l4.094-2.451c2.778,5.604,6.576,13.937,9.91,23.602  c1.765,5.114,3.504,10.934,4.85,17.06c-8.75,6.671-19.613,11.804-32.37,15.286c-4.457,1.217-7.085,5.816-5.868,10.273  c1.015,3.72,4.387,6.165,8.065,6.165c0.729,0,1.471-0.096,2.207-0.298c11.397-3.111,21.572-7.425,30.426-12.869  c0.23,7.046-0.475,13.994-2.636,20.3c-3.823,11.156-11.664,18.992-23.975,23.956c-1.957,0.79-3.98,1.542-6.051,2.263  c-0.022,0.008-0.045,0.014-0.067,0.022c-27.573,9.587-64.754,13.106-96.978,8.969l-30.062-7.13  c-4.493-1.065-9.004,1.713-10.07,6.209c-1.066,4.495,1.713,9.005,6.209,10.07l24.438,5.796l1.186,22.431c0,0.001,0,0.002,0,0.002  l-33.705,0.001c0.123-0.377,0.21-0.613,0.236-0.682c1.224-3.1,0.49-6.63-1.866-8.986c-5.814-5.814-10.724-28.542-12.405-43.072  c-0.157-2.284-1.262-4.445-3.09-5.928c-0.045-0.04-0.084-0.086-0.133-0.124c-12.281-9.548-19.285-21.699-20.934-36.214  c22.663,6.962,75.405,21.232,126.951,21.232c7.229,0,14.439-0.281,21.535-0.902c4.602-0.403,8.008-4.461,7.604-9.063  c-0.403-4.604-4.465-8.005-9.064-7.604c-58.021,5.077-126.358-14.676-146.802-21.15c1.302-14.996,3.91-29.946,7.745-44.563  c7.33-7.16,14.811-13.093,22.266-17.619c3.95-2.398,5.207-7.544,2.81-11.493c-2.397-3.95-7.542-5.207-11.493-2.81  c-9.149,5.554-18.243,12.847-27.03,21.674c-16.106,16.177-32.499,38.719-43.988,55.728c2.683-37.254,16.824-68.58,42.214-93.381  c3.305-3.229,3.368-8.526,0.139-11.831c-3.229-3.305-8.526-3.369-11.831-0.139c-24.163,23.603-51.962,66.061-47.166,134.296  c0.103,1.461,0.595,2.819,1.36,3.986c2.539,5.789,8.317,9.847,15.033,9.847c9.05,0,16.413-7.363,16.413-16.413  c0-4.847-2.124-9.195-5.475-12.202c6.489-9.783,15.107-22.217,24.452-34.189c-1.227,8.136-2.12,16.313-2.628,24.49  c-1.492,23.783,7.098,44.2,24.864,59.28c1.31,9.875,5.161,33.264,13.483,45.83c-2.098,8.349-4.753,26.579,4.071,47.665v25.053  c0,4.62,3.746,8.366,8.366,8.366h56.765c4.621,0,8.366-3.746,8.366-8.366c0-14.257-8.54-26.549-20.769-32.053l9.02-28.559  c1.126-3.592,1.596-7.294,1.397-10.996l-0.998-18.871c8.852,0.753,17.885,1.009,26.9,0.79c2.185,7.209,4.637,12.852,7.412,17  c-2.096,8.36-4.735,26.567,4.073,47.624v25.067c0,4.62,3.745,8.366,8.366,8.366h56.765c4.621,0,8.366-3.746,8.366-8.366  c0-14.259-8.542-26.553-20.774-32.055l9.01-28.525c1.12-3.526,1.595-7.191,1.413-10.898l-0.75-31.911  c0.383-0.151,0.783-0.29,1.162-0.443c16.846-6.791,28.132-18.247,33.545-34.05C411.356,329.958,388.706,282.676,381.339,268.797z   M212.016,449.65h31.549l-5.953,18.847h-22.119C213.047,461.521,212.145,455.095,212.016,449.65z M218.189,495.268v-10.039h21.628  c7.138,0,13.34,4.085,16.392,10.039H218.189z M312.553,449.65h31.538l-5.952,18.847h-22.107  C313.585,461.521,312.682,455.095,312.553,449.65z M318.72,495.268v-10.039h21.628c7.138,0,13.34,4.085,16.392,10.039H318.72z   M348.409,432.663c0.002,0.083,0.006,0.165,0.01,0.248c0,0.002,0,0.004,0,0.007h-33.694c0.124-0.377,0.21-0.613,0.236-0.682  c1.224-3.1,0.49-6.63-1.866-8.986c-0.926-0.926-2.945-3.567-5.334-10.328c13.96-1.284,27.554-3.689,40.016-7.154L348.409,432.663z"/>
<g>
</g>
<g>
</g>
<g>
</g>
<g>
</g>
<g>
</g>
<g>
</g>
<g>
</g>
<g>
</g>
<g>
</g>
<g>
</g>
<g>
</g>
<g>
</g>
<g>
</g>
<g>
</g>
<g>
</g>
</svg>
