<?xml version="1.0" encoding="iso-8859-1"?>
<!-- Generator: Adobe Illustrator 19.0.0, SVG Export Plug-In . SVG Version: 6.00 Build 0)  -->
<svg xmlns="http://www.w3.org/2000/svg" xmlns:xlink="http://www.w3.org/1999/xlink" version="1.1" id="Layer_1" x="0px" y="0px" viewBox="0 0 512.005 512.005" style="enable-background:new 0 0 512.005 512.005;" xml:space="preserve">
<g>
	<path style="fill:#E6E6E6;" d="M345.414,164.156c0,0,7.896,102.844,54.023,148.971c0,0-37.731,0.584-59.315-31.996l-95.029-95.383"/>
	<path style="fill:#E6E6E6;" d="M308.117,199.469c32.764-10.432,46.74-45.409,46.74-86.944c0-49.773-20.075-90.127-68.476-90.127   s-87.636,40.353-87.636,90.127c0,4.034,0.255,8.015,0.756,11.911h0.003c0,0-120.112,87.923-94.92,234.817   c0,0,25.547-91.542,67.06-118.153c19.16-4.258,21.289,166.053-12.773,227.791l-13.442,5.601c-4.879,2.033-8.361,6.443-9.207,11.661   l-2.897,17.866h75.93c0,0,16.321-123.476,56.77-130.572l0.003-0.003c40.449,7.1,56.767,130.575,56.767,130.575h75.927   l-2.897-17.867c-0.846-5.219-4.329-9.629-9.21-11.662l-13.44-5.598c-26.345-47.751-39.012-218.307-34.541-291.158"/>
</g>
<circle cx="115.941" cy="358.633" r="11.268"/>
<circle cx="405.736" cy="302.484" r="11.268"/>
<path style="fill:#FFD0B8;" d="M355.975,112.525c0,25.802-5.397,49.082-17.34,65.506c-43.323,11.496-81.866-12.795-91.361-46.569  c-9.58-34.062,9.048-58.012,23.418-72.382c14.37-14.37,37.256,7.451,37.256,7.451c25.195-26.962,43.855,9.793,43.855,9.793  C354.633,87.404,355.975,99.645,355.975,112.525z"/>
<path d="M399.267,321.112c0.137,0,0.236-0.001,0.293-0.002c0.349-0.005,0.693-0.044,1.033-0.093  c1.639,0.456,3.357,0.717,5.139,0.717c10.616,0,19.252-8.636,19.252-19.252c0-10.616-8.636-19.252-19.252-19.252  c-5.845,0-11.081,2.628-14.614,6.753c-10.437-16.031-18.102-35.313-23.685-53.943l3.006,2.062c1.381,0.946,2.952,1.4,4.508,1.4  c2.544,0,5.043-1.212,6.591-3.468c2.494-3.636,1.568-8.605-2.068-11.099l-18.192-12.477c-5.15-22.838-7.205-41.555-7.746-47.178  c6.09-14.644,9.31-32.427,9.31-52.755c0-29.747-6.72-53.667-19.068-70.452l2.076,0.378c0.484,0.088,0.965,0.131,1.44,0.131  c3.783,0,7.142-2.7,7.845-6.554c0.791-4.338-2.085-8.494-6.423-9.285l-29.751-5.419c-6.452-3.074-13.552-5.136-21.241-6.155  l1.661-4.316c1.584-4.115-0.468-8.735-4.583-10.318c-4.115-1.584-8.735,0.468-10.318,4.583L282.63,9.92l-7.357-5.243  c-3.591-2.559-8.576-1.722-11.134,1.868c-2.314,3.247-1.844,7.629,0.922,10.33c-13.939,3.27-26.728,9.673-37.622,18.448  l-26.637,9.883c-4.133,1.534-6.242,6.128-4.708,10.262c1.194,3.218,4.243,5.208,7.486,5.208c0.594,0,1.195-0.075,1.793-0.213  c-3.365,5.491-6.212,11.347-8.475,17.495l-11.889,8.753c-3.55,2.614-4.31,7.611-1.696,11.162c1.565,2.126,3.983,3.251,6.435,3.251  c0.565,0,1.129-0.083,1.688-0.204c-0.44,3.806-0.672,7.678-0.672,11.604c0,2.787,0.114,5.577,0.34,8.339  c-2.975,2.402-7.575,6.294-13.186,11.604l-27.466,7.24c-4.263,1.124-6.808,5.491-5.685,9.755c0.944,3.582,4.177,5.95,7.715,5.95  c0.674,0,1.358-0.086,2.041-0.266l2.506-0.661c-6.855,8.023-14.056,17.317-21.072,27.846c-0.055,0.083-0.112,0.171-0.167,0.255  l-19.751,6.187c-4.208,1.318-6.55,5.797-5.233,10.005c1.069,3.414,4.218,5.599,7.616,5.599c0.79,0,1.595-0.118,2.389-0.367  l2.564-0.804c-5.968,10.989-11.645,23.27-16.431,36.772l-17.035,14.136c-3.393,2.815-3.862,7.848-1.045,11.242  c1.579,1.903,3.854,2.886,6.147,2.886c1.399,0,2.798-0.378,4.056-1.123c-6.271,27.512-8.285,58.871-2.348,93.483  c0.038,0.227,0.115,0.438,0.171,0.657c1.287,9.376,9.328,16.628,19.051,16.628c10.616,0,19.252-8.636,19.252-19.252  c0-9.443-6.838-17.301-15.819-18.927c9.402-26.214,27.65-69.189,51.76-88.418c1.476,4.07,3.046,11.385,4.252,21.848l0.41,4.144  l-8.517,25.123c-1.416,4.176,0.822,8.708,4.998,10.124c0.849,0.288,1.714,0.425,2.564,0.425c0.901,0,1.781-0.166,2.614-0.456  c0.037,8.48-0.135,17.757-0.585,27.846c-0.059,1.317-0.125,2.626-0.192,3.933l-15.358,30.552c-1.98,3.94-0.392,8.738,3.548,10.719  c1.151,0.578,2.374,0.852,3.58,0.852c1.682,0,3.318-0.549,4.679-1.533c-1.503,11.858-3.368,23.006-5.55,33.228l-16.467,16.402  c-3.124,3.111-3.134,8.166-0.022,11.289c1.559,1.566,3.607,2.349,5.655,2.349c0.923,0,1.844-0.167,2.722-0.486  c-1.975,5.587-4.08,10.611-6.305,14.974l-10.801,4.502c-7.48,3.117-12.72,9.754-14.018,17.752l-2.897,17.866  c-0.375,2.311,0.283,4.669,1.8,6.452c1.517,1.783,3.739,2.81,6.08,2.81h75.93c4.004,0,7.388-2.967,7.914-6.936  c0.063-0.474,6.434-47.757,20.562-84.302c1.59-4.113-0.456-8.736-4.568-10.325c-4.112-1.59-8.736,0.456-10.325,4.568  c-11.676,30.2-18.129,66.135-20.475,81.03h-59.658l1.395-8.604c0.407-2.509,2.051-4.591,4.398-5.569l11.969-4.987h26.078  c4.409,0,7.983-3.574,7.983-7.983c0-4.409-3.574-7.983-7.983-7.983h-15.043c15.796-38.007,20.099-94.131,21.24-118.231  c1.096-23.15,0.808-46.014-0.812-64.38c-0.026-0.287-0.052-0.557-0.078-0.84c-0.001-0.011,0-0.021-0.001-0.032l-0.024-0.25  c-0.137-1.493-0.279-2.945-0.428-4.325l-6.488-65.533c-0.434-4.388-4.341-7.594-8.731-7.158c-4.388,0.434-7.593,4.343-7.158,8.731  l2.396,24.196c-0.595,0.048-1.108,0.134-1.505,0.222c-0.915,0.203-1.787,0.566-2.576,1.072  c-26.506,16.991-46.43,57.291-58.214,87.127c-0.215-19.825,2.217-39.404,7.289-58.515c6.546-24.67,17.486-48.667,32.513-71.328  c16.759-25.269,34.976-43.28,45.751-52.851c3.278,11.49,9.52,27.976,20.288,38.744c1.558,1.558,3.602,2.339,5.645,2.339  s4.086-0.779,5.645-2.339c3.118-3.118,3.118-8.173,0-11.29c-13.471-13.471-18.5-40.975-18.855-43.003  c-0.445-3.517-0.671-7.13-0.671-10.737c0-45.294,35.731-82.143,79.652-82.143c18.024,0,32.272,6.236,42.461,18.511  c-7.716-1.022-15.213,1.347-22.362,7.069c-2.553-1.863-5.788-3.967-9.396-5.724c-17.534-8.535-28.298-1.661-33.155,3.197  c-10.379,10.379-17.68,20.574-22.319,31.163c-1.769,4.038,0.07,8.747,4.109,10.516c1.042,0.457,2.129,0.673,3.199,0.673  c3.074,0,6.005-1.786,7.317-4.783c3.88-8.856,9.912-17.207,18.984-26.279c8.543-8.542,25.942,7.433,26.101,7.584  c1.542,1.47,3.598,2.26,5.741,2.202c2.13-0.062,4.148-0.973,5.603-2.53c5.059-5.415,9.816-7.855,14.15-7.256  c7.365,1.022,14.053,10.404,16.37,14.519c2.436,9.908,3.691,21.09,3.691,33.282c0,9.472-0.709,17.823-1.942,25.219h-4.573v-2.025  c0-4.409-3.574-7.983-7.983-7.983c-4.409,0-7.983,3.574-7.983,7.983v2.025h-25.547v-2.025c0-4.409-3.574-7.983-7.983-7.983  s-7.983,3.574-7.983,7.983v2.025h-1.282c-4.409,0-7.983,3.574-7.983,7.983c0,4.409,3.574,7.983,7.983,7.983h59.417  c-2.31,6.868-5.164,12.566-8.32,17.284c-5.823,1.331-11.489,1.963-16.944,1.962c-31.131-0.003-55.315-20.204-61.911-43.657  c-1.994-7.089-2.711-14.092-2.134-20.814c0.377-4.393-2.878-8.26-7.271-8.638c-4.404-0.369-8.26,2.878-8.638,7.271  c-0.742,8.642,0.156,17.56,2.673,26.504c5.329,18.947,18.933,35.48,37.326,45.359c11.424,6.135,24.115,9.45,37.21,9.864  c-2.583,1.318-5.06,2.299-7.311,3.016c-4.201,1.338-6.523,5.828-5.185,10.029c1.337,4.201,5.829,6.522,10.029,5.185  c7.13-2.27,13.601-5.647,19.378-10.027c-1.399,73.651,8.98,207.691,30.851,263.858h-10.297c-4.409,0-7.983,3.574-7.983,7.983  c0,4.409,3.574,7.983,7.983,7.983h21.109l11.966,4.984c2.348,0.977,3.992,3.06,4.399,5.57l1.395,8.606h-59.657  c-1.737-11.006-5.729-33.552-12.431-56.849c-13.223-45.963-29.527-70.039-49.844-73.606c-0.995-0.175-2.001-0.155-2.967,0.04  c-11.952,2.183-22.764,11.865-32.142,28.784c-2.137,3.856-0.744,8.716,3.111,10.853c3.858,2.137,8.716,0.745,10.853-3.111  c6.429-11.598,13.234-18.649,19.769-20.518c12.503,3.582,25.485,25.923,35.829,61.817c8.885,30.831,12.978,61.318,13.018,61.623  c0.526,3.969,3.91,6.937,7.914,6.937h75.927c2.341,0,4.563-1.027,6.08-2.81c1.517-1.782,2.175-4.141,1.8-6.452l-2.896-17.867  c-1.298-8.001-6.539-14.637-14.021-17.754l-10.778-4.489c-2.152-4.328-4.217-9.602-6.191-15.652  c0.387,0.057,0.776,0.092,1.164,0.092c2.43,0,4.832-1.106,6.398-3.202c2.641-3.531,1.92-8.534-1.611-11.175l-12.329-9.223  c-2.1-9.142-4.061-19.161-5.87-29.812c0.563,0.122,1.137,0.188,1.712,0.188c1.893,0,3.793-0.668,5.315-2.028  c3.289-2.937,3.574-7.983,0.639-11.272l-11.655-13.053c-1.117-8.167-2.152-16.55-3.107-25.057l0.597,0.701  c1.58,1.855,3.825,2.809,6.083,2.809c1.83,0,3.668-0.625,5.171-1.904c3.357-2.858,3.763-7.896,0.905-11.254l-15.558-18.278  c-0.333-3.753-0.65-7.51-0.951-11.265C371.228,320.516,396.056,321.112,399.267,321.112z M115.939,355.351  c1.812,0,3.285,1.473,3.285,3.285s-1.473,3.285-3.285,3.285c-1.483,0-2.725-0.994-3.132-2.347c0.26-0.871,0.612-2.037,1.056-3.463  C114.43,355.643,115.148,355.351,115.939,355.351z M405.731,299.198c1.812,0,3.285,1.473,3.285,3.285  c0,1.812-1.473,3.285-3.285,3.285c-1.812,0-3.285-1.473-3.285-3.285C402.446,300.671,403.92,299.198,405.731,299.198z   M347.857,278.268c-1.337-21.907-2.072-43.125-2.158-62.131c0.528,2.332,1.084,4.703,1.677,7.114  c7.983,32.468,18.783,58.682,32.221,78.27C369.356,298.076,357.098,291.345,347.857,278.268z"/>
<path d="M290.153,111.061c4.409,0,7.983-3.574,7.983-7.983V88.175c0-4.409-3.574-7.983-7.983-7.983  c-4.409,0-7.983,3.574-7.983,7.983v14.902C282.17,107.486,285.744,111.061,290.153,111.061z"/>
<path d="M330.779,103.077V88.175c0-4.409-3.574-7.983-7.983-7.983s-7.983,3.574-7.983,7.983v14.902c0,4.409,3.574,7.983,7.983,7.983  S330.779,107.486,330.779,103.077z"/>
<path d="M214.786,259.573c0.529,0.105,1.055,0.156,1.574,0.156c3.728,0,7.06-2.624,7.82-6.42l4.258-21.289  c0.864-4.324-1.939-8.529-6.263-9.394c-4.325-0.863-8.529,1.939-9.394,6.263l-4.258,21.289  C207.659,254.502,210.462,258.708,214.786,259.573z"/>
<path d="M234.454,292.727c3.612,0,6.886-2.468,7.76-6.135l5.322-22.353c1.021-4.29-1.628-8.594-5.917-9.615  c-4.29-1.02-8.594,1.628-9.615,5.917l-5.322,22.353c-1.021,4.29,1.628,8.594,5.917,9.615  C233.219,292.656,233.841,292.727,234.454,292.727z"/>
<path d="M265.323,310.821c4.194,0,7.713-3.273,7.962-7.515l1.064-18.096c0.259-4.401-3.1-8.179-7.501-8.439  c-4.416-0.254-8.179,3.1-8.439,7.501l-1.064,18.096c-0.259,4.401,3.1,8.179,7.501,8.439  C265.007,310.816,265.165,310.821,265.323,310.821z"/>
<path d="M290.539,251.333c-4.342,0.766-7.241,4.907-6.475,9.249l3.193,18.096c0.683,3.874,4.051,6.597,7.852,6.597  c0.461,0,0.928-0.04,1.397-0.123c4.342-0.766,7.241-4.907,6.475-9.249l-3.193-18.096  C299.022,253.465,294.88,250.564,290.539,251.333z"/>
<path d="M314.75,227.336c-0.547-4.375-4.539-7.484-8.912-6.932c-4.375,0.547-7.479,4.537-6.932,8.912l2.129,17.031  c0.505,4.039,3.944,6.994,7.912,6.994c0.33,0,0.664-0.021,1-0.063c4.375-0.547,7.479-4.537,6.932-8.912L314.75,227.336z"/>
<path d="M215.163,357.331c0.753,0.221,1.509,0.327,2.257,0.327c3.45,0,6.633-2.256,7.655-5.733l5.322-18.096  c1.244-4.23-1.176-8.668-5.406-9.912c-4.229-1.242-8.668,1.176-9.912,5.406l-5.322,18.096  C208.512,351.651,210.933,356.088,215.163,357.331z"/>
<path d="M305.644,320.489c-4.36,0.654-7.364,4.719-6.71,9.08l3.193,21.289c0.594,3.959,3.999,6.8,7.885,6.8  c0.394,0,0.793-0.029,1.194-0.089c4.36-0.654,7.364-4.719,6.71-9.08l-3.193-21.289C314.07,322.839,310.009,319.835,305.644,320.489z  "/>
<g>
</g>
<g>
</g>
<g>
</g>
<g>
</g>
<g>
</g>
<g>
</g>
<g>
</g>
<g>
</g>
<g>
</g>
<g>
</g>
<g>
</g>
<g>
</g>
<g>
</g>
<g>
</g>
<g>
</g>
</svg>
