<?xml version="1.0" encoding="iso-8859-1"?>
<!-- Generator: Adobe Illustrator 19.0.0, SVG Export Plug-In . SVG Version: 6.00 Build 0)  -->
<svg xmlns="http://www.w3.org/2000/svg" xmlns:xlink="http://www.w3.org/1999/xlink" version="1.1" id="Layer_1" x="0px" y="0px" viewBox="0 0 512.001 512.001" style="enable-background:new 0 0 512.001 512.001;" xml:space="preserve">
<g>
	<path style="fill:#F4516D;" d="M294.693,198.197c26.746,3.284,61.792,5.169,84.333-2.937c0,0-34.429,45.905-118.123,29.899   c1.777-3.273,3.945-6.264,6.589-8.908v-0.011C278.459,212.523,287.475,206.314,294.693,198.197z"/>
	<path style="fill:#F4516D;" d="M256.384,281.305c3.858,22.628,11.379,41.571,11.606,42.167l-67.427,17.913l-22.129,5.874   l-14.467,3.847c-53.643-126.792,2.102-167.452,2.102-167.452c6.892,8.691,15.248,16.18,24.697,22.053   c14.771,9.222,32.229,14.543,50.923,14.543c9.58,0,18.163-1.398,25.803-4.01v0.011c-2.644,2.644-4.812,5.635-6.589,8.908   c-4.725,8.702-6.589,19.322-6.751,30.333c21.435,1.333,44.171,0.672,60.405-5.169C314.557,250.323,296.968,273.774,256.384,281.305   z"/>
</g>
<path style="fill:#666666;" d="M303.21,477.714l-11.823,1.929l-15.41,2.514c-4.812-24.026-15.692-62.518-38.601-85.417  c-2.222,5.061-4.736,10.36-7.564,15.822v0.011c-10.685,20.688-25.889,43.77-47.26,65.141l-7.597-1.04l-16.115-2.211  c12.712-36.304,30.441-96.926,19.593-127.204l35.946-9.547l53.61-14.24C267.99,323.472,313.505,365.552,303.21,477.714z"/>
<path style="fill:#F4516D;" d="M236.964,20.482c0.195,1.745,0.293,3.511,0.293,5.31c0,26.074-21.132,47.206-47.217,47.206  c-5.321,0-10.436-0.889-15.204-2.525c-0.206-1.734-0.303-3.489-0.303-5.278c0-26.074,21.143-47.217,47.217-47.217  C227.07,17.978,232.196,18.856,236.964,20.482z"/>
<g>
	<path style="fill:#8BE8E8;" d="M223.017,503.712l-65.467,0.16c-4.683,0.012-7.909-4.687-6.215-9.053   c1.978-5.1,4.611-12.101,7.506-20.356l23.711,3.251L223.017,503.712z"/>
	<path style="fill:#8BE8E8;" d="M337.889,503.712h-50.625c-4.454,0-8.228-3.261-8.875-7.668c-0.533-3.627-1.313-8.377-2.41-13.886   l27.233-4.443L337.889,503.712z"/>
	<path style="fill:#8BE8E8;" d="M317.548,123.801c0,29.942-7.142,56.699-22.855,74.396c-7.217,8.117-16.234,14.326-27.201,18.044   c-7.64,2.612-16.223,4.01-25.803,4.01c-16.765,0-32.522-4.281-46.252-11.801c-11.379-6.231-21.36-14.695-29.368-24.795   c-8.355-10.534-14.554-22.844-17.924-36.282c-2.666,2.232-5.819,3.522-9.179,3.522c-9.699,0-17.567-10.674-17.567-23.841   s7.868-23.841,17.567-23.841c2.861,0,5.57,0.943,7.954,2.59c2.579-13.655,8.052-28.1,15.735-41.571   c3.695,2.633,7.792,4.768,12.181,6.242c4.768,1.636,9.883,2.525,15.204,2.525c26.085,0,47.217-21.132,47.217-47.206   c0-1.799-0.098-3.565-0.293-5.31c-0.466-4.14-1.474-8.128-2.948-11.877c2.536-0.303,5.093-0.477,7.673-0.477   c12.235,0,22.855,3.294,31.958,9.027C304.142,36.336,317.548,82.783,317.548,123.801z"/>
</g>
<path style="fill:#C63958;" d="M200.563,341.385l-22.129,5.874l-14.467,3.847c-53.643-126.792,2.102-167.452,2.102-167.452  c6.892,8.691,15.248,16.18,24.697,22.053C180.504,230.133,170.219,277.393,200.563,341.385z"/>
<path style="fill:#76CECC;" d="M195.437,208.438v0.011c-11.379-6.231-21.36-14.695-29.368-24.795  c-8.355-10.534-14.554-22.844-17.924-36.282c-2.666,2.232-5.819,3.522-9.179,3.522c-9.699,0-17.567-10.674-17.567-23.841  s7.868-23.841,17.567-23.841c2.861,0,5.57,0.943,7.954,2.59c2.579-13.655,8.052-28.1,15.735-41.571  c3.695,2.633,7.792,4.768,12.181,6.242c4.768,1.636,9.883,2.525,15.204,2.525c26.085,0,47.217-21.132,47.217-47.206  c0-1.799-0.098-3.565-0.293-5.31c-0.466-4.14-1.474-8.128-2.948-11.877c2.536-0.303,5.093-0.477,7.673-0.477  c12.235,0,22.855,3.294,31.958,9.027C273.647,17.155,161.723,96.666,195.437,208.438z"/>
<g>
	<path style="fill:#4D4D4D;" d="M214.38,337.712c0,0-6.448,74.482-39.425,138.962l-16.115-2.211   c12.712-36.304,30.441-96.926,19.593-127.204L214.38,337.712z"/>
	<path style="fill:#4D4D4D;" d="M291.387,479.643l-15.41,2.514c-4.812-24.026-15.692-62.518-38.601-85.417   c-2.222,5.061-4.736,10.36-7.564,15.822l18.336-44.529C248.148,368.033,282.49,398.041,291.387,479.643z"/>
</g>
<g>
	<circle style="fill:#FFFFFF;" cx="230.199" cy="106.05" r="22.35"/>
	<ellipse style="fill:#FFFFFF;" cx="300.866" cy="106.05" rx="15.479" ry="22.35"/>
</g>
<path d="M245.337,162.007c5.051,3.967,11.063,5.889,17.037,5.889c8.197,0,16.32-3.624,21.764-10.556  c2.773-3.531,2.158-8.64-1.373-11.412c-3.529-2.773-8.639-2.159-11.411,1.372c-3.874,4.935-11.041,5.799-15.977,1.922  c-3.531-2.773-8.639-2.158-11.412,1.372C241.192,154.125,241.807,159.235,245.337,162.007z"/>
<path d="M397.487,209.423l-11.575-18.477c-0.04-0.065-0.092-0.117-0.14-0.174c-0.074-0.112-0.13-0.231-0.21-0.34  c-2.133-2.887-5.909-4.034-9.287-2.819c-14.601,5.251-37.506,6.6-66.741,3.99c10.593-17.556,16.143-40.659,16.143-67.801  c0-27.926-5.753-55.064-16.197-76.413c-1.972-4.031-6.838-5.703-10.873-3.729c-4.032,1.972-5.702,6.84-3.729,10.873  c3.132,6.402,5.799,13.546,7.973,21.156c-0.652-0.067-1.311-0.111-1.979-0.111c-13.238,0-23.607,13.388-23.607,30.478  s10.369,30.478,23.607,30.478c2.902,0,5.667-0.644,8.213-1.829c-1.564,24.744-8.56,44.685-20.464,58.091  c-6.505,7.315-14.491,12.613-23.757,15.754c-6.935,2.371-14.732,3.573-23.174,3.573c-27.141,0-52.381-12.215-69.252-33.52  c-7.839-9.884-13.361-21.057-16.409-33.209c-0.681-2.715-2.71-4.889-5.373-5.753c-2.662-0.866-5.581-0.298-7.728,1.499  c-1.287,1.078-2.62,1.626-3.96,1.626c-4.465,0-9.439-6.453-9.439-15.714s4.974-15.714,9.439-15.714c1.109,0,2.23,0.387,3.335,1.15  c2.264,1.564,5.163,1.876,7.708,0.831c2.545-1.045,4.387-3.306,4.898-6.009c1.961-10.385,5.701-21.233,10.925-31.762  c2.077,1.013,4.205,1.887,6.368,2.612c5.734,1.968,11.736,2.965,17.842,2.965c30.517,0,55.344-24.822,55.344-55.333  c0-2.089-0.115-4.18-0.344-6.218c-0.122-1.087-0.277-2.17-0.464-3.247c14.951,0.747,27.838,7.344,38.341,19.637  c2.915,3.411,8.045,3.816,11.459,0.899c3.413-2.916,3.816-8.046,0.899-11.459C281.077,8.784,262.548,0,241.689,0  c-2.767,0-5.673,0.18-8.638,0.534c-2.5,0.299-4.719,1.739-6.011,3.9c-1.012,1.693-1.354,3.677-1.017,5.583  c-1.417-0.108-2.843-0.167-4.274-0.167c-27.855,0-50.959,20.689-54.779,47.505c-1.8-1.13-3.974-1.524-6.062-1.063  c-2.244,0.494-4.174,1.915-5.312,3.911c-6.465,11.334-11.426,23.268-14.574,34.981c-0.683-0.067-1.369-0.101-2.056-0.101  c-14.408,0-25.694,14.043-25.694,31.969s11.287,31.969,25.694,31.969c1.378,0,2.744-0.132,4.083-0.393  c3.007,8.544,7.124,16.607,12.275,24.118c-5.978,6.658-14.934,19.521-19.632,40.406c-0.985,4.379,1.766,8.728,6.146,9.713  c0.6,0.135,1.201,0.199,1.791,0.199c3.717,0,7.072-2.567,7.923-6.345c3.544-15.755,9.693-25.666,14.103-31.124  c19.715,20.939,46.952,32.785,76.035,32.785c3.082,0,6.094-0.153,9.046-0.423c-2.12,5.593-3.524,11.889-4.211,18.827  c-27.872-2.366-51.874-7.591-52.137-7.649c-4.381-0.964-8.719,1.808-9.684,6.192c-0.964,4.384,1.807,8.718,6.19,9.684  c1.221,0.269,30.285,6.606,62.753,8.595c10.879,0.677,20.835,0.778,29.832,0.308c-7.597,3.788-17.071,7.267-28.582,9.403  c-21.784,4.054-46.389,2.43-73.132-4.828c-4.334-1.174-8.797,1.384-9.972,5.715c-1.175,4.332,1.384,8.797,5.715,9.972  c18.575,5.039,36.303,7.565,52.987,7.565c6.63,0,13.091-0.409,19.379-1.207c2.325,11.026,5.262,20.735,7.481,27.354l-88.594,23.534  c-13.842-34.382-20.547-65.13-19.936-91.476c0.104-4.488-3.449-8.21-7.937-8.314c-4.515-0.121-8.21,3.451-8.314,7.937  c-0.702,30.319,7.341,65.545,23.908,104.704c1.297,3.066,4.286,4.962,7.483,4.962c0.692,0,1.395-0.089,2.092-0.274l6.557-1.741  c3.937,22.823-3.644,63.727-21.442,114.555c-2.397,6.837-4.892,13.603-7.414,20.107c-1.766,4.556-1.171,9.681,1.594,13.707  c2.758,4.017,7.311,6.412,12.183,6.412c0.012,0,0.025,0,0.037,0l65.467-0.16c3.603-0.009,6.771-2.39,7.781-5.848  c1.011-3.458-0.376-7.17-3.408-9.118l-32.147-20.653c17.527-18.943,32.324-40.62,44.161-64.652  c16.598,22.279,24.918,53.884,28.581,72.177c0.908,4.56,1.695,9.095,2.341,13.48c1.225,8.331,8.497,14.614,16.916,14.614h50.625  c3.499,0,6.605-2.239,7.71-5.558s-0.036-6.975-2.835-9.073l-31.071-23.293c2.138-26.734,1.308-51.749-2.471-74.416  c-0.738-4.427-4.912-7.416-9.353-6.681c-4.428,0.738-7.419,4.925-6.68,9.353c3.47,20.823,4.285,43.857,2.442,68.543l-13.327,2.174  c-9.257-40.864-23.571-64.504-35.364-77.834c5.716-13.677,9.337-25.329,11.424-33.006c1.178-4.332-1.377-8.797-5.71-9.977  c-4.33-1.177-8.797,1.378-9.976,5.71c-2.19,8.055-6.179,20.784-12.742,35.685c-12.649,28.761-29.581,54.18-50.339,75.636  l-9.874-1.354c12.726-38.093,24.441-84.673,18.635-114.716l76.928-20.436c4.955,6.032,15.339,20.871,22.742,46.595  c1.024,3.563,4.275,5.882,7.806,5.882c0.745,0,1.502-0.103,2.252-0.319c4.313-1.242,6.805-5.745,5.563-10.059  c-9.632-33.47-24.036-50.777-28.673-55.711c-1.72-4.596-5.99-16.718-9.115-31.43c23.487-5.864,38.873-16.641,47.3-24.148  l6.078,9.704c1.543,2.462,4.19,3.815,6.896,3.815c1.474,0,2.966-0.401,4.308-1.241c3.804-2.383,4.956-7.398,2.574-11.202  l-11.574-18.477c-0.041-0.066-0.094-0.12-0.143-0.179c-0.074-0.111-0.129-0.229-0.208-0.336c-2.135-2.888-5.912-4.035-9.288-2.818  c-11.366,4.09-28.226,5.825-49.068,5.094c0.536-5.041,1.539-9.555,2.986-13.522c10.597,1.7,20.427,2.459,29.496,2.459  c44.022,0,70.363-17.527,82.429-28.334l6.064,9.68c1.542,2.463,4.188,3.815,6.894,3.815c1.474,0,2.966-0.401,4.308-1.241  C398.72,218.242,399.87,213.227,397.487,209.423z M203.819,62.356l1.58-3.472c1.859-4.086,0.054-8.905-4.032-10.764  c-4.083-1.857-8.905-0.054-10.764,4.032l-5.635,12.384c-0.764-0.101-1.525-0.226-2.281-0.373  c0.305-11.677,5.745-22.098,14.152-29.068c5.365,2.378,15.431,7.727,22.307,16.746C214.99,56.478,209.746,60.116,203.819,62.356z   M229.103,26.801c-0.088,3.44-0.62,6.769-1.545,9.934c-3.954-4.104-8.234-7.435-12.282-10.084c2.107-0.353,4.268-0.546,6.473-0.546  C224.239,26.106,226.697,26.345,229.103,26.801z M313.497,495.584h-26.233c-0.423,0-0.774-0.303-0.836-0.723  c-0.29-1.978-0.622-3.993-0.966-6.017l15.64-2.552L313.497,495.584z M195.435,495.652l-35.743,0.088  c1.548-4.032,3.08-8.158,4.586-12.327l15.392,2.111L195.435,495.652z M300.871,120.277c-2.999,0-7.352-5.54-7.352-14.222  s4.354-14.222,7.352-14.222s7.352,5.541,7.352,14.222S303.868,120.277,300.871,120.277z M346.865,209.359  c-18.854,9.138-41.673,12.633-66.76,10.332c6.518-3.362,12.435-7.687,17.687-12.944c19.022,2.168,35.74,2.88,50.043,2.135  C347.516,209.041,347.192,209.201,346.865,209.359z"/>
<path d="M185.195,122.283c-2.628,3.639-1.809,8.719,1.83,11.347c9.056,6.541,18.459,8.955,27.239,8.955  c14.669,0,27.605-6.736,34.304-12.222c0.01-0.008,0.013-0.016,0.023-0.024c7.338-5.57,12.088-14.382,12.088-24.284  c0-16.806-13.672-30.478-30.478-30.478s-30.478,13.672-30.478,30.478c0,7.295,2.579,13.999,6.872,19.252  c-3.314-0.898-6.697-2.432-10.051-4.855C192.903,117.824,187.822,118.644,185.195,122.283z M230.201,91.833  c7.843,0,14.222,6.38,14.222,14.222c0,7.842-6.38,14.222-14.222,14.222s-14.222-6.38-14.222-14.222S222.358,91.833,230.201,91.833z"/>
<g>
</g>
<g>
</g>
<g>
</g>
<g>
</g>
<g>
</g>
<g>
</g>
<g>
</g>
<g>
</g>
<g>
</g>
<g>
</g>
<g>
</g>
<g>
</g>
<g>
</g>
<g>
</g>
<g>
</g>
</svg>
