<?xml version="1.0" encoding="iso-8859-1"?>
<!-- Generator: Adobe Illustrator 19.0.0, SVG Export Plug-In . SVG Version: 6.00 Build 0)  -->
<svg xmlns="http://www.w3.org/2000/svg" xmlns:xlink="http://www.w3.org/1999/xlink" version="1.1" id="Layer_1" x="0px" y="0px" viewBox="0 0 512.001 512.001" style="enable-background:new 0 0 512.001 512.001;" xml:space="preserve">
<path style="fill:#666666;" d="M423.879,110.521l-0.282,0.688c-11.504-4.658-23.899-8.516-36.937-11.414v-0.011  c0.147-36.125-30.441-65.392-30.441-65.392C403.578,34.392,423.879,110.521,423.879,110.521z"/>
<g>
	<path style="fill:#75CC54;" d="M250.53,42.828c18.711,24.824,29.775,48.779,35.64,71.076   c-13.105,20.042-12.158,51.689-12.474,79.874c-5.73-19.06-19.568-52.151-51.068-79.411C254.894,95.611,250.53,42.828,250.53,42.828   z"/>
	<path style="fill:#75CC54;" d="M273.695,193.778c-0.271,25.32-1.556,47.843-14.944,56.617   c-26.955-39.993-73.456-49.377-73.456-49.377c0-41.842-35.56-56.482-35.56-56.482c12.553-37.658-31.388-73.23-31.388-73.23   c47.302,5.56,80.731,22.693,104.28,43.061C254.127,141.627,267.966,174.718,273.695,193.778z"/>
</g>
<path style="fill:#D35746;" d="M236.68,402.316l-47.516,43.162l-15.226-15.226l26.865-61.772  C211.901,381.192,223.63,392.955,236.68,402.316z"/>
<path style="fill:#F26D53;" d="M503.831,198.662c0,38.955-41.583,49.569-97.49,32.493c16.129,54.711,29.752,147.138-47.685,179.529  c-9.057,3.79-17.651,6.688-25.839,8.775l11.978,29.403c-4.749,3.395-10.195,5.008-15.575,5.008c-9.091,0-18.012-4.602-23.076-13.049  l-10.286-17.155h-0.011c-22.952-0.969-42.181-9.135-59.167-21.35c-13.049-9.361-24.778-21.124-35.876-33.835  c-3.158-3.62-6.259-7.308-9.339-11.053c-48.926-59.572-88.84-130.446-183.297-79.512c0.688-1.388,49.196-98.212,119.36-79.253  c52.952,14.312,73.738,47.911,99.306,55.84c0.011,0,0.011,0,0.011,0c8.56,2.651,17.651,2.436,28.67-2.357  c1.15-0.497,2.233-1.083,3.237-1.748c2.82-1.849,5.098-4.298,6.937-7.263c6.947-11.109,7.794-29.358,8.008-49.354  c0.316-28.185-0.632-59.832,12.474-79.874c6.688-10.252,17.064-17.459,33.147-19.625c-6.507-28.556-28.647-49.737-28.647-49.737  c28.579,0,47.302,27.722,57.655,49.704c13.218,0.914,26.065,2.809,38.335,5.549c13.038,2.898,25.433,6.756,36.937,11.414  c4.962,1.996,9.756,4.151,14.369,6.44l0.011,0.011C477.756,137.353,503.831,167.082,503.831,198.662z"/>
<g>
	<path style="fill:#FCA195;" d="M437.976,117.66l-0.011-0.011c-4.612-2.289-9.407-4.444-14.369-6.44   c-11.504-4.658-23.899-8.516-36.937-11.414c-12.271-2.74-25.117-4.635-38.335-5.549c-10.354-21.981-29.076-49.704-57.655-49.704   c0,0,11.831,11.33,20.739,28.58c4.869,6.928,8.89,14.302,12.104,21.124c13.218,0.914,26.065,2.809,38.335,5.549   c13.038,2.898,25.433,6.756,36.937,11.414c4.962,1.996,9.756,4.151,14.369,6.44l0.011,0.011   c39.779,19.692,65.855,49.421,65.855,81.001c0,23.368-14.974,36.524-39.015,39.636c38.136,4.079,63.827-9.02,63.827-39.636   C503.831,167.082,477.756,137.353,437.976,117.66z"/>
	<path style="fill:#FCA195;" d="M381.528,231.155c16.128,54.711,29.752,147.138-47.685,179.529c-0.09,0.038-0.181,0.076-0.271,0.113   c-13.746,5.731-20.385,21.382-14.767,35.174l1.177,2.89c-1.038,0.742-2.114,1.383-3.211,1.957   c3.849,1.999,8.127,3.051,12.447,3.051c5.38,0,10.828-1.613,15.575-5.008l-11.978-29.403c8.188-2.087,16.782-4.985,25.839-8.775   c74.584-31.197,64.693-118.082,49.452-173.326C399.725,236.053,390.831,233.997,381.528,231.155z"/>
</g>
<g>
	<path style="fill:#D35746;" d="M437.976,117.66c0,0-109.096-20.414-109.096,43.872c0,63.779-82.321,116.878-83.606,117.701   l23.245-33.271l-2.831-2.831c6.947-11.109,7.794-29.358,8.008-49.354c0.316-28.185-0.632-59.832,12.474-79.874   c6.688-10.252,17.064-17.459,33.147-19.625c-6.507-28.556-28.647-49.737-28.647-49.737c28.579,0,47.302,27.722,57.655,49.704   c13.218,0.914,26.065,2.809,38.335,5.549c13.038,2.898,25.433,6.756,36.937,11.414c4.962,1.996,9.756,4.151,14.369,6.44   L437.976,117.66z"/>
	<path style="fill:#D35746;" d="M191.465,357.428c-48.926-59.572-88.84-130.446-183.297-79.512   c0.688-1.388,49.196-98.212,119.36-79.253c52.952,14.312,73.738,47.911,99.306,55.84   C225.548,254.602,148.031,260.884,191.465,357.428z"/>
</g>
<path d="M395.538,157.599c0.301,0,0.606-0.016,0.912-0.05c4.484-0.499,7.714-4.537,7.216-9.02l-1.691-15.225  c-0.498-4.484-4.537-7.713-9.02-7.216c-4.484,0.499-7.714,4.537-7.216,9.02l1.691,15.225  C387.894,154.51,391.43,157.599,395.538,157.599z"/>
<path d="M424.54,157.599c0.301,0,0.606-0.016,0.912-0.05c4.484-0.499,7.714-4.537,7.216-9.02l-1.691-15.225  c-0.499-4.484-4.534-7.713-9.02-7.216c-4.484,0.499-7.714,4.537-7.216,9.02l1.691,15.225  C416.897,154.51,420.433,157.599,424.54,157.599z"/>
<path d="M376.038,296.266c0.306,0.034,0.611,0.05,0.912,0.05c4.107,0,7.644-3.09,8.108-7.267c0.414-3.728,2.015-22.849-7.196-33.14  c-3.736-4.175-8.735-6.38-14.456-6.38c-18.846,0-53.126,22.49-56.973,25.055c-3.754,2.502-4.768,7.574-2.265,11.327  c2.503,3.754,7.576,4.768,11.327,2.265c12.94-8.626,37.389-22.311,47.911-22.311c1.203,0,1.747,0.342,2.277,0.932  c3.251,3.619,3.793,14.349,3.138,20.447C368.322,291.729,371.554,295.767,376.038,296.266z"/>
<path d="M459.377,198.397c1.493-7.439-7.534-12.726-13.309-7.81c-5.655,4.815-2.103,14.377,5.304,14.377  C455.227,204.964,458.62,202.167,459.377,198.397z"/>
<path d="M430.901,105.408c-4.555-15.006-26.838-79.185-74.682-79.185c-3.336,0-6.337,2.029-7.58,5.126  c-1.243,3.097-0.477,6.637,1.933,8.944c0.25,0.24,22.431,21.782,27.063,49.366c-7.915-1.418-15.948-2.49-24.022-3.19  c-16.52-32.792-38.212-50.095-62.943-50.095c-3.333,0-6.326,2.028-7.571,5.119c-1.246,3.091-0.485,6.632,1.915,8.943  c0.182,0.175,16.355,15.945,23.993,37.623c-7.363,2.05-13.78,5.317-19.237,9.748c-7.16-20.448-18.127-40.538-32.718-59.894  c-2.187-2.901-6.027-4.005-9.422-2.714c-3.396,1.289-5.533,4.672-5.242,8.294c0.036,0.449,3.097,42.42-19.299,60.649  C195.246,81.797,160.371,68.023,119.3,63.195c-3.602-0.426-7.056,1.588-8.472,4.935c-1.415,3.346-0.447,7.226,2.371,9.52  c0.394,0.321,39.381,32.523,28.786,64.305c-1.358,4.073,0.67,8.502,4.64,10.136c0.305,0.125,30.502,12.972,30.502,48.928  c0,3.888,2.741,7.238,6.553,8.007c0.399,0.081,37.082,7.797,62.232,37.874c-15.299,4.099-26.105-3.413-44.844-17.828  c-16.962-13.046-38.072-29.283-71.408-38.294c-31.801-8.593-64.226,3.249-93.775,34.246c-21.841,22.908-34.504,48.198-35.032,49.264  c-1.581,3.187-0.917,7.031,1.64,9.504c1.562,1.508,3.608,2.295,5.679,2.295c1.322,0,2.654-0.32,3.874-0.978  c49.546-26.713,78.838-15.357,96.562-4.493c3.848,2.36,8.876,1.151,11.233-2.694c2.358-3.846,1.151-8.875-2.694-11.233  c-26.665-16.347-55.743-18.702-88.334-7.024c5.039-7.262,11.401-15.503,18.896-23.366c25.524-26.772,51.661-36.78,77.689-29.748  c30.207,8.165,49.07,22.673,65.71,35.472c19.154,14.732,35.925,27.615,60.481,20.252c-4.439,5.624-10.712,11.028-19.598,15.193  c-4.084,1.915-5.844,6.777-3.93,10.863c1.389,2.965,4.331,4.704,7.402,4.704c1.161,0,2.34-0.249,3.461-0.774  c29.971-14.046,38.065-41.878,40.219-56.697c0.81-5.574,2.6-30.18,2.723-41.691c0.026-2.366,0.045-4.755,0.062-7.16  c0.188-25.554,0.384-51.978,11.085-68.341c4.612-7.069,11.079-11.796,19.624-14.341c0.611,6.228,0.24,12.299-1.158,18.123  c-1.052,4.387,1.65,8.797,6.037,9.849c0.64,0.154,1.282,0.228,1.912,0.228c3.69,0,7.037-2.519,7.936-6.265  c2.578-10.742,2.55-22.014-0.081-33.495c-2.733-11.993-7.931-22.71-13.299-31.365c8.783,6.58,18.117,17.868,26.954,36.628  c6.382,13.548,9.472,24.942,9.502,25.055c1.165,4.355,5.637,6.944,9.996,5.781c4.359-1.162,6.95-5.638,5.786-9.998  c-0.095-0.356-1.701-6.315-4.991-14.872c7.993,0.985,15.91,2.344,23.659,4.075c12.433,2.764,24.424,6.468,35.652,11.014  c39.036,15.756,65.612,39.96,73.02,65.473c-2.771-1.198-6.098-0.793-8.459,1.153c-5.791,4.774-2.321,14.48,5.175,14.48  c2.016,0,3.907-0.77,5.364-2.042c0.004,0.271,0.024,0.543,0.024,0.815c0,10.586-3.666,18.666-10.895,24.018  c-14.51,10.741-42.205,10.987-75.987,0.68c-0.019-0.005-0.035-0.013-0.053-0.02c-23.654-7.208-49.357-19.442-74.332-35.379  c-3.801-2.427-8.852-1.312-11.28,2.492c-2.428,3.803-1.311,8.853,2.492,11.28c24.727,15.78,50.242,28.127,74.088,35.885  c7.661,27.2,11.435,53.09,10.913,75.107c-0.107,4.51,3.462,8.253,7.972,8.36c0.066,0.001,0.132,0.002,0.197,0.002  c4.422,0,8.057-3.531,8.163-7.974c0.205-8.637-0.178-17.656-1.121-27.013c4.302-1.368,6.82-1.627,8.086-1.627  c1.203,0,1.747,0.342,2.277,0.932c3.251,3.62,3.793,14.35,3.138,20.449c-0.499,4.484,2.733,8.522,7.216,9.02  c0.306,0.034,0.611,0.05,0.912,0.05c4.107,0,7.644-3.09,8.108-7.267c0.414-3.729,2.015-22.851-7.197-33.143  c-3.736-4.175-8.735-6.38-14.456-6.38c-2.998,0-6.406,0.535-10.259,1.581c-1.429-8.728-3.309-17.713-5.648-26.942  c32.965,7.756,59.801,5.389,76.488-6.964c11.457-8.48,17.514-21.326,17.514-37.148C512,162.312,481.043,126.868,430.901,105.408z   M257.595,67.84c8.832,14.708,15.45,29.717,19.768,44.851c-6.967,12.333-9.746,27.362-10.894,43.241  c-7.287-13.163-17.326-27.478-31.025-40.855C249.65,102.289,255.379,83.262,257.595,67.84z M141.312,83.479  c29.761,6.715,55.24,19.135,75.97,37.066c24.848,21.502,38.122,47.006,44.927,64.855c-23.523-23.127-48.746-35.044-67.416-41.132  c-14.492-4.727-26.866-6.637-35.003-7.403C162.341,115.905,151.726,96.746,141.312,83.479z M193.214,194.628  c-1.327-16.711-7.763-29.156-15.123-38.123c3.841,0.926,7.959,2.076,12.279,3.505c29.665,9.816,54.712,27.619,74.522,52.891  c-0.419,5.997-1.115,11.523-2.295,16.264c-0.064,0.21-0.119,0.423-0.166,0.639c-0.778,2.965-1.755,5.606-2.982,7.844  C236.906,209.884,206.308,198.452,193.214,194.628z M400.576,76.269c4.435,7.635,7.879,15.338,10.378,21.681  c-5.361-1.733-10.836-3.297-16.403-4.679c-1.401-16.469-8.078-31.168-15.047-42.385C386.984,56.517,394.025,64.991,400.576,76.269z"/>
<path d="M417.246,333.546c-4.408-0.969-8.762,1.824-9.728,6.231c-6.661,30.4-24.162,51.722-52.017,63.373  c-6.09,2.549-12.074,4.711-17.872,6.476l-2.76-6.774c3.271-10.988,11.958-48.095-11.367-71.42  c-11.867-11.871-33.66-21.8-70.089-1.694c-20.128,11.11-35.545,26.423-36.191,27.069c-3.19,3.19-3.19,8.362,0,11.551  c3.189,3.19,8.361,3.19,11.551,0c0.142-0.142,14.408-14.313,32.534-24.319c22.107-12.2,39.145-12.559,50.642-1.059  c19.68,19.681,6.678,57.075,6.55,57.436c-0.683,1.898-0.64,3.982,0.121,5.85l15.763,38.691c-1.666,0.484-3.398,0.744-5.165,0.744  c-6.653,0-12.661-3.395-16.071-9.081l-10.286-17.155c-0.069-0.113-0.138-0.225-0.211-0.334l-15.127-25.223  c-2.32-3.868-7.337-5.125-11.207-2.804c-3.869,2.32-5.124,7.337-2.804,11.207l6.685,11.146c-13.43-2.896-26.224-8.764-38.758-17.777  c-11.042-7.921-22-18.271-34.484-32.57c-8.375-9.594-16.55-19.952-24.457-29.97c-14.384-18.224-29.258-37.07-45.675-51.664  c-3.372-2.997-8.535-2.693-11.531,0.678c-2.997,3.372-2.693,8.534,0.679,11.531c15.34,13.637,29.118,31.093,43.705,49.575  c6.975,8.838,14.173,17.913,21.602,26.638l-22.973,52.821l-17.565,2.196l-9.019-12.885c-2.588-3.696-7.68-4.594-11.376-2.008  c-3.696,2.587-4.595,7.68-2.008,11.376l11.842,16.917c1.54,2.2,4.047,3.484,6.69,3.484c0.337,0,0.675-0.021,1.015-0.063  l23.099-2.887l6.626,6.626l-4.543,4.542l-15.036-1.202c-4.5-0.356-8.434,2.995-8.793,7.491c-0.359,4.497,2.994,8.434,7.491,8.793  l18.797,1.503c0.218,0.017,0.435,0.026,0.652,0.026c2.156,0,4.238-0.855,5.776-2.393l12.792-12.79l42.662-38.754  c17.053,11.114,34.7,17.327,53.655,18.859l8.077,13.47c6.388,10.656,17.634,17.017,30.082,17.017c4.43,0,8.755-0.827,12.802-2.428  l14.525,22.439c1.564,2.416,4.187,3.73,6.865,3.73c1.52,0,3.059-0.425,4.432-1.312c3.787-2.451,4.869-7.508,2.418-11.296  l-12.784-19.749l15.273-4.823l5.341,10.682c1.431,2.862,4.316,4.518,7.312,4.517c1.227,0,2.473-0.278,3.646-0.864  c4.035-2.017,5.671-6.923,3.653-10.959l-8.459-16.918c-1.795-3.592-5.935-5.346-9.765-4.136l-24.961,7.883l-5.7-13.993  c5.875-1.841,11.894-4.041,17.991-6.591c33.053-13.826,53.802-39.041,61.67-74.946C424.443,338.867,421.653,334.512,417.246,333.546  z M203.248,383.34c7.148,7.583,13.949,13.99,20.705,19.502l-34.519,31.356l-5.788-5.788L203.248,383.34z"/>
<g>
</g>
<g>
</g>
<g>
</g>
<g>
</g>
<g>
</g>
<g>
</g>
<g>
</g>
<g>
</g>
<g>
</g>
<g>
</g>
<g>
</g>
<g>
</g>
<g>
</g>
<g>
</g>
<g>
</g>
</svg>
