<?xml version="1.0" encoding="iso-8859-1"?>
<!-- Generator: Adobe Illustrator 19.0.0, SVG Export Plug-In . SVG Version: 6.00 Build 0)  -->
<svg xmlns="http://www.w3.org/2000/svg" xmlns:xlink="http://www.w3.org/1999/xlink" version="1.1" id="Layer_1" x="0px" y="0px" viewBox="0 0 512 512" style="enable-background:new 0 0 512 512;" xml:space="preserve">
<g>
	<path style="fill:#EFF9B4;" d="M248.636,478.557h39.622c13.989,0,25.336,11.348,25.336,25.336h-41.186   c0-13.989-11.348-25.336-25.336-25.336H248.636z"/>
	<path style="fill:#EFF9B4;" d="M272.409,503.894h-25.379h-41.186v-25.336h41.186h0.042   C261.061,478.557,272.409,489.905,272.409,503.894z"/>
</g>
<g>
	<polygon style="fill:#333333;" points="320.653,392.161 288.258,440.521 288.258,478.557 248.636,478.557 248.636,440.521    281.041,392.161 293.012,392.161  "/>
	<path style="fill:#333333;" d="M281.041,392.161l-32.405,48.36v38.036h-1.564h-0.042h-41.186v-49.131h5.378   c5.78,0,10.47-4.681,10.47-10.47V392.16h59.349V392.161z"/>
</g>
<path style="fill:#4D4D4D;" d="M293.012,288.383l-30.112,6.34l-28.528-48.201h20.604  C254.975,246.522,293.012,263.025,293.012,288.383z"/>
<path style="fill:#EFF9B4;" d="M320.653,282.72v109.44h-27.64c0,0,0-78.419,0-103.777c0-25.358-38.037-41.862-38.037-41.862h29.479  C304.445,246.522,320.653,262.73,320.653,282.72z"/>
<g>
	<path style="fill:#4D4D4D;" d="M221.693,392.161h-33.969V291.554v-23.403c0-11.95,9.689-21.628,21.639-21.628h25.009l28.528,48.201   l30.112-6.34c0,25.358,0,103.777,0,103.777h-11.97L221.693,392.161L221.693,392.161z"/>
	<path style="fill:#4D4D4D;" d="M340.642,25.254v30.862l-27.439-19.885l-27.45,19.885l-27.439-19.885l-22.357,16.197l-5.093,3.688   l-27.439-19.885V25.254c0-9.466,7.681-17.148,17.148-17.148h102.932C332.972,8.106,340.642,15.787,340.642,25.254z"/>
</g>
<path style="fill:#333333;" d="M235.957,8.106v44.323l-5.093,3.688l-27.439-19.885V25.254c0-9.466,7.681-17.148,17.148-17.148  C220.573,8.106,235.957,8.106,235.957,8.106z"/>
<g>
	<path style="fill:#EFF9B4;" d="M221.693,392.161v26.795c0,5.79-4.692,10.47-10.47,10.47h-5.378h-7.65   c-5.78,0-10.47-4.681-10.47-10.47v-26.795H221.693z"/>
	<path style="fill:#EFF9B4;" d="M340.642,56.116v133.72c0,11.263-9.129,20.392-20.381,20.392h-32.416v36.293h-84.42v-70.963   c-2.261,0.677-4.648,1.035-7.121,1.035c-14.633,0-26.329-12.594-24.819-27.535c1.12-11.158,9.795-20.329,20.867-22.051   c3.889-0.613,7.639-0.296,11.072,0.73V36.23l27.439,19.885l5.093-3.688l22.357-16.197l27.439,19.886l27.45-19.885L340.642,56.116z"/>
</g>
<path style="fill:#F9FCDB;" d="M313.203,36.231L302.9,43.695l17.141,12.421v133.72c0,11.263-9.129,20.392-20.381,20.392h20.602  c11.253,0,20.381-9.129,20.381-20.392V56.116L313.203,36.231z"/>
<path style="fill:#D5DB9A;" d="M235.957,52.429v194.094h-32.532V175.56c-2.261,0.677-4.648,1.035-7.121,1.035  c-14.633,0-26.329-12.594-24.819-27.535c1.12-11.158,9.795-20.329,20.867-22.051c3.889-0.613,7.639-0.296,11.072,0.73V36.231  l27.439,19.885L235.957,52.429z"/>
<path d="M323.505,0H220.573c-13.925,0-25.254,11.329-25.254,25.254v38.661c0,4.477,3.629,8.106,8.106,8.106s8.106-3.629,8.106-8.106  v-11.8l14.577,10.563c2.836,2.057,6.674,2.057,9.512,0.001l22.694-16.439l22.684,16.438c2.836,2.057,6.674,2.057,9.512,0.001  l22.694-16.439l19.335,14.012v49.704h-87.944c-4.477,0-8.106,3.629-8.106,8.106s3.629,8.106,8.106,8.106h27.688v6  c0,4.477,3.629,8.106,8.106,8.106c4.477,0,8.106-3.629,8.106-8.106v-6h19.615v6c0,4.477,3.629,8.106,8.106,8.106  s8.106-3.629,8.106-8.106v-6h8.217v63.67c0,6.775-5.507,12.286-12.275,12.286h-62.243c-4.477,0-8.106,3.629-8.106,8.106  c0,4.477,3.629,8.106,8.106,8.106h21.722v20.083h-68.209v-20.582h6.218c4.477,0,8.106-3.629,8.106-8.106s-3.629-8.106-8.106-8.106  h-6.218v-26.064c0-2.561-1.21-4.971-3.264-6.501c-2.053-1.529-4.708-1.999-7.163-1.264c-1.544,0.461-3.159,0.696-4.8,0.696  c-4.756,0-9.314-2.025-12.505-5.556c-3.23-3.573-4.739-8.211-4.248-13.063c0.748-7.455,6.656-13.701,14.064-14.853  c0.571-0.09,1.14-0.142,1.708-0.175v7.045c0,4.477,3.629,8.106,8.106,8.106s8.106-3.629,8.106-8.106v-15.181  c0-0.014-0.002-0.028-0.002-0.042V86.611c0-4.477-3.629-8.106-8.106-8.106s-8.106,3.629-8.106,8.106v31.994  c-1.402,0.043-2.807,0.175-4.213,0.397c-14.804,2.302-26.19,14.331-27.687,29.245c-0.943,9.328,2.101,18.644,8.352,25.56  c6.039,6.68,14.574,10.612,23.548,10.881v16.937h-5.259v-6.809c0-4.477-3.629-8.106-8.106-8.106s-8.106,3.629-8.106,8.106v29.829  c0,4.477,3.629,8.106,8.106,8.106s8.106-3.629,8.106-8.106v-6.809h5.259v24.113c-9.338,5.021-15.7,14.882-15.7,26.202v150.806  c0,10.089,8.089,18.308,18.12,18.553v41.048v25.336c0,4.477,3.629,8.106,8.106,8.106h41.186h66.564c4.477,0,8.106-3.629,8.106-8.106  c0-15.645-10.801-28.811-25.336-32.443v-28.466l30.997-46.275c0.009-0.012,0.017-0.025,0.025-0.038l0,0l0,0  c0.866-1.289,1.371-2.841,1.371-4.511v-61.297c0-4.477-3.629-8.106-8.106-8.106s-8.106,3.629-8.106,8.106v53.192h-11.429v-95.671  c0-14.02-8.798-25.442-18.431-33.755h1.767c15.491,0,28.092,12.603,28.092,28.092v24.366c0,4.477,3.629,8.106,8.106,8.106  s8.106-3.629,8.106-8.106v-24.366c0-20.452-13.934-37.704-32.806-42.782v-21.604h24.311c15.708,0,28.487-12.784,28.487-28.497  V25.254C348.748,11.329,337.424,0,323.505,0z M195.83,418.955v-18.688h17.757v18.688c0,1.304-1.06,2.365-2.365,2.365h-13.027  C196.891,421.32,195.83,420.26,195.83,418.955z M241.902,436.009c-0.895,1.335-1.373,2.905-1.373,4.512v29.932h-26.58v-33.144  c8.951-1.326,15.848-9.039,15.848-18.352v-18.688h36.054L241.902,436.009z M213.95,486.663h33.08c0.008,0,0.014-0.001,0.022-0.001  s0.014,0.001,0.022,0.001c6.572,0,12.291,3.701,15.197,9.125h-15.239h-33.08v-9.125H213.95z M303.46,495.789h-23.944  c-0.814-3.255-2.103-6.325-3.793-9.125h12.536C294.83,486.663,300.556,490.363,303.46,495.789z M281.524,436.01  c-0.895,1.335-1.372,2.905-1.372,4.511v29.932h-23.41v-27.466l28.625-42.718h20.1L281.524,436.01z M281.03,384.055  c-0.008,0-0.015,0-0.022,0h-51.21v-92.502c0-4.477-3.629-8.106-8.106-8.106s-8.106,3.629-8.106,8.106v92.502H195.83V268.15  c0-7.456,6.071-13.522,13.532-13.522h20.389l26.173,44.224c1.478,2.5,4.151,3.978,6.974,3.978c0.554,0,1.114-0.057,1.671-0.174  l20.337-4.282v85.681L281.03,384.055L281.03,384.055z M269.059,264.375c5.625,4.315,12.072,10.526,14.664,17.681l-16.808,3.538  l-18.328-30.966h4.599C255.994,255.982,262.519,259.357,269.059,264.375z M317.959,29.668c-2.837-2.057-6.674-2.057-9.512-0.001  l-22.694,16.439L263.07,29.668c-2.836-2.057-6.674-2.057-9.512-0.001l-22.694,16.439L211.53,32.095v-6.841  c0-4.986,4.056-9.043,9.043-9.043h102.932c4.98,0,9.032,4.056,9.032,9.043v14.978L317.959,29.668z"/>
<path d="M276.721,318.564c-1.316-3.119-4.481-5.167-7.881-4.994c-3.166,0.162-5.996,2.199-7.145,5.152  c-2.702,6.939,4.991,13.638,11.501,10.018C276.721,326.778,278.293,322.288,276.721,318.564z"/>
<path d="M276.721,350.262c-1.35-3.195-4.607-5.235-8.08-4.982c-3.265,0.238-6.118,2.493-7.112,5.608  c-2.218,6.941,5.506,13.137,11.804,9.461C276.766,358.344,278.273,353.94,276.721,350.262z"/>
<path d="M320.04,177.544c4.477,0,8.106-3.629,8.106-8.106s-3.629-8.106-8.106-8.106h-46.248c-4.477,0-8.106,3.629-8.106,8.106  s3.629,8.106,8.106,8.106H320.04z"/>
<g>
</g>
<g>
</g>
<g>
</g>
<g>
</g>
<g>
</g>
<g>
</g>
<g>
</g>
<g>
</g>
<g>
</g>
<g>
</g>
<g>
</g>
<g>
</g>
<g>
</g>
<g>
</g>
<g>
</g>
</svg>
