<?xml version="1.0" encoding="iso-8859-1"?>
<!-- Generator: Adobe Illustrator 19.0.0, SVG Export Plug-In . SVG Version: 6.00 Build 0)  -->
<svg xmlns="http://www.w3.org/2000/svg" xmlns:xlink="http://www.w3.org/1999/xlink" version="1.1" id="Layer_1" x="0px" y="0px" viewBox="0 0 512 512" style="enable-background:new 0 0 512 512;" xml:space="preserve">
<path style="fill:#6ABA49;" d="M340.515,252.119c0,0,19.014,29.926,43.192,15.255c-0.656,0.866-27.643,36.155-53.436,15.911  C335.316,272.971,338.583,262.481,340.515,252.119z"/>
<path style="fill:#75CC54;" d="M338.407,188.263c-11.181,14.518-27.866,24.458-50.942,27.549c-18.58,2.494-36.658-0.082-52.873-6.65  c-11.088-4.484-21.298-10.842-30.184-18.734v-0.011h-0.011c-11.919-10.596-21.461-23.944-27.549-39.222  c-2.541,2.775-5.726,4.601-9.332,5.093c-10.385,1.382-20.337-8.91-22.234-23.018c-1.885-14.096,5-26.66,15.384-28.04  c3.079-0.422,6.112,0.199,8.91,1.628c1.101-20.606,8.289-39.936,20.009-55.93h0.011c4.567-6.24,9.835-11.977,15.701-17.082  c14.846-12.914,33.52-21.778,54.49-24.587c57.042-7.646,87.425,35.347,95.071,92.389  C359.412,135.611,354.869,166.896,338.407,188.263z"/>
<path style="fill:#93DB75;" d="M354.857,101.645c-7.416-55.329-36.225-97.437-90.004-92.939  c44.043,3.959,68.097,43.081,74.78,92.939c4.554,33.965,0.011,65.249-16.45,86.616c-11.181,14.518-27.866,24.458-50.942,27.549  c-2.118,0.284-4.228,0.494-6.33,0.648c7.054,0.517,14.264,0.33,21.554-0.648c23.077-3.091,39.761-13.031,50.942-27.549  C354.869,166.896,359.412,135.611,354.857,101.645z"/>
<path style="fill:#52CBCE;" d="M202.651,450.303c-13.851-3.805-23.522-10.456-29.891-18.932c0-0.011,0-0.011,0-0.011  c-18.207-24.177-9.659-63.154,4.707-92.892c0,0,16.228,27.316,47.136,23.592c-5.667,2.119-10.397,4.59-14.284,7.271  c-2.131,1.463-4.004,2.997-5.632,4.566c0.878,0.082,1.744,0.163,2.599,0.27c20.958,2.611,34.597,13.991,41.048,27.316h0.011  C261.181,427.951,245.632,462.105,202.651,450.303z"/>
<path style="fill:#6ABA49;" d="M234.591,209.162c-11.088-4.484-21.298-10.842-30.184-18.734v-0.011h-0.011  c-11.919-10.596-21.461-23.944-27.549-39.222c-2.541,2.775-5.726,4.601-9.332,5.093c-10.385,1.382-20.337-8.91-22.234-23.018  c-1.885-14.096,5-26.66,15.384-28.04c3.079-0.422,6.112,0.199,8.91,1.628c1.101-20.606,8.289-39.936,20.009-55.93h0.011  c4.567-6.24,9.835-11.977,15.701-17.082c14.846-12.914,33.52-21.778,54.49-24.587C259.787,9.258,169.763,109.42,234.591,209.162z"/>
<path style="fill:#75CC54;" d="M340.515,252.119c-1.932,10.362-5.199,20.852-10.244,31.167  c-15.162,30.992-46.388,60.25-105.666,78.773c-5.292,0.632-10.163,0.362-14.589-0.527c-21.403-4.308-32.549-23.065-32.549-23.065  c4.413-9.144,9.366-17.41,14.272-24.107c2.271-3.102,4.214-6.838,5.866-11.052v-0.011c6.568-16.684,8.676-40.955,8.863-63.833  c-12.645,4.016-25.583,11.287-29.528,24.471c-3.794,12.703,5.48,24.083,15.56,34.293c-0.362-0.187-6.099-3.29-13.102-8.605  c-28.895-21.965-24.88-67.252,8.137-82.344c2.236-1.018,4.531-1.862,6.861-2.47c6.369-1.639,10.585-7.716,10.011-14.272v-0.105  c12.177,10.806,26.834,18.745,42.839,22.936c0,0,0,0,0,0.011c12.738,3.337,26.343,4.297,40.218,2.436  c23.077-3.091,39.761-13.031,50.942-27.549C342.493,206.363,344.847,228.89,340.515,252.119z"/>
<path style="fill:#93DB75;" d="M338.407,188.263c-3.883,5.042-8.448,9.517-13.697,13.36c2.306,15.303,2.919,32.689-0.402,50.496  c-1.932,10.362-5.199,20.852-10.244,31.167c-15.018,30.697-45.815,59.689-104.007,78.237c4.418,0.886,9.262,1.172,14.546,0.536  c59.278-18.522,90.504-47.781,105.666-78.773c5.046-10.315,8.312-20.805,10.244-31.167  C344.847,228.89,342.493,206.363,338.407,188.263z"/>
<g>
	<path style="fill:#44B7B7;" d="M202.651,450.303c-8.922,19.599,1.206,53.307,1.206,53.307   c-39.585-18.007-31.249-71.29-31.097-72.239C179.129,439.847,188.801,446.497,202.651,450.303z"/>
	<path style="fill:#44B7B7;" d="M248.336,401.479c-29.434-15.115-46.47,7.318-46.47,7.318l-6.51-15.607l11.93-19.026   C228.245,376.775,241.886,388.156,248.336,401.479z"/>
</g>
<path style="fill:#6ABA49;" d="M210.063,361.52c-0.011,0-0.035,0.011-0.047,0.011c-21.403-4.308-32.549-23.065-32.549-23.065  c4.413-9.144,9.366-17.41,14.272-24.107c2.271-3.102,4.214-6.838,5.866-11.052v-0.011c6.568-16.684,8.676-40.955,8.863-63.833  c-12.645,4.016-25.583,11.287-29.528,24.47c-3.794,12.703,5.48,24.083,15.56,34.293c-0.362-0.187-6.099-3.29-13.102-8.605  c-28.895-21.965-24.88-67.252,8.137-82.344c2.236-1.018,4.531-1.862,6.861-2.47c6.369-1.639,10.585-7.716,10.011-14.272v-0.105  c12.177,10.806,26.834,18.745,42.839,22.936c0,0,0,0,0,0.011C247.33,214.899,254.307,351.674,210.063,361.52z"/>
<path style="fill:#808080;" d="M205.297,33.845c-5.866,5.105-11.135,10.842-15.701,17.082h-0.011  c-54.501,22.678-93.712-0.117-93.712-0.117c25.57-3.079,32.069-27.444,57.651-30.523C178.732,17.253,204.56,33.388,205.297,33.845z"/>
<path d="M424.37,253.343c-0.863-4.553-5.251-7.54-9.807-6.682c-3.766,0.714-7.465,1.651-11.107,2.76l0.354-4.209  c0.388-4.617-3.041-8.676-7.659-9.064c-4.617-0.393-8.676,3.041-9.064,7.658l-1.066,12.684c-2.254,1.159-4.483,2.377-6.663,3.703  c-0.018,0.011-0.035,0.025-0.053,0.036c-4.381,2.648-11.311,5.34-21.021-1.546c-3.973-2.818-7.081-6.324-8.902-8.63  c3.004-18.804,2.335-38.912-1.988-59.885c15.253-21.958,20.714-52.832,15.779-89.636c-4.245-31.664-15.024-57.612-31.173-75.04  c-18.538-20.006-43.893-28.494-73.328-24.55c-4.592,0.615-7.818,4.837-7.203,9.431c0.615,4.592,4.841,7.813,9.431,7.201  c57.404-7.694,76.909,41.115,83.496,72.662c-1.667,1.148-3.596,1.885-5.662,2.135c-3.374,0.404-6.686-0.526-9.348-2.617  c-3.645-2.861-8.919-2.229-11.78,1.417c-2.863,3.645-2.227,8.92,1.417,11.782c5.242,4.116,11.576,6.294,18.138,6.294  c1.187,0,2.382-0.072,3.578-0.215c2.197-0.264,4.325-0.773,6.362-1.494c3.404,31.532-1.973,58.255-15.341,75.605  c-10.41,13.518-25.688,21.711-45.409,24.353c-27.649,3.704-55.478-4.801-76.363-23.333c-0.006-0.006-0.011-0.011-0.017-0.017  c-11.105-9.872-19.863-22.34-25.33-36.056c-1.07-2.683-3.442-4.627-6.284-5.147c-2.838-0.519-5.749,0.458-7.699,2.588  c-1.292,1.412-2.731,2.234-4.249,2.441c-4.97,0.662-11.448-5.673-12.811-15.812c-0.667-4.985,0.111-9.957,2.131-13.642  c0.921-1.678,2.93-4.556,6.075-4.974c1.263-0.171,2.596,0.093,3.958,0.788c2.529,1.291,5.542,1.215,8.004-0.204  c2.461-1.419,4.038-3.986,4.19-6.822c0.986-18.443,7.271-36.111,18.18-51.118c0.079-0.1,0.158-0.201,0.234-0.304  c4.201-5.741,9.059-11.026,14.436-15.706c6.544-5.692,13.819-10.46,21.623-14.172c4.184-1.99,5.964-6.997,3.973-11.181  s-6.997-5.964-11.182-3.974c-7.382,3.512-14.35,7.837-20.801,12.872c-9.705-5.093-30.737-14.309-51.897-11.765  c-15.315,1.844-24.862,10.012-33.285,17.22c-7.568,6.473-14.105,12.065-24.366,13.301c-3.581,0.431-6.487,3.103-7.215,6.635  c-0.728,3.533,0.883,7.135,4.001,8.949c1.164,0.676,20.017,11.345,49.494,11.345c9.078,0,19.168-1.019,30.054-3.647  c-4.492,9.816-7.556,20.223-9.068,30.95c-0.863,0.016-1.723,0.083-2.578,0.199c-7.623,1.014-14.383,5.947-18.544,13.535  c-3.759,6.855-5.198,15.355-4.05,23.941c2.55,18.966,16.451,32.242,31.683,30.214c1.564-0.213,3.09-0.585,4.562-1.11  c5.703,11.214,13.33,21.485,22.433,30.235c-0.603,1.426-1.816,2.562-3.369,2.962c-2.702,0.705-5.467,1.699-8.228,2.957  c-17.884,8.175-29.87,24.822-32.058,44.529c-2.254,20.298,6.094,39.784,22.335,52.128c5.879,4.464,10.863,7.436,13.087,8.696  c0.053,0.053,0.105,0.104,0.158,0.157c-0.826,1.581-1.693,3.007-2.6,4.246c-5.352,7.307-10.559,16.097-15.057,25.416  c-7.162,14.827-28.2,64.768-5.863,98.726c-0.539,5.47-1.141,16.673,1.103,29.048c4.219,23.266,16.402,40.091,35.232,48.657  c1.111,0.506,2.293,0.752,3.468,0.752c1.991,0,3.96-0.709,5.519-2.069c2.479-2.161,3.466-5.576,2.525-8.729  c-2.196-7.355-6.391-26.994-3.582-41.046c3.898,0.667,7.511,0.968,10.849,0.968c16.931,0,26.827-7.625,31.75-13.114  c10.532-11.738,13.116-30.007,6.583-46.541c-5.608-14.195-16.776-25.016-31.35-30.997c0.397-0.158,0.782-0.321,1.189-0.474  c23.319-7.305,43.684-16.683,60.531-27.873c3.86-2.564,4.911-7.772,2.347-11.632c-2.563-3.861-7.771-4.91-11.631-2.347  c-15.385,10.219-34.115,18.843-55.671,25.646c-18.61,1.913-30.699-9.888-35.674-16.073c3.507-6.754,7.355-13.051,11.275-18.402  c0.421-0.575,0.832-1.178,1.237-1.793c2.779,3.108,4.994,6.057,4.83,7.474c0,0.001-0.045,0.143-0.272,0.433  c-2.862,3.646-2.225,8.92,1.421,11.782c1.537,1.206,3.362,1.79,5.174,1.79c2.488,0,4.952-1.102,6.606-3.211  c2.922-3.723,6.83-11.582,0.176-22.383c-2.576-4.183-6.386-8.311-10.4-12.342c4.413-13.782,6.921-32.292,7.47-55.203  c10.692-2.594,19.981-2.887,20.19-2.894c4.629-0.116,8.29-3.962,8.177-8.592c-0.113-4.633-3.951-8.344-8.592-8.184  c-0.618,0.015-15.301,0.424-30.599,5.273c-18.034,5.728-29.89,15.523-34.454,28.383c-1.028-4.44-1.329-9.098-0.804-13.822  c1.532-13.788,9.888-25.42,22.346-31.115c1.878-0.856,3.73-1.525,5.474-1.98c5.125-1.319,9.389-4.362,12.277-8.398  c19.005,13.399,41.636,20.595,64.835,20.594c4.975,0,9.982-0.33,14.978-1c17.696-2.371,32.577-8.531,44.468-18.335  c2.098,15.71,1.841,30.72-0.781,44.787c-1.904,10.219-5.112,19.981-9.533,29.018c-5.575,11.397-13.237,21.935-22.772,31.325  c-3.301,3.251-3.342,8.564-0.091,11.866c1.642,1.668,3.809,2.504,5.979,2.504c2.126,0,4.253-0.803,5.888-2.412  c8.63-8.498,15.905-17.86,21.754-27.897c4.401,1.957,9.004,2.954,13.784,2.954c1.536,0,3.091-0.102,4.662-0.305  c18.607-2.41,33.184-18.671,37.387-23.833c10.953-6.412,21.414-9.334,28.366-10.651C422.241,262.286,425.232,257.896,424.37,253.343  z M124.478,51.232c-1.705-0.28-3.334-0.594-4.883-0.931c3.865-2.654,7.293-5.587,10.551-8.375  c7.572-6.479,14.11-12.074,24.38-13.309c13.47-1.621,27.538,3.204,36.601,7.298c-2.397,2.585-4.667,5.285-6.809,8.08  C164.167,52.002,144.044,54.449,124.478,51.232z M181.683,459.703c-0.635-3.477-0.999-6.852-1.188-9.974  c3.542,2.274,7.423,4.243,11.628,5.903c-1.734,7.726-2.009,16.948-0.802,27.569C186.628,476.968,183.404,469.119,181.683,459.703z   M199.568,367.219c-0.228,0.211-0.472,0.414-0.694,0.628c-9.142,8.788-13.33,20.007-11.49,30.78  c1.614,9.451,7.721,17.435,16.334,21.356c1.128,0.512,2.308,0.756,3.471,0.756c3.187,0,6.235-1.826,7.642-4.917  c1.92-4.218,0.057-9.193-4.161-11.114c-3.545-1.614-6.067-4.944-6.744-8.908c-0.736-4.308,0.685-8.849,4.028-13.063  c23.026,3.493,31.362,18.387,33.934,24.897c4.217,10.673,2.856,22.121-3.467,29.168c-6.787,7.566-18.703,9.486-33.547,5.409  c-11.231-3.086-19.759-8.407-25.353-15.816c-0.02-0.028-0.037-0.057-0.058-0.085c-9.292-12.339-13.427-37.277,0.242-72.05  C184.51,358.918,191.138,363.941,199.568,367.219z M184.978,266.338c1.678-5.608,5.962-10.338,12.765-14.138  c-0.601,13.592-1.99,25.378-4.114,34.989C186.797,279.498,183.05,272.794,184.978,266.338z M349.775,280.992  c-3.063,0.396-5.974,0.031-8.793-1.08c1.422-3.424,2.694-6.926,3.823-10.492c1.043,0.892,2.145,1.771,3.308,2.617  c3.551,2.579,7.196,4.518,10.88,5.812C356.025,279.423,352.905,280.587,349.775,280.992z"/>
<path d="M239.822,112.481c5.242,4.116,11.576,6.294,18.138,6.294c1.187,0,2.382-0.072,3.578-0.215  c7.814-0.94,14.796-4.868,19.655-11.058c2.862-3.645,2.226-8.919-1.419-11.782c-3.646-2.862-8.92-2.227-11.782,1.417  c-2.092,2.665-5.097,4.355-8.461,4.759c-3.357,0.404-6.683-0.525-9.348-2.617c-3.645-2.861-8.919-2.227-11.782,1.417  C235.542,104.344,236.178,109.619,239.822,112.481z"/>
<path d="M282.175,146.67c-2.863,3.645-2.227,8.92,1.417,11.782c5.242,4.116,11.576,6.295,18.138,6.295  c1.187,0,2.382-0.072,3.578-0.216c7.814-0.94,14.796-4.867,19.655-11.057c2.862-3.645,2.226-8.92-1.419-11.782  c-3.646-2.861-8.92-2.229-11.782,1.417c-2.092,2.665-5.097,4.355-8.46,4.759c-3.374,0.406-6.686-0.525-9.348-2.617  C290.314,142.392,285.038,143.025,282.175,146.67z"/>
<path d="M288.748,79.776c1.977,2.892,5.604,4.337,9.022,3.476c3.411-0.859,5.953-3.826,6.309-7.319  c0.774-7.597-8.674-12.132-14.161-6.867C287.014,71.853,286.544,76.423,288.748,79.776z"/>
<path d="M266.732,245.654c-3.638,0.684-6.417,3.865-6.728,7.529c-0.285,3.371,1.58,6.661,4.595,8.18  c3.256,1.64,7.305,0.951,9.827-1.681c2.321-2.424,2.964-6.105,1.621-9.177C274.496,246.957,270.537,244.871,266.732,245.654z"/>
<path d="M315.878,247.992c1.985,2.9,5.583,4.337,9.016,3.48c3.209-0.8,5.688-3.495,6.239-6.753c0.557-3.292-0.983-6.686-3.791-8.472  c-3.109-1.978-7.31-1.633-10.055,0.821C314.216,239.814,313.565,244.556,315.878,247.992z"/>
<g>
</g>
<g>
</g>
<g>
</g>
<g>
</g>
<g>
</g>
<g>
</g>
<g>
</g>
<g>
</g>
<g>
</g>
<g>
</g>
<g>
</g>
<g>
</g>
<g>
</g>
<g>
</g>
<g>
</g>
</svg>
