<?xml version="1.0" encoding="iso-8859-1"?>
<!-- Generator: Adobe Illustrator 19.0.0, SVG Export Plug-In . SVG Version: 6.00 Build 0)  -->
<svg xmlns="http://www.w3.org/2000/svg" xmlns:xlink="http://www.w3.org/1999/xlink" version="1.1" id="Layer_1" x="0px" y="0px" viewBox="0 0 512.001 512.001" style="enable-background:new 0 0 512.001 512.001;" xml:space="preserve">
<path style="fill:#F4516D;" d="M338.415,76.436l-0.473,17.457l-153.823,56.452l-33.363,12.243  c-24.365-7.645-61.952,81.564-61.952,81.564c0-67.1,11-149.599,73.699-201.299c18.106-14.927,38.357-24.299,58.63-29.469  c19.899-5.071,39.82-6.094,57.75-4.323C313.335,12.46,339.339,41.83,338.415,76.436z"/>
<path style="fill:#D84161;" d="M193.744,85.005c4.499,15.972-1.078,40.821-9.625,65.34l-33.363,12.243  c-24.365-7.645-61.952,81.564-61.952,81.564c0-67.1,11-149.599,73.699-201.299c18.106-14.927,38.357-24.299,58.63-29.469  C221.134,13.384,182.095,43.557,193.744,85.005z"/>
<path style="fill:#F9D780;" d="M347.072,146.307c0,54.065-22.935,97.899-76.999,97.899c-16.203,0-31.493-3.938-44.946-10.901v-0.011  c-24.596-12.727-43.098-35.596-50.006-63.063c-2.706,2.266-5.907,3.575-9.328,3.575c-9.834,0-17.82-10.835-17.82-24.2  s7.986-24.2,17.82-24.2c2.915,0,5.665,0.957,8.085,2.629c8.558-45.331,48.367-79.628,96.194-79.628  C324.137,48.408,347.072,92.243,347.072,146.307z"/>
<path style="fill:#FFFFFF;" d="M347.303,136.352c-6.967-51.982-34.034-91.542-84.56-87.317  c41.378,3.719,63.978,40.475,70.257,87.317c4.279,31.911,0.011,61.303-15.455,81.377c-10.505,13.64-26.18,22.979-47.861,25.883  c-1.99,0.267-3.972,0.464-5.947,0.609c6.626,0.486,13.401,0.31,20.251-0.609c21.681-2.904,37.356-12.243,47.861-25.883  C347.314,197.655,351.582,168.263,347.303,136.352z"/>
<rect x="201.005" y="246.354" style="fill:#75CC54;" width="122.099" height="142.999"/>
<rect x="201.005" y="326.653" style="fill:#F4516D;" width="122.099" height="62.7"/>
<rect x="201.005" y="246.354" style="fill:#6ABA49;" width="31.9" height="142.999"/>
<rect x="201.005" y="326.653" style="fill:#D35746;" width="31.9" height="62.7"/>
<g>
	<path style="fill:#DBB561;" d="M270.073,48.408c0,0-98.097,84.105-44.946,184.887c-24.596-12.727-43.098-35.596-50.006-63.063   c-2.706,2.266-5.907,3.575-9.328,3.575c-9.834,0-17.82-10.835-17.82-24.2s7.986-24.2,17.82-24.2c2.915,0,5.665,0.957,8.085,2.629   C182.436,82.706,222.245,48.408,270.073,48.408z"/>
	<path style="fill:#DBB561;" d="M232.904,253.37c1.529,6.864,1.43,12.771,0,17.842V253.37z"/>
</g>
<path d="M267.037,193.619c-3.222,3.222-3.221,8.446,0,11.668c5.469,5.468,12.651,8.202,19.834,8.202  c7.183,0,14.366-2.733,19.834-8.203c3.222-3.222,3.222-8.446,0-11.667c-3.222-3.222-8.446-3.222-11.667,0  c-4.502,4.502-11.83,4.504-16.335,0C275.481,190.396,270.26,190.397,267.037,193.619z"/>
<path d="M424.185,164.46l-34.136-4.096l0.846-0.961c3.011-3.42,2.678-8.634-0.742-11.643c-3.42-3.01-8.633-2.678-11.643,0.742  l-8.341,9.478l-15.113-1.814c0.168-3.231,0.266-6.512,0.266-9.858c0-20.278-3.111-38.496-9.084-53.832l0.422-15.819  c1.032-38.697-28.385-71.994-66.971-75.805c-24.769-2.446-50.04,0.406-73.087,8.244c-4.313,1.467-6.622,6.153-5.155,10.468  c1.467,4.314,6.153,6.623,10.468,5.155c26.325-8.955,50.502-8.991,66.152-7.446c26.018,2.57,46.666,22.368,51.185,47.192  c-14.63-15.938-34.886-24.304-59.181-24.304c-47.794,0-89.326,31.904-102.122,77.108c-0.714-0.073-1.432-0.109-2.152-0.109  c-14.621,0-26.075,14.254-26.075,32.45c0,1.937,0.137,3.826,0.387,5.662c-11.018,4.194-22.938,17.648-36.595,41.078  c-1.737,2.979-3.412,5.97-5.01,8.912c1.915-24.194,5.739-45.728,11.542-65.172c11.371-38.099,30.785-68.671,57.704-90.868  c5.188-4.277,10.74-8.207,16.502-11.682c3.902-2.353,5.158-7.423,2.806-11.324c-2.352-3.902-7.422-5.158-11.324-2.806  c-6.454,3.891-12.671,8.292-18.481,13.081c-29.492,24.319-50.694,57.587-63.02,98.88c-9.207,30.848-13.682,66.432-13.682,108.784  c0,3.926,2.768,7.309,6.616,8.087c0.548,0.111,1.096,0.164,1.638,0.164c3.264,0,6.292-1.945,7.599-5.048  c0.091-0.219,9.329-22.052,21.364-42.699c15.237-26.141,24.231-32.396,28.158-33.828c4.746,6.91,11.826,11.23,19.87,11.23  c1.401,0,2.79-0.135,4.151-0.402c8.522,24.248,25.35,44.016,46.753,56.446h-15.699c-2.977,0-5.576,1.582-7.027,3.943  c-0.014,0.022-0.033,0.039-0.047,0.062c-1.261,2.101-30.876,52.473-30.876,140.644c0,4.556,3.694,8.25,8.25,8.25  c4.556,0,8.25-3.694,8.25-8.25c0-39.753,6.439-71.557,13.2-94.002v100.602c0,4.556,3.694,8.25,8.25,8.25h20.45l8.324,52.718  l-30.296,49.099c-1.571,2.545-1.64,5.741-0.184,8.352c1.456,2.611,4.214,4.229,7.204,4.229h29.7c4.556,0,8.25-3.694,8.25-8.25  s-3.694-8.25-8.25-8.25h-14.916l24.136-39.118c1.035-1.677,1.435-3.672,1.127-5.619l-8.394-53.163h49.128l8.324,52.718  l-30.296,49.099c-1.571,2.545-1.64,5.741-0.184,8.352c1.456,2.611,4.214,4.229,7.204,4.229h29.7c4.556,0,8.25-3.694,8.25-8.25  s-3.694-8.25-8.25-8.25h-14.916l24.136-39.118c1.035-1.677,1.435-3.672,1.128-5.619l-8.394-53.163h19.112  c4.556,0,8.25-3.694,8.25-8.25v-84.654c0-4.556-3.694-8.25-8.25-8.25c-4.556,0-8.25,3.694-8.25,8.25v13.704h-73.699v-63.8h73.699  v25.896c0,4.556,3.694,8.25,8.25,8.25c4.556,0,8.25-3.694,8.25-8.25v-34.146c0-4.556-3.694-8.25-8.25-8.25h-5.046  c6.665-4.788,12.543-10.738,17.533-17.815c8.957-12.704,14.978-28.915,17.828-47.699l68.801,8.257  c0.333,0.04,0.666,0.059,0.993,0.059c4.117,0,7.678-3.078,8.182-7.268C431.937,169.111,428.709,165.004,424.185,164.46z   M209.254,334.901h15.4v46.2h-15.4V334.901z M314.853,334.901v46.2h-28.05v-12.65c0-4.556-3.694-8.25-8.25-8.25  c-4.556,0-8.25,3.694-8.25,8.25v12.65h-29.15v-46.2H314.853z M224.654,318.401h-15.4v-63.8h15.4V318.401z M270.073,235.957  c-41.176,0-76.93-27.853-86.948-67.734c-0.691-2.753-2.75-4.958-5.449-5.835c-0.836-0.272-1.696-0.405-2.551-0.405  c-1.906,0-3.784,0.661-5.289,1.917c-1.317,1.1-2.675,1.657-4.036,1.657c-4.529,0-9.575-6.55-9.575-15.95  c0-9.399,5.047-15.95,9.575-15.95c1.13,0,2.269,0.393,3.388,1.167c2.297,1.591,5.244,1.91,7.828,0.849  c2.585-1.06,4.457-3.357,4.974-6.103c5.4-28.604,24.133-51.882,49.029-63.945c0.804,4.403,1.976,9.849,3.65,15.811  c1.022,3.641,4.334,6.022,7.939,6.022c0.738,0,1.489-0.1,2.234-0.309c4.387-1.232,6.944-5.786,5.712-10.173  c-1.915-6.819-3.1-12.916-3.803-17.24c2.656-0.716,5.361-1.303,8.103-1.774c0.513,4.81,1.533,12.016,3.507,19.294  c6.588,24.296,18.506,29.395,27.344,29.395c10.128,0,18.508-4.594,24.236-13.284c2.507-3.804,1.456-8.921-2.349-11.429  c-3.803-2.507-8.92-1.456-11.429,2.347c-2.637,4.001-5.961,5.865-10.46,5.865c-7.46,0-12.825-18.283-14.433-33.476  c60.93,0.808,67.552,62.851,67.552,89.631c0,2.373-0.054,5.027-0.19,7.887l-51.945-6.234c-4.522-0.539-8.632,2.685-9.174,7.208  c-0.542,4.524,2.684,8.632,7.208,9.174l52.255,6.271C332.386,199.814,317.187,235.957,270.073,235.957z"/>
<path d="M265.354,116.553c0-4.556-3.694-8.25-8.25-8.25c-4.556,0-8.25,3.694-8.25,8.25v13.2c0,4.556,3.694,8.25,8.25,8.25  c4.556,0,8.25-3.694,8.25-8.25V116.553z"/>
<path d="M312.103,138.002c4.556,0,8.25-3.694,8.25-8.25v-13.2c0-4.556-3.694-8.25-8.25-8.25c-4.556,0-8.25,3.694-8.25,8.25v13.2  C303.854,134.309,307.547,138.002,312.103,138.002z"/>
<g>
</g>
<g>
</g>
<g>
</g>
<g>
</g>
<g>
</g>
<g>
</g>
<g>
</g>
<g>
</g>
<g>
</g>
<g>
</g>
<g>
</g>
<g>
</g>
<g>
</g>
<g>
</g>
<g>
</g>
</svg>
