<?xml version="1.0" encoding="iso-8859-1"?>
<!-- Generator: Adobe Illustrator 19.0.0, SVG Export Plug-In . SVG Version: 6.00 Build 0)  -->
<svg xmlns="http://www.w3.org/2000/svg" xmlns:xlink="http://www.w3.org/1999/xlink" version="1.1" id="Layer_1" x="0px" y="0px" viewBox="0 0 512 512" style="enable-background:new 0 0 512 512;" xml:space="preserve">
<g>
	<g>
		<path d="M471.871,49.975c-1.114-2.07-3.084-3.542-5.384-4.023c-0.199-0.041-20.037-4.346-36.211-20.519    c-3.338-3.339-8.903-3.096-11.92,0.727c-2.515,3.187-2.075,7.841,0.803,10.703c12.068,12.006,25.724,18.537,34.599,21.816    c-5.8,11.026-16.508,26.748-29.416,30.565c-1.928,0.58-3.91,0.874-5.888,0.874c-24.105,0-37.226-18.449-37.751-19.203    c-0.008-0.013-0.019-0.023-0.028-0.036c-0.087-0.125-0.186-0.246-0.282-0.368c-0.084-0.107-0.162-0.219-0.251-0.321    l-12.134-14.154c-2.841-3.315-7.874-4.016-11.272-1.276c-3.515,2.836-3.97,7.993-1.052,11.397l6.848,7.988    c-4.507,2.171-9.182,1.991-15.633,1.735c-7.559-0.301-16.964-0.675-28.105,3.376c-16.376,5.956-28.565,23.84-35.442,36.519    l-3.955-6.137c-5.851-9.079-9.971-19.21-11.707-29.871c-2.09-12.83-0.341-22.535,5.249-28.972    c11.518-13.266,38.834-11.305,50.032-9.175l8.354,5.302c1.325,0.841,2.803,1.243,4.265,1.243c2.728,0,5.396-1.4,6.889-3.949    c2.194-3.747,0.8-8.59-2.866-10.918l-6.84-4.341c-0.324-1.644-0.488-4.007,0.562-5.987c1.765-3.324,6.653-4.962,10.443-5.752    c14.557-3.033,35.861-0.569,53.126,6.128c4.057,1.574,8.806-0.122,10.54-4.114c1.809-4.165-0.208-8.963-4.4-10.605    c-20.279-7.949-44.818-10.702-62.516-7.017c-10.502,2.187-17.703,6.942-21.405,14.135c-1.569,3.047-2.275,6.114-2.482,8.945    c-14.898-1.424-41.143-1.115-55.708,15.615c-10.595,12.169-12.75,30.065-6.467,53.298c-11.869,2.318-20.673,14.778-20.673,30.264    c0,17.191,10.847,30.657,24.693,30.657c1.264,0,2.515-0.116,3.745-0.343c5.554,15.57,15.007,29.672,27.348,40.782    c-0.229,0.487-0.457,0.973-0.701,1.49c-2.597,5.529-6.047,12.872-9.921,20.878c-16.435,0.929-35.742,5.144-41.173,19.217    c-4.697,12.173,3.353,22.97,12.958,32.697c-3.514,4.941-7.139,7.524-7.431,7.683c-6.517,3.496-14.812,2.526-20.639-2.416    c-4.049-3.43-8.437-6.528-13.031-9.201c-10.65-6.214-22.589-10.178-34.85-11.623c-4.084-16.876-13.54-36.718-35.208-46.496    c-4.207-1.9-9.192,0.154-10.786,4.583c-1.417,3.933,0.615,8.299,4.418,10.038c14.132,6.464,21.316,19.389,24.955,31.485    c-8.264,0.571-16.411,2.383-24.233,5.349c-16.125-13.802-34.834-15.222-52.003-3.738c-3.431,2.295-4.823,6.821-2.903,10.476    c2.257,4.296,7.655,5.566,11.554,2.922c9.207-6.246,18.341-6.78,27.258-1.649c-5.807,3.647-11.306,7.982-16.378,12.966    c-16.493,16.211-26.248,37.018-27.471,58.586c-1.395,24.363,7.187,47.828,23.258,65.848c-7.36,12.011-20.379,18.045-31.013,21.053    c5.953-13.73,9.67-36.091-2.427-68.319c-12.503-33.29-12.922-88.096,8.201-118.593c9.542-13.779,22.4-20.791,38.219-20.846    c4.28-0.015,7.984-3.369,8.155-7.645c0.182-4.552-3.454-8.3-7.966-8.3c-21.145,0-38.958,9.583-51.516,27.713    C34.52,264.325,34.66,324.531,48.882,362.398c17.689,47.126-3.716,66.798-4.566,67.553c-2.592,2.187-3.517,5.773-2.307,8.941    c1.183,3.093,4.15,5.126,7.445,5.126c0.08,0,0.158-0.001,0.239-0.003c1.761-0.052,40.457-1.538,59.467-29.004    c18.845,13.776,45.301,20.376,48.878,21.335v67.682c0,4.403,3.57,7.972,7.972,7.972h27.553c0.001,0,0.001,0,0.001,0    c0.001,0,0.002,0,0.003,0h24.903c4.403,0,7.972-3.57,7.972-7.972v-68.703c26.764,2.514,51.537-0.649,64.715-2.953v71.656    c0,4.403,3.57,7.972,7.972,7.972h59.453c4.403,0,7.972-3.57,7.972-7.972V392.854c16.693-15.937,26.822-35.247,30.104-57.468    c0.15-1.024,0.258-2.056,0.378-3.086c1.57,1.719,3.722,2.596,5.885,2.596c1.938,0,3.884-0.704,5.423-2.131    c3.197-2.969,3.269-8.065,0.367-11.322c-1.861-2.089-3.596-4.414-5.157-6.913c-3.256-5.208-1.521-8.549,16.228-20.638    c13.262-9.033,28.292-19.272,28.292-35.974c0-27.679-40.488-33.375-58.936-34.532c0.296-3.716,0.772-7.116,1.475-10.044    c14.904-6.987,26.449-18.829,34.337-35.275c7.579-15.802,11.422-35.077,11.422-57.288c0-6.478-0.347-12.778-1.023-18.815    c23.326-11.531,36.327-43.789,36.913-45.276C473.131,54.501,472.985,52.045,471.871,49.975z M252.658,242.291    c1.117-2.895,6.458-6.294,17.918-8.015c-1.607,3.168-3.235,6.319-4.859,9.396c-2.344,4.438-4.441,8.259-6.32,11.563    C254.79,250.233,251.447,245.426,252.658,242.291z M273.913,296.849c0,0.222-0.005,0.433-0.014,0.637    c-5.925-4.358-10.785-8.951-14.312-13.604c0.858-1.001,1.763-2.138,2.729-3.436C268.271,286.299,273.913,292.565,273.913,296.849z     M185.594,496.055h-11.608v-5.894h11.608V496.055z M210.501,496.055h-8.962v-5.894h8.962V496.055z M210.501,474.216h-8.962    v-43.003c2.912,0.714,5.907,1.346,8.962,1.911V474.216z M325.197,496.055h-18.092v-6.895h18.092V496.055z M350.613,496.055h-9.471    v-6.895h9.471V496.055z M350.613,473.216h-9.471v-61.616c3.292-1.883,6.449-3.857,9.471-5.911V473.216z M381.551,326.856    c-11.488,0.765-23.69,0.17-36.382-1.811c-4.355-0.68-8.427,2.298-9.106,6.647c-0.679,4.351,2.297,8.427,6.648,9.107    c9.975,1.557,19.709,2.338,29.107,2.338c2.351,0,4.675-0.064,6.984-0.162c-4.24,15.518-12.86,29.163-25.746,40.661    c-6.689,5.986-14.638,11.442-23.628,16.216c-2.604,1.384-4.232,4.091-4.232,7.041v66.324h-18.092v-88.307    c0-4.403-3.568-7.972-7.972-7.972s-7.972,3.57-7.972,7.972v31.241c-12.337,2.303-41.673,6.602-71.553,2.324    c-7.954-1.144-15.448-2.822-22.296-4.995c-1.117-0.595-2.392-0.932-3.745-0.932c-4.404,0-7.972,3.57-7.972,7.972v53.697h-11.608    v-44.151c0-3.811-2.705-7.09-6.445-7.825c-0.088-0.017-31.408-5.717-54.548-24.769c-16.946-13.952-24.338-36.372-23.081-58.352    c2.068-36.49,34.695-68.565,71.266-70.042c2.189-0.094,4.43-0.087,6.656,0.019c11.862,0.565,23.54,4.02,33.777,9.994    c3.797,2.209,7.415,4.762,10.749,7.588c9.507,8.061,22.658,10.347,34.07,6.249c2.866,3.894,6.354,7.679,10.4,11.317    c-2.5,0.95-4.467,3.129-5.005,5.95c-0.827,4.325,2.008,8.501,6.332,9.328c0.601,0.115,3.107,0.552,6.485,0.552    c3.325,0,7.494-0.432,11.52-2.001c10.043,5.819,21.705,10.948,34.627,15.124c0.815,0.264,1.641,0.388,2.454,0.388    c3.364,0,6.493-2.148,7.584-5.522c1.353-4.189-0.945-8.684-5.134-10.038c-10.029-3.241-19.34-7.2-27.556-11.617    c1.035-2.595,1.72-5.741,1.72-9.558c0-11.265-9.126-20.865-18.726-30.069c4.752-8.128,10.542-19.009,17.779-33.616    c6.938,0.065,12.025,0.565,12.204,0.584c4.375,0.454,8.296-2.734,8.747-7.112c0.451-4.38-2.733-8.297-7.113-8.747    c-1.34-0.138-3.482-0.331-6.16-0.49c1.901-3.963,3.888-8.148,5.962-12.553c16.001,10.272,34.363,15.674,53.675,15.674    c6.06,0,11.852-0.565,17.351-1.651c-3.302,30.196,5.326,76.521,5.747,78.752c0.016,0.08,0.032,0.159,0.049,0.239    C381.553,307.738,382.264,317.461,381.551,326.856z M432.131,257.917c0,8.27-10.84,15.655-21.325,22.796    c-5.969,4.066-11.654,7.963-16.101,12.397c-2.055-11.333-5.339-33.921-5.877-53.742    C406.357,240.655,432.131,245.899,432.131,257.917z M380.953,200.173c-7.259,2.919-15.578,4.399-24.727,4.399    c-19.031,0-36.974-6.222-51.888-17.993c-14.479-11.429-24.914-27.523-29.384-45.315c-0.67-2.662-2.661-4.793-5.271-5.64    c-2.61-0.847-5.474-0.292-7.578,1.469c-1.181,0.989-2.399,1.489-3.621,1.489c-4.13,0-8.748-6.292-8.748-14.712    c0-8.42,4.62-14.712,8.748-14.712c0.638,0,1.27,0.153,1.911,0.432l17.303,26.848c1.477,2.292,4.009,3.654,6.699,3.654    c0.267,0,0.536-0.014,0.805-0.04c2.982-0.302,5.542-2.249,6.628-5.043c3.651-9.388,16.59-35.012,32.413-40.766    c8.194-2.979,14.91-2.712,22.023-2.429c8.287,0.33,17.466,0.695,26.837-5.345c7.608,7.762,22.892,19.595,45.35,19.595    c0.423,0,0.845-0.032,1.268-0.047c0.454,4.758,0.709,9.682,0.709,14.759C420.43,176.107,395.703,194.268,380.953,200.173z"/>
	</g>
</g>
<g>
	<g>
		<path d="M368.448,300.313c-2.921-1.481-6.542-1.005-8.972,1.193c-5.294,4.786-1.766,13.884,5.36,13.884    c3.835,0,7.175-2.856,7.848-6.614C373.292,305.382,371.515,301.869,368.448,300.313z"/>
	</g>
</g>
<g>
	<g>
		<path d="M358.645,107.648c-4.404,0-7.972,3.57-7.972,7.972v13.404c0,4.403,3.568,7.972,7.972,7.972    c4.404,0,7.972-3.568,7.972-7.972V115.62C366.617,111.217,363.049,107.648,358.645,107.648z"/>
	</g>
</g>
<g>
	<g>
		<path d="M392.672,107.648c-4.404,0-7.972,3.57-7.972,7.972v13.404c0,4.403,3.568,7.972,7.972,7.972    c4.404,0,7.972-3.57,7.972-7.972V115.62C400.645,111.217,397.076,107.648,392.672,107.648z"/>
	</g>
</g>
<g>
	<g>
		<path d="M395.638,155.726c-3.111-3.114-8.159-3.114-11.274,0c-2.107,2.108-4.91,3.269-7.893,3.269    c-2.982,0-5.784-1.161-7.892-3.269c-3.113-3.112-8.162-3.114-11.274,0c-3.115,3.113-3.115,8.162-0.001,11.275    c5.119,5.119,11.928,7.94,19.167,7.94c7.241,0,14.048-2.82,19.168-7.94C398.752,163.888,398.752,158.839,395.638,155.726z"/>
	</g>
</g>
<g>
</g>
<g>
</g>
<g>
</g>
<g>
</g>
<g>
</g>
<g>
</g>
<g>
</g>
<g>
</g>
<g>
</g>
<g>
</g>
<g>
</g>
<g>
</g>
<g>
</g>
<g>
</g>
<g>
</g>
</svg>
