<?xml version="1.0" encoding="iso-8859-1"?>
<!-- Generator: Adobe Illustrator 19.0.0, SVG Export Plug-In . SVG Version: 6.00 Build 0)  -->
<svg xmlns="http://www.w3.org/2000/svg" xmlns:xlink="http://www.w3.org/1999/xlink" version="1.1" id="Layer_1" x="0px" y="0px" viewBox="0 0 512.002 512.002" style="enable-background:new 0 0 512.002 512.002;" xml:space="preserve">
<g>
	<g>
		<path d="M257.561,85.491c-4.59,0-8.312,3.721-8.312,8.312v16.395c0,4.59,3.721,8.312,8.312,8.312c4.59,0,8.312-3.721,8.312-8.312    V93.802C265.873,89.212,262.152,85.491,257.561,85.491z"/>
	</g>
</g>
<g>
	<g>
		<path d="M286.839,85.491c-4.59,0-8.312,3.721-8.312,8.312v16.395c0,4.59,3.721,8.312,8.312,8.312s8.312-3.721,8.312-8.312V93.802    C295.151,89.212,291.43,85.491,286.839,85.491z"/>
	</g>
</g>
<g>
	<g>
		<path d="M325.669,481.253c-5.994-5.997-13.961-9.299-22.435-9.299h-19.795v-43.543c3.637-2.857,7.11-5.976,10.388-9.359    c19.337-19.959,29.504-46.165,28.629-73.792c-0.145-4.588-4.006-8.175-8.57-8.045c-4.588,0.145-8.19,3.983-8.045,8.571    c0.731,23.089-7.775,45-23.953,61.698c-16.134,16.652-37.803,25.824-61.018,25.824h-1.842v-13.634    c0-14.549-5.989-28.767-16.429-39.012c-10.313-10.117-23.827-15.545-38.008-15.268c-28.871,0.552-52.361,24.503-52.361,53.39    c0,10.808,3.287,21.115,9.083,29.749l-73.708-8.647c13.487-8.62,25.928-18.768,37.172-30.333    c3.201-3.291,3.125-8.553-0.165-11.754c-3.29-3.199-8.552-3.125-11.753,0.166c-16.009,16.467-34.656,29.81-55.423,39.659    c-3.348,1.588-5.241,5.202-4.64,8.859c0.601,3.657,3.552,6.474,7.232,6.906l124.793,14.641c4.422,2.427,7.226,7.114,7.226,12.238    c0,17.498,14.235,31.734,31.733,31.734h142.875c4.59,0,8.312-3.721,8.312-8.312C334.966,495.218,331.665,487.25,325.669,481.253z     M183.781,495.375v0.001c-8.332,0-15.11-6.778-15.11-15.111c0-12.043-7.088-22.999-18.057-27.912    c-13.219-5.919-21.76-19.097-21.76-33.571c0-19.894,16.174-36.389,36.056-36.769c0.23-0.004,0.459-0.007,0.688-0.007    c9.445,0,18.428,3.72,25.36,10.52c7.275,7.138,11.448,17.031,11.448,27.145v60.592c0,4.59,3.721,8.312,8.312,8.312h28.106    c5.264,0,9.908,2.705,12.614,6.799H183.781z M269.446,495.377c-3.663-13.478-15.999-23.422-30.621-23.422h-19.795v-22.023h1.842    c16.271,0,31.905-3.775,45.945-10.905v41.239c0,4.59,3.721,8.312,8.312,8.312h28.107c4.033,0,7.826,1.573,10.682,4.428    c0.733,0.733,1.381,1.526,1.939,2.371H269.446z"/>
	</g>
</g>
<g>
	<g>
		<path d="M269.294,267.104c-15.031-15.032-46.312,3.209-52.43,7.019c-3.894,2.425-5.085,7.545-2.663,11.441    c2.422,3.896,7.546,5.092,11.444,2.674c11.78-7.307,28.279-12.996,31.895-9.38c6.351,6.352-1.263,20.313-1.325,20.425    c-2.291,3.976-0.922,9.059,3.057,11.349c1.307,0.752,2.733,1.109,4.139,1.109c2.876,0,5.673-1.494,7.21-4.166    C275.932,298.35,281.632,279.442,269.294,267.104z"/>
	</g>
</g>
<g>
	<g>
		<path d="M426.274,120.898c-15.145-27.619-44.103-44.777-75.574-44.777h-14.651c-8.595,0-16.274-4.471-20.04-11.669    c-6.158-11.765-17.661-19.484-30.656-20.875l-31.8-40.407c-1.89-2.402-4.94-3.572-7.955-3.049c-3.01,0.523-5.491,2.655-6.46,5.553    l-11.439,34.221l-39.527-24.59c-2.721-1.692-6.172-1.671-8.87,0.057c-2.7,1.727-4.165,4.852-3.768,8.031l5.5,44.041h-37.069    c-2.971,0-5.716,1.586-7.2,4.159c-1.484,2.573-1.483,5.743,0.006,8.315l20.812,35.977l-43.011,13.306    c-2.775,0.859-4.901,3.104-5.607,5.922c-0.706,2.818,0.112,5.799,2.154,7.865l30.202,30.521l-43.713,25.552    c-2.479,1.45-4.034,4.075-4.114,6.945c-0.08,2.87,1.328,5.578,3.723,7.162l30.403,20.112l-35.468,24.688    c-2.073,1.443-3.378,3.751-3.545,6.273c-0.167,2.521,0.821,4.98,2.686,6.685l25.164,22.995l-43.164,18.883    c-2.517,1.102-4.327,3.375-4.836,6.074c-0.509,2.7,0.348,5.476,2.291,7.418l31.839,31.839    c-3.484,6.204-7.293,12.231-11.458,18.024c-2.68,3.727-1.83,8.921,1.897,11.601c1.468,1.056,3.164,1.564,4.844,1.564    c2.584,0,5.132-1.202,6.756-3.461c20.554-28.594,33.638-62.201,37.837-97.189c1.614-13.442,3.549-27.031,5.753-40.387    c8.196-49.61,20.541-98.9,36.688-146.499c8.497-25.017,31.953-41.827,58.367-41.827h37.85c8.492,0,16.216,4.678,20.156,12.206    c6.644,12.697,19.966,20.584,34.769,20.584h14.651c25.399,0,48.773,13.851,61.001,36.151c2.13,3.879,0.607,7.259-0.146,8.532    c-0.76,1.286-3.012,4.274-7.488,4.274H270.795c-13.644,0-24.884,11.02-25.055,24.566c-0.132,10.444,3.864,20.264,11.25,27.649    c7.256,7.257,16.9,11.253,27.156,11.253h97.401c4.468,0,8.163,3.516,8.237,7.835c0.104,6.265-2.255,12.172-6.644,16.634    c-4.391,4.464-10.254,6.923-16.513,6.923c0,0-114.516,6.437-126.603-9.974c-1.913-2.598-3.428-4.494-3.428-7.478    c0-4.59-3.721-8.312-8.312-8.312s-8.312,3.721-8.312,8.312c0,7.586,3.035,14.397,8.779,19.695    c13.789,12.721,41.558,14.861,58.682,14.861c2.3,0,4.404-0.039,6.26-0.095l9.031,65.977c0.623,4.548,4.817,7.734,9.362,7.108    c4.548-0.623,7.73-4.814,7.108-9.362l-4.359-31.845c11.041-5.856,23.886-9.73,27.024-6.591c6.351,6.352-1.263,20.313-1.325,20.425    c-2.291,3.979-0.923,9.06,3.055,11.35c1.307,0.753,2.733,1.109,4.139,1.109c2.876,0,5.673-1.494,7.21-4.166    c5.313-9.227,11.012-28.135-1.325-40.472c-10.497-10.498-28.917-4.766-41.161,0.944l-2.034-14.861h56.207    c10.751,0,20.824-4.222,28.364-11.889c7.539-7.666,11.592-17.81,11.414-28.571c-0.156-9.126-5.432-17.087-13.068-21.201    l16.248-33.804c6.766-1.486,12.632-5.67,16.275-11.83C430.453,138.132,430.606,128.787,426.274,120.898z M110.46,342.49    l-19.345-19.345l30.621-13.395C118.968,320.983,115.182,331.943,110.46,342.49z M126.704,280.758l-16.518-15.094l20.728-14.429    C129.36,261.034,127.95,270.913,126.704,280.758z M136.561,219.253l-19.032-12.589l24.71-14.445    C140.215,201.207,138.32,210.221,136.561,219.253z M150.354,158.991l-17.78-17.967l24.927-7.712    C154.997,141.833,152.618,150.397,150.354,158.991z M169.166,96.437c-0.449,1.323-0.884,2.653-1.328,3.98l-9.463-16.357h16.237    C172.473,87.975,170.636,92.105,169.166,96.437z M196.698,58.711l-2.508-20.083l17.953,11.169    C206.658,52.176,201.478,55.171,196.698,58.711z M244.08,43.33l5.939-17.769l13.985,17.769H244.08z M284.144,188.548    c-5.814,0-11.284-2.267-15.401-6.384c-4.19-4.19-6.457-9.76-6.382-15.685c0.041-3.27,2.06-6.09,4.924-7.387l22.609,29.457H284.144    z M287.655,158.327h37.607l-18.586,24.782L287.655,158.327z M323.374,188.547l18.904-25.204l21.342,25.204H323.374z     M379.611,181.707l-19.797-23.38h31.036L379.611,181.707z"/>
	</g>
</g>
<g>
	<g>
		<path d="M489.578,151.946c-6.279-6.279-14.627-9.738-23.508-9.738c-8.88,0-17.228,3.459-23.508,9.738l-17.631,17.631    c-3.246,3.246-3.246,8.508,0,11.754l17.631,17.631c6.279,6.279,14.627,9.738,23.508,9.738c8.88,0,17.228-3.459,23.508-9.737    c6.279-6.279,9.738-14.628,9.738-23.509C499.316,166.573,495.857,158.226,489.578,151.946z M477.823,187.208    c-3.14,3.14-7.314,4.868-11.754,4.868c-4.44,0-8.613-1.729-11.753-4.868l-11.754-11.754l11.754-11.754    c3.14-3.14,7.314-4.868,11.753-4.868c4.44,0,8.614,1.729,11.754,4.868c3.14,3.14,4.868,7.313,4.868,11.754    C482.692,179.895,480.963,184.069,477.823,187.208z"/>
	</g>
</g>
<g>
</g>
<g>
</g>
<g>
</g>
<g>
</g>
<g>
</g>
<g>
</g>
<g>
</g>
<g>
</g>
<g>
</g>
<g>
</g>
<g>
</g>
<g>
</g>
<g>
</g>
<g>
</g>
<g>
</g>
</svg>
