<?xml version="1.0" encoding="iso-8859-1"?>
<!-- Generator: Adobe Illustrator 19.0.0, SVG Export Plug-In . SVG Version: 6.00 Build 0)  -->
<svg xmlns="http://www.w3.org/2000/svg" xmlns:xlink="http://www.w3.org/1999/xlink" version="1.1" id="Layer_1" x="0px" y="0px" viewBox="0 0 512 512" style="enable-background:new 0 0 512 512;" xml:space="preserve">
<g>
	<g>
		<path d="M350.426,29.703c-7.549-3.93-15.606-6.518-24-7.714C317.082,8.331,301.498,0,284.832,0C274.436,0,264.416,3.186,256,9.077    C247.585,3.186,237.565,0,227.168,0c-16.667,0-32.253,8.332-41.596,21.992c-17.776,2.557-34.102,11.449-45.947,24.98    c-4.926-1.405-10.008-2.115-15.176-2.115c-30.531,0-55.369,24.838-55.369,55.369c0,9.901,2.585,19.433,7.521,27.875    c-5.515,9.142-8.405,19.526-8.405,30.346c0,18.019,8.408,35.082,22.362,46.167c-5.617,10.724-8.557,22.637-8.557,34.866    c0,9.979,1.924,19.677,5.719,28.825c1.261,3.037,4.197,4.87,7.293,4.87c1.008,0,2.032-0.195,3.021-0.604    c4.025-1.671,5.935-6.288,4.265-10.314c-2.996-7.221-4.514-14.884-4.514-22.777c0-11.719,3.414-23.067,9.873-32.817    c1.192-1.8,1.595-4.011,1.114-6.117c-0.482-2.106-1.805-3.922-3.662-5.026c-13.034-7.745-21.131-21.951-21.131-37.074    c0-9.294,2.912-18.148,8.42-25.604c2.047-2.769,2.06-6.547,0.035-9.332c-4.953-6.808-7.571-14.859-7.571-23.284    c0-21.828,17.758-39.585,39.585-39.585c5.12,0,10.126,0.974,14.875,2.896c3.324,1.345,7.135,0.281,9.281-2.591    c10.134-13.557,25.568-22.194,42.344-23.696c2.574-0.23,4.871-1.707,6.151-3.951c6.161-10.803,17.682-17.514,30.068-17.514    c8.721,0,17.057,3.268,23.473,9.203c3.025,2.798,7.694,2.798,10.718,0c6.414-5.935,14.751-9.203,23.472-9.203    c12.386,0,23.908,6.711,30.068,17.515c1.28,2.245,3.579,3.722,6.154,3.951c7.761,0.693,15.192,2.865,22.086,6.453    c3.866,2.012,8.632,0.509,10.644-3.356C355.796,36.481,354.292,31.716,350.426,29.703z"/>
	</g>
</g>
<g>
	<g>
		<path d="M443.804,158.446c0-20.661-10.719-39.494-27.926-50.115c1.413-3.48,2.156-7.225,2.156-11.041    c0-16.217-13.198-29.41-29.421-29.41c-1.069,0-2.133,0.058-3.188,0.174c-2.869-7.042-6.79-13.583-11.705-19.519    c-2.781-3.358-7.756-3.825-11.112-1.046c-3.357,2.78-3.825,7.755-1.046,11.112c5.168,6.241,8.943,13.326,11.221,21.054    c0.632,2.147,2.147,3.923,4.165,4.889c2.018,0.965,4.352,1.029,6.42,0.175c1.692-0.699,3.457-1.053,5.246-1.053    c7.519,0,13.637,6.112,13.637,13.627c0,4.225-1.84,7.209-3.385,8.967c-1.671,1.905-2.326,4.494-1.763,6.965    c0.564,2.47,2.28,4.518,4.613,5.507c15.979,6.776,26.304,22.365,26.304,39.717c0,15.122-8.097,29.328-21.131,37.074    c-1.857,1.104-3.18,2.92-3.662,5.026s-0.079,4.316,1.114,6.117c6.459,9.751,9.873,21.099,9.873,32.817    c0,25.674-16.361,48.376-40.712,56.49c-3.277,1.092-5.462,4.187-5.396,7.639l0.014,0.587c0.008,0.314,0.017,0.63,0.017,0.954    c0,19.06-15.506,34.566-34.566,34.566c-2.575,0-5.141-0.29-7.628-0.862c-0.58-0.134-1.173-0.201-1.769-0.201h-1.357V237.295    c5.829-2.3,11.073-5.961,15.327-10.807c7.046-8.026,10.544-18.316,9.852-28.974c-0.283-4.35-4.042-7.65-8.387-7.362    c-4.349,0.283-7.646,4.037-7.364,8.387c0.42,6.45-1.698,12.678-5.963,17.537c-4.265,4.858-10.167,7.764-16.617,8.184    c-5.023,0.329-9.944-0.894-14.227-3.53c-3.651-2.247-8.424-1.169-10.757,2.424c-6.338,9.766-16.624,15.8-28.221,16.554    c-14.535,0.944-28.203-6.829-34.83-19.806c-1.141-2.234-3.275-3.792-5.749-4.198c-2.475-0.406-4.995,0.387-6.79,2.138    c-4.127,4.026-9.565,6.449-15.314,6.823c-6.449,0.419-12.678-1.698-17.537-5.963c-4.858-4.265-7.764-10.166-8.184-16.617    c-0.283-4.349-4.038-7.647-8.387-7.362c-4.349,0.283-7.646,4.037-7.364,8.387c0.693,10.658,5.496,20.408,13.522,27.454    c6.605,5.798,14.741,9.187,23.356,9.823v98.269h-1.357c-0.596,0-1.189,0.067-1.769,0.201c-2.486,0.571-5.053,0.862-7.628,0.862    c-19.06,0-34.566-15.506-34.566-34.566c0-0.477,0.019-0.937,0.037-1.396c0.133-3.505-2.065-6.676-5.393-7.786    c-8.976-2.989-17.227-8.175-23.864-14.994c-3.039-3.124-8.036-3.191-11.159-0.153c-3.124,3.04-3.191,8.036-0.153,11.16    c7.067,7.263,15.588,13.06,24.89,16.97c1.949,25.996,23.723,46.549,50.208,46.549c3.45,0,6.894-0.358,10.253-1.063h0.502v15.014    c-10.516-3.525-20.863-4.782-30.88-3.725c-4.015,0.424-7.064,3.81-7.064,7.848v10.776c0,2.806,1.491,5.402,3.914,6.816    c20.399,11.903,31.623,36.357,34.029,42.072v3.746c0,15.41-12.537,27.948-27.948,27.948c-4.358,0-7.892,3.533-7.892,7.892    s3.533,7.892,7.892,7.892h27.535c3.835,0,7.291,1.805,9.483,4.952c2.191,3.147,2.684,7.015,1.354,10.611l-1.883,5.09    c-1.168,3.157-0.206,6.706,2.396,8.841c2.603,2.135,6.272,2.384,9.139,0.621l30.584-18.808c9.966-6.127,22.347-6.128,32.312,0    l30.585,18.808c1.274,0.784,2.706,1.169,4.133,1.169c1.784,0,3.56-0.604,5.005-1.79c2.602-2.134,3.565-5.684,2.397-8.84    l-1.884-5.091c-1.331-3.597-0.837-7.465,1.354-10.612c2.191-3.147,5.647-4.952,9.482-4.952h27.535    c4.358,0,7.892-3.533,7.892-7.892c0-4.358-3.533-7.892-7.892-7.892c-15.41,0-27.948-12.537-27.948-27.947v-20.762    c0-4.358-3.533-7.892-7.892-7.892s-7.892,3.533-7.892,7.892v20.762c0,10.89,4.001,20.862,10.61,28.525    c-6.763,1.413-12.824,5.359-16.85,11.14c-2.448,3.516-3.997,7.501-4.607,11.622l-15.764-9.693    c-15.065-9.263-33.782-9.263-48.847,0l-15.764,9.693c-0.609-4.122-2.159-8.106-4.607-11.622    c-4.025-5.781-10.085-9.727-16.848-11.14c6.609-7.663,10.61-17.636,10.61-28.525V238.387c2.626-0.886,5.161-2.028,7.55-3.437    c9.802,12.903,25.136,20.62,41.557,20.619c1.131,0,2.272-0.037,3.411-0.11c14.008-0.911,27.095-7.529,36.185-18.052    c4.258,1.654,8.763,2.546,13.363,2.663v154.057c0,4.358,3.533,7.892,7.892,7.892c4.358,0,7.892-3.533,7.892-7.892v-39.69h0.501    c3.358,0.705,6.803,1.063,10.253,1.063c26.481,0,48.252-20.55,50.207-46.538c27.865-11.647,46.221-38.897,46.221-69.482    c0-12.23-2.939-24.142-8.557-34.866C435.396,193.528,443.804,176.465,443.804,158.446z M189.183,401.696    c-5.301-7.135-12.043-14.484-20.317-20.422c6.572,0.456,13.368,2.133,20.317,5.019V401.696z"/>
	</g>
</g>
<g>
	<g>
		<path d="M253.864,269.247c-4.358,0-7.892,3.533-7.892,7.892v26.274c0,4.358,3.533,7.892,7.892,7.892    c4.358,0,7.892-3.533,7.892-7.892v-26.274C261.756,272.781,258.223,269.247,253.864,269.247z"/>
	</g>
</g>
<g>
	<g>
		<path d="M285.4,269.247c-4.358,0-7.892,3.533-7.892,7.892v26.274c0,4.358,3.533,7.892,7.892,7.892    c4.358,0,7.892-3.533,7.892-7.892v-26.274C293.292,272.781,289.758,269.247,285.4,269.247z"/>
	</g>
</g>
<g>
	<g>
		<path d="M295.613,321.063c-5.181-4.141-11.268-2.764-16.639-1.549c-2.742,0.62-5.578,1.262-8.304,1.262    c-2.726,0-5.562-0.642-8.304-1.262c-5.371-1.214-11.457-2.592-16.639,1.549c-4.995,3.99-5.573,10.755-5.573,15.496    c0,21.832,13.403,38.933,30.515,38.933c17.112,0,30.515-17.101,30.515-38.933C301.184,331.818,300.606,325.053,295.613,321.063z     M270.668,359.708c-7.985,0-14.731-10.601-14.731-23.149c0.001-0.941,0.038-1.684,0.091-2.262    c0.914,0.173,1.971,0.411,2.855,0.611c3.251,0.736,7.297,1.651,11.787,1.651c4.49,0,8.536-0.915,11.786-1.651    c0.885-0.2,1.94-0.439,2.855-0.611c0.053,0.579,0.089,1.322,0.089,2.262C285.399,349.107,278.653,359.708,270.668,359.708z"/>
	</g>
</g>
<g>
	<g>
		<path d="M308.434,121.189c-19.581,0-35.512,15.931-35.512,35.512s15.931,35.512,35.512,35.512s35.512-15.931,35.512-35.512    C343.945,137.12,328.015,121.189,308.434,121.189z M308.434,176.428c-10.878,0-19.728-8.85-19.728-19.728    s8.85-19.728,19.728-19.728s19.728,8.85,19.728,19.728C328.161,167.579,319.312,176.428,308.434,176.428z"/>
	</g>
</g>
<g>
	<g>
		<path d="M172.982,80.862c-19.581,0-35.512,15.931-35.512,35.512s15.931,35.512,35.512,35.512s35.512-15.931,35.512-35.512    S192.563,80.862,172.982,80.862z M172.982,136.101c-10.878,0-19.728-8.85-19.728-19.728s8.85-19.728,19.728-19.728    s19.728,8.85,19.728,19.728S183.86,136.101,172.982,136.101z"/>
	</g>
</g>
<g>
</g>
<g>
</g>
<g>
</g>
<g>
</g>
<g>
</g>
<g>
</g>
<g>
</g>
<g>
</g>
<g>
</g>
<g>
</g>
<g>
</g>
<g>
</g>
<g>
</g>
<g>
</g>
<g>
</g>
</svg>
