<?xml version="1.0" encoding="iso-8859-1"?>
<!-- Generator: Adobe Illustrator 19.0.0, SVG Export Plug-In . SVG Version: 6.00 Build 0)  -->
<svg xmlns="http://www.w3.org/2000/svg" xmlns:xlink="http://www.w3.org/1999/xlink" version="1.1" id="Layer_1" x="0px" y="0px" viewBox="0 0 512.002 512.002" style="enable-background:new 0 0 512.002 512.002;" xml:space="preserve">
<g>
	<g>
		<path d="M255.237,110.278c-4.504,0-8.153,3.65-8.153,8.153v12.253c0,4.503,3.649,8.153,8.153,8.153    c4.504,0,8.153-3.65,8.153-8.153v-12.253C263.39,113.928,259.741,110.278,255.237,110.278z"/>
	</g>
</g>
<g>
	<g>
		<path d="M327.641,110.278c-4.504,0-8.153,3.65-8.153,8.153v12.253c0,4.503,3.65,8.153,8.153,8.153c4.504,0,8.153-3.65,8.153-8.153    v-12.253C335.794,113.928,332.145,110.278,327.641,110.278z"/>
	</g>
</g>
<g>
	<g>
		<path d="M330.225,266.462v-26.258h26.378c4.504,0,8.153-3.65,8.153-8.153V59.484c0-4.503-3.649-8.153-8.153-8.153h-84.302v-9.907    c7.832-3.22,13.366-10.925,13.366-19.905C285.668,9.654,276.014,0,264.149,0c-11.866,0-21.52,9.654-21.52,21.519    c0,8.981,5.534,16.685,13.367,19.906v9.906h-46.812h-55.657c-4.504,0-8.153,3.65-8.153,8.153v172.567    c0,4.503,3.649,8.153,8.153,8.153h31.179v30.571c-1.458,1.437-2.919,2.973-4.37,4.62c-25.799,29.273-28.814,69.827-26.8,98.692    c0.299,4.299,3.88,7.586,8.125,7.586c0.191,0,0.384-0.007,0.576-0.021c4.492-0.314,7.879-4.209,7.565-8.701    c-2.149-30.805,3.003-56.789,14.905-76.07v88.889c0,4.503,3.649,8.153,8.153,8.153h24.701    c6.083,15.981,22.84,68.682-4.386,105.036c-1.85,2.471-2.147,5.775-0.765,8.535s4.204,4.505,7.291,4.505h21.165    c4.504,0,8.153-3.65,8.153-8.153s-3.649-8.153-8.153-8.153h-6.603c9.683-19.394,12.638-43.265,8.536-69.972    c-1.98-12.886-5.21-24.031-7.872-31.797h48.252c6.083,15.981,22.84,68.682-4.386,105.036c-1.85,2.471-2.147,5.775-0.765,8.535    c1.382,2.76,4.204,4.505,7.291,4.505h21.165c4.504,0,8.153-3.65,8.153-8.153s-3.649-8.153-8.153-8.153h-6.603    c9.683-19.394,12.638-43.265,8.536-69.972c-1.98-12.886-5.21-24.031-7.872-31.797h21.536c4.504,0,8.153-3.65,8.153-8.153v-35.992    c0-4.503-3.649-8.153-8.153-8.153c-4.504,0-8.153,3.65-8.153,8.153v27.839H201.011V278.02c9.364-7.69,17.318-10.229,17.558-10.304    c4.297-1.274,6.763-5.783,5.508-10.093c-1.257-4.323-5.782-6.808-10.105-5.55c-0.392,0.114-5.671,1.701-12.962,6.049v-17.916    h8.174h104.736v86.746c0,4.503,3.649,8.153,8.153,8.153c4.504,0,8.153-3.65,8.153-8.153v-36.981    c12.39,15.95,22.481,41.709,19.601,82.983c-0.314,4.492,3.073,8.388,7.565,8.701c0.193,0.013,0.385,0.021,0.576,0.021    c4.244,0,7.825-3.287,8.125-7.585C370.238,314.691,349.607,282.974,330.225,266.462z M264.149,16.306    c2.875,0,5.214,2.339,5.214,5.214c0,2.875-2.338,5.215-5.214,5.215s-5.215-2.339-5.215-5.215    C258.934,18.645,261.274,16.306,264.149,16.306z M217.337,223.897V123.674c0-4.503-3.649-8.153-8.153-8.153    s-8.153,3.65-8.153,8.153v100.225H161.68V67.637h39.351V98.67c0,4.503,3.649,8.153,8.153,8.153s8.153-3.65,8.153-8.153V67.637    H348.45v91.652h-87.087c-12.173,0-22.077,9.904-22.077,22.077s9.903,22.077,22.077,22.077h87.087v20.454H217.337z M348.45,175.596    v11.542h-17.111v-11.542H348.45z M315.032,175.596v11.542h-20.453v-11.542H315.032z M278.275,175.596v11.542h-16.911    c-3.182,0-5.771-2.589-5.771-5.771c0-3.182,2.589-5.771,5.771-5.771H278.275z"/>
	</g>
</g>
<g>
</g>
<g>
</g>
<g>
</g>
<g>
</g>
<g>
</g>
<g>
</g>
<g>
</g>
<g>
</g>
<g>
</g>
<g>
</g>
<g>
</g>
<g>
</g>
<g>
</g>
<g>
</g>
<g>
</g>
</svg>
