<?xml version="1.0" encoding="iso-8859-1"?>
<!-- Generator: Adobe Illustrator 19.0.0, SVG Export Plug-In . SVG Version: 6.00 Build 0)  -->
<svg xmlns="http://www.w3.org/2000/svg" xmlns:xlink="http://www.w3.org/1999/xlink" version="1.1" id="Layer_1" x="0px" y="0px" viewBox="0 0 512.001 512.001" style="enable-background:new 0 0 512.001 512.001;" xml:space="preserve">
<g>
	<g>
		<path d="M233.579,117.078c-2.658,1.84-3.996,5.199-3.372,8.368c0.751,3.808,4.213,6.625,8.086,6.625    c3.821,0,7.178-2.715,8.03-6.428C247.974,118.45,239.613,112.9,233.579,117.078z"/>
	</g>
</g>
<g>
	<g>
		<path d="M256.461,113.47c-2.512,2.15-3.503,5.704-2.468,8.843c1.101,3.338,4.303,5.66,7.824,5.66c3.897,0,7.297-2.838,8.075-6.636    C271.43,113.826,262.249,108.515,256.461,113.47z"/>
	</g>
</g>
<g>
	<g>
		<path d="M510.857,117.427c-2.006-3.4-6.14-4.9-9.861-3.576l-71.292,25.377l48.524-59.448c2.615-3.204,2.45-7.849-0.383-10.859    c-2.835-3.01-7.461-3.453-10.815-1.037l-96.576,69.563c-3.693,2.66-4.53,7.809-1.87,11.502s7.81,4.532,11.502,1.87l45.833-33.013    l-27.652,33.874c-2.338,2.864-2.482,6.936-0.352,9.958c2.13,3.021,6.014,4.255,9.498,3.015l58.952-20.984l-40.289,35.613    c-2.732,2.415-3.552,6.339-2.015,9.646c1.536,3.307,5.068,5.213,8.673,4.679l29.04-4.274l-27.236,23.477    c-2.544,2.194-3.503,5.714-2.42,8.896c1.082,3.182,3.988,5.387,7.343,5.572l12.425,0.69    c-22.894,23.213-73.781,70.965-114.647,81.761c-1.224-1.19-2.48-2.317-3.766-3.37c3.405-13.857,3.126-28.371-0.86-42.333    l-18.748-65.512l48.395-34.859c3.693-2.66,4.53-7.809,1.87-11.502c-2.66-3.693-7.809-4.531-11.502-1.87l-43.582,31.392    l-6.059-21.171l28.596-28.596c2.564-2.564,3.151-6.504,1.444-9.705c-1.707-3.199-5.303-4.908-8.863-4.207l-31.555,6.215    l-1.865-6.503c-2.693-9.425-8.253-17.527-16.077-23.429c-5.335-4.028-11.363-6.758-17.764-8.092    c1.142-10.917,1.103-31.271-12.114-44.488c-3.218-3.218-8.436-3.218-11.652,0c-3.218,3.218-3.218,8.436,0,11.652    c4.746,4.747,6.796,11.803,7.475,18.614c-11.616-9.298-24.088-12.095-36.116-8.086c-4.318,1.439-6.65,6.105-5.212,10.423    c1.439,4.318,6.106,6.65,10.423,5.212c9.366-3.124,17.997,2.534,23.767,8.093c-14.642,4.971-26.208,17.376-29.565,33.089    l-11.38,53.471L44.978,67.884c-3.355-2.416-7.982-1.972-10.816,1.038c-2.835,3.01-2.998,7.656-0.383,10.858l48.524,59.444    l-71.298-25.378c-3.719-1.321-7.855,0.177-9.862,3.577c-2.005,3.4-1.317,7.746,1.641,10.36l51.461,45.478l-29.687-4.366    c-3.627-0.531-7.17,1.393-8.694,4.728c-1.524,3.333-0.662,7.273,2.114,9.666l33.25,28.663l-9.846,0.547    c-3.165,0.176-5.949,2.151-7.159,5.081c-1.211,2.93-0.632,6.294,1.488,8.652c0.658,0.733,16.392,18.187,39.166,38.654    c1.574,1.415,3.543,2.112,5.505,2.112c2.257,0,4.505-0.922,6.132-2.732c3.042-3.385,2.764-8.595-0.621-11.636    c-10.297-9.254-19.204-17.975-25.793-24.666l12.437-0.691c3.355-0.186,6.261-2.392,7.343-5.572    c1.082-3.181,0.125-6.702-2.42-8.896l-27.236-23.478l29.056,4.273c3.608,0.526,7.136-1.374,8.672-4.681    c1.536-3.307,0.716-7.231-2.016-9.646l-40.287-35.603l58.948,20.982c3.485,1.24,7.367,0.009,9.498-3.016    c2.13-3.022,1.987-7.094-0.352-9.958l-27.64-33.855l118.433,85.311c3.693,2.662,8.842,1.824,11.502-1.87    c2.66-3.694,1.823-8.842-1.87-11.502l-7.031-5.065l12.888-60.559c2.774-12.985,14.417-22.409,27.681-22.409    c6.194,0,12.084,1.974,17.033,5.71c4.944,3.73,8.456,8.849,10.163,14.818l1.479,5.156l-4.614,0.909    c-7.382,1.454-13.593,6.124-17.039,12.812c-3.446,6.688-3.645,14.455-0.547,21.311c3.313,7.327,10.013,12.564,17.924,14.007    c1.465,0.267,2.933,0.398,4.395,0.398c4.588,0,9.072-1.313,12.952-3.733l27.314,95.445c2.757,9.655,3.3,19.631,1.648,29.304    c-4.191-1.207-8.635,1.064-10.067,5.235c-1.478,4.303,0.815,8.991,5.12,10.468c5.997,2.058,12.258,6.998,17.178,13.554    c9.098,12.122,10.389,25.312,5.466,29.007c-4.923,3.696-17.228-1.229-26.326-13.352c-3.484-4.642-6.011-9.697-7.304-14.618    c-1.158-4.401-5.664-7.031-10.065-5.873s-7.03,5.664-5.873,10.065c0.828,3.15,2.011,6.31,3.479,9.416    c-2.918,1.975-5.981,3.698-9.176,5.169c-0.95-4.68-2.454-9.058-4.486-12.921c-2.118-4.028-7.101-5.576-11.128-3.456    c-4.028,2.118-5.576,7.101-3.456,11.128c2.841,5.402,4.183,12.885,3.679,20.531c-0.994,15.123-8.604,25.977-14.75,25.568    c-2.663-0.175-5.432-2.635-7.596-6.748c-2.84-5.402-4.182-12.885-3.679-20.532c0.434-6.596,2.201-12.894,4.974-17.732    c2.264-3.949,0.898-8.984-3.05-11.247c-3.948-2.262-8.984-0.899-11.247,3.05c-2.119,3.697-3.792,7.816-5.003,12.209    c-9.509-4.457-17.872-11.165-24.336-19.494c1.666-0.348,3.297-0.77,4.887-1.284c12.846-4.156,23.171-11.507,30.688-21.848    c2.675-3.682,1.86-8.834-1.82-11.511c-3.682-2.676-8.834-1.86-11.511,1.82c-5.5,7.568-12.837,12.754-22.43,15.858    c-20.728,6.706-55.11-8.334-96.805-42.353c-3.527-2.876-8.717-2.351-11.594,1.176c-2.876,3.526-2.35,8.717,1.176,11.594    c19.329,15.77,37.046,27.641,53.081,35.592l-50.325,45.334c-2.295,2.068-3.242,5.245-2.45,8.232    c0.792,2.987,3.186,5.28,6.204,5.939l23.367,5.112l-24.063,36.104c-1.935,2.902-1.833,6.707,0.254,9.501s5.705,3.972,9.039,2.941    l33.56-10.388l-6.786,44.11c-0.581,3.775,1.508,7.454,5.048,8.889c1.008,0.409,2.056,0.604,3.093,0.604    c2.608,0,5.138-1.24,6.721-3.469l72.826-102.528c0.383,8.092,2.301,15.716,5.601,21.991c3.978,7.564,9.806,12.717,16.422,14.681    l14.814,34.373l-5.719,10.069c-2.248,3.957-0.861,8.987,3.095,11.235c1.284,0.729,2.683,1.077,4.062,1.077    c2.867,0,5.655-1.5,7.172-4.172l5.407-9.519l26.385-0.303c4.551-0.053,8.197-3.784,8.144-8.334    c-0.052-4.518-3.731-8.145-8.238-8.145c-0.032,0-0.065,0-0.097,0l-15.214,0.175l5.647-8.195c2.582-3.748,1.637-8.878-2.109-11.46    c-3.75-2.584-8.879-1.638-11.46,2.109l-6.217,9.022l-8.61-19.978c10.519-5.821,18.404-19.785,19.806-37.008    c6.065-2.233,11.804-5.135,17.15-8.721c9.793,11.603,22.247,18.126,33.16,18.126c2.819,0,5.529-0.452,8.069-1.346l27.625,20.882    v11.58c0,4.551,3.689,8.24,8.24,8.24s8.24-3.689,8.24-8.24v-10.948l22.793-13.295c3.931-2.293,5.259-7.339,2.966-11.269    c-2.294-3.932-7.34-5.258-11.269-2.966l-13.142,7.666l0.862-9.915c0.394-4.533-2.961-8.529-7.495-8.922    c-4.533-0.405-8.529,2.961-8.922,7.495l-0.949,10.915l-16.499-12.471c4.769-9.951,3.172-24.126-4.566-37.487    c57.77-19.565,125.186-94.038,128.219-97.414c2.119-2.358,2.697-5.722,1.488-8.652c-1.21-2.93-3.994-4.906-7.159-5.081    l-9.853-0.548l33.257-28.666c2.776-2.393,3.638-6.333,2.114-9.667c-1.525-3.334-5.073-5.264-8.694-4.726l-29.678,4.367    l51.453-45.48C512.176,125.173,512.863,120.827,510.857,117.427z M282.166,158.02c-1.889,1.888-4.48,2.696-7.105,2.216    c-2.627-0.479-4.765-2.15-5.865-4.583c-1.014-2.243-0.948-4.785,0.179-6.972c1.127-2.189,3.16-3.716,5.575-4.193l25.835-5.088    L282.166,158.02z M156.812,431.326l3.497-22.731c0.433-2.807-0.611-5.638-2.762-7.493c-2.151-1.854-5.106-2.471-7.818-1.631    l-23.984,7.424l17.895-26.843c1.511-2.266,1.804-5.131,0.784-7.656s-3.22-4.384-5.88-4.965l-19.478-4.261l44.124-39.749    c6.361,2.193,12.406,3.66,18.131,4.398c6.885,11.986,16.654,22.035,28.238,29.244L156.812,431.326z"/>
	</g>
</g>
<g>
</g>
<g>
</g>
<g>
</g>
<g>
</g>
<g>
</g>
<g>
</g>
<g>
</g>
<g>
</g>
<g>
</g>
<g>
</g>
<g>
</g>
<g>
</g>
<g>
</g>
<g>
</g>
<g>
</g>
</svg>
