<?xml version="1.0" encoding="iso-8859-1"?>
<!-- Generator: Adobe Illustrator 19.0.0, SVG Export Plug-In . SVG Version: 6.00 Build 0)  -->
<svg xmlns="http://www.w3.org/2000/svg" xmlns:xlink="http://www.w3.org/1999/xlink" version="1.1" id="Layer_1" x="0px" y="0px" viewBox="0 0 511.999 511.999" style="enable-background:new 0 0 511.999 511.999;" xml:space="preserve">
<g>
	<g>
		<path d="M364.646,217.647c0-8.403-0.562-16.44-1.633-24.07c3.519-9.849,15.746-50.991-5.393-98.563    c-1.813-4.08-6.588-5.915-10.67-4.106c-4.08,1.813-5.918,6.59-4.105,10.67c9.578,21.557,11.309,41.788,10.376,57.408    c-2.106-4.543-4.477-8.803-7.141-12.717c-4.275-6.28-10.767-10.326-18.282-11.395c-7.566-1.078-15.33,1.127-21.287,6.049    c-6.848,5.66-16.816,8.904-27.348,8.904c-11.545,0-22.459-3.948-29.193-10.561c-9.808-9.634-25.229-10.128-35.868-1.151    c-10.509,8.867-19.212,19.807-25.491,31.98c-2.813-0.898-5.708-1.359-8.612-1.359c-5.111,0-9.951,1.361-14.358,3.826    c-10.962-39.394,0.06-76.907,32.885-111.658c8.735-9.248,18.039-17.185,26.688-23.727c-10.094,18.839-19.346,44.766-19.346,76.54    c0,4.465,3.62,8.084,8.084,8.084c4.465,0,8.084-3.62,8.084-8.084c0-47.43,23.563-80.997,34.378-93.905    c15.566,16.365,42.15,48.957,42.15,71.269c0,4.465,3.618,8.084,8.084,8.084c4.466,0,8.084-3.62,8.084-8.084    c0-15.252-8.401-32.446-18.516-47.619c14.253,11.485,25.954,23.911,34.963,37.198c2.504,3.695,7.529,4.66,11.228,2.156    c3.695-2.506,4.66-7.532,2.155-11.228c-18.502-27.29-46.985-51.07-84.66-70.675c-2.257-1.175-4.935-1.217-7.228-0.117    c-1.454,0.697-35.952,17.441-65.584,48.669c-38.986,41.086-50.871,87.839-34.536,135.477    c-6.398,9.397-10.284,22.177-10.284,36.463c0,29.534,16.572,52.669,37.726,52.669c4.139,0,8.202-0.914,12.047-2.684    c0.888,1.47,1.82,2.911,2.777,4.333l-20.17,195.023c-0.236,2.276,0.504,4.547,2.038,6.245c1.533,1.7,3.714,2.67,6.003,2.67H218.8    v24.253c0,4.465,3.62,8.084,8.084,8.084h26.947c4.465,0,8.084-3.62,8.084-8.084c0-4.465-3.618-8.084-8.084-8.084h-18.863v-16.168    h43.116v24.253c0,4.465,3.618,8.084,8.084,8.084h26.947c4.466,0,8.084-3.62,8.084-8.084c0-4.465-3.619-8.084-8.084-8.084h-18.863    v-16.168h60.901c2.324,0,4.537-1,6.072-2.746c1.535-1.745,2.243-4.067,1.947-6.372L340.66,296.097    c1.627-1.887,3.181-3.87,4.653-5.958C357.96,272.2,364.646,247.132,364.646,217.647z M345.958,463.494H191.655l7.674-74.192    h16.422c3.52,15.807,9.151,32.85,18.129,48.56c1.458,2.551,4.156,4.073,7.017,4.073c0.522,0,1.05-0.051,1.576-0.155    c3.409-0.677,6.004-3.457,6.445-6.904l5.829-45.576h19.021c4.466,0,8.084-3.62,8.084-8.084s-3.618-8.084-8.084-8.084h-16.953    l3.959-30.955c0.567-4.429-2.564-8.479-6.992-9.045c-4.431-0.568-8.478,2.565-9.045,6.993l-8.167,63.857    c-12.026-36.372-10.258-72.716-10.235-73.166c0.245-4.455-3.168-8.266-7.624-8.514c-4.453-0.234-8.272,3.165-8.52,7.623    c-0.075,1.351-0.979,19.442,2.565,43.208H201l8.3-80.246c4.912,4.688,10.286,8.913,16.071,12.591    c16.648,10.588,35.923,16.185,55.738,16.185c17.246,0,32.416-4.302,44.918-12.609l8.27,64.08h-34.123    c-4.466,0-8.084,3.62-8.084,8.084c0,4.465,3.618,8.084,8.084,8.084h36.21L345.958,463.494z M281.109,305.496    c-33.446,0-63.416-18.497-78.458-48.327l-1.269-6.059c-0.915-4.371-5.202-7.168-9.57-6.255c-4.37,0.915-7.17,5.2-6.255,9.57    l0.407,1.943c-1.949,1.019-3.944,1.539-5.968,1.539c-11.687-0.001-21.559-16.716-21.559-36.502s9.872-36.501,21.558-36.501    c2.657,0,5.297,0.902,7.843,2.682c2.008,1.403,4.545,1.818,6.896,1.134c2.352-0.687,4.265-2.403,5.203-4.666    c5.35-12.912,13.852-24.524,24.588-33.582c4.156-3.506,10.355-3.363,14.113,0.329c9.833,9.656,24.603,15.195,40.522,15.195    c14.228,0,27.95-4.594,37.647-12.605c2.458-2.031,5.636-2.948,8.713-2.507c2.956,0.42,5.509,2.013,7.193,4.486    c10.313,15.149,15.764,36.684,15.764,62.278C348.477,244.061,341.913,305.496,281.109,305.496z"/>
	</g>
</g>
<g>
	<g>
		<path d="M200.559,212.23c-1.81-3.3-8.427-14.17-17.601-15.48c-4.184-0.595-8.227,0.805-11.373,3.951    c-3.157,3.157-3.157,8.276,0,11.432c2.646,2.647,6.672,3.075,9.765,1.284c1.51,1.353,3.671,4.134,5.041,6.604    c1.472,2.671,4.235,4.182,7.086,4.182c1.314,0,2.647-0.321,3.88-0.997C201.273,221.059,202.705,216.146,200.559,212.23z"/>
	</g>
</g>
<g>
	<g>
		<path d="M270,188.631c-4.466,0-8.084,3.62-8.084,8.084v21.558c0,4.465,3.618,8.084,8.084,8.084c4.466,0,8.084-3.62,8.084-8.084    v-21.558C278.085,192.251,274.466,188.631,270,188.631z"/>
	</g>
</g>
<g>
	<g>
		<path d="M310.96,188.631c-4.466,0-8.084,3.62-8.084,8.084v21.558c0,4.465,3.618,8.084,8.084,8.084c4.466,0,8.084-3.62,8.084-8.084    v-21.558C319.044,192.251,315.426,188.631,310.96,188.631z"/>
	</g>
</g>
<g>
	<g>
		<path d="M338.236,235.189c-2.454-3.731-7.469-4.766-11.197-2.312c-44.757,29.436-82.959,3.017-84.603,1.85    c-3.619-2.594-8.658-1.774-11.266,1.839c-2.614,3.618-1.798,8.672,1.823,11.284c0.5,0.36,12.457,8.883,31.05,12.91    c5.537,1.2,12.03,2.066,19.243,2.066c15.151,0,33.459-3.828,52.638-16.441C339.654,243.932,340.689,238.918,338.236,235.189z"/>
	</g>
</g>
<g>
</g>
<g>
</g>
<g>
</g>
<g>
</g>
<g>
</g>
<g>
</g>
<g>
</g>
<g>
</g>
<g>
</g>
<g>
</g>
<g>
</g>
<g>
</g>
<g>
</g>
<g>
</g>
<g>
</g>
</svg>
