<?xml version="1.0" encoding="iso-8859-1"?>
<!-- Generator: Adobe Illustrator 19.0.0, SVG Export Plug-In . SVG Version: 6.00 Build 0)  -->
<svg xmlns="http://www.w3.org/2000/svg" xmlns:xlink="http://www.w3.org/1999/xlink" version="1.1" id="Layer_1" x="0px" y="0px" viewBox="0 0 512 512" style="enable-background:new 0 0 512 512;" xml:space="preserve">
<g>
	<g>
		<path d="M325.918,195.665c-3.295-3.296-8.639-3.295-11.935,0c-2.23,2.232-5.199,3.462-8.356,3.462    c-3.155,0-6.123-1.229-8.355-3.462c-3.296-3.295-8.64-3.296-11.935,0c-3.297,3.296-3.297,8.64-0.001,11.937    c5.42,5.42,12.626,8.405,20.291,8.405c7.667,0,14.873-2.986,20.292-8.405C329.216,204.305,329.216,198.961,325.918,195.665z"/>
	</g>
</g>
<g>
	<g>
		<path d="M282.683,136.516c-4.662,0-8.44,3.779-8.44,8.44v18.005c0,4.661,3.779,8.44,8.44,8.44c4.662,0,8.44-3.779,8.44-8.44    v-18.005C291.123,140.295,287.345,136.516,282.683,136.516z"/>
	</g>
</g>
<g>
	<g>
		<path d="M328.822,136.516c-4.662,0-8.44,3.779-8.44,8.44v18.005c0,4.661,3.779,8.44,8.44,8.44c4.662,0,8.44-3.779,8.44-8.44    v-18.005C337.262,140.295,333.484,136.516,328.822,136.516z"/>
	</g>
</g>
<g>
	<g>
		<path d="M261.533,274.622c-3.076-1.442-6.814-0.888-9.321,1.415c-5.555,5.103-1.789,14.655,5.714,14.655    c4.077,0,7.643-3.046,8.323-7.051C266.871,279.972,264.902,276.201,261.533,274.622z"/>
	</g>
</g>
<g>
	<g>
		<path d="M361.353,293c-2.648-3.837-7.903-4.803-11.741-2.155c-3.836,2.647-4.802,7.903-2.155,11.74    c5.946,8.619,10.668,18.179,14.15,28.625c-10.55-16.226-24.43-33.122-41.226-43.989c-0.198-3.61-0.257-7.558-0.173-11.817    c4.985,3.44,9.673,7.269,13.998,11.483c1.641,1.598,3.765,2.395,5.888,2.395c2.197,0,4.392-0.853,6.046-2.55    c3.253-3.339,3.182-8.682-0.156-11.935c-7.383-7.194-15.658-13.439-24.639-18.637c0.088-0.944,0.179-1.895,0.277-2.857    c13.628-5.426,25.075-14.471,33.848-26.913c13.207-18.731,20.188-44.901,20.188-75.683c0-12.006-1.076-23.375-3.173-33.846    c1.298-5.636,4.543-22.283,2.677-41.152c-3.114-31.471-18.806-53.742-45.381-64.405c-2.352-0.943-5.003-0.781-7.225,0.446    c-2.219,1.226-3.77,3.384-4.222,5.879l-0.798,4.387C300.808,10.365,266.489-6.199,213.88,2.368    c-2.866,0.467-5.29,2.373-6.42,5.048c-1.129,2.675-0.803,5.743,0.862,8.122l4.25,6.072c-4.994,1.21-11.032,2.991-17.579,5.597    c-4.331,1.724-6.445,6.633-4.72,10.963c1.722,4.33,6.633,6.446,10.962,4.72c14.658-5.835,26.399-6.893,26.498-6.902    c3.015-0.244,5.668-2.084,6.956-4.821c1.287-2.738,1.011-5.954-0.724-8.432l-3.759-5.369    c57.564-4.593,85.598,24.711,86.823,26.027c2.163,2.368,5.483,3.307,8.566,2.419c3.083-0.887,5.397-3.445,5.971-6.601l1.358-7.473    c14.708,9.228,23.235,24.383,25.393,45.193c0.611,5.887,0.629,11.584,0.352,16.684c-0.062-0.075-0.122-0.15-0.185-0.226    C347.055,79.441,335.18,72.37,323.196,72.37c-8.418,0-15.428,2.485-20.839,7.386c-5.071,4.595-12.052,6.09-18.217,3.899    c-21.589-7.664-42.434-0.768-58.699,19.421c-8.682,10.775-20.604,17.868-33.752,20.15c-3.134-1.538-6.509-2.343-9.927-2.343    c-14.956,0-26.671,14.582-26.671,33.198c0,18.615,11.715,33.198,26.671,33.198c1.436,0,2.858-0.138,4.254-0.412    c2.764,7.843,6.428,15.3,10.928,22.311l-19.812,22.801c-10.9-16.588-14.919-41.342-14.963-41.623    c-0.491-3.14-2.702-5.737-5.722-6.722c-3.02-0.985-6.338-0.19-8.585,2.056l-3.629,3.629c-2.948-24.292-0.151-46.489,8.365-66.159    c7.695-17.775,17.466-26.762,17.534-26.824c2.618-2.328,3.525-6.033,2.278-9.308c-1.247-3.275-4.384-5.439-7.889-5.439h-9.957    c6.805-11.509,16.053-21.164,27.609-28.802c3.888-2.57,4.957-7.806,2.387-11.696c-2.57-3.888-7.807-4.956-11.696-2.387    c-18.137,11.988-31.496,28.175-39.704,48.111c-1.071,2.603-0.774,5.57,0.792,7.91c1.568,2.34,4.196,3.744,7.012,3.744h5.786    c-12.389,18.637-28.175,55.039-16.367,110.148c0.648,3.024,2.898,5.45,5.863,6.327c2.963,0.874,6.17,0.06,8.359-2.127l4.384-4.384    c3.618,12.954,10.395,31.101,21.94,42.646c1.586,1.586,3.734,2.472,5.969,2.472c0.098,0,0.197-0.001,0.296-0.005    c2.338-0.082,4.54-1.132,6.075-2.899l24.098-27.73c0.163,0.182,0.329,0.362,0.493,0.544    c-6.005,11.485-11.213,23.386-15.555,35.478c-4.58,2.918-9.359,6.372-14.14,10.461c-20.856,17.838-45.717,51.489-45.717,110.509    c0,4.074,2.91,7.567,6.916,8.302c0.512,0.093,1.023,0.14,1.527,0.14c3.449,0,6.625-2.122,7.886-5.444    c0.081-0.214,8.277-21.611,22.79-43.65c1.46-2.217,3.023-4.491,4.675-6.785c-2.867,16.601-5.899,51.816,9.75,89.203    c1.193,2.849,3.845,4.819,6.918,5.136c3.07,0.315,6.072-1.07,7.822-3.613l17.67-25.704l13.19,19.919l8.587,77.708h-19.835    c-4.662,0-8.44,3.779-8.44,8.44c0,4.661,3.778,8.44,8.44,8.44h29.259c2.4,0,4.686-1.022,6.287-2.81    c1.601-1.787,2.365-4.173,2.102-6.557l-7.865-71.18c0.831-0.45,1.592-1.035,2.241-1.753l25.613-28.356l8.025,7.879l9.413,85.899    h-19.843c-4.662,0-8.44,3.779-8.44,8.44s3.778,8.44,8.44,8.44h29.259c2.399,0,4.684-1.021,6.285-2.807    c1.601-1.786,2.367-4.168,2.104-6.553l-8.272-75.48c2.921,1.383,6.481,1.013,9.07-1.185c1.589-1.348,38.553-33.5,21.034-86.043    c-1.491-7.901-3.957-16.196-7.362-24.758c25.923,26.738,41.569,67.229,41.758,67.727c1.261,3.322,4.436,5.444,7.886,5.444    c0.504,0,1.016-0.046,1.527-0.14c4.007-0.735,6.916-4.228,6.916-8.302C385.788,345.742,377.566,316.502,361.353,293z     M199.488,173.125c-0.708-2.816-2.812-5.07-5.573-5.969c-2.76-0.898-5.788-0.314-8.017,1.545    c-1.352,1.127-2.744,1.698-4.137,1.698c-4.631,0-9.791-6.701-9.791-16.318c0-9.616,5.16-16.318,9.791-16.318    c1.177,0,2.311,0.389,3.466,1.188c1.795,1.242,3.9,1.685,5.906,1.419c0.002,0,0.008,0.008,0.01,0.008l0.655-0.087    c18.296-2.432,34.91-11.887,46.785-26.626c11.919-14.794,24.971-19.408,39.907-14.104c12.03,4.271,25.518,1.475,35.198-7.298    c2.239-2.028,5.349-3.015,9.505-3.015c13.54,0,27.88,21.433,32.607,30.256c1.968,9.56,2.977,20.044,2.977,31.199    c0,27.577-6.853,91.716-70.334,91.716c-29.14,0-56.819-14.059-74.052-37.617C207.386,195.258,202.373,184.599,199.488,173.125z     M308.368,407.517l-24.834-24.383c-1.642-1.61-3.859-2.487-6.166-2.414c-2.299,0.069-4.47,1.072-6.01,2.778L247.14,410.31    l-21.564-32.565c-1.548-2.34-4.158-3.755-6.964-3.78c-0.025,0-0.049,0-0.073,0c-2.779,0-5.379,1.367-6.956,3.659l-15.326,22.293    c-7.318-25.946-5.637-49.497-3.684-62.383c11.723,5.453,32.656,13.541,59.662,17.102c4.621,0.608,8.862-2.642,9.471-7.264    c0.61-4.621-2.643-8.862-7.264-9.471c-28.71-3.786-50.154-13.288-59.043-17.779c0.362-3.6,0.827-7.228,1.38-10.854    c9.703-8.577,20.818-15.12,32.937-16.635c4.624-0.578,7.906-4.796,7.328-9.421c-0.578-4.626-4.791-7.907-9.423-7.328    c-30.706,3.839-54.886,30.531-71.121,55.529c6.417-19.436,17.123-35.717,32.051-48.672c19.531-16.952,39.477-21.701,39.733-21.76    c4.535-1.027,7.386-5.533,6.371-10.074c-1.017-4.549-5.529-7.41-10.079-6.394c-0.368,0.082-3.972,0.916-9.551,3.013    c1.78-4.047,3.661-8.056,5.645-12.018c19.06,15.196,42.971,23.798,67.777,23.798c5.469,0,10.736-0.417,15.787-1.237    c-0.514,6.196-0.806,11.965-0.898,17.34c-0.186-0.133-0.362-0.278-0.56-0.396c-3.179-1.892-7.345-1.483-10.065,1.04    c-5.491,5.09-1.798,14.642,5.729,14.642c1.922,0,3.719-0.68,5.161-1.81c0.65,10.477,2.368,18.839,5.174,24.967    c3.468,7.551,6.137,14.846,7.997,21.792c-11.18,2.327-22.571,3.634-33.975,3.857c-4.661,0.091-8.365,3.942-8.275,8.603    c0.091,4.66,3.988,8.392,8.604,8.274c12.706-0.248,25.402-1.708,37.85-4.348C327.365,379.183,315.704,398.544,308.368,407.517z"/>
	</g>
</g>
<g>
</g>
<g>
</g>
<g>
</g>
<g>
</g>
<g>
</g>
<g>
</g>
<g>
</g>
<g>
</g>
<g>
</g>
<g>
</g>
<g>
</g>
<g>
</g>
<g>
</g>
<g>
</g>
<g>
</g>
</svg>
