<?xml version="1.0" encoding="iso-8859-1"?>
<!-- Generator: Adobe Illustrator 19.0.0, SVG Export Plug-In . SVG Version: 6.00 Build 0)  -->
<svg xmlns="http://www.w3.org/2000/svg" xmlns:xlink="http://www.w3.org/1999/xlink" version="1.1" id="Layer_1" x="0px" y="0px" viewBox="0 0 512 512" style="enable-background:new 0 0 512 512;" xml:space="preserve">
<g>
	<g>
		<path d="M314.358,278.723c-1.121-4.483-5.658-7.208-10.146-6.087c-22.99,5.746-63.188-5.141-63.592-5.252    c-4.453-1.223-9.058,1.395-10.282,5.849c-1.226,4.455,1.393,9.06,5.848,10.285c1.409,0.387,27.561,7.48,51.944,7.48    c7.079,0,14.009-0.598,20.141-2.131C312.754,287.748,315.478,283.206,314.358,278.723z"/>
	</g>
</g>
<g>
	<g>
		<path d="M265.745,256.229c-5.969,4.862-2.364,14.829,5.304,14.829c3.862,0,7.309-2.76,8.155-6.527    C280.915,256.91,271.771,251.321,265.745,256.229z"/>
	</g>
</g>
<g>
	<g>
		<path d="M268.428,87.096c-4.621,0-8.366,3.746-8.366,8.366v13.854c0,4.62,3.745,8.366,8.366,8.366    c4.621,0,8.366-3.746,8.366-8.366V95.462C276.794,90.841,273.05,87.096,268.428,87.096z"/>
	</g>
</g>
<g>
	<g>
		<path d="M324.358,82.745c-4.621,0-8.366,3.746-8.366,8.366v12.627c0,4.62,3.745,8.366,8.366,8.366    c4.621,0,8.366-3.746,8.366-8.366V91.111C332.724,86.491,328.979,82.745,324.358,82.745z"/>
	</g>
</g>
<g>
	<g>
		<path d="M381.339,268.797c16.552-39.36-20.768-82.906-34.165-96.782c7.154-15.81,10.884-35.206,10.884-57.062    C358.058,57.734,332.529,0,275.496,0c-8.633,0-17.109,0.703-25.194,2.09c-4.554,0.782-7.612,5.107-6.831,9.66    c0.782,4.554,5.107,7.612,9.66,6.831c7.154-1.228,14.677-1.849,22.365-1.849c21.041,0,37.681,9.987,49.455,29.683    c10.559,17.663,16.375,42.004,16.375,68.538c0,4.899-0.232,11.031-1.009,17.749c-1.396,1.256-2.86,2.432-4.384,3.538v-0.711    c0-4.62-3.745-8.366-8.366-8.366s-8.366,3.746-8.366,8.366v9.08c-10.658,3.431-23.191,4.585-37.541,3.39    c-3.175-0.264-6.254-0.635-9.197-1.07v-6.193c0-4.62-3.745-8.366-8.366-8.366s-8.366,3.746-8.366,8.366v2.803    c-7.229-1.855-11.766-3.536-11.852-3.568c-4.321-1.624-9.142,0.556-10.773,4.876c-1.632,4.322,0.55,9.15,4.872,10.781    c0.757,0.286,18.818,7.025,41.861,9.01c4.164,0.358,8.222,0.537,12.178,0.537c16.484,0,31.089-3.11,43.368-9.171    c-7.494,23.038-24.044,44.921-59.889,44.921c-39.485,0-73.772-26.71-83.379-64.953c-0.701-2.792-2.789-5.026-5.526-5.918    c-2.737-0.892-5.74-0.312-7.949,1.534c-1.192,0.995-2.412,1.5-3.624,1.5c-4.16,0-8.81-6.395-8.811-14.851l0.306-25.29    l10.394,10.338c2.49,2.475,6.26,3.136,9.44,1.649c3.181-1.486,5.095-4.8,4.794-8.298c-3.073-35.665,10.635-59.933,40.745-72.132    c4.282-1.735,6.347-6.612,4.612-10.895c-1.736-4.282-6.612-6.348-10.895-4.612c-30.398,12.315-48.076,36.182-51.124,68.277    l-10.194-10.138c-2.383-2.37-5.954-3.085-9.064-1.813c-3.112,1.272-5.159,4.281-5.2,7.643l-0.544,45.169    c0,17.767,11.219,31.685,25.542,31.685c1.257,0,2.502-0.11,3.727-0.328c4.824,13.576,12.352,25.686,21.86,35.805    c-8.121,3.962-16.248,8.795-23.969,14.316c-3.759,2.687-4.627,7.913-1.939,11.671c1.633,2.284,4.203,3.5,6.812,3.5    c1.684,0,3.385-0.508,4.859-1.562c8.86-6.336,18.624-11.851,27.883-15.782c17.242,12.791,38.517,20.215,61.245,20.215    c26.818,0,48.55-10.54,62.936-30.46c4.867,5.373,11.468,13.346,17.298,22.729c6.702,10.79,10.809,20.773,12.339,29.896    c-1.974-0.305-4.08,0.089-5.948,1.414c-2.84,2.017-4.115,5.691-3.199,9.039c0.978,3.575,4.344,6.141,8.056,6.141    c0.279,0,0.553-0.018,0.825-0.046c-0.538,2.366-1.324,4.645-2.318,6.85l-9.496,5.683c-3.964,2.373-5.255,7.509-2.882,11.475    c1.567,2.619,4.341,4.07,7.186,4.07c1.462,0,2.944-0.384,4.289-1.188l4.094-2.451c2.778,5.604,6.576,13.937,9.91,23.602    c1.765,5.114,3.504,10.934,4.85,17.06c-8.75,6.671-19.613,11.804-32.37,15.286c-4.457,1.217-7.085,5.816-5.868,10.273    c1.015,3.72,4.387,6.165,8.065,6.165c0.729,0,1.471-0.096,2.208-0.298c11.397-3.111,21.572-7.425,30.425-12.869    c0.23,7.046-0.475,13.994-2.636,20.3c-3.823,11.156-11.664,18.992-23.975,23.956c-1.957,0.79-3.98,1.542-6.051,2.263    c-0.022,0.008-0.045,0.014-0.067,0.022c-27.573,9.587-64.754,13.106-96.978,8.969l-30.062-7.13    c-4.493-1.065-9.004,1.713-10.07,6.209c-1.066,4.495,1.713,9.005,6.209,10.07l24.438,5.796l1.186,22.431c0,0.001,0,0.002,0,0.002    l-33.705,0.001c0.123-0.377,0.21-0.614,0.237-0.682c1.224-3.1,0.49-6.63-1.866-8.986c-5.814-5.814-10.724-28.542-12.405-43.072    c-0.157-2.284-1.262-4.445-3.09-5.928c-0.045-0.04-0.084-0.086-0.133-0.124c-12.281-9.548-19.285-21.699-20.934-36.214    c22.663,6.962,75.405,21.232,126.951,21.232c7.229,0,14.439-0.281,21.535-0.902c4.602-0.403,8.008-4.461,7.604-9.063    c-0.403-4.604-4.465-8.005-9.064-7.604c-58.021,5.076-126.358-14.676-146.802-21.15c1.302-14.996,3.91-29.946,7.745-44.563    c7.33-7.16,14.811-13.093,22.266-17.619c3.95-2.398,5.207-7.544,2.81-11.493c-2.397-3.95-7.542-5.207-11.493-2.81    c-9.149,5.554-18.243,12.847-27.03,21.674c-16.106,16.177-32.499,38.719-43.988,55.728c2.683-37.254,16.823-68.58,42.214-93.381    c3.305-3.229,3.368-8.526,0.139-11.831c-3.229-3.305-8.526-3.369-11.831-0.139c-24.163,23.603-51.962,66.061-47.167,134.296    c0.103,1.461,0.595,2.819,1.36,3.986c2.539,5.789,8.317,9.847,15.033,9.847c9.05,0,16.413-7.363,16.413-16.413    c0-4.847-2.124-9.195-5.475-12.202c6.489-9.783,15.107-22.217,24.452-34.189c-1.227,8.136-2.12,16.313-2.628,24.49    c-1.493,23.783,7.098,44.2,24.864,59.28c1.31,9.875,5.161,33.264,13.483,45.83c-2.098,8.349-4.753,26.579,4.071,47.665v25.053    c0,4.62,3.746,8.366,8.366,8.366h56.765c4.621,0,8.366-3.746,8.366-8.366c0-14.257-8.54-26.549-20.769-32.053l9.02-28.559    c1.125-3.592,1.596-7.294,1.397-10.996l-0.998-18.872c8.852,0.753,17.885,1.01,26.9,0.79c2.185,7.209,4.637,12.852,7.412,17    c-2.096,8.36-4.735,26.567,4.073,47.624v25.067c0,4.62,3.745,8.366,8.366,8.366h56.765c4.621,0,8.366-3.746,8.366-8.366    c0-14.259-8.542-26.553-20.774-32.055l9.01-28.525c1.12-3.526,1.595-7.191,1.413-10.898l-0.75-31.911    c0.383-0.151,0.783-0.29,1.162-0.443c16.846-6.791,28.132-18.247,33.545-34.05C411.356,329.958,388.706,282.676,381.339,268.797z     M212.016,449.65h31.549l-5.953,18.847h-22.119C213.047,461.521,212.145,455.095,212.016,449.65z M256.208,495.268h-38.02v-10.039    h21.628C246.954,485.229,253.156,489.314,256.208,495.268z M307.762,412.922c13.96-1.284,27.554-3.689,40.016-7.154l0.631,26.895    c0.002,0.083,0.006,0.165,0.01,0.248c0,0.002,0,0.005,0,0.007h-33.694c0.124-0.377,0.21-0.613,0.237-0.682    c1.224-3.1,0.49-6.63-1.866-8.986C312.17,422.324,310.151,419.683,307.762,412.922z M312.553,449.65h31.538l-5.952,18.847h-22.107    C313.585,461.521,312.682,455.095,312.553,449.65z M356.74,495.268h-38.02v-10.039h21.628    C347.486,485.229,353.688,489.314,356.74,495.268z"/>
	</g>
</g>
<g>
</g>
<g>
</g>
<g>
</g>
<g>
</g>
<g>
</g>
<g>
</g>
<g>
</g>
<g>
</g>
<g>
</g>
<g>
</g>
<g>
</g>
<g>
</g>
<g>
</g>
<g>
</g>
<g>
</g>
</svg>
