<?xml version="1.0" encoding="iso-8859-1"?>
<!-- Generator: Adobe Illustrator 19.0.0, SVG Export Plug-In . SVG Version: 6.00 Build 0)  -->
<svg xmlns="http://www.w3.org/2000/svg" xmlns:xlink="http://www.w3.org/1999/xlink" version="1.1" id="Layer_1" x="0px" y="0px" viewBox="0 0 512.002 512.002" style="enable-background:new 0 0 512.002 512.002;" xml:space="preserve">
<g>
	<g>
		<path d="M202.62,140.902c-4.516,0-8.177,3.661-8.177,8.177v13.365c0,4.516,3.661,8.177,8.177,8.177s8.177-3.661,8.177-8.177    v-13.365C210.796,144.563,207.135,140.902,202.62,140.902z"/>
	</g>
</g>
<g>
	<g>
		<path d="M258.83,137.004c-4.516,0-8.177,3.661-8.177,8.177v13.365c0,4.516,3.661,8.177,8.177,8.177s8.177-3.661,8.177-8.177    V145.18C267.006,140.664,263.345,137.004,258.83,137.004z"/>
	</g>
</g>
<g>
	<g>
		<path d="M260.32,180.503c-3.479-2.879-8.634-2.393-11.513,1.085c-3.761,4.543-9.065,7.349-14.937,7.903    c-5.871,0.556-11.607-1.213-16.15-4.975c-3.479-2.879-8.632-2.395-11.513,1.085c-2.879,3.478-2.394,8.632,1.085,11.513    c6.957,5.76,15.521,8.832,24.44,8.832c1.218,0,2.444-0.058,3.672-0.173c10.221-0.963,19.455-5.848,26.002-13.755    C264.284,188.538,263.799,183.383,260.32,180.503z"/>
	</g>
</g>
<g>
	<g>
		<path d="M215.985,77.972c-4.516,0-8.177,3.661-8.177,8.177v13.365c0,4.516,3.661,8.177,8.177,8.177    c4.516,0,8.177-3.661,8.177-8.177V86.149C224.161,81.633,220.5,77.972,215.985,77.972z"/>
	</g>
</g>
<g>
	<g>
		<path d="M222.111,353.081h-21.162c-4.516,0-8.177,3.661-8.177,8.177s3.661,8.177,8.177,8.177h21.162    c4.516,0,8.177-3.661,8.177-8.177S226.626,353.081,222.111,353.081z"/>
	</g>
</g>
<g>
	<g>
		<path d="M194.591,300.493c-2.759-2.37-6.844-2.623-9.873-0.609c-3.231,2.149-4.45,6.338-3.02,9.921    c1.274,3.078,4.418,5.138,7.756,5.053c3.334-0.085,6.383-2.283,7.495-5.425C198.065,306.282,197.129,302.673,194.591,300.493z"/>
	</g>
</g>
<g>
	<g>
		<path d="M452.78,229.34c4.394-4.049,7.166-9.832,7.166-16.263v-0.604c0-12.211-9.934-22.145-22.146-22.145h-0.706    c-3.971-27.054-27.328-47.894-55.468-47.894s-51.497,20.839-55.468,47.894h-0.698c-12.211,0-22.145,9.934-22.145,22.145v0.604    c0,6.429,2.77,12.208,7.16,16.258c-5.085,10.607-7.753,22.267-7.753,34.128c0,31.045,18.453,52.902,49.732,60.98    c-0.529,0.474-1.054,0.948-1.574,1.418c-7.888,7.126-15.34,13.856-26.857,13.856c-20.732,0-35.521-21.264-39.017-26.8    c-2.019-20.295-5.27-39.193-10.434-51.943c11.891-26.369,23.769-59.911,23.769-88.706c0-6.63-0.349-13.104-1.007-19.354    c32.338-8.829,34.35-26.686,33.586-34.334c-1.355-13.56-13.694-25.015-26.944-25.015c-6.467,0-15.119,1.88-24.744,4.451    c-24.056-44.517-23.889-80.424-23.885-80.779c0.059-3.297-1.869-6.307-4.889-7.633c-17.702-7.771-37.575-10.848-59.064-9.152    c-4.502,0.355-7.863,4.293-7.507,8.795c0.357,4.503,4.301,7.868,8.795,7.507c16.86-1.333,32.478,0.655,46.502,5.912    c0.466,7.324,2.05,21.173,7.298,38.943c-1.112,0.249-2.24,0.476-3.383,0.692l-0.056-0.48c-0.484-4.214-4.099-7.343-8.35-7.24    l-40.097,1.113c-3.629,0.1-6.656,2.563-7.621,5.904c-14.282-2.396-26.325-5.783-33.387-8.003l6.997-30.354    c1.586-0.535,3.626-1.181,6.046-1.857c4.35-1.214,6.891-5.724,5.678-10.074c-1.213-4.349-5.724-6.891-10.074-5.678    c-7.217,2.015-11.598,3.837-11.781,3.913c-2.429,1.017-4.219,3.141-4.811,5.706l-17.527,76.033    c-11.455,1.201-20.999,4.477-27.242,7.17c-7.876,3.399-13.452,10.571-14.554,18.716c-1.055,7.81,1.28,17.995,15.723,26.259    c-5.662,1.234-10.885,4.722-14.774,9.999c-4.438,6.024-6.883,13.9-6.883,22.177s2.444,16.153,6.883,22.177    c4.919,6.675,11.971,10.503,19.348,10.503c1.087,0,2.166-0.081,3.231-0.241c1.408,5.982,3.355,11.778,5.826,17.383    c-2.238,6.622-7.42,22.772-12.883,45.528c-5.261,3.231-10.904,7.443-16.458,12.911c-32.096,31.604-36.45,80.373-34.449,115.72    c0.246,4.351,3.852,7.716,8.156,7.714c0.156,0,0.313-0.004,0.47-0.013c4.509-0.255,7.957-4.117,7.701-8.626    c-2.566-45.348,7.427-80.774,28.899-102.449c0.059-0.06,0.119-0.116,0.178-0.174c-6.448,32.37-12.002,72.889-12.002,116.451    c0,3.734,2.529,6.994,6.146,7.921c0.839,0.216,6.149,1.546,15.016,3.235v38.41c0,4.516,3.661,8.177,8.177,8.177h21.896v33.591    c0,4.516,3.661,8.177,8.177,8.177h17.821c4.516,0,8.177-3.661,8.177-8.177s-3.661-8.177-8.177-8.177h-9.644v-25.414h19.112    c4.516,0,8.177-3.661,8.177-8.177v-30.313c4.987,0.182,10.122,0.297,15.39,0.331v29.982c0,4.516,3.661,8.177,8.177,8.177h21.895    v33.591c0,4.516,3.661,8.177,8.177,8.177h17.821c4.516,0,8.177-3.661,8.177-8.177s-3.661-8.177-8.177-8.177h-9.644v-25.414h19.112    c4.516,0,8.177-3.661,8.177-8.177v-35.138c3.859-0.584,7.743-1.221,11.648-1.923c3.783-0.68,6.583-3.904,6.725-7.745    c0.099-2.685,1.353-38.472-0.608-76.77c9.105,8.157,21.609,15.588,36.989,15.588c17.81,0,28.904-10.021,37.819-18.074    c8.514-7.69,12.212-10.44,17.309-8.823c3.989,1.267,7.555,2.877,10.6,4.786c3.827,2.4,8.872,1.242,11.271-2.584    c1-1.594,1.374-3.398,1.203-5.135c20.892-3.507,37.325-12.553,47.31-26.335c2.649-3.657,1.833-8.769-1.825-11.419    c-3.658-2.649-8.77-1.833-11.419,1.825c-9.914,13.685-29.328,21.221-54.665,21.221c-56.455,0-62.55-33.616-62.55-48.07    c0-9.85,2.317-19.523,6.723-28.24h111.652c4.408,8.716,6.723,18.389,6.723,28.24c0,2.885-0.198,5.689-0.59,8.334    c-0.661,4.468,2.426,8.625,6.892,9.286c0.407,0.06,0.809,0.089,1.207,0.089c3.987,0,7.478-2.92,8.079-6.981    c0.508-3.435,0.765-7.044,0.765-10.727C460.53,251.602,457.862,239.943,452.78,229.34z M303.975,109.918    c4.341,0,10.118,4.748,10.672,10.289c0.649,6.496-6.814,12.517-19.903,16.435c-1.854-8.586-4.394-16.549-7.643-23.777    C293.947,111.129,299.964,109.918,303.975,109.918z M251.725,77.174c3.024,7.994,6.769,16.51,11.399,25.386    c-4.893,1.412-9.965,2.864-14.919,4.179l-3.236-28.155C247.269,78.172,249.52,77.701,251.725,77.174z M202.792,71.832l24.858-0.69    l0.171,1.473c0,0.002,0,0.004,0,0.007c0,0.002,0.001,0.004,0.001,0.007l4.34,37.77c-3.561,0.616-6.795,0.989-9.496,0.989    c-8.074,0-14.148-0.88-20.842-2.715L202.792,71.832z M149.901,69.591c8.064,2.497,21.029,6.031,36.369,8.468l-0.662,25.195    c-1.138-0.415-2.308-0.843-3.533-1.292c-5.451-1.996-11.631-4.257-19.115-6.838c-6.189-2.135-12.243-3.355-18.041-3.92    L149.901,69.591z M106.621,191.935c-4.673,0.001-9.879-6.705-9.879-16.326s5.206-16.327,9.879-16.327    c0.057,0,0.112,0.013,0.169,0.014l0.957,32.513C107.373,191.889,106.997,191.935,106.621,191.935z M113.228,130.812    c-5.593-2.649-11.355-6.597-10.7-11.448c0.337-2.493,2.187-4.75,4.828-5.891c3.767-1.626,10.487-4.096,18.875-5.388    C120.988,115.103,116.617,122.741,113.228,130.812z M117.201,281.676c7.602-3.754,13.078-4.769,13.255-4.8    c4.434-0.739,7.443-4.926,6.725-9.369c-0.722-4.457-4.917-7.484-9.378-6.766c-0.269,0.044-2.425,0.412-5.845,1.458    c1.754-6.723,3.408-12.601,4.855-17.51c6.542,8.999,14.689,17.382,24.432,25.105c1.502,1.19,3.294,1.769,5.074,1.769    c2.41,0,4.799-1.062,6.414-3.098c2.805-3.54,2.21-8.683-1.329-11.488c-21.587-17.108-34.088-37.698-37.178-61.197l-1.217-41.294    c0.7-3.536,1.609-7.053,2.723-10.465c4.403-13.488,11.996-25.831,22.044-35.923c3.228,0.536,6.525,1.342,9.852,2.489    c0.542,0.186,1.064,0.369,1.593,0.553c-6.546,19.075-19.627,67.129,2.291,96.815c12.95,17.546,27.63,27.258,43.63,28.866    c1.572,0.158,3.11,0.231,4.614,0.231c12.487,0,22.486-5.063,28.053-8.696c5.608,2.61,15.084,5.711,25.785,3.708    c1.977-0.37,3.899-0.904,5.775-1.574c-10.171,27.568-23.708,52.285-29.581,62.491c-10.84-2.573-35.99-9.557-60.052-23.576    c-3.903-2.273-8.908-0.954-11.181,2.949c-2.273,3.902-0.953,8.908,2.949,11.181c12.513,7.29,25.14,12.781,36.207,16.834    l-0.185,24.867h-31.635c-4.516,0-8.177,3.661-8.177,8.177v6.532c-10.942,0.024-32.891-0.89-60.068-7.046    C110.403,313.884,113.81,296.547,117.201,281.676z M255.347,339.904v-6.49c0-4.516-3.661-8.177-8.177-8.177h-23.294l0.145-19.498    c10.624,3.105,17.704,4.417,18.351,4.533c0.487,0.088,0.975,0.131,1.458,0.131c2.802,0,5.454-1.445,6.96-3.888    c0.65-1.055,6.2-10.139,13.291-23.864c2.135,9.588,3.694,20.914,4.828,32.853c-0.008,0.596,0.043,1.196,0.168,1.791    c0.666,7.325,1.175,14.858,1.561,22.343C263.913,339.983,258.68,339.979,255.347,339.904z M271.303,355.982    c0.125,4.116,0.22,8.154,0.288,12.073c-7.185,0.397-12.751,0.395-16.243,0.316v-12.106h0.001c1.125,0.023,2.415,0.038,3.862,0.038    C262.477,356.304,266.55,356.223,271.303,355.982z M238.995,341.589v39.337h-54.93v-39.337H238.995z M105.501,349.181    c27.495,6.098,49.704,7.131,61.588,7.131c0.213,0,0.416-0.001,0.622-0.001v12.103c-11.395,0.024-34.726-0.974-63.442-7.834    C104.648,356.732,105.058,352.931,105.501,349.181z M163.813,453.881h-41.008v-27.452c11.261,1.701,25.154,3.375,41.008,4.458    V453.881z M206.853,415.577c-50.286,0.75-90.344-6.481-105.167-9.609c0.132-9.811,0.556-19.467,1.206-28.908    c28.682,6.621,51.923,7.721,64.186,7.721c0.217,0,0.423-0.001,0.633-0.001v4.322c0,4.516,3.661,8.177,8.177,8.177h31.101    L206.853,415.577z M252.917,453.881H211.91v-21.963c13.089-0.342,26.829-1.225,41.007-2.836V453.881z M271.484,410.019    c-16.588,2.698-32.806,4.269-48.272,5.034l0.132-17.774h23.828c4.516,0,8.177-3.661,8.177-8.177v-4.369    c1.115,0.023,2.394,0.038,3.827,0.038c3.373,0,7.611-0.086,12.57-0.348C271.763,395.306,271.615,404.321,271.484,410.019z     M254.763,216.284c-7.315-0.56-12.94-4.302-12.95-4.309c-3.121-2.168-7.326-1.9-10.147,0.647    c-0.104,0.094-10.786,9.343-24.888,7.925c-11.213-1.127-22.015-8.631-32.108-22.306c-11.037-14.949-9.915-37.872-7.029-54.47    c1.917-11.027,4.86-20.818,7-27.113c0.612,0.223,1.218,0.446,1.811,0.663c18.35,6.718,28.458,10.418,46.215,10.418    c12.192,0,29.461-4.985,46.163-9.805c0.752-0.217,1.506-0.434,2.26-0.652c4.286,8.811,7.365,19.058,9.132,30.601    c1.172,7.683,1.766,15.887,1.766,24.384c0,9.876-1.634,20.532-4.268,31.315C271.218,212.67,263.497,216.947,254.763,216.284z     M381.626,158.788c19.098,0,35.086,13.55,38.867,31.54H342.76C346.54,172.337,362.529,158.788,381.626,158.788z M443.592,213.076    c0,3.193-2.598,5.791-5.792,5.791H325.46c-3.193,0-5.791-2.598-5.791-5.791v-0.604c0-3.193,2.598-5.791,5.791-5.791H437.8    c3.193,0,5.792,2.598,5.792,5.791V213.076z"/>
	</g>
</g>
<g>
</g>
<g>
</g>
<g>
</g>
<g>
</g>
<g>
</g>
<g>
</g>
<g>
</g>
<g>
</g>
<g>
</g>
<g>
</g>
<g>
</g>
<g>
</g>
<g>
</g>
<g>
</g>
<g>
</g>
</svg>
