<?xml version="1.0" encoding="iso-8859-1"?>
<!-- Generator: Adobe Illustrator 19.0.0, SVG Export Plug-In . SVG Version: 6.00 Build 0)  -->
<svg xmlns="http://www.w3.org/2000/svg" xmlns:xlink="http://www.w3.org/1999/xlink" version="1.1" id="Layer_1" x="0px" y="0px" viewBox="0 0 511.998 511.998" style="enable-background:new 0 0 511.998 511.998;" xml:space="preserve">
<g>
	<g>
		<path d="M339.157,193.925c-3.407-2.822-8.458-2.346-11.282,1.063c-3.578,4.323-8.626,6.993-14.212,7.519    c-5.583,0.528-11.045-1.155-15.369-4.734c-3.406-2.822-8.459-2.346-11.282,1.063c-2.823,3.409-2.346,8.459,1.063,11.282    c6.704,5.55,14.955,8.511,23.55,8.511c1.174,0,2.355-0.056,3.54-0.167c9.849-0.927,18.747-5.635,25.055-13.255    C343.042,201.799,342.566,196.748,339.157,193.925z"/>
	</g>
</g>
<g>
	<g>
		<path d="M289.653,146.613c-4.426,0-8.013,3.588-8.013,8.013v11.752c0,4.425,3.587,8.013,8.013,8.013    c4.426,0,8.013-3.588,8.013-8.013v-11.752C297.666,150.2,294.079,146.613,289.653,146.613z"/>
	</g>
</g>
<g>
	<g>
		<path d="M334.525,146.613c-4.426,0-8.013,3.588-8.013,8.013v11.752c0,4.425,3.588,8.013,8.013,8.013    c4.426,0,8.013-3.588,8.013-8.013v-11.752C342.538,150.2,338.952,146.613,334.525,146.613z"/>
	</g>
</g>
<g>
	<g>
		<path d="M317.826,314.144c-2.893-1.458-6.477-0.989-8.911,1.146c-2.437,2.139-3.306,5.655-2.231,8.7    c1.115,3.153,4.203,5.322,7.543,5.322c4.008,0,7.441-3.089,7.948-7.037C322.601,318.954,320.807,315.647,317.826,314.144z"/>
	</g>
</g>
<g>
	<g>
		<path d="M313.311,341.133c-3.065,1.816-4.537,5.584-3.596,9.005c0.942,3.426,4.158,5.881,7.717,5.881    c3.779,0,7.11-2.765,7.853-6.453C326.636,342.855,319.147,337.676,313.311,341.133z"/>
	</g>
</g>
<g>
	<g>
		<path d="M320.294,435.473c-2.863,2.003-4.071,5.752-2.987,9.059c1.065,3.251,4.183,5.497,7.604,5.497    c3.722,0,6.978-2.644,7.808-6.251C334.332,436.771,326.155,431.372,320.294,435.473z"/>
	</g>
</g>
<g>
	<g>
		<path d="M402.25,372.278c-8.458-48.879-37.37-67.519-48.404-72.957l-2.993-12.78l5.972-6.129c2.157-2.214,2.848-5.47,1.777-8.37    l-9.604-25.987c1.76-2.008,3.436-4.126,5.016-6.367c12.539-17.782,19.166-42.63,19.166-71.856    c0-21.346-3.455-40.093-10.254-55.773l-1.067-54.016c-0.067-3.443-2.328-6.458-5.614-7.488c-0.688-0.216-10.611-3.28-25.965-5.639    c-3.88-5.404-12.859-16.55-26.998-26.394c-17.745-12.353-47.273-24.953-87.18-14.826c-4.29,1.089-6.885,5.448-5.796,9.737    c1.089,4.29,5.447,6.886,9.737,5.796c27.113-6.879,51.867-2.809,73.576,12.095c5.332,3.661,9.831,7.567,13.49,11.187    c-5.066-0.272-10.387-0.391-15.9-0.291c-38.391,0.697-71.191,11.876-96.269,32.569l-6.687-6.178    c-3.252-3.003-8.32-2.802-11.324,0.448c-3.003,3.25-2.802,8.321,0.448,11.324l5.827,5.384c-2.084,2.207-4.108,4.485-6.052,6.853    c-2.122,2.584-2.416,6.215-0.737,9.107l17.391,29.962c-0.508,1.357-0.99,2.723-1.44,4.102l-15.426-12.943    c-2.385-2.001-5.714-2.439-8.537-1.124c-2.823,1.316-4.626,4.149-4.626,7.262v7.497l-20.176,8.482    c1.63-9.635,4.433-23.461,8.951-38.493c7.635-25.398,21.822-59.378,46.059-77.026c3.577-2.605,4.365-7.617,1.761-11.195    c-2.606-3.577-7.615-4.367-11.195-1.761c-45.817,33.364-59.633,111.787-62.735,134.441c-9.735,3.075-16.812,12.189-16.812,22.926    c0,13.255,10.783,24.039,24.039,24.039s24.039-10.783,24.039-24.039c0-5.747-2.029-11.027-5.405-15.167l11.476-4.824v17.17    c0,17.673,11.122,31.517,25.321,31.517c1.364,0,2.716-0.133,4.044-0.392c1.752,4.965,3.888,9.797,6.386,14.441    c1.447,2.69,4.209,4.219,7.064,4.219c1.281,0,2.581-0.309,3.789-0.957c3.897-2.096,5.358-6.955,3.262-10.853    c-3.269-6.077-5.794-12.536-7.527-19.203l-0.874-16.379c-0.236-4.419-4.012-7.813-8.428-7.574c-4.419,0.236-7.81,4.01-7.574,8.429    l0.65,12.162c-0.263,0.043-0.526,0.081-0.79,0.081c-4.396,0-9.295-6.362-9.295-15.492v-24.869l11.997,10.066    c2.181,1.829,5.167,2.364,7.846,1.407s4.651-3.264,5.178-6.06c0.991-5.252,2.499-10.406,4.438-15.374    c4.475-2.986,17.556-10.951,37.518-16.733c22.295-6.458,57.925-11.398,102.282,0.965c5.298,13.165,8.092,29.45,8.092,47.391    c0,26.181-6.506,87.073-66.774,87.073c-24.574,0-48.123-10.462-64.613-28.703c-2.968-3.283-8.035-3.538-11.317-0.572    c-3.283,2.968-3.539,8.035-0.572,11.317c2.686,2.971,5.536,5.763,8.52,8.377l-10.442,21.137c-1.521,3.08-0.911,6.786,1.518,9.215    c1.909,1.909,3.941,3.708,6.068,5.407l-5.489,29.858c-2.042,1.317-4.124,2.787-6.223,4.43    c-27.708,21.68-36.866,56.105-39.67,81.167c-0.491,4.399,2.674,8.362,7.073,8.855c0.303,0.034,0.603,0.05,0.901,0.05    c4.027,0,7.495-3.027,7.953-7.123c3.505-31.335,14.146-50.848,25.479-62.969L186.688,459.8c-0.702,3.821,1.437,7.594,5.076,8.954    c1.043,0.39,24.33,8.989,57.605,13.341v20.821c0,4.234,3.294,7.737,7.519,7.998l17.315,1.068c0.168,0.011,0.334,0.016,0.501,0.015    c4.2,0,7.728-3.271,7.99-7.519c0.273-4.417-3.088-8.218-7.503-8.492l-9.796-0.604v-11.64c6.847,0.516,13.596,0.788,20.223,0.788    c3.347,0,6.653-0.09,9.938-0.22l2.156,20.512c0.428,4.079,3.868,7.175,7.969,7.175h13.889c4.426,0,8.013-3.588,8.013-8.013    c0-4.425-3.587-8.013-8.013-8.013h-6.674l-1.348-12.836c27.669-3.008,52.741-10.908,74.072-23.539    c3.011-1.783,4.518-5.314,3.719-8.722L359.174,322.06c10.093,8.798,22.433,24.896,27.289,52.949    c0.674,3.897,4.06,6.647,7.886,6.647c0.454,0,0.914-0.039,1.376-0.119C400.082,380.785,403.005,376.638,402.25,372.278z     M133.668,181.869c-4.419,0-8.013-3.594-8.013-8.013s3.594-8.013,8.013-8.013c4.419,0,8.013,3.594,8.013,8.013    S138.087,181.869,133.668,181.869z M241.508,104.32c-16.625,4.901-28.882,11.133-36.118,15.403l-12.257-21.117    c23.358-25.931,56.264-39.499,97.91-40.353c24.497-0.504,45.39,3.767,54.911,6.115l0.769,38.88    C301.424,92.035,264.84,97.441,241.508,104.32z M336.167,257.568l5.649,15.282l-9.292,9.536l-9.823-17.48    C327.488,262.934,331.982,260.483,336.167,257.568z M235.465,255.06c16.305,10.252,35.334,15.87,54.916,15.87    c3.75,0,7.398-0.213,10.943-0.62l-3.458,21.995c-14.672-1.729-48.378-7.385-68.862-24.168L235.465,255.06z M228.503,320.97    c8.115-4.136,14.262-5.079,15.002-5.18c4.371-0.561,7.472-4.549,6.933-8.927c-0.541-4.391-4.534-7.51-8.933-6.972    c-0.315,0.039-3.996,0.521-9.565,2.389l2.161-11.751c30.229,16.046,68.082,18.356,70.065,18.466c0.151,0.009,0.3,0.013,0.45,0.013    c3.919,0,7.295-2.853,7.91-6.768l2.792-17.757l8.482,15.095c1.237,2.202,3.44,3.691,5.944,4.019    c2.501,0.327,5.016-0.543,6.78-2.354l1.057-1.084l15.872,67.777l-6.78,2.238c-0.451-4.299-4.233-7.486-8.578-7.151l-42.076,3.251    c-4.412,0.341-7.713,4.193-7.371,8.606l0.131,1.704c-17.957,1.051-50.505,1.379-69.65-4.624L228.503,320.97z M333.359,405.717    l-26.097,2.017l-2.017-26.097l26.097-2.016L333.359,405.717z M372.362,448.686c-38.748,20.843-82.794,21.602-113.502,18.398    c-25.007-2.609-45.351-8.181-55.152-11.232l7.873-42.826c5.608,2.01,12.329,3.6,20.137,4.728c0.388,0.056,0.773,0.083,1.154,0.083    c3.919,0,7.345-2.878,7.921-6.87c0.631-4.38-2.407-8.443-6.787-9.075c-8.106-1.169-14.627-2.815-19.478-4.896l1.689-9.189    c15.158,4.321,34.908,5.426,51.143,5.426c9.158,0,17.194-0.352,22.654-0.675l0.818,10.597c-7.002,0.442-20.325,1.066-34.541,0.58    c-4.43-0.143-8.131,3.311-8.282,7.734c-0.152,4.423,3.311,8.132,7.734,8.282c3.925,0.135,7.764,0.19,11.426,0.19    c10.685,0,19.853-0.47,25.209-0.822c0.469,1.269,1.251,2.412,2.297,3.308c1.456,1.248,3.308,1.927,5.213,1.927    c0.204,0,0.411-0.007,0.618-0.023l42.076-3.251c3.622-0.28,6.489-2.927,7.214-6.306l13.848-3.321L372.362,448.686z     M359.99,395.846l-11.115,2.666l-0.918-11.883l9.166-3.027L359.99,395.846z"/>
	</g>
</g>
<g>
</g>
<g>
</g>
<g>
</g>
<g>
</g>
<g>
</g>
<g>
</g>
<g>
</g>
<g>
</g>
<g>
</g>
<g>
</g>
<g>
</g>
<g>
</g>
<g>
</g>
<g>
</g>
<g>
</g>
</svg>
