<?xml version="1.0" encoding="iso-8859-1"?>
<!-- Generator: Adobe Illustrator 19.0.0, SVG Export Plug-In . SVG Version: 6.00 Build 0)  -->
<svg xmlns="http://www.w3.org/2000/svg" xmlns:xlink="http://www.w3.org/1999/xlink" version="1.1" id="Layer_1" x="0px" y="0px" viewBox="0 0 512 512" style="enable-background:new 0 0 512 512;" xml:space="preserve">
<g>
	<g>
		<path d="M470.68,149.084c-9.032-11.195-18.405-23.575-27.858-36.796c-12.609-17.632-26.579-34.496-41.522-50.125l-5.649-5.909    V8.256c0-2.282-0.943-4.462-2.609-6.023c-1.663-1.561-3.902-2.362-6.177-2.217c-1.121,0.072-11.247,0.935-21.553,8.906    c-1.758,1.359-3.369,2.817-4.858,4.347v-1.991c0-2.275-0.94-4.451-2.596-6.01s-3.884-2.372-6.156-2.23    c-1.138,0.068-26.198,1.918-37.566,29.14c-13.076-0.75-42.219-0.013-65.86,17.958c-18.302,13.912-29.244,34.963-32.522,62.569    c-4.294,36.233-0.535,64.204,2.21,84.626c1.828,13.603,2.997,23.439,2.128,31.094c-10.973-19.409-20.59-46.35-19.874-80.647    c0.279-13.324-8.527-24.904-21.411-28.16c-14.29-3.612-36.571-8.212-61.56-9.616c-30.034-1.685-56.609,1.616-78.997,9.816    c-7.345,2.689-12.9,8.538-15.246,16.047c-2.327,7.453-1.102,15.356,3.362,21.685c5.128,7.272,11.728,12.092,19.388,14.232    c-0.028,6.241,1.086,14.861,6.088,22.743c2.077,3.275,4.644,6.112,7.633,8.553c-13.437,15.299-22.389,38.064-25.549,65.463    c-3.29,28.539,0.125,59.907,9.14,83.909c18.955,50.498-4.03,71.589-4.947,72.402c-2.684,2.264-3.643,5.98-2.389,9.26    c1.225,3.203,4.298,5.307,7.71,5.307c0.083,0,0.164-0.001,0.248-0.003c1.878-0.055,43.182-1.641,63.371-30.981    c7.929,6.143,16.779,11.019,26.193,14.43c2.904,1.051,12.872,4.228,14.743,4.872c4.559,1.57,8.541,2.733,11.619,3.555v72.45    c0,4.56,3.695,8.256,8.256,8.256h29.343c0.029,0,0.056,0.004,0.085,0.004h26.584c4.561,0,8.256-3.697,8.256-8.256v-73.629    c7.517,0.717,14.892,1.019,21.934,1.019c19.986,0,37.292-2.371,47.66-4.197v76.807c0,4.56,3.695,8.256,8.256,8.256h63.473    c4.561,0,8.256-3.697,8.256-8.256V384.955c12.183-11.625,21.168-25.072,26.718-40.034c1.586-4.274-0.593-9.027-4.868-10.613    c-4.279-1.585-9.028,0.594-10.613,4.869c-5.049,13.606-13.531,25.792-25.214,36.219c-7.174,6.41-15.682,12.251-25.291,17.361    c-2.695,1.433-4.38,4.237-4.38,7.29v71.058h-19.827v-94.527c0-4.56-3.695-8.256-8.256-8.256c-4.561,0-8.256,3.697-8.256,8.256    v33.552c-13.088,2.448-44.664,7.112-76.679,2.527c-8.982-1.286-17.452-3.227-25.172-5.767c-4.332-1.427-8.999,0.93-10.424,5.262    c-0.255,0.778-0.385,1.566-0.408,2.345c-0.001,0.03-0.01,0.057-0.01,0.088v57.588h-12.911v-47.394    c0-3.948-2.803-7.345-6.676-8.103c-0.068-0.013-5.123-1.019-12.605-3.404c-2.786-0.888-16.394-5.315-19.381-6.46    c-9.755-3.742-18.744-9.398-26.37-16.644c-17.054-16.18-26.064-38.958-24.718-62.497c0.384-6.739,1.759-13.496,4.088-20.081    c1.521-4.299-0.731-9.017-5.03-10.537c-4.301-1.52-9.016,0.732-10.536,5.03c-2.851,8.058-4.535,16.352-5.008,24.648    c-1.487,26.011,7.52,51.255,24.859,70.32c-8.006,13.154-22.316,19.646-33.835,22.83c6.454-14.56,10.647-38.511-2.387-73.234    c-19.188-51.094-7.598-111.271,15.835-135.269c5.778,13.375,19.426,31.174,41.916,31.923c0.168,2.108,0.522,4.401,1.157,6.757    c-9.885,6.064-18.848,13.92-26.207,23.024c-2.867,3.546-2.316,8.744,1.23,11.61c1.528,1.235,3.363,1.836,5.185,1.836    c2.409,0,4.794-1.048,6.425-3.066c6.134-7.588,13.596-14.114,21.802-19.178c4.993,4.626,11.628,7.411,19.822,8.303    c5.874,9.198,18.156,20.564,36.211,19.19c7.377,8.79,27.386,26.808,67.894,27.591c0.054,0.001,0.108,0.001,0.162,0.001    c4.485,0,8.165-3.592,8.252-8.096c0.088-4.56-3.537-8.326-8.095-8.415c-42.711-0.826-56.837-23.204-57.377-24.086    c-1.787-3.068-5.339-4.649-8.809-3.931c-8.34,1.729-14.459-1.064-18.638-4.575l6.543-1.246c4.479-0.852,7.419-5.175,6.568-9.655    c-0.853-4.479-5.184-7.419-9.655-6.566l-18.609,3.542c-6.702-0.251-11.494-2.059-14.212-5.41c-2.32-2.861-3.059-6.574-3.218-9.574    l17.066-3.153c4.484-0.828,7.448-5.134,6.619-9.618c-0.829-4.484-5.145-7.454-9.618-6.619l-23.352,4.314    c-16.46,2.964-26.191-7.835-31.119-16.154l22.152-3.83c4.494-0.777,7.505-5.048,6.729-9.542c-0.777-4.492-5.048-7.512-9.542-6.728    l-31.025,5.363c-9.42-2.433-15.102-7.483-17.335-15.418c-0.812-2.886-1.037-5.709-1.029-8.014l26.748-4.168    c4.506-0.702,7.589-4.924,6.887-9.428c-0.701-4.506-4.921-7.588-9.427-6.887L54.205,156.5c-5.828-0.291-10.526-3.061-14.34-8.471    c-1.478-2.096-1.877-4.738-1.093-7.247c0.801-2.564,2.683-4.555,5.162-5.463c13.514-4.949,38.02-10.989,73.823-8.848    c0.568,8.393,2.765,21.313,10.529,29.475c4.691,4.931,10.842,7.537,17.789,7.537c3.603,0,8.069,11.073,11.328,19.159    c7.259,18.003,17.035,42.244,43.561,45.182c16.028,32.739,37.617,49.672,39.075,50.788c1.959,1.503,4.377,1.989,6.621,1.547    c0.615-0.121,3.449-0.929,4.261-1.149c2.568-0.698,5.041-1.679,7.384-2.938c0.59-0.315,2.796-1.656,2.796-1.656    c34.003-20.868,26.546-51.175,18.651-83.26c-4.244-17.253-9.056-36.808-9.056-58.406c0-55.284,45.471-62.145,47.371-62.405    c4.12-0.527,7.207-4.036,7.207-8.189c0-7.042,0.81-13.384,2.409-18.848c3.552-12.123,10.561-18.091,16.261-21.016v37.035    c0,0.225,0.017,0.445,0.034,0.664c-0.025,0.964-0.03,1.869-0.03,2.599c0,4.56,3.695,8.256,8.256,8.256s8.256-3.697,8.256-8.256    c0-0.996,0.009-1.962,0.052-3.017c0.504-17.263,5.3-29.736,14.254-37.074c1.479-1.212,2.963-2.183,4.375-2.96v40.028    c0,2.126,0.82,4.169,2.289,5.706l7.938,8.303c11.717,12.255,22.8,25.31,33.076,38.901c-1.029-0.461-2.167-0.723-3.37-0.723    c-4.561,0-8.256,3.697-8.256,8.256v14.311c0,4.56,3.695,8.256,8.256,8.256s8.256-3.697,8.256-8.256v-14.311    c0-0.354-0.03-0.701-0.073-1.044c0.711,0.976,1.433,1.947,2.135,2.929c9.638,13.479,19.206,26.117,28.44,37.562    c6.117,7.578,10.478,15.383,13.059,23.16c-1.203,0.363-2.331,0.994-3.273,1.891c-5.274,5.026-1.606,14.239,5.689,14.239    c0.123,0,0.244-0.011,0.367-0.017c0.092,8.974-2.323,17.661-7.309,25.645c-13.287,21.271-40.59,31.351-67.918,25.094    c-6.695-1.536-13.337-4.034-19.744-7.427c-54.583-28.926-77.589-62.939-80.921-85.125c-2.544-16.937,4.023-33.382,19.52-48.877    c3.224-3.224,3.224-8.452,0-11.675c-3.224-3.223-8.451-3.225-11.676,0c-19.403,19.403-27.537,40.601-24.173,63.005    c7.542,50.226,70.426,87.145,89.52,97.264c6.122,3.242,12.447,5.796,18.864,7.644c4.536,11.029,10.609,30.807,8.122,53.54    c-0.496,4.533,2.776,8.609,7.309,9.105c0.305,0.033,0.608,0.05,0.907,0.05c4.157,0,7.734-3.132,8.197-7.359    c1.844-16.852-0.193-34.912-5.737-52.007c1.968,0.133,3.929,0.207,5.88,0.207c27.105-0.001,52.136-12.73,65.854-34.69    C496.252,207.694,492.63,176.277,470.68,149.084z M354.58,404.922c3.7-2.114,7.238-4.338,10.622-6.654v72.838H354.58V404.922z     M354.58,487.617h10.622v7.871H354.58V487.617z M318.241,487.617h19.827v7.871h-19.827V487.617z M205.548,425.676    c3.279,0.811,6.639,1.538,10.076,2.169v44.328h-10.076V425.676z M205.548,488.685h10.076v6.803h-10.076V488.685z M176.124,488.684    h12.911v6.799h-12.911V488.684z M172.714,176.471c-5.848-14.501-11.894-29.495-26.643-29.495c-2.44,0-4.234-0.738-5.813-2.392    c-3.513-3.68-5.107-10.667-5.765-16.576c12.303,1.503,25.717,3.942,40.269,7.62c5.386,1.361,9.065,6.216,8.95,11.807    c-0.485,23.259,3.277,43.418,9.056,60.493C183.851,202.359,178.53,190.897,172.714,176.471z M308.975,55.49    c-5.98,1.657-15.017,4.978-24.031,11.385c-14.034,9.976-30.762,29.501-30.762,65.879c0,23.599,5.066,44.187,9.534,62.351    c8.421,34.229,11.462,51.3-11.293,65.266c0,0-1.564,0.961-1.921,1.151c-1.092,0.587-2.238,1.051-3.422,1.411    c-3.311-3.009-9.012-8.646-15.324-16.868c7.547-13.886,5.318-30.516,2.574-50.934c-2.774-20.639-6.226-46.325-2.179-80.482    c2.725-22.935,11.478-40.194,26.019-51.295c17.449-13.319,39.541-15.018,51.562-14.794    C309.402,50.811,309.132,53.108,308.975,55.49z"/>
	</g>
</g>
<g>
	<g>
		<path d="M421.789,191.923c-2.809,2.199-3.879,6.13-2.586,9.452c1.229,3.156,4.31,5.285,7.702,5.285    c3.902,0,7.313-2.827,8.091-6.638C436.504,192.634,427.677,187.315,421.789,191.923z"/>
	</g>
</g>
<g>
	<g>
		<path d="M383.847,111.75c-4.561,0-8.256,3.697-8.256,8.256v14.311c0,4.56,3.695,8.256,8.256,8.256    c4.561,0,8.256-3.697,8.256-8.256v-14.311C392.103,115.446,388.407,111.75,383.847,111.75z"/>
	</g>
</g>
<g>
</g>
<g>
</g>
<g>
</g>
<g>
</g>
<g>
</g>
<g>
</g>
<g>
</g>
<g>
</g>
<g>
</g>
<g>
</g>
<g>
</g>
<g>
</g>
<g>
</g>
<g>
</g>
<g>
</g>
</svg>
