<?xml version="1.0" encoding="iso-8859-1"?>
<!-- Generator: Adobe Illustrator 19.0.0, SVG Export Plug-In . SVG Version: 6.00 Build 0)  -->
<svg xmlns="http://www.w3.org/2000/svg" xmlns:xlink="http://www.w3.org/1999/xlink" version="1.1" id="Layer_1" x="0px" y="0px" viewBox="0 0 512.001 512.001" style="enable-background:new 0 0 512.001 512.001;" xml:space="preserve">
<g>
	<g>
		<path d="M403.666,148.529l-1.691-15.225c-0.498-4.484-4.537-7.713-9.02-7.216c-4.484,0.499-7.714,4.537-7.216,9.02l1.691,15.225    c0.464,4.178,4,7.267,8.108,7.267c0.301,0,0.606-0.016,0.912-0.05C400.934,157.05,404.164,153.012,403.666,148.529z"/>
	</g>
</g>
<g>
	<g>
		<path d="M432.668,148.529l-1.691-15.225c-0.499-4.484-4.534-7.713-9.02-7.216c-4.484,0.499-7.714,4.537-7.216,9.02l1.691,15.225    c0.465,4.178,4.001,7.267,8.108,7.267c0.301,0,0.606-0.016,0.912-0.05C429.935,157.05,433.166,153.012,432.668,148.529z"/>
	</g>
</g>
<g>
	<g>
		<path d="M377.862,255.909c-3.736-4.174-8.735-6.38-14.456-6.38c-18.846,0-53.126,22.49-56.973,25.055    c-3.754,2.502-4.768,7.574-2.265,11.327c2.503,3.754,7.576,4.768,11.327,2.265c12.94-8.626,37.389-22.311,47.911-22.311    c1.203,0,1.747,0.342,2.277,0.932c3.251,3.619,3.793,14.349,3.138,20.447c-0.498,4.485,2.734,8.523,7.217,9.022    c0.306,0.034,0.611,0.05,0.912,0.05c4.107,0,7.644-3.09,8.108-7.267C385.472,285.322,387.072,266.2,377.862,255.909z"/>
	</g>
</g>
<g>
	<g>
		<path d="M446.068,190.587c-5.655,4.815-2.103,14.377,5.304,14.377c3.854,0,7.248-2.797,8.005-6.567    C460.87,190.958,451.843,185.671,446.068,190.587z"/>
	</g>
</g>
<g>
	<g>
		<path d="M430.901,105.408c-4.555-15.006-26.838-79.185-74.682-79.185c-3.336,0-6.337,2.029-7.58,5.126s-0.477,6.637,1.933,8.944    c0.25,0.24,22.431,21.782,27.063,49.366c-7.914-1.418-15.948-2.49-24.022-3.19c-16.52-32.792-38.212-50.095-62.943-50.095    c-3.333,0-6.326,2.028-7.571,5.119s-0.485,6.632,1.915,8.943c0.182,0.175,16.355,15.945,23.993,37.623    c-7.363,2.05-13.78,5.317-19.237,9.747c-7.16-20.448-18.127-40.538-32.718-59.894c-2.187-2.901-6.027-4.005-9.422-2.714    c-3.396,1.289-5.533,4.672-5.242,8.294c0.036,0.449,3.097,42.42-19.299,60.649C195.246,81.797,160.371,68.023,119.3,63.195    c-3.602-0.426-7.056,1.588-8.472,4.935c-1.415,3.346-0.447,7.226,2.371,9.52c0.394,0.321,39.381,32.523,28.786,64.305    c-1.358,4.073,0.67,8.502,4.64,10.136c0.305,0.125,30.502,12.972,30.502,48.928c0,3.888,2.741,7.238,6.553,8.007    c0.399,0.081,37.082,7.797,62.232,37.874c-15.299,4.099-26.105-3.413-44.844-17.828c-16.962-13.046-38.072-29.283-71.408-38.294    c-31.801-8.593-64.226,3.249-93.775,34.246c-21.841,22.908-34.504,48.198-35.032,49.264c-1.581,3.187-0.917,7.031,1.64,9.504    c1.562,1.508,3.608,2.295,5.679,2.295c1.322,0,2.654-0.32,3.874-0.978c49.546-26.713,78.838-15.357,96.562-4.493    c3.848,2.36,8.876,1.151,11.233-2.694c2.358-3.846,1.151-8.875-2.694-11.233c-26.665-16.347-55.743-18.702-88.334-7.024    c5.039-7.262,11.401-15.503,18.896-23.366c25.524-26.772,51.661-36.78,77.689-29.748c30.208,8.165,49.07,22.673,65.71,35.472    c19.154,14.732,35.925,27.615,60.481,20.252c-4.439,5.624-10.712,11.028-19.599,15.193c-4.084,1.915-5.844,6.778-3.93,10.863    c1.389,2.964,4.331,4.704,7.402,4.704c1.161,0,2.34-0.249,3.461-0.774c29.971-14.046,38.065-41.878,40.219-56.697    c0.81-5.574,2.6-30.18,2.723-41.691c0.026-2.366,0.045-4.755,0.062-7.16c0.188-25.554,0.384-51.978,11.085-68.341    c4.612-7.069,11.079-11.796,19.624-14.341c0.611,6.227,0.24,12.299-1.158,18.123c-1.052,4.387,1.65,8.797,6.037,9.849    c0.64,0.154,1.282,0.228,1.912,0.228c3.69,0,7.037-2.519,7.936-6.265c2.578-10.742,2.55-22.014-0.081-33.495    c-2.733-11.993-7.931-22.71-13.299-31.365c8.783,6.58,18.117,17.868,26.954,36.628c6.382,13.549,9.472,24.942,9.502,25.055    c1.165,4.355,5.637,6.944,9.996,5.781c4.359-1.162,6.95-5.638,5.786-9.998c-0.095-0.356-1.701-6.315-4.991-14.872    c7.993,0.985,15.91,2.344,23.659,4.075c12.433,2.764,24.424,6.468,35.652,11.014c39.036,15.756,65.612,39.96,73.02,65.473    c-2.771-1.198-6.098-0.793-8.459,1.153c-5.791,4.774-2.321,14.48,5.175,14.48c2.016,0,3.907-0.77,5.364-2.042    c0.004,0.271,0.024,0.543,0.024,0.815c0,10.586-3.666,18.666-10.895,24.018c-14.51,10.741-42.205,10.987-75.987,0.68    c-0.018-0.005-0.035-0.013-0.053-0.02c-23.654-7.208-49.357-19.442-74.332-35.379c-3.801-2.427-8.852-1.312-11.28,2.492    c-2.428,3.803-1.311,8.853,2.492,11.28c24.727,15.78,50.242,28.127,74.088,35.885c7.661,27.2,11.435,53.09,10.913,75.107    c-0.107,4.51,3.462,8.253,7.972,8.36c0.066,0.001,0.132,0.002,0.197,0.002c4.422,0,8.057-3.531,8.163-7.974    c0.205-8.637-0.178-17.656-1.121-27.013c4.302-1.368,6.82-1.627,8.086-1.627c1.203,0,1.747,0.342,2.277,0.932    c3.251,3.62,3.793,14.35,3.138,20.449c-0.499,4.484,2.733,8.522,7.216,9.02c0.306,0.034,0.611,0.05,0.912,0.05    c4.107,0,7.644-3.09,8.108-7.267c0.414-3.729,2.015-22.851-7.197-33.143c-3.736-4.175-8.735-6.38-14.456-6.38    c-2.998,0-6.406,0.535-10.259,1.581c-1.429-8.728-3.309-17.713-5.648-26.942c32.965,7.756,59.801,5.389,76.488-6.964    c11.457-8.48,17.514-21.326,17.514-37.148C512,162.312,481.043,126.868,430.901,105.408z M159.79,136.865    c2.551-20.96-8.064-40.118-18.478-53.386c29.761,6.715,55.24,19.135,75.97,37.066c24.848,21.502,38.122,47.006,44.927,64.855    c-23.523-23.127-48.746-35.044-67.416-41.132C180.301,139.541,167.927,137.63,159.79,136.865z M262.596,229.164    c-0.064,0.21-0.119,0.423-0.166,0.639c-0.778,2.965-1.755,5.606-2.982,7.844c-22.542-27.763-53.141-39.195-66.235-43.02    c-1.327-16.711-7.763-29.156-15.123-38.123c3.841,0.926,7.959,2.076,12.279,3.505c29.665,9.816,54.712,27.619,74.522,52.891    C264.472,218.897,263.776,224.423,262.596,229.164z M266.469,155.932c-7.287-13.163-17.326-27.478-31.025-40.855    c14.206-12.788,19.935-31.815,22.151-47.237c8.832,14.708,15.45,29.717,19.768,44.85    C270.396,125.024,267.617,140.052,266.469,155.932z M394.551,93.271c-1.401-16.469-8.078-31.168-15.047-42.385    c7.48,5.631,14.521,14.105,21.072,25.383c4.435,7.635,7.879,15.338,10.378,21.681C405.594,96.217,400.119,94.653,394.551,93.271z"/>
	</g>
</g>
<g>
	<g>
		<path d="M417.246,333.546c-4.408-0.969-8.762,1.824-9.728,6.231c-6.661,30.4-24.162,51.722-52.017,63.373    c-6.09,2.549-12.074,4.711-17.872,6.476l-2.76-6.774c3.271-10.988,11.958-48.095-11.367-71.42    c-11.867-11.871-33.66-21.8-70.089-1.694c-20.128,11.11-35.545,26.423-36.191,27.069c-3.19,3.19-3.19,8.362,0,11.551    c3.189,3.19,8.361,3.19,11.551,0c0.142-0.142,14.408-14.313,32.534-24.319c22.107-12.2,39.145-12.558,50.642-1.059    c19.68,19.681,6.678,57.075,6.55,57.436c-0.683,1.898-0.64,3.982,0.121,5.85l15.763,38.69c-1.666,0.484-3.398,0.744-5.165,0.744    c-6.653,0-12.661-3.395-16.071-9.081l-10.286-17.155c-0.069-0.113-0.138-0.225-0.211-0.334l-15.127-25.223    c-2.32-3.869-7.337-5.125-11.207-2.805c-3.869,2.32-5.124,7.337-2.804,11.207l6.685,11.146    c-13.43-2.896-26.224-8.764-38.758-17.778c-11.042-7.921-22-18.271-34.484-32.57c-8.375-9.594-16.55-19.952-24.457-29.97    c-14.384-18.224-29.258-37.07-45.675-51.664c-3.372-2.997-8.535-2.693-11.531,0.678c-2.997,3.372-2.693,8.534,0.678,11.531    c15.34,13.637,29.118,31.093,43.705,49.575c6.975,8.838,14.173,17.913,21.602,26.638l-22.973,52.821l-17.565,2.196l-9.019-12.885    c-2.588-3.696-7.68-4.594-11.376-2.008c-3.696,2.587-4.595,7.68-2.008,11.376l11.842,16.917c1.54,2.2,4.047,3.484,6.69,3.484    c0.337,0,0.675-0.021,1.015-0.063l23.099-2.887l6.626,6.626l-4.543,4.542l-15.036-1.202c-4.5-0.356-8.434,2.995-8.793,7.491    c-0.359,4.497,2.994,8.434,7.491,8.793l18.797,1.503c0.218,0.017,0.435,0.026,0.652,0.026c2.156,0,4.238-0.855,5.776-2.393    l12.792-12.79l42.662-38.754c17.053,11.114,34.7,17.327,53.655,18.859l8.077,13.47c6.388,10.656,17.634,17.017,30.082,17.017    c4.43,0,8.755-0.827,12.802-2.428l14.525,22.439c1.564,2.416,4.187,3.73,6.865,3.73c1.52,0,3.059-0.425,4.432-1.312    c3.787-2.451,4.869-7.508,2.418-11.296l-12.784-19.749l15.273-4.823l5.341,10.682c1.431,2.862,4.316,4.518,7.312,4.517    c1.227,0,2.473-0.278,3.646-0.864c4.035-2.017,5.671-6.923,3.653-10.959l-8.459-16.918c-1.795-3.592-5.935-5.346-9.765-4.136    l-24.961,7.883l-5.7-13.993c5.875-1.841,11.894-4.041,17.991-6.591c33.053-13.826,53.802-39.041,61.67-74.946    C424.443,338.867,421.653,334.512,417.246,333.546z M189.433,434.198l-5.787-5.788l19.602-45.07    c7.148,7.583,13.949,13.99,20.705,19.502L189.433,434.198z"/>
	</g>
</g>
<g>
</g>
<g>
</g>
<g>
</g>
<g>
</g>
<g>
</g>
<g>
</g>
<g>
</g>
<g>
</g>
<g>
</g>
<g>
</g>
<g>
</g>
<g>
</g>
<g>
</g>
<g>
</g>
<g>
</g>
</svg>
