<?xml version="1.0" encoding="iso-8859-1"?>
<!-- Generator: Adobe Illustrator 19.0.0, SVG Export Plug-In . SVG Version: 6.00 Build 0)  -->
<svg xmlns="http://www.w3.org/2000/svg" xmlns:xlink="http://www.w3.org/1999/xlink" version="1.1" id="Layer_1" x="0px" y="0px" viewBox="0 0 511.999 511.999" style="enable-background:new 0 0 511.999 511.999;" xml:space="preserve">
<g>
	<g>
		<path d="M393.256,187.637c0.632-6.071,0.964-12.379,0.964-18.835c0-10.588-0.859-20.682-2.532-30.115    c5.158-3.49,12.978-9.77,19.361-19.135c9.591-14.073,17.754-37.862,2.166-71.281c-5.147-11.029-14.78-21.204-27.856-29.426    c-3.868-2.431-8.973-1.267-11.403,2.599c-2.43,3.866-1.267,8.972,2.599,11.402c10.378,6.524,17.872,14.277,21.67,22.417    c9.763,20.928,9.594,39.252-0.501,54.462c-3.219,4.849-6.996,8.667-10.328,11.484c-2.585-8.016-5.902-15.303-9.895-21.836    c3.883-2.467,6.357-4.093,6.525-4.203c3.814-2.512,4.87-7.64,2.359-11.455c-2.511-3.814-7.639-4.87-11.455-2.359    c-0.066,0.044-6.735,4.43-15.541,9.819c-15.505,9.533-27.898,16.248-34.894,18.908c-22.245,8.453-39.464,9.366-54.658,10.172    c-20.649,1.095-38.665,2.054-59.074,20.337c-2.118-0.666-4.312-1.012-6.528-1.012c-10.811,0-19.888,7.779-23.908,19.184    c-11.453-8.373-20.559-21.62-15.694-45.945c2.408-12.044,11.464-19.216,27.689-21.927c7.448-1.245,14.764-1.188,19.871-0.881    l-0.031,17.975c-0.008,4.567,3.688,8.276,8.255,8.284c0.004,0,0.01,0,0.014,0c4.56,0,8.262-3.693,8.27-8.255l0.044-25.449    c0.017-1.825,0.965-44.877,50.44-60.399c24.096-7.559,50.504-7.51,74.363,0.139c4.347,1.393,9.005-1.001,10.399-5.351    c1.395-4.35-1-9.005-5.351-10.4c-27.08-8.681-57.04-8.741-84.363-0.17c-31.903,10.009-47.086,30.048-54.204,45.097    c-4,8.456-5.955,16.312-6.912,22.009c-5.966-0.355-14.357-0.398-23.105,1.019c-23.386,3.789-37.772,15.914-41.6,35.066    c-3.822,19.108-1.032,35.486,8.292,48.678c6.418,9.082,14.816,14.987,21.7,18.922c1.902,15.749,12.565,27.458,25.829,27.458    c1.406,0,2.797-0.136,4.164-0.401c2.021,5.751,4.53,11.281,7.482,16.555c-9.657-7.347-20.677-14.916-32.341-21.426    c-35.492-19.81-64.489-22.884-86.185-9.145c-15.305,9.689-18.213,21.593-17.959,29.875c0.46,14.944,11.988,31.045,31.471,44.631    c-2.192,1.612-4.236,3.392-6.102,5.362c-13.936,14.63-10.419,28.17-7.082,34.939c10.441,21.179,46.544,35.408,86.373,35.406    c1.734,0,3.478-0.036,5.224-0.09c-4.912,16.18-7.593,27.507-7.728,28.084c-0.536,2.278-0.082,4.676,1.251,6.6    c10.69,15.442,26.021,28.156,45.237,37.705c-5.311,9.504-16.405,25.86-32.395,31.703c-10.118,3.697-20.604,2.652-32.056-3.198    c-3.933-2.007-8.749-0.571-10.941,3.262l-13.232,23.155c-2.266,3.966-0.889,9.017,3.077,11.283    c1.294,0.74,2.704,1.092,4.095,1.092c2.871,0,5.662-1.497,7.188-4.168l9.523-16.665c13.071,4.986,25.858,5.242,38.105,0.744    c21.859-8.027,35.783-29.268,41.897-40.6c6.061,2.273,12.424,4.276,19.077,5.997c-1.152,4.934-3.301,11.938-7.222,19.19    c-9.478,17.532-24.447,27.641-44.489,30.046c-4.157,0.499-7.284,4.025-7.284,8.211v20.95c0,4.567,3.702,8.27,8.27,8.27    s8.27-3.703,8.27-8.27v-13.925c21.836-4.552,38.951-17.375,49.783-37.412c4.773-8.83,7.4-17.395,8.819-23.527    c18.703,3.373,34.03,3.792,40.459,3.792c1.906,0,3.031-0.037,3.232-0.044c2.431-0.087,4.701-1.239,6.205-3.151    c1.504-1.912,2.091-4.388,1.602-6.772c-4.047-19.756-5.955-40.087-5.675-60.431c0.064-4.567-3.588-8.319-8.155-8.383    c-0.04,0-0.077,0-0.116,0c-4.514,0-8.204,3.629-8.266,8.156c-0.25,18.093,1.138,36.181,4.13,53.911    c-23.383-0.992-83.186-7.516-113.386-47.363c1.538-6.05,5.004-19.075,10.075-34.614c0.014-0.042,0.036-0.078,0.051-0.12    c5.385-16.47,11.087-31.239,16.95-43.907c6.485-14.06,13.119-25.424,19.733-33.791c0.323-0.411,0.649-0.807,0.975-1.206    c1.859,1.347,3.753,2.636,5.688,3.857c-4.93,5.606-11.273,14.048-16.562,25.11c-9.304,19.463-17.052,51.09-1.137,91.235    c1.261,3.181,4.33,5.222,7.683,5.222c0.343,0,0.688-0.022,1.035-0.065c3.742-0.47,6.692-3.414,7.172-7.154    c2.027-15.82,11.653-59.291,31.603-70.326c3.996-2.211,5.444-7.243,3.233-11.239c-2.21-3.996-7.241-5.445-11.239-3.234    c-4.113,2.275-7.978,5.384-11.59,9.302l-10.08-10.08c5.283-9.94,11.367-17.021,15.064-20.829    c13.05,5.535,27.179,8.467,41.561,8.467c4.605,0,9.065-0.315,13.377-0.905c-0.821,2.484-1.689,5.241-2.58,8.285    c-5.11,17.457-8.614,35.894-10.412,54.801c-0.433,4.546,2.902,8.583,7.448,9.016c0.267,0.025,0.53,0.037,0.794,0.037    c4.213,0,7.815-3.206,8.222-7.487c0.926-9.729,2.345-19.312,4.208-28.687c22.778,37.89,62.228,46.873,64.182,47.295    c0.581,0.126,1.168,0.186,1.748,0.186c2.389,0,4.697-1.036,6.286-2.897c1.976-2.312,2.524-5.522,1.426-8.359l-1.323-3.409    c-12.438-31.986-17.587-45.227,14.957-68.471c12.721-9.087,15.461-19.996,15.521-27.548    C432.817,221.809,404.249,196.455,393.256,187.637z M212.819,278.338c-8.034,0.088-16.225-0.44-24.429-1.597    c-4.524-0.633-8.706,2.512-9.344,7.035s2.512,8.706,7.035,9.344c6.476,0.913,12.95,1.466,19.368,1.675    c-3.687,8.848-7.285,18.446-10.756,28.71c-3.541,0.25-7.045,0.382-10.494,0.382c-35.327-0.001-64.977-12.578-71.679-26.173    c-1.643-3.333-2.994-8.642,4.24-16.236c2.851-3.011,6.239-5.326,10.267-7.041c10.25,5.336,21.369,9.756,33.122,13.142    c0.764,0.221,1.536,0.325,2.293,0.325c3.591,0,6.898-2.359,7.942-5.983c1.264-4.388-1.268-8.971-5.658-10.236    c-11.882-3.423-23.026-7.98-33.126-13.548c-21.31-11.723-35.311-26.855-35.671-38.551c-0.181-5.866,3.18-10.901,10.274-15.392    c36.362-23.027,99.557,28.268,121.585,47.933C222.715,259.461,217.702,268.237,212.819,278.338z M252.474,311.292    c-3.969,6.992-7.519,15.269-10.616,24.847c-0.797-11,0.364-21.683,3.462-32.001L252.474,311.292z M308.765,258.666    c-21.267,0.001-41.89-7.56-58.077-21.293c-14.447-12.242-24.503-28.355-29.081-46.602c-0.694-2.762-2.759-4.973-5.468-5.853    c-2.707-0.881-5.679-0.303-7.863,1.525c-1.31,1.097-2.669,1.654-4.04,1.654c-4.537,0-9.593-6.566-9.593-15.999    c0-9.415,5.056-15.977,9.593-15.977c1.142,0,2.28,0.389,3.382,1.154c3.331,2.318,7.768,1.838,10.546-0.926    c0.007-0.006,0.018-0.009,0.024-0.016c17.715-17.715,31.563-18.449,52.526-19.561c15.591-0.827,34.995-1.856,59.657-11.227    c8.881-3.376,22.15-10.888,33.069-17.471c4.867,7.983,8.555,17.467,10.95,28.328c1.752,7.941,2.799,16.543,3.148,25.629    c-10.269-4.418-22.649-2.448-31.023,5.926c-3.23,3.23-3.23,8.466,0,11.695c3.231,3.23,8.466,3.23,11.696,0    c4.514-4.514,11.858-4.514,16.372,0c0.775,0.775,1.667,1.358,2.618,1.762c-0.224,2.998-0.509,5.95-0.894,8.813    c-5.722,42.996-26.916,58.924-43.701,64.718C325.486,257.414,317.465,258.666,308.765,258.666z M407.485,261.155    c-36.753,26.252-34.926,48.506-25.86,74.373c-14.684-7.1-35.62-21.876-45.459-50.739c2.193-7.213,4.181-12.515,5.397-15.553    c24.307-9.798,41.176-31.616,48.509-62.482c11.527,10.602,26.113,27.055,26.01,40.182    C416.053,250.425,415.132,255.693,407.485,261.155z"/>
	</g>
</g>
<g>
	<g>
		<path d="M305.487,167.956c-10.962-10.962-28.8-10.964-39.764,0c-3.23,3.23-3.23,8.466,0,11.695c3.231,3.23,8.466,3.23,11.696,0    c4.515-4.514,11.86-4.513,16.373,0c1.615,1.614,3.732,2.422,5.848,2.422s4.233-0.807,5.848-2.422    C308.717,176.422,308.717,171.186,305.487,167.956z"/>
	</g>
</g>
<g>
	<g>
		<path d="M345.482,209.497c-3.231-3.23-8.466-3.23-11.696,0c-4.514,4.514-11.858,4.514-16.372,0c-3.231-3.23-8.466-3.23-11.696,0    s-3.23,8.466,0,11.695c5.482,5.481,12.681,8.222,19.882,8.222c7.2,0,14.4-2.74,19.882-8.222    C348.712,217.962,348.712,212.725,345.482,209.497z"/>
	</g>
</g>
<g>
	<g>
		<path d="M358.7,61.456c-2.944-0.191-5.825-0.275-8.656-0.286c-4.649-11.968-16.319-20.308-29.645-20.308    c-17.541,0-31.811,14.27-31.811,31.811c0,0.73,0.034,1.457,0.084,2.18c-11.097,5.264-17.55,10.143-18.157,10.612    c-3.617,2.791-4.287,7.984-1.497,11.601c1.63,2.113,4.078,3.219,6.553,3.219c1.764,0,3.542-0.562,5.046-1.722    c0.304-0.236,31.141-23.578,77.014-20.601c4.547,0.298,8.492-3.159,8.788-7.718C366.712,65.686,363.257,61.751,358.7,61.456z     M305.845,68.055c1.963-6.169,7.743-10.653,14.554-10.653c4.377,0,8.376,1.878,11.182,4.897    C322.036,63.518,313.414,65.612,305.845,68.055z"/>
	</g>
</g>
<g>
</g>
<g>
</g>
<g>
</g>
<g>
</g>
<g>
</g>
<g>
</g>
<g>
</g>
<g>
</g>
<g>
</g>
<g>
</g>
<g>
</g>
<g>
</g>
<g>
</g>
<g>
</g>
<g>
</g>
</svg>
