<?xml version="1.0" encoding="iso-8859-1"?>
<!-- Generator: Adobe Illustrator 19.0.0, SVG Export Plug-In . SVG Version: 6.00 Build 0)  -->
<svg xmlns="http://www.w3.org/2000/svg" xmlns:xlink="http://www.w3.org/1999/xlink" version="1.1" id="Layer_1" x="0px" y="0px" viewBox="0 0 512.001 512.001" style="enable-background:new 0 0 512.001 512.001;" xml:space="preserve">
<g>
	<g>
		<path d="M306.705,193.619c-3.222-3.222-8.446-3.222-11.667,0c-4.502,4.502-11.83,4.504-16.335,0    c-3.222-3.223-8.444-3.222-11.667,0c-3.222,3.222-3.221,8.446,0,11.668c5.469,5.468,12.651,8.202,19.834,8.202    c7.183,0,14.366-2.733,19.834-8.203C309.927,202.064,309.927,196.84,306.705,193.619z"/>
	</g>
</g>
<g>
	<g>
		<path d="M424.185,164.46l-34.136-4.096l0.846-0.961c3.011-3.42,2.678-8.634-0.742-11.643c-3.42-3.01-8.633-2.678-11.643,0.742    l-8.341,9.478l-15.113-1.814c0.168-3.231,0.266-6.512,0.266-9.858c0-20.278-3.111-38.496-9.084-53.832l0.422-15.819    c1.032-38.697-28.385-71.995-66.971-75.805c-24.769-2.446-50.04,0.406-73.087,8.244c-4.313,1.467-6.622,6.153-5.155,10.468    c1.467,4.314,6.153,6.623,10.468,5.155c26.325-8.955,50.502-8.991,66.152-7.446c26.018,2.57,46.666,22.368,51.185,47.192    c-14.63-15.938-34.886-24.304-59.181-24.304c-47.794,0-89.326,31.904-102.122,77.108c-0.714-0.073-1.432-0.109-2.152-0.109    c-14.621,0-26.075,14.254-26.075,32.45c0,1.937,0.137,3.826,0.387,5.662c-11.018,4.194-22.938,17.648-36.594,41.078    c-1.737,2.979-3.412,5.97-5.01,8.912c1.915-24.194,5.739-45.728,11.542-65.172c11.371-38.099,30.785-68.671,57.704-90.868    c5.188-4.277,10.74-8.207,16.502-11.682c3.902-2.353,5.158-7.423,2.806-11.324c-2.352-3.902-7.422-5.158-11.324-2.806    c-6.454,3.891-12.671,8.292-18.481,13.081c-29.492,24.319-50.694,57.587-63.02,98.88c-9.207,30.848-13.682,66.432-13.682,108.784    c0,3.926,2.768,7.309,6.616,8.087c0.548,0.111,1.096,0.164,1.638,0.164c3.264,0,6.292-1.945,7.599-5.048    c0.091-0.219,9.329-22.052,21.364-42.699c15.237-26.141,24.231-32.396,28.158-33.828c4.746,6.91,11.826,11.23,19.87,11.23    c1.401,0,2.79-0.135,4.151-0.401c8.522,24.248,25.35,44.016,46.753,56.446h-15.699c-2.977,0-5.576,1.582-7.027,3.943    c-0.014,0.022-0.033,0.038-0.047,0.062c-1.261,2.101-30.876,52.473-30.876,140.644c0,4.556,3.694,8.25,8.25,8.25    s8.25-3.694,8.25-8.25c0-39.753,6.439-71.557,13.2-94.002v100.602c0,4.556,3.694,8.25,8.25,8.25h20.45l8.324,52.718    l-30.296,49.099c-1.571,2.545-1.64,5.741-0.184,8.352c1.456,2.611,4.214,4.229,7.204,4.229h29.7c4.556,0,8.25-3.694,8.25-8.25    c0-4.556-3.694-8.25-8.25-8.25h-14.916l24.136-39.118c1.035-1.677,1.435-3.672,1.128-5.619l-8.394-53.163h49.128l8.324,52.718    l-30.296,49.099c-1.571,2.545-1.64,5.741-0.184,8.352c1.456,2.611,4.214,4.229,7.204,4.229h29.7c4.556,0,8.25-3.694,8.25-8.25    c0-4.556-3.694-8.25-8.25-8.25h-14.916l24.136-39.118c1.035-1.677,1.435-3.672,1.127-5.619l-8.394-53.163h19.112    c4.556,0,8.25-3.694,8.25-8.25v-84.654c0-4.556-3.694-8.25-8.25-8.25s-8.25,3.694-8.25,8.25v13.704h-73.699v-63.799h73.699v25.896    c0,4.556,3.694,8.25,8.25,8.25s8.25-3.694,8.25-8.25v-34.146c0-4.556-3.694-8.25-8.25-8.25h-5.046    c6.665-4.788,12.543-10.738,17.533-17.815c8.957-12.704,14.977-28.915,17.828-47.699l68.801,8.257    c0.333,0.04,0.666,0.059,0.993,0.059c4.117,0,7.678-3.078,8.182-7.268C431.937,169.111,428.709,165.004,424.185,164.46z     M241.154,334.901h73.699v46.2h-28.05v-12.65c0-4.556-3.694-8.25-8.25-8.25c-4.556,0-8.25,3.694-8.25,8.25v12.65h-29.15V334.901z     M224.654,381.101h-15.4v-46.2h15.4V381.101z M224.654,318.401h-15.4v-63.799h15.4V318.401z M338.631,154.193l-51.945-6.234    c-4.522-0.539-8.632,2.685-9.174,7.208c-0.542,4.524,2.684,8.632,7.208,9.174l52.255,6.271    c-4.589,29.201-19.789,65.344-66.903,65.344c-41.176,0-76.93-27.853-86.948-67.734c-0.691-2.753-2.75-4.958-5.449-5.835    c-0.836-0.272-1.696-0.405-2.551-0.405c-1.906,0-3.784,0.661-5.289,1.917c-1.317,1.1-2.675,1.657-4.036,1.657    c-4.529,0-9.575-6.55-9.575-15.95c0-9.399,5.047-15.95,9.575-15.95c1.13,0,2.269,0.393,3.388,1.167    c2.297,1.591,5.244,1.91,7.828,0.849c2.585-1.06,4.457-3.357,4.974-6.103c5.4-28.604,24.133-51.882,49.029-63.945    c0.804,4.403,1.976,9.849,3.65,15.811c1.022,3.641,4.334,6.022,7.939,6.022c0.738,0,1.489-0.1,2.234-0.309    c4.387-1.232,6.944-5.786,5.712-10.173c-1.915-6.819-3.1-12.916-3.803-17.24c2.656-0.716,5.361-1.303,8.103-1.774    c0.513,4.81,1.533,12.016,3.507,19.294c6.588,24.296,18.506,29.395,27.344,29.395c10.128,0,18.508-4.594,24.236-13.284    c2.507-3.804,1.456-8.921-2.348-11.429c-3.803-2.507-8.92-1.456-11.429,2.347c-2.637,4.001-5.961,5.865-10.46,5.865    c-7.46,0-12.825-18.283-14.433-33.476c60.93,0.808,67.552,62.851,67.552,89.631C338.821,148.679,338.767,151.333,338.631,154.193z    "/>
	</g>
</g>
<g>
	<g>
		<path d="M257.104,108.303c-4.556,0-8.25,3.694-8.25,8.25v13.2c0,4.556,3.694,8.25,8.25,8.25c4.556,0,8.25-3.694,8.25-8.25v-13.2    C265.354,111.996,261.66,108.303,257.104,108.303z"/>
	</g>
</g>
<g>
	<g>
		<path d="M312.103,108.303c-4.556,0-8.25,3.694-8.25,8.25v13.2c0,4.556,3.694,8.25,8.25,8.25c4.556,0,8.25-3.694,8.25-8.25v-13.2    C320.353,111.996,316.66,108.303,312.103,108.303z"/>
	</g>
</g>
<g>
</g>
<g>
</g>
<g>
</g>
<g>
</g>
<g>
</g>
<g>
</g>
<g>
</g>
<g>
</g>
<g>
</g>
<g>
</g>
<g>
</g>
<g>
</g>
<g>
</g>
<g>
</g>
<g>
</g>
</svg>
