<?xml version="1.0" encoding="iso-8859-1"?>
<!-- Generator: Adobe Illustrator 19.0.0, SVG Export Plug-In . SVG Version: 6.00 Build 0)  -->
<svg version="1.1" id="Capa_1" xmlns="http://www.w3.org/2000/svg" xmlns:xlink="http://www.w3.org/1999/xlink" x="0px" y="0px"
	 viewBox="0 0 512 512" style="enable-background:new 0 0 512 512;" xml:space="preserve">
<path style="fill:#FF9400;" d="M33.734,65.735v114.498c0,112.27,54.393,217.583,145.944,282.568l44.129,31.324
	c19.256,13.668,45.048,13.668,64.303,0l44.128-31.323c91.551-64.985,145.945-170.298,145.945-282.569V65.735
	c0-12.267-8.859-22.74-20.956-24.774L262.158,8.159c-4.104-0.69-8.294-0.69-12.398,0L54.691,40.96
	C42.594,42.995,33.734,53.468,33.734,65.735z"/>
<path style="fill:#FF7A00;" d="M63.546,91.261v99.138c0,97.209,47.096,188.394,126.365,244.661l38.209,27.121
	c16.672,11.834,39.005,11.834,55.677,0l38.208-27.121c79.269-56.267,126.366-147.452,126.366-244.661V91.261
	c0-10.621-7.671-19.69-18.145-21.451l-168.9-28.401c-3.553-0.598-7.182-0.598-10.735,0L81.691,69.81
	C71.217,71.571,63.546,80.639,63.546,91.261z"/>
<path style="fill:#FFE92F;" d="M363.96,256.008c0-33.753,27.363-61.116,61.116-61.116c3.369,0,6.671,0.284,9.892,0.809
	c0.046-2.061,0.076-4.124,0.076-6.191V97.239c0-9.886-7.139-18.326-16.888-19.965L316.971,60.259
	c-3.375,30.561-29.272,54.335-60.733,54.335c-31.492,0-57.411-23.822-60.744-54.427L93.761,77.273
	c-9.749,1.639-16.888,10.08-16.888,19.965v92.272c0,2.067,0.031,4.13,0.077,6.191c3.221-0.524,6.523-0.809,9.892-0.809
	c33.753,0,61.116,27.362,61.116,61.116c0,27.002-17.519,49.898-41.804,57.983c20.215,40.593,50.294,76.233,88.333,103.234
	l35.562,25.243c15.518,11.015,36.303,11.015,51.821,0l35.562-25.242c38.039-27.001,68.118-62.641,88.334-103.235
	C381.479,305.906,363.96,283.011,363.96,256.008z"/>
<path style="fill:#FFF80B;" d="M418.156,77.273l-46.272-7.781L113.552,327.824c6.934,12.161,14.789,23.805,23.505,34.833
	l284.5-284.5C420.465,77.772,419.331,77.471,418.156,77.273z"/>
<path style="fill:#FFFF00;" d="M435.044,97.239c0-2.307-0.403-4.529-1.123-6.611L148.413,376.137
	c3.841,4.275,7.82,8.44,11.936,12.486l274.696-274.696V97.239H435.044z"/>
<path d="M478.265,90.628c-4.22,0-7.639,3.42-7.639,7.639l-0.082,81.965c0,109.597-53.356,212.902-142.727,276.339l-44.128,31.323
	c-16.588,11.772-38.875,11.772-55.461-0.001L184.1,456.572c-3.441-2.444-8.209-1.632-10.651,1.807
	c-2.442,3.441-1.632,8.209,1.808,10.651l44.129,31.323C230.324,508.119,243.139,512,255.959,512
	c12.816,0,25.637-3.882,36.573-11.646l44.128-31.323c93.401-66.298,149.162-174.26,149.162-288.798l0.082-81.965
	C485.905,94.048,482.485,90.628,478.265,90.628z"/>
<path d="M160.786,438.447C84.898,373.962,41.374,279.846,41.374,180.233V65.735c0-8.569,6.133-15.82,14.584-17.241l195.069-32.801
	c3.274-0.551,6.591-0.55,9.865,0L455.96,48.494c8.45,1.421,14.584,8.672,14.584,17.241c0,4.219,3.42,7.639,7.639,7.639
	s7.639-3.42,7.639-7.639c0-16.058-11.493-29.645-27.328-32.308L263.425,0.626c-4.952-0.834-9.975-0.835-14.933,0L53.423,33.427
	c-15.835,2.663-27.328,16.25-27.328,32.308v114.498c0,104.104,45.487,202.463,124.797,269.857c1.437,1.221,3.194,1.818,4.943,1.818
	c2.165,0,4.314-0.915,5.825-2.693C164.392,446,164,441.179,160.786,438.447z"/>
<path d="M425.076,202.532c2.86,0,5.775,0.239,8.664,0.709c2.186,0.354,4.413-0.252,6.113-1.666s2.705-3.494,2.753-5.705
	c0.053-2.349,0.078-4.429,0.078-6.361v-92.27c0-13.667-9.782-25.233-23.26-27.499L318.238,52.725
	c-2.074-0.349-4.197,0.172-5.873,1.438c-1.676,1.267-2.757,3.168-2.988,5.257c-1.661,15.047-9.712,28.751-22.09,37.599
	c-3.433,2.453-4.226,7.225-1.773,10.657c2.456,3.433,7.228,4.226,10.657,1.772c13.695-9.791,23.272-24.218,27.033-40.395
	l93.685,15.753c6.093,1.025,10.515,6.253,10.515,12.432v90.055c-0.778-0.027-1.555-0.04-2.329-0.04
	c-37.912,0-68.755,30.843-68.755,68.755c0,26.664,15.282,50.548,38.817,61.9c-19.77,36.821-48.031,68.885-82.128,93.088
	l-35.562,25.243c-12.854,9.124-30.124,9.124-42.978,0l-35.561-25.243c-34.098-24.204-62.36-56.268-82.128-93.087
	c23.534-11.352,38.817-35.237,38.817-61.9c0-37.912-30.843-68.755-68.755-68.755c-0.774,0-1.551,0.013-2.33,0.04V97.239
	c0-6.179,4.423-11.407,10.516-12.432l94.211-15.842c7.062,30.871,34.573,53.268,66.998,53.268c2.606,0,5.234-0.148,7.811-0.439
	c4.192-0.474,7.206-4.258,6.731-8.45c-0.474-4.193-4.257-7.204-8.45-6.732c-2.007,0.227-4.057,0.343-6.092,0.343
	c-27.345,0-50.194-20.47-53.149-47.615c-0.228-2.09-1.307-3.995-2.984-5.265s-3.804-1.793-5.878-1.442L92.494,69.74
	c-13.477,2.266-23.261,13.832-23.261,27.499v92.271c0,1.928,0.025,3.95,0.079,6.361c0.049,2.211,1.053,4.291,2.753,5.705
	c1.701,1.413,3.931,2.02,6.113,1.666c2.889-0.471,5.804-0.709,8.664-0.709c29.487,0,53.476,23.989,53.476,53.476
	c0,23.062-14.7,43.45-36.578,50.734c-2.1,0.699-3.793,2.274-4.641,4.318c-0.849,2.044-0.77,4.355,0.216,6.336
	c20.984,42.137,52.364,78.812,90.75,106.058l35.561,25.243c9.071,6.439,19.701,9.659,30.332,9.659
	c10.631,0,21.261-3.219,30.332-9.659l35.562-25.243c38.384-27.245,69.765-63.92,90.75-106.059c0.986-1.981,1.065-4.292,0.216-6.336
	c-0.848-2.044-2.542-3.619-4.641-4.318c-21.879-7.283-36.578-27.672-36.578-50.734C371.6,226.522,395.589,202.532,425.076,202.532z"
	/>
<g>
</g>
<g>
</g>
<g>
</g>
<g>
</g>
<g>
</g>
<g>
</g>
<g>
</g>
<g>
</g>
<g>
</g>
<g>
</g>
<g>
</g>
<g>
</g>
<g>
</g>
<g>
</g>
<g>
</g>
</svg>
